<?xml version="1.0" encoding="UTF-8"?><svg id="Layer_1" xmlns="http://www.w3.org/2000/svg" xmlns:xlink="http://www.w3.org/1999/xlink" viewBox="0 0 722.01 765.64"><defs><style>.cls-1{fill:#6bac3b;}.cls-1,.cls-2,.cls-3,.cls-4,.cls-5,.cls-6,.cls-7,.cls-8,.cls-9,.cls-10,.cls-11,.cls-12,.cls-13,.cls-14,.cls-15,.cls-16,.cls-17,.cls-18,.cls-19,.cls-20{stroke-width:0px;}.cls-2{fill:#99b65b;}.cls-2,.cls-21,.cls-13{opacity:.2;}.cls-3{fill:#b16d44;}.cls-4{fill:#96cc51;}.cls-5{fill:#fcb4b2;}.cls-6{fill:#f5f6f4;}.cls-7,.cls-13{fill:#1a1a1a;}.cls-8{fill:#65a74e;}.cls-9,.cls-22{fill:none;}.cls-10{fill:#ff9c9a;}.cls-11{fill:#712e26;}.cls-23{clip-path:url(#clippath-1);}.cls-12{fill:#1b543d;}.cls-22{stroke:#534331;stroke-miterlimit:10;stroke-width:9px;}.cls-14{fill:#fff;}.cls-15{fill:#82b552;}.cls-16{fill:#672e2e;}.cls-17{fill:#072a10;}.cls-24{clip-path:url(#clippath);}.cls-18{fill:#4ca346;}.cls-19{fill:#d0f595;}.cls-20{fill:#f7f9f7;}.cls-9 {animation: heightAnimation 5.5s linear infinite; }#upper {animation: upDownAnimation 6s ease-in-out infinite;}#shadow {animation: scaleAnimation 6s ease-in-out infinite;transform-origin: 50% 100%;}@keyframes heightAnimation {0%, 90% {height: 0;}95% {height: 90px;}100% {height: 0;}}@keyframes upDownAnimation {0%, 100% {transform: translateY(0);}50% {transform: translateY(20px);}}@keyframes scaleAnimation {0%, 100% {transform: scale(1);}50% {transform: scale(1.2);}}@keyframes waveAnimation {0%, 100% {transform: rotateZ(0deg);}50% {transform: rotateZ(80deg);}}#hand2 {transform-origin: 17% 43%;transform: rotateZ(80deg);animation: waveAnimation 2s ease-in-out infinite;}@keyframes waveAnimation {0%, 100% {transform: rotateZ(80deg);}50% {transform: rotateZ(100deg);}}</style><clipPath id="clippath"><rect class="cls-9" x="180" y="125" width="103" height="90"/></clipPath><clipPath id="clippath-1"><rect class="cls-9" x="346" y="115" width="103" height="90"/></clipPath></defs><g id="shadow" class="cls-21"><ellipse class="cls-7" cx="361.34" cy="740.75" rx="231.56" ry="24.89"/></g><g id="body"><g id="legs"><g id="right_leg"><path class="cls-4" d="M507.54,719.88c-.11,1.81-.32,3.68-.61,5.59-.95,6.15-6.23,10.71-12.46,10.71l-83.28,3.5c-9.51,0-13.33-8.26-13.33-17.77l.03-2.03.57-38.43.54-37,42.19-3.66-.76,19.81s.01.01,0,.01l-.75,19.76c25.9-17.51,70.66-3.23,67.86,39.51Z"/><g class="cls-21"><path class="cls-7" d="M507.54,719.88c-.11,1.81-.32,3.68-.61,5.59-.95,6.15-6.23,10.71-12.46,10.71l-83.28,3.5c-9.51,0-13.33-8.26-13.33-17.77l.03-2.03c34.49,6.69,70.88,7.23,109.65,0Z"/></g><path class="cls-6" d="M507.54,719.88c-.11,1.81-.32,3.68-.61,5.59-.14.9-.37,1.77-.69,2.6.85-3.78-1.31-4.11-1.74-7.64-3.5-28.64-43.53-50.34-70.5-31.03l9.56-11.34c26.23-13.75,66.63,1.15,63.97,41.82Z"/><g class="cls-21"><path class="cls-7" d="M441.19,640.79l-.76,19.81s.01.01,0,.01c-7.27,12.66-20.93,21.18-36.57,21.18-1.83,0-3.63-.12-5.4-.34l.54-37,42.19-3.66Z"/></g><path class="cls-17" d="M478.63,672.11c-12.4-3.68-27.06-2.58-38.8,4.49l1.37-35.82-42.19,3.66-1.14,77.45c0,7.77,2.55,14.7,8.67,16.98.25.12.52.2.8.25,1.17.34,2.45.55,3.87.55l83.28-.5c7.76,0,14.25-5.58,15.43-13.26,4.84-31.44-13.82-48.63-31.27-53.81ZM503.97,725.01c-.73,4.73-4.72,8.17-9.5,8.17h-86.04c-.99-.42-1.8-1.11-2.47-2.12-1.36-2.06-2.1-5.29-2.11-9.11l1.06-71.98,30.02-2.6-1.29,33.79c-4.2,3.74-7.79,8.48-10.41,14.3-.68,1.51,0,3.29,1.5,3.97,1.51.68,3.29,0,3.97-1.5,8.97-19.89,31.04-25.14,48.22-20.05,15.86,4.7,31.29,19.55,27.05,47.14Z"/></g><g id="left_leg"><path class="cls-4" d="M210.56,718.61c.11,1.81.32,3.68.61,5.59.95,6.15,6.23,10.71,12.46,10.71l83.28,3.5c9.51,0,13.33-8.26,13.33-17.77l-.03-2.03-.57-38.43-.54-37-42.19-3.66.76,19.81s-.01.01,0,.01l.75,19.76c-25.9-17.51-70.66-3.23-67.86,39.51Z"/><g class="cls-21"><path class="cls-7" d="M210.56,718.61c.11,1.81.32,3.68.61,5.59.95,6.15,6.23,10.71,12.46,10.71l83.28,3.5c9.51,0,13.33-8.26,13.33-17.77l-.03-2.03c-34.49,6.69-70.88,7.23-109.65,0Z"/></g><path class="cls-6" d="M210.56,718.61c.11,1.81.32,3.68.61,5.59.14.9.37,1.77.69,2.6-.85-3.78,1.31-4.11,1.74-7.64,3.5-28.64,43.53-50.34,70.5-31.03l-9.56-11.34c-26.23-13.75-66.63,1.15-63.97,41.82Z"/><g class="cls-21"><path class="cls-7" d="M276.91,639.52l.76,19.81s-.01.01,0,.01c7.27,12.66,20.93,21.18,36.57,21.18,1.83,0,3.63-.12,5.4-.34l-.54-37-42.19-3.66Z"/></g><path class="cls-17" d="M208.2,724.66c1.18,7.68,7.67,13.26,15.43,13.26l83.28.5c1.42,0,2.7-.2,3.87-.55.28-.05.55-.13.8-.25,6.11-2.28,8.67-9.21,8.67-16.98l-1.14-77.45-42.19-3.66,1.37,35.82c-11.74-7.08-26.4-8.17-38.8-4.49-17.45,5.17-36.11,22.37-31.27,53.81ZM241.18,676.6c17.17-5.09,39.25.16,48.22,20.05.68,1.51,2.46,2.18,3.97,1.5,1.51-.68,2.18-2.46,1.5-3.97-2.62-5.82-6.21-10.56-10.41-14.3l-1.29-33.79,30.02,2.6,1.06,71.98c0,3.82-.75,7.05-2.11,9.11-.67,1.01-1.47,1.7-2.47,2.12h-86.04c-4.78,0-8.77-3.44-9.5-8.17-4.24-27.59,11.19-42.44,27.05-47.14Z"/></g></g><g id="upper"><g id="hand2"><path class="cls-4" d="M156.53,282.96c-35.48,4.81-66.68,24-91.22,65.55-.31.53-.78,1.58-1.05,2.13-1.27,2.59-6.75,1.76-16.9-.93-3.99-1.06-7.4-3.59-9.75-7-8.72-12.68-20.7-8.55-19.49,7.89.29,3.93,2.32,7.54,5.45,9.93l10.83,4.31c2.44.97,2.63,4.35.33,5.6-16.96,9.2-29.01,16.1-29.73,31.62-.06,1.36.18,2.72.72,3.96.07.17.15.34.23.51,2.12,4.42,8.04,5.36,11.66,2.06l13.21-12.04c1.5-1.36,3.9-1.09,4.96.64.02.03.03.05.05.08,1.21,2.06.84,4.7-.68,6.55l-9.56,11.62c-2.62,3.69-2.54,8.37.35,10.47,4.2,3.06,10.14,1.94,13.3-2.19l8.99-11.71c.85-1.11,2.18-1.73,3.58-1.66h0c1.99.09,3.55,1.81,3.39,3.8-.33,3.96-1.82,8.04-5.56,12.36-2.89,4.56,3.03,8.72,6.44,7.89,22.49-5.49,37.95-48.56,25.69-66.39-1.63-2.37-2.36-3.74-.58-6,16.7-21.21,38.69-45.35,69.11-57.72,9.68-8.01,9.5-17.78,6.22-21.33Z"/><path class="cls-17" d="M28.79,367.98l-7.05-2.8-.64-.26-.55-.42c-4.31-3.3-7.01-8.23-7.4-13.54-.67-9.05,2.1-14.08,4.54-16.7,2.39-2.57,5.59-3.99,9.01-3.99,5.45,0,10.79,3.41,15.05,9.6,1.72,2.5,4.17,4.27,6.91,5,4.06,1.08,9.06,2.31,11.72,2.33.21-.44.43-.87.65-1.24,12.18-20.63,26.64-36.82,42.96-48.12,15.27-10.57,32.72-17.24,51.88-19.84l2.58-.35s4.32,5.77,4.8,8.26c.26,2.36-4.53,3.13-4.94.81-.32-1.57-.94-2.87-1.77-3.77-35.48,4.81-66.68,24-91.22,65.55-.31.53-.78,1.58-1.05,2.13-.53,1.08-1.8,1.57-3.84,1.57-2.84,0-7.16-.93-13.06-2.5-3.99-1.06-7.4-3.59-9.75-7-3.47-5.05-7.46-7.44-10.93-7.44-5.24,0-9.28,5.43-8.55,15.32.29,3.93,2.32,7.54,5.45,9.93l10.83,4.31c2.44.97,2.63,4.35.33,5.6-16.96,9.2-29.01,16.1-29.73,31.62-.06,1.36.18,2.72.72,3.96.07.17.15.34.23.51,1.26,2.63,3.88,4.03,6.55,4.03,1.81,0,3.65-.64,5.11-1.97l13.21-12.04c.64-.58,1.44-.86,2.23-.86,1.07,0,2.12.51,2.72,1.5.02.03.03.05.05.08,1.21,2.06.84,4.7-.68,6.55l-9.56,11.62c-2.62,3.69-2.54,8.37.35,10.47,1.63,1.18,3.51,1.74,5.4,1.74,2.98,0,5.97-1.4,7.91-3.93l8.99-11.71c.81-1.05,2.06-1.67,3.38-1.67.07,0,.13,0,.2,0,1.99.09,3.55,1.81,3.39,3.8-.33,3.96-1.82,8.04-5.56,12.36-2.64,4.16,2.06,8,5.5,8,.33,0,.64-.03.94-.11,22.49-5.49,37.95-48.56,25.69-66.39-1.63-2.37-2.36-3.74-.58-6,16.7-21.21,38.69-45.35,69.11-57.72.55-.45,1.05-.91,1.53-1.37,4.88-5.03,7.72-1.33,4.77,2.19l-3.7,3.53-.71.29c-29.52,12.01-51.12,35.99-66.68,55.69.11.16.24.35.38.57,8.03,11.67,5.59,29.73.62,42.74-6.37,16.71-17.3,28.42-29.25,31.34-.68.17-1.4.25-2.13.25-4,0-8.15-2.47-10.09-6-1.65-2.99-1.58-6.39.18-9.37l-2.02,2.63c-2.83,3.68-7.26,5.88-11.87,5.88-3.03,0-5.91-.93-8.34-2.7-5.12-3.72-5.77-11.37-1.49-17.41l.1-.15.11-.14,2.18-2.65-2.93,2.67c-2.32,2.11-5.33,3.28-8.48,3.28-4.79,0-9.03-2.63-11.06-6.87-.11-.23-.21-.46-.32-.7-.83-1.93-1.22-4.07-1.12-6.17.81-17.38,13.45-25.44,28.77-33.84Z"/><path class="cls-1" d="M50.09,431.76c-.07.02-.13.03-.2.03,1.47,1.93,4.24,3.08,6.2,2.61,22.49-5.49,37.95-48.56,25.69-66.39-1.63-2.37-2.36-3.74-.58-6,16.7-21.21,38.69-45.35,69.11-57.72,9.68-8.01,9.5-17.78,6.22-21.34-1.45.2-2.89.42-4.32.66,1.17,4.61-.42,11.85-7.9,18.04-30.42,12.37-52.41,36.51-69.11,57.72-1.78,2.26-1.05,3.64.58,6,12.26,17.83-3.2,60.9-25.69,66.39Z"/><path class="cls-1" d="M24.99,424.99c.27.34.59.65.96.92,4.2,3.05,10.14,1.94,13.3-2.19l8.99-11.71c.27-.36.6-.66.96-.91-1.63-1.25-11.78,15.86-24.21,13.89Z"/><path class="cls-1" d="M6.82,407.9c2.59,3.2,7.6,3.6,10.8.68l12.92-11.77c-.07-.76-12.56,11.44-23.72,11.09Z"/><path class="cls-6" d="M35.75,349.29c1.47,2.13,12.63,7.55,21.33,8.11,5.19.33,8.25-1.17,10.05-3.9,26.61-40.25,55.73-60.74,91.21-65.55.06.06.11.12.17.19-.18-2.2-.92-4.02-1.99-5.19-35.48,4.81-66.68,24-91.21,65.55-.32.53-.78,1.58-1.05,2.13-1.27,2.59-6.76,1.77-16.91-.93-3.99-1.06-7.4-3.59-9.74-6.99-8.72-12.69-20.7-8.55-19.49,7.88.16,2.16.84,4.22,1.94,6.03-.05-.34-.09-.68-.12-1.03-1.21-16.43,7.08-18.99,15.8-6.3Z"/><path class="cls-6" d="M5.01,402.05c-.06,1.36.18,2.72.72,3.96.07.18.15.35.23.51.24.51.53.97.87,1.38-.01-.29.04-.57,0-.85-2.54-19.64,31.84-36.25,29.4-37.22l-.53-.21c-.24.32-.56.6-.96.81-16.96,9.21-29.01,16.1-29.73,31.62Z"/><path class="cls-12" d="M71.65,380.22c-1.37-3.82-6.92-7.7-19.11-11.67-2.98.75-6.25,1.38-3.67,4.56,1.94,3.57,6.33,6,11.89,7.89,4.59.99,8.61,1.23,10.89-.78Z"/></g><path class="cls-18" d="M359.11,665.58c-18.47,0-37.02-2.65-55.12-7.88-9.63-2.78-19.29-6.34-28.71-10.58-54.33-24.42-92.15-66.86-109.87-89.99-19.68-25.68-33.09-56.71-39.87-92.24-6.08-31.88-6.86-67.39-2.32-105.56,7.67-64.44,30.85-136.04,63.59-196.45,20.97-38.69,44.53-78.65,74.6-108.72,33.74-33.75,70.83-50.15,113.38-50.15s78.94,14.37,109.59,43.93c28.79,27.77,50.17,65.92,68.97,103,22.4,44.19,81.92,161.56,79.49,273.18-.16,6.84-.54,13.61-1.12,20.11l-.03.38c-5.28,57.59-28.04,107.63-65.82,144.68-44.7,43.83-109.09,69.3-191.38,75.7-5.11.4-10.28.6-15.37.6Z"/><path class="cls-17" d="M374.79,8c22.3,0,42.1,3.79,60.52,11.6,16.71,7.08,31.85,17.29,46.29,31.21,28.37,27.36,49.54,65.16,68.18,101.93,15.67,30.91,35.71,72.33,51.65,118.68,19.18,55.76,28.4,107.1,27.41,152.59-.16,6.76-.53,13.44-1.11,19.9l-.03.33c-5.2,56.65-27.55,105.82-64.64,142.19-44.01,43.15-107.56,68.24-188.9,74.57-5.01.39-10.07.59-15.06.59-18.1,0-36.27-2.6-54.01-7.73-9.45-2.73-18.93-6.23-28.18-10.39-53.52-24.06-90.85-65.94-108.33-88.77-19.29-25.18-32.45-55.65-39.12-90.56-6.01-31.47-6.77-66.58-2.28-104.33,7.61-63.95,30.62-135.03,63.14-195.02,20.83-38.43,44.2-78.09,73.91-107.8,32.95-32.96,69.11-48.98,110.55-48.98M374.79,0c-96.71,0-149.34,83.21-191.49,160.97-57.94,106.88-105.84,287.95-21.06,398.59,23.97,31.29,62.11,69.04,111.4,91.2,9.35,4.21,19.1,7.85,29.24,10.78,17.63,5.1,36.4,8.04,56.23,8.04,5.16,0,10.38-.2,15.68-.61,179.04-13.93,251-116.28,260.88-224.03l.03-.36c.61-6.77.98-13.57,1.14-20.38,2.32-106.73-49.93-215.93-79.92-275.08C517.01,70.42,471.5,0,374.79,0h0Z"/><path class="cls-15" d="M323.83,653.58c-84.94,0-143.66-72.39-164.97-103.51-31.82-46.48-44.29-111.95-36.07-189.33,6.55-61.67,26.37-130.19,54.37-188,17.93-37.01,38.05-75.23,63.73-103.98,28.71-32.14,60.22-47.77,96.34-47.77s67.04,13.68,93.11,41.82c24.59,26.55,42.85,63.03,58.92,98.5,20.81,45.94,76.09,167.97,66.99,280.69-4.46,55.23-23.87,103.17-56.15,138.66-38.1,41.89-93.01,66.23-163.21,72.35-4.34.38-8.73.57-13.05.57Z"/><path class="cls-17" d="M337.23,25c18.78,0,35.46,3.58,50.97,10.93,14.13,6.7,26.95,16.38,39.2,29.6,24.2,26.13,42.28,62.27,58.21,97.43,14.45,31.9,32.83,74.64,46.77,122.32,16.9,57.78,23.59,110.41,19.87,156.41-4.39,54.34-23.45,101.46-55.12,136.29-37.4,41.12-91.43,65.02-160.6,71.05-4.22.37-8.5.55-12.7.55-83.03,0-140.72-71.17-161.67-101.77-16.49-24.08-27.74-53.25-33.44-86.68-5.14-30.16-5.8-63.79-1.95-99.97,6.51-61.23,26.19-129.27,53.99-186.68,17.8-36.75,37.76-74.67,63.11-103.06,27.91-31.24,58.44-46.43,93.35-46.43M337.23,17c-82.66,0-127.64,79.61-163.67,154-49.52,102.25-90.46,275.48-18,381.33,31.14,45.49,90.22,105.25,168.27,105.25,4.4,0,8.88-.19,13.4-.58,153.2-13.35,214.67-111.47,223-214.67,8.72-108.09-40.07-222.47-67.33-282.67-34.11-75.29-73.01-142.67-155.67-142.67h0Z"/><path class="cls-19" d="M472.28,175.75c24.8,54.75,69.17,158.77,61.24,257.07-7.58,93.86-63.48,183.09-202.81,195.23-77.02,6.71-135.3-51.49-165.22-95.19-65.9-96.26-28.67-253.82,16.37-346.81,32.77-67.66,73.67-140.06,148.85-140.06s110.55,61.27,141.57,129.75Z"/><path class="cls-14" d="M275.63,84.58c-2.71,2.71-6.37,3.44-8.17,1.63-1.81-1.81-1.08-5.47,1.63-8.17s6.37-3.44,8.17-1.63c1.81,1.81,1.08,5.47-1.63,8.17ZM174.89,296.42c-2.21-1.28-5.56.37-7.47,3.69-1.91,3.31-1.67,7.04.54,8.32s5.56-.37,7.47-3.69,1.67-7.04-.54-8.32ZM185.12,322.25c-1.29-.74-3.24.22-4.35,2.15-1.11,1.93-.97,4.1.32,4.84,1.29.74,3.24-.22,4.35-2.15,1.11-1.93.97-4.1-.32-4.84ZM294.23,67.79c-1.03-1.03-3.11-.61-4.65.93-1.54,1.54-1.95,3.62-.93,4.65s3.11.61,4.65-.93c1.54-1.54,1.95-3.62.93-4.65ZM271.8,97.88c-1.03-1.03-3.11-.61-4.65.93-1.54,1.54-1.95,3.62-.93,4.65s3.11.61,4.65-.93c1.54-1.54,1.95-3.62.93-4.65Z"/><g id="dots"><ellipse class="cls-13" cx="496.69" cy="135.07" rx="6.25" ry="9.36" transform="translate(-10.85 220.79) rotate(-24.8)"/><ellipse class="cls-13" cx="549.09" cy="190.09" rx="6.25" ry="9.36" transform="translate(-29.1 247.84) rotate(-24.8)"/><ellipse class="cls-8" cx="548.66" cy="189.17" rx="6.25" ry="9.36" transform="translate(-28.75 247.58) rotate(-24.8)"/><ellipse class="cls-13" cx="538.49" cy="226.35" rx="6.25" ry="9.36" transform="translate(-45.28 246.74) rotate(-24.8)"/><path class="cls-18" d="M540.57,230.45c-.92,0-2.87-1.26-4.12-3.95-.71-1.54-1-3.17-.79-4.48.13-.83.43-1.26.59-1.33.02,0,.06-.03.17-.03.92,0,2.87,1.26,4.12,3.95,1.45,3.14.71,5.57.21,5.81-.02,0-.06.03-.17.03Z"/><path class="cls-17" d="M536.42,216.66c-.64,0-1.27.13-1.85.4-3.13,1.45-3.91,6.42-1.75,11.12,1.76,3.82,4.94,6.27,7.75,6.27.64,0,1.27-.13,1.85-.4,3.13-1.45,3.91-6.42,1.75-11.12-1.76-3.82-4.94-6.27-7.75-6.27h0Z"/><ellipse class="cls-13" cx="588.17" cy="292.9" rx="6.25" ry="9.36" transform="translate(-68.61 273.72) rotate(-24.8)"/><ellipse class="cls-8" cx="587.83" cy="291.31" rx="6.25" ry="9.36" transform="translate(-58.67 179.77) rotate(-16.57)"/><ellipse class="cls-13" cx="581.91" cy="366.81" rx="9.36" ry="6.25" transform="translate(187.72 930.52) rotate(-87.26)"/><ellipse class="cls-8" cx="581.27" cy="365.54" rx="9.36" ry="6.25" transform="translate(188.37 928.67) rotate(-87.26)"/><ellipse class="cls-13" cx="601.94" cy="419.17" rx="9.36" ry="6.25" transform="translate(154.48 1000.4) rotate(-87.26)"/><path class="cls-18" d="M601.01,423.49c-.56-.03-2.15-2.01-1.99-5.46.16-3.44,1.91-5.25,2.49-5.25.19,0,.62.29,1.06,1.01.68,1.14,1.03,2.76.95,4.45-.16,3.44-1.91,5.25-2.49,5.25h-.01Z"/><path class="cls-17" d="M601.51,408.79c-3.36,0-6.24,3.99-6.48,9.05-.25,5.16,2.35,9.48,5.79,9.65.07,0,.14,0,.2,0,3.36,0,6.24-3.99,6.48-9.05.25-5.16-2.35-9.48-5.79-9.65-.07,0-.14,0-.2,0h0Z"/><ellipse class="cls-13" cx="581.67" cy="501.12" rx="9.36" ry="6.25" transform="translate(53.32 1058.17) rotate(-87.26)"/><path class="cls-18" d="M580.84,505.28c-.56-.03-2.15-2.01-1.99-5.46.16-3.44,1.91-5.25,2.49-5.25.57.03,2.17,2.01,2,5.46-.16,3.44-1.91,5.25-2.49,5.25h-.01Z"/><path class="cls-17" d="M581.34,490.58c-3.36,0-6.24,3.99-6.48,9.05-.25,5.16,2.35,9.48,5.79,9.65.07,0,.14,0,.2,0,3.36,0,6.24-3.99,6.48-9.05.25-5.16-2.35-9.48-5.79-9.65-.07,0-.14,0-.2,0h0Z"/><ellipse class="cls-13" cx="492.88" cy="92.07" rx="6.25" ry="9.36" transform="translate(6.84 215.23) rotate(-24.8)"/><ellipse class="cls-8" cx="492.66" cy="90.67" rx="6.25" ry="9.36" transform="translate(7.4 215.01) rotate(-24.8)"/></g><g class="cls-21"><path class="cls-7" d="M635.67,444.94c-9.88,107.75-81.84,210.1-260.88,224.03-25.66,2-49.7-1.01-71.91-7.43,147.07,11.81,284.17-77.67,332.79-216.6Z"/></g><circle class="cls-3" cx="317.17" cy="399.28" r="117.11"/><path class="cls-14" d="M408.93,326.52c-21.43-23.93-52.57-38.99-87.23-38.99-64.68,0-117.11,52.44-117.11,117.12,0,27.49,9.48,52.78,25.35,72.76-18.58-20.72-29.88-48.11-29.88-78.13,0-64.68,52.43-117.11,117.11-117.11,37.18,0,70.32,17.33,91.76,44.35Z"/><path class="cls-11" d="M434.28,399.28c0,64.68-52.43,117.11-117.11,117.11-41.75,0-78.4-21.85-99.12-54.73,18.57,12.4,40.89,19.62,64.9,19.62,64.68,0,117.11-52.44,117.11-117.11,0-22.93-6.59-44.32-17.99-62.38,31.48,20.99,52.21,56.82,52.21,97.49Z"/><path class="cls-2" d="M449.24,427.23c0,64.68-52.44,117.11-117.12,117.11-50.37,0-93.32-31.81-109.85-76.44,21.27,29.38,55.85,48.49,94.9,48.49,64.68,0,117.11-52.43,117.11-117.11,0-14.31-2.57-28.02-7.27-40.7,13.99,19.29,22.23,43.01,22.23,68.65Z"/><circle class="cls-22" cx="317.17" cy="399.28" r="117.11"/><path class="cls-6" d="M264.68,344.82c-7.68,9.85-20.19,12.94-27.96,6.89-7.76-6.05-7.84-18.94-.16-28.79,7.68-9.85,20.19-12.94,27.96-6.89s7.84,18.94.16,28.79ZM294.39,301.17c-3.73-2.91-9.75-1.43-13.44,3.31-3.69,4.74-3.66,10.94.08,13.85,3.73,2.91,9.75,1.43,13.44-3.31,3.69-4.74,3.66-10.94-.08-13.85ZM234.24,368.3c-3.73-2.91-9.75-1.43-13.44,3.31-3.69,4.74-3.66,10.94.08,13.85,3.73,2.91,9.75,1.43,13.44-3.31,3.69-4.74,3.66-10.94-.08-13.85Z"/><g id="hand"><path class="cls-4" d="M565.48,296.62c35.48,4.81,66.68,24,91.22,65.55.31.53.78,1.58,1.05,2.13,1.27,2.59,6.75,1.76,16.9-.93,3.99-1.06,7.4-3.59,9.75-7,8.72-12.68,20.7-8.55,19.49,7.89-.29,3.93-2.32,7.54-5.45,9.93l-10.83,4.31c-2.44.97-2.63,4.35-.33,5.6,16.96,9.2,29.01,16.1,29.73,31.62.06,1.36-.18,2.72-.72,3.96-.07.17-.15.34-.23.51-2.12,4.42-8.04,5.36-11.66,2.06l-13.21-12.04c-1.5-1.36-3.9-1.09-4.96.64-.02.03-.03.05-.05.08-1.21,2.06-.84,4.7.68,6.55l9.56,11.62c2.62,3.69,2.54,8.37-.35,10.47-4.2,3.06-10.14,1.94-13.3-2.19l-8.99-11.71c-.85-1.11-2.18-1.73-3.58-1.66h0c-1.99.09-3.55,1.81-3.39,3.8.33,3.96,1.82,8.04,5.56,12.36,2.89,4.56-3.03,8.72-6.44,7.89-22.49-5.49-37.95-48.56-25.69-66.39,1.63-2.37,2.36-3.74.58-6-16.7-21.21-38.69-45.35-69.11-57.72-9.68-8.01-9.5-17.78-6.22-21.33Z"/><path class="cls-17" d="M693.22,381.65l7.05-2.8.64-.26.55-.42c4.31-3.3,7.01-8.23,7.4-13.54.67-9.05-2.1-14.08-4.54-16.7-2.39-2.57-5.59-3.99-9.01-3.99-5.45,0-10.79,3.41-15.05,9.6-1.72,2.5-4.17,4.27-6.91,5-4.06,1.08-9.06,2.31-11.72,2.33-.21-.44-.43-.87-.65-1.24-12.18-20.63-26.64-36.82-42.96-48.12-15.27-10.57-32.72-17.24-51.88-19.84l-2.58-.35s-4.32,5.77-4.8,8.26c-.26,2.36,4.53,3.13,4.94.81.32-1.57.94-2.87,1.77-3.77,35.48,4.81,66.68,24,91.22,65.55.31.53.78,1.58,1.05,2.13.53,1.08,1.8,1.57,3.84,1.57,2.84,0,7.16-.93,13.06-2.5,3.99-1.06,7.4-3.59,9.75-7,3.47-5.05,7.46-7.44,10.93-7.44,5.24,0,9.28,5.43,8.55,15.32-.29,3.93-2.32,7.54-5.45,9.93l-10.83,4.31c-2.44.97-2.63,4.35-.33,5.6,16.96,9.2,29.01,16.1,29.73,31.62.06,1.36-.18,2.72-.72,3.96-.07.17-.15.34-.23.51-1.26,2.63-3.88,4.03-6.55,4.03-1.81,0-3.65-.64-5.11-1.97l-13.21-12.04c-.64-.58-1.44-.86-2.23-.86-1.07,0-2.12.51-2.72,1.5-.02.03-.03.05-.05.08-1.21,2.06-.84,4.7.68,6.55l9.56,11.62c2.62,3.69,2.54,8.37-.35,10.47-1.63,1.18-3.51,1.74-5.4,1.74-2.98,0-5.97-1.4-7.91-3.93l-8.99-11.71c-.81-1.05-2.06-1.67-3.38-1.67-.07,0-.13,0-.2,0-1.99.09-3.55,1.81-3.39,3.8.33,3.96,1.82,8.04,5.56,12.36,2.64,4.16-2.06,8-5.5,8-.33,0-.64-.03-.94-.11-22.49-5.49-37.95-48.56-25.69-66.39,1.63-2.37,2.36-3.74.58-6-16.7-21.21-38.69-45.35-69.11-57.72-.55-.45-1.05-.91-1.53-1.37-4.88-5.03-7.72-1.33-4.77,2.19l3.7,3.53.71.29c29.52,12.01,51.12,35.99,66.68,55.69-.11.16-.24.35-.38.57-8.03,11.67-5.59,29.73-.62,42.74,6.37,16.71,17.3,28.42,29.25,31.34.68.17,1.4.25,2.13.25,4,0,8.15-2.47,10.09-6,1.65-2.99,1.58-6.39-.18-9.37l2.02,2.63c2.83,3.68,7.26,5.88,11.87,5.88,3.03,0,5.91-.93,8.34-2.7,5.12-3.72,5.77-11.37,1.49-17.41l-.1-.15-.11-.14-2.18-2.65,2.93,2.67c2.32,2.11,5.33,3.28,8.48,3.28,4.79,0,9.03-2.63,11.06-6.87.11-.23.21-.46.32-.7.83-1.93,1.22-4.07,1.12-6.17-.81-17.38-13.45-25.44-28.77-33.84Z"/><path class="cls-1" d="M671.92,445.43c.07.02.13.03.2.03-1.47,1.93-4.24,3.08-6.2,2.61-22.49-5.49-37.95-48.56-25.69-66.39,1.63-2.37,2.36-3.74.58-6-16.7-21.21-38.69-45.35-69.11-57.72-9.68-8.01-9.5-17.78-6.22-21.34,1.45.2,2.89.42,4.32.66-1.17,4.61.42,11.85,7.9,18.04,30.42,12.37,52.41,36.51,69.11,57.72,1.78,2.26,1.05,3.64-.58,6-12.26,17.83,3.2,60.9,25.69,66.39Z"/><path class="cls-1" d="M697.02,438.66c-.27.34-.59.65-.96.92-4.2,3.05-10.14,1.94-13.3-2.19l-8.99-11.71c-.27-.36-.6-.66-.96-.91,1.63-1.25,11.78,15.86,24.21,13.89Z"/><path class="cls-1" d="M715.19,421.57c-2.59,3.2-7.6,3.6-10.8.68l-12.92-11.77c.07-.76,12.56,11.44,23.72,11.09Z"/><path class="cls-6" d="M686.25,362.96c-1.47,2.13-12.63,7.55-21.33,8.11-5.19.33-8.25-1.17-10.05-3.9-26.61-40.25-55.73-60.74-91.21-65.55-.06.06-.11.12-.17.19.18-2.2.92-4.02,1.99-5.19,35.48,4.81,66.68,24,91.21,65.55.32.53.78,1.58,1.05,2.13,1.27,2.59,6.76,1.77,16.91-.93,3.99-1.06,7.4-3.59,9.74-6.99,8.72-12.69,20.7-8.55,19.49,7.88-.16,2.16-.84,4.22-1.94,6.03.05-.34.09-.68.12-1.03,1.21-16.43-7.08-18.99-15.8-6.3Z"/><path class="cls-6" d="M717,415.72c.06,1.36-.18,2.72-.72,3.96-.07.18-.15.35-.23.51-.24.51-.53.97-.87,1.38.01-.29-.04-.57,0-.85,2.54-19.64-31.84-36.25-29.4-37.22l.53-.21c.24.32.56.6.96.81,16.96,9.21,29.01,16.1,29.73,31.62Z"/><path class="cls-12" d="M650.36,393.89c1.37-3.82,6.92-7.7,19.11-11.67,2.98.75,6.25,1.38,3.67,4.56-1.94,3.57-6.33,6-11.89,7.89-4.59.99-8.61,1.23-10.89-.78Z"/></g><g id="face"><path class="cls-17" d="M274.54,206.75c3.32,5.51-.06,8.95,22.39,9.67,0,0,3.72-.4,6.39-.34,2.67.06,7.22.23,7.22.23,17.31-.31,34.56-7.43,34.56-8.56-.17-4.54,2.17-6.59,3.86-4.53.47.57.66,1.33.67,2.07.69,34.14-11.09,47.81-24.64,53.54-36.82,15.57-55.57-4.64-53.39-43.8.02-4.99,1.17-11.22,2.94-8.28Z"/><path class="cls-16" d="M342.13,232.46c-8.51,19.83-30.9,30.75-47.53,24.71-11.77-4.26-20.66-17-19.75-41.07,16.73,8.87,40.51,8.51,70.66-4.04.54,7.47-.77,14.36-3.38,20.4Z"/><path class="cls-10" d="M342.13,232.46c-1.42,3.3-3.22,6.36-5.32,9.13-10.36,13.69-27.9,20.44-41.68,15.75-.18-.05-.35-.12-.53-.18.49-3.44,2.09-7.02,5.02-10.61,9.64-11.79,30.08-19.17,42.51-14.1Z"/><path class="cls-5" d="M336.81,241.59c-10.36,13.69-27.9,20.44-41.68,15.75.26-.36.54-.71.83-1.07,9.22-11.27,28.33-18.52,40.85-14.68Z"/><path class="cls-13" d="M345.54,218.23c-28.91,11.49-51.81,11.58-68.05,2.98-.39,10.34,1.03,18.58,3.72,24.96-4.35-6.86-6.86-16.72-6.36-30.07,16.73,8.86,40.51,8.5,70.66-4.04.15,2.11.16,4.17.03,6.17Z"/><g id="left_eye"><path class="cls-17" d="M273.02,169.85c0,25.1-20.34,45.44-45.44,45.44s-39.54-18.17-39.54-43.26,19.13-45.97,44.23-45.97,40.75,18.7,40.75,43.8Z"/><ellipse class="cls-20" cx="230.41" cy="173.3" rx="36.51" ry="39.6"/><path class="cls-17" d="M269.24,170.67c0,20.71-9.49,38.42-27.78,41.81-20.37,3.77-42.39-18.29-42.39-39.01s14.12-38.33,34.83-38.33,35.34,14.81,35.34,35.52Z"/><path class="cls-20" d="M238.9,152.86c0,9.27-10.12,17.8-18.4,17.8s-16-8.07-15.07-17.29c.73-7.19,9.95-14.95,18.22-14.95s15.24,5.18,15.24,14.45Z"/><path class="cls-20" d="M255.35,188.79c0,4.93-5.39,9.47-9.79,9.47s-8.51-4.29-8.02-9.2c.39-3.82,5.29-7.96,9.7-7.96s8.11,2.76,8.11,7.69Z"/><g class="cls-24"><ellipse id="eye_lid" class="cls-17" cx="230.28" cy="170.63" rx="42.22" ry="42.68"/></g></g><g id="right_eye"><path class="cls-17" d="M438.96,159.21c0,25.1-20.34,45.44-45.44,45.44s-39.54-18.17-39.54-43.26,19.13-45.97,44.23-45.97,40.75,18.7,40.75,43.8Z"/><ellipse class="cls-20" cx="396.35" cy="162.67" rx="36.51" ry="39.6"/><path class="cls-17" d="M435.19,160.04c0,20.71-9.49,38.42-27.78,41.81-20.37,3.77-42.39-18.29-42.39-39.01s14.12-38.33,34.83-38.33,35.34,14.81,35.34,35.52Z"/><path class="cls-20" d="M404.85,142.23c0,9.27-10.12,17.8-18.4,17.8s-16-8.07-15.07-17.29c.73-7.19,9.95-14.95,18.22-14.95s15.24,5.18,15.24,14.45Z"/><path class="cls-20" d="M421.29,178.15c0,4.93-5.39,9.47-9.79,9.47s-8.51-4.29-8.02-9.2c.39-3.82,5.29-7.96,9.7-7.96s8.11,2.76,8.11,7.69Z"/><g class="cls-23"><ellipse id="eye_lid-2" class="cls-17" cx="396.47" cy="160.5" rx="42.22" ry="42.68"/></g></g></g></g></g></svg>