<svg width="631" height="479" viewBox="0 0 631 479" fill="none" xmlns="http://www.w3.org/2000/svg">
<path opacity="0.2" d="M514.056 406.858C512.89 406.858 507.839 406.47 502.788 405.693H503.954C508.227 405.304 514.832 403.361 517.163 400.641C517.163 400.641 513.278 400.252 507.45 400.252C513.278 398.698 516.387 394.812 516.387 394.812L503.954 396.755L491.133 399.864C490.744 399.864 490.356 400.252 489.579 400.252L484.139 401.418L474.426 403.361C471.707 403.75 469.764 404.527 469.764 404.527C467.433 403.75 463.548 403.75 454.612 409.19V408.801C454.612 408.801 454.612 408.413 455 408.413C456.943 406.081 458.109 402.972 458.109 400.641V399.475V398.698L460.051 394.812L459.274 395.201L456.554 396.366H456.166H455.777H453.058C449.172 397.144 446.841 398.698 445.287 403.361C444.122 406.47 442.179 407.636 441.014 408.024C440.625 406.858 439.848 406.081 439.071 404.915L438.294 404.138C437.129 401.418 435.963 398.698 436.351 395.589C436.351 393.258 436.351 391.703 435.963 390.149C435.963 388.206 435.574 385.874 435.574 385.486V385.097C435.574 383.931 435.574 383.154 435.186 381.988C434.797 378.491 434.02 374.994 433.243 371.885C432.078 366.833 426.638 360.616 424.307 359.45C424.307 359.45 423.53 362.17 423.919 364.89C422.825 363.408 421.515 362.098 420.033 361.004L419.645 368.776L416.925 366.833C416.925 366.833 416.925 370.719 418.091 374.994C418.091 375.382 418.091 375.382 418.479 375.771L417.314 374.605L416.925 374.216C416.925 374.605 416.537 377.325 418.479 381.988C418.868 382.765 419.256 383.931 420.033 384.708C418.868 385.097 418.091 389.76 420.811 392.48L421.199 392.869C420.422 394.035 419.645 397.532 421.976 399.087C421.976 399.087 422.365 399.475 422.753 399.475C421.588 400.641 421.588 403.361 423.142 404.138C423.53 404.138 423.53 404.138 423.919 404.527C423.141 405.304 422.753 406.47 423.919 407.247C424.307 407.636 425.084 407.636 425.473 407.636C424.307 408.801 424.307 410.744 425.861 411.133H426.25C425.861 412.299 425.861 414.242 427.415 415.019C427.804 415.407 428.192 415.407 428.97 415.019V415.407V415.796V416.185V416.573V416.962V417.35V417.739L429.358 418.128H429.746H430.135H430.912V418.516V418.905C430.912 419.293 430.912 419.293 431.301 419.682V420.071C431.743 420.551 432.27 420.946 432.855 421.236H433.243C433.243 422.014 433.631 423.179 434.02 423.957L431.301 430.951C429.806 434.235 427.984 437.36 425.861 440.277C423.53 442.22 420.033 445.329 414.206 447.661C413.04 448.049 411.874 448.438 410.709 449.215C406.046 450.77 401.385 453.101 397.499 455.044C396.334 455.821 398.276 455.821 399.053 455.433C404.881 452.713 408.766 451.935 411.486 451.547C412.263 452.324 414.983 452.713 416.925 451.547C416.537 452.324 416.925 453.49 418.479 453.878C420.033 454.267 420.81 453.878 421.588 453.101C421.199 454.655 420.81 455.821 421.976 456.987C422.753 457.764 423.919 456.987 425.084 455.821C424.696 457.764 424.307 459.707 425.084 460.484C425.473 461.262 426.638 460.484 427.804 459.319L428.581 458.541C427.804 461.262 427.416 462.427 428.581 464.759C428.97 465.536 429.746 465.925 430.135 465.148C430.135 467.091 429.746 468.645 429.358 470.199L428.192 477.194C427.804 478.36 428.581 479.526 428.97 478.748C430.292 472.694 431.978 466.724 434.02 460.873C436.351 452.324 436.351 448.049 437.128 442.22V441.055C438.682 439.889 440.236 438.723 441.79 436.78H442.179C442.568 436.78 442.956 436.003 442.956 435.614L443.345 435.226C443.345 436.392 443.345 437.169 444.122 437.946C444.51 437.946 444.51 438.335 444.899 437.946C445.287 437.946 445.676 437.557 446.065 436.78C446.065 437.169 446.064 437.946 446.453 438.334C446.841 438.723 447.23 439.5 447.618 439.5C448.395 439.889 449.172 439.112 449.561 438.334C449.561 439.112 449.95 439.889 450.338 440.277C451.115 440.666 451.892 439.5 452.281 437.946C452.281 439.5 452.669 440.277 453.446 440.666C454.612 441.055 455.389 439.112 456.166 437.169C456.554 438.723 456.943 439.889 457.72 440.277C458.886 441.055 459.663 439.5 460.051 437.169C460.44 437.946 460.828 438.723 461.216 438.723C462.77 439.5 463.159 437.557 463.159 434.837C463.548 436.003 464.325 436.78 465.102 436.78C467.044 436.78 467.433 434.837 467.044 432.894C467.433 433.671 468.21 434.06 468.598 434.06C470.929 434.449 471.318 432.117 471.318 430.563C472.095 431.34 473.261 432.117 474.038 432.117C476.369 432.506 477.146 431.34 477.146 430.174C477.743 430.488 478.417 430.623 479.089 430.563C482.974 430.563 483.751 429.008 483.362 427.842C487.636 429.008 490.744 427.842 491.521 425.9L490.355 425.122C495.406 425.122 498.126 421.236 498.126 421.236C498.126 421.236 496.961 420.848 495.018 420.459C500.069 420.459 502.788 416.962 502.788 416.962L497.737 415.407H498.903C505.508 415.796 507.839 412.687 507.839 412.687C507.839 412.687 501.234 411.521 498.126 409.967H501.234C508.228 410.744 515.61 406.858 514.056 406.858ZM631 229.659C631 229.659 623.618 226.551 610.02 218.001C598.364 210.618 584.378 195.074 576.996 184.971C573.887 178.753 569.225 171.759 564.952 166.318C563.398 163.987 561.843 161.655 559.901 159.712C553.684 152.329 543.583 143.391 542.029 140.671C542.029 140.671 541.252 139.117 543.583 135.619C544.749 134.065 546.691 131.734 549.799 129.013C556.016 123.962 559.512 116.578 561.066 112.304L568.059 106.086V105.698C568.059 105.309 567.671 105.309 567.671 105.309L560.289 106.475C559.901 106.086 559.901 105.698 559.901 105.698L559.124 106.475C557.958 105.698 556.015 104.92 554.461 104.143C550.965 102.589 546.691 101.812 543.195 102.589C536.201 104.143 531.539 107.252 528.431 111.138C527.654 111.915 526.877 113.081 526.1 114.247C520.272 109.972 491.521 78.8846 483.751 71.1127L481.808 69.1698L476.757 61.7865C473.261 55.9576 469.764 48.5743 465.879 35.3621C461.605 21.3727 458.109 0 458.109 0C458.109 0 454.612 11.2692 455.389 18.6525C453.834 14.378 449.95 12.0465 449.95 12.0465C449.561 13.9894 449.561 17.4867 449.95 22.1499C447.619 20.2069 444.122 19.0411 444.122 19.0411C444.122 22.1499 444.122 26.4244 445.287 31.0876C441.79 28.756 437.517 30.3104 437.517 30.3104C437.517 33.0305 437.905 36.1393 439.459 40.0252C437.128 40.0252 434.797 41.191 434.797 41.191C435.186 43.5226 436.351 47.7971 439.459 52.4602C436.74 52.4602 434.797 54.0146 434.797 54.0146C435.574 58.6777 437.905 67.2268 446.841 71.89C447.23 71.89 447.23 72.2786 447.618 72.2786C443.344 72.6672 440.625 74.6102 440.625 74.6102C443.345 80.0505 447.23 85.1022 453.835 87.4337C449.561 88.9881 448.007 90.5426 448.396 94.0399C448.784 95.5943 450.338 97.1486 454.612 97.5372C453.058 99.8688 452.281 103.366 454.612 104.532C455.389 104.92 456.554 104.92 458.497 104.532C457.72 107.641 458.109 111.527 461.605 112.304C462.382 112.304 463.159 112.304 464.325 111.915C462.771 114.635 462.77 117.744 467.044 118.91C467.821 119.299 468.599 118.91 469.764 118.91C468.599 121.63 469.764 125.127 475.98 123.573C475.592 126.293 477.146 128.625 479.089 128.236C479.477 128.236 479.865 128.236 480.254 127.848C480.254 128.625 480.254 129.402 480.642 130.179C475.592 134.065 470.153 138.34 462.382 141.837C442.568 144.557 411.486 153.495 382.735 184.194C381.57 185.748 383.901 186.137 389.729 181.474C398.276 174.868 400.607 173.313 409.932 168.261C412.652 166.707 415.371 165.153 417.702 164.375C419.645 167.096 430.912 166.318 430.912 166.318C430.524 168.65 432.466 169.039 432.466 169.039C428.97 173.313 431.689 179.142 432.077 179.919C431.3 180.696 430.135 181.862 428.97 182.639C420.811 189.634 413.429 194.686 406.047 202.458C402.939 205.566 401.773 209.452 406.435 205.566C413.428 199.737 416.148 196.24 425.473 190.023C449.561 174.09 463.159 163.21 469.764 157.769C473.261 156.992 476.757 156.992 480.642 156.604C480.642 156.992 481.031 156.992 481.031 156.992C481.42 157.381 482.585 156.992 483.751 156.215H497.737C497.349 157.769 498.126 163.598 506.285 164.764C505.12 165.93 504.731 166.707 504.731 167.873C505.896 172.536 508.616 174.867 515.221 172.925C513.667 174.867 512.501 176.422 513.667 178.365C515.609 182.251 519.495 181.474 524.157 179.142C523.38 181.085 522.991 182.639 523.768 183.805C526.1 187.691 530.373 185.748 534.258 182.639C533.481 184.971 533.481 187.303 533.87 188.857C535.036 193.909 539.309 196.629 542.806 192.743C543.194 195.852 543.971 198.572 545.526 200.515C548.634 204.789 551.353 200.903 552.907 197.017C554.073 202.846 556.015 207.509 558.346 209.064C561.066 211.007 562.232 208.675 562.232 205.566C564.563 210.23 566.894 213.338 568.837 214.116C571.945 214.893 573.499 213.338 574.276 211.784C577.384 216.058 580.492 218.779 582.823 219.556C589.428 221.499 593.313 219.556 594.479 217.224C603.804 224.608 608.854 225.773 614.293 227.328C624.006 228.882 631 229.659 631 229.659ZM59.8752 224.608L57.9326 223.83C57.5441 223.442 57.1554 223.053 56.7669 223.053H56.3784H55.99H55.6016H55.2127H54.8243H54.4358C53.2703 223.053 52.1046 223.442 50.9391 223.83H50.5506C50.1621 223.83 50.1623 224.219 49.7738 224.219C49.7738 224.219 49.3849 224.219 49.3849 224.608C48.9964 224.608 48.6081 224.996 48.2196 224.996V224.608C48.6081 223.442 48.9965 222.665 48.9965 222.276C48.6079 221.11 45.1115 220.333 42.0034 220.333C41.6149 220.333 40.0608 220.722 38.1182 221.499C36.5641 221.887 34.6214 222.665 32.6788 223.442C30.7362 223.83 21.4117 226.939 19.0806 227.716L5.8708 231.214C5.09376 231.602 2.76245 231.991 2.76245 231.991C3.92801 232.768 5.8709 232.768 7.42498 232.768H8.20183C8.20183 232.768 8.97906 232.768 9.36758 232.379C9.36758 232.379 8.20192 232.768 7.8134 233.157C7.42488 233.545 7.03655 233.545 7.03655 233.545C6.64803 233.934 7.03636 233.934 7.8134 234.322C8.97896 234.711 10.533 233.934 11.6986 233.545C11.3101 233.934 10.9217 233.934 11.3102 234.322C11.3102 234.322 11.6984 234.711 12.4755 234.711C13.641 234.711 15.1951 234.322 16.3607 233.934L15.9722 234.322C15.9722 234.711 15.9721 234.711 16.3607 235.1H17.138C18.3035 235.1 19.4688 234.711 20.2459 233.934C20.2459 234.322 20.6346 234.711 21.4116 234.711C22.1887 234.711 22.9656 233.934 23.7426 233.157V233.545C23.7426 233.934 24.5199 233.934 24.9084 233.545C25.6854 233.545 26.074 233.157 26.4626 232.768L26.851 232.379C27.628 233.157 28.405 232.768 29.182 232.379C28.405 233.157 28.405 233.934 29.182 234.322C28.7935 234.711 28.7935 235.488 29.182 235.877C28.405 236.265 28.7935 237.043 29.182 237.431C28.7935 237.431 28.7936 237.82 28.7936 238.208V238.597C26.4625 239.763 26.8507 240.929 20.2459 244.814L14.0296 248.312C12.8641 248.7 4.70515 252.198 2.37402 252.975C1.9855 252.975 0.0429968 253.752 0.0429968 254.529C-0.345524 254.918 1.98569 254.529 3.53977 254.141L10.9218 251.421C11.3103 251.421 11.6986 251.421 11.6986 251.809C11.6986 252.198 10.9214 252.975 10.5329 253.364L6.25923 256.084C5.48219 256.472 5.09367 256.861 4.31662 257.25C3.53958 258.027 2.37431 259.193 3.15135 259.193C5.87099 258.415 14.0297 252.586 15.5838 251.421C17.9149 249.866 20.2459 248.7 22.1885 247.923C23.7425 247.535 25.6854 246.757 26.851 246.757C28.0166 246.757 29.5705 246.369 31.1246 245.592C29.9591 246.369 29.5704 247.146 29.5704 247.535C29.5704 247.923 29.9592 247.535 30.3478 247.535C28.7937 248.7 28.0164 249.478 27.6278 249.866C27.2393 250.255 26.8509 250.643 27.2394 251.032C27.6279 251.032 28.4049 250.643 29.5704 249.866C29.1819 250.255 28.7937 250.643 28.4052 250.643C27.6281 251.032 26.8511 252.198 26.4626 252.586C25.297 253.752 25.2968 254.918 25.2968 254.918L27.6278 253.364C29.1819 252.198 33.8443 250.255 40.8376 245.592C42.7802 244.426 43.5574 242.094 44.3344 239.763C46.6655 238.208 48.6082 236.654 49.7738 235.488C50.1623 235.1 50.5506 234.711 50.5506 234.322C50.5506 234.322 52.4934 231.991 53.659 231.602C54.8245 230.825 57.1555 230.048 58.321 228.105C58.7096 227.716 58.7095 227.328 58.7095 226.939L59.8752 224.608Z" fill="#190417"/>
</svg>
