<svg xmlns="http://www.w3.org/2000/svg" width="800" height="20" viewBox="0 0 800 20" fill="none" opacity=".8">
  <path d="M415 0L416 0L409 8L411 10L416 3H800V0H415ZM412 12L411 12L406 4L406 4L404 7L405 9L405 8L406 8L411 15L411 15L420 4H417L412 12ZM403 17L403 16L402 14L400 16L403 20L404 20L409 13L407 11L403 17ZM401 14L403 12L401 10L401 11L398 15L397 17L396 15L393 12L393 11L391 13L392 14L395 17L397 20L399 17L399 17L400 15L400 15L401 14L401 14ZM395 14L396 12L395 10L394 12L395 14ZM392 10L394 8L395 9L398 12L399 13L400 12L399 10L396 7L394 4L391 9L391 9L390 10L390 10L389 12L383 4H380L389 15L391 12L391 12L392 10L392 10ZM384 3L389 10L391 8L385 0H0V3H384ZM400 6L401 8L401 9L404 12L405 14L406 12L405 10L402 7L400 4L398 7L399 9L400 6Z" fill="url(#paint0_linear_312_7206)" fill-opacity="0.8"/>
  <defs>
    <linearGradient id="paint0_linear_312_7206" x1="0" y1="10" x2="800" y2="10" gradientUnits="userSpaceOnUse">
      <stop stop-color="#F5F5F5" stop-opacity="0"/>
      <stop offset="0.5" stop-color="#F5F5F5"/>
      <stop offset="1" stop-color="#F5F5F5" stop-opacity="0"/>
    </linearGradient>
  </defs>
</svg>