<svg width="182" height="200" viewBox="0 0 182 200" fill="none" xmlns="http://www.w3.org/2000/svg">
<path d="M154.72 31.8609C150.982 34.9654 150.834 35.3578 138.401 38.0776C134.341 38.9674 130.98 44.3138 127.133 46.2371C124.802 47.4027 123.473 48.0633 119.362 48.9569C114.641 49.9866 107.115 50.7404 104.986 52.0653C94.8176 58.3947 96.8264 59.8363 92.5524 64.8874C93.6869 65.342 95.2139 64.3123 96.8264 62.9446C96.8264 66.4416 95.1168 69.0137 93.3295 71.4927C97.8211 68.9827 101.982 65.8976 102.655 61.3904C101.365 61.7168 100.226 63.0185 99.1577 64.8874C99.2393 58.4103 107.399 54.3033 112.757 54.7851C112.761 63.0845 111.261 70.1755 103.043 71.8812C105.553 79.6327 106.657 90.0924 107.317 101.411C105.339 107.084 102.375 111.323 98.7691 114.621C102.81 112.869 106.334 110.468 108.871 106.85C115.442 112.096 134.376 114.004 136.625 114.21C140.266 106.878 142.321 98.5627 142.321 89.7544C142.321 78.4515 138.941 67.9685 133.167 59.3234C140.724 68.7146 145.247 80.6468 145.247 93.6398C145.247 113.137 135.063 130.257 119.723 139.962C119.343 140.203 118.962 140.44 118.577 140.67C113.243 143.867 107.321 146.179 101.007 147.407C101.971 145.146 103.152 142.892 104.586 140.774C106.769 137.553 109.536 134.655 113.017 132.549C113.021 132.545 113.029 132.541 113.033 132.541C113.464 132.234 113.891 131.958 114.311 131.717C100.836 136.337 92.7 147.446 91.0448 154.451C91.0293 154.486 91.0137 154.521 90.9982 154.556C88.9 152.493 86.9029 150.372 85.0495 148.161C57.3345 145.445 35.6768 122.07 35.6768 93.6398C35.6768 80.6391 40.2034 68.6951 47.7723 59.3039C41.9946 67.953 38.6065 78.4438 38.6065 89.7544C38.6065 115.939 56.7516 137.736 80.7483 142.434C77.2475 137.165 74.6637 131.364 73.5136 124.724C72.3479 125.501 72.7365 129.386 72.7365 130.94C60.303 107.239 82.8387 96.3597 75.8448 90.92C83.7362 93.6709 91.0293 93.7059 95.2722 86.2575C87.1982 93.4339 80.7833 90.0108 70.7937 88.9773C67.8058 88.6664 64.4487 90.0536 60.6915 90.1429C59.2228 90.1429 57.758 88.783 57.2684 86.6421C57.2179 86.4051 57.0586 86.2031 56.8449 86.0865C54.8283 84.9636 54.2649 82.2243 54.3582 80.2738C54.3854 79.6716 54.77 79.147 55.3295 78.9217C60.5633 76.7963 64.577 74.8225 69.1968 69.6548C69.4222 69.3984 69.3911 68.9982 69.1191 68.7845C65.9447 66.3094 64.4449 62.5755 64.577 58.2821C68.4935 58.6084 72.3596 59.37 75.0677 63.8189C75.297 64.1957 75.7788 64.3395 76.1751 64.1414L77.298 63.578C77.6399 63.407 77.9585 62.9679 77.741 62.6493C68.4624 48.9569 57.1946 57.1164 45.9267 45.8486C45.7635 45.6854 43.9257 43.4784 40.0985 43.1287C35.8245 42.7402 30.5674 41.8388 28.0535 40.0204C21.9689 35.6181 22.6139 28.3639 23.7795 24.867C24.5488 33.3723 27.5989 38.2369 34.2703 37.3005C27.4513 26.7981 31.5621 20.7096 35.4359 15.5419C32.5024 25.2866 32.5218 34.604 44.7611 39.6318C41.4351 28.8846 43.3584 14.6055 55.6404 5.43966C51.4363 12.0372 47.4498 19.4662 47.8694 24.4785C49.9171 22.1822 54.7856 20.3521 59.5259 19.4274C46.6727 26.223 42.9116 39.1811 55.2518 45.8486C54.6962 39.1461 57.96 34.0445 62.6342 29.5296C57.2995 41.6989 57.486 49.3649 66.1312 50.1226C66.2672 40.9801 68.9909 33.7609 74.6792 28.7525C71.5708 35.7463 64.8101 52.9201 77.0105 52.8424C77.2786 50.888 76.8356 48.8054 75.8448 46.6257C80.3131 49.4504 80.4763 59.7547 83.6158 61.0019C97.6035 61.0019 80.1189 47.4027 85.5585 36.912C88.7291 61.0796 111.98 52.8424 97.992 21.7586C103.952 27.1905 108.09 34.5263 107.317 47.0142C113.487 46.2837 114.773 40.4439 111.591 29.9181C115.345 32.9371 116.798 37.6813 116.254 45.46C127.522 44.2944 133.738 27.1983 114.7 16.7075C119.378 17.9392 123.178 19.1437 127.522 22.9243C128.299 14.3762 124.802 4.27402 121.693 0C128.951 5.77381 135.588 15.946 132.573 34.1921C136.676 31.7093 141.097 29.3314 141.898 21.7586C143.242 25.0885 143.114 27.2372 143.071 27.583C143.071 27.583 143.069 27.5843 143.063 27.5868C143.06 27.6063 143.06 27.6218 143.06 27.6296C143.063 27.6257 143.067 27.6102 143.071 27.583C147.726 23.6897 148.359 14.6987 144.618 6.21675C149.436 11.0581 152.688 16.8202 146.949 30.6952C154.191 31.3324 157.828 24.867 157.44 14.7648C159.11 17.2243 160.377 27.1633 154.72 31.8609Z" fill="#FDC45D"/>
<path d="M175.208 176.021L172.491 191.699H167.19L170.737 171.285H175.718L175.208 176.021ZM181.868 171.116L181.208 176.191C180.906 176.14 180.598 176.096 180.283 176.059C179.982 176.021 179.673 175.996 179.359 175.983C178.629 175.971 177.969 176.065 177.378 176.266C176.787 176.467 176.271 176.763 175.831 177.153C175.403 177.53 175.039 177.996 174.737 178.549C174.447 179.103 174.227 179.725 174.076 180.417L173.039 180.077C173.164 179.109 173.372 178.09 173.661 177.021C173.963 175.939 174.378 174.933 174.906 174.002C175.447 173.059 176.133 172.298 176.963 171.719C177.806 171.128 178.831 170.839 180.038 170.851C180.353 170.851 180.654 170.877 180.944 170.927C181.246 170.977 181.554 171.04 181.868 171.116Z" fill="#FDC45D"/>
<path d="M156.512 192.076C155.116 192.05 153.858 191.786 152.738 191.283C151.619 190.767 150.682 190.063 149.927 189.17C149.185 188.277 148.638 187.239 148.286 186.057C147.934 184.875 147.808 183.604 147.909 182.246L147.984 181.472C148.135 180.051 148.481 178.699 149.022 177.416C149.563 176.133 150.286 175.001 151.191 174.02C152.097 173.026 153.166 172.253 154.399 171.7C155.644 171.134 157.027 170.869 158.549 170.907C159.971 170.932 161.184 171.222 162.191 171.775C163.197 172.328 164.008 173.07 164.624 174.001C165.241 174.932 165.662 175.995 165.889 177.19C166.115 178.372 166.159 179.611 166.021 180.906L165.719 183.17H149.946L150.531 179.548L160.945 179.567L161.04 179.095C161.14 178.403 161.109 177.762 160.945 177.171C160.782 176.567 160.474 176.083 160.021 175.718C159.568 175.353 158.964 175.158 158.21 175.133C157.342 175.108 156.612 175.29 156.021 175.68C155.43 176.07 154.946 176.586 154.568 177.227C154.191 177.869 153.902 178.567 153.701 179.322C153.499 180.064 153.355 180.781 153.267 181.472L153.191 182.227C153.128 182.894 153.147 183.56 153.248 184.227C153.348 184.881 153.543 185.472 153.833 186C154.135 186.529 154.543 186.956 155.059 187.283C155.587 187.61 156.248 187.787 157.04 187.812C158.046 187.837 158.971 187.642 159.813 187.227C160.669 186.799 161.436 186.233 162.115 185.529L164.492 188.397C163.926 189.252 163.203 189.956 162.323 190.51C161.455 191.05 160.518 191.447 159.512 191.698C158.505 191.962 157.505 192.088 156.512 192.076Z" fill="#FDC45D"/>
<path d="M141.531 171.285H146.399L143.021 191.001C142.77 192.875 142.147 194.473 141.154 195.793C140.16 197.114 138.896 198.114 137.361 198.793C135.839 199.472 134.148 199.793 132.286 199.755C131.381 199.73 130.488 199.592 129.607 199.34C128.727 199.089 127.903 198.718 127.136 198.227C126.368 197.749 125.702 197.152 125.136 196.435L127.758 193.303C128.312 194.032 128.966 194.598 129.72 195.001C130.475 195.416 131.311 195.636 132.23 195.661C133.211 195.686 134.079 195.51 134.833 195.133C135.588 194.756 136.211 194.221 136.701 193.529C137.192 192.838 137.519 192.014 137.682 191.058L140.286 175.738L141.531 171.285ZM126.456 181.87L126.513 181.473C126.664 180.191 126.966 178.92 127.419 177.662C127.871 176.392 128.481 175.241 129.249 174.21C130.016 173.178 130.953 172.361 132.06 171.757C133.167 171.153 134.456 170.87 135.928 170.908C137.286 170.946 138.386 171.285 139.229 171.927C140.072 172.556 140.713 173.38 141.154 174.398C141.594 175.405 141.883 176.499 142.021 177.681C142.172 178.864 142.223 180.014 142.172 181.134L142.078 182.021C141.877 183.153 141.544 184.316 141.078 185.511C140.613 186.706 140.009 187.813 139.267 188.832C138.525 189.838 137.632 190.643 136.588 191.246C135.556 191.85 134.38 192.133 133.06 192.095C131.689 192.058 130.55 191.724 129.645 191.096C128.752 190.467 128.048 189.655 127.532 188.662C127.029 187.655 126.695 186.561 126.532 185.379C126.368 184.184 126.343 183.014 126.456 181.87ZM131.833 181.455L131.777 181.87C131.714 182.436 131.689 183.058 131.701 183.737C131.727 184.404 131.827 185.046 132.003 185.662C132.192 186.278 132.5 186.788 132.928 187.19C133.355 187.58 133.947 187.788 134.701 187.813C135.695 187.863 136.544 187.655 137.248 187.19C137.965 186.725 138.537 186.108 138.965 185.341C139.393 184.561 139.688 183.737 139.852 182.87L140.21 180.36C140.261 179.757 140.254 179.153 140.191 178.549C140.129 177.945 139.978 177.392 139.739 176.889C139.512 176.386 139.173 175.977 138.72 175.663C138.28 175.348 137.695 175.185 136.965 175.172C136.122 175.134 135.393 175.31 134.777 175.7C134.173 176.09 133.67 176.606 133.267 177.247C132.865 177.876 132.544 178.562 132.305 179.304C132.066 180.046 131.909 180.763 131.833 181.455Z" fill="#FDC45D"/>
<path d="M120.097 171.285H124.965L121.588 191.001C121.336 192.875 120.714 194.473 119.72 195.793C118.726 197.114 117.462 198.114 115.928 198.793C114.406 199.472 112.714 199.793 110.853 199.755C109.947 199.73 109.054 199.592 108.174 199.34C107.293 199.089 106.469 198.718 105.702 198.227C104.935 197.749 104.268 197.152 103.702 196.435L106.325 193.303C106.878 194.032 107.532 194.598 108.287 195.001C109.041 195.416 109.878 195.636 110.796 195.661C111.777 195.686 112.645 195.51 113.4 195.133C114.154 194.756 114.777 194.221 115.267 193.529C115.758 192.838 116.085 192.014 116.249 191.058L118.852 175.738L120.097 171.285ZM105.023 181.87L105.079 181.473C105.23 180.191 105.532 178.92 105.985 177.662C106.438 176.392 107.048 175.241 107.815 174.21C108.582 173.178 109.519 172.361 110.626 171.757C111.733 171.153 113.022 170.87 114.494 170.908C115.852 170.946 116.953 171.285 117.796 171.927C118.638 172.556 119.28 173.38 119.72 174.398C120.16 175.405 120.45 176.499 120.588 177.681C120.739 178.864 120.789 180.014 120.739 181.134L120.644 182.021C120.443 183.153 120.11 184.316 119.645 185.511C119.179 186.706 118.575 187.813 117.833 188.832C117.091 189.838 116.198 190.643 115.154 191.246C114.123 191.85 112.947 192.133 111.626 192.095C110.255 192.058 109.117 191.724 108.211 191.096C107.318 190.467 106.614 189.655 106.098 188.662C105.595 187.655 105.262 186.561 105.098 185.379C104.935 184.184 104.91 183.014 105.023 181.87ZM110.4 181.455L110.343 181.87C110.28 182.436 110.255 183.058 110.268 183.737C110.293 184.404 110.394 185.046 110.57 185.662C110.758 186.278 111.066 186.788 111.494 187.19C111.922 187.58 112.513 187.788 113.268 187.813C114.261 187.863 115.11 187.655 115.815 187.19C116.532 186.725 117.104 186.108 117.531 185.341C117.959 184.561 118.255 183.737 118.418 182.87L118.777 180.36C118.827 179.757 118.821 179.153 118.758 178.549C118.695 177.945 118.544 177.392 118.305 176.889C118.079 176.386 117.739 175.977 117.286 175.663C116.846 175.348 116.261 175.185 115.532 175.172C114.689 175.134 113.959 175.31 113.343 175.7C112.739 176.09 112.236 176.606 111.834 177.247C111.431 177.876 111.11 178.562 110.872 179.304C110.633 180.046 110.475 180.763 110.4 181.455Z" fill="#FDC45D"/>
<path d="M95.5341 187.096L96.968 177.946C97.0309 177.392 97.0057 176.876 96.8925 176.398C96.7793 175.92 96.5466 175.543 96.1945 175.266C95.8549 174.977 95.3706 174.82 94.7417 174.795C94.1757 174.782 93.6663 174.883 93.2135 175.097C92.7733 175.298 92.4085 175.593 92.1192 175.983C91.8299 176.361 91.6287 176.814 91.5155 177.342L86.1951 177.38C86.258 176.248 86.5724 175.273 87.1384 174.455C87.717 173.625 88.4465 172.946 89.327 172.418C90.2074 171.889 91.1633 171.499 92.1947 171.248C93.2387 170.996 94.2575 170.883 95.2511 170.908C96.6724 170.933 97.9365 171.229 99.0433 171.795C100.163 172.361 101.018 173.172 101.609 174.229C102.213 175.273 102.439 176.543 102.288 178.04L100.873 186.794C100.76 187.524 100.672 188.291 100.609 189.096C100.546 189.888 100.66 190.643 100.949 191.36L100.911 191.699L95.7039 191.718C95.4649 190.976 95.3455 190.215 95.3455 189.435C95.358 188.643 95.4209 187.863 95.5341 187.096ZM97.5717 179.266L97.0623 182.341L94.3644 182.323C93.8235 182.335 93.2827 182.411 92.7418 182.549C92.2136 182.675 91.723 182.876 91.2702 183.153C90.8174 183.417 90.4401 183.763 90.1382 184.19C89.8489 184.618 89.6666 185.14 89.5911 185.756C89.5282 186.197 89.5722 186.593 89.7232 186.945C89.8741 187.285 90.1068 187.555 90.4212 187.756C90.7483 187.957 91.1382 188.064 91.591 188.077C92.2324 188.09 92.8613 187.97 93.4776 187.718C94.094 187.454 94.6285 187.083 95.0813 186.605C95.5341 186.127 95.8486 185.574 96.0247 184.945L97.1567 187.303C96.8548 188.008 96.4712 188.656 96.0058 189.247C95.553 189.838 95.031 190.354 94.4398 190.794C93.8487 191.221 93.2009 191.548 92.4966 191.775C91.7922 192.014 91.0375 192.127 90.2326 192.114C89.1131 192.089 88.0818 191.825 87.1384 191.322C86.2077 190.806 85.4656 190.108 84.9121 189.228C84.3713 188.335 84.126 187.297 84.1763 186.115C84.2267 184.782 84.56 183.675 85.1763 182.794C85.7926 181.901 86.585 181.197 87.5535 180.681C88.5346 180.165 89.5974 179.801 90.742 179.587C91.8991 179.361 93.0437 179.247 94.1757 179.247L97.5717 179.266Z" fill="#FDC45D"/>
<path d="M80.6473 164.229L75.8929 191.699H70.3649L75.1382 164.229H80.6473ZM88.8355 164.229L88.0619 168.662H66.3086L67.0821 164.229H88.8355Z" fill="#FDC45D"/>
<path d="M51.0644 189.115L59.328 171.286H65.1767L53.2152 194.794C52.863 195.536 52.4605 196.221 52.0077 196.85C51.5675 197.492 51.0644 198.045 50.4984 198.51C49.945 198.988 49.3098 199.353 48.5929 199.605C47.8885 199.869 47.0961 200.001 46.2156 200.001C45.7754 200.001 45.3478 199.963 44.9327 199.888C44.5176 199.812 44.1026 199.724 43.6875 199.623L44.0648 195.605C44.2032 195.617 44.3415 195.63 44.4799 195.643C44.6057 195.655 44.7315 195.661 44.8572 195.661C45.4861 195.674 46.0396 195.599 46.5175 195.435C47.008 195.284 47.4357 195.033 47.8004 194.68C48.1652 194.341 48.4922 193.894 48.7815 193.341L51.0644 189.115ZM51.9134 171.286L53.6869 186.36L53.4416 191.85L49.8947 192.265L46.4043 171.286H51.9134Z" fill="#FDC45D"/>
<path d="M36.3292 186.53L38.9706 171.286H44.291L40.7441 191.699H35.7632L36.3292 186.53ZM37.5367 182.606L39.0649 182.568C38.9266 183.763 38.6624 184.933 38.2725 186.077C37.8826 187.222 37.348 188.253 36.6688 189.171C35.9896 190.089 35.1469 190.813 34.1407 191.341C33.1345 191.869 31.9459 192.121 30.5749 192.096C29.4555 192.07 28.5121 191.857 27.7449 191.454C26.9776 191.039 26.3676 190.486 25.9148 189.794C25.462 189.09 25.1538 188.285 24.9903 187.379C24.8394 186.473 24.8142 185.505 24.9149 184.473L27.1223 171.286H32.4238L30.1976 184.549C30.1598 184.977 30.1598 185.385 30.1976 185.775C30.2353 186.153 30.3359 186.492 30.4994 186.794C30.6629 187.096 30.8956 187.341 31.1975 187.53C31.4994 187.706 31.9018 187.8 32.405 187.813C33.4741 187.851 34.3608 187.637 35.0652 187.171C35.7695 186.693 36.3167 186.052 36.7066 185.247C37.1091 184.442 37.3858 183.562 37.5367 182.606Z" fill="#FDC45D"/>
<path d="M22.1421 177.341L20.4252 188.246C19.6077 189.24 18.5889 190.019 17.3688 190.585C16.1613 191.139 14.8847 191.529 13.5389 191.755C12.193 191.982 10.9101 192.082 9.69005 192.057C7.81596 192.032 6.21857 191.655 4.8979 190.925C3.58981 190.183 2.54585 189.189 1.76603 187.944C0.998778 186.699 0.483088 185.296 0.218953 183.737C-0.0451808 182.165 -0.0703365 180.529 0.143486 178.831L0.388754 177.115C0.627733 175.354 1.08682 173.675 1.76603 172.077C2.44523 170.467 3.33196 169.04 4.42623 167.794C5.5205 166.537 6.8286 165.556 8.35052 164.851C9.87243 164.134 11.6019 163.795 13.5389 163.832C15.4759 163.87 17.1235 164.247 18.482 164.964C19.8404 165.681 20.8969 166.713 21.6516 168.059C22.4188 169.392 22.8653 171.014 22.9911 172.926L17.6707 172.907C17.6078 172.002 17.4254 171.203 17.1235 170.511C16.8217 169.819 16.3689 169.279 15.7651 168.889C15.1614 168.499 14.369 168.285 13.3879 168.247C12.1805 168.197 11.1428 168.436 10.2749 168.964C9.40705 169.492 8.67754 170.203 8.08638 171.096C7.5078 171.977 7.04871 172.945 6.70911 174.002C6.36951 175.046 6.13053 176.071 5.99217 177.077L5.74691 178.85C5.63371 179.769 5.57711 180.737 5.57711 181.756C5.58968 182.762 5.73433 183.712 6.01104 184.605C6.30033 185.485 6.77829 186.208 7.44491 186.774C8.11154 187.328 9.0423 187.617 10.2372 187.642C10.8158 187.655 11.3818 187.617 11.9352 187.529C12.4886 187.441 13.0232 187.296 13.5389 187.095C14.0546 186.881 14.5388 186.605 14.9916 186.265L15.9349 181.378H10.9164L11.6145 177.341H22.1421Z" fill="#FDC45D"/>
</svg>
