<svg width="44" height="50" viewBox="0 0 44 50" fill="none" xmlns="http://www.w3.org/2000/svg">
<path d="M42.6604 10.3072C41.4497 11.3115 41.4019 11.4385 37.3746 12.3184C36.0595 12.6062 34.9709 14.3358 33.7249 14.958C32.9698 15.3351 32.5394 15.5488 31.2079 15.8379C29.6788 16.171 27.2411 16.4149 26.5514 16.8435C23.2578 18.8911 23.9085 19.3574 22.5241 20.9915C22.8916 21.1386 23.3862 20.8055 23.9085 20.363C23.9085 21.4943 23.3548 22.3264 22.7758 23.1284C24.2307 22.3164 25.5786 21.3183 25.7963 19.8602C25.3785 19.9658 25.0097 20.3869 24.6636 20.9915C24.69 18.8961 27.3329 17.5675 29.0684 17.7234C29.0697 20.4083 28.5839 22.7022 25.9221 23.2541C26.7351 25.7617 27.0926 29.1455 27.3065 32.8071C26.6659 34.6423 25.7057 36.0136 24.5378 37.0808C25.8466 36.5139 26.9881 35.7371 27.8099 34.5668C29.9381 36.2638 36.0708 36.8809 36.7995 36.9476C37.9787 34.5756 38.6445 31.8857 38.6445 29.0362C38.6445 25.3796 37.5496 21.9883 35.6794 19.1915C38.1272 22.2296 39.5921 26.0898 39.5921 30.2931C39.5921 36.6006 36.2936 42.1389 31.3249 45.2788C31.2016 45.3567 31.0783 45.4334 30.9537 45.5076C29.2257 46.5421 27.3078 47.29 25.2627 47.6872C25.5748 46.9556 25.9574 46.2266 26.4218 45.5415C27.129 44.4995 28.0251 43.5618 29.1527 42.8805C29.154 42.8792 29.1565 42.878 29.1578 42.878C29.2975 42.7787 29.4359 42.6894 29.5718 42.6115C25.2073 44.106 22.572 47.6997 22.0358 49.9661C22.0308 49.9774 22.0258 49.9887 22.0207 50C21.3411 49.3325 20.6942 48.6462 20.0939 47.931C11.1169 47.0524 4.10196 39.4904 4.10196 30.2931C4.10196 26.0873 5.56813 22.2233 8.01972 19.1852C6.14831 21.9833 5.05088 25.3771 5.05088 29.0362C5.05088 37.5069 10.9282 44.5586 18.7008 46.0782C17.5668 44.3738 16.7299 42.4971 16.3574 40.3489C15.9798 40.6003 16.1057 41.8573 16.1057 42.3601C12.0784 34.6925 19.3778 31.173 17.1125 29.4132C19.6686 30.3032 22.0308 30.3145 23.4051 27.9049C20.7899 30.2265 18.7121 29.1191 15.4764 28.7848C14.5086 28.6842 13.4213 29.1329 12.2043 29.1618C11.7286 29.1618 11.2541 28.7219 11.0955 28.0293C11.0792 27.9526 11.0276 27.8873 10.9584 27.8496C10.3052 27.4863 10.1227 26.6001 10.1529 25.9691C10.1617 25.7743 10.2863 25.6046 10.4675 25.5317C12.1628 24.8441 13.4628 24.2056 14.9592 22.5338C15.0322 22.4509 15.0221 22.3214 14.934 22.2523C13.9058 21.4516 13.42 20.2436 13.4628 18.8546C14.7314 18.9602 15.9836 19.2066 16.8608 20.6458C16.9351 20.7678 17.0911 20.8143 17.2195 20.7502L17.5832 20.5679C17.6939 20.5126 17.7971 20.3706 17.7267 20.2675C14.7213 15.8379 11.0716 18.4776 7.42193 14.8323C7.36907 14.7795 6.77379 14.0656 5.53415 13.9524C4.14978 13.8267 2.44701 13.5351 1.63275 12.9469C-0.33809 11.5227 -0.129177 9.17593 0.248379 8.04465C0.497565 10.7962 1.4855 12.3699 3.64637 12.067C1.43768 8.66936 2.76919 6.69968 4.02393 5.0279C3.07375 8.1804 3.08004 11.1946 7.04437 12.8212C5.96708 9.34436 6.59005 4.72497 10.5682 1.75977C9.2065 3.89411 7.91526 6.29745 8.05118 7.91895C8.71442 7.17608 10.2913 6.58404 11.8267 6.28488C7.66356 8.48333 6.44532 12.6753 10.4424 14.8323C10.2624 12.664 11.3196 11.0136 12.8335 9.55302C11.1056 13.4899 11.166 15.9699 13.9662 16.215C14.0103 13.2573 14.8925 10.9219 16.735 9.30162C15.7281 11.5642 13.5383 17.12 17.4901 17.0949C17.5769 16.4626 17.4334 15.7889 17.1125 15.0837C18.5598 15.9975 18.6127 19.331 19.6295 19.7345C24.1602 19.7345 18.4969 15.3351 20.2588 11.9413C21.2858 19.7597 28.8167 17.0949 24.2861 7.03907C26.2166 8.79632 27.5569 11.1695 27.3065 15.2094C29.305 14.9731 29.7216 13.0839 28.6909 9.67872C29.9066 10.6554 30.3773 12.1902 30.2011 14.7066C33.8508 14.3295 35.8644 8.79883 29.6977 5.405C31.2129 5.80346 32.4438 6.19312 33.8508 7.41616C34.1025 4.65081 32.9698 1.38267 31.963 0C34.3139 1.86787 36.4635 5.15863 35.4869 11.0614C36.8159 10.2582 38.248 9.48891 38.5073 7.03907C38.9427 8.1163 38.9012 8.8114 38.8874 8.92327C38.8874 8.92327 38.8865 8.92369 38.8849 8.92453C38.8836 8.93082 38.8836 8.93584 38.8836 8.93836C38.8849 8.9371 38.8861 8.93207 38.8874 8.92327C40.3951 7.66378 40.6002 4.75514 39.3883 2.01116C40.9488 3.57735 42.0022 5.44145 40.1434 9.93011C42.4892 10.1363 43.6672 8.04465 43.5414 4.77651C44.0825 5.57218 44.4928 8.78752 42.6604 10.3072Z" fill="#FDC45D"/>
</svg>
