<svg width="269" height="80" viewBox="0 0 269 80" fill="none" xmlns="http://www.w3.org/2000/svg">
<path d="M68.1731 16.4915C66.2383 18.0984 66.1619 18.3016 59.7262 19.7094C57.6245 20.1699 55.8849 22.9373 53.8938 23.9328C52.6871 24.5362 51.9993 24.8781 49.8715 25.3406C47.4279 25.8736 43.5323 26.2638 42.4302 26.9496C37.167 30.2258 38.2068 30.9719 35.9945 33.5864C36.5817 33.8217 37.3721 33.2888 38.2068 32.5808C38.2068 34.3909 37.3219 35.7223 36.3967 37.0054C38.7216 35.7062 40.8756 34.1093 41.2235 31.7764C40.5558 31.9453 39.9665 32.619 39.4135 33.5864C39.4557 30.2338 43.6791 28.108 46.4525 28.3574C46.4545 32.6532 45.6782 36.3236 41.4246 37.2065C42.7238 41.2188 43.295 46.6328 43.6369 52.4913C42.6132 55.4276 41.0787 57.6218 39.2123 59.3293C41.304 58.4222 43.1281 57.1793 44.4414 55.307C47.8422 58.022 57.6426 59.0095 58.8071 59.1161C60.6916 55.321 61.7555 51.0171 61.7555 46.4578C61.7555 40.6074 60.0058 35.1813 57.0172 30.7064C60.9289 35.5674 63.2699 41.7437 63.2699 48.469C63.2699 58.561 57.9986 67.4222 50.0585 72.4461C49.8615 72.5708 49.6644 72.6935 49.4653 72.8121C46.7039 74.4673 43.6389 75.6639 40.3708 76.2995C40.8695 75.129 41.4809 73.9625 42.2231 72.8664C43.3533 71.1992 44.7853 69.6988 46.5873 68.6088C46.5893 68.6068 46.5933 68.6048 46.5953 68.6048C46.8186 68.4459 47.0398 68.3031 47.257 68.1784C40.2823 70.5697 36.0709 76.3196 35.2142 79.9457C35.2061 79.9638 35.1981 79.9819 35.19 80C34.104 78.9321 33.0703 77.834 32.1109 76.6896C17.7653 75.2838 6.5551 63.1847 6.5551 48.469C6.5551 41.7397 8.8981 35.5573 12.8158 30.6964C9.82525 35.1732 8.07151 40.6033 8.07151 46.4578C8.07151 60.0111 17.4636 71.2937 29.8846 73.7252C28.0725 70.998 26.7351 67.9954 26.1398 64.5583C25.5364 64.9605 25.7376 66.9717 25.7376 67.7762C19.3018 55.5081 30.9666 49.8768 27.3465 47.0612C31.4312 48.4851 35.2061 48.5032 37.4023 44.6478C33.2231 48.3624 29.9027 46.5906 24.732 46.0556C23.1854 45.8947 21.4478 46.6127 19.503 46.659C18.7427 46.659 17.9845 45.9551 17.7311 44.8469C17.705 44.7242 17.6225 44.6196 17.5119 44.5593C16.4681 43.9781 16.1765 42.5602 16.2248 41.5506C16.2388 41.2389 16.4379 40.9674 16.7276 40.8507C19.4366 39.7506 21.5141 38.7289 23.9054 36.0541C24.022 35.9214 24.006 35.7142 23.8652 35.6036C22.222 34.3225 21.4457 32.3898 21.5141 30.1674C23.5414 30.3364 25.5425 30.7306 26.9443 33.0333C27.0629 33.2284 27.3123 33.3028 27.5174 33.2003L28.0987 32.9086C28.2757 32.8202 28.4406 32.5929 28.3279 32.428C23.5253 25.3406 17.6929 29.5641 11.8605 23.7317C11.7761 23.6472 10.8248 22.5049 8.8438 22.3239C6.63152 22.1228 3.91042 21.6562 2.6092 20.715C-0.540282 18.4363 -0.206429 14.6815 0.396919 12.8714C0.795129 17.2739 2.37389 19.7918 5.82706 19.3072C2.29747 13.871 4.42528 10.7195 6.43041 8.04465C4.91198 13.0886 4.92203 17.9114 11.2572 20.5139C9.53564 14.951 10.5312 7.55996 16.8884 2.81563C14.7124 6.23058 12.6489 10.0759 12.8661 12.6703C13.926 11.4817 16.446 10.5345 18.8996 10.0558C12.2467 13.5733 10.2999 20.2806 16.6873 23.7317C16.3997 20.2625 18.0891 17.6218 20.5085 15.2848C17.7472 21.5838 17.8438 25.5518 22.3186 25.944C22.389 21.2117 23.7988 17.475 26.7431 14.8826C25.1342 18.5027 21.6348 27.392 27.9498 27.3518C28.0886 26.3402 27.8593 25.2622 27.3465 24.1339C29.6593 25.5961 29.7438 30.9297 31.3688 31.5752C38.609 31.5752 29.5588 24.5362 32.3744 19.106C34.0155 31.6155 46.0503 27.3518 38.8101 11.2625C41.8952 14.0741 44.0371 17.8712 43.6369 24.3351C46.8306 23.957 47.4963 20.9342 45.8492 15.4859C47.792 17.0486 48.5441 19.5042 48.2626 23.5306C54.095 22.9272 57.3128 14.0781 47.4581 8.648C49.8796 9.28553 51.8465 9.90899 54.095 11.8659C54.4972 7.4413 52.6871 2.21228 51.0782 0C54.8351 2.98859 58.2701 8.25381 56.7095 17.6982C58.8332 16.4131 61.1219 15.1823 61.5363 11.2625C62.2321 12.9861 62.1657 14.0982 62.1436 14.2772C62.1436 14.2772 62.1423 14.2779 62.1396 14.2792C62.1376 14.2893 62.1376 14.2973 62.1376 14.3014C62.1396 14.2994 62.1416 14.2913 62.1436 14.2772C64.553 12.2621 64.8808 7.60823 62.9441 3.21786C65.4379 5.72377 67.1212 8.70632 64.1508 15.8882C67.8996 16.218 69.782 12.8714 69.5809 7.64242C70.4457 8.91548 71.1013 14.06 68.1731 16.4915Z" fill="#FDC45D"/>
<path d="M261.293 33.8979L258.48 50.1283H252.992L256.664 28.9955H261.82L261.293 33.8979ZM268.188 28.8197L267.504 34.0736C267.191 34.0216 266.872 33.976 266.547 33.9369C266.234 33.8979 265.915 33.8718 265.59 33.8588C264.835 33.8458 264.151 33.9434 263.539 34.1518C262.927 34.3601 262.393 34.6661 261.938 35.0697C261.495 35.4604 261.117 35.9421 260.805 36.5151C260.505 37.088 260.277 37.7325 260.121 38.4486L259.047 38.0971C259.177 37.0945 259.392 36.0398 259.691 34.933C260.004 33.8132 260.434 32.7716 260.98 31.808C261.54 30.8315 262.25 30.0437 263.109 29.4447C263.982 28.8328 265.043 28.5333 266.293 28.5463C266.618 28.5463 266.931 28.5723 267.23 28.6244C267.543 28.6765 267.862 28.7416 268.188 28.8197Z" fill="#FDC45D"/>
<path d="M241.938 50.5188C240.492 50.4928 239.19 50.2193 238.031 49.6985C236.872 49.1646 235.902 48.4355 235.121 47.511C234.353 46.5865 233.787 45.5123 233.422 44.2883C233.057 43.0644 232.927 41.7493 233.031 40.343L233.109 39.5422C233.266 38.0709 233.624 36.6711 234.184 35.343C234.744 34.0149 235.492 32.843 236.43 31.8274C237.367 30.7987 238.474 29.998 239.75 29.425C241.039 28.8391 242.471 28.5657 244.047 28.6047C245.518 28.6308 246.775 28.9303 247.816 29.5032C248.858 30.0761 249.698 30.8443 250.336 31.8079C250.974 32.7714 251.41 33.8717 251.645 35.1086C251.879 36.3326 251.925 37.6152 251.781 38.9563L251.469 41.3H235.141L235.746 37.55L246.527 37.5696L246.625 37.0813C246.729 36.3652 246.697 35.7011 246.527 35.0891C246.358 34.4641 246.039 33.9628 245.57 33.5852C245.102 33.2076 244.477 33.0058 243.695 32.9797C242.797 32.9537 242.042 33.1425 241.43 33.5461C240.818 33.9498 240.316 34.4836 239.926 35.1477C239.535 35.8118 239.236 36.5344 239.027 37.3157C238.819 38.0839 238.669 38.8261 238.578 39.5422L238.5 40.3235C238.435 41.0136 238.454 41.7037 238.559 42.3938C238.663 43.0709 238.865 43.6829 239.164 44.2297C239.477 44.7766 239.9 45.2193 240.434 45.5579C240.981 45.8964 241.664 46.0787 242.484 46.1047C243.526 46.1308 244.483 45.929 245.356 45.4993C246.241 45.0566 247.035 44.4706 247.738 43.7415L250.199 46.7102C249.613 47.5956 248.865 48.3248 247.953 48.8977C247.055 49.4576 246.085 49.8678 245.043 50.1282C244.001 50.4016 242.966 50.5318 241.938 50.5188Z" fill="#FDC45D"/>
<path d="M226.43 28.9954H231.469L227.973 49.4055C227.712 51.3457 227.068 52.9993 226.039 54.3665C225.01 55.7337 223.702 56.7688 222.113 57.472C220.538 58.1751 218.786 58.5071 216.859 58.468C215.922 58.442 214.997 58.2988 214.086 58.0384C213.174 57.7779 212.322 57.3938 211.527 56.886C210.733 56.3912 210.043 55.7727 209.457 55.0305L212.172 51.7884C212.745 52.5436 213.422 53.1295 214.203 53.5462C214.984 53.9759 215.85 54.2037 216.801 54.2298C217.816 54.2558 218.715 54.0735 219.496 53.6829C220.277 53.2923 220.922 52.7389 221.43 52.0227C221.938 51.3066 222.276 50.4537 222.445 49.4641L225.141 33.6048L226.43 28.9954ZM210.824 39.9524L210.883 39.5423C211.039 38.2141 211.352 36.899 211.82 35.597C212.289 34.2818 212.921 33.0904 213.715 32.0227C214.509 30.955 215.479 30.1087 216.625 29.4837C217.771 28.8587 219.105 28.5657 220.629 28.6048C222.035 28.6438 223.174 28.9954 224.047 29.6595C224.919 30.3105 225.583 31.1634 226.039 32.218C226.495 33.2597 226.794 34.3925 226.938 35.6165C227.094 36.8404 227.146 38.0318 227.094 39.1907L226.996 40.1087C226.788 41.2805 226.443 42.485 225.961 43.722C225.479 44.9589 224.854 46.1048 224.086 47.1595C223.318 48.2011 222.393 49.0345 221.313 49.6595C220.245 50.2845 219.027 50.5774 217.66 50.5384C216.241 50.4993 215.063 50.1542 214.125 49.5032C213.201 48.8522 212.471 48.0123 211.938 46.9837C211.417 45.942 211.072 44.8092 210.902 43.5852C210.733 42.3483 210.707 41.1373 210.824 39.9524ZM216.391 39.5227L216.332 39.9524C216.267 40.5384 216.241 41.1829 216.254 41.886C216.28 42.5761 216.384 43.2402 216.566 43.8782C216.762 44.5162 217.081 45.0436 217.523 45.4602C217.966 45.8639 218.578 46.0787 219.359 46.1048C220.388 46.1568 221.267 45.942 221.996 45.4602C222.738 44.9785 223.331 44.3404 223.773 43.5462C224.216 42.7389 224.522 41.886 224.691 40.9876L225.063 38.3899C225.115 37.7649 225.108 37.1399 225.043 36.5149C224.978 35.8899 224.822 35.317 224.574 34.7962C224.34 34.2753 223.988 33.8522 223.52 33.5266C223.064 33.2011 222.458 33.0318 221.703 33.0188C220.831 32.9798 220.076 33.1621 219.438 33.5657C218.813 33.9693 218.292 34.5032 217.875 35.1673C217.458 35.8183 217.126 36.5279 216.879 37.2962C216.632 38.0644 216.469 38.8066 216.391 39.5227Z" fill="#FDC45D"/>
<path d="M204.242 28.9954H209.281L205.785 49.4055C205.525 51.3457 204.88 52.9993 203.852 54.3665C202.823 55.7337 201.514 56.7688 199.926 57.472C198.35 58.1751 196.599 58.5071 194.672 58.468C193.734 58.442 192.81 58.2988 191.898 58.0384C190.987 57.7779 190.134 57.3938 189.34 56.886C188.546 56.3912 187.855 55.7727 187.27 55.0305L189.984 51.7884C190.557 52.5436 191.234 53.1295 192.016 53.5462C192.797 53.9759 193.663 54.2037 194.613 54.2298C195.629 54.2558 196.527 54.0735 197.309 53.6829C198.09 53.2923 198.734 52.7389 199.242 52.0227C199.75 51.3066 200.089 50.4537 200.258 49.4641L202.953 33.6048L204.242 28.9954ZM188.637 39.9524L188.695 39.5423C188.852 38.2141 189.164 36.899 189.633 35.597C190.102 34.2818 190.733 33.0904 191.527 32.0227C192.322 30.955 193.292 30.1087 194.438 29.4837C195.583 28.8587 196.918 28.5657 198.441 28.6048C199.848 28.6438 200.987 28.9954 201.859 29.6595C202.732 30.3105 203.396 31.1634 203.852 32.218C204.307 33.2597 204.607 34.3925 204.75 35.6165C204.906 36.8404 204.958 38.0318 204.906 39.1907L204.809 40.1087C204.6 41.2805 204.255 42.485 203.773 43.722C203.292 44.9589 202.667 46.1048 201.898 47.1595C201.13 48.2011 200.206 49.0345 199.125 49.6595C198.057 50.2845 196.84 50.5774 195.473 50.5384C194.053 50.4993 192.875 50.1542 191.938 49.5032C191.013 48.8522 190.284 48.0123 189.75 46.9837C189.229 45.942 188.884 44.8092 188.715 43.5852C188.546 42.3483 188.52 41.1373 188.637 39.9524ZM194.203 39.5227L194.145 39.9524C194.079 40.5384 194.053 41.1829 194.066 41.886C194.092 42.5761 194.197 43.2402 194.379 43.8782C194.574 44.5162 194.893 45.0436 195.336 45.4602C195.779 45.8639 196.391 46.0787 197.172 46.1048C198.201 46.1568 199.079 45.942 199.809 45.4602C200.551 44.9785 201.143 44.3404 201.586 43.5462C202.029 42.7389 202.335 41.886 202.504 40.9876L202.875 38.3899C202.927 37.7649 202.921 37.1399 202.855 36.5149C202.79 35.8899 202.634 35.317 202.387 34.7962C202.152 34.2753 201.801 33.8522 201.332 33.5266C200.876 33.2011 200.271 33.0318 199.516 33.0188C198.643 32.9798 197.888 33.1621 197.25 33.5657C196.625 33.9693 196.104 34.5032 195.688 35.1673C195.271 35.8183 194.939 36.5279 194.691 37.2962C194.444 38.0644 194.281 38.8066 194.203 39.5227Z" fill="#FDC45D"/>
<path d="M178.812 45.3627L180.297 35.89C180.362 35.3171 180.336 34.7833 180.219 34.2885C180.101 33.7937 179.86 33.403 179.496 33.1166C179.144 32.8171 178.643 32.6543 177.992 32.6283C177.406 32.6153 176.879 32.7195 176.41 32.9408C175.954 33.1491 175.577 33.4551 175.277 33.8588C174.978 34.2494 174.769 34.7182 174.652 35.265L169.144 35.3041C169.209 34.1322 169.535 33.1231 170.121 32.2767C170.72 31.4174 171.475 30.7142 172.387 30.1674C173.298 29.6205 174.288 29.2168 175.355 28.9564C176.436 28.696 177.491 28.5788 178.519 28.6049C179.991 28.6309 181.299 28.9369 182.445 29.5228C183.604 30.1088 184.489 30.9486 185.101 32.0424C185.726 33.1231 185.961 34.4382 185.805 35.9877L184.34 45.0502C184.222 45.8054 184.131 46.5997 184.066 47.433C184.001 48.2533 184.118 49.0346 184.418 49.7767L184.379 50.1283L178.988 50.1478C178.741 49.3796 178.617 48.5918 178.617 47.7846C178.63 46.9642 178.695 46.157 178.812 45.3627ZM180.922 37.2572L180.394 40.4408L177.601 40.4213C177.041 40.4343 176.482 40.5124 175.922 40.6557C175.375 40.7859 174.867 40.9942 174.398 41.2807C173.93 41.5541 173.539 41.9122 173.226 42.3549C172.927 42.7976 172.738 43.3379 172.66 43.976C172.595 44.4317 172.64 44.8418 172.797 45.2064C172.953 45.558 173.194 45.8379 173.519 46.0463C173.858 46.2546 174.262 46.3653 174.73 46.3783C175.394 46.3913 176.045 46.2676 176.683 46.0072C177.321 45.7338 177.875 45.3497 178.344 44.8549C178.812 44.3601 179.138 43.7872 179.32 43.1361L180.492 45.5775C180.179 46.3067 179.782 46.9773 179.301 47.5892C178.832 48.2012 178.291 48.7351 177.68 49.1908C177.068 49.6335 176.397 49.9721 175.668 50.2064C174.939 50.4538 174.157 50.571 173.324 50.558C172.165 50.532 171.097 50.2585 170.121 49.7377C169.157 49.2038 168.389 48.4812 167.816 47.5697C167.256 46.6452 167.002 45.571 167.055 44.3471C167.107 42.9668 167.452 41.821 168.09 40.9096C168.728 39.9851 169.548 39.2559 170.551 38.7221C171.566 38.1882 172.666 37.8106 173.851 37.5892C175.049 37.3549 176.234 37.2377 177.406 37.2377L180.922 37.2572Z" fill="#FDC45D"/>
<path d="M163.402 21.6909L158.48 50.1284H152.758L157.699 21.6909H163.402ZM171.879 21.6909L171.078 26.2808H148.559L149.359 21.6909H171.879Z" fill="#FDC45D"/>
<path d="M132.777 47.4526L141.332 28.9956H147.387L135.004 53.3315C134.639 54.0998 134.223 54.8094 133.754 55.4604C133.298 56.1245 132.777 56.6974 132.191 57.1792C131.618 57.674 130.961 58.0516 130.219 58.312C129.49 58.5854 128.669 58.7222 127.758 58.7222C127.302 58.7222 126.859 58.6831 126.43 58.605C126 58.5269 125.57 58.4357 125.141 58.3315L125.531 54.1714C125.674 54.1844 125.818 54.1974 125.961 54.2104C126.091 54.2235 126.221 54.23 126.352 54.23C127.003 54.243 127.576 54.1649 128.07 53.9956C128.578 53.8394 129.021 53.5789 129.398 53.2144C129.776 52.8628 130.115 52.4006 130.414 51.8276L132.777 47.4526ZM133.656 28.9956L135.492 44.6011L135.238 50.2847L131.566 50.7144L127.953 28.9956H133.656Z" fill="#FDC45D"/>
<path d="M117.523 44.7769L120.258 28.9956H125.766L122.094 50.1284H116.938L117.523 44.7769ZM118.773 40.7144L120.355 40.6753C120.212 41.9123 119.939 43.1232 119.535 44.3081C119.132 45.493 118.578 46.5607 117.875 47.5112C117.172 48.4618 116.299 49.2104 115.258 49.7573C114.216 50.3042 112.986 50.5646 111.566 50.5386C110.408 50.5125 109.431 50.2912 108.637 49.8745C107.842 49.4448 107.211 48.8719 106.742 48.1558C106.273 47.4266 105.954 46.5933 105.785 45.6558C105.629 44.7183 105.603 43.7157 105.707 42.6479L107.992 28.9956H113.48L111.176 42.7261C111.137 43.1688 111.137 43.592 111.176 43.9956C111.215 44.3862 111.319 44.7378 111.488 45.0503C111.658 45.3628 111.898 45.6167 112.211 45.812C112.523 45.9943 112.94 46.092 113.461 46.105C114.568 46.144 115.486 45.9227 116.215 45.4409C116.944 44.9461 117.51 44.2821 117.914 43.4487C118.331 42.6154 118.617 41.7039 118.773 40.7144Z" fill="#FDC45D"/>
<path d="M102.836 35.2651L101.059 46.5542C100.212 47.5828 99.1577 48.3901 97.8946 48.9761C96.6446 49.549 95.323 49.9526 93.9298 50.187C92.5366 50.4214 91.2084 50.5256 89.9454 50.4995C88.0053 50.4735 86.3517 50.0828 84.9845 49.3276C83.6303 48.5594 82.5496 47.5308 81.7423 46.2417C80.948 44.9526 80.4142 43.5008 80.1407 41.8862C79.8673 40.2586 79.8412 38.5659 80.0626 36.8081L80.3165 35.0308C80.5639 33.2078 81.0392 31.4696 81.7423 29.8159C82.4454 28.1493 83.3634 26.6714 84.4962 25.3823C85.629 24.0802 86.9832 23.0646 88.5587 22.3354C90.1342 21.5933 91.9246 21.2417 93.9298 21.2808C95.935 21.3198 97.6407 21.7104 99.047 22.4526C100.453 23.1948 101.547 24.2625 102.328 25.6558C103.122 27.036 103.585 28.7157 103.715 30.6948L98.2071 30.6753C98.142 29.7378 97.9532 28.911 97.6407 28.1948C97.3282 27.4787 96.8595 26.9188 96.2345 26.5151C95.6095 26.1115 94.7892 25.8901 93.7735 25.8511C92.5235 25.799 91.4493 26.0464 90.5509 26.5933C89.6524 27.1401 88.8972 27.8758 88.2853 28.8003C87.6863 29.7118 87.211 30.7144 86.8595 31.8081C86.5079 32.8888 86.2605 33.95 86.1173 34.9917L85.8634 36.8276C85.7462 37.7782 85.6876 38.7808 85.6876 39.8354C85.7006 40.8771 85.8504 41.8602 86.1368 42.7847C86.4363 43.6961 86.9311 44.4448 87.6212 45.0308C88.3113 45.6037 89.2748 45.9032 90.5118 45.9292C91.1108 45.9422 91.6967 45.9032 92.2696 45.812C92.8426 45.7209 93.3959 45.5711 93.9298 45.3628C94.4636 45.1414 94.9649 44.855 95.4337 44.5034L96.4103 39.4448H91.2149L91.9376 35.2651H102.836Z" fill="#FDC45D"/>
</svg>
