<svg xmlns="http://www.w3.org/2000/svg" width="1104" height="22" fill="none"><path d="M553.797 17.92l1.964-1.073-1.682-.941-1.242.676-3.183 1.742-2.072 1.13-1.277-.701-4.411-2.405-1.711.928 1.263.688 6.136 3.346 3.35-1.831 1.162-.631.007.006 1.711-.928-.015-.006zm2.808 1.534l-2.295-1.256-1.704.934 3.999 2.178.722-.259 6.656-3.769-1.704-.928-5.674 3.1zm-15.209-3.378l2.808-1.534 1.487.72 3.263 1.875 1.523.518 1.112-.941-1.213-.663-3.559-1.938-2.613-1.427-4.512 2.456-1.703.934-1.653.903-7.919-4.438h-3.624l11.543 6.294 3.356-1.831.007.006 1.697-.934zm26.961.619l-.505.284-7.392-4.59-.101.297-3.443 1.673 1.689.941.866-.48.888-.278 7.017 4.034.476.259 11.355-6.294h-3.191l-7.659 4.154zm-15.736-2.772l.216.732 4.49 2.456 1.278.688 1.704-.928-5.118-2.79-2.57-1.768-3.747 2.039 1.249.941 2.498-1.37zm-7.031 3.845l1.696-.928-1.682-.941-1.703.928 1.689.941zM0 10.262h530.445l7.053-3.845 1.689 1.206-6.8 3.491 6.8 3.491-1.689 1.206-7.053-3.851H0v-1.698zm1104 1.698H573.735l-7.023 3.839-1.603-1.237 7.211-3.447-7.211-3.447 1.603-1.237 7.023 3.832H1104v1.698zM552.621 8.305l.216-.739 4.49-2.45 1.278-.694 1.704.928-5.118 2.791-2.57 1.774-3.747-2.039 1.249-.941 2.498 1.37zm15.736-2.778l-.505-.278-7.392 4.59-.101-.297-3.443-1.673 1.689-.941.866.473.888.278 7.017-4.034.476-.259 11.355 6.294h-3.191l-7.659-4.154zm-26.961.625l2.808 1.528 1.487-.72 3.263-1.869 1.523-.518 1.112.934-1.213.663-3.559 1.945-2.613 1.427-4.512-2.462-1.703-.928-1.653-.903-7.919 4.432h-3.624l11.543-6.294 3.356 1.831.007-.006 1.697.934v.006zm4.194-1.692l1.696.928-1.682.934-1.703-.922 1.689-.941zm8.207-.152l1.964 1.067-1.682.941-1.242-.669-3.183-1.742-2.072-1.13-1.277.701-4.411 2.405-1.711-.928 1.263-.688 6.136-3.352 3.35 1.831 1.162.631h.007l1.711.922-.015.013zm2.808-1.534l-2.295 1.25-1.704-.928 3.999-2.184.722.265 6.656 3.763-1.704.928-5.674-3.094z" fill="url(#A)" fill-opacity=".8"/><defs><linearGradient id="A" x1="0" y1="11.111" x2="1104" y2="11.111" gradientUnits="userSpaceOnUse"><stop stop-color="#f5f5f5" stop-opacity="0"/><stop offset=".5" stop-color="#f5f5f5"/><stop offset="1" stop-color="#f5f5f5" stop-opacity="0"/></linearGradient></defs></svg>