<svg width="336" height="18" viewBox="0 0 336 18" fill="none" xmlns="http://www.w3.org/2000/svg"><path d="M14 17C14 15 14 13 14 11C14 11 14 10 15 10C15 10 15 10 16 10C16 11 16 12 16 12C16 13 16 14 17 14C17 14 18 14 18 13C18 12 18 11 18 10C18 10 19 10 19 10C20 12 20 13 21 15C23 17 25 18 27 18C28 17 27 16 27 15C26 15 25 15 25 15C24 14 22 13 22 11C21 10 23 10 23 10C26 10 332 10 336 10C336 9 336 9 336 8C332 8 25 8 22 8C22 7 22 6 23 5C24 3 25 2 27 3C28 1 28 1 27 0C27 0 27 0 27 0C25 0 24 1 23 2C22 3 21 5 21 6C21 7 20 8 20 8C20 8 19 8 19 8C19 7 18 6 18 5C18 5 18 5 17 5C17 5 17 5 16 5C16 6 16 6 16 7C16 8 16 8 16 8C15 8 15 8 15 8C14 7 14 6 14 5C14 4 14 3 14 2C14 0 14 0 14 0C10 0 5 0 1 0C1 0 0 0 0 0C0 1 0 2 0 3C1 2 1 2 2 2C5 2 9 3 12 2C12 3 13 2 13 3C13 4 13 5 13 7C13 8 13 7 12 8C12 8 11 8 10 8C10 6 10 5 10 5C9 4 8 4 8 5C8 6 8 7 8 8C8 8 8 8 8 8C7 8 7 8 7 8C7 8 6 8 6 7C6 6 6 5 5 5C5 4 5 4 5 4C4 4 4 4 4 4C4 5 4 7 4 5C4 6 4 7 3 8C2 8 1 8 0 8C0 9 0 10 0 10C1 10 2 10 3 10C4 11 3 12 3 12C3 12 3 13 4 13C4 13 5 13 5 13C6 12 5 11 5 10C5 10 6 10 7 10C6 10 7 10 7 10C7 10 8 10 8 11C8 12 8 13 8 14C9 13 10 14 10 13C10 12 10 11 10 10C12 10 12 10 13 10C13 12 13 14 13 15C11 15 9 15 7 15C4 15 2 15 0 15C0 17 0 17 0 18C5 18 9 18 14 18C15 18 15 17 14 17Z" fill="url(#a)" fill-opacity="0.5"/><defs><linearGradient id="a" x1="0" y1="9" x2="336" y2="9" gradientUnits="userSpaceOnUse"><stop stop-color="#FDC45D"/><stop offset="1" stop-color="#FDC45D" stop-opacity="0"/></linearGradient></defs></svg>
