<svg xmlns="http://www.w3.org/2000/svg" width="800" height="20" viewBox="0 0 800 20" fill="none" opacity=".8">
<path d="M415 20L416 20L409 12L411 10L416 17H800V20H415ZM412 8L411 8L406 16L406 16L404 13L405 11L405 12L406 12L411 5L411 5L420 16H417L412 8ZM403 3L403 4L402 6L400 4L403 0L404 0L409 7L407 9L403 3ZM401 6L403 8L401 10L401 9L398 5L397 3L396 5L393 8L393 9L391 7L392 6L395 3L397 0L399 3L399 3L400 5L400 5L401 6L401 6ZM395 6L396 8L395 10L394 8L395 6ZM392 10L394 12L395 11L398 8L399 7L400 8L399 10L396 13L394 16L391 11L391 11L390 10L390 10L389 8L383 16H380L389 5L391 8L391 8L392 10L392 10ZM384 17L389 10L391 12L385 20H0V17H384ZM400 14L401 12L401 11L404 8L405 6L406 8L405 10L402 13L400 16L398 13L399 11L400 14Z" fill="url(#a)" fill-opacity="0.8"/>
<defs>
<linearGradient id="a" x1="0" y1="10" x2="800" y2="10" gradientUnits="userSpaceOnUse">
<stop stop-color="#F5F5F5" stop-opacity="0"/>
<stop offset="0.5" stop-color="#F5F5F5"/>
<stop offset="1" stop-color="#F5F5F5" stop-opacity="0"/>
</linearGradient>
</defs>
</svg>