<svg width="316" height="330" viewBox="0 0 316 330" fill="none" xmlns="http://www.w3.org/2000/svg">
<g opacity="0.7">
<path d="M3.80791 185.512C5.90834 227.533 41.8257 260.191 83.9068 258.342C125.988 256.493 158.49 220.829 156.39 178.809C154.289 136.788 118.372 104.13 76.2909 105.979C34.2098 107.828 1.69741 143.29 3.80791 185.512Z" fill="#EDEEFD" fill-opacity="0.36"/>
<path d="M189.33 129.324C187.057 131.245 183.475 130.822 181.68 128.42L171.496 114.792C169.73 112.429 170.471 109.186 173.093 107.799L263.532 59.9484C264.73 59.3149 266.261 59.6733 267.04 60.7693V60.7693C267.779 61.808 267.609 63.1858 266.641 64.0036L189.33 129.324Z" fill="#EDEEFD"/>
<path d="M118.952 236.028C116.752 233.944 116.959 230.545 119.395 228.78L133.576 218.505C135.97 216.771 139.465 217.384 141.1 219.825L196.2 302.105C196.96 303.239 196.673 304.72 195.54 305.501V305.501C194.467 306.243 192.966 306.123 192.013 305.221L118.952 236.028Z" fill="#EDEEFD"/>
<path fill-rule="evenodd" clip-rule="evenodd" d="M126.342 244.288C176.888 244.288 217.98 205.792 217.98 158.438C217.98 111.084 176.888 72.587 126.342 72.587C75.7964 72.587 34.7051 111.084 34.7051 158.438C34.7051 205.792 75.554 244.288 126.342 244.288ZM127.312 135.159C136.887 135.159 144.645 127.891 144.645 118.92C144.645 109.949 136.887 102.681 127.312 102.681C117.736 102.681 109.978 109.949 109.978 118.92C109.978 127.891 117.736 135.159 127.312 135.159ZM164.042 147.538L138.587 153.897H138.345C136.406 154.351 134.951 156.055 134.951 157.985V165.707C134.951 169.455 135.8 173.088 137.618 176.495L151.315 202.273C152.648 204.999 151.315 208.405 148.285 209.654C145.254 211.017 141.497 209.882 140.042 207.043L126.102 180.924L112.284 207.043C110.83 209.768 107.072 211.017 104.042 209.654C101.011 208.292 99.7991 204.999 101.254 202.16L114.951 176.382C116.648 173.088 117.618 169.341 117.618 165.594V157.872C117.618 155.941 116.284 154.238 114.224 153.783L88.7687 147.424C85.4959 146.629 83.5565 143.45 84.5262 140.497C85.3747 137.544 88.8899 135.841 92.1627 136.636L120.163 143.79C124.284 145.039 128.648 145.039 132.769 143.79L160.77 136.636C164.042 135.841 167.436 137.544 168.406 140.611C169.254 143.677 167.315 146.743 164.042 147.538Z" fill="#EDEEFD"/>
<path d="M264.35 87.6066C279.09 87.6066 291.072 76.3824 291.072 62.5757C291.072 48.769 279.09 37.5448 264.35 37.5448C249.611 37.5448 237.628 48.769 237.628 62.5757C237.628 76.3824 249.54 87.6066 264.35 87.6066Z" fill="#EDEEFD"/>
<path d="M166.817 304.231C167.507 318.035 180.028 328.731 194.739 328.084C209.45 327.438 220.848 315.691 220.158 301.888C219.468 288.085 206.948 277.389 192.237 278.035C177.526 278.682 166.124 290.362 166.817 304.231Z" fill="#EDEEFD"/>
<path d="M236.759 202.195C237.755 222.114 255.822 237.548 277.051 236.616C298.279 235.683 314.727 218.732 313.732 198.814C312.736 178.895 294.669 163.461 273.441 164.393C252.212 165.326 235.759 182.181 236.759 202.195Z" fill="#EDEEFD"/>
<path d="M7.13971 39.4972C8.1341 59.4158 26.2001 74.8494 47.4286 73.9157C68.657 72.9819 85.1063 56.0299 84.1119 36.1114C83.1175 16.1928 65.0514 0.75912 43.823 1.69291C22.5946 2.62669 6.14054 19.4831 7.13971 39.4972Z" fill="#EDEEFD"/>
</g>
</svg>
