<svg xmlns="http://www.w3.org/2000/svg" width="200" height="48" fill="none" xmlns:v="https://vecta.io/nano"><path d="M52.457 14.065c-1.36 0-2.463-1.103-2.463-2.463s1.103-2.463 2.463-2.463h14.771c1.36 0 2.463 1.103 2.463 2.463s-1.103 2.463-2.463 2.463H52.457zm7.385 20.024a2.81 2.81 0 0 1-2.809-2.809V14.23a2.81 2.81 0 0 1 2.809-2.809 2.81 2.81 0 0 1 2.809 2.809v17.05a2.81 2.81 0 0 1-2.809 2.809zm24.169.698c-.007-.007-.017-.011-.028-.011-2.24-.002-4.184-.391-5.808-1.191s-2.958-1.833-3.99-3.116-1.811-2.658-2.293-4.17-.734-2.956-.734-4.376v-.756c0-1.558.252-3.07.757-4.605.505-1.512 1.284-2.887 2.339-4.124s2.362-2.222 3.944-2.955S81.66 8.36 83.816 8.36s4.242.412 5.985 1.26 3.118 2.016 4.15 3.528c.456.669.832 1.383 1.125 2.141.614 1.588-.761 3.083-2.464 3.083-1.421 0-2.542-1.113-3.354-2.28l-.214-.286c-.573-.71-1.33-1.237-2.201-1.627s-1.903-.573-3.004-.573-2.11.183-2.981.573a5.68 5.68 0 0 0-2.178 1.627c-.573.71-1.032 1.535-1.33 2.52s-.459 2.039-.459 3.23.16 2.222.459 3.207c.298.962.757 1.81 1.376 2.52.596.71 1.353 1.26 2.247 1.649.894.367 1.903.573 3.05.573 1.743 0 3.21-.412 4.403-1.26.511-.363.938-.786 1.279-1.265.808-1.137 1.919-2.217 3.313-2.217 1.709 0 3.065 1.516 2.403 3.091a11.9 11.9 0 0 1-1.033 1.926c-1.009 1.512-2.385 2.726-4.15 3.643-1.739.914-3.797 1.372-6.198 1.375-.01 0-.02-.004-.028-.012z" fill="#f1f4ff"/><path fill-rule="evenodd" d="M101.564 34.089c-1.864 0-3.181-1.823-2.597-3.592l6.391-19.345a4 4 0 0 1 3.798-2.745h3.584a4 4 0 0 1 3.784 2.703l6.599 19.249a2.82 2.82 0 0 1-2.665 3.731 2.82 2.82 0 0 1-2.677-1.939l-1.542-4.702c-.325.172-.704.272-1.125.272h-8.228c-.449 0-.849-.113-1.188-.305l-1.53 4.774c-.363 1.132-1.416 1.9-2.604 1.9zm9.985-20.94l3.209 9.783h-7.623l3.136-9.783h1.278zm25.979 21.582c-1.234-.002-2.308-.254-3.245-.779a5.39 5.39 0 0 1-2.201-2.268c-.119-.227-.226-.465-.321-.713v1.49c0 .975-.791 1.766-1.766 1.766s-1.765-.79-1.765-1.766V16.37c0-1.222.99-2.213 2.212-2.213s2.213.991 2.213 2.213v5.149c.505-.866 1.157-1.533 1.972-2.001.917-.527 1.972-.779 3.141-.779 1.032 0 1.949.183 2.798.573s1.536.916 2.132 1.604 1.032 1.489 1.353 2.428.482 1.947.482 3.047v.596c0 1.1-.161 2.131-.482 3.07s-.779 1.764-1.399 2.474a6.01 6.01 0 0 1-2.224 1.627c-.868.388-1.827.572-2.9.573zm0 0h.011-.023.012zm-1.135-3.7c.763.01 1.401-.174 1.972-.538.55-.367.986-.894 1.307-1.558s.458-1.421.458-2.268-.16-1.604-.458-2.245c-.321-.642-.757-1.145-1.307-1.489s-1.216-.527-1.972-.527c-.665 0-1.284.16-1.881.458s-1.054.756-1.421 1.329c-.367.596-.528 1.283-.528 2.085v1.008c0 .779.184 1.466.574 2.016a3.71 3.71 0 0 0 1.444 1.283c.593.296 1.185.434 1.8.435zm9.883-10.218a1.64 1.64 0 0 0 1.638 1.638h.357v9.563c0 1.222.99 2.213 2.212 2.213s2.213-.991 2.213-2.213v-10.65c0-.074-.004-.147-.011-.22.022-.107.034-.218.034-.332a1.64 1.64 0 0 0-1.638-1.638h-.278a2.23 2.23 0 0 0-.32-.023c-.108 0-.215.008-.319.023h-2.25a1.64 1.64 0 0 0-1.638 1.638zm1.903-3.769c.39.435 1.009.642 1.834.642s1.445-.206 1.835-.642c.389-.412.596-.939.596-1.627s-.207-1.237-.596-1.672-1.009-.642-1.835-.642-1.444.206-1.834.642-.596 1.031-.596 1.672.206 1.191.596 1.627zm8.642.366c-.898 0-1.626-.728-1.626-1.627s.728-1.627 1.626-1.627h4.162.426v.146 17.71c0 1.222-.991 2.213-2.213 2.213s-2.213-.991-2.213-2.213V18.157c0-.255.024-.505.07-.747h-.232zm7.317 3.402a1.64 1.64 0 0 0 1.638 1.638h.357v9.563c0 1.222.991 2.213 2.213 2.213s2.212-.991 2.212-2.213v-10.65l-.01-.22c.022-.107.033-.218.033-.332a1.64 1.64 0 0 0-1.638-1.638h-.278c-.104-.015-.211-.023-.319-.023a2.24 2.24 0 0 0-.32.023h-2.25a1.64 1.64 0 0 0-1.638 1.638zm1.903-3.769c.39.435 1.009.642 1.835.642s1.444-.206 1.834-.642c.39-.412.596-.939.596-1.627s-.206-1.237-.596-1.672-1.009-.642-1.834-.642-1.445.206-1.835.642-.596 1.031-.596 1.672.207 1.191.596 1.627zm8.392 5.361c-.899 0-1.627-.728-1.627-1.627s.728-1.627 1.627-1.627h.643v-1.969c0-1.14.924-2.064 2.064-2.064s2.063.924 2.063 2.064v1.969h2.799a1.63 1.63 0 0 1 1.627 1.627 1.63 1.63 0 0 1-1.627 1.627h-2.799v6.14c0 .71.184 1.26.574 1.627.366.366.917.573 1.605.573h.357a1.87 1.87 0 0 1 1.867 1.867v.812c0 .583-.472 1.055-1.055 1.055h-1.043c-.012-.018-.017-.023-.023-.023-1.508-.001-2.743-.184-3.68-.573s-1.628-1.031-2.064-1.901c-.436-.893-.665-2.085-.665-3.62v-5.957h-.643zm14.276 9.511c.374 1.184 1.473 1.99 2.715 1.99h.825l-.16.664c-.137.481-.298.848-.504 1.123a1.73 1.73 0 0 1-.803.596c-.344.115-.733.183-1.215.183h-2.047c-.604 0-1.094.49-1.094 1.094v2.612c0 .01.012.015.019.008l2.709-.003c1.353 0 2.454-.16 3.325-.435a4.06 4.06 0 0 0 2.087-1.489c.504-.71.917-1.65 1.215-2.818l3.561-13.73a2.03 2.03 0 0 0-1.962-2.536 2.03 2.03 0 0 0-1.972 1.555l-2.596 10.826-3.233-10.874c-.265-.894-1.087-1.507-2.02-1.507a2.11 2.11 0 0 0-2.009 2.742l3.159 9.999z" fill="#fbfcfe"/><path opacity=".2" d="M.518 26.918c.286 6.097 5.172 10.836 10.896 10.568s10.146-5.443 9.86-11.541-5.172-10.836-10.896-10.568S.231 20.791.518 26.918z" fill="#f1f4ff"/><g fill="#fbfcfe"><path d="M26.677 17.935a1.79 1.79 0 1 1-2.077-2.887l11.244-6.346c.166-.094.377-.044.483.115.101.151.075.353-.059.474l-9.591 8.644zM17.04 35.116a1.79 1.79 0 1 1 2.787-2.21l6.865 10.935c.102.162.061.375-.093.488-.146.108-.349.092-.476-.037l-9.083-9.176z"/><path d="M17.186 35.448c6.876 0 12.466-5.586 12.466-12.457s-5.59-12.457-12.466-12.457S4.72 16.119 4.72 22.991s5.557 12.457 12.466 12.457z"/></g><path d="M17.317 19.612c1.303 0 2.358-1.055 2.358-2.356S18.62 14.9 17.317 14.9s-2.358 1.055-2.358 2.356 1.055 2.356 2.358 2.356zm1.535 2.719l3.463-.923a.82.82 0 0 0 .594-1.005c-.132-.445-.594-.692-1.039-.577l-3.809 1.038c-.561.181-1.154.181-1.715 0l-3.809-1.038c-.445-.115-.923.132-1.039.56-.132.428.132.89.577 1.005l3.463.923a.6.6 0 0 1 .462.593v1.12c0 .544-.132 1.088-.363 1.565l-1.863 3.741c-.198.412-.033.89.379 1.087a.86.86 0 0 0 1.121-.379l1.88-3.79 1.896 3.79c.198.412.709.577 1.121.379.412-.181.594-.676.412-1.071L18.72 25.61a3.46 3.46 0 0 1-.363-1.565v-1.12a.62.62 0 0 1 .462-.593h.033z" fill="#0e1032"/><path d="M35.96 12.712a3.64 3.64 0 0 0 3.635-3.632 3.64 3.64 0 0 0-3.635-3.632 3.64 3.64 0 0 0-3.635 3.632 3.63 3.63 0 0 0 3.635 3.632zM22.693 44.146a3.64 3.64 0 0 0 3.798 3.461 3.64 3.64 0 0 0 3.458-3.801 3.64 3.64 0 0 0-3.798-3.461 3.63 3.63 0 0 0-3.458 3.801zm9.515-14.806a5.25 5.25 0 0 0 5.481 4.994 5.25 5.25 0 0 0 4.99-5.485 5.25 5.25 0 0 0-5.481-4.995 5.24 5.24 0 0 0-4.99 5.485zM.972 5.731a5.25 5.25 0 0 0 5.481 4.995 5.25 5.25 0 0 0 4.99-5.485A5.25 5.25 0 0 0 5.962.245 5.24 5.24 0 0 0 .972 5.73z" fill="#f1f4ff"/></svg>