<svg width="36" height="40" viewBox="0 0 36 40" fill="none" xmlns="http://www.w3.org/2000/svg">
<path d="M0.496085 22.5364C0.735306 27.6412 4.82599 31.6087 9.61868 31.3841C14.4114 31.1595 18.1131 26.8269 17.8739 21.722C17.6347 16.6172 13.544 12.6497 8.75129 12.8743C3.9586 13.0989 0.255717 17.407 0.496085 22.5364Z" fill="#4851FE"/>
<path d="M22.3974 15.0153C21.729 15.6177 20.684 15.499 20.1677 14.762C19.6599 14.0373 19.8877 13.0328 20.6583 12.5979L30.072 7.28517C30.2115 7.20648 30.388 7.24865 30.4768 7.38186C30.561 7.50814 30.5398 7.67706 30.4271 7.77867L22.3974 15.0153Z" fill="#0E1032"/>
<path d="M14.3289 29.4004C13.6958 28.7608 13.7654 27.7114 14.4775 27.1612C15.1776 26.6201 16.1917 26.8005 16.6622 27.55L22.4098 36.7047C22.4949 36.8403 22.461 37.0186 22.3321 37.1135C22.2099 37.2035 22.0402 37.1903 21.9334 37.0825L14.3289 29.4004Z" fill="#0E1032"/>
<path d="M14.4511 29.6773C20.2079 29.6773 24.8879 25.0005 24.8879 19.2478C24.8879 13.495 20.2079 8.81824 14.4511 8.81824C8.69437 8.81824 4.0144 13.495 4.0144 19.2478C4.0144 25.0005 8.66676 29.6773 14.4511 29.6773Z" fill="#0E1032"/>
<path d="M14.5606 16.4192C15.6512 16.4192 16.5347 15.5363 16.5347 14.4464C16.5347 13.3566 15.6512 12.4736 14.5606 12.4736C13.47 12.4736 12.5864 13.3566 12.5864 14.4464C12.5864 15.5363 13.47 16.4192 14.5606 16.4192Z" fill="#FBFCFE"/>
<path d="M15.8455 18.6955L18.7446 17.9229C19.1174 17.8263 19.3383 17.4539 19.2416 17.0814C19.1312 16.7089 18.7446 16.502 18.3719 16.5985L15.1829 17.4677C14.7135 17.6194 14.2165 17.6194 13.7471 17.4677L10.5581 16.5985C10.1854 16.502 9.78505 16.7089 9.68842 17.0676C9.57797 17.4263 9.79886 17.8125 10.1716 17.9091L13.0707 18.6817C13.3054 18.7369 13.4572 18.9438 13.4572 19.1783V20.1164C13.4572 20.5717 13.3468 21.0269 13.1535 21.427L11.5935 24.5586C11.4279 24.9035 11.5659 25.3036 11.9111 25.4691C12.2562 25.6347 12.6841 25.4829 12.8498 25.1518L14.4236 21.9788L16.0112 25.1518C16.1769 25.4967 16.6048 25.6347 16.95 25.4691C17.2951 25.3174 17.4469 24.9035 17.2951 24.5724L15.7351 21.4408C15.528 21.0269 15.4314 20.5855 15.4314 20.1302V19.1921C15.4314 18.9576 15.597 18.7506 15.8179 18.6955H15.8455Z" fill="#FBFCFE"/>
<path d="M30.1692 10.6431C31.8479 10.6431 33.2126 9.27956 33.2126 7.60226C33.2126 5.92496 31.8479 4.5614 30.1692 4.5614C28.4904 4.5614 27.1257 5.92496 27.1257 7.60226C27.1257 9.27956 28.4824 10.6431 30.1692 10.6431Z" fill="#0E1032"/>
<path d="M19.0615 36.9599C19.1401 38.6368 20.5661 39.9362 22.2415 39.8577C23.917 39.7791 25.2152 38.3521 25.1366 36.6752C25.058 34.9983 23.6321 33.699 21.9566 33.7775C20.2812 33.856 18.9826 35.275 19.0615 36.9599Z" fill="#0E1032"/>
<path d="M27.0277 24.564C27.1411 26.9838 29.1988 28.8588 31.6165 28.7456C34.0343 28.6323 35.9076 26.573 35.7942 24.1532C35.6808 21.7334 33.6231 19.8583 31.2054 19.9716C28.7876 20.0849 26.9138 22.1326 27.0277 24.564Z" fill="#0E1032"/>
<path d="M0.876571 4.79776C0.989965 7.21755 3.04766 9.09261 5.4654 8.97932C7.88315 8.86602 9.75647 6.80674 9.64308 4.38695C9.52968 1.96717 7.47199 0.0921062 5.05425 0.205405C2.6365 0.318704 0.762633 2.36637 0.876571 4.79776Z" fill="#0E1032"/>
</svg>
