<svg width="272" height="143" viewBox="0 0 272 143" fill="none" xmlns="http://www.w3.org/2000/svg">
<ellipse cx="43.7276" cy="98.3194" rx="43.7276" ry="43.7276" fill="#CC6850"/>
<path d="M191.032 61.2593C186.981 61.2593 183.368 60.1644 180.193 57.9746C177.017 55.6753 175.43 52.2264 175.43 47.6278C175.43 42.7007 177.182 38.5949 180.685 35.3102C184.299 32.0255 189.007 29.5619 194.81 27.9196C200.613 26.2772 206.799 25.4561 213.368 25.4561C224.427 25.4561 232.857 27.7553 238.66 32.3539C244.573 36.9525 247.474 43.9051 247.365 53.2118L219.773 50.0913C219.773 45.4927 218.514 42.208 215.996 40.2372C213.478 38.2664 210.248 37.281 206.306 37.281C203.459 37.281 200.832 37.6642 198.423 38.4306C196.123 39.1971 194.098 40.292 192.346 41.7153C190.704 43.1387 189.39 44.8358 188.404 46.8066L188.569 38.5949C193.715 38.5949 197.766 39.4708 200.722 41.2226C203.678 42.865 205.156 45.657 205.156 49.5986C205.156 53.2118 203.897 56.0585 201.379 58.1388C198.97 60.2191 195.521 61.2593 191.032 61.2593ZM247.036 114.636C238.606 114.636 232.474 112.336 228.642 107.738C224.81 103.139 222.894 96.6794 222.894 88.3581V85.8946H219.445V65.3652H218.788L219.773 57.9746V50.0913L247.365 53.2118V89.5077C247.365 91.2596 247.803 92.683 248.679 93.7779C249.555 94.7633 250.704 95.256 252.128 95.256C253.77 95.256 255.029 94.7633 255.905 93.7779C256.781 92.683 257.219 91.2596 257.219 89.5077V57.3177H272V88.0296C272 96.1319 270.029 102.592 266.088 107.409C262.146 112.227 255.796 114.636 247.036 114.636ZM195.302 114.471C186.762 114.471 180.028 112.391 175.101 108.231C170.284 103.96 167.875 98.5407 167.875 91.9713C167.875 87.0442 168.97 82.9383 171.16 79.6536C173.35 76.3689 176.36 73.6864 180.193 71.6061C184.025 69.4163 188.404 67.6645 193.331 66.3506L207.62 62.409C210.357 61.6425 212.602 60.7666 214.354 59.7812C216.105 58.6863 217.419 57.3724 218.295 55.8395C219.281 54.1972 219.773 52.2264 219.773 49.9271L220.266 65.3652H219.445C218.897 66.8981 217.912 68.2667 216.489 69.4711C215.175 70.6754 213.423 71.7156 211.233 72.5915L208.113 73.9054C206.032 74.7813 204.28 75.7667 202.857 76.8616C201.434 77.8471 200.339 79.0514 199.572 80.4748C198.806 81.7887 198.423 83.3763 198.423 85.2376C198.423 88.0844 199.244 90.3289 200.886 91.9713C202.529 93.6136 204.718 94.4348 207.456 94.4348C209.645 94.4348 211.616 93.9421 213.368 92.9567C215.229 91.9713 216.708 90.4384 217.802 88.3581C218.897 86.2778 219.445 83.5405 219.445 80.1463L224.372 81.9529C224.372 89.3983 223.222 95.5297 220.923 100.347C218.624 105.165 215.284 108.723 210.905 111.023C206.634 113.322 201.434 114.471 195.302 114.471Z" fill="#F5F5F5"/>
<path d="M32.168 112.501V98.0484H43.0075L83.0809 0H109.358L149.432 98.0484H160.271V112.501H99.1759V98.0484H115.928L84.2305 17.2447H93.7561L61.0733 98.0484H77.8253V112.501H32.168ZM62.8799 80.1467V65.3656H114.942V80.1467H62.8799Z" fill="#F5F5F5"/>
<path fill-rule="evenodd" clip-rule="evenodd" d="M32.168 98.0484V112.501H77.8253V98.0484H61.0733L68.314 80.1468H83.5143C81.1649 75.0118 77.8506 70.4107 73.8034 66.5752C73.3685 66.1631 72.9251 65.7598 72.4736 65.3656C68.6876 62.0607 64.327 59.3976 59.5613 57.5459L43.0075 98.0484H32.168Z" fill="#F5F5F5"/>
</svg>
