<svg width="666" height="506" viewBox="0 0 666 506" fill="none" xmlns="http://www.w3.org/2000/svg">
<path opacity="0.2" d="M542.039 429.006C540.81 429.006 535.484 428.597 530.158 427.777H531.387C535.894 427.367 542.858 425.319 545.316 422.45C545.316 422.45 541.219 422.041 535.074 422.041C541.219 420.402 544.497 416.304 544.497 416.304L531.387 418.353L517.868 421.631C517.459 421.631 517.049 422.041 516.23 422.041L510.494 423.27L500.252 425.319C497.385 425.728 495.337 426.548 495.337 426.548C492.879 425.728 488.782 425.728 479.359 431.465V431.055C479.359 431.055 479.359 430.645 479.769 430.645C481.817 428.187 483.046 424.909 483.046 422.45V421.221V420.402L485.095 416.304L484.275 416.714L481.408 417.943H480.998H480.588H477.721C473.624 418.763 471.166 420.402 469.527 425.319C468.298 428.597 466.25 429.826 465.021 430.236C464.611 429.006 463.792 428.187 462.972 426.958L462.153 426.138C460.924 423.27 459.695 420.402 460.105 417.124C460.105 414.665 460.105 413.026 459.695 411.387C459.695 409.338 459.285 406.88 459.285 406.47V406.061C459.285 404.831 459.285 404.012 458.876 402.782C458.466 399.095 457.647 395.407 456.827 392.129C455.598 386.802 449.863 380.246 447.405 379.017C447.405 379.017 446.586 381.885 446.995 384.754C445.842 383.191 444.461 381.809 442.899 380.656L442.489 388.851L439.622 386.802C439.622 386.802 439.621 390.9 440.85 395.407C440.85 395.817 440.85 395.817 441.26 396.227L440.031 394.997L439.622 394.587C439.622 394.997 439.211 397.865 441.26 402.782C441.669 403.602 442.079 404.831 442.899 405.651C441.67 406.061 440.851 410.977 443.718 413.846L444.128 414.255C443.308 415.485 442.489 419.172 444.947 420.811C444.947 420.811 445.357 421.221 445.767 421.221C444.538 422.45 444.537 425.319 446.176 426.138C446.586 426.138 446.586 426.138 446.995 426.548C446.176 427.367 445.766 428.597 446.995 429.416C447.405 429.826 448.224 429.826 448.634 429.826C447.405 431.055 447.405 433.104 449.044 433.514H449.453C449.044 434.743 449.044 436.792 450.682 437.611C451.092 438.021 451.502 438.021 452.321 437.611V438.021V438.431V438.84V439.25V439.66V440.07V440.479L452.731 440.889H453.14H453.55H454.37V441.299V441.709C454.37 442.118 454.369 442.118 454.779 442.528V442.938C455.246 443.444 455.801 443.861 456.418 444.167H456.827C456.827 444.987 457.237 446.216 457.647 447.035L454.779 454.411C453.204 457.874 451.282 461.168 449.044 464.245C446.586 466.293 442.899 469.572 436.754 472.03C435.524 472.44 434.295 472.849 433.066 473.669C428.15 475.308 423.235 477.766 419.138 479.815C417.909 480.635 419.957 480.635 420.776 480.225C426.921 477.357 431.018 476.537 433.886 476.127C434.705 476.947 437.573 477.357 439.622 476.127C439.212 476.947 439.621 478.176 441.26 478.586C442.898 478.996 443.718 478.586 444.537 477.766C444.128 479.405 443.718 480.635 444.947 481.864C445.766 482.683 446.995 481.864 448.225 480.635C447.815 482.683 447.405 484.732 448.225 485.552C448.634 486.371 449.863 485.552 451.092 484.322L451.912 483.503C451.092 486.371 450.683 487.6 451.912 490.059C452.321 490.878 453.14 491.288 453.55 490.469C453.55 492.517 453.14 494.156 452.731 495.795L451.502 503.171C451.092 504.4 451.912 505.629 452.321 504.81C453.715 498.426 455.494 492.131 457.647 485.961C460.105 476.947 460.105 472.44 460.924 466.293V465.064C462.563 463.835 464.201 462.606 465.84 460.557H466.25C466.66 460.557 467.069 459.738 467.069 459.328L467.479 458.918C467.479 460.147 467.479 460.967 468.298 461.786C468.708 461.786 468.708 462.196 469.118 461.786C469.527 461.786 469.937 461.376 470.347 460.557C470.347 460.967 470.347 461.786 470.756 462.196C471.166 462.606 471.575 463.425 471.985 463.425C472.804 463.835 473.624 463.015 474.033 462.196C474.033 463.015 474.443 463.835 474.853 464.245C475.672 464.654 476.492 463.425 476.901 461.786C476.901 463.425 477.311 464.245 478.13 464.654C479.359 465.064 480.179 463.015 480.998 460.967C481.408 462.606 481.818 463.835 482.637 464.245C483.866 465.064 484.685 463.425 485.095 460.967C485.504 461.786 485.914 462.606 486.324 462.606C487.962 463.425 488.372 461.376 488.372 458.508C488.782 459.737 489.601 460.557 490.42 460.557C492.469 460.557 492.878 458.508 492.469 456.459C492.878 457.279 493.698 457.689 494.107 457.689C496.565 458.099 496.975 455.64 496.975 454.001C497.795 454.82 499.023 455.64 499.843 455.64C502.301 456.05 503.12 454.821 503.12 453.591C503.749 453.923 504.461 454.065 505.169 454.001C509.265 454.001 510.085 452.362 509.675 451.133C514.181 452.362 517.459 451.133 518.278 449.084L517.049 448.265C522.374 448.265 525.242 444.167 525.242 444.167C525.242 444.167 524.013 443.757 521.965 443.348C527.291 443.348 530.158 439.66 530.158 439.66L524.833 438.021H526.062C533.026 438.431 535.484 435.153 535.484 435.153C535.484 435.153 528.519 433.923 525.242 432.284H528.52C535.894 433.104 543.678 429.006 542.039 429.006ZM665.35 242.161C665.35 242.161 657.566 238.883 643.227 229.869C630.937 222.084 616.189 205.694 608.405 195.04C605.128 188.484 600.212 181.109 595.706 175.372C594.067 172.914 592.428 170.455 590.38 168.407C583.825 160.621 573.174 151.197 571.535 148.329C571.535 148.329 570.716 146.69 573.174 143.002C574.403 141.363 576.451 138.905 579.728 136.036C586.283 130.71 589.97 122.924 591.609 118.417L598.983 111.861V111.452C598.983 111.042 598.573 111.042 598.573 111.042L590.789 112.271C590.38 111.861 590.38 111.452 590.38 111.452L589.561 112.271C588.332 111.451 586.283 110.632 584.644 109.812C580.957 108.173 576.451 107.354 572.764 108.174C565.39 109.813 560.474 113.091 557.197 117.188C556.377 118.008 555.558 119.237 554.739 120.466C548.594 115.959 518.278 83.1788 510.085 74.9839L508.036 72.9351L502.71 65.1499C499.023 59.0037 495.337 51.2186 491.24 37.2871C486.733 22.5362 483.046 0 483.046 0C483.046 0 479.359 11.8827 480.178 19.6679C478.54 15.1607 474.443 12.7022 474.443 12.7022C474.034 14.751 474.034 18.4387 474.443 23.3556C471.985 21.3069 468.298 20.0776 468.298 20.0776C468.298 23.3556 468.298 27.8629 469.527 32.7799C465.84 30.3214 461.334 31.9604 461.334 31.9604C461.334 34.8286 461.743 38.1066 463.382 42.2041C460.924 42.2041 458.466 43.4333 458.466 43.4333C458.876 45.8918 460.105 50.399 463.382 55.316C460.514 55.316 458.466 56.955 458.466 56.955C459.286 61.872 461.743 70.8864 471.166 75.8034C471.576 75.8034 471.575 76.2132 471.985 76.2132C467.479 76.6229 464.611 78.6717 464.611 78.6717C467.479 84.4082 471.576 89.7349 478.54 92.1933C474.034 93.8323 472.395 95.4714 472.805 99.1591C473.214 100.798 474.853 102.437 479.359 102.847C477.721 105.305 476.901 108.993 479.359 110.222C480.179 110.632 481.408 110.632 483.456 110.222C482.637 113.5 483.047 117.598 486.734 118.417C487.553 118.417 488.372 118.417 489.601 118.007C487.962 120.876 487.962 124.154 492.469 125.383C493.288 125.793 494.108 125.383 495.337 125.383C494.108 128.251 495.336 131.939 501.891 130.3C501.481 133.168 503.12 135.627 505.169 135.217C505.578 135.217 505.988 135.217 506.397 134.807C506.397 135.627 506.397 136.446 506.807 137.266C501.481 141.363 495.746 145.87 487.553 149.558C466.659 152.426 433.886 161.851 403.57 194.221C402.341 195.86 404.8 196.269 410.945 191.352C419.957 184.387 422.415 182.748 432.247 177.421C435.115 175.782 437.983 174.143 440.441 173.323C442.489 176.192 454.37 175.372 454.37 175.372C453.96 177.831 456.008 178.24 456.008 178.24C452.321 182.748 455.189 188.894 455.598 189.713C454.779 190.533 453.55 191.762 452.321 192.582C443.718 199.957 435.934 205.284 428.151 213.479C424.873 216.757 423.644 220.854 428.56 216.757C435.934 210.611 438.802 206.923 448.634 200.367C474.034 183.567 488.372 172.094 495.337 166.358C499.024 165.538 502.71 165.538 506.807 165.128C506.807 165.538 507.217 165.538 507.217 165.538C507.627 165.948 508.856 165.538 510.085 164.719H524.833C524.423 166.358 525.243 172.504 533.846 173.733C532.617 174.962 532.207 175.782 532.207 177.011C533.436 181.928 536.303 184.387 543.268 182.338C541.629 184.387 540.4 186.026 541.629 188.074C543.677 192.172 547.774 191.352 552.69 188.894C551.871 190.943 551.461 192.582 552.281 193.811C554.739 197.908 559.245 195.86 563.342 192.582C562.522 195.04 562.522 197.499 562.932 199.138C564.161 204.464 568.667 207.333 572.354 203.235C572.764 206.513 573.583 209.381 575.222 211.43C578.5 215.937 581.367 211.84 583.006 207.742C584.235 213.889 586.283 218.806 588.741 220.444C591.609 222.493 592.838 220.035 592.838 216.757C595.296 221.674 597.754 224.952 599.802 225.771C603.08 226.591 604.718 224.952 605.538 223.313C608.815 227.82 612.092 230.688 614.55 231.508C621.515 233.556 625.611 231.508 626.84 229.049C636.673 236.834 641.998 238.064 647.734 239.703C657.975 241.342 665.35 242.161 665.35 242.161ZM63.1346 236.834L61.0863 236.015C60.6766 235.605 60.2667 235.195 59.8571 235.195H59.4475H59.0379H58.6284H58.2183H57.8087H57.3991C56.1701 235.195 54.941 235.605 53.712 236.015H53.3024C52.8928 236.015 52.893 236.425 52.4833 236.425C52.4833 236.425 52.0732 236.425 52.0732 236.834C51.6636 236.834 51.2542 237.244 50.8445 237.244V236.834C51.2542 235.605 51.6637 234.786 51.6637 234.376C51.254 233.147 47.5673 232.327 44.2899 232.327C43.8802 232.327 42.2416 232.737 40.1932 233.556C38.5545 233.966 36.5061 234.786 34.4577 235.605C32.4094 236.015 22.5773 239.293 20.1193 240.112L6.19039 243.8C5.37105 244.21 2.91283 244.62 2.91283 244.62C4.14184 245.439 6.19049 245.439 7.82917 245.439H8.64831C8.64831 245.439 9.46785 245.439 9.87752 245.029C9.87752 245.029 8.64841 245.439 8.23874 245.849C7.82907 246.259 7.4196 246.259 7.4196 246.259C7.00993 246.668 7.4194 246.668 8.23874 247.078C9.46775 247.488 11.1064 246.668 12.3354 246.259C11.9258 246.668 11.5162 246.668 11.9259 247.078C11.9259 247.078 12.3352 247.488 13.1546 247.488C14.3836 247.488 16.0223 247.078 17.2513 246.668L16.8417 247.078C16.8417 247.488 16.8416 247.488 17.2513 247.898H18.0709C19.2999 247.898 20.5286 247.488 21.348 246.668C21.348 247.078 21.7579 247.488 22.5772 247.488C23.3965 247.488 24.2158 246.668 25.0351 245.849V246.259C25.0351 246.668 25.8547 246.668 26.2643 246.259C27.0837 246.259 27.4934 245.849 27.9031 245.439L28.3127 245.029C29.132 245.849 29.9513 245.439 30.7706 245.029C29.9513 245.849 29.9513 246.668 30.7706 247.078C30.3609 247.488 30.3609 248.307 30.7706 248.717C29.9513 249.127 30.3609 249.946 30.7706 250.356C30.3609 250.356 30.361 250.766 30.361 251.176V251.585C27.903 252.815 28.3124 254.044 21.348 258.141L14.7934 261.829C13.5643 262.239 4.96128 265.927 2.50326 266.746C2.09359 266.746 0.0453374 267.566 0.0453374 268.385C-0.364333 268.795 2.09379 268.385 3.73247 267.975L11.5163 265.107C11.926 265.107 12.3354 265.107 12.3354 265.517C12.3354 265.927 11.5159 266.746 11.1062 267.156L6.59996 270.024C5.78062 270.434 5.37095 270.844 4.55161 271.253C3.73227 272.073 2.50356 273.302 3.3229 273.302C6.19059 272.483 14.7935 266.336 16.4321 265.107C18.8902 263.468 21.348 262.239 23.3963 261.419C25.035 261.01 27.0837 260.19 28.3127 260.19C29.5417 260.19 31.1803 259.78 32.8189 258.961C31.5899 259.78 31.1802 260.6 31.1802 261.01C31.1802 261.419 31.5901 261.01 31.9998 261.01C30.3611 262.239 29.5415 263.058 29.1318 263.468C28.7221 263.878 28.3126 264.288 28.7222 264.697C29.1319 264.697 29.9512 264.288 31.1802 263.468C30.7705 263.878 30.3611 264.288 29.9515 264.288C29.1321 264.697 28.3128 265.927 27.9031 266.336C26.6741 267.566 26.6739 268.795 26.6739 268.795L29.1318 267.156C30.7705 265.927 35.6866 263.878 43.0607 258.961C45.109 257.732 45.9285 255.273 46.7478 252.815C49.2058 251.176 51.2543 249.537 52.4833 248.307C52.893 247.898 53.3024 247.488 53.3024 247.078C53.3024 247.078 55.351 244.62 56.58 244.21C57.809 243.39 60.2668 242.571 61.4958 240.522C61.9055 240.113 61.9054 239.703 61.9054 239.293L63.1346 236.834Z" fill="#402B48"/>
</svg>
