<svg width="235" height="179" viewBox="0 0 235 179" fill="none" xmlns="http://www.w3.org/2000/svg">
<path opacity="0.2" d="M191.048 151.208C190.615 151.208 188.738 151.064 186.86 150.775H187.293C188.882 150.631 191.337 149.908 192.203 148.897C192.203 148.897 190.759 148.753 188.593 148.753C190.759 148.175 191.914 146.731 191.914 146.731L187.293 147.453L182.529 148.609C182.384 148.609 182.24 148.753 181.951 148.753L179.929 149.186L176.32 149.908C175.309 150.053 174.587 150.342 174.587 150.342C173.721 150.053 172.277 150.053 168.956 152.075V151.93C168.956 151.93 168.956 151.786 169.1 151.786C169.822 150.919 170.255 149.764 170.255 148.897V148.464V148.175L170.977 146.731L170.688 146.876L169.678 147.309H169.533H169.389H168.378C166.934 147.598 166.068 148.175 165.49 149.908C165.057 151.064 164.335 151.497 163.902 151.641C163.758 151.208 163.469 150.919 163.18 150.486L162.891 150.197C162.458 149.186 162.025 148.175 162.169 147.02C162.169 146.153 162.169 145.576 162.025 144.998C162.025 144.276 161.88 143.41 161.88 143.265V143.121C161.88 142.687 161.88 142.399 161.736 141.965C161.592 140.665 161.303 139.366 161.014 138.21C160.581 136.333 158.559 134.022 157.693 133.589C157.693 133.589 157.404 134.6 157.549 135.611C157.142 135.06 156.655 134.573 156.105 134.167L155.96 137.055L154.95 136.333C154.95 136.333 154.95 137.777 155.383 139.366C155.383 139.51 155.383 139.51 155.527 139.655L155.094 139.221L154.95 139.077C154.95 139.221 154.805 140.232 155.527 141.965C155.671 142.254 155.816 142.687 156.105 142.976C155.671 143.121 155.383 144.854 156.394 145.865L156.538 146.009C156.249 146.442 155.96 147.742 156.827 148.32C156.827 148.32 156.971 148.464 157.116 148.464C156.682 148.897 156.682 149.908 157.26 150.197C157.404 150.197 157.404 150.197 157.549 150.342C157.26 150.631 157.115 151.064 157.549 151.353C157.693 151.497 157.982 151.497 158.126 151.497C157.693 151.93 157.693 152.652 158.271 152.797H158.415C158.271 153.23 158.271 153.952 158.848 154.241C158.993 154.385 159.137 154.385 159.426 154.241V154.385V154.53V154.674V154.819V154.963V155.108V155.252L159.57 155.396H159.714H159.859H160.148V155.541V155.685C160.148 155.83 160.148 155.83 160.292 155.974V156.119C160.457 156.297 160.652 156.444 160.87 156.552H161.014C161.014 156.841 161.158 157.274 161.303 157.563L160.292 160.162C159.737 161.383 159.059 162.544 158.271 163.628C157.404 164.35 156.105 165.506 153.939 166.372C153.506 166.517 153.072 166.661 152.639 166.95C150.906 167.528 149.174 168.394 147.73 169.116C147.297 169.405 148.019 169.405 148.307 169.261C150.473 168.25 151.917 167.961 152.928 167.817C153.217 168.105 154.228 168.25 154.95 167.817C154.805 168.105 154.949 168.539 155.527 168.683C156.105 168.827 156.393 168.683 156.682 168.394C156.538 168.972 156.393 169.405 156.827 169.838C157.115 170.127 157.549 169.838 157.982 169.405C157.837 170.127 157.693 170.849 157.982 171.138C158.126 171.427 158.559 171.138 158.993 170.705L159.281 170.416C158.993 171.427 158.848 171.86 159.281 172.727C159.426 173.016 159.714 173.16 159.859 172.871C159.859 173.593 159.715 174.171 159.57 174.749L159.137 177.348C158.992 177.782 159.281 178.215 159.426 177.926C159.917 175.676 160.544 173.457 161.303 171.283C162.169 168.105 162.169 166.517 162.458 164.35V163.917C163.036 163.484 163.613 163.051 164.191 162.329H164.335C164.48 162.329 164.624 162.04 164.624 161.895L164.768 161.751C164.768 162.184 164.768 162.473 165.057 162.762C165.202 162.762 165.201 162.906 165.346 162.762C165.49 162.762 165.635 162.617 165.779 162.329C165.779 162.473 165.779 162.762 165.923 162.906C166.068 163.051 166.212 163.34 166.357 163.34C166.645 163.484 166.934 163.195 167.078 162.906C167.078 163.195 167.223 163.484 167.367 163.628C167.656 163.773 167.945 163.34 168.089 162.762C168.089 163.34 168.234 163.628 168.522 163.773C168.956 163.917 169.244 163.195 169.533 162.473C169.678 163.051 169.822 163.484 170.111 163.628C170.544 163.917 170.833 163.34 170.977 162.473C171.122 162.762 171.266 163.051 171.41 163.051C171.988 163.34 172.132 162.617 172.132 161.606C172.277 162.04 172.565 162.329 172.854 162.329C173.576 162.329 173.721 161.606 173.576 160.884C173.721 161.173 174.009 161.318 174.154 161.318C175.02 161.462 175.165 160.596 175.165 160.018C175.453 160.307 175.887 160.596 176.175 160.596C177.042 160.74 177.331 160.307 177.331 159.873C177.552 159.99 177.803 160.04 178.052 160.018C179.496 160.018 179.785 159.44 179.641 159.007C181.229 159.44 182.384 159.007 182.673 158.285L182.24 157.996C184.117 157.996 185.128 156.552 185.128 156.552C185.128 156.552 184.695 156.407 183.973 156.263C185.85 156.263 186.86 154.963 186.86 154.963L184.983 154.385H185.416C187.871 154.53 188.737 153.375 188.737 153.375C188.737 153.375 186.283 152.941 185.128 152.364H186.283C188.882 152.652 191.625 151.208 191.048 151.208ZM234.51 85.3525C234.51 85.3525 231.767 84.1971 226.713 81.0199C222.381 78.2759 217.183 72.4991 214.439 68.7441C213.284 66.4334 211.552 63.8338 209.963 61.8119C209.386 60.9454 208.808 60.0789 208.086 59.3568C205.776 56.6128 202.022 53.2912 201.444 52.2802C201.444 52.2802 201.155 51.7025 202.022 50.4027C202.455 49.825 203.177 48.9585 204.332 47.9476C206.642 46.0701 207.942 43.3261 208.519 41.7375L211.118 39.4268V39.2824C211.118 39.138 210.974 39.1379 210.974 39.1379L208.23 39.5712C208.086 39.4268 208.086 39.2824 208.086 39.2824L207.797 39.5712C207.364 39.2824 206.642 38.9935 206.065 38.7047C204.765 38.127 203.177 37.8381 201.877 38.127C199.278 38.7047 197.545 39.8601 196.39 41.3043C196.102 41.5931 195.813 42.0263 195.524 42.4596C193.358 40.871 182.673 29.3173 179.785 26.4289L179.063 25.7068L177.186 22.9628C175.886 20.7965 174.587 18.0526 173.143 13.1423C171.555 7.94313 170.255 0 170.255 0C170.255 0 168.956 4.1882 169.244 6.93219C168.667 5.34356 167.223 4.47704 167.223 4.47704C167.079 5.19914 167.079 6.49892 167.223 8.23196C166.357 7.50986 165.057 7.07659 165.057 7.07659C165.057 8.23196 165.057 9.82059 165.49 11.5536C164.191 10.6871 162.602 11.2648 162.602 11.2648C162.602 12.2757 162.747 13.4311 163.324 14.8753C162.458 14.8753 161.592 15.3086 161.592 15.3086C161.736 16.1751 162.169 17.7637 163.324 19.4968C162.314 19.4968 161.592 20.0744 161.592 20.0744C161.88 21.8075 162.747 24.9847 166.068 26.7178C166.212 26.7178 166.212 26.8622 166.357 26.8622C164.768 27.0066 163.758 27.7287 163.758 27.7287C164.768 29.7506 166.212 31.6281 168.667 32.4946C167.079 33.0723 166.501 33.65 166.645 34.9498C166.79 35.5274 167.367 36.1051 168.956 36.2495C168.378 37.1161 168.089 38.4158 168.956 38.8491C169.244 38.9935 169.678 38.9935 170.4 38.8491C170.111 40.0045 170.255 41.4487 171.555 41.7375C171.844 41.7375 172.132 41.7375 172.565 41.5931C171.988 42.604 171.988 43.7594 173.576 44.1927C173.865 44.3371 174.154 44.1927 174.587 44.1927C174.154 45.2036 174.587 46.5034 176.897 45.9257C176.753 46.9366 177.331 47.8032 178.052 47.6587C178.197 47.6587 178.341 47.6587 178.486 47.5143C178.486 47.8032 178.486 48.092 178.63 48.3808C176.753 49.8251 174.731 51.4137 171.844 52.7135C164.479 53.7244 152.928 57.0461 142.243 68.4553C141.81 69.033 142.676 69.1774 144.842 67.4444C148.019 64.9892 148.885 64.4115 152.35 62.534C153.361 61.9564 154.372 61.3787 155.238 61.0898C155.96 62.1008 160.148 61.8119 160.148 61.8119C160.003 62.6785 160.725 62.8229 160.725 62.8229C159.426 64.4115 160.436 66.5778 160.581 66.8666C160.292 67.1555 159.859 67.5888 159.426 67.8776C156.394 70.4772 153.65 72.3547 150.907 75.2431C149.751 76.3984 149.318 77.8426 151.051 76.3984C153.65 74.2321 154.661 72.9323 158.126 70.6216C167.079 64.7003 172.132 60.6566 174.587 58.6347C175.887 58.3459 177.186 58.3458 178.63 58.2014C178.63 58.3458 178.774 58.3458 178.774 58.3458C178.919 58.4903 179.352 58.3459 179.785 58.057H184.983C184.839 58.6347 185.128 60.801 188.16 61.2343C187.727 61.6675 187.582 61.9564 187.582 62.3897C188.016 64.1227 189.026 64.9892 191.481 64.2671C190.903 64.9892 190.47 65.5669 190.903 66.289C191.625 67.7332 193.069 67.4444 194.802 66.5778C194.513 67.2999 194.369 67.8776 194.658 68.3109C195.524 69.7551 197.112 69.033 198.556 67.8776C198.267 68.7441 198.267 69.6107 198.412 70.1883C198.845 72.0658 200.433 73.0767 201.733 71.6325C201.877 72.7879 202.166 73.7989 202.744 74.521C203.899 76.1096 204.91 74.6654 205.487 73.2212C205.92 75.3875 206.642 77.1205 207.508 77.6982C208.519 78.4203 208.952 77.5538 208.952 76.3984C209.819 78.1314 210.685 79.2868 211.407 79.5757C212.562 79.8645 213.14 79.2868 213.429 78.7091C214.584 80.2978 215.739 81.3087 216.605 81.5976C219.06 82.3197 220.504 81.5975 220.937 80.731C224.403 83.475 226.28 83.9083 228.301 84.486C231.911 85.0636 234.51 85.3525 234.51 85.3525ZM22.2525 83.475L21.5306 83.1862C21.3862 83.0418 21.2417 82.8973 21.0973 82.8973H20.9529H20.8086H20.6642H20.5197H20.3753H20.231C19.7978 82.8973 19.3646 83.0418 18.9314 83.1862H18.7871C18.6427 83.1862 18.6427 83.3306 18.4983 83.3306C18.4983 83.3306 18.3538 83.3306 18.3538 83.475C18.2094 83.475 18.0651 83.6194 17.9207 83.6194V83.475C18.0651 83.0417 18.2094 82.7529 18.2094 82.6085C18.0651 82.1753 16.7656 81.8864 15.6105 81.8864C15.4661 81.8864 14.8885 82.0308 14.1666 82.3196C13.589 82.4641 12.867 82.7529 12.145 83.0418C11.4231 83.1862 7.95762 84.3415 7.09127 84.6304L2.18187 85.9302C1.89309 86.0746 1.02666 86.219 1.02666 86.219C1.45984 86.5079 2.18191 86.5078 2.75948 86.5078H3.0482C3.0482 86.5078 3.33705 86.5078 3.48144 86.3634C3.48144 86.3634 3.04823 86.5078 2.90384 86.6523C2.75944 86.7967 2.61512 86.7967 2.61512 86.7967C2.47073 86.9411 2.61505 86.9411 2.90384 87.0855C3.33702 87.2299 3.91459 86.9411 4.34777 86.7967C4.20337 86.9411 4.05902 86.9411 4.20341 87.0855C4.20341 87.0855 4.3477 87.2299 4.63648 87.2299C5.06966 87.2299 5.64723 87.0855 6.08041 86.9411L5.93605 87.0855C5.93605 87.2299 5.93602 87.2299 6.08041 87.3744H6.3693C6.80248 87.3744 7.23555 87.23 7.52434 86.9411C7.52434 87.0855 7.6688 87.2299 7.95759 87.2299C8.24637 87.2299 8.53512 86.9411 8.82391 86.6523V86.7967C8.82391 86.9411 9.11277 86.9411 9.25716 86.7967C9.54595 86.7967 9.69037 86.6523 9.83477 86.5078L9.97912 86.3634C10.2679 86.6522 10.5567 86.5078 10.8454 86.3634C10.5567 86.6522 10.5567 86.9411 10.8454 87.0855C10.7011 87.2299 10.7011 87.5188 10.8454 87.6632C10.5567 87.8076 10.7011 88.0965 10.8454 88.2409C10.7011 88.2409 10.7011 88.3853 10.7011 88.5297V88.6741C9.83473 89.1074 9.97902 89.5407 7.52434 90.9849L5.21409 92.2847C4.78091 92.4291 1.74866 93.7289 0.882302 94.0177C0.737909 94.0177 0.0159797 94.3065 0.0159797 94.5954C-0.128413 94.7398 0.737979 94.5954 1.31555 94.451L4.05905 93.44C4.20344 93.44 4.34777 93.44 4.34777 93.5844C4.34777 93.7288 4.05891 94.0177 3.91452 94.1621L2.32623 95.1731C2.03744 95.3175 1.89305 95.4619 1.60427 95.6063C1.31548 95.8952 0.882407 96.3285 1.17119 96.3285C2.18194 96.0396 5.21412 93.8733 5.7917 93.44C6.65805 92.8624 7.52434 92.4291 8.2463 92.1402C8.82388 91.9958 9.54594 91.707 9.97912 91.707C10.4123 91.707 10.9898 91.5626 11.5674 91.2737C11.1342 91.5626 10.9898 91.8514 10.9898 91.9958C10.9898 92.1403 11.1343 91.9958 11.2787 91.9958C10.7011 92.4291 10.4122 92.7179 10.2678 92.8623C10.1234 93.0067 9.97909 93.1512 10.1235 93.2956C10.2679 93.2956 10.5566 93.1512 10.9898 92.8623C10.8454 93.0067 10.7011 93.1512 10.5567 93.1512C10.2679 93.2956 9.97916 93.7289 9.83477 93.8733C9.40159 94.3066 9.40152 94.7398 9.40152 94.7398L10.2678 94.1621C10.8454 93.7289 12.5782 93.0068 15.1772 91.2737C15.8992 90.8405 16.188 89.974 16.4768 89.1074C17.3432 88.5298 18.0652 87.9521 18.4983 87.5188C18.6427 87.3744 18.7871 87.2299 18.7871 87.0855C18.7871 87.0855 19.5091 86.219 19.9423 86.0746C20.3754 85.7857 21.2417 85.4969 21.6749 84.7748C21.8193 84.6304 21.8193 84.4859 21.8193 84.3415L22.2525 83.475Z" fill="#190417"/>
</svg>
