<svg width="116" height="165" viewBox="0 0 116 165" fill="none" xmlns="http://www.w3.org/2000/svg">
<path d="M115.266 84.5734C115.266 85.764 114.502 85.0557 113.631 85.0859C113.937 92.0938 112.027 98.5442 111.461 105.07C111.309 106.909 111.37 108.808 111.186 110.706C110.957 113.058 110.163 115.409 110.101 117.88C110.04 120.533 110.667 123.17 110.911 125.566C111.033 126.787 111.064 128.144 111.186 129.409C111.813 136.478 112.623 143.727 113.356 151.187C113.478 152.438 113.738 153.719 113.631 154.774C113.539 155.693 113.219 156.206 113.096 157.08C113.112 159.416 113.967 162.475 112.546 163.997C110.575 165.173 108.91 164.193 106.312 164.253C106.22 163.5 106.893 163.018 107.122 162.46C110.147 155.256 108.497 142.823 107.122 134.79C106.801 132.906 106.511 130.917 106.037 129.153C105.548 127.345 104.631 125.717 104.402 124.029C104.219 122.612 104.539 121.151 104.402 119.674C104.188 117.338 103.348 115.107 102.767 112.756C102.095 109.953 101.59 105.552 102.492 102.252C101.682 100.971 101.774 98.8305 99.772 98.6648C98.7176 98.9511 99.0385 100.534 98.9621 101.739C99.0691 107.707 99.2066 113.63 100.597 118.393C101.01 119.417 102.095 120.261 102.232 121.467C102.354 122.612 101.606 123.758 101.147 125.566C100.796 126.938 100.811 128.581 100.597 129.922C100.383 131.354 100.016 132.861 99.7873 134.277C98.9163 139.673 97.3271 145.596 96.5326 151.187C96.2881 152.95 96.12 154.668 95.7227 155.799C95.3865 156.733 94.6836 157.773 94.0877 158.617C93.6599 160.35 93.9502 162.761 93.0028 163.997C90.9094 164.721 88.5868 163.831 86.2184 163.997C87.4867 161.526 88.816 159.099 90.2829 156.824C90.3899 155.166 91.1081 153.538 91.6429 151.956C92.1624 150.388 92.5903 148.941 93.0028 147.344C93.828 144.149 94.6378 140.743 94.8976 137.352C94.9893 136.237 94.8212 135.197 94.8976 134.021C94.9434 133.388 95.1726 132.635 95.1726 131.972C95.1268 129.168 94.3016 126.019 93.5376 123.261C92.8042 120.563 91.8415 118.031 91.0928 115.574C89.4578 110.194 87.8687 104.919 84.5834 101.739C82.8568 101.815 80.7328 101.528 79.434 101.995C76.5155 109.41 74.9263 118.076 72.6496 126.079C72.6037 129.666 72.8176 132.906 73.1997 136.327C73.6428 140.411 74.4068 143.757 75.3694 147.6C75.8279 149.439 76.5919 151.172 76.7294 152.98C76.7905 153.764 76.4543 154.533 76.4543 155.286C76.4696 157.683 78.0282 159.838 77.5392 162.46C76.4391 164.48 74.0401 164.555 71.3049 164.51C72.3745 157.532 71.4883 149.017 70.22 142.476C69.8227 140.441 69.349 138.407 68.585 136.583C67.5613 134.097 66.1555 132.183 66.1402 128.897C66.1402 126.636 67.2709 124.331 67.2251 121.467C67.164 118.378 66.2319 115.394 66.4152 111.475C66.4916 109.682 67.0876 107.979 66.4152 106.095C66.293 105.597 66.3236 104.995 65.6054 105.07C64.4288 105.401 64.7191 107.24 64.5205 108.401C63.894 112.003 63.0841 115.815 62.8855 119.93C62.7174 123.441 63.2064 127.179 62.8855 130.947C62.7327 132.755 62.2743 134.473 62.0757 136.327C61.7395 139.537 61.6325 143.275 61.8006 146.831C61.9534 149.996 62.0451 153.131 61.2505 156.055C61.0519 156.718 60.1504 156.733 59.6155 157.08C59.1113 158.738 59.478 161.224 58.8057 162.716C57.2471 164.058 53.4271 163.274 50.6613 163.485C50.9669 162.234 52.3116 161.963 52.8311 160.923C53.5646 159.566 54.2827 158.195 55.276 157.08C57.2929 150.614 57.8583 140.441 56.6359 132.228C56.4525 130.962 55.9788 129.636 55.826 128.385C55.7038 127.375 55.9024 126.305 55.826 125.31C55.5663 121.738 54.1147 118.046 53.3812 114.806C53.1214 113.63 53.0909 112.394 52.8464 111.219C51.8226 106.502 50.371 102.041 47.9567 98.921C46.8107 95.0477 46.3676 90.5114 46.5968 85.3421C46.2301 84.272 45.1757 83.7144 44.427 82.78C44.045 82.2977 43.5713 81.8607 43.0671 81.2428C42.6545 80.7303 42.2419 80.3686 41.7071 79.7055C41.3251 79.2383 40.8056 78.7711 40.3472 78.1683C39.0484 76.4502 37.5509 74.2197 36.0076 72.2755C35.2742 67.9351 34.067 64.0167 31.1179 61.7711C29.7274 58.7569 28.4133 55.5619 27.0534 52.0353C25.8157 48.8101 26.6255 43.5503 25.6934 38.9688C24.7461 39.014 23.7681 39.7223 22.7138 39.9936C21.7053 40.2498 20.3912 40.3553 19.1841 40.506C16.9226 40.7924 15.1654 40.8526 13.2095 40.2498C12.3538 39.3606 11.0244 38.803 9.95482 37.6877C9.11441 36.8136 7.75447 35.3367 8.06007 34.1009C8.41152 32.6993 10.1687 32.6691 12.1246 32.3074C13.836 31.9909 15.8224 31.4634 17.274 31.5388C20.6357 31.7046 23.3097 33.6789 25.6782 32.3074C25.4948 31.3579 24.0737 31.0565 23.2333 30.7702C20.269 29.7755 15.1501 29.8207 11.2995 29.2329C9.93954 29.0219 8.68656 28.826 7.4947 28.4643C6.27228 28.0875 5.21795 27.6957 4.24002 27.1833C2.80367 25.2844 1.06173 23.7019 0.175476 21.2906C0.282438 18.834 0.0226738 16.6336 0.175476 14.6292C0.404679 11.6452 1.65766 9.2338 1.81046 6.43061C2.71199 9.32423 1.10757 12.0973 1.26037 15.1416C2.75783 14.7347 2.88008 13.9058 2.62031 12.3233C3.44544 12.3233 2.88007 13.6194 3.70521 13.6044C4.34698 10.8765 4.60674 7.78699 5.34019 5.14958C6.63901 6.77724 5.41659 9.83664 5.61523 12.0671C6.34869 12.8358 7.2655 10.2285 8.06007 11.0423C7.78503 12.8358 5.81388 13.0166 5.34019 14.6292C5.12627 16.287 5.73748 17.146 5.61523 18.7285C6.62373 18.9093 6.57789 17.7338 6.97517 17.1913C7.0363 17.1008 7.47942 17.0104 7.52526 16.9351C7.52526 16.9351 7.83087 15.3978 8.06007 16.1664C8.10591 18.2312 6.16532 19.7684 6.16532 21.803C6.16532 23.6115 7.3419 24.7569 8.06007 26.4147C12.7205 27.4847 18.7868 27.2285 23.7987 27.9519C25.4337 26.2489 24.7002 22.3154 25.9685 20.2657C27.0381 21.1248 26.3811 22.6319 26.5186 23.8526C26.8089 26.7312 27.2367 29.67 29.2385 30.7702C31.5611 30.4838 34.067 30.3783 36.0229 29.7453C37.3675 26.3544 35.2589 22.6771 34.938 19.2409C35.6867 19.3012 35.977 20.2507 36.2979 20.7781C37.2147 22.3003 37.7954 24.7117 39.5526 25.9023C40.7597 25.6611 41.6918 24.8172 42.8073 24.365C44.0603 23.8526 45.3897 23.7773 46.6121 23.3402C48.6749 22.6017 50.3863 21.4111 52.3116 20.7781C52.281 19.1203 52.8158 18.0955 52.5866 16.9351C52.0366 14.162 48.4304 13.3482 47.697 10.7861C48.9347 11.5849 49.7904 12.7453 51.5017 13.092C50.6766 8.49533 48.5832 5.08929 47.1622 1.05028V0.0103861C47.483 -0.0348267 47.6511 0.0706698 47.697 0.266592C48.5985 1.96961 49.5 3.6877 50.4168 5.39071C51.8837 5.33043 53.6563 6.85259 55.3065 7.44036C55.6121 6.85259 55.0468 6.24976 54.7564 5.64692C53.9924 4.03433 52.663 2.31624 52.3116 0.266592C53.9313 2.24089 55.5204 5.39071 56.9262 8.20898C57.5374 9.44479 58.3473 10.3943 58.5612 12.0521C58.9279 15.1567 57.4916 17.4173 56.3914 20.2507C55.4593 20.9138 54.6495 21.6824 53.9466 22.5565C52.663 23.1141 51.4101 23.6868 49.882 24.35C49.7445 24.4102 49.4389 24.8322 49.3472 24.8624C48.1554 25.209 47.0858 25.6461 45.8175 26.1434C43.3727 27.1079 40.5 27.9971 39.3081 30.4989C40.3319 31.1469 41.1418 29.7755 42.028 29.4741C42.9295 29.037 43.7547 28.5397 44.4728 27.9368C46.6121 27.7108 49.5459 26.9723 51.7921 27.6806C52.5255 31.5388 50.2488 34.7489 47.9873 36.6478C46.3218 36.8588 44.8854 37.311 42.8379 37.1603C41.0348 39.5113 43.1587 42.842 42.5628 46.3837C42.9601 47.6346 44.2895 48.2223 45.2827 48.9457C46.2148 49.639 47.1622 50.498 48.2623 50.9954C49.5459 52.5929 51.3184 53.7534 52.6019 55.3509C54.405 56.2099 56.04 57.2197 57.7514 58.1691C61.2505 59.0131 64.8108 58.2445 68.0655 58.9378C69.7769 59.2995 71.6411 59.9324 73.49 60.2188C74.4374 60.3695 75.5375 60.3243 76.4696 60.475C77.4628 60.6408 78.2574 61.0025 79.1895 60.9874C80.8398 60.9573 82.597 60.3544 84.3389 59.9626C87.8687 59.1488 94.103 58.2445 98.4426 59.4502C102.186 60.4901 105.074 63.0371 107.947 65.3429C108.818 68.3571 111.202 69.9546 112.011 73.0291C112.989 74.6568 114.105 76.7215 114.991 78.9218C115.587 80.3988 116.489 82.358 115.266 84.5584V84.5734Z" fill="#402B48"/>
</svg>
