<svg width="56" height="35" viewBox="0 0 56 35" fill="none" xmlns="http://www.w3.org/2000/svg">
<path d="M27.8242 1.25H7.60736C3.88521 1.25 0.868408 4.23538 0.868408 7.91876V27.925C0.868408 31.6062 3.88521 34.5938 7.60736 34.5938H25.8242C26.9288 34.5938 27.8242 33.6983 27.8242 32.5938V16.5875C27.8242 15.4829 26.9288 14.5875 25.8242 14.5875H16.3463C15.2417 14.5875 14.3463 15.4829 14.3463 16.5875V19.2563C14.3463 20.3608 15.2417 21.2563 16.3463 21.2563H19.0853C20.1898 21.2563 21.0853 22.1517 21.0853 23.2563V25.925C21.0853 27.0296 20.1898 27.925 19.0853 27.925H9.60736C8.50279 27.925 7.60736 27.0296 7.60736 25.925V9.91875C7.60736 8.81418 8.50279 7.91876 9.60736 7.91876H35.9327C37.0372 7.91876 37.9326 8.81419 37.9326 9.91876V32.5938C37.9326 33.6983 38.8281 34.5938 39.9326 34.5938H42.6716C43.7762 34.5938 44.6716 33.6983 44.6716 32.5938V9.91875C44.6716 8.81418 45.567 7.91876 46.6716 7.91876H52.78C53.8846 7.91876 54.78 7.02332 54.78 5.91876V3.25C54.78 2.14543 53.8846 1.25 52.78 1.25H27.8242Z" fill="#FDC45D"/>
</svg>
