<svg width="311" height="311" viewBox="0 0 311 311" fill="none" xmlns="http://www.w3.org/2000/svg">
<g opacity="0.4" clip-path="url(#clip0_736_23491)">
<path opacity="0.1" d="M155.5 311C241.38 311 311 241.38 311 155.5C311 69.6197 241.38 0 155.5 0C69.6197 0 0 69.6197 0 155.5C0 241.38 69.6197 311 155.5 311Z" fill="url(#paint0_radial_736_23491)"/>
<path opacity="0.1" d="M155.5 288.785C229.111 288.785 288.784 229.111 288.784 155.5C288.784 81.8889 229.111 22.2153 155.5 22.2153C81.8884 22.2153 22.2148 81.8889 22.2148 155.5C22.2148 229.111 81.8884 288.785 155.5 288.785Z" fill="url(#paint1_radial_736_23491)"/>
<path opacity="0.1" d="M155.499 266.569C216.841 266.569 266.568 216.842 266.568 155.5C266.568 94.1581 216.841 44.4307 155.499 44.4307C94.1571 44.4307 44.4297 94.1581 44.4297 155.5C44.4297 216.842 94.1571 266.569 155.499 266.569Z" fill="url(#paint2_radial_736_23491)"/>
<path opacity="0.1" d="M155.499 244.354C204.571 244.354 244.353 204.573 244.353 155.5C244.353 106.427 204.571 66.646 155.499 66.646C106.426 66.646 66.6445 106.427 66.6445 155.5C66.6445 204.573 106.426 244.354 155.499 244.354Z" fill="url(#paint3_radial_736_23491)"/>
<path opacity="0.1" d="M155.501 222.146C192.309 222.146 222.147 192.308 222.147 155.5C222.147 118.692 192.309 88.854 155.501 88.854C118.694 88.854 88.8555 118.692 88.8555 155.5C88.8555 192.308 118.694 222.146 155.501 222.146Z" fill="url(#paint4_radial_736_23491)"/>
<path opacity="0.1" d="M155.501 199.931C180.039 199.931 199.932 180.038 199.932 155.5C199.932 130.962 180.039 111.069 155.501 111.069C130.963 111.069 111.07 130.962 111.07 155.5C111.07 180.038 130.963 199.931 155.501 199.931Z" fill="url(#paint5_radial_736_23491)"/>
<path d="M155.5 177.715C167.77 177.715 177.716 167.769 177.716 155.5C177.716 143.231 167.77 133.285 155.5 133.285C143.231 133.285 133.285 143.231 133.285 155.5C133.285 167.769 143.231 177.715 155.5 177.715Z" fill="#FCFFF9"/>
</g>
<defs>
<radialGradient id="paint0_radial_736_23491" cx="0" cy="0" r="1" gradientUnits="userSpaceOnUse" gradientTransform="translate(155.5 155.5) scale(155.5)">
<stop offset="0.24" stop-color="#FF7836"/>
<stop offset="1" stop-color="#FF7836" stop-opacity="0"/>
</radialGradient>
<radialGradient id="paint1_radial_736_23491" cx="0" cy="0" r="1" gradientUnits="userSpaceOnUse" gradientTransform="translate(155.5 155.5) scale(133.285)">
<stop offset="0.24" stop-color="#FF7836"/>
<stop offset="1" stop-color="#FF7836" stop-opacity="0"/>
</radialGradient>
<radialGradient id="paint2_radial_736_23491" cx="0" cy="0" r="1" gradientUnits="userSpaceOnUse" gradientTransform="translate(155.499 155.5) scale(111.069 111.069)">
<stop offset="0.24" stop-color="#FF7836"/>
<stop offset="1" stop-color="#FF7836" stop-opacity="0"/>
</radialGradient>
<radialGradient id="paint3_radial_736_23491" cx="0" cy="0" r="1" gradientUnits="userSpaceOnUse" gradientTransform="translate(0.363093 155.5) scale(88.854)">
<stop offset="0.24" stop-color="#FF7836"/>
<stop offset="1" stop-color="#FF7836" stop-opacity="0"/>
</radialGradient>
<radialGradient id="paint4_radial_736_23491" cx="0" cy="0" r="1" gradientUnits="userSpaceOnUse" gradientTransform="translate(155.501 155.5) scale(66.646)">
<stop offset="0.24" stop-color="#FF7836"/>
<stop offset="1" stop-color="#FF7836" stop-opacity="0"/>
</radialGradient>
<radialGradient id="paint5_radial_736_23491" cx="0" cy="0" r="1" gradientUnits="userSpaceOnUse" gradientTransform="translate(0.36551 0.364534) scale(44.4307)">
<stop offset="0.24" stop-color="#FF7836"/>
<stop offset="1" stop-color="#FF7836" stop-opacity="0"/>
</radialGradient>
<clipPath id="clip0_736_23491">
<rect width="311" height="311" fill="white"/>
</clipPath>
</defs>
</svg>
