<svg width="25" height="25" viewBox="0 0 25 25" fill="none" xmlns="http://www.w3.org/2000/svg">
<path d="M12.5001 3.50486C7.54004 3.50486 3.50512 7.54016 3.50512 12.5002C3.50512 17.4598 7.54004 21.4951 12.5001 21.4951C17.4601 21.4951 21.495 17.4598 21.495 12.5002C21.495 7.54016 17.4601 3.50486 12.5001 3.50486ZM12.5001 23C9.69539 23 7.05849 21.9079 5.07545 19.9248C3.09242 17.9414 2.00026 15.3049 2.00026 12.5002C2.00026 9.6955 3.09242 7.0586 5.07545 5.07557C7.05849 3.09253 9.69539 2 12.5001 2C15.3048 2 17.9413 3.09253 19.9247 5.07557C21.9077 7.0586 22.9999 9.6955 22.9999 12.5002C22.9999 15.3049 21.9077 17.9414 19.9247 19.9248C17.9413 21.9079 15.3048 23 12.5001 23Z" fill="#454F63"/>
<path d="M12.216 9.87705C12.552 9.87705 12.8431 9.75591 13.0896 9.514C13.3318 9.2721 13.4526 8.98316 13.4526 8.64682C13.4526 8.28829 13.3318 7.99258 13.0896 7.7597C12.8431 7.52645 12.552 7.4102 12.216 7.4102C11.8751 7.4102 11.5862 7.53096 11.3488 7.77287C11.1069 8.01515 10.9858 8.30635 10.9858 8.64682C10.9858 8.9873 11.1069 9.27661 11.3488 9.514C11.5907 9.75591 11.8797 9.87705 12.216 9.87705Z" fill="#454F63"/>
<path d="M14.8523 15.7798H14.0382C14.0382 15.7798 13.6417 15.7854 13.6281 15.4178C13.589 14.9333 13.5574 14.5356 13.5532 14.4209L13.5062 13.2377C13.5017 13.1662 13.4994 13.0721 13.4994 12.9555C13.4994 12.6955 13.4972 12.4916 13.4927 12.3438C13.4885 12.29 13.4863 12.2294 13.4863 12.1624L13.5062 11.6579V10.4751C12.3411 11.0263 11.3084 11.3758 10.4073 11.5236L10.226 12.3641C10.3874 12.3953 10.5488 12.4111 10.7102 12.4111C10.925 12.4111 11.1267 12.3731 11.3151 12.2967L11.3418 13.9841C11.3418 14.3968 11.3531 14.9205 11.3637 15.4449C11.3723 15.7854 11.0318 15.7798 11.0318 15.7798H10.147V17.5894H11.3603V17.5905L11.3689 17.5894H14.8523V15.7798Z" fill="#454F63"/>
</svg>
