<svg width="32" height="32" viewBox="0 0 32 32" fill="none" xmlns="http://www.w3.org/2000/svg">
<path d="M15.0805 23.3807H14.169L15.0698 17.8928H12.2789H12.2387C12.1785 17.8935 12.1187 17.8823 12.0628 17.8599C12.0069 17.8375 11.956 17.8044 11.9129 17.7623C11.8699 17.7202 11.8355 17.6701 11.8118 17.6147C11.7881 17.5594 11.7756 17.4999 11.7749 17.4397C11.7921 17.3327 11.8294 17.2299 11.8848 17.1367L16.9036 8.73723H17.8285L16.9063 14.2332H19.7562C19.8412 14.2315 19.9249 14.254 19.9976 14.2982C20.0702 14.3423 20.1288 14.4062 20.1665 14.4824C20.2042 14.5586 20.2194 14.644 20.2104 14.7285C20.2013 14.8131 20.1684 14.8933 20.1154 14.9598L15.0805 23.3807ZM4.00004 16.0643C4.01275 18.435 4.72733 20.7487 6.05362 22.7136C7.37991 24.6785 9.25848 26.2066 11.4523 27.105C13.6461 28.0034 16.0569 28.2319 18.3804 27.7616C20.7039 27.2913 22.8361 26.1434 24.5079 24.4626C26.1797 22.7818 27.3162 20.6435 27.7741 18.3175C28.2319 15.9915 27.9905 13.582 27.0804 11.393C26.1703 9.20406 24.6322 7.33369 22.6602 6.01793C20.6883 4.70217 18.3707 3.99997 16.0001 3.99994C14.42 4.00416 12.8562 4.31956 11.398 4.92814C9.93981 5.53672 8.61575 6.42655 7.50144 7.54684C6.38713 8.66712 5.50439 9.99592 4.90362 11.4574C4.30285 12.9188 3.99581 14.4842 4.00004 16.0643Z" fill="#005AEF"/>
</svg>
