<svg width="201" height="201" viewBox="0 0 201 201" fill="none" xmlns="http://www.w3.org/2000/svg">
<path d="M95.2152 146.741H89.5181L95.1482 112.441H77.7051H77.4537C77.0775 112.445 76.704 112.375 76.3547 112.236C76.0053 112.096 75.687 111.888 75.4178 111.625C75.1486 111.362 74.9339 111.049 74.7858 110.703C74.6378 110.357 74.5593 109.985 74.5549 109.609C74.6623 108.94 74.8954 108.298 75.2419 107.716L106.609 55.2186H112.39L106.626 89.5686H124.438C124.969 89.5579 125.492 89.6987 125.947 89.9745C126.401 90.2503 126.767 90.6497 127.003 91.126C127.238 91.6024 127.333 92.1359 127.277 92.6642C127.22 93.1926 127.014 93.6939 126.683 94.1096L95.2152 146.741ZM25.9622 101.013C26.0416 115.829 30.5078 130.29 38.7971 142.571C47.0863 154.852 58.8274 164.402 72.5387 170.017C86.2501 175.632 101.317 177.06 115.839 174.121C130.361 171.182 143.688 164.007 154.136 153.502C164.585 142.997 171.688 129.633 174.55 115.096C177.411 100.558 175.903 85.4985 170.215 71.8174C164.526 58.1363 154.913 46.4465 142.588 38.223C130.264 29.9995 115.779 25.6107 100.963 25.6105C91.087 25.6369 81.3133 27.6082 72.1995 31.4118C63.0857 35.2154 54.8104 40.7769 47.8459 47.7786C40.8815 54.7804 35.3644 63.0854 31.6095 72.2194C27.8547 81.3534 25.9357 91.1375 25.9622 101.013Z" fill="#F5F5F5"/>
</svg>
