<svg width="32" height="32" viewBox="0 0 32 32" fill="none" xmlns="http://www.w3.org/2000/svg">
<path d="M15.9742 3.0968L4 7.39358L5.80645 23.2387L15.9742 28.9033L26.1548 23.2387L28 7.39358L15.9742 3.0968Z" fill="#9C27B0"/>
<path d="M15.9741 3.0968V5.96132V18.9936V28.9033L26.1548 23.2387L27.9999 7.39358L15.9741 3.0968Z" fill="#7B1FA2"/>
<path d="M19.897 17.9871L20.3744 16.7871H21.755L21.097 14.9678L21.9228 12.9033L24.2583 19.0968H22.5292L22.1292 17.9871H19.897Z" fill="white"/>
<path opacity="0.8" d="M18.426 19.0968L20.9292 12.9033H19.2776L17.5615 16.9033L16.3357 12.9033H15.0583L13.755 16.9033L12.826 15.0839L11.9873 17.6516L12.8389 19.0968H14.4776L15.6518 15.5097L16.7873 19.0968H18.426Z" fill="white"/>
<path d="M9.31589 16.9678H10.3482C10.6271 16.9757 10.9056 16.9409 11.174 16.8645L11.4449 16.0516L12.1804 13.7807C12.1272 13.6906 12.0621 13.6081 11.9869 13.5355C11.5998 13.1097 11.0449 12.9033 10.3223 12.9033H7.7417V19.0968H9.31589V16.9678ZM10.6707 14.3226C10.749 14.4023 10.8101 14.4973 10.85 14.6016C10.89 14.706 10.908 14.8174 10.903 14.9291C10.9147 15.1441 10.8456 15.3558 10.7094 15.5226C10.5546 15.6904 10.2965 15.7678 9.90944 15.7678H9.31589V14.1033H9.92234C10.2707 14.1033 10.5288 14.1807 10.6707 14.3226Z" fill="white"/>
</svg>
