<svg width="32" height="32" viewBox="0 0 32 32" fill="none" xmlns="http://www.w3.org/2000/svg">
<path d="M15.9483 3.06897L4 7.375L5.81034 23.2543L15.9483 28.931L26.1509 23.2543L28 7.375L15.9483 3.06897Z" fill="#4A3493"/>
<path d="M15.9482 3.06897V5.93966V19V28.931L26.1508 23.2543L28 7.375L15.9482 3.06897Z" fill="#311B92"/>
<g opacity="0.5">
<path d="M22.4139 14.7328C22.5748 15.8504 22.4002 16.9907 21.9124 18.009C21.4245 19.0273 20.6453 19.8779 19.6736 20.453C18.7018 21.028 17.5812 21.3016 16.4538 21.2391C15.3263 21.1766 14.2428 20.7807 13.3406 20.1018C12.4384 19.4228 11.758 18.4913 11.3857 17.4253C11.0135 16.3593 10.966 15.2067 11.2495 14.1137C11.533 13.0207 12.1345 12.0365 12.9779 11.2857C13.8214 10.5349 14.8687 10.0515 15.9872 9.89656C16.2441 9.86002 16.5035 9.84273 16.763 9.84484C17.4654 9.84416 18.1621 9.97122 18.8191 10.2198C18.239 10.3054 17.6917 10.5423 17.2323 10.9067C16.7729 11.2712 16.4177 11.7502 16.2025 12.2957C15.9872 12.8411 15.9196 13.4336 16.0062 14.0136C16.0929 14.5935 16.3309 15.1403 16.6963 15.599C17.0616 16.0576 17.5414 16.4119 18.0872 16.6261C18.6331 16.8402 19.2258 16.9067 19.8055 16.8189C20.3853 16.7311 20.9316 16.492 21.3896 16.1258C21.8475 15.7595 22.2008 15.279 22.4139 14.7328Z" fill="white"/>
</g>
<path d="M22.181 14.4224C22.3419 15.54 22.1673 16.6803 21.6795 17.6986C21.1916 18.717 20.4124 19.5676 19.4407 20.1426C18.4689 20.7176 17.3483 20.9912 16.2209 20.9287C15.0934 20.8662 14.0099 20.4704 13.1077 19.7914C12.2055 19.1125 11.5251 18.181 11.1528 17.1149C10.7805 16.0489 10.7331 14.8963 11.0166 13.8033C11.3 12.7103 11.9016 11.7261 12.745 10.9753C13.5885 10.2246 14.6358 9.7411 15.7543 9.5862C16.0112 9.54966 16.2706 9.53237 16.5301 9.53447C17.2323 9.53605 17.9286 9.66305 18.5862 9.90947C18.0061 9.99502 17.4588 10.2319 16.9994 10.5964C16.54 10.9608 16.1848 11.4399 15.9696 11.9853C15.7543 12.5308 15.6866 13.1233 15.7733 13.7032C15.86 14.2831 16.098 14.83 16.4634 15.2886C16.8287 15.7473 17.3085 16.1015 17.8543 16.3157C18.4002 16.5299 18.9929 16.5964 19.5726 16.5086C20.1524 16.4207 20.6987 16.1816 21.1567 15.8154C21.6146 15.4491 21.9679 14.9687 22.181 14.4224Z" fill="white"/>
</svg>
