<svg width="201" height="201" viewBox="0 0 201 201" fill="none" xmlns="http://www.w3.org/2000/svg">
<g clip-path="url(#clip0_616_22220)">
<path d="M175.962 45.6183L170.546 133.999L118.759 18.111L175.962 45.6183ZM140.093 159.899L100.962 183.099L61.8312 159.899L69.79 139.856H132.134L140.093 159.899ZM100.962 62.1001L121.467 113.9H80.4572L100.962 62.1001ZM31.3229 133.999L25.9619 45.6183L83.165 18.111L31.3229 133.999Z" fill="#F5F5F5"/>
<path d="M175.962 45.6183L170.546 133.999L118.759 18.111L175.962 45.6183ZM140.093 159.899L100.962 183.099L61.8312 159.899L69.79 139.856H132.134L140.093 159.899ZM100.962 62.1001L121.467 113.9H80.4572L100.962 62.1001ZM31.3229 133.999L25.9619 45.6183L83.165 18.111L31.3229 133.999Z" fill="#F5F5F5"/>
</g>
<defs>
<clipPath id="clip0_616_22220">
<rect width="150" height="165" fill="white" transform="translate(25.9619 18.111)"/>
</clipPath>
</defs>
</svg>
