<svg width="32" height="32" viewBox="0 0 32 32" fill="none" xmlns="http://www.w3.org/2000/svg">
<path d="M10.2453 13.9111C10.2385 14.1664 10.2699 14.4212 10.3383 14.6671C10.4138 14.8772 10.5047 15.0814 10.6103 15.2781C10.6488 15.3377 10.6693 15.4072 10.6693 15.4781C10.6642 15.5302 10.647 15.5804 10.619 15.6247C10.591 15.669 10.5531 15.7061 10.5083 15.7331L9.97328 16.0901C9.90863 16.1365 9.83179 16.163 9.75228 16.1661C9.65546 16.1595 9.56457 16.1171 9.49728 16.0471C9.38271 15.9239 9.28024 15.79 9.19128 15.6471C9.10628 15.5031 9.02128 15.3411 8.92828 15.1471C8.62858 15.5202 8.24748 15.8198 7.81416 16.023C7.38084 16.2261 6.90678 16.3274 6.42828 16.3191C6.11849 16.3358 5.8085 16.2903 5.51654 16.1854C5.22459 16.0805 4.95658 15.9182 4.72828 15.7081C4.51693 15.4944 4.35204 15.2393 4.24397 14.9588C4.1359 14.6783 4.08698 14.3784 4.10028 14.0781C4.08818 13.7471 4.15148 13.4176 4.2854 13.1146C4.41931 12.8116 4.62033 12.543 4.87328 12.3291C5.46295 11.8627 6.20249 11.6273 6.95328 11.6671C7.25447 11.6696 7.55514 11.6923 7.85328 11.7351C8.16728 11.7771 8.49028 11.8451 8.82928 11.9221V11.3021C8.87788 10.8147 8.73437 10.3274 8.42928 9.94413C8.03443 9.64259 7.53955 9.50278 7.04528 9.55313C6.73632 9.553 6.42845 9.58993 6.12828 9.66313C5.81615 9.7376 5.50971 9.83417 5.21128 9.95213C5.1138 9.99533 5.01358 10.0321 4.91128 10.0621C4.86726 10.0765 4.82152 10.0849 4.77528 10.0871C4.65628 10.0871 4.59728 10.0021 4.59728 9.82413V9.40313C4.58746 9.29953 4.60796 9.19531 4.65628 9.10313C4.72406 9.02501 4.80988 8.9646 4.90628 8.92713C5.24689 8.75864 5.60598 8.63044 5.97628 8.54513C6.40909 8.4342 6.8545 8.38008 7.30128 8.38413C8.10418 8.31557 8.90222 8.56233 9.52628 9.07213C9.77767 9.35522 9.96926 9.68619 10.0896 10.0452C10.2098 10.4041 10.2563 10.7837 10.2263 11.1611V13.9111H10.2453ZM6.79828 15.2021C7.09631 15.1989 7.39182 15.1472 7.67328 15.0491C7.98501 14.9416 8.2632 14.7544 8.48028 14.5061C8.61718 14.3498 8.71608 14.164 8.76928 13.9631C8.82768 13.7212 8.85623 13.473 8.85428 13.2241V12.8671C8.59684 12.8046 8.3361 12.7565 8.07328 12.7231C7.80794 12.6894 7.54075 12.6724 7.27328 12.6721C6.82453 12.636 6.37705 12.7558 6.00628 13.0111C5.86575 13.1302 5.75495 13.2804 5.68273 13.4499C5.61051 13.6193 5.57885 13.8033 5.59028 13.9871C5.57242 14.1502 5.59126 14.3152 5.64543 14.4701C5.6996 14.625 5.78773 14.7658 5.90336 14.8821C6.01898 14.9985 6.15918 15.0876 6.31368 15.1428C6.46819 15.198 6.63308 15.2179 6.79628 15.2011L6.79828 15.2021ZM13.6163 16.1191C13.5019 16.1309 13.3871 16.1007 13.2933 16.0341C13.2045 15.9423 13.1429 15.8278 13.1153 15.7031L11.1153 9.14013C11.0767 9.03017 11.0512 8.91605 11.0393 8.80013C11.0353 8.7724 11.0376 8.74411 11.046 8.71739C11.0545 8.69067 11.0688 8.6662 11.0881 8.64581C11.1073 8.62543 11.1309 8.60965 11.1571 8.59967C11.1833 8.58968 11.2114 8.58574 11.2393 8.58813H12.0713C12.1884 8.57403 12.3065 8.60436 12.4023 8.67313C12.4878 8.76611 12.5465 8.88048 12.5723 9.00413L14.0063 14.6251L15.3313 9.00413C15.3489 8.87966 15.4053 8.76388 15.4923 8.67313C15.5942 8.61066 15.7129 8.58099 15.8323 8.58813H16.5063C16.6261 8.5755 16.7465 8.60561 16.8463 8.67313C16.935 8.76272 16.9915 8.87908 17.0073 9.00413L18.3493 14.6931L19.8183 9.00413C19.8453 8.88094 19.9039 8.76688 19.9883 8.67313C20.0869 8.61063 20.2027 8.58088 20.3193 8.58813H21.1093C21.138 8.58436 21.1672 8.58725 21.1947 8.59657C21.2221 8.60589 21.247 8.62139 21.2675 8.64188C21.288 8.66237 21.3035 8.6873 21.3128 8.71475C21.3222 8.74219 21.3251 8.7714 21.3213 8.80013C21.3193 8.84585 21.3136 8.89134 21.3043 8.93613C21.2911 9.00845 21.2714 9.07941 21.2453 9.14813L19.2063 15.7111C19.1808 15.8366 19.1189 15.9517 19.0283 16.0421C18.9322 16.1037 18.8192 16.1334 18.7053 16.1271H17.9753C17.8555 16.1398 17.7351 16.1097 17.6353 16.0421C17.5466 15.949 17.4901 15.8298 17.4743 15.7021L16.1543 10.2261L14.8473 15.6941C14.8276 15.8206 14.7717 15.9387 14.6863 16.0341C14.586 16.1005 14.466 16.1305 14.3463 16.1191H13.6163ZM24.5263 16.3481C24.0858 16.3486 23.6468 16.2972 23.2183 16.1951C22.8792 16.126 22.5509 16.0117 22.2423 15.8551C22.133 15.8035 22.0415 15.7207 21.9793 15.6171C21.9462 15.5421 21.9288 15.4611 21.9283 15.3791V14.9471C21.9283 14.7691 21.9963 14.6841 22.1283 14.6841C22.1803 14.6841 22.232 14.6926 22.2813 14.7091C22.3323 14.7261 22.4083 14.7601 22.4933 14.7941C22.7931 14.927 23.1062 15.0276 23.4273 15.0941C23.7598 15.161 24.0981 15.1945 24.4373 15.1941C24.8688 15.2196 25.2986 15.1226 25.6773 14.9141C25.8157 14.8307 25.9296 14.7121 26.0072 14.5703C26.0849 14.4285 26.1235 14.2687 26.1193 14.1071C26.1222 13.9979 26.1035 13.8892 26.0642 13.7872C26.0249 13.6853 25.9658 13.5921 25.8903 13.5131C25.6419 13.3021 25.3483 13.1509 25.0323 13.0711L23.7963 12.6891C23.2631 12.5521 22.7874 12.2488 22.4383 11.8231C22.1648 11.4709 22.0154 11.0381 22.0133 10.5921C22.0064 10.2636 22.0853 9.93888 22.2423 9.65013C22.3934 9.37566 22.6017 9.13692 22.8533 8.95013C23.1179 8.74977 23.4173 8.59994 23.7363 8.50813C24.0841 8.40909 24.4446 8.36158 24.8063 8.36713C24.9965 8.36576 25.1866 8.37712 25.3753 8.40113C25.5753 8.42613 25.7493 8.46013 25.9273 8.49413C26.1053 8.52813 26.2583 8.57913 26.4113 8.63013C26.5353 8.66849 26.655 8.71977 26.7683 8.78313C26.8683 8.83342 26.9556 8.90594 27.0233 8.99513C27.0783 9.07777 27.105 9.17603 27.0993 9.27513V9.67513C27.0993 9.85313 27.0313 9.94713 26.8993 9.94713C26.7862 9.93492 26.6765 9.90096 26.5763 9.84713C26.0632 9.62039 25.5071 9.50747 24.9463 9.51613C24.5554 9.49322 24.1656 9.5754 23.8173 9.75413C23.6875 9.83114 23.5815 9.94246 23.5109 10.0759C23.4403 10.2092 23.4079 10.3595 23.4173 10.5101C23.4153 10.6224 23.437 10.7339 23.4809 10.8373C23.5248 10.9407 23.59 11.0336 23.6723 11.1101C23.9478 11.3289 24.2659 11.4879 24.6063 11.5771L25.8123 11.9591C26.324 12.0898 26.7833 12.3743 27.1283 12.7741C27.39 13.1163 27.5291 13.5364 27.5233 13.9671C27.5276 14.3082 27.4519 14.6456 27.3023 14.9521C27.1516 15.2427 26.9401 15.4975 26.6823 15.6991C26.4021 15.9171 26.0821 16.0784 25.7403 16.1741C25.3468 16.2936 24.9374 16.3523 24.5263 16.3481Z" fill="#F5F5F5"/>
<path fill-rule="evenodd" clip-rule="evenodd" d="M26.1302 20.4742C23.0794 22.5441 19.4749 23.6451 15.7882 23.6332C11.1268 23.6575 6.6242 21.9407 3.16222 18.8192C2.89922 18.5812 3.13722 18.2592 3.45122 18.4452C6.80468 20.3794 10.5604 21.5109 14.4243 21.751C18.2881 21.9911 22.1551 21.3333 25.7222 19.8292C26.1902 19.6162 26.5892 20.1342 26.1302 20.4742Z" fill="#FF9900"/>
<path fill-rule="evenodd" clip-rule="evenodd" d="M27.2943 19.1502C26.9373 18.6922 24.9343 18.9292 24.0253 19.0402C23.7533 19.0742 23.7114 18.8402 23.9574 18.6582C25.5574 17.5372 28.1774 17.8582 28.4823 18.2332C28.7873 18.6082 28.3974 21.2392 26.9034 22.4952C26.6744 22.6952 26.4533 22.5882 26.5553 22.3342C26.8953 21.4922 27.6503 19.6002 27.2943 19.1502Z" fill="#FF9900"/>
</svg>
