<svg width="201" height="201" viewBox="0 0 201 201" fill="none" xmlns="http://www.w3.org/2000/svg">
<path d="M73.9856 90.8194C73.954 92.0157 74.1009 93.2101 74.4215 94.3631C74.7756 95.3478 75.2018 96.3051 75.6965 97.2272C75.8769 97.5066 75.973 97.8321 75.9731 98.1647C75.9491 98.409 75.8684 98.6442 75.7374 98.8518C75.6064 99.0593 75.4286 99.2333 75.2184 99.36L72.7106 101.033C72.4075 101.251 72.0474 101.375 71.6747 101.39C71.2208 101.359 70.7948 101.16 70.4793 100.832C69.9423 100.254 69.4619 99.6264 69.045 98.9569C68.6465 98.2819 68.2481 97.5225 67.8122 96.6131C66.4073 98.3621 64.6209 99.7664 62.5897 100.719C60.5585 101.671 58.3364 102.146 56.0934 102.107C54.6413 102.185 53.1882 101.972 51.8196 101.48C50.4511 100.988 49.1948 100.228 48.1247 99.2428C47.1339 98.2409 46.361 97.0449 45.8545 95.7301C45.3479 94.4152 45.1186 93.0099 45.1809 91.6022C45.1242 90.0504 45.4209 88.506 46.0486 87.0858C46.6764 85.6655 47.6187 84.4064 48.8044 83.4037C51.5684 81.2173 55.035 80.114 58.5544 80.3006C59.9662 80.3122 61.3756 80.4187 62.7731 80.6194C64.245 80.8162 65.759 81.135 67.3481 81.4959V78.5897C67.5759 76.3046 66.9032 74.0208 65.4731 72.2241C63.6222 70.8106 61.3025 70.1552 58.9856 70.3913C57.5373 70.3906 56.0942 70.5637 54.6872 70.9069C53.224 71.2559 51.7876 71.7086 50.3887 72.2616C49.9318 72.464 49.462 72.6363 48.9825 72.7772C48.7761 72.8444 48.5617 72.8838 48.345 72.8944C47.7872 72.8944 47.5106 72.4959 47.5106 71.6616V69.6881C47.4646 69.2025 47.5607 68.7139 47.7872 68.2819C48.1049 67.9157 48.5071 67.6325 48.959 67.4569C50.5556 66.6671 52.2389 66.0661 53.9747 65.6663C56.0035 65.1462 58.0913 64.8925 60.1856 64.9116C63.9492 64.5901 67.69 65.7469 70.6153 68.1366C71.7937 69.4635 72.6918 71.015 73.2556 72.6977C73.8195 74.3804 74.0375 76.1597 73.8965 77.9288V90.8194H73.9856ZM57.8278 96.8709C59.2248 96.8556 60.61 96.6133 61.9294 96.1537C63.3906 95.6495 64.6946 94.772 65.7122 93.6084C66.3539 92.8757 66.8175 92.0046 67.0669 91.0631C67.3406 89.929 67.4744 88.7657 67.4653 87.5991V85.9256C66.2585 85.6324 65.0363 85.4071 63.8043 85.2506C62.5606 85.0927 61.3081 85.0128 60.0544 85.0116C57.9508 84.8423 55.8533 85.4036 54.1153 86.6006C53.4565 87.1588 52.9372 87.863 52.5987 88.6573C52.2601 89.4515 52.1117 90.3139 52.1653 91.1756C52.0816 91.9401 52.1699 92.7136 52.4238 93.4396C52.6777 94.1655 53.0908 94.8254 53.6328 95.371C54.1748 95.9166 54.832 96.334 55.5562 96.5928C56.2805 96.8515 57.0534 96.9449 57.8184 96.8662L57.8278 96.8709ZM89.7872 101.169C89.2509 101.225 88.7127 101.083 88.2731 100.771C87.8572 100.341 87.5684 99.8036 87.4387 99.2194L78.0637 68.4553C77.8829 67.9399 77.7634 67.4049 77.7075 66.8616C77.6886 66.7316 77.6994 66.599 77.739 66.4737C77.7786 66.3484 77.846 66.2337 77.9361 66.1382C78.0263 66.0426 78.1369 65.9687 78.2596 65.9219C78.3823 65.875 78.5141 65.8566 78.645 65.8678H82.545C83.0938 65.8017 83.6475 65.9439 84.0965 66.2663C84.4973 66.7021 84.7726 67.2382 84.8934 67.8178L91.6153 94.1662L97.8262 67.8178C97.909 67.2343 98.173 66.6916 98.5809 66.2663C99.0588 65.9734 99.6152 65.8343 100.175 65.8678H103.334C103.896 65.8086 104.46 65.9497 104.928 66.2663C105.343 66.6862 105.609 67.2316 105.682 67.8178L111.973 94.485L118.859 67.8178C118.986 67.2403 119.26 66.7057 119.656 66.2663C120.118 65.9733 120.661 65.8338 121.207 65.8678H124.911C125.045 65.8501 125.182 65.8636 125.311 65.9073C125.439 65.951 125.556 66.0237 125.652 66.1198C125.748 66.2158 125.821 66.3327 125.865 66.4613C125.909 66.5899 125.922 66.7269 125.904 66.8616C125.895 67.0759 125.868 67.2891 125.825 67.4991C125.763 67.838 125.67 68.1707 125.548 68.4928L115.99 99.2569C115.871 99.8448 115.581 100.385 115.156 100.808C114.706 101.097 114.176 101.236 113.642 101.207H110.22C109.658 101.266 109.094 101.125 108.626 100.808C108.21 100.372 107.946 99.8131 107.872 99.2147L101.684 73.5459L95.5575 99.1772C95.4651 99.7702 95.203 100.324 94.8028 100.771C94.3327 101.082 93.7702 101.223 93.209 101.169H89.7872ZM140.928 102.243C138.863 102.245 136.805 102.004 134.797 101.526C133.207 101.202 131.668 100.666 130.222 99.9319C129.709 99.6898 129.281 99.3017 128.989 98.8162C128.834 98.4646 128.752 98.0849 128.75 97.7006V95.6756C128.75 94.8412 129.068 94.4428 129.687 94.4428C129.931 94.4428 130.173 94.4824 130.404 94.56C130.643 94.6397 131 94.7991 131.398 94.9584C132.803 95.5813 134.271 96.0527 135.776 96.3647C137.335 96.678 138.921 96.835 140.511 96.8334C142.533 96.953 144.548 96.498 146.323 95.5209C146.972 95.1299 147.506 94.5738 147.87 93.9093C148.234 93.2447 148.415 92.4955 148.395 91.7381C148.409 91.2261 148.321 90.7164 148.137 90.2385C147.953 89.7606 147.676 89.3239 147.322 88.9537C146.157 87.9645 144.781 87.2557 143.3 86.8819L137.506 85.0912C135.007 84.449 132.777 83.0271 131.14 81.0319C129.858 79.3806 129.158 77.352 129.148 75.2616C129.116 73.7214 129.486 72.1995 130.222 70.8459C130.93 69.5593 131.907 68.4402 133.086 67.5647C134.326 66.6255 135.729 65.9231 137.225 65.4928C138.855 65.0285 140.545 64.8059 142.24 64.8319C143.132 64.8254 144.023 64.8787 144.907 64.9913C145.845 65.1084 146.661 65.2678 147.495 65.4272C148.329 65.5866 149.047 65.8256 149.764 66.0647C150.345 66.2445 150.906 66.4849 151.437 66.7819C151.906 67.0176 152.315 67.3575 152.632 67.7756C152.89 68.163 153.015 68.6236 152.989 69.0881V70.9631C152.989 71.7975 152.67 72.2381 152.051 72.2381C151.521 72.1809 151.007 72.0217 150.537 71.7694C148.132 70.7065 145.526 70.1772 142.897 70.2178C141.064 70.1104 139.237 70.4956 137.604 71.3334C136.996 71.6944 136.499 72.2162 136.168 72.8415C135.837 73.4667 135.686 74.1712 135.729 74.8772C135.72 75.4036 135.822 75.9261 136.028 76.4107C136.233 76.8953 136.539 77.3311 136.925 77.6897C138.216 78.7152 139.707 79.4607 141.303 79.8787L146.956 81.6694C149.354 82.282 151.508 83.6153 153.125 85.4897C154.351 87.0934 155.003 89.0629 154.976 91.0819C154.996 92.6807 154.642 94.2621 153.94 95.6991C153.234 97.0611 152.243 98.2553 151.034 99.2006C149.72 100.222 148.221 100.978 146.618 101.427C144.774 101.987 142.855 102.262 140.928 102.243Z" fill="#F5F5F5"/>
<path fill-rule="evenodd" clip-rule="evenodd" d="M148.447 121.583C134.146 131.286 117.25 136.447 99.9685 136.391C78.1181 136.505 57.0122 128.458 40.7841 113.826C39.5513 112.71 40.6669 111.201 42.1388 112.072C57.8581 121.139 75.4633 126.443 93.5751 127.569C111.687 128.694 129.813 125.611 146.534 118.56C148.728 117.562 150.598 119.99 148.447 121.583Z" fill="#F5F5F5"/>
<path fill-rule="evenodd" clip-rule="evenodd" d="M153.903 115.377C152.229 113.23 142.84 114.341 138.579 114.862C137.304 115.021 137.107 113.924 138.26 113.071C145.76 107.816 158.042 109.321 159.471 111.079C160.901 112.837 159.073 125.169 152.07 131.057C150.996 131.994 149.96 131.493 150.439 130.302C152.032 126.355 155.571 117.487 153.903 115.377Z" fill="#F5F5F5"/>
</svg>
