<svg width="201" height="201" viewBox="0 0 201 201" fill="none" xmlns="http://www.w3.org/2000/svg">
<path fill-rule="evenodd" clip-rule="evenodd" d="M57.1174 40.8691C48.5586 40.8691 42.2255 48.3599 42.5091 56.4834C42.7812 64.2878 42.4276 74.3958 39.8829 82.6388C37.3291 90.9049 33.0131 96.1432 25.9619 96.8155V104.406C33.0131 105.08 37.3291 110.316 39.8826 118.583C42.4276 126.826 42.781 136.934 42.5088 144.739C42.2252 152.861 48.5583 160.353 57.1186 160.353H144.818C153.377 160.353 159.709 152.862 159.425 144.739C159.153 136.934 159.506 126.826 162.051 118.583C164.605 110.316 168.91 105.078 175.962 104.406V96.8155C168.911 96.1417 164.605 90.9061 162.051 82.6388C159.506 74.3969 159.153 64.2878 159.425 56.4834C159.709 48.361 153.377 40.8691 144.818 40.8691H57.1162H57.1174ZM127.657 114.419C127.657 125.605 119.313 132.389 105.466 132.389H81.894C81.2198 132.389 80.5731 132.121 80.0963 131.644C79.6195 131.167 79.3517 130.521 79.3517 129.846V71.3757C79.3517 70.7015 79.6195 70.0549 80.0963 69.5781C80.5731 69.1014 81.2198 68.8335 81.894 68.8335H105.332C116.878 68.8335 124.455 75.0874 124.455 84.6891C124.455 91.4284 119.358 97.4617 112.863 98.5187V98.8702C121.704 99.8399 127.657 105.963 127.657 114.419ZM102.896 76.8923H89.4553V95.8754H100.775C109.526 95.8754 114.351 92.3518 114.351 86.0537C114.351 80.1513 110.202 76.8923 102.896 76.8923ZM89.4553 103.407V124.327H103.39C112.501 124.327 117.327 120.672 117.327 113.801C117.327 106.931 112.366 103.406 102.804 103.406H89.4553V103.407Z" fill="#F5F5F5"/>
</svg>
