<svg width="32" height="32" viewBox="0 0 32 32" fill="none" xmlns="http://www.w3.org/2000/svg">
<path fill-rule="evenodd" clip-rule="evenodd" d="M8.98488 6.44067C7.61546 6.44067 6.60217 7.63925 6.64753 8.93911C6.69105 10.1879 6.63451 11.8053 6.22732 13.1243C5.81892 14.4471 5.1282 15.2851 4 15.3927V16.6073C5.1282 16.7149 5.81892 17.5529 6.22732 18.8757C6.63451 20.1947 6.69105 21.8121 6.64753 23.0609C6.60217 24.3605 7.61546 25.5593 8.98508 25.5593H23.0169C24.3864 25.5593 25.3995 24.3607 25.3541 23.0609C25.3106 21.8121 25.3671 20.1947 25.7743 18.8757C26.1829 17.5529 26.8718 16.7149 28 16.6073V15.3927C26.8718 15.2851 26.1829 14.4471 25.7743 13.1243C25.3671 11.8055 25.3106 10.1879 25.3541 8.93911C25.3995 7.63945 24.3864 6.44067 23.0169 6.44067H8.98468H8.98488ZM20.2712 18.2094C20.2712 19.9993 18.9361 21.0847 16.7206 21.0847H12.9492C12.8413 21.0847 12.7378 21.0419 12.6615 20.9656C12.5852 20.8893 12.5424 20.7858 12.5424 20.678V11.322C12.5424 11.2141 12.5852 11.1107 12.6615 11.0344C12.7378 10.9581 12.8413 10.9153 12.9492 10.9153H16.6991C18.5464 10.9153 19.7588 11.9159 19.7588 13.4523C19.7588 14.5307 18.9433 15.4962 17.9041 15.6652V15.7216C19.3187 15.8767 20.2712 16.8563 20.2712 18.2094ZM16.3094 12.2047H14.1589V15.2422H15.9701C17.3702 15.2422 18.1423 14.6784 18.1423 13.6706C18.1423 12.7262 17.4784 12.2047 16.3094 12.2047ZM14.1589 16.4475V19.7948H16.3885C17.8462 19.7948 18.6184 19.2099 18.6184 18.1106C18.6184 17.011 17.8246 16.4473 16.2947 16.4473L14.1589 16.4475Z" fill="url(#paint0_linear_271_17538)"/>
<defs>
<linearGradient id="paint0_linear_271_17538" x1="16" y1="6.44067" x2="16" y2="25.5593" gradientUnits="userSpaceOnUse">
<stop stop-color="#712CF9"/>
<stop offset="1" stop-color="#4C0BCE"/>
</linearGradient>
</defs>
</svg>
