<svg width="201" height="201" viewBox="0 0 201 201" fill="none" xmlns="http://www.w3.org/2000/svg">
<path d="M179.912 109.975C179.671 109.975 179.43 110.135 179.27 110.535C177.666 115.178 175.421 117.979 173.576 117.979C172.534 117.979 172.133 116.778 172.133 115.017C172.133 110.455 174.859 100.771 176.223 96.289C176.383 95.7287 176.463 95.2485 176.463 94.8483C176.463 93.5677 175.741 92.9275 173.977 92.9275C172.133 92.9275 170.047 93.6478 168.123 97.0893C167.481 94.048 165.396 92.7674 162.509 92.7674C159.221 92.7674 156.013 94.9284 153.367 98.3699C150.72 101.811 147.592 102.932 145.267 102.372C146.951 98.2899 147.592 95.1685 147.592 92.9275C147.592 89.3258 145.828 87.1648 142.941 87.1648C138.61 87.1648 136.124 91.3267 136.124 95.6487C136.124 99.0102 137.648 102.452 141.016 104.133C138.209 110.455 134.119 116.218 132.515 116.218C130.511 116.218 129.869 106.374 130.029 99.3304C130.11 95.3285 130.43 95.0884 130.43 93.8879C130.43 93.1676 129.949 92.6873 128.105 92.6873C123.854 92.6873 122.491 96.289 122.33 100.451C122.25 102.052 122.01 103.572 121.609 105.093C119.844 111.416 116.155 116.298 113.749 116.298C112.627 116.298 112.306 115.178 112.306 113.737C112.306 109.175 114.872 103.412 114.872 98.53C114.872 94.9284 113.268 92.6873 110.301 92.6873C106.772 92.6873 102.201 96.8492 97.7903 104.613C99.2338 98.6901 99.7952 92.9275 95.5448 92.9275C94.5824 92.9275 93.7003 93.1676 92.8983 93.6478C92.3369 93.8879 92.0161 94.4481 92.0161 95.0884C92.4171 101.411 86.8836 117.659 81.6708 117.659C80.7084 117.659 80.2272 116.618 80.2272 114.937C80.2272 110.375 82.9539 100.691 84.3173 96.2089C84.4777 95.6487 84.5579 95.1685 84.5579 94.6882C84.5579 93.4877 83.8361 92.8474 82.0718 92.8474C80.2272 92.8474 78.1421 93.5677 76.2174 97.0093C75.4956 93.9679 73.4907 92.6873 70.6036 92.6873C65.872 92.6873 60.6593 97.6496 58.3335 104.133C55.2059 112.776 49.0307 121.18 40.6101 121.18C32.9914 121.18 28.9816 114.857 28.9816 104.853C28.9816 90.3663 39.6477 78.601 47.507 78.601C51.2762 78.601 53.0406 81.002 53.0406 84.6837C53.0406 89.1657 50.5545 91.1667 50.5545 92.9275C50.5545 93.4077 50.9555 93.9679 51.8376 93.9679C55.2861 93.9679 59.2959 89.9661 59.2959 84.4436C59.2959 78.9211 54.9653 74.9993 47.106 74.9993C34.034 74.9993 20.9619 88.0452 20.9619 104.853C20.9619 118.219 27.538 126.223 38.926 126.223C46.705 126.223 53.5218 120.22 57.1306 113.177C57.5316 119.019 60.1781 122.061 64.2681 122.061C67.877 122.061 70.764 119.9 73.0095 116.138C73.8917 120.06 76.1372 121.981 79.1045 121.981C82.4727 121.981 85.3598 119.82 88.0063 115.898C88.0063 119.019 88.6479 121.981 91.3746 121.981C92.6577 121.981 94.1814 121.66 94.422 120.54C97.3091 108.775 104.366 99.0902 106.532 99.0902C107.173 99.0902 107.334 99.7305 107.334 100.451C107.334 103.652 105.088 110.215 105.088 114.377C105.088 118.939 107.013 121.901 111.023 121.901C115.434 121.901 119.925 116.538 122.892 108.615C123.854 115.978 125.859 121.901 128.987 121.901C132.836 121.901 139.813 113.737 143.984 105.093C145.588 105.333 148.074 105.253 150.48 103.572C149.437 106.133 148.876 108.935 148.876 111.656C148.876 119.66 152.725 121.901 156.013 121.901C159.622 121.901 162.509 119.74 164.755 115.978C165.476 119.339 167.401 121.821 170.849 121.821C176.223 121.821 180.954 116.298 180.954 111.736C181.034 110.776 180.473 109.975 179.912 109.975ZM67.6364 117.579C65.4711 117.579 64.5889 115.418 64.5889 112.136C64.5889 106.454 68.5185 96.9293 72.6086 96.9293C74.3729 96.9293 75.0947 99.0102 75.0947 101.651C75.0947 107.414 71.4056 117.579 67.6364 117.579ZM142.46 100.611C141.177 99.0902 140.696 96.9293 140.696 95.0884C140.696 92.7674 141.578 90.8465 142.54 90.8465C143.502 90.8465 143.903 91.8069 143.903 93.2476C143.823 95.4886 143.021 98.9302 142.46 100.611ZM159.381 117.579C157.216 117.579 156.334 115.017 156.334 112.136C156.334 106.614 160.263 96.9293 164.354 96.9293C166.118 96.9293 166.759 99.0102 166.759 101.651C166.84 107.414 163.231 117.579 159.381 117.579Z" fill="#F5F5F5"/>
</svg>
