<svg width="32" height="32" viewBox="0 0 32 32" fill="none" xmlns="http://www.w3.org/2000/svg">
<path d="M7.3448 25.6009L5.41895 4H26.5809L24.653 25.5975L15.987 28L7.3448 25.6009Z" fill="#264DE4"/>
<path d="M23.0026 24.2222L24.6501 5.76611H16V26.1636L23.0026 24.2222Z" fill="#2965F1"/>
<path d="M9.83407 13.7777L10.0715 16.4269H16V13.7777H9.83407ZM9.59778 11.0648H16V8.41553H9.35693L9.59778 11.0648ZM16 20.6581L15.9884 20.6612L13.0379 19.8645L12.8493 17.7516H10.1898L10.561 21.9113L15.9878 23.4179L16 23.4144V20.6581Z" fill="#EBEBEB"/>
<path d="M15.9907 13.7777V16.4269H19.253L18.9455 19.8628L15.9907 20.6603V23.4166L21.4218 21.9113L21.4617 21.4637L22.0842 14.4891L22.1489 13.7777L22.6271 8.41553H15.9907V11.0648H19.7238L19.4827 13.7777H15.9907Z" fill="white"/>
</svg>
