<svg width="201" height="201" viewBox="0 0 201 201" fill="none" xmlns="http://www.w3.org/2000/svg">
<g clip-path="url(#clip0_616_22294)">
<path d="M47.3223 55.1458L57.3785 163.896L100.96 175.611L144.541 163.896L154.601 55.1458H47.3223ZM133 90.3911L100.922 104.082L100.848 104.114H131.868L128.319 144.84L100.973 152.808L100.922 152.792L73.4724 144.693L71.6998 124.183H85.25L86.1395 134.805L100.774 138.494L100.797 138.488L100.822 138.494L100.922 138.465L116.049 134.218L117.086 117.1L100.922 117.049L70.8103 116.953V116.934L69.7769 104.114H69.7289L100.922 91.148L102.742 90.3911H68.545L66.9196 77.2588H134.331L133 90.3911ZM85.6883 39.1679V45.6319H69.1306V25.6108H85.6883V32.6944H76.2272V39.1679H85.6883ZM102.707 32.6944H109.32V25.6108H92.7626V32.6944C94.9767 34.9044 96.1318 35.9647 99.3377 39.1616C97.466 39.1616 92.7626 39.1679 92.7626 39.1679V45.6287H109.32V39.1647L102.707 32.6912V32.6944ZM126.179 32.6944H132.792V25.6108H116.231V32.6944C118.446 34.9044 119.604 35.9647 122.807 39.1616C120.935 39.1616 116.231 39.1679 116.231 39.1679V45.6287H132.792V39.1647L126.179 32.6912V32.6944Z" fill="#F5F5F5"/>
</g>
<defs>
<clipPath id="clip0_616_22294">
<rect width="107.278" height="150" fill="white" transform="translate(47.3223 25.6108)"/>
</clipPath>
</defs>
</svg>
