<svg width="32" height="32" viewBox="0 0 32 32" fill="none" xmlns="http://www.w3.org/2000/svg">
<path d="M26.9411 16.5171C26.9429 15.6293 26.6706 14.7625 26.1614 14.0351C25.6522 13.3078 24.931 12.7553 24.0961 12.4531C24.1713 12.066 24.2082 11.6724 24.2061 11.2781C24.2055 9.97115 23.7902 8.69809 23.0201 7.64211C22.2482 6.58525 21.1639 5.79752 19.9201 5.39011C18.6759 4.98906 17.3365 4.99314 16.0948 5.40179C14.8531 5.81043 13.773 6.60255 13.0101 7.66411C12.4479 7.22505 11.7574 6.98202 11.0441 6.97211C10.511 6.96562 9.98431 7.089 9.50952 7.33158C9.03474 7.57416 8.62614 7.92865 8.319 8.36446C8.01185 8.80027 7.8154 9.30429 7.74661 9.833C7.67781 10.3617 7.73874 10.8992 7.92413 11.3991C7.08585 11.7059 6.36145 12.2618 5.84813 12.9921C5.33246 13.7214 5.05606 14.5929 5.05713 15.4861C5.05902 16.3772 5.33097 17.2467 5.83713 17.9801C6.35107 18.7073 7.07563 19.2595 7.91313 19.5621C7.83794 19.9492 7.80109 20.3428 7.80313 20.7371C7.80184 22.0438 8.21549 23.3171 8.98445 24.3736C9.7534 25.43 10.8379 26.215 12.0818 26.6154C13.3256 27.0158 14.6644 27.0109 15.9052 26.6015C17.1461 26.192 18.2249 25.3991 18.9861 24.3371C19.5492 24.7763 20.2404 25.0194 20.9544 25.0294C21.6684 25.0393 22.3661 24.8155 22.9411 24.3921C23.5156 23.9696 23.9391 23.3736 24.1491 22.6921C24.3583 22.0083 24.3351 21.2744 24.0831 20.6051C24.9207 20.2996 25.6451 19.7456 26.1591 19.0171C26.6558 18.2791 26.9268 17.4125 26.9391 16.5231" fill="white"/>
<path d="M13.6503 14.4871L18.4393 16.6731L23.2723 12.4331C23.3387 12.0816 23.3722 11.7247 23.3723 11.3671C23.3694 10.2125 22.9996 9.08873 22.3163 8.15807C21.635 7.228 20.672 6.54241 19.5703 6.20307C18.4688 5.86402 17.2881 5.88328 16.1983 6.25808C15.1095 6.63507 14.1702 7.35109 13.5182 8.30108L12.7183 12.4641L13.6503 14.4871Z" fill="#FEC514"/>
<path d="M8.68422 19.5611C8.61442 19.9159 8.5776 20.2765 8.57422 20.6381C8.57696 21.7956 8.9463 22.9225 9.62923 23.8571C10.1449 24.5524 10.8195 25.1142 11.5965 25.4957C12.3736 25.8772 13.2306 26.0672 14.0961 26.05C14.9616 26.0328 15.8104 25.8088 16.5717 25.3967C17.333 24.9846 17.9846 24.3963 18.4722 23.6811L19.2722 19.5291L18.2082 17.4991L13.3972 15.2991L8.68422 19.5611Z" fill="#00BFB3"/>
<path d="M8.66202 11.2681L11.947 12.0481L12.661 8.31315C12.2162 7.97283 11.6721 7.7877 11.112 7.78614C10.5517 7.78497 10.0054 7.96181 9.55202 8.29114C9.09972 8.62274 8.76805 9.09293 8.60741 9.63027C8.44677 10.1676 8.46593 10.7427 8.66202 11.2681Z" fill="#F04E98"/>
<path d="M8.37729 12.0481C7.84395 12.2253 7.3591 12.524 6.96104 12.9207C6.56298 13.3174 6.26262 13.8013 6.08368 14.334C5.90474 14.8668 5.85212 15.4339 5.92997 15.9904C6.00783 16.547 6.21403 17.0779 6.53229 17.5411C6.95058 18.1434 7.54 18.6064 8.22429 18.8701L12.8243 14.7071L11.9783 12.8941L8.37729 12.0481Z" fill="#1BA9F5"/>
<path d="M19.3184 23.6923C19.763 24.0312 20.3056 24.2166 20.8647 24.2206C21.4237 24.2245 21.969 24.0468 22.4184 23.7143C22.8692 23.3813 23.2004 22.9116 23.3626 22.3752C23.5247 21.8387 23.5092 21.2642 23.3184 20.7373L20.0334 19.9683L19.3184 23.6923Z" fill="#93C90E"/>
<path d="M19.9883 19.1112L23.6022 19.9572C24.1356 19.7801 24.6205 19.4814 25.0185 19.0846C25.4166 18.6879 25.7169 18.204 25.8959 17.6713C26.0748 17.1385 26.1274 16.5715 26.0496 16.0149C25.9717 15.4583 25.7655 14.9274 25.4473 14.4642C25.029 13.8618 24.4396 13.3989 23.7552 13.1353L19.0312 17.2762L19.9883 19.1112Z" fill="#0077CC"/>
</svg>
