<svg width="32" height="32" viewBox="0 0 32 32" fill="none" xmlns="http://www.w3.org/2000/svg">
<path d="M12.3376 8.70197C8.99165 8.09297 6.34665 8.73098 5.29265 10.556C4.50565 11.919 4.73065 13.725 5.83765 15.656C5.86004 15.6954 5.88997 15.73 5.92573 15.7578C5.96149 15.7856 6.00239 15.8061 6.04608 15.8182C6.08977 15.8302 6.1354 15.8335 6.18036 15.8279C6.22533 15.8223 6.26875 15.8079 6.30815 15.7855C6.34754 15.7631 6.38214 15.7332 6.40997 15.6974C6.4378 15.6616 6.45831 15.6207 6.47034 15.577C6.48236 15.5334 6.48567 15.4877 6.48006 15.4428C6.47445 15.3978 6.46004 15.3544 6.43765 15.315C5.43765 13.576 5.24565 12.015 5.89165 10.899C6.76765 9.38198 9.12665 8.81298 12.2196 9.37698C12.264 9.38505 12.3094 9.38432 12.3535 9.37482C12.3975 9.36532 12.4393 9.34724 12.4763 9.32161C12.5134 9.29598 12.545 9.2633 12.5694 9.22545C12.5938 9.18759 12.6106 9.1453 12.6186 9.10097C12.6267 9.05665 12.626 9.01118 12.6165 8.96714C12.607 8.9231 12.5889 8.88136 12.5633 8.84431C12.5377 8.80726 12.505 8.77563 12.4671 8.7512C12.4293 8.72678 12.387 8.71005 12.3426 8.70197H12.3376ZM7.57765 18.002C9.06726 19.6004 10.7921 20.9621 12.6926 22.04C17.5456 24.84 22.7126 25.591 25.2586 23.855C25.2966 23.83 25.3293 23.7976 25.3546 23.7599C25.38 23.7221 25.3976 23.6797 25.4065 23.6351C25.4153 23.5905 25.4152 23.5445 25.4061 23.5C25.397 23.4554 25.3791 23.4131 25.3535 23.3755C25.3279 23.3379 25.2951 23.3058 25.257 23.281C25.2188 23.2562 25.1762 23.2392 25.1314 23.2311C25.0867 23.2229 25.0407 23.2237 24.9963 23.2335C24.9519 23.2433 24.9098 23.2618 24.8726 23.288C22.5936 24.842 17.6856 24.131 13.0366 21.446C11.1976 20.4032 9.52844 19.0861 8.08665 17.54C8.05631 17.5066 8.0197 17.4796 7.97891 17.4604C7.93812 17.4411 7.89395 17.4302 7.84891 17.428C7.80387 17.4259 7.75886 17.4327 7.71643 17.4479C7.67401 17.4632 7.635 17.4866 7.60165 17.517C7.56829 17.5473 7.54124 17.5839 7.52203 17.6247C7.50282 17.6655 7.49183 17.7097 7.4897 17.7547C7.48756 17.7998 7.49432 17.8448 7.50958 17.8872C7.52484 17.9296 7.54831 17.9686 7.57865 18.002H7.57765Z" fill="#2DD0ED"/>
<path d="M24.4459 17.588C26.6369 15 27.4019 12.397 26.3459 10.575C25.5719 9.23395 23.9349 8.52595 21.7599 8.49795C21.6689 8.49676 21.5812 8.53175 21.5161 8.59523C21.4509 8.65871 21.4136 8.74549 21.4124 8.83646C21.4112 8.92742 21.4462 9.01514 21.5097 9.08031C21.5732 9.14547 21.6599 9.18276 21.7509 9.18395C23.7069 9.20895 25.1169 9.81895 25.7509 10.918C26.6249 12.432 25.9429 14.7529 23.9179 17.1449C23.8592 17.2144 23.8304 17.3044 23.838 17.3951C23.8456 17.4858 23.8889 17.5697 23.9584 17.6285C24.0279 17.6872 24.1179 17.7159 24.2085 17.7083C24.2992 17.7007 24.3832 17.6574 24.4419 17.588H24.4459ZM18.8159 8.81695C16.6657 9.30528 14.6038 10.1226 12.7029 11.24C7.69291 14.133 4.42491 18.398 4.87891 21.49C4.88547 21.5345 4.90076 21.5774 4.92388 21.6161C4.94701 21.6547 4.97753 21.6885 5.0137 21.7154C5.04987 21.7423 5.09098 21.7617 5.13468 21.7727C5.17838 21.7837 5.22382 21.786 5.26841 21.7794C5.31299 21.7729 5.35585 21.7576 5.39452 21.7345C5.4332 21.7113 5.46694 21.6808 5.49383 21.6447C5.52071 21.6085 5.5402 21.5674 5.5512 21.5237C5.56219 21.48 5.56447 21.4345 5.55791 21.39C5.15791 18.644 8.25291 14.601 13.0459 11.834C14.885 10.7527 16.8797 9.96137 18.9599 9.48795C19.0489 9.46886 19.1266 9.4152 19.1761 9.33877C19.2255 9.26235 19.2425 9.16943 19.2234 9.08045C19.2043 8.99147 19.1507 8.91372 19.0742 8.8643C18.9978 8.81489 18.9049 8.79786 18.8159 8.81695Z" fill="#2DD0ED"/>
<path d="M10.6989 23.633C11.8449 26.833 13.7179 28.8 15.8259 28.8C17.3629 28.8 18.7839 27.753 19.8929 25.908C19.9161 25.8694 19.9315 25.8266 19.9382 25.782C19.9449 25.7375 19.9428 25.692 19.9319 25.6483C19.9211 25.6045 19.9017 25.5634 19.8749 25.5271C19.8481 25.4909 19.8145 25.4602 19.7759 25.437C19.7373 25.4138 19.6945 25.3983 19.6499 25.3916C19.6053 25.3849 19.5599 25.3871 19.5162 25.398C19.4724 25.4088 19.4312 25.4282 19.395 25.455C19.3587 25.4817 19.3281 25.5154 19.3049 25.554C18.3049 27.211 17.0839 28.113 15.8259 28.113C14.0759 28.113 12.4039 26.356 11.3459 23.4C11.3153 23.3143 11.2518 23.2443 11.1696 23.2054C11.0874 23.1665 10.993 23.1619 10.9074 23.1925C10.8217 23.2231 10.7517 23.2865 10.7128 23.3688C10.6739 23.451 10.6693 23.5453 10.6999 23.631L10.6989 23.633ZM21.1649 23.007C21.7846 20.9451 22.0917 18.802 22.0759 16.649C22.0759 10.966 20.0869 6.066 17.2529 4.808C17.2116 4.78869 17.1668 4.77782 17.1212 4.77602C17.0756 4.77423 17.0302 4.78154 16.9874 4.79753C16.9447 4.81352 16.9056 4.83787 16.8724 4.86916C16.8392 4.90044 16.8126 4.93803 16.7941 4.97973C16.7757 5.02143 16.7657 5.0664 16.7648 5.112C16.7639 5.1576 16.7721 5.20293 16.7889 5.24532C16.8057 5.28771 16.8309 5.32633 16.8628 5.3589C16.8947 5.39146 16.9328 5.41734 16.9749 5.435C19.5019 6.557 21.3899 11.207 21.3899 16.649C21.4054 18.7328 21.1088 20.8071 20.5099 22.803C20.4937 22.8468 20.4866 22.8935 20.4891 22.9401C20.4916 22.9868 20.5035 23.0324 20.5243 23.0743C20.545 23.1161 20.5741 23.1533 20.6097 23.1835C20.6453 23.2137 20.6868 23.2364 20.7314 23.25C20.7761 23.2636 20.8231 23.268 20.8695 23.2629C20.9159 23.2577 20.9608 23.2431 21.0014 23.22C21.042 23.1968 21.0774 23.1657 21.1055 23.1284C21.1337 23.091 21.1538 23.0484 21.1649 23.003V23.007ZM27.6259 22.671C27.6259 22.3462 27.5296 22.0288 27.3492 21.7588C27.1687 21.4887 26.9123 21.2783 26.6122 21.154C26.3122 21.0297 25.9821 20.9972 25.6635 21.0606C25.345 21.1239 25.0525 21.2803 24.8228 21.5099C24.5932 21.7396 24.4368 22.0321 24.3734 22.3507C24.3101 22.6692 24.3426 22.9993 24.4669 23.2994C24.5912 23.5994 24.8016 23.8558 25.0716 24.0363C25.3417 24.2167 25.6591 24.313 25.9839 24.313C26.4194 24.313 26.837 24.14 27.145 23.8321C27.4529 23.5241 27.6259 23.1065 27.6259 22.671ZM26.9399 22.671C26.9399 22.8601 26.8838 23.0449 26.7788 23.2021C26.6737 23.3593 26.5244 23.4819 26.3497 23.5542C26.175 23.6266 25.9828 23.6455 25.7974 23.6086C25.6119 23.5717 25.4416 23.4807 25.3079 23.347C25.1742 23.2133 25.0831 23.043 25.0463 22.8575C25.0094 22.6721 25.0283 22.4798 25.1007 22.3052C25.173 22.1305 25.2955 21.9812 25.4528 21.8761C25.61 21.7711 25.7948 21.715 25.9839 21.715C26.2374 21.715 26.4806 21.8157 26.6599 21.995C26.8392 22.1743 26.9399 22.4174 26.9399 22.671ZM5.64688 24.313C5.97168 24.313 6.28919 24.2167 6.55923 24.0362C6.82928 23.8557 7.03974 23.5992 7.16399 23.2991C7.28824 22.999 7.3207 22.6688 7.25726 22.3503C7.19382 22.0317 7.03734 21.7392 6.8076 21.5096C6.57786 21.28 6.28519 21.1237 5.96661 21.0604C5.64803 20.9972 5.31784 21.0298 5.01782 21.1543C4.71781 21.2787 4.46143 21.4893 4.28112 21.7595C4.10082 22.0296 4.00469 22.3472 4.00488 22.672C4.00488 23.1075 4.17788 23.5251 4.48581 23.8331C4.79375 24.141 5.2114 24.313 5.64688 24.313ZM5.64688 23.627C5.4578 23.627 5.27297 23.5709 5.11576 23.4659C4.95854 23.3608 4.83601 23.2115 4.76365 23.0368C4.6913 22.8622 4.67236 22.6699 4.70925 22.4845C4.74614 22.299 4.83719 22.1287 4.97089 21.995C5.10459 21.8613 5.27493 21.7703 5.46038 21.7334C5.64582 21.6965 5.83804 21.7154 6.01273 21.7878C6.18741 21.8601 6.33672 21.9827 6.44177 22.1399C6.54681 22.2971 6.60288 22.4819 6.60288 22.671C6.60288 22.9245 6.50216 23.1677 6.32288 23.347C6.14359 23.5263 5.90043 23.627 5.64688 23.627Z" fill="#2DD0ED"/>
<path d="M15.826 6.48298C16.2058 6.48301 16.574 6.35132 16.8677 6.11034C17.1613 5.86937 17.3624 5.53402 17.4365 5.16144C17.5106 4.78886 17.4533 4.40209 17.2743 4.06705C17.0952 3.73201 16.8055 3.46941 16.4546 3.32401C16.1036 3.17861 15.7131 3.1594 15.3495 3.26965C14.986 3.3799 14.6719 3.61279 14.4609 3.92864C14.2498 4.24449 14.1548 4.62376 14.192 5.00182C14.2292 5.37988 14.3963 5.73334 14.6649 6.00198C14.9728 6.30992 15.3905 6.48294 15.826 6.48298ZM15.826 5.79697C15.6208 5.79701 15.4211 5.73108 15.2564 5.60891C15.0916 5.48675 14.9705 5.31484 14.911 5.11857C14.8514 4.92229 14.8566 4.71207 14.9257 4.51895C14.9947 4.32582 15.1241 4.16004 15.2947 4.04609C15.4652 3.93214 15.6679 3.87606 15.8727 3.88613C16.0776 3.8962 16.2738 3.9719 16.4323 4.10203C16.5909 4.23216 16.7034 4.40984 16.7532 4.60881C16.803 4.80778 16.7875 5.01749 16.7089 5.20697C16.6366 5.3816 16.5141 5.53085 16.3569 5.63586C16.1997 5.74088 16.015 5.79694 15.826 5.79697ZM16.0769 17.811C15.8473 17.8642 15.6071 17.8478 15.3868 17.7641C15.1665 17.6804 14.9761 17.533 14.8398 17.3407C14.7035 17.1485 14.6274 16.92 14.6213 16.6844C14.6152 16.4488 14.6793 16.2167 14.8055 16.0176C14.9316 15.8186 15.1141 15.6615 15.3298 15.5665C15.5455 15.4714 15.7845 15.4427 16.0166 15.4839C16.2486 15.5251 16.4632 15.6344 16.633 15.7979C16.8027 15.9614 16.92 16.1716 16.97 16.402C17.0358 16.707 16.9791 17.0258 16.812 17.2894C16.6449 17.553 16.3809 17.7403 16.0769 17.811Z" fill="#2DD0ED"/>
</svg>
