<svg width="32" height="32" viewBox="0 0 32 32" fill="none" xmlns="http://www.w3.org/2000/svg">
<path d="M12.2019 27.3991C12.7009 27.3991 13.195 27.3008 13.6561 27.1098C14.1171 26.9188 14.536 26.6389 14.8889 26.2861C15.2417 25.9332 15.5216 25.5143 15.7126 25.0533C15.9036 24.5922 16.0019 24.0981 16.0019 23.5991V19.7991H12.2019C11.194 19.7991 10.2275 20.1994 9.51485 20.9121C8.80221 21.6247 8.40186 22.5913 8.40186 23.5991C8.40186 24.6069 8.80221 25.5734 9.51485 26.2861C10.2275 26.9987 11.194 27.3991 12.2019 27.3991Z" fill="#0ACF83"/>
<path d="M8.40186 16.0001C8.40186 14.9923 8.80221 14.0257 9.51485 13.3131C10.2275 12.6004 11.194 12.2001 12.2019 12.2001H16.0019V19.8001H12.2019C11.194 19.8001 10.2275 19.3997 9.51485 18.6871C8.80221 17.9744 8.40186 17.0079 8.40186 16.0001Z" fill="#A259FF"/>
<path d="M8.40186 8.40205C8.40186 7.39423 8.80221 6.42768 9.51485 5.71504C10.2275 5.00241 11.194 4.60205 12.2019 4.60205H16.0019V12.2021H12.2019C11.194 12.2021 10.2275 11.8017 9.51485 11.0891C8.80221 10.3764 8.40186 9.40987 8.40186 8.40205Z" fill="#F24E1E"/>
<path d="M16 4.60205H19.8C20.299 4.60205 20.7932 4.70034 21.2542 4.89131C21.7152 5.08228 22.1341 5.36218 22.487 5.71504C22.8399 6.06791 23.1198 6.48682 23.3107 6.94785C23.5017 7.40889 23.6 7.90303 23.6 8.40205C23.6 8.90107 23.5017 9.39521 23.3107 9.85625C23.1198 10.3173 22.8399 10.7362 22.487 11.0891C22.1341 11.4419 21.7152 11.7218 21.2542 11.9128C20.7932 12.1038 20.299 12.2021 19.8 12.2021H16V4.60205Z" fill="#FF7262"/>
<path d="M23.6 16.0001C23.6 16.7516 23.3771 17.4863 22.9596 18.1112C22.542 18.7361 21.9486 19.2232 21.2542 19.5108C20.5598 19.7984 19.7958 19.8737 19.0587 19.7271C18.3215 19.5804 17.6444 19.2185 17.113 18.6871C16.5816 18.1556 16.2196 17.4785 16.073 16.7414C15.9264 16.0043 16.0017 15.2402 16.2893 14.5459C16.5769 13.8515 17.0639 13.258 17.6888 12.8405C18.3137 12.4229 19.0484 12.2001 19.8 12.2001C20.8078 12.2001 21.7744 12.6004 22.487 13.3131C23.1996 14.0257 23.6 14.9923 23.6 16.0001Z" fill="#1ABCFE"/>
</svg>
