<svg width="201" height="201" viewBox="0 0 201 201" fill="none" xmlns="http://www.w3.org/2000/svg">
<g clip-path="url(#clip0_616_22194)">
<path d="M138.897 63.3124C138.897 73.6538 130.513 82.0371 120.172 82.0371H100.961V44.5878H120.172C130.513 44.5878 138.897 52.9711 138.897 63.3124Z" stroke="#F5F5F5" stroke-width="10"/>
<path d="M63.0254 63.3124C63.0254 73.6538 71.4087 82.0371 81.7501 82.0371H100.961V44.5878H81.7501C71.4087 44.5878 63.0254 52.9711 63.0254 63.3124Z" stroke="#F5F5F5" stroke-width="10"/>
<path d="M63.0254 100.762C63.0254 111.104 71.4087 119.487 81.7501 119.487H100.961V82.0376H81.7501C71.4087 82.0376 63.0254 90.4209 63.0254 100.762Z" stroke="#F5F5F5" stroke-width="10"/>
<path d="M63.0254 138.211C63.0254 148.552 71.5295 156.936 81.8709 156.936C92.3465 156.936 100.961 148.444 100.961 137.968V119.486H81.7501C71.4087 119.486 63.0254 127.87 63.0254 138.211Z" stroke="#F5F5F5" stroke-width="10"/>
<path d="M100.961 100.762C100.961 111.104 109.344 119.487 119.686 119.487H120.172C130.513 119.487 138.897 111.104 138.897 100.762C138.897 90.4209 130.513 82.0376 120.172 82.0376H119.686C109.344 82.0376 100.961 90.4209 100.961 100.762Z" stroke="#F5F5F5" stroke-width="10"/>
</g>
<defs>
<clipPath id="clip0_616_22194">
<rect width="86" height="124" fill="white" transform="translate(57.9619 38.6109)"/>
</clipPath>
</defs>
</svg>
