<svg width="32" height="32" viewBox="0 0 32 32" fill="none" xmlns="http://www.w3.org/2000/svg">
<path d="M17.9232 13.6365L16.2201 15.2213L14.6396 12.0336L15.4574 10.2004C15.6644 9.83289 16.0022 9.83219 16.2092 10.2004L17.9232 13.6365Z" fill="#FFA000"/>
<path d="M16.2201 15.2212L9.85547 21.1421L14.6396 12.0335L16.2201 15.2212Z" fill="#F57F17"/>
<path d="M19.7862 11.2141C20.0905 10.9217 20.4051 11.0214 20.4852 11.4358L22.1419 21.0628L16.6501 24.3541C16.458 24.4602 15.949 24.5063 15.949 24.5063C15.949 24.5063 15.4845 24.4507 15.3075 24.3525L9.85547 21.1418L19.7862 11.2141Z" fill="#FFCA28"/>
<path d="M14.6396 12.0335L9.85547 21.1421L11.9864 7.82966C12.0649 7.41496 12.3009 7.37502 12.5115 7.74107L14.6396 12.0335Z" fill="#FFA000"/>
</svg>
