<svg width="201" height="201" viewBox="0 0 201 201" fill="none" xmlns="http://www.w3.org/2000/svg">
<path d="M147.183 78.0834C138.523 66.0688 104.115 25.6108 104.115 25.6108C92.7143 34.7388 83.7168 46.7841 78.2661 60.6565C75.1493 68.6099 73.1916 77.1314 72.6158 86.0829H72.6235L72.6158 86.0905C69.499 85.2768 66.2516 84.7854 62.9044 84.6703C58.1139 84.5014 53.4693 85.1002 49.0857 86.3362C44.4411 94.4739 41.639 103.809 41.2858 113.812C40.3876 139.623 56.0104 162.178 78.6577 171.298C84.9298 173.824 91.7393 175.321 98.8943 175.574C108.56 175.912 117.764 173.908 125.979 170.116H125.994C145.786 160.957 159.827 141.273 160.641 117.973C161.17 102.888 155.374 89.43 147.183 78.0834Z" fill="#F5F5F5"/>
</svg>
