<svg width="201" height="201" viewBox="0 0 201 201" fill="none" xmlns="http://www.w3.org/2000/svg">
<path fill-rule="evenodd" clip-rule="evenodd" d="M100.962 44.3608C69.8838 44.3608 44.7119 69.5327 44.7119 100.611C44.7119 125.501 60.8135 146.525 83.1729 153.978C85.9854 154.47 87.04 152.783 87.04 151.306C87.04 149.97 86.9697 145.541 86.9697 140.83C72.8369 143.431 69.1807 137.384 68.0557 134.22C67.4229 132.603 64.6807 127.611 62.29 126.275C60.3213 125.22 57.5088 122.619 62.2197 122.548C66.6494 122.478 69.8135 126.626 70.8682 128.314C75.9307 136.822 84.0166 134.431 87.251 132.955C87.7432 129.298 89.2197 126.837 90.8369 125.431C78.3213 124.025 65.2432 119.173 65.2432 97.6577C65.2432 91.5405 67.4229 86.478 71.0088 82.5405C70.4463 81.1343 68.4775 75.3687 71.5713 67.6343C71.5713 67.6343 76.2822 66.1577 87.04 73.3999C91.54 72.1343 96.3213 71.5015 101.103 71.5015C105.884 71.5015 110.665 72.1343 115.165 73.3999C125.923 66.0874 130.634 67.6343 130.634 67.6343C133.728 75.3687 131.759 81.1343 131.196 82.5405C134.782 86.478 136.962 91.4702 136.962 97.6577C136.962 119.244 123.813 124.025 111.298 125.431C113.337 127.189 115.095 130.564 115.095 135.837C115.095 143.361 115.024 149.408 115.024 151.306C115.024 152.783 116.079 154.541 118.892 153.978C141.11 146.525 157.212 125.431 157.212 100.611C157.212 69.5327 132.04 44.3608 100.962 44.3608Z" fill="#F5F5F5"/>
</svg>
