<svg width="32" height="32" viewBox="0 0 32 32" fill="none" xmlns="http://www.w3.org/2000/svg">
<path d="M9.08105 4H10.1592V5.06875H11.1529V4H12.2311V7.23438H11.1529V6.15625H10.1686V7.23438H9.08105M13.6561 5.07812H12.7045V4H15.6904V5.07812H14.7342V7.23438H13.6561M16.1639 4H17.2936L17.9873 5.13906L18.6811 4H19.8107V7.23438H18.7326V5.63125L17.9779 6.79375L17.2232 5.63125V7.23438H16.1639M20.3451 4H21.4232V6.16563H22.9514V7.23438H20.3451" fill="black"/>
<path d="M9.04395 26.0781L7.49707 8.71564H24.5033L22.9564 26.0688L15.9861 28" fill="#E44D26"/>
<path d="M16 26.5234V10.1406H22.9516L21.625 24.9531" fill="#F16529"/>
<path d="M10.6562 12.264H16V14.3922H12.9906L13.1875 16.5719H16V18.6953H11.2375M11.3312 19.764H13.4688L13.6187 21.4656L16 22.1031V24.325L11.6313 23.1062" fill="#EBEBEB"/>
<path d="M21.3251 12.264H15.9907V14.3922H21.1282M20.936 16.5719H15.9907V18.7H18.6157L18.3673 21.4656L15.9907 22.1031V24.3156L20.3501 23.1062" fill="white"/>
</svg>
