<svg width="201" height="201" viewBox="0 0 201 201" fill="none" xmlns="http://www.w3.org/2000/svg">
<g clip-path="url(#clip0_616_22291)">
<path d="M57.5959 25.6108H64.3827V32.2905H70.5901V25.6108H77.3769V45.8374H70.5901V39.064H64.3827V45.8374H57.5959V25.6108ZM86.2985 32.3198H80.3233V25.6108H99.0604V32.3198H93.0852V45.8403H86.2985V32.3198ZM102.036 25.6108H109.111L113.463 32.7183L117.812 25.6108H124.89V45.8374H118.133V35.812L113.463 43.0044H113.346L108.673 35.812V45.8374H102.033V25.6108H102.036ZM128.269 25.6108H135.056V39.1519H144.598V45.8374H128.266V25.6108H128.269ZM47.4893 54.7026L57.2254 163.52L100.936 175.611L144.686 163.529L154.434 54.7026H47.4893ZM133.312 90.2925H82.0494L83.2756 103.959H132.097L128.416 144.931L100.942 152.525L73.5042 144.931L71.5811 123.506H85.0252L86.025 134.619L100.945 138.641L115.895 134.616L117.453 117.304H71.0224L67.4114 76.9448H134.512L133.312 90.2925Z" fill="#F5F5F5"/>
</g>
<defs>
<clipPath id="clip0_616_22291">
<rect width="106.944" height="150" fill="white" transform="translate(47.4893 25.6108)"/>
</clipPath>
</defs>
</svg>
