<svg width="201" height="201" viewBox="0 0 201 201" fill="none" xmlns="http://www.w3.org/2000/svg">
<path d="M93.4627 97.5734C93.9502 99.4484 94.4002 100.873 94.8877 102.261H78.9503C79.9253 99.5234 80.7128 96.7109 81.2753 93.8234C82.2128 90.561 83.1503 87.261 84.0878 84.4485C85.1378 81.8986 85.9253 79.2361 86.4503 76.4986C86.7503 78.0736 87.2003 79.6486 87.8377 81.1861C88.6627 82.986 89.3002 84.861 89.7127 86.811C90.2002 88.686 91.1377 90.561 91.5877 92.436C92.4127 94.0484 93.0502 95.8109 93.4627 97.5734ZM175.962 53.7738V147.11C175.924 161.848 164 173.773 149.262 173.735H52.6631C37.9632 173.773 26.0008 161.848 25.9633 147.148V54.1113C25.8133 39.5615 37.5132 27.6366 52.0631 27.4866H149.712C164.225 27.4866 175.962 39.2615 175.962 53.7738ZM118.325 129.448L95.3377 65.2487C95.3377 64.7612 94.8877 64.7612 94.4002 64.7612H78.4628L78.0128 65.2487C78.0878 66.6737 77.9003 68.0987 77.5253 69.4487C77.5253 70.3862 77.5253 70.8737 77.0754 71.3237L56.9005 129.448C56.938 129.973 57.3505 130.348 57.838 130.386H69.0879C70.0254 130.386 70.5129 129.936 70.5129 129.448L75.2004 114.936H98.6376L103.775 129.448C103.813 129.973 104.225 130.348 104.713 130.386H117.837C118.325 130.386 118.325 129.936 118.325 129.448ZM139.4 81.6736C139.362 81.1486 138.95 80.7736 138.462 80.7361H126.275C125.787 80.7736 125.375 81.1486 125.337 81.6736V129.486C125.337 130.423 125.337 130.873 126.275 130.873H138.462C138.95 130.836 139.362 130.461 139.4 129.936V81.6736ZM138.012 61.9862L137.937 61.9112C134.825 58.8363 129.837 58.8738 126.762 61.9862C125.3 63.4862 124.475 65.5112 124.4 67.6112C124.287 69.6362 124.962 71.6612 126.275 73.2361C127.812 74.6611 129.8 75.4861 131.9 75.5611C134 75.5986 136.062 74.7361 137.525 73.2361C139.212 71.8861 140.112 69.7487 139.887 67.6112C140.187 65.5112 139.512 63.4487 138.012 61.9862Z" fill="#F5F5F5"/>
</svg>
