<svg width="32" height="32" viewBox="0 0 32 32" fill="none" xmlns="http://www.w3.org/2000/svg">
<path d="M8.25 4.5H23.75C26.1 4.5 28 6.36752 28 8.67735V23.3226C28 25.6325 26.1 27.5 23.75 27.5H8.25C5.9 27.5 4 25.6325 4 23.3226V8.67735C4 6.36752 5.9 4.5 8.25 4.5Z" fill="#330000"/>
<path d="M15.5997 18.2607H11.8797L11.1197 20.5705C11.0997 20.6589 11.0197 20.7179 10.9297 20.7081H9.04967C8.93967 20.7081 8.90967 20.6491 8.93967 20.5312L12.1597 11.4196C12.1897 11.3213 12.2197 11.2132 12.2597 11.0953C12.2997 10.8889 12.3197 10.6726 12.3197 10.4564C12.3097 10.4072 12.3497 10.3581 12.3997 10.3483H14.9897C15.0697 10.3483 15.1097 10.3778 15.1197 10.4269L18.7697 20.5508C18.7997 20.6589 18.7697 20.7081 18.6697 20.7081H16.5797C16.5097 20.7179 16.4397 20.6688 16.4197 20.6L15.5997 18.2607ZM12.4597 16.2654H14.9997C14.9397 16.0589 14.8597 15.8132 14.7697 15.5577C14.6797 15.2923 14.5897 15.0072 14.4997 14.7124C14.3997 14.4077 14.3097 14.1128 14.2097 13.8081C14.1097 13.5034 14.0197 13.2184 13.9397 12.9333C13.8597 12.6581 13.7897 12.4025 13.7197 12.1666H13.6997C13.6097 12.5893 13.4997 13.0119 13.3597 13.4346C13.2097 13.9064 13.0597 14.3978 12.8997 14.8893C12.7597 15.3906 12.6097 15.8525 12.4597 16.2654ZM20.9997 12.0684C20.6697 12.0782 20.3497 11.9504 20.1097 11.7243C19.8797 11.4786 19.7597 11.1542 19.7697 10.8201C19.7597 10.4859 19.8897 10.1713 20.1297 9.94527C20.3697 9.71921 20.6897 9.60126 21.0197 9.60126C21.4097 9.60126 21.7097 9.71921 21.9297 9.94527C22.1497 10.1812 22.2697 10.4957 22.2597 10.8201C22.2697 11.1542 22.1497 11.4786 21.9097 11.7243C21.6797 11.9602 21.3397 12.088 20.9997 12.0684ZM19.8797 20.6V13.0316C19.8797 12.9333 19.9197 12.894 20.0097 12.894H21.9897C22.0797 12.894 22.1197 12.9431 22.1197 13.0316V20.6C22.1197 20.7081 22.0797 20.7572 21.9897 20.7572H20.0297C19.9297 20.7572 19.8797 20.6983 19.8797 20.6Z" fill="#FF9A00"/>
</svg>
