<svg width="201" height="201" viewBox="0 0 201 201" fill="none" xmlns="http://www.w3.org/2000/svg">
<g clip-path="url(#clip0_616_22306)">
<path fill-rule="evenodd" clip-rule="evenodd" d="M77.0462 171.65L79.246 153.906L120.946 139.937L124.878 171.651C117.175 174.282 109.095 175.62 100.962 175.612C92.8286 175.62 84.7491 174.282 77.0462 171.651V171.65ZM64.1442 165.793C41.7066 152.879 26.582 128.527 26.582 100.611C26.582 59.1899 59.8835 25.6108 100.963 25.6108C142.041 25.6108 175.343 59.1899 175.343 100.611C175.343 128.527 160.218 152.879 137.781 165.793L129.701 100.611H134.772V86.9746H128.01V59.7022L100.963 42.6565L73.9161 59.7022V86.9746H67.1542V100.611H72.2256L64.1454 165.793L64.1442 165.793ZM116.071 100.611L118.507 120.256L81.8933 132.557L85.8537 100.611H116.071ZM87.4387 86.9746V67.2596L100.963 58.7368L114.486 67.2596V86.9746H87.4393H87.4387Z" fill="#F5F5F5"/>
</g>
<defs>
<clipPath id="clip0_616_22306">
<rect width="148.76" height="150" fill="white" transform="translate(26.582 25.6108)"/>
</clipPath>
</defs>
</svg>
