<svg width="32" height="32" viewBox="0 0 32 32" fill="#F5F5F5" xmlns="http://www.w3.org/2000/svg">
<path d="M19.9561 13.5834H24.1373V14.3552H22.4785V18.4151H21.653V14.3552H19.9599L19.9561 13.5834Z" />
<path d="M13.0819 13.5834V14.3552H9.7293V15.6001H12.4245V16.3719H9.7293V17.6433H13.0819V18.4151H8.8999V14.3552V13.5834H13.0819Z" />
<path d="M15.1674 13.585H14.082L17.9723 18.4167H19.0616L17.1164 16.0047L19.0577 13.5889H17.9723L16.5718 15.3262L15.1674 13.585Z" />
<path d="M16.2816 17.0356L15.7369 16.3595L14.0781 18.419H15.1674L16.2816 17.0356Z" />
<path fill-rule="evenodd" clip-rule="evenodd" d="M8.92897 18.4143L5.03637 13.5811H4V18.4128H4.82941V14.6135L7.89027 18.4143H8.92897Z" />
<path d="M24.3236 18.3848C24.2947 18.3853 24.2661 18.38 24.2393 18.3691C24.2126 18.3583 24.1883 18.3422 24.168 18.3218C24.1468 18.3019 24.1302 18.2777 24.1192 18.2509C24.1082 18.224 24.1031 18.1952 24.1041 18.1662C24.1036 18.1379 24.1089 18.1099 24.1199 18.0839C24.1309 18.0579 24.1473 18.0345 24.168 18.0152C24.1883 17.9948 24.2126 17.9787 24.2393 17.9679C24.2661 17.957 24.2947 17.9517 24.3236 17.9522C24.3524 17.9516 24.3811 17.9568 24.4079 17.9677C24.4346 17.9785 24.4589 17.9947 24.4792 18.0152C24.5001 18.0344 24.5167 18.0578 24.5281 18.0837C24.5395 18.1097 24.5453 18.1378 24.5453 18.1662C24.5451 18.2046 24.5344 18.2423 24.5142 18.2751C24.4952 18.3071 24.4684 18.3339 24.4364 18.3529C24.4026 18.3741 24.3635 18.3852 24.3236 18.3848Z" />
<path d="M25.7394 16.3494H26.1067V17.7654C26.1092 17.8827 26.0802 17.9985 26.0226 18.1008C25.9674 18.1937 25.8863 18.2686 25.7892 18.3163C25.6821 18.3692 25.564 18.3959 25.4445 18.3941C25.3336 18.3957 25.2236 18.374 25.1217 18.3303C25.0293 18.2908 24.9504 18.2254 24.8945 18.142C24.8357 18.0491 24.8064 17.9406 24.8104 17.8308H25.1785C25.1778 17.8802 25.1904 17.9288 25.215 17.9716C25.2382 18.0106 25.2723 18.0419 25.313 18.0619C25.3581 18.0837 25.4077 18.0946 25.4578 18.0938C25.5106 18.0955 25.5628 18.0826 25.6087 18.0564C25.6509 18.0307 25.6839 17.9923 25.7029 17.9467C25.7261 17.89 25.7374 17.8291 25.7363 17.7678L25.7394 16.3494Z" />
<path d="M27.6193 16.9041C27.6162 16.864 27.6041 16.8252 27.5839 16.7904C27.5637 16.7556 27.5359 16.7259 27.5026 16.7034C27.4227 16.6521 27.3289 16.6268 27.2341 16.631C27.1664 16.6294 27.099 16.641 27.0357 16.6653C26.9858 16.6844 26.942 16.7167 26.9089 16.7586C26.8799 16.7976 26.8641 16.8447 26.8638 16.8932C26.8628 16.9317 26.8731 16.9695 26.8933 17.0022C26.913 17.0337 26.9396 17.0603 26.9711 17.08C27.0063 17.1021 27.0439 17.1202 27.0832 17.1337C27.1247 17.1482 27.1662 17.1604 27.2077 17.1702L27.3991 17.2169C27.4755 17.2344 27.5502 17.2586 27.6224 17.2893C27.6918 17.318 27.7568 17.3565 27.8153 17.4036C27.8714 17.4488 27.9173 17.5052 27.9499 17.5694C27.9845 17.6403 28.0016 17.7185 27.9997 17.7973C28.0019 17.9081 27.9698 18.0167 27.9079 18.1086C27.8412 18.2022 27.7492 18.2748 27.6426 18.3179C27.5098 18.3721 27.3674 18.3986 27.224 18.3957C27.0828 18.3989 26.9424 18.374 26.8109 18.3225C26.6987 18.2803 26.6021 18.2048 26.5342 18.106C26.4663 18.0072 26.4303 17.89 26.4312 17.7701H26.7953C26.7982 17.8339 26.8211 17.8951 26.8607 17.9452C26.9009 17.9926 26.953 18.0285 27.0116 18.0494C27.0788 18.073 27.1497 18.0846 27.2209 18.0837C27.2933 18.085 27.3653 18.0729 27.4333 18.0479C27.4888 18.0277 27.538 17.993 27.5757 17.9475C27.6106 17.905 27.6293 17.8515 27.6286 17.7966C27.6297 17.7487 27.6131 17.7022 27.5819 17.6658C27.5459 17.6281 27.5021 17.5986 27.4535 17.5795C27.3912 17.5538 27.3269 17.533 27.2614 17.5172L27.0279 17.4589C26.8815 17.427 26.7448 17.3602 26.6296 17.2644C26.5812 17.221 26.5429 17.1675 26.5176 17.1076C26.4924 17.0478 26.4806 16.9831 26.4833 16.9181C26.4811 16.8065 26.5155 16.6971 26.5813 16.6069C26.6503 16.5149 26.7427 16.4431 26.849 16.3992C26.9703 16.3467 27.1012 16.3202 27.2333 16.3214C27.3645 16.3196 27.4946 16.3462 27.6146 16.3992C27.7173 16.4433 27.8063 16.5142 27.8721 16.6046C27.9348 16.6925 27.9685 16.7977 27.9686 16.9057L27.6193 16.9041Z" />
</svg>
