<svg width="32" height="32" viewBox="0 0 32 32" fill="none" xmlns="http://www.w3.org/2000/svg">
<path d="M15.862 23.3497C15.783 23.3493 15.7055 23.3284 15.637 23.289L14.9133 22.8607C14.8053 22.8 14.8578 22.779 14.8938 22.7662C15.0085 22.7299 15.1184 22.6795 15.2208 22.6162C15.2293 22.6121 15.2388 22.6103 15.2483 22.611C15.2577 22.6116 15.2669 22.6147 15.2748 22.62L15.8305 22.95C15.841 22.9553 15.8525 22.958 15.8643 22.958C15.876 22.958 15.8876 22.9553 15.898 22.95L18.0655 21.699C18.0756 21.6929 18.0839 21.6843 18.0897 21.6741C18.0955 21.6638 18.0985 21.6523 18.0985 21.6405V19.14C18.0986 19.1279 18.0955 19.1161 18.0896 19.1055C18.0836 19.095 18.0751 19.0862 18.0648 19.08L15.898 17.8297C15.8879 17.8239 15.8764 17.8208 15.8646 17.8208C15.8529 17.8208 15.8414 17.8239 15.8313 17.8297L13.663 19.08C13.6526 19.086 13.6439 19.0946 13.6379 19.105C13.6318 19.1154 13.6286 19.1272 13.6285 19.1392V21.6405C13.6286 21.6522 13.6317 21.6638 13.6376 21.6739C13.6436 21.684 13.6521 21.6924 13.6623 21.6982L14.2555 22.041C14.578 22.2022 14.7745 22.0125 14.7745 21.8212V19.353C14.7744 19.3447 14.776 19.3365 14.7791 19.3289C14.7823 19.3212 14.7869 19.3143 14.7928 19.3085C14.7987 19.3027 14.8057 19.2981 14.8133 19.295C14.821 19.292 14.8293 19.2905 14.8375 19.2907H15.112C15.1285 19.2907 15.1444 19.2973 15.156 19.309C15.1677 19.3206 15.1743 19.3365 15.1743 19.353V21.8227C15.1857 21.9112 15.1772 22.0012 15.1495 22.086C15.1218 22.1708 15.0755 22.2484 15.014 22.3131C14.9525 22.3777 14.8773 22.4279 14.794 22.4598C14.7106 22.4918 14.6212 22.5047 14.5323 22.4977C14.3563 22.5007 14.183 22.4536 14.0328 22.362L13.4643 22.0342C13.3956 21.9936 13.3387 21.9358 13.2993 21.8665C13.2598 21.7972 13.2391 21.7187 13.2393 21.639V19.14C13.2388 19.0602 13.2594 18.9816 13.2989 18.9123C13.3384 18.8429 13.3954 18.7851 13.4643 18.7447L15.634 17.493C15.7039 17.4548 15.7823 17.4348 15.862 17.4348C15.9417 17.4348 16.0201 17.4548 16.09 17.493L18.2568 18.7455C18.3255 18.786 18.3824 18.8438 18.4219 18.9132C18.4613 18.9825 18.482 19.061 18.4818 19.1407V21.642C18.4819 21.7218 18.4612 21.8002 18.4218 21.8695C18.3823 21.9388 18.3254 21.9966 18.2568 22.0372L16.09 23.289C16.0216 23.3284 15.944 23.3493 15.865 23.3497" fill="#689F63"/>
<path d="M16.5318 21.6262C15.5838 21.6262 15.3843 21.1912 15.3843 20.826C15.3843 20.8177 15.3859 20.8096 15.3891 20.802C15.3923 20.7944 15.3969 20.7875 15.4028 20.7817C15.4086 20.7759 15.4156 20.7713 15.4232 20.7682C15.4309 20.7652 15.439 20.7636 15.4473 20.7637H15.727C15.7419 20.7639 15.7563 20.7693 15.7675 20.7791C15.7788 20.7888 15.7862 20.8023 15.7885 20.817C15.8305 21.102 15.9565 21.246 16.5303 21.246C16.987 21.246 17.1813 21.1425 17.1813 20.9002C17.1813 20.7607 17.1258 20.6572 16.4163 20.5875C15.823 20.529 15.4563 20.3985 15.4563 19.9237C15.4563 19.4865 15.8253 19.2262 16.4433 19.2262C17.137 19.2262 17.4813 19.467 17.5248 19.9845C17.5255 19.9932 17.5244 20.0019 17.5216 20.0102C17.5187 20.0185 17.5142 20.0261 17.5083 20.0325C17.5024 20.0387 17.4953 20.0437 17.4874 20.0472C17.4796 20.0507 17.4711 20.0526 17.4625 20.0527H17.1813C17.1671 20.0527 17.1534 20.0479 17.1423 20.039C17.1313 20.0302 17.1236 20.0178 17.1205 20.004C17.053 19.704 16.8888 19.608 16.4455 19.608C15.9468 19.608 15.889 19.7812 15.889 19.9117C15.889 20.07 15.9573 20.1157 16.63 20.205C17.3028 20.2942 17.6125 20.418 17.6125 20.8867C17.6125 21.3555 17.2188 21.6292 16.5318 21.6292M19.1718 18.9765H19.2468C19.256 18.9777 19.2653 18.9769 19.2742 18.9741C19.283 18.9713 19.2911 18.9665 19.2979 18.9602C19.3047 18.9539 19.3101 18.9462 19.3135 18.9376C19.317 18.929 19.3186 18.9197 19.318 18.9105C19.318 18.8467 19.2738 18.8467 19.2498 18.8467H19.1748L19.1718 18.9765ZM19.0833 18.7717H19.2445C19.3 18.7717 19.408 18.7717 19.408 18.8955C19.4101 18.9222 19.4022 18.9487 19.3859 18.9699C19.3695 18.9911 19.3459 19.0055 19.3195 19.0102C19.384 19.0147 19.3885 19.0567 19.3945 19.1167C19.397 19.1589 19.4054 19.2006 19.4193 19.2405H19.3203C19.3203 19.2187 19.3023 19.0995 19.3023 19.0905C19.2955 19.0642 19.2865 19.0507 19.2535 19.0507H19.1718V19.2382H19.081L19.0833 18.7717ZM18.8898 19.005C18.8896 19.0743 18.9101 19.1422 18.9486 19.1999C18.987 19.2576 19.0418 19.3027 19.1058 19.3292C19.1699 19.3558 19.2404 19.3628 19.3085 19.3492C19.3765 19.3357 19.439 19.3022 19.488 19.2531C19.537 19.204 19.5703 19.1415 19.5837 19.0734C19.5971 19.0053 19.59 18.9348 19.5633 18.8708C19.5365 18.8068 19.4914 18.7522 19.4336 18.7138C19.3758 18.6755 19.3079 18.6552 19.2385 18.6555C19.1461 18.6561 19.0576 18.6931 18.9923 18.7585C18.927 18.824 18.8902 18.9125 18.8898 19.005ZM19.6578 19.005C19.6578 19.0876 19.6333 19.1684 19.5874 19.2371C19.5415 19.3058 19.4762 19.3593 19.3999 19.3909C19.3236 19.4225 19.2396 19.4308 19.1585 19.4147C19.0775 19.3986 19.0031 19.3588 18.9446 19.3004C18.8862 19.2419 18.8464 19.1675 18.8303 19.0865C18.8142 19.0054 18.8225 18.9214 18.8541 18.8451C18.8857 18.7688 18.9392 18.7035 19.0079 18.6576C19.0766 18.6117 19.1574 18.5872 19.24 18.5872C19.3507 18.5876 19.4567 18.6318 19.535 18.71C19.6133 18.7883 19.6574 18.8943 19.6578 19.005Z" fill="#689F63"/>
<path fill-rule="evenodd" clip-rule="evenodd" d="M9.15025 13.563C9.15046 13.5141 9.13773 13.466 9.11337 13.4236C9.089 13.3812 9.05386 13.3459 9.0115 13.3215L6.7135 12C6.67512 11.9778 6.63183 11.9654 6.5875 11.964H6.5635C6.51894 11.9655 6.47543 11.9778 6.43675 12L4.13875 13.3222C4.09654 13.3469 4.06153 13.3821 4.03718 13.4245C4.01284 13.4669 4.00002 13.5149 4 13.5637L4.00525 17.1255C4.00501 17.1498 4.01128 17.1738 4.02341 17.1949C4.03554 17.216 4.0531 17.2334 4.07425 17.2455C4.09498 17.2583 4.11888 17.2651 4.14325 17.2651C4.16762 17.2651 4.19152 17.2583 4.21225 17.2455L5.575 16.4625C5.61705 16.4379 5.65195 16.4027 5.67628 16.3605C5.70061 16.3183 5.71352 16.2705 5.71375 16.2217V14.5575C5.71373 14.5088 5.72655 14.461 5.75091 14.4189C5.77527 14.3767 5.81031 14.3418 5.8525 14.3175L6.43375 13.9822C6.47588 13.9577 6.52375 13.9448 6.5725 13.9447C6.62103 13.9446 6.66869 13.9576 6.7105 13.9822L7.29175 14.3167C7.33394 14.341 7.36898 14.376 7.39334 14.4181C7.4177 14.4602 7.43052 14.5081 7.4305 14.5567V16.2202C7.43088 16.269 7.44393 16.3169 7.46839 16.3591C7.49285 16.4013 7.52787 16.4364 7.57 16.461L8.935 17.2425C8.95599 17.255 8.97996 17.2615 9.00437 17.2615C9.02879 17.2615 9.05276 17.255 9.07375 17.2425C9.0947 17.2302 9.11208 17.2127 9.12418 17.1916C9.13629 17.1706 9.14268 17.1468 9.14275 17.1225L9.15025 13.563ZM19.9938 15.4177C19.9938 15.4299 19.9906 15.4418 19.9846 15.4524C19.9785 15.4629 19.9698 15.4717 19.9592 15.4777L19.1702 15.933C19.1597 15.939 19.1478 15.9421 19.1357 15.9421C19.1237 15.9421 19.1118 15.939 19.1012 15.933L18.3115 15.4755C18.301 15.4694 18.2922 15.4607 18.2862 15.4501C18.2801 15.4396 18.277 15.4276 18.277 15.4155V14.5065C18.277 14.4943 18.2802 14.4824 18.2863 14.4719C18.2923 14.4614 18.301 14.4526 18.3115 14.4465L19.1005 13.9905C19.1111 13.9844 19.1231 13.9811 19.1354 13.9811C19.1476 13.9811 19.1596 13.9844 19.1702 13.9905L19.96 14.4465C19.9705 14.4526 19.9793 14.4613 19.9853 14.4718C19.9914 14.4824 19.9945 14.4943 19.9945 14.5065L19.9938 15.4177ZM20.2067 8.66773C20.1856 8.65596 20.1618 8.64992 20.1376 8.65022C20.1134 8.65051 20.0897 8.65713 20.0688 8.66941C20.048 8.68169 20.0307 8.69921 20.0187 8.72023C20.0067 8.74125 20.0005 8.76504 20.0005 8.78923V12.3142C20.001 12.3315 19.9968 12.3485 19.9885 12.3636C19.9802 12.3788 19.968 12.3914 19.9531 12.4002C19.9383 12.409 19.9214 12.4136 19.9041 12.4137C19.8869 12.4137 19.8699 12.4092 19.855 12.4005L19.279 12.069C19.2368 12.0446 19.189 12.0317 19.1403 12.0317C19.0915 12.0317 19.0437 12.0446 19.0015 12.069L16.7035 13.395C16.6613 13.4193 16.6263 13.4542 16.6019 13.4964C16.5775 13.5385 16.5647 13.5863 16.5648 13.635V16.2892C16.5648 16.3379 16.5777 16.3857 16.602 16.4278C16.6264 16.4699 16.6614 16.5049 16.7035 16.5292L19 17.8567C19.0422 17.8809 19.0901 17.8937 19.1388 17.8937C19.1874 17.8937 19.2353 17.8809 19.2775 17.8567L21.5785 16.5255C21.6206 16.5011 21.6555 16.4661 21.6799 16.424C21.7042 16.3819 21.7171 16.3341 21.7172 16.2855V9.67423C21.7171 9.62484 21.7039 9.57637 21.6788 9.53379C21.6538 9.49122 21.6179 9.45608 21.5748 9.43198L20.2067 8.66773ZM27.862 14.4825C27.904 14.4581 27.9389 14.423 27.9631 14.3809C27.9873 14.3388 28 14.2911 28 14.2425V13.6005C28 13.5519 27.9873 13.5042 27.9631 13.462C27.9389 13.4199 27.904 13.3849 27.862 13.3605L25.5775 12.033C25.5352 12.0085 25.4872 11.9956 25.4384 11.9956C25.3895 11.9956 25.3415 12.0085 25.2992 12.033L23.0012 13.3597C22.9591 13.384 22.924 13.419 22.8997 13.4611C22.8753 13.5032 22.8625 13.5511 22.8625 13.5997V16.2525C22.8625 16.3015 22.8755 16.3497 22.9001 16.3921C22.9248 16.4345 22.9602 16.4697 23.0028 16.494L25.2865 17.7952C25.328 17.8187 25.3749 17.831 25.4226 17.831C25.4703 17.831 25.5172 17.8187 25.5588 17.7952L26.9403 17.0272C26.9616 17.0151 26.9794 16.9976 26.9918 16.9764C27.0041 16.9552 27.0107 16.931 27.0107 16.9065C27.0107 16.8819 27.0041 16.8578 26.9918 16.8366C26.9794 16.8154 26.9616 16.7978 26.9403 16.7857L24.625 15.4612C24.6038 15.4492 24.5862 15.4317 24.5739 15.4106C24.5617 15.3896 24.5552 15.3656 24.5553 15.3412V14.5095C24.5552 14.4851 24.5617 14.4612 24.5739 14.4401C24.5862 14.419 24.6038 14.4015 24.625 14.3895L25.3442 13.9747C25.3652 13.9625 25.389 13.9561 25.4132 13.9561C25.4375 13.9561 25.4613 13.9625 25.4823 13.9747L26.2023 14.3895C26.2234 14.4015 26.2411 14.419 26.2533 14.4401C26.2656 14.4612 26.272 14.4851 26.272 14.5095V15.1635C26.272 15.1879 26.2784 15.2118 26.2906 15.233C26.3028 15.2541 26.3204 15.2716 26.3415 15.2838C26.3627 15.296 26.3867 15.3023 26.4111 15.3023C26.4355 15.3022 26.4594 15.2957 26.4805 15.2835L27.862 14.4825Z" fill="#F5F5F5"/>
<path fill-rule="evenodd" clip-rule="evenodd" d="M25.405 14.358C25.4131 14.3532 25.4223 14.3507 25.4316 14.3507C25.441 14.3507 25.4502 14.3532 25.4583 14.358L25.8993 14.6122C25.9072 14.6169 25.9139 14.6236 25.9185 14.6316C25.9231 14.6396 25.9255 14.6487 25.9255 14.658V15.1672C25.9255 15.1765 25.9231 15.1855 25.9185 15.1936C25.9139 15.2016 25.9072 15.2083 25.8993 15.213L25.4583 15.4672C25.4502 15.472 25.441 15.4745 25.4316 15.4745C25.4223 15.4745 25.4131 15.472 25.405 15.4672L24.964 15.213C24.9559 15.2084 24.9491 15.2017 24.9444 15.1937C24.9397 15.1857 24.9371 15.1765 24.937 15.1672V14.658C24.937 14.6487 24.9394 14.6396 24.944 14.6316C24.9486 14.6235 24.9552 14.6168 24.9633 14.6122L25.405 14.358Z" fill="#689F63"/>
<mask id="mask0_271_17449" style="mask-type:luminance" maskUnits="userSpaceOnUse" x="10" y="12" width="6" height="6">
<path d="M12.7204 12.0465L10.4344 13.3657C10.3924 13.39 10.3575 13.4249 10.3333 13.4669C10.3091 13.5089 10.2963 13.5565 10.2964 13.605V16.2457C10.2963 16.2942 10.3091 16.3419 10.3333 16.3839C10.3575 16.4259 10.3924 16.4607 10.4344 16.485L12.7204 17.805C12.7624 17.8291 12.81 17.8418 12.8584 17.8418C12.9068 17.8418 12.9544 17.8291 12.9964 17.805L15.2816 16.485C15.3236 16.4607 15.3584 16.4258 15.3826 16.3838C15.4068 16.3418 15.4196 16.2942 15.4196 16.2457V13.605C15.4197 13.5565 15.4069 13.5089 15.3827 13.4669C15.3585 13.4249 15.3236 13.39 15.2816 13.3657L12.9964 12.0465C12.9543 12.0223 12.9066 12.0095 12.858 12.0095C12.8094 12.0095 12.7625 12.0223 12.7204 12.0465Z" fill="white"/>
</mask>
<g mask="url(#mask0_271_17449)">
<path d="M17.7293 13.1415L11.2883 9.98474L7.98828 16.7212L14.4285 19.8787L17.7293 13.1415Z" fill="url(#paint0_linear_271_17449)"/>
</g>
<mask id="mask1_271_17449" style="mask-type:luminance" maskUnits="userSpaceOnUse" x="10" y="12" width="6" height="6">
<path d="M10.354 16.413C10.3759 16.4432 10.4037 16.4688 10.4358 16.488L12.3963 17.6205L12.7225 17.808C12.7707 17.8356 12.8261 17.8482 12.8815 17.844C12.8998 17.8425 12.9179 17.8392 12.9355 17.8342L15.346 13.4205C15.3272 13.4003 15.3055 13.3831 15.2815 13.3695L13.7815 12.5055L12.9903 12.0502C12.9667 12.0373 12.9415 12.0277 12.9153 12.0217L10.354 16.413Z" fill="white"/>
</mask>
<g mask="url(#mask1_271_17449)">
<path d="M7.56787 14.0752L12.1159 20.2305L18.1301 15.7867L13.5821 9.63147L7.56787 14.0752Z" fill="url(#paint1_linear_271_17449)"/>
</g>
<mask id="mask2_271_17449" style="mask-type:luminance" maskUnits="userSpaceOnUse" x="10" y="12" width="6" height="6">
<path d="M12.8304 12.0105C12.7916 12.0144 12.7541 12.0264 12.7202 12.0458L10.4409 13.3612L12.8987 17.838C12.9333 17.8331 12.9666 17.8217 12.9969 17.8043L15.2829 16.4843C15.3174 16.4643 15.3472 16.4372 15.3702 16.4047C15.3933 16.3722 15.409 16.3351 15.4164 16.296L12.9107 12.0158C12.8921 12.0122 12.8733 12.0104 12.8544 12.0105H12.8319" fill="white"/>
</mask>
<g mask="url(#mask2_271_17449)">
<path d="M10.4409 12.0095V17.8378H15.4149V12.0095H10.4409Z" fill="url(#paint2_linear_271_17449)"/>
</g>
<defs>
<linearGradient id="paint0_linear_271_17449" x1="-0.26234" y1="-0.245655" x2="-0.174671" y2="-0.245655" gradientUnits="userSpaceOnUse">
<stop offset="0.3" stop-color="#3E863D"/>
<stop offset="0.5" stop-color="#55934F"/>
<stop offset="0.8" stop-color="#5AAD45"/>
</linearGradient>
<linearGradient id="paint1_linear_271_17449" x1="-0.269314" y1="-0.246801" x2="-0.216503" y2="-0.246801" gradientUnits="userSpaceOnUse">
<stop offset="0.57" stop-color="#3E863D"/>
<stop offset="0.72" stop-color="#619857"/>
<stop offset="1" stop-color="#76AC64"/>
</linearGradient>
<linearGradient id="paint2_linear_271_17449" x1="-0.243216" y1="-0.247282" x2="-0.193476" y2="-0.247282" gradientUnits="userSpaceOnUse">
<stop offset="0.16" stop-color="#6BBF47"/>
<stop offset="0.38" stop-color="#79B461"/>
<stop offset="0.47" stop-color="#75AC64"/>
<stop offset="0.7" stop-color="#659E5A"/>
<stop offset="0.9" stop-color="#3E863D"/>
</linearGradient>
</defs>
</svg>
