<svg width="201" height="201" viewBox="0 0 201 201" fill="none" xmlns="http://www.w3.org/2000/svg">
<path d="M100.315 135.063C99.9444 135.061 99.581 134.963 99.26 134.778L95.8674 132.771C95.3612 132.486 95.6073 132.388 95.776 132.328C96.314 132.157 96.8288 131.921 97.3089 131.625C97.349 131.605 97.3933 131.597 97.4377 131.6C97.4821 131.603 97.5249 131.618 97.562 131.642L100.167 133.189C100.216 133.214 100.27 133.227 100.325 133.227C100.38 133.227 100.434 133.214 100.483 133.189L110.644 127.325C110.691 127.297 110.73 127.256 110.757 127.208C110.784 127.16 110.798 127.106 110.798 127.051V115.33C110.798 115.273 110.784 115.218 110.756 115.168C110.729 115.119 110.689 115.078 110.64 115.048L100.483 109.188C100.436 109.16 100.382 109.146 100.327 109.146C100.272 109.146 100.218 109.16 100.171 109.188L90.0069 115.048C89.9581 115.077 89.9174 115.117 89.8891 115.166C89.8607 115.215 89.8456 115.27 89.8452 115.326V127.051C89.8454 127.106 89.8601 127.16 89.8879 127.207C89.9157 127.255 89.9555 127.294 90.0034 127.322L92.7843 128.928C94.296 129.684 95.2171 128.795 95.2171 127.898V116.328C95.2166 116.289 95.2239 116.251 95.2386 116.215C95.2533 116.179 95.2751 116.147 95.3027 116.119C95.3303 116.092 95.363 116.071 95.399 116.057C95.4351 116.042 95.4736 116.035 95.5124 116.036H96.7991C96.8765 116.036 96.9507 116.067 97.0054 116.122C97.0601 116.177 97.0909 116.251 97.0909 116.328V127.905C97.1444 128.32 97.1048 128.742 96.9748 129.139C96.8448 129.537 96.6278 129.9 96.3395 130.204C96.0512 130.507 95.6989 130.742 95.3083 130.891C94.9176 131.041 94.4985 131.102 94.0815 131.069C93.2565 131.083 92.4445 130.862 91.7401 130.433L89.0752 128.897C88.7534 128.706 88.4868 128.435 88.3019 128.11C88.1169 127.785 88.0199 127.418 88.0205 127.044V115.33C88.0185 114.955 88.1149 114.587 88.3 114.262C88.4851 113.937 88.7524 113.666 89.0752 113.477L99.246 107.609C99.5737 107.43 99.9412 107.336 100.315 107.336C100.688 107.336 101.056 107.43 101.383 107.609L111.54 113.481C111.862 113.671 112.129 113.942 112.314 114.267C112.499 114.592 112.596 114.959 112.595 115.333V127.058C112.595 127.432 112.498 127.799 112.314 128.124C112.129 128.449 111.862 128.72 111.54 128.911L101.383 134.778C101.063 134.963 100.699 135.061 100.329 135.063" fill="#F5F5F5"/>
<path d="M103.455 126.984C99.0113 126.984 98.0762 124.945 98.0762 123.233C98.0762 123.194 98.0839 123.156 98.0988 123.12C98.1136 123.085 98.1354 123.052 98.1629 123.025C98.1904 122.998 98.223 122.977 98.2588 122.962C98.2946 122.948 98.3329 122.941 98.3715 122.941H99.6828C99.7526 122.942 99.8199 122.967 99.8727 123.013C99.9254 123.059 99.9603 123.122 99.9711 123.191C100.168 124.527 100.759 125.202 103.448 125.202C105.589 125.202 106.5 124.717 106.5 123.581C106.5 122.927 106.239 122.442 102.914 122.115C100.133 121.841 98.4137 121.229 98.4137 119.004C98.4137 116.954 100.143 115.734 103.04 115.734C106.292 115.734 107.906 116.863 108.11 119.288C108.113 119.329 108.108 119.37 108.095 119.409C108.081 119.448 108.06 119.483 108.032 119.513C108.005 119.543 107.972 119.566 107.935 119.582C107.898 119.599 107.858 119.608 107.818 119.608H106.5C106.433 119.608 106.369 119.586 106.317 119.544C106.265 119.503 106.229 119.445 106.215 119.38C105.898 117.974 105.129 117.524 103.051 117.524C100.713 117.524 100.442 118.336 100.442 118.947C100.442 119.689 100.762 119.904 103.916 120.322C107.069 120.74 108.521 121.32 108.521 123.518C108.521 125.715 106.675 126.998 103.455 126.998M115.83 114.563H116.182C116.225 114.569 116.269 114.565 116.31 114.552C116.352 114.539 116.39 114.517 116.421 114.487C116.453 114.458 116.478 114.422 116.495 114.381C116.511 114.341 116.518 114.297 116.516 114.254C116.516 113.955 116.308 113.955 116.196 113.955H115.844L115.83 114.563ZM115.415 113.604H116.171C116.431 113.604 116.938 113.604 116.938 114.184C116.947 114.309 116.91 114.433 116.834 114.533C116.757 114.632 116.646 114.699 116.523 114.722C116.825 114.743 116.846 114.94 116.874 115.221C116.886 115.419 116.925 115.614 116.99 115.801H116.526C116.526 115.699 116.442 115.14 116.442 115.098C116.41 114.975 116.368 114.911 116.213 114.911H115.83V115.79H115.405L115.415 113.604ZM114.508 114.697C114.508 115.022 114.603 115.34 114.784 115.611C114.964 115.881 115.221 116.092 115.521 116.217C115.821 116.342 116.152 116.374 116.471 116.311C116.79 116.247 117.082 116.09 117.312 115.86C117.542 115.63 117.698 115.337 117.761 115.018C117.824 114.699 117.79 114.368 117.665 114.068C117.54 113.768 117.328 113.512 117.057 113.332C116.786 113.152 116.468 113.057 116.143 113.059C115.71 113.061 115.295 113.235 114.989 113.542C114.683 113.849 114.51 114.264 114.508 114.697ZM118.108 114.697C118.108 115.084 117.993 115.463 117.778 115.785C117.563 116.107 117.257 116.358 116.899 116.506C116.542 116.654 116.148 116.693 115.768 116.618C115.388 116.542 115.039 116.355 114.765 116.082C114.492 115.808 114.305 115.459 114.229 115.079C114.154 114.699 114.193 114.305 114.341 113.948C114.489 113.59 114.74 113.284 115.062 113.069C115.384 112.854 115.763 112.739 116.15 112.739C116.669 112.741 117.166 112.948 117.533 113.314C117.899 113.681 118.106 114.178 118.108 114.697Z" fill="#F5F5F5"/>
<path fill-rule="evenodd" clip-rule="evenodd" d="M68.8537 89.1876C68.8547 88.9583 68.795 88.7329 68.6808 88.5341C68.5666 88.3353 68.4019 88.1702 68.2033 88.0555L57.4314 81.861C57.2515 81.7568 57.0486 81.6989 56.8408 81.6923H56.7283C56.5195 81.6992 56.3155 81.7571 56.1342 81.861L45.3623 88.0591C45.1645 88.1745 45.0003 88.3398 44.8862 88.5384C44.7721 88.737 44.712 88.962 44.7119 89.1911L44.7365 105.887C44.7354 106.001 44.7648 106.113 44.8217 106.212C44.8785 106.311 44.9608 106.393 45.06 106.449C45.1572 106.509 45.2691 106.541 45.3834 106.541C45.4977 106.541 45.6096 106.509 45.7068 106.449L52.0947 102.779C52.2918 102.664 52.4554 102.499 52.5695 102.301C52.6835 102.103 52.7441 101.879 52.7451 101.65V93.8493C52.745 93.6211 52.8051 93.397 52.9193 93.1995C53.0335 93.002 53.1977 92.8381 53.3955 92.7243L56.1201 91.1528C56.3176 91.0378 56.542 90.9772 56.7705 90.977C56.998 90.9766 57.2214 91.0373 57.4174 91.1528L60.142 92.7208C60.3398 92.8345 60.504 92.9985 60.6182 93.196C60.7324 93.3935 60.7925 93.6176 60.7924 93.8458V101.643C60.7941 101.872 60.8554 102.096 60.97 102.294C61.0846 102.492 61.2488 102.657 61.4463 102.772L67.8447 106.435C67.9431 106.494 68.0555 106.525 68.1699 106.525C68.2844 106.525 68.3967 106.494 68.4951 106.435C68.5933 106.378 68.6748 106.296 68.7315 106.197C68.7883 106.098 68.8182 105.987 68.8186 105.873L68.8537 89.1876ZM119.683 97.8817C119.683 97.9387 119.668 97.9947 119.64 98.0441C119.611 98.0935 119.57 98.1345 119.521 98.163L115.822 100.297C115.773 100.325 115.717 100.34 115.661 100.34C115.604 100.34 115.548 100.325 115.499 100.297L111.797 98.1524C111.748 98.1239 111.707 98.0829 111.678 98.0335C111.65 97.9842 111.635 97.9281 111.635 97.8712V93.6102C111.636 93.5533 111.651 93.4975 111.679 93.4481C111.707 93.3988 111.748 93.3577 111.797 93.329L115.496 91.1915C115.545 91.1628 115.602 91.1477 115.659 91.1477C115.716 91.1477 115.773 91.1628 115.822 91.1915L119.524 93.329C119.574 93.3575 119.615 93.3985 119.643 93.4479C119.671 93.4973 119.686 93.5533 119.686 93.6102L119.683 97.8817ZM120.681 66.2411C120.582 66.1859 120.47 66.1576 120.357 66.159C120.243 66.1604 120.132 66.1914 120.035 66.2489C119.937 66.3065 119.856 66.3886 119.8 66.4872C119.743 66.5857 119.714 66.6972 119.714 66.8106V83.3341C119.717 83.4149 119.697 83.4949 119.658 83.5657C119.619 83.6365 119.562 83.6956 119.492 83.7368C119.423 83.7781 119.343 83.8 119.262 83.8002C119.182 83.8005 119.102 83.7791 119.032 83.7384L116.332 82.1844C116.135 82.0699 115.91 82.0096 115.682 82.0096C115.453 82.0096 115.229 82.0699 115.031 82.1844L104.26 88.4001C104.062 88.5138 103.898 88.6778 103.783 88.8753C103.669 89.0728 103.609 89.2969 103.609 89.5251V101.967C103.609 102.195 103.67 102.419 103.784 102.616C103.898 102.814 104.062 102.978 104.26 103.092L115.024 109.315C115.222 109.428 115.447 109.488 115.675 109.488C115.903 109.488 116.127 109.428 116.325 109.315L127.111 103.074C127.308 102.96 127.472 102.796 127.586 102.599C127.701 102.401 127.761 102.177 127.762 101.949V70.9591C127.761 70.7275 127.699 70.5003 127.581 70.3007C127.464 70.1012 127.296 69.9365 127.094 69.8235L120.681 66.2411ZM156.565 93.4977C156.762 93.3832 156.925 93.2191 157.039 93.0217C157.152 92.8242 157.212 92.6005 157.212 92.3727V89.3634C157.212 89.1356 157.152 88.9119 157.039 88.7144C156.925 88.517 156.762 88.3528 156.565 88.2384L145.856 82.0157C145.658 81.9009 145.433 81.8404 145.204 81.8404C144.975 81.8404 144.75 81.9009 144.552 82.0157L133.78 88.2348C133.583 88.3486 133.418 88.5125 133.304 88.71C133.19 88.9076 133.13 89.1317 133.13 89.3598V101.795C133.13 102.024 133.191 102.25 133.306 102.449C133.422 102.648 133.588 102.813 133.787 102.927L144.492 109.026C144.687 109.136 144.907 109.194 145.13 109.194C145.354 109.194 145.574 109.136 145.769 109.026L152.244 105.426C152.345 105.37 152.428 105.287 152.486 105.188C152.544 105.088 152.574 104.975 152.574 104.86C152.574 104.745 152.544 104.632 152.486 104.533C152.428 104.433 152.345 104.351 152.244 104.294L141.392 98.0856C141.292 98.0291 141.21 97.9473 141.152 97.8485C141.095 97.7497 141.065 97.6374 141.065 97.5231V93.6243C141.065 93.51 141.095 93.3978 141.152 93.2989C141.21 93.2001 141.292 93.1183 141.392 93.0618L144.763 91.1177C144.861 91.0605 144.973 91.0304 145.087 91.0304C145.2 91.0304 145.312 91.0605 145.41 91.1177L148.785 93.0618C148.884 93.1183 148.967 93.2001 149.024 93.2989C149.082 93.3978 149.112 93.51 149.112 93.6243V96.6899C149.112 96.8043 149.142 96.9166 149.199 97.0156C149.256 97.1147 149.339 97.1968 149.438 97.2539C149.537 97.3109 149.649 97.3408 149.764 97.3406C149.878 97.3403 149.99 97.3099 150.089 97.2524L156.565 93.4977Z" fill="#F5F5F5"/>
<path fill-rule="evenodd" clip-rule="evenodd" d="M145.048 92.9141C145.086 92.8919 145.129 92.8801 145.173 92.8801C145.217 92.8801 145.26 92.8919 145.298 92.9141L147.365 94.1059C147.402 94.1279 147.433 94.1592 147.455 94.1969C147.477 94.2345 147.488 94.277 147.488 94.3204V96.7075C147.488 96.7508 147.477 96.7934 147.455 96.831C147.433 96.8686 147.402 96.9 147.365 96.922L145.298 98.1137C145.26 98.136 145.217 98.1477 145.173 98.1477C145.129 98.1477 145.086 98.136 145.048 98.1137L142.981 96.922C142.943 96.9004 142.911 96.8692 142.889 96.8316C142.867 96.794 142.855 96.7512 142.854 96.7075V94.3204C142.854 94.2769 142.866 94.2342 142.887 94.1966C142.909 94.1589 142.94 94.1276 142.978 94.1059L145.048 92.9141Z" fill="#F5F5F5"/>
<mask id="mask0_616_22242" style="mask-type:luminance" maskUnits="userSpaceOnUse" x="74" y="81" width="25" height="29">
<path d="M85.5881 82.079L74.8724 88.263C74.6756 88.3767 74.5122 88.5401 74.3986 88.737C74.2851 88.9339 74.2254 89.1572 74.2256 89.3845V101.763C74.2254 101.99 74.2851 102.214 74.3986 102.41C74.5122 102.607 74.6756 102.771 74.8724 102.884L85.5881 109.072C85.7849 109.185 86.0079 109.245 86.235 109.245C86.462 109.245 86.685 109.185 86.8818 109.072L97.594 102.884C97.7906 102.771 97.9537 102.607 98.0673 102.41C98.1808 102.213 98.2406 101.99 98.2408 101.763V89.3845C98.241 89.1572 98.1813 88.9339 98.0677 88.737C97.9542 88.5401 97.7908 88.3767 97.594 88.263L86.8818 82.079C86.6845 81.9655 86.4608 81.9058 86.2332 81.9058C86.0055 81.9058 85.7854 81.9655 85.5881 82.079Z" fill="white"/>
</mask>
<g mask="url(#mask0_616_22242)">
<path d="M109.068 87.2118L78.876 72.4146L63.4072 103.992L93.5959 118.793L109.068 87.2118Z" fill="#F5F5F5"/>
</g>
<mask id="mask1_616_22242" style="mask-type:luminance" maskUnits="userSpaceOnUse" x="74" y="81" width="24" height="29">
<path d="M74.4971 102.547C74.5998 102.689 74.7301 102.808 74.8803 102.898L84.0701 108.207L85.5994 109.086C85.8254 109.216 86.085 109.274 86.3448 109.255C86.4304 109.248 86.5152 109.232 86.5979 109.209L97.8971 88.5196C97.809 88.4251 97.707 88.3444 97.5948 88.2805L90.5635 84.2305L86.8545 82.0965C86.7441 82.0358 86.6258 81.9908 86.503 81.9629L74.4971 102.547Z" fill="white"/>
</mask>
<g mask="url(#mask1_616_22242)">
<path d="M61.4375 91.5886L82.7562 120.441L110.948 99.6113L89.6293 70.7585L61.4375 91.5886Z" fill="#F5F5F5"/>
</g>
<mask id="mask2_616_22242" style="mask-type:luminance" maskUnits="userSpaceOnUse" x="74" y="81" width="25" height="29">
<path d="M86.1041 81.9102C85.9222 81.9285 85.7461 81.9848 85.5873 82.0754L74.9033 88.2418L86.4241 109.227C86.5863 109.204 86.7426 109.15 86.8846 109.068L97.6002 102.881C97.7619 102.787 97.9015 102.66 98.0095 102.508C98.1175 102.356 98.1913 102.182 98.226 101.998L86.4803 81.9348C86.3934 81.9179 86.3051 81.9097 86.2166 81.9102H86.1111" fill="white"/>
</mask>
<g mask="url(#mask2_616_22242)">
<path d="M74.9033 81.9055V109.225H98.2189V81.9055H74.9033Z" fill="#F5F5F5"/>
</g>
</svg>
