<svg width="32" height="32" viewBox="0 0 32 32" fill="none" xmlns="http://www.w3.org/2000/svg">
<path d="M8.25 4.29999H23.75C26.1 4.29999 28 6.19999 28 8.54999V23.45C28 25.8 26.1 27.7 23.75 27.7H8.25C5.9 27.7 4 25.8 4 23.45V8.54999C4 6.19999 5.9 4.29999 8.25 4.29999Z" fill="#001E36"/>
<path d="M9.3999 20.71V10.42C9.3999 10.35 9.4299 10.31 9.4999 10.31C9.6699 10.31 9.8299 10.31 10.0599 10.3C10.2999 10.29 10.5499 10.29 10.8199 10.28C11.0899 10.27 11.3799 10.27 11.6899 10.26C11.9999 10.25 12.2999 10.25 12.5999 10.25C13.4199 10.25 14.0999 10.35 14.6599 10.56C15.1599 10.73 15.6199 11.01 15.9999 11.38C16.3199 11.7 16.5699 12.09 16.7299 12.52C16.8799 12.94 16.9599 13.37 16.9599 13.82C16.9599 14.68 16.7599 15.39 16.3599 15.95C15.9599 16.51 15.3999 16.93 14.7499 17.17C14.0699 17.42 13.3199 17.51 12.4999 17.51C12.2599 17.51 12.0999 17.51 11.9999 17.5C11.8999 17.49 11.7599 17.49 11.5699 17.49V20.7C11.5799 20.77 11.5299 20.83 11.4599 20.84C11.4499 20.84 11.4399 20.84 11.4199 20.84H9.5199C9.4399 20.84 9.3999 20.8 9.3999 20.71ZM11.5799 12.24V15.6C11.7199 15.61 11.8499 15.62 11.9699 15.62H12.4999C12.8899 15.62 13.2799 15.56 13.6499 15.44C13.9699 15.35 14.2499 15.16 14.4699 14.91C14.6799 14.66 14.7799 14.32 14.7799 13.88C14.7899 13.57 14.7099 13.26 14.5499 12.99C14.3799 12.73 14.1399 12.53 13.8499 12.42C13.4799 12.27 13.0799 12.21 12.6699 12.22C12.4099 12.22 12.1799 12.22 11.9899 12.23C11.7899 12.22 11.6499 12.23 11.5799 12.24Z" fill="#31A8FF"/>
<path d="M23.2001 14.99C22.9001 14.83 22.5801 14.72 22.2401 14.65C21.8701 14.57 21.5001 14.52 21.1201 14.52C20.9201 14.51 20.7101 14.54 20.5201 14.59C20.3901 14.62 20.2801 14.69 20.2101 14.79C20.1601 14.87 20.1301 14.97 20.1301 15.06C20.1301 15.15 20.1701 15.24 20.2301 15.32C20.3201 15.43 20.4401 15.52 20.5701 15.59C20.8001 15.71 21.0401 15.82 21.2801 15.92C21.8201 16.1 22.3401 16.35 22.8201 16.65C23.1501 16.86 23.4201 17.14 23.6101 17.48C23.7701 17.8 23.8501 18.15 23.8401 18.51C23.8501 18.98 23.7101 19.45 23.4501 19.84C23.1701 20.24 22.7801 20.55 22.3301 20.73C21.8401 20.94 21.2401 21.05 20.5201 21.05C20.0601 21.05 19.6101 21.01 19.1601 20.92C18.8101 20.86 18.4601 20.75 18.1401 20.6C18.0701 20.56 18.0201 20.49 18.0301 20.41V18.67C18.0301 18.64 18.0401 18.6 18.0701 18.58C18.1001 18.56 18.1301 18.57 18.1601 18.59C18.5501 18.82 18.9601 18.98 19.4001 19.08C19.7801 19.18 20.1801 19.23 20.5801 19.23C20.9601 19.23 21.2301 19.18 21.4101 19.09C21.5701 19.02 21.6801 18.85 21.6801 18.67C21.6801 18.53 21.6001 18.4 21.4401 18.27C21.2801 18.14 20.9501 17.99 20.4601 17.8C19.9501 17.62 19.4801 17.38 19.0401 17.08C18.7301 16.86 18.4701 16.57 18.2801 16.23C18.1201 15.91 18.0401 15.56 18.0501 15.21C18.0501 14.78 18.1701 14.37 18.3901 14C18.6401 13.6 19.0101 13.28 19.4401 13.08C19.9101 12.84 20.5001 12.73 21.2101 12.73C21.6201 12.73 22.0401 12.76 22.4501 12.82C22.7501 12.86 23.0401 12.94 23.3101 13.05C23.3501 13.06 23.3901 13.1 23.4101 13.14C23.4201 13.18 23.4301 13.22 23.4301 13.26V14.89C23.4301 14.93 23.4101 14.97 23.3801 14.99C23.2901 15.01 23.2401 15.01 23.2001 14.99Z" fill="#31A8FF"/>
</svg>
