<svg width="201" height="201" viewBox="0 0 201 201" fill="none" xmlns="http://www.w3.org/2000/svg">
<path d="M91.8932 81.8229C92.8994 83.4788 93.4057 85.3962 93.3557 87.3323C93.3494 90.0714 92.6994 92.213 91.3932 93.7444C90.0307 95.3194 88.2494 96.4649 86.2557 97.0563C83.9369 97.8033 81.5057 98.1893 79.0619 98.2017H75.7432C75.0057 98.2017 74.1994 98.1644 73.3307 98.0959V77.2099C73.7994 77.1414 74.6494 77.0916 75.8932 77.0605C77.1369 77.0231 78.5619 77.0107 80.1682 77.0107C82.6807 76.9297 85.1744 77.3593 87.5182 78.262C89.3057 78.9717 90.8369 80.2167 91.8932 81.8229ZM175.962 54.2321V146.99C175.962 161.601 164.068 173.447 149.399 173.447H52.5244C37.8557 173.447 25.9619 161.601 25.9619 146.99V54.2321C25.9619 39.6212 37.8557 27.7744 52.5244 27.7744H149.399C164.068 27.7744 175.962 39.6212 175.962 54.2321ZM107.037 87.0335C107.049 84.2819 106.568 81.5489 105.631 78.9654C104.631 76.3072 103.074 73.898 101.049 71.8997C98.6682 69.5901 95.7932 67.847 92.6494 66.7887C89.1557 65.5187 84.8682 64.8837 79.7682 64.8837C77.8869 64.8837 75.9932 64.8961 74.0807 64.9335C72.1682 64.9646 70.3619 64.9958 68.6494 65.0331C66.9369 65.0642 65.3432 65.1016 63.8682 65.1327C62.3932 65.1638 61.4119 65.1825 60.3432 65.1825C59.9369 65.1825 59.7369 65.4191 59.7369 65.886V129.932C59.7369 130.468 59.9744 130.729 60.4432 130.729H72.4244C72.4994 130.742 72.5744 130.742 72.6494 130.729C73.0869 130.667 73.3932 130.262 73.3307 129.826V109.831C74.5369 109.831 75.4432 109.849 76.0432 109.88C76.6494 109.918 77.6869 109.93 79.1619 109.93C84.3307 109.93 89.0244 109.401 93.2494 107.826C97.3057 106.388 100.818 103.749 103.312 100.262C105.799 96.7886 107.037 92.3811 107.037 87.0335ZM149.868 116.249C149.912 114.027 149.412 111.823 148.412 109.837C147.218 107.733 145.524 105.959 143.481 104.676C140.474 102.771 137.243 101.24 133.868 100.113C132.356 99.5153 130.874 98.8305 129.443 98.0586C128.637 97.6539 127.918 97.0874 127.331 96.4026C126.956 95.9544 126.743 95.3879 126.724 94.8027C126.724 94.1988 126.899 93.6074 127.224 93.097C127.712 92.462 128.406 92.02 129.187 91.8457C130.418 91.5095 131.687 91.3601 132.962 91.3912C135.318 91.4037 137.662 91.6714 139.956 92.1943C142.037 92.6238 144.056 93.3335 145.943 94.2985C146.218 94.4354 146.537 94.4354 146.812 94.2985C147.012 94.1677 147.124 93.9374 147.112 93.7008V83.5784C147.112 83.3232 147.081 83.0679 147.012 82.8251C146.906 82.5575 146.687 82.352 146.406 82.2711C144.687 81.5427 142.868 81.0571 141.012 80.8206C138.449 80.4346 135.856 80.2478 133.268 80.2665C128.837 80.2665 125.149 81.0073 122.199 82.4703C119.512 83.7091 117.237 85.695 115.656 88.1852C114.268 90.4512 113.537 93.0534 113.543 95.7054C113.512 97.9092 114.012 100.094 114.999 102.068C116.143 104.166 117.762 105.965 119.731 107.328C122.481 109.227 125.474 110.746 128.637 111.841C131.724 112.974 133.768 113.946 134.774 114.749C135.781 115.552 136.287 116.386 136.287 117.251C136.293 118.372 135.643 119.393 134.624 119.86C133.518 120.457 131.787 120.762 129.443 120.762C126.962 120.725 124.499 120.408 122.093 119.81C119.368 119.194 116.756 118.166 114.349 116.753C114.193 116.623 113.968 116.604 113.793 116.703C113.612 116.822 113.518 117.033 113.543 117.251V128.077C113.524 128.581 113.799 129.048 114.249 129.279C116.287 130.206 118.431 130.885 120.637 131.283C123.437 131.844 126.287 132.117 129.137 132.086C133.631 132.086 137.406 131.42 140.462 130.082C143.281 128.936 145.706 127 147.456 124.516C149.087 122.07 149.931 119.187 149.868 116.249Z" fill="#F5F5F5"/>
</svg>
