<svg width="32" height="32" viewBox="0 0 32 32" fill="none" xmlns="http://www.w3.org/2000/svg">
<path d="M24.653 17.345C23.8162 17.3494 23.0889 17.5509 22.4799 17.8489C22.2565 17.4064 22.033 17.0121 21.9936 16.7229C21.9498 16.3856 21.8972 16.1796 21.9498 15.7766C22.0024 15.3735 22.2389 14.7996 22.2346 14.7558C22.2302 14.712 22.182 14.506 21.7001 14.5017C21.2181 14.4973 20.8019 14.5937 20.7537 14.7207C20.7055 14.8478 20.6135 15.1369 20.5522 15.4348C20.469 15.873 19.5883 17.437 19.0845 18.2563C18.9224 17.9365 18.7822 17.6561 18.7515 17.4327C18.7077 17.0953 18.6552 16.8894 18.7077 16.4863C18.7603 16.0833 18.9969 15.5093 18.9925 15.4655C18.9881 15.4217 18.9399 15.2158 18.458 15.2114C17.9761 15.207 17.5599 15.3034 17.5117 15.4305C17.4635 15.5575 17.4109 15.8554 17.3101 16.1446C17.2094 16.4337 16.0396 19.0449 15.7329 19.7196C15.5752 20.0657 15.4394 20.3417 15.343 20.5301C15.343 20.5301 15.3386 20.5433 15.3255 20.5652C15.2422 20.7273 15.194 20.8149 15.194 20.8149C15.194 20.8149 15.194 20.8149 15.194 20.8193C15.1283 20.9376 15.0582 21.0471 15.0232 21.0471C14.9969 21.0471 14.9487 20.7317 15.0319 20.3023C15.2072 19.3954 15.6234 17.9847 15.619 17.9365C15.619 17.9102 15.6979 17.6649 15.3474 17.5378C15.0056 17.4107 14.883 17.621 14.8523 17.621C14.8216 17.621 14.7997 17.6955 14.7997 17.6955C14.7997 17.6955 15.1809 16.1095 14.0725 16.1095C13.3802 16.1095 12.4251 16.8675 11.952 17.5509C11.6541 17.713 11.0188 18.0592 10.3397 18.4316C10.0812 18.5761 9.81397 18.7207 9.56425 18.8565C9.54672 18.839 9.5292 18.8171 9.51167 18.7996C8.17104 17.3669 5.6913 16.3549 5.79645 14.4316C5.83588 13.7306 6.07684 11.8905 10.5588 9.65609C14.2477 7.83791 17.1831 8.34174 17.6913 9.45894C18.4186 11.0537 16.1185 14.0153 12.3069 14.4447C10.8523 14.6068 10.09 14.046 9.89722 13.8357C9.69568 13.6167 9.66501 13.6035 9.59053 13.6473C9.46786 13.713 9.54672 13.9102 9.59053 14.0241C9.70444 14.322 10.1732 14.8478 10.9662 15.1063C11.6672 15.3341 13.3715 15.4611 15.435 14.6638C17.7439 13.77 19.5489 11.2859 19.0188 9.20483C18.4887 7.09311 14.9837 6.39651 11.6672 7.57504C9.69568 8.27603 7.55767 9.38008 6.01989 10.8171C4.19294 12.5258 3.90379 14.011 4.02208 14.6331C4.44705 16.8412 7.49196 18.2782 8.70992 19.3428C8.64858 19.3779 8.59163 19.4086 8.54344 19.4348C7.93445 19.7371 5.61244 20.9507 5.03413 22.2344C4.37695 23.6889 5.13927 24.7317 5.64311 24.8719C7.20718 25.3056 8.81507 24.5258 9.67816 23.2377C10.5412 21.9496 10.4361 20.276 10.0374 19.5093C10.033 19.5006 10.0286 19.4918 10.0199 19.483C10.1776 19.391 10.3397 19.2946 10.4974 19.2026C10.8085 19.0186 11.1152 18.8478 11.378 18.7076C11.2291 19.115 11.1196 19.6013 11.067 20.3023C11.0013 21.126 11.3386 22.195 11.7811 22.6156C11.9783 22.7996 12.2105 22.804 12.3594 22.804C12.8764 22.804 13.1086 22.3746 13.3671 21.8664C13.6825 21.2443 13.9673 20.5214 13.9673 20.5214C13.9673 20.5214 13.6124 22.4754 14.5763 22.4754C14.9268 22.4754 15.2817 22.0197 15.4394 21.7875C15.4394 21.7919 15.4394 21.7919 15.4394 21.7919C15.4394 21.7919 15.4481 21.7788 15.4657 21.7481C15.5007 21.6911 15.5226 21.6561 15.5226 21.6561C15.5226 21.6561 15.5226 21.6517 15.5226 21.6473C15.6628 21.402 15.9783 20.8456 16.4471 19.9212C17.0517 18.7295 17.6343 17.2399 17.6343 17.2399C17.6343 17.2399 17.6869 17.6035 17.8665 18.2081C17.9717 18.563 18.1908 18.9529 18.366 19.3297C18.2258 19.5268 18.1382 19.6364 18.1382 19.6364C18.1382 19.6364 18.1382 19.6364 18.1426 19.6408C18.0286 19.7897 17.906 19.9518 17.7702 20.1095C17.2926 20.6791 16.7231 21.3319 16.6442 21.5203C16.5522 21.7437 16.5741 21.9058 16.7494 22.0373C16.8764 22.1336 17.1042 22.1468 17.3364 22.1336C17.7658 22.103 18.0681 21.9978 18.217 21.9321C18.4492 21.8489 18.7209 21.7218 18.975 21.5334C19.4438 21.1873 19.7285 20.6922 19.7023 20.0394C19.6891 19.6802 19.5708 19.3209 19.4262 18.9836C19.4701 18.9222 19.5095 18.8609 19.5533 18.7996C20.2937 17.7174 20.8676 16.5301 20.8676 16.5301C20.8676 16.5301 20.9202 16.8938 21.0998 17.4984C21.1875 17.8051 21.3671 18.138 21.5248 18.4622C20.8282 19.0274 20.3989 19.6846 20.2455 20.1139C19.9695 20.9113 20.1842 21.2705 20.5916 21.3538C20.7756 21.3932 21.0385 21.3056 21.2313 21.2224C21.4766 21.1435 21.7658 21.0077 22.0418 20.8061C22.5106 20.46 22.9618 19.9781 22.9356 19.3253C22.9224 19.0274 22.8435 18.7339 22.734 18.4491C23.3255 18.2037 24.0878 18.0679 25.0604 18.1818C27.1458 18.4272 27.5577 19.7284 27.4788 20.276C27.4 20.8237 26.9618 21.1216 26.8173 21.2136C26.6727 21.3056 26.6245 21.3363 26.6376 21.402C26.6552 21.4984 26.7253 21.494 26.8479 21.4765C27.0188 21.4458 27.9432 21.034 27.9827 20.0263C28.0484 18.7382 26.8216 17.3319 24.653 17.345ZM8.56534 22.7689C7.87312 23.5225 6.90926 23.8072 6.49305 23.5663C6.04617 23.3078 6.22142 22.195 7.07137 21.3976C7.58834 20.9113 8.25428 20.46 8.69678 20.184C8.79754 20.1227 8.9465 20.0351 9.12613 19.9255C9.1568 19.908 9.17432 19.8992 9.17432 19.8992C9.20937 19.8773 9.24442 19.8554 9.27947 19.8335C9.59053 20.9726 9.29261 21.9759 8.56534 22.7689ZM13.6037 19.3428C13.3627 19.9299 12.8589 21.4327 12.5522 21.3494C12.2893 21.2793 12.1272 20.1402 12.4996 19.0143C12.688 18.4491 13.0867 17.7744 13.3189 17.5115C13.6957 17.0909 14.1119 16.9507 14.2127 17.1216C14.3397 17.345 13.7526 18.9748 13.6037 19.3428ZM17.7614 21.3319C17.6606 21.3845 17.5642 21.4195 17.5204 21.3932C17.4898 21.3757 17.5642 21.3056 17.5642 21.3056C17.5642 21.3056 18.0856 20.7448 18.2915 20.4907C18.4098 20.3417 18.55 20.1665 18.699 19.9693C18.699 19.9869 18.699 20.0088 18.699 20.0263C18.699 20.6966 18.0506 21.1479 17.7614 21.3319ZM20.9684 20.6002C20.8939 20.5477 20.9071 20.3724 21.1568 19.8248C21.2532 19.6101 21.481 19.2508 21.8709 18.9047C21.9147 19.0449 21.9454 19.1807 21.941 19.3078C21.9366 20.1534 21.332 20.4688 20.9684 20.6002Z" fill="#CD6799"/>
</svg>
