<svg width="201" height="201" viewBox="0 0 201 201" fill="none" xmlns="http://www.w3.org/2000/svg">
<path d="M141.521 106.916C137.599 106.936 134.19 107.881 131.335 109.277C130.288 107.203 129.24 105.355 129.056 103.999C128.85 102.418 128.604 101.453 128.85 99.5635C129.097 97.6741 130.206 94.9838 130.185 94.7784C130.165 94.5731 129.939 93.6078 127.68 93.5873C125.421 93.5668 123.47 94.0186 123.244 94.6141C123.018 95.2097 122.587 96.5651 122.299 97.9616C121.909 100.015 117.781 107.347 115.419 111.187C114.659 109.688 114.002 108.374 113.858 107.326C113.653 105.745 113.407 104.78 113.653 102.89C113.9 101.001 115.009 98.3107 114.988 98.1054C114.967 97.9 114.742 96.9348 112.483 96.9142C110.223 96.8937 108.273 97.3455 108.047 97.9411C107.821 98.5366 107.574 99.9331 107.102 101.289C106.63 102.644 101.146 114.884 99.7087 118.046C98.9694 119.669 98.3327 120.963 97.8809 121.846C97.8809 121.846 97.8604 121.907 97.7988 122.01C97.4086 122.77 97.1827 123.181 97.1827 123.181C97.1827 123.181 97.1827 123.181 97.1827 123.201C96.8746 123.756 96.5461 124.269 96.3818 124.269C96.2585 124.269 96.0326 122.79 96.4228 120.778C97.2443 116.527 99.1953 109.914 99.1748 109.688C99.1748 109.565 99.5444 108.415 97.9015 107.819C96.2996 107.224 95.7246 108.209 95.5808 108.209C95.4371 108.209 95.3344 108.559 95.3344 108.559C95.3344 108.559 97.1211 101.124 91.9253 101.124C88.6805 101.124 84.2035 104.677 81.9855 107.881C80.589 108.641 77.6112 110.263 74.428 112.009C73.2164 112.686 71.9636 113.364 70.793 114.001C70.7109 113.919 70.6287 113.816 70.5466 113.734C64.2624 107.018 52.6386 102.274 53.1315 93.2587C53.3163 89.9728 54.4458 81.3474 75.4549 70.8737C92.7468 62.351 106.506 64.7127 108.889 69.9496C112.298 77.4249 101.516 91.3077 83.649 93.3203C76.8308 94.0802 73.2574 91.4515 72.3538 90.4657C71.4091 89.4389 71.2654 89.3773 70.9163 89.5826C70.3412 89.8907 70.7109 90.8148 70.9163 91.3488C71.4502 92.7453 73.6476 95.2097 77.3648 96.4214C80.6507 97.4893 88.6394 98.0848 98.3122 94.3472C109.135 90.1577 117.596 78.5134 115.111 68.7584C112.626 58.8598 96.1969 55.5944 80.6507 61.1188C71.4091 64.4047 61.3872 69.5799 54.1789 76.3159C45.6151 84.3253 44.2596 91.2872 44.8141 94.2034C46.8062 104.554 61.0792 111.29 66.7884 116.28C66.5009 116.445 66.2339 116.588 66.008 116.712C63.1534 118.129 52.2689 123.817 49.5581 129.835C46.4776 136.653 50.051 141.54 52.4127 142.198C59.7443 144.231 67.2813 140.575 71.327 134.537C75.3727 128.5 74.8798 120.655 73.011 117.061C72.9905 117.02 72.9699 116.979 72.9289 116.938C73.6682 116.506 74.428 116.054 75.1674 115.623C76.6255 114.761 78.063 113.96 79.2952 113.303C78.597 115.212 78.0836 117.492 77.8371 120.778C77.5291 124.639 79.1104 129.65 81.1846 131.621C82.1088 132.484 83.1972 132.504 83.8955 132.504C86.3188 132.504 87.4072 130.492 88.6189 128.109C90.0975 125.193 91.4324 121.805 91.4324 121.805C91.4324 121.805 89.7689 130.964 94.287 130.964C95.93 130.964 97.5934 128.828 98.3327 127.74C98.3327 127.76 98.3327 127.76 98.3327 127.76C98.3327 127.76 98.3738 127.699 98.456 127.555C98.6203 127.288 98.7229 127.124 98.7229 127.124C98.7229 127.124 98.7229 127.103 98.7229 127.083C99.3801 125.933 100.859 123.324 103.056 118.991C105.89 113.405 108.622 106.423 108.622 106.423C108.622 106.423 108.868 108.127 109.71 110.961C110.203 112.625 111.23 114.453 112.051 116.219C111.394 117.143 110.983 117.656 110.983 117.656C110.983 117.656 110.983 117.656 111.004 117.677C110.47 118.375 109.895 119.135 109.258 119.874C107.02 122.544 104.35 125.604 103.98 126.487C103.549 127.534 103.652 128.294 104.473 128.91C105.069 129.362 106.137 129.424 107.225 129.362C109.238 129.218 110.655 128.726 111.353 128.418C112.441 128.027 113.715 127.432 114.906 126.549C117.103 124.926 118.438 122.606 118.315 119.546C118.253 117.862 117.699 116.178 117.021 114.596C117.227 114.309 117.411 114.021 117.617 113.734C121.087 108.661 123.778 103.096 123.778 103.096C123.778 103.096 124.024 104.8 124.866 107.634C125.277 109.072 126.119 110.633 126.858 112.152C123.593 114.802 121.58 117.882 120.861 119.895C119.568 123.632 120.574 125.316 122.484 125.707C123.346 125.892 124.579 125.481 125.482 125.091C126.632 124.721 127.988 124.084 129.282 123.14C131.479 121.517 133.594 119.258 133.471 116.198C133.409 114.802 133.04 113.426 132.526 112.091C135.299 110.941 138.872 110.304 143.431 110.838C153.207 111.988 155.137 118.088 154.768 120.655C154.398 123.222 152.344 124.618 151.667 125.05C150.989 125.481 150.763 125.625 150.825 125.933C150.907 126.384 151.235 126.364 151.81 126.282C152.611 126.138 156.944 124.208 157.129 119.484C157.437 113.446 151.687 106.854 141.521 106.916ZM66.1107 132.34C62.8659 135.872 58.3478 137.207 56.3968 136.078C54.3021 134.866 55.1235 129.65 59.1077 125.912C61.531 123.632 64.6526 121.517 66.7268 120.223C67.1991 119.936 67.8974 119.525 68.7394 119.012C68.8831 118.93 68.9653 118.888 68.9653 118.888C69.1296 118.786 69.2939 118.683 69.4582 118.58C70.9163 123.92 69.5198 128.623 66.1107 132.34ZM89.7279 116.28C88.5984 119.032 86.2366 126.076 84.7991 125.686C83.5669 125.358 82.807 120.018 84.5526 114.74C85.4357 112.091 87.3045 108.928 88.393 107.696C90.1591 105.724 92.1101 105.067 92.5825 105.868C93.178 106.916 90.4261 114.555 89.7279 116.28ZM109.217 125.604C108.745 125.85 108.293 126.015 108.088 125.892C107.944 125.809 108.293 125.481 108.293 125.481C108.293 125.481 110.737 122.852 111.702 121.661C112.257 120.963 112.914 120.141 113.612 119.217C113.612 119.299 113.612 119.402 113.612 119.484C113.612 122.626 110.573 124.741 109.217 125.604ZM124.25 122.174C123.901 121.928 123.963 121.106 125.133 118.539C125.585 117.533 126.653 115.849 128.481 114.227C128.686 114.884 128.83 115.52 128.809 116.116C128.789 120.08 125.955 121.558 124.25 122.174Z" fill="#F5F5F5"/>
</svg>
