<svg width="32" height="32" viewBox="0 0 32 32" fill="none" xmlns="http://www.w3.org/2000/svg">
<path d="M4.42285 12.4751C4.42285 8.7181 4.42285 6.8401 5.58985 5.6751C6.75685 4.5101 8.63585 4.5061 12.3919 4.5061H19.4419C23.1989 4.5061 25.0769 4.5061 26.2419 5.6731C27.4069 6.8401 27.4089 8.7181 27.4089 12.4731V19.5231C27.4089 23.2801 27.4089 25.1581 26.2419 26.3231C25.0749 27.4881 23.1969 27.4901 19.4419 27.4901H12.3919C8.63485 27.4901 6.75685 27.4901 5.59185 26.3231C4.42685 25.1561 4.42285 23.2821 4.42285 19.5251V12.4751Z" fill="#4945FF"/>
<path fill-rule="evenodd" clip-rule="evenodd" d="M20.2839 11.4791H12.5439V15.4261H16.4899V19.3721H20.4349V11.6321C20.4349 11.5919 20.4191 11.5533 20.3908 11.5246C20.3626 11.496 20.3242 11.4797 20.2839 11.4791Z" fill="white"/>
<path d="M16.4909 15.4261H16.3379V15.5791H16.4909V15.4261Z" fill="white"/>
<path d="M12.5469 15.4251H16.3399C16.3805 15.4251 16.4194 15.4412 16.4481 15.4699C16.4768 15.4986 16.4929 15.5375 16.4929 15.5781V19.3711H12.6999C12.6593 19.3711 12.6204 19.355 12.5917 19.3263C12.563 19.2976 12.5469 19.2587 12.5469 19.2181V15.4251Z" fill="#9593FF"/>
<path d="M16.4907 19.3721H20.4367L16.6227 23.1851C16.612 23.1957 16.5983 23.2029 16.5835 23.2058C16.5687 23.2087 16.5533 23.2072 16.5394 23.2014C16.5254 23.1957 16.5135 23.1859 16.505 23.1734C16.4965 23.1609 16.4919 23.1462 16.4917 23.1311L16.4907 19.3721Z" fill="#9593FF"/>
<path d="M12.5456 15.4251H8.78363C8.76853 15.4249 8.75382 15.4203 8.74132 15.4118C8.72882 15.4034 8.71909 15.3914 8.71333 15.3774C8.70758 15.3635 8.70605 15.3481 8.70895 15.3333C8.71185 15.3185 8.71904 15.3049 8.72963 15.2941L12.5456 11.4781V15.4251Z" fill="#9593FF"/>
</svg>
