<svg width="201" height="201" viewBox="0 0 201 201" fill="none" xmlns="http://www.w3.org/2000/svg">
<path d="M169.8 115.514C178.017 107.297 178.017 93.9244 169.794 85.7073C165.817 81.7248 160.521 79.5371 154.891 79.5371C153.553 79.5371 152.239 79.6544 150.955 79.8949C156.55 76.0708 160.175 69.6367 160.175 62.4811C160.175 50.8563 150.72 41.4016 139.096 41.4016C131.928 41.4016 125.482 45.0439 121.658 50.6569C122.925 43.9823 120.937 36.8503 115.869 31.7827C111.887 27.8003 106.597 25.6067 100.966 25.6067C95.3354 25.6067 90.045 27.8003 86.0625 31.7827C80.995 36.8503 79.0067 43.9823 80.2736 50.6569C76.4495 45.0439 70.0036 41.4016 62.8364 41.4016C51.2116 41.4016 41.7569 50.8563 41.7569 62.4811C41.7569 69.6367 45.3816 76.0708 50.9769 79.8949C49.6925 79.6544 48.3787 79.5371 47.0414 79.5371C41.4108 79.5371 36.1146 81.7248 32.138 85.7073C28.1555 89.6897 25.9619 94.9801 25.9619 100.611C25.9619 106.241 28.1555 111.538 32.138 115.514C36.1146 119.497 41.4108 121.69 47.0414 121.69C48.3787 121.69 49.6925 121.567 50.9769 121.327C45.3816 125.157 41.7569 131.591 41.7569 138.746C41.7569 150.365 51.2116 159.82 62.8364 159.82C70.0036 159.82 76.4495 156.183 80.2736 150.57C79.0067 157.239 80.995 164.371 86.0625 169.445C90.045 173.427 95.3354 175.615 100.966 175.615C106.597 175.615 111.887 173.427 115.869 169.445C120.937 164.371 122.925 157.239 121.658 150.57C125.482 156.183 131.928 159.82 139.096 159.82C150.72 159.82 160.175 150.365 160.175 138.746C160.175 131.591 156.55 125.157 150.955 121.327C152.239 121.567 153.553 121.69 154.891 121.69C160.521 121.69 165.817 119.497 169.8 115.514ZM146.339 109.162H121.6L139.096 126.658C145.77 126.658 151.184 132.066 151.184 138.746C151.184 145.427 145.77 150.834 139.096 150.834C132.421 150.834 127.007 145.421 127.007 138.746L109.512 121.25V145.99C114.233 150.711 114.233 158.365 109.512 163.087C104.79 167.808 97.136 167.808 92.4145 163.087C87.693 158.365 87.693 150.711 92.4145 145.99V121.25L74.9186 138.746C74.9186 145.421 69.5051 150.834 62.8305 150.834C56.1559 150.834 50.7423 145.421 50.7423 138.746C50.7423 132.072 56.1559 126.658 62.8305 126.658L80.3264 109.162H55.5811C50.8655 113.884 43.2056 113.884 38.49 109.162C33.7685 104.441 33.7685 96.7866 38.49 92.0651C43.2056 87.3437 50.8596 87.3437 55.5811 92.0651H80.3264L62.8305 74.5693C56.1559 74.5693 50.7423 69.1557 50.7423 62.4811C50.7423 55.8065 56.1559 50.393 62.8305 50.393C69.5051 50.393 74.9186 55.8065 74.9186 62.4811L92.4145 79.977V55.2318C87.693 50.5103 87.693 42.8562 92.4145 38.1406C97.136 33.4191 104.79 33.4191 109.512 38.1406C114.233 42.8562 114.233 50.5103 109.512 55.2318V79.977L127.007 62.4811C127.007 55.8065 132.415 50.393 139.096 50.393C145.776 50.393 151.184 55.8065 151.184 62.4811C151.184 69.1557 145.77 74.5693 139.096 74.5693L121.6 92.0651H146.339C151.061 87.3437 158.715 87.3437 163.436 92.0651C168.158 96.7866 168.158 104.441 163.436 109.162C158.715 113.884 151.061 113.884 146.339 109.162Z" fill="#F5F5F5"/>
</svg>
