<svg width="32" height="32" viewBox="0 0 32 32" fill="none" xmlns="http://www.w3.org/2000/svg">
<path d="M4.68018 16H27.3202V24C27.3202 25.88 25.8802 27.32 24.0002 27.32H8.00018C6.12018 27.32 4.68018 25.88 4.68018 24V16Z" fill="black"/>
<path d="M9.26801 14.7319C9.01721 14.4811 8.69766 14.3103 8.34978 14.2411C8.0019 14.1719 7.64131 14.2074 7.31362 14.3432C6.98592 14.4789 6.70584 14.7088 6.50878 15.0037C6.31172 15.2986 6.20654 15.6453 6.20654 16C6.20654 16.3547 6.31172 16.7015 6.50878 16.9964C6.70584 17.2913 6.98592 17.5212 7.31362 17.6569C7.64131 17.7926 8.0019 17.8281 8.34978 17.7589C8.69766 17.6897 9.01721 17.5189 9.26801 17.2681H22.7318C22.9826 17.5189 23.3022 17.6897 23.65 17.7589C23.9979 17.8281 24.3585 17.7926 24.6862 17.6569C25.0139 17.5212 25.294 17.2913 25.491 16.9964C25.6881 16.7015 25.7933 16.3547 25.7933 16C25.7933 15.6453 25.6881 15.2986 25.491 15.0037C25.294 14.7088 25.0139 14.4789 24.6862 14.3432C24.3585 14.2074 23.9979 14.1719 23.65 14.2411C23.3022 14.3103 22.9826 14.4811 22.7318 14.7319H9.26801Z" fill="#FFB13B"/>
<path d="M12.1366 10.3431C12.1366 9.98846 12.0314 9.64173 11.8344 9.34681C11.6373 9.05189 11.3572 8.82203 11.0296 8.6863C10.7019 8.55056 10.3413 8.51505 9.99339 8.58424C9.64551 8.65344 9.32597 8.82424 9.07516 9.07505C8.82435 9.32586 8.65355 9.6454 8.58435 9.99328C8.51515 10.3412 8.55067 10.7017 8.68641 11.0294C8.82214 11.3571 9.052 11.6372 9.34692 11.8343C9.64184 12.0313 9.98857 12.1365 10.3433 12.1365L19.8636 21.6569C19.8636 22.0116 19.9688 22.3583 20.1658 22.6532C20.3629 22.9481 20.643 23.178 20.9707 23.3137C21.2984 23.4494 21.659 23.485 22.0068 23.4158C22.3547 23.3466 22.6743 23.1758 22.9251 22.925C23.1759 22.6742 23.3467 22.3546 23.4159 22.0067C23.4851 21.6588 23.4496 21.2983 23.3138 20.9706C23.1781 20.6429 22.9482 20.3628 22.6533 20.1657C22.3584 19.9687 22.0117 19.8635 21.657 19.8635L12.1366 10.3431Z" fill="#FFB13B"/>
<path d="M17.2682 9.26813C17.519 9.01733 17.6898 8.69778 17.759 8.3499C17.8282 8.00202 17.7927 7.64144 17.6569 7.31374C17.5212 6.98605 17.2913 6.70596 16.9964 6.5089C16.7015 6.31184 16.3548 6.20667 16.0001 6.20667C15.6454 6.20667 15.2987 6.31184 15.0037 6.5089C14.7088 6.70596 14.479 6.98605 14.3432 7.31374C14.2075 7.64144 14.172 8.00202 14.2412 8.3499C14.3104 8.69778 14.4812 9.01733 14.732 9.26813V22.7319C14.4812 22.9827 14.3104 23.3023 14.2412 23.6502C14.172 23.998 14.2075 24.3586 14.3432 24.6863C14.479 25.014 14.7088 25.2941 15.0037 25.4912C15.2987 25.6882 15.6454 25.7934 16.0001 25.7934C16.3548 25.7934 16.7015 25.6882 16.9964 25.4912C17.2913 25.2941 17.5212 25.014 17.6569 24.6863C17.7927 24.3586 17.8282 23.998 17.759 23.6502C17.6898 23.3023 17.519 22.9827 17.2682 22.7319V9.26813Z" fill="#FFB13B"/>
<path d="M21.6567 12.1366C22.0114 12.1366 22.3581 12.0314 22.653 11.8343C22.9479 11.6373 23.1778 11.3572 23.3135 11.0295C23.4493 10.7018 23.4848 10.3412 23.4156 9.99333C23.3464 9.64545 23.1756 9.3259 22.9248 9.0751C22.674 8.82429 22.3544 8.65349 22.0065 8.58429C21.6587 8.51509 21.2981 8.55061 20.9704 8.68634C20.6427 8.82208 20.3626 9.05194 20.1655 9.34686C19.9685 9.64177 19.8633 9.9885 19.8633 10.3432L10.343 19.8635C9.98826 19.8635 9.64153 19.9687 9.34662 20.1658C9.0517 20.3628 8.82184 20.6429 8.6861 20.9706C8.55037 21.2983 8.51485 21.6589 8.58405 22.0068C8.65325 22.3547 8.82405 22.6742 9.07486 22.925C9.32566 23.1758 9.64521 23.3466 9.99309 23.4158C10.341 23.485 10.7016 23.4495 11.0293 23.3138C11.3569 23.178 11.637 22.9482 11.8341 22.6532C12.0311 22.3583 12.1363 22.0116 12.1363 21.6569L21.6567 12.1366Z" fill="#FFB13B"/>
<path d="M9.26801 14.7319C9.01721 14.4811 8.69766 14.3103 8.34978 14.2411C8.0019 14.1719 7.64131 14.2074 7.31362 14.3432C6.98592 14.4789 6.70584 14.7088 6.50878 15.0037C6.31172 15.2986 6.20654 15.6453 6.20654 16C6.20654 16.3547 6.31172 16.7015 6.50878 16.9964C6.70584 17.2913 6.98592 17.5212 7.31362 17.6569C7.64131 17.7926 8.0019 17.8281 8.34978 17.7589C8.69766 17.6897 9.01721 17.5189 9.26801 17.2681H22.7318C22.9826 17.5189 23.3022 17.6897 23.65 17.7589C23.9979 17.8281 24.3585 17.7926 24.6862 17.6569C25.0139 17.5212 25.294 17.2913 25.491 16.9964C25.6881 16.7015 25.7933 16.3547 25.7933 16C25.7933 15.6453 25.6881 15.2986 25.491 15.0037C25.294 14.7088 25.0139 14.4789 24.6862 14.3432C24.3585 14.2074 23.9979 14.1719 23.65 14.2411C23.3022 14.3103 22.9826 14.4811 22.7318 14.7319H9.26801Z" fill="#FFB13B"/>
<path d="M12.1366 10.3431C12.1366 9.98846 12.0314 9.64173 11.8344 9.34681C11.6373 9.05189 11.3572 8.82203 11.0296 8.6863C10.7019 8.55056 10.3413 8.51505 9.99339 8.58424C9.64551 8.65344 9.32597 8.82424 9.07516 9.07505C8.82435 9.32586 8.65355 9.6454 8.58435 9.99328C8.51515 10.3412 8.55067 10.7017 8.68641 11.0294C8.82214 11.3571 9.052 11.6372 9.34692 11.8343C9.64184 12.0313 9.98857 12.1365 10.3433 12.1365L19.8636 21.6569C19.8636 22.0116 19.9688 22.3583 20.1658 22.6532C20.3629 22.9481 20.643 23.178 20.9707 23.3137C21.2984 23.4494 21.659 23.485 22.0068 23.4158C22.3547 23.3466 22.6743 23.1758 22.9251 22.925C23.1759 22.6742 23.3467 22.3546 23.4159 22.0067C23.4851 21.6588 23.4496 21.2983 23.3138 20.9706C23.1781 20.6429 22.9482 20.3628 22.6533 20.1657C22.3584 19.9687 22.0117 19.8635 21.657 19.8635L12.1366 10.3431Z" fill="#FFB13B"/>
<path d="M17.2682 9.26813C17.519 9.01733 17.6898 8.69778 17.759 8.3499C17.8282 8.00202 17.7927 7.64144 17.6569 7.31374C17.5212 6.98605 17.2913 6.70596 16.9964 6.5089C16.7015 6.31184 16.3548 6.20667 16.0001 6.20667C15.6454 6.20667 15.2987 6.31184 15.0037 6.5089C14.7088 6.70596 14.479 6.98605 14.3432 7.31374C14.2075 7.64144 14.172 8.00202 14.2412 8.3499C14.3104 8.69778 14.4812 9.01733 14.732 9.26813V22.7319C14.4812 22.9827 14.3104 23.3023 14.2412 23.6502C14.172 23.998 14.2075 24.3586 14.3432 24.6863C14.479 25.014 14.7088 25.2941 15.0037 25.4912C15.2987 25.6882 15.6454 25.7934 16.0001 25.7934C16.3548 25.7934 16.7015 25.6882 16.9964 25.4912C17.2913 25.2941 17.5212 25.014 17.6569 24.6863C17.7927 24.3586 17.8282 23.998 17.759 23.6502C17.6898 23.3023 17.519 22.9827 17.2682 22.7319V9.26813Z" fill="#FFB13B"/>
<path d="M21.6567 12.1366C22.0114 12.1366 22.3581 12.0314 22.653 11.8343C22.9479 11.6373 23.1778 11.3572 23.3135 11.0295C23.4493 10.7018 23.4848 10.3412 23.4156 9.99333C23.3464 9.64545 23.1756 9.3259 22.9248 9.0751C22.674 8.82429 22.3544 8.65349 22.0065 8.58429C21.6587 8.51509 21.2981 8.55061 20.9704 8.68634C20.6427 8.82208 20.3626 9.05194 20.1655 9.34686C19.9685 9.64177 19.8633 9.9885 19.8633 10.3432L10.343 19.8635C9.98826 19.8635 9.64153 19.9687 9.34662 20.1658C9.0517 20.3628 8.82184 20.6429 8.6861 20.9706C8.55037 21.2983 8.51485 21.6589 8.58405 22.0068C8.65325 22.3547 8.82405 22.6742 9.07486 22.925C9.32566 23.1758 9.64521 23.3466 9.99309 23.4158C10.341 23.485 10.7016 23.4495 11.0293 23.3138C11.3569 23.178 11.637 22.9482 11.8341 22.6532C12.0311 22.3583 12.1363 22.0116 12.1363 21.6569L21.6567 12.1366Z" fill="#FFB13B"/>
<path d="M4.68018 16H27.3202V24C27.3202 25.88 25.8802 27.32 24.0002 27.32H8.00018C6.12018 27.32 4.68018 25.88 4.68018 24V16Z" fill="black"/>
<path d="M8.07697 21.6511C7.54593 21.1202 7.21729 20.3871 7.21729 19.5773C7.21729 17.9571 8.53137 16.6439 10.1507 16.6439C11.7709 16.6439 13.085 17.9571 13.085 19.5773H11.3666C11.3666 18.9063 10.8219 18.3624 10.1507 18.3624C9.47969 18.3624 8.93585 18.9063 8.93585 19.5773C8.93585 19.9125 9.07201 20.2162 9.29104 20.4354H9.29185C9.51185 20.6562 9.69505 20.72 10.1507 20.7923C10.9613 20.8767 11.6944 21.121 12.2253 21.6519C12.7563 22.1829 13.085 22.916 13.085 23.7258C13.085 25.3459 11.7709 26.66 10.1507 26.66C8.53137 26.66 7.21729 25.3459 7.21729 23.7258H8.93585C8.93585 24.3968 9.47969 24.9415 10.1507 24.9415C10.8219 24.9415 11.3666 24.3968 11.3666 23.7258C11.3666 23.3906 11.2304 23.0877 11.0112 22.8677H11.0104C10.7904 22.6477 10.4747 22.5719 10.1507 22.5115V22.5107C9.36513 22.3903 8.60785 22.1821 8.07697 21.6511Z" fill="white"/>
<path d="M18.9522 16.6439L16.877 26.66H15.1586L13.085 16.6439H14.8034L16.0194 22.5099L17.2338 16.6439H18.9522Z" fill="white"/>
<path d="M21.8864 20.7924H24.8198V23.7258H24.8206C24.8206 25.3461 23.5065 26.6602 21.8864 26.6602C20.2661 26.6602 18.9529 25.3461 18.9529 23.7258V19.5775H18.9521C18.9521 17.9573 20.2661 16.644 21.8864 16.644C23.5057 16.644 24.8198 17.9573 24.8198 19.5775H23.1013C23.1013 18.9071 22.5566 18.3624 21.8864 18.3624C21.2152 18.3624 20.6713 18.9071 20.6713 19.5775V23.7258C20.6713 24.397 21.2152 24.9408 21.8864 24.9408C22.5566 24.9408 23.1005 24.397 23.1013 23.7266V23.7258V22.5117H21.8864V20.7924Z" fill="white"/>
</svg>
