<svg width="201" height="201" viewBox="0 0 201 201" fill="none" xmlns="http://www.w3.org/2000/svg">
<path fill-rule="evenodd" clip-rule="evenodd" d="M31.5869 26.4536H170.337C173.443 26.4536 175.962 28.9437 175.962 32.0154V169.206C175.962 172.278 173.443 174.768 170.337 174.768H31.5869C28.4803 174.768 25.9619 172.278 25.9619 169.206V32.0154C25.9619 28.9437 28.4803 26.4536 31.5869 26.4536ZM109.346 105.359V93.1951H55.9619V105.359H75.0209V159.52H90.1934V105.359H109.346ZM115.395 158.09C117.842 159.323 120.735 160.249 124.076 160.865C127.417 161.482 130.938 161.79 134.639 161.79C138.247 161.79 141.673 161.451 144.92 160.773C148.167 160.095 151.013 158.976 153.46 157.419C155.906 155.862 157.844 153.827 159.271 151.314C160.698 148.8 161.412 145.694 161.412 141.993C161.412 139.311 161.004 136.96 160.188 134.94C159.373 132.92 158.197 131.124 156.659 129.551C155.123 127.978 153.28 126.568 151.131 125.319C148.982 124.07 146.559 122.89 143.862 121.78C141.885 120.978 140.113 120.2 138.544 119.444C136.976 118.689 135.643 117.918 134.545 117.132C133.447 116.345 132.601 115.513 132.004 114.634C131.408 113.755 131.111 112.761 131.111 111.651C131.111 110.633 131.377 109.716 131.91 108.899C132.444 108.081 133.196 107.38 134.169 106.794C135.141 106.208 136.333 105.753 137.745 105.429C139.156 105.106 140.725 104.944 142.45 104.944C143.705 104.944 145.03 105.036 146.426 105.221C147.822 105.406 149.225 105.692 150.637 106.077C152.049 106.462 153.421 106.948 154.754 107.534C156.087 108.12 157.318 108.798 158.448 109.569V95.7392C156.157 94.8756 153.656 94.2355 150.942 93.8197C148.229 93.4033 145.116 93.1951 141.603 93.1951C138.027 93.1951 134.639 93.5727 131.44 94.3285C128.24 95.0838 125.425 96.2635 122.994 97.867C120.563 99.4705 118.641 101.513 117.23 103.995C115.818 106.478 115.113 109.446 115.113 112.899C115.113 117.309 116.406 121.071 118.994 124.185C121.582 127.3 125.511 129.937 130.781 132.095C132.851 132.928 134.78 133.745 136.568 134.547C138.356 135.348 139.901 136.181 141.203 137.044C142.504 137.908 143.532 138.848 144.285 139.866C145.038 140.883 145.414 142.04 145.414 143.335C145.414 144.291 145.179 145.178 144.708 145.994C144.237 146.812 143.524 147.521 142.567 148.122C141.611 148.723 140.419 149.194 138.992 149.533C137.564 149.872 135.894 150.042 133.98 150.042C130.718 150.042 127.487 149.479 124.287 148.354C121.088 147.228 118.124 145.54 115.395 143.289V158.09Z" fill="#F5F5F5"/>
</svg>
