<svg width="32" height="32" viewBox="0 0 32 32" fill="none" xmlns="http://www.w3.org/2000/svg">
<path d="M25.6562 4H6.34375C5.04933 4 4 5.04933 4 6.34375V25.6562C4 26.9507 5.04933 28 6.34375 28H25.6562C26.9507 28 28 26.9507 28 25.6562V6.34375C28 5.04933 26.9507 4 25.6562 4Z" fill="#3178C6"/>
<path d="M25.6562 4H6.34375C5.04933 4 4 5.04933 4 6.34375V25.6562C4 26.9507 5.04933 28 6.34375 28H25.6562C26.9507 28 28 26.9507 28 25.6562V6.34375C28 5.04933 26.9507 4 25.6562 4Z" fill="#3178C6"/>
<path fill-rule="evenodd" clip-rule="evenodd" d="M18.8565 23.098V25.4446C19.238 25.6402 19.6892 25.7868 20.21 25.8846C20.7309 25.9824 21.2799 26.0312 21.857 26.0312C22.4194 26.0312 22.9537 25.9775 23.4599 25.8699C23.9661 25.7624 24.41 25.5851 24.7915 25.3383C25.1729 25.0914 25.4749 24.7687 25.6975 24.3703C25.92 23.9718 26.0312 23.4793 26.0312 22.8927C26.0312 22.4673 25.9677 22.0946 25.8405 21.7744C25.7133 21.4542 25.53 21.1694 25.2903 20.9201C25.0507 20.6708 24.7633 20.4471 24.4283 20.2491C24.0933 20.0511 23.7155 19.8641 23.2949 19.6881C22.9868 19.561 22.7104 19.4376 22.4659 19.3178C22.2213 19.198 22.0135 19.0758 21.8423 18.9512C21.6711 18.8265 21.5391 18.6945 21.4462 18.5552C21.3533 18.4158 21.3068 18.2582 21.3068 18.0821C21.3068 17.9208 21.3483 17.7754 21.4315 17.6458C21.5147 17.5163 21.632 17.4051 21.7836 17.3122C21.9353 17.2193 22.1211 17.1472 22.3412 17.0958C22.5613 17.0445 22.8058 17.0189 23.0748 17.0189C23.2704 17.0189 23.477 17.0335 23.6947 17.0628C23.9123 17.0922 24.1312 17.1374 24.3513 17.1985C24.5714 17.2596 24.7853 17.3366 24.9932 17.4295C25.201 17.5224 25.393 17.6299 25.5691 17.7522V15.5596C25.2121 15.4227 24.822 15.3212 24.399 15.2552C23.9759 15.1892 23.4905 15.1562 22.9427 15.1562C22.3852 15.1562 21.857 15.2162 21.3581 15.3359C20.8593 15.4557 20.4204 15.6427 20.0413 15.8969C19.6622 16.1511 19.3627 16.475 19.1426 16.8685C18.9226 17.2621 18.8125 17.7326 18.8125 18.2801C18.8125 18.9792 19.0142 19.5757 19.4177 20.0695C19.8212 20.5632 20.4338 20.9812 21.2554 21.3234C21.5782 21.4554 21.879 21.5849 22.1578 21.712C22.4365 21.8392 22.6774 21.9712 22.8804 22.108C23.0833 22.2449 23.2435 22.394 23.3609 22.5554C23.4783 22.7167 23.537 22.9 23.537 23.1054C23.537 23.2569 23.5003 23.3974 23.4269 23.527C23.3536 23.6566 23.2423 23.769 23.0931 23.8643C22.944 23.9597 22.7581 24.0342 22.5356 24.088C22.313 24.1418 22.0526 24.1686 21.7543 24.1686C21.2456 24.1686 20.7419 24.0794 20.243 23.901C19.7442 23.7226 19.282 23.4549 18.8565 23.098ZM14.9116 17.3163H17.9219V15.3906H9.53125V17.3163H12.5268V25.8906H14.9116V17.3163Z" fill="white"/>
</svg>
