<svg width="201" height="201" viewBox="0 0 201 201" fill="none" xmlns="http://www.w3.org/2000/svg">
<g clip-path="url(#clip0_616_22214)">
<path d="M100.962 15.4547L25.9619 58.024V143.198L100.962 185.767L175.962 143.198V58.024L100.962 15.4547ZM103.452 27.4082L164.073 61.8341L142.593 74.3285L142.282 74.158L103.452 52.6852V27.4082ZM98.2432 27.4082V52.6852L59.3838 74.1286L59.0732 74.2991L37.5928 61.8341L98.2432 27.4082ZM35.0732 66.3732L56.7002 78.8971V124.053L35.0732 136.583V66.3732ZM98.2432 173.814L39.1221 140.246L61.3936 127.352L98.2432 147.684V173.814ZM98.2432 141.751L61.9033 121.672V81.9369L98.2432 102.98V141.751ZM100.851 98.4649L64.3408 77.339L100.851 57.2009L137.331 77.339L100.851 98.4649ZM139.792 81.9369V121.702L103.452 141.751V102.98L139.792 81.9369ZM103.452 173.843V147.714L140.302 127.352L162.573 140.246L103.452 173.843ZM166.622 136.583L145.001 124.053V78.8971L166.622 66.3732V136.583Z" fill="#F5F5F5"/>
</g>
<defs>
<clipPath id="clip0_616_22214">
<rect width="150" height="170.312" fill="white" transform="translate(25.9619 15.4547)"/>
</clipPath>
</defs>
</svg>
