<svg width="32" height="32" viewBox="0 0 32 32" fill="none" xmlns="http://www.w3.org/2000/svg">
<path d="M16.772 2.99994L28.5435 9.65828V22.978L16.772 29.6363L5.00049 22.978V9.65828L16.772 2.99994Z" fill="white"/>
<path d="M26.4427 22.5186L17.1624 27.7687V23.6806L22.9447 20.4989L26.4427 22.5186ZM27.0784 21.9438V10.9662L23.6838 12.9281V19.9849L27.0784 21.9438ZM7.06687 22.5186L16.3472 27.7687V23.6806L10.5618 20.4989L7.06687 22.5186ZM6.43115 21.9438V10.9662L9.82572 12.9281V19.9849L6.43115 21.9438ZM6.82962 10.2544L16.3472 4.87054V8.82175L10.2485 12.1768L10.1999 12.2041L6.82962 10.2544ZM26.6799 10.2544L17.1624 4.87054V8.82175L23.261 12.1737L23.3097 12.2011L26.6799 10.2544Z" fill="#8ED6FB"/>
<path d="M16.3469 22.7497L10.6406 19.6106V13.3964L16.3469 16.6906V22.7497ZM17.1621 22.7497L22.8684 19.6137V13.3964L17.1621 16.6906V22.7497ZM11.0269 12.6785L16.7545 9.53033L22.4821 12.6785L16.7545 15.9849L11.0269 12.6785Z" fill="#1C78C0"/>
</svg>
