<svg width="268" height="98" viewBox="0 0 268 98" fill="none" xmlns="http://www.w3.org/2000/svg">
<path d="M147.878 35.5838C144.323 36.096 143.817 36.4972 142.441 40.6634C140.768 45.743 136.701 58.6426 133.911 67.7341H132.183C129.541 59.8153 126.14 50.0079 123.499 42.4903C120.555 51.23 117.555 59.9141 114.913 67.7341H113.241C110.698 59.0006 107.803 49.5018 105.087 40.614C103.767 36.4972 103.205 35.9417 99.9028 35.5838V34.1642H112.451V35.5838C108.692 35.9911 108.593 36.5528 109.303 39.0895C111.284 45.9467 113.315 52.7051 115.395 59.8647C118.191 51.7855 121.24 42.9532 123.826 34.6209H125.455C128.294 43.2618 131.14 51.2855 134.096 59.9264C136.226 53.1742 139.12 44.1321 140.268 39.7129C141.034 36.7688 140.626 36.1084 136.306 35.5961V34.1765H147.94L147.878 35.5838Z" fill="#1A1A1A"/>
<path d="M163.926 62.8582C160.673 66.9256 157.137 67.7958 155.495 67.7958C149.323 67.7958 145.539 62.7162 145.539 56.8713C145.485 53.5991 146.663 50.4262 148.841 47.9835C149.775 46.8728 150.93 45.9696 152.233 45.3318C153.536 44.6941 154.958 44.3359 156.408 44.2802C158.475 44.3204 160.444 45.1663 161.895 46.6376C163.347 48.1088 164.166 50.089 164.179 52.1558C164.129 53.1742 163.975 53.6309 163.16 53.8346C162.148 54.0321 155.643 54.495 149.582 54.6925C149.434 61.4818 153.594 64.2963 157.204 64.2963C159.284 64.2963 161.216 63.4322 163.093 61.704L163.926 62.8582ZM155.186 46.1936C152.853 46.1936 150.569 48.3785 149.853 52.4953C152.699 52.4953 155.544 52.4953 158.544 52.341C159.457 52.341 159.778 52.0879 159.778 51.3226C159.809 48.6377 158.031 46.1997 155.186 46.1997V46.1936Z" fill="#1A1A1A"/>
<path d="M196.477 67.586C195.817 67.586 195.243 67.5305 194.626 67.4811C190.922 67.228 188.935 66.2467 186.701 63.1112C184.849 60.5251 182.997 57.3218 181.368 54.7357C180.356 53.1063 179.695 52.8039 177.103 52.8039H175.326V60.7782C175.326 65.0987 175.881 65.3517 179.948 65.7529V67.1786H166.37V65.7529C170.585 65.2962 170.937 65.0925 170.937 60.7782V40.5153C170.937 36.1948 170.382 36.0405 166.37 35.5776V34.158H179.331C183.034 34.158 185.503 34.6148 187.46 35.8862C189.521 37.2132 190.879 39.4969 190.879 42.5953C190.879 46.9651 188.089 49.7055 184.331 51.3287C185.244 52.9026 187.417 56.3096 188.954 58.5933C190.164 60.4315 191.505 62.1806 192.965 63.8272C193.932 64.965 195.225 65.7792 196.669 66.1603L196.477 67.586ZM177.739 51.0757C180.38 51.0757 182.059 50.6683 183.325 49.6067C185.306 48.1316 186.121 46.101 186.121 43.3544C186.121 37.923 182.51 35.9479 178.603 35.9479C177.128 35.9479 176.264 36.1516 175.912 36.454C175.455 36.812 175.295 37.3181 175.295 38.639V51.0757H177.739Z" fill="#1A1A1A"/>
<path d="M197.668 67.1786V65.7529C200.921 65.4505 201.328 65.1974 201.328 61.846V37.5156C201.328 34.4296 201.075 34.1148 197.823 33.7075V32.3866C200.384 32.0842 202.904 31.5047 205.34 30.6584V61.846C205.34 65.1974 205.643 65.4505 208.945 65.7529V67.1786H197.668Z" fill="#1A1A1A"/>
<path d="M211.611 67.1786V65.7529C214.808 65.4505 215.166 65.1974 215.166 61.741V51.2794C215.166 48.1316 215.012 47.9279 211.969 47.4218V46.1874C214.441 45.7841 216.859 45.103 219.178 44.1568V61.741C219.178 65.1974 219.536 65.4443 222.838 65.7529V67.1786H211.611ZM216.894 39.1944C216.187 39.1727 215.514 38.8814 215.013 38.38C214.513 37.8787 214.223 37.2052 214.203 36.4972C214.197 36.1332 214.263 35.7716 214.398 35.4334C214.532 35.0952 214.733 34.7872 214.988 34.5275C215.243 34.2678 215.548 34.0615 215.884 33.9207C216.219 33.7799 216.58 33.7074 216.944 33.7075C217.299 33.7144 217.649 33.7928 217.974 33.9379C218.298 34.0831 218.59 34.2921 218.832 34.5524C219.074 34.8127 219.261 35.1191 219.382 35.4532C219.503 35.7873 219.555 36.1424 219.536 36.4972C219.535 37.2026 219.258 37.8794 218.764 38.3833C218.27 38.8873 217.6 39.1783 216.894 39.1944Z" fill="#1A1A1A"/>
<path d="M247.52 46.2491C244.774 46.6071 244.434 47.0144 243.101 50.0635C241.422 54.1247 238.528 60.8769 235.886 67.7341H234.417C232.281 61.8953 229.794 55.8529 227.405 49.9092C226.239 46.9651 225.832 46.6565 223.19 46.2491V44.8789H233.553V46.2491C230.757 46.6071 230.658 46.9651 231.467 49.1438C232.738 52.6496 234.874 58.0378 236.293 61.5929C238.145 57.0688 239.799 52.9026 240.916 49.6561C241.78 47.1873 241.626 46.6071 238.275 46.2491V44.8789H247.533L247.52 46.2491Z" fill="#1A1A1A"/>
<path d="M267.024 62.8582C263.771 66.9256 260.235 67.7958 258.587 67.7958C252.415 67.7958 248.638 62.7162 248.638 56.8713C248.584 53.6003 249.76 50.4284 251.933 47.9835C252.869 46.8732 254.025 45.9704 255.329 45.3327C256.633 44.695 258.056 44.3365 259.507 44.2802C261.573 44.3204 263.542 45.1663 264.994 46.6376C266.445 48.1088 267.265 50.089 267.277 52.1558C267.222 53.1742 267.074 53.6309 266.259 53.8346C265.247 54.0321 258.741 54.495 252.68 54.6925C252.526 61.4818 256.692 64.2963 260.297 64.2963C262.383 64.2963 264.308 63.4322 266.191 61.704L267.024 62.8582ZM258.284 46.1936C255.951 46.1936 253.662 48.3785 252.952 52.4953C255.797 52.4953 258.642 52.4953 261.636 52.341C262.549 52.341 262.87 52.0879 262.87 51.3226C262.907 48.6377 261.13 46.1997 258.284 46.1997V46.1936Z" fill="#1A1A1A"/>
<path d="M73.4057 13.9012L76.0782 0.797913H64.9191L62.0367 13.2717L61.5923 15.1912L54.0069 48.0205L50.8097 35.6763H42.9712L39.6197 48.0205L36.7682 40.7436H25.7079L34.3488 73.5112H42.749L46.8164 58.5377L51.2109 86.7935C54.0192 86.6639 56.7658 86.096 59.0556 83.6581L71.8935 21.3201C79.3569 27.5004 84.2585 36.2327 85.6475 45.8227C87.0365 55.4127 84.8138 65.1768 79.4106 73.2207C74.0075 81.2646 65.8091 87.0148 56.406 89.3556C47.0028 91.6965 37.0654 90.4612 28.5216 85.8894C19.9778 81.3176 13.4368 73.7352 10.1675 64.6133C6.89814 55.4913 7.13366 45.4802 10.8283 36.5221C14.523 27.564 21.4134 20.2976 30.1627 16.1326C38.9121 11.9676 48.8966 11.201 58.1792 13.9815L59.537 7.26008C48.4226 4.07518 36.5173 5.18177 26.1803 10.3606C15.8432 15.5393 7.82885 24.4124 3.72528 35.2214C-0.378295 46.0304 -0.271593 57.9866 4.02424 68.7206C8.32007 79.4547 16.4915 88.1833 26.9193 93.1768C37.3472 98.1702 49.2703 99.0642 60.3262 95.6814C71.382 92.2987 80.7636 84.8861 86.612 74.9126C92.4603 64.9391 94.3486 53.1325 91.9026 41.8324C89.4567 30.5324 82.855 20.5635 73.4057 13.9012Z" fill="#07374B"/>
<path d="M46.6992 32.4298C49.767 32.4298 52.254 29.9428 52.254 26.8749C52.254 23.8071 49.767 21.3201 46.6992 21.3201C43.6313 21.3201 41.1443 23.8071 41.1443 26.8749C41.1443 29.9428 43.6313 32.4298 46.6992 32.4298Z" fill="#07374B"/>
</svg>
