<svg width="39" height="40" viewBox="0 0 39 40" fill="none" xmlns="http://www.w3.org/2000/svg">
<path d="M30.9339 5.40893L32.037 0H27.4307L26.2408 5.14906L26.0574 5.94142L22.9262 19.4931L21.6064 14.3975H18.3708L16.9873 19.4931L15.8102 16.4892H11.2446L14.8115 30.0154H18.279L19.958 23.8345L21.772 35.4982C22.9313 35.4447 24.065 35.2103 25.0103 34.2039L30.3097 8.47136C33.3904 11.0226 35.4138 14.6271 35.9872 18.5858C36.5605 22.5445 35.643 26.575 33.4126 29.8955C31.1823 33.2159 27.798 35.5895 23.9165 36.5558C20.035 37.5221 15.9329 37.0122 12.4061 35.125C8.87931 33.2378 6.17922 30.1079 4.82968 26.3424C3.48013 22.5769 3.57735 18.4444 5.10248 14.7466C6.6276 11.0488 9.47189 8.04929 13.0835 6.33002C16.6952 4.61075 20.8167 4.2943 24.6485 5.44206L25.209 2.66752C20.6211 1.35283 15.7067 1.80962 11.4396 3.94737C7.17258 6.08513 3.86432 9.74784 2.1704 14.2097C0.476488 18.6716 0.520534 23.607 2.29381 28.0379C4.06709 32.4688 7.4402 36.0719 11.7447 38.1332C16.0492 40.1944 20.971 40.5634 25.5347 39.1671C30.0985 37.7707 33.9711 34.7108 36.3853 30.5939C38.7994 26.4769 39.5789 21.6032 38.5692 16.9387C37.5596 12.2741 34.8344 8.15905 30.9339 5.40893Z" fill="#07374B"/>
<path d="M19.9095 13.0574C21.1758 13.0574 22.2025 12.0308 22.2025 10.7644C22.2025 9.49799 21.1758 8.47137 19.9095 8.47137C18.6431 8.47137 17.6165 9.49799 17.6165 10.7644C17.6165 12.0308 18.6431 13.0574 19.9095 13.0574Z" fill="#07374B"/>
</svg>
