<svg width="273" height="170" viewBox="0 0 273 170" fill="none" xmlns="http://www.w3.org/2000/svg">
<circle cx="53.4702" cy="116.531" r="53.4702" fill="#FE7625"/>
<path d="M144.093 140.78C132.445 140.78 126.153 138.905 125.216 135.157L118.588 109.25H86.6569L80.8329 134.152C80.0296 138.303 73.6031 140.378 61.5535 140.378C55.1271 140.378 50.3741 140.043 47.2948 139.374C44.2155 138.571 42.6758 137.968 42.6758 137.566L78.2221 1.60662C78.2221 0.53554 87.3932 0 105.735 0C124.078 0 133.249 0.53554 133.249 1.60662L167.992 137.767C167.992 138.704 164.912 139.441 158.754 139.976C152.595 140.512 147.708 140.78 144.093 140.78ZM91.6776 83.7448H112.764L103.727 42.1737H102.522L91.6776 83.7448Z" fill="#545465"/>
<path d="M192.949 67.4779C189.2 60.7836 187.326 55.3613 187.326 51.2109C187.326 46.9266 188.464 44.1819 190.74 42.977C198.372 39.6299 208.815 37.9563 222.069 37.9563C235.458 37.9563 244.896 41.1026 250.386 47.3952C255.875 53.5539 258.62 62.725 258.62 74.9085V106.639H265.448C267.724 106.639 269.464 107.978 270.669 110.656C272.008 113.333 272.678 117.015 272.678 121.701C272.678 126.387 271.473 131.006 269.063 135.558C266.787 140.11 263.64 142.386 259.624 142.386C252.394 142.386 246.57 140.445 242.152 136.562C240.144 134.956 238.604 133.014 237.533 130.738C231.374 138.504 221.801 142.386 208.815 142.386C199.041 142.386 190.807 138.905 184.113 131.943C177.419 124.981 174.072 116.747 174.072 107.242C174.072 85.4184 187.125 74.5068 213.233 74.5068H224.278V72.4985C224.278 69.0175 223.676 66.8084 222.471 65.8712C221.4 64.8002 218.789 64.2646 214.639 64.2646C209.551 64.2646 202.321 65.3357 192.949 67.4779ZM209.015 104.43C209.015 107.375 209.819 109.652 211.425 111.258C213.032 112.731 215.04 113.467 217.45 113.467C219.994 113.467 222.27 112.463 224.278 110.455V94.9911H218.655C212.229 94.9911 209.015 98.1374 209.015 104.43Z" fill="#545465"/>
<path fill-rule="evenodd" clip-rule="evenodd" d="M106.449 109.249H86.6569L80.8329 134.152C80.0296 138.302 73.6031 140.377 61.5535 140.377C55.1271 140.377 50.3741 140.043 47.2948 139.373C44.2155 138.57 42.6758 137.967 42.6758 137.566L61.9788 63.7344C74.0034 65.6572 84.6897 71.589 92.6239 80.1162L91.6776 83.744H95.7113C101.342 90.9882 105.151 99.7194 106.449 109.249Z" fill="#FCFCFC"/>
</svg>
