<svg width="1841" height="2188" viewBox="0 0 1841 2188" fill="none" xmlns="http://www.w3.org/2000/svg">
<path opacity="0.5" d="M137.468 1132.28L139.416 1132.74L137.468 1132.28ZM612.297 882.678L610.751 881.409L612.297 882.678ZM1241.46 892.928L1243.07 894.112L1241.46 892.928ZM1087.16 394.551L1088.15 392.814L1087.16 394.551ZM166.595 2.45746C166.848 1.38218 166.181 0.305671 165.106 0.0530209C164.031 -0.199629 162.954 0.46725 162.701 1.54254L166.595 2.45746ZM311.165 1274.67L313.127 1275.06L311.165 1274.67ZM1766.68 1420.67L1766 1422.55L1766.68 1420.67ZM966.064 2131.25L966.876 2133.08L966.876 2133.08L966.064 2131.25ZM3.47334 2132.6C6.93364 2128.83 10.4163 2125.24 13.9216 2121.82L11.1272 2118.96C7.56824 2122.43 4.03482 2126.08 0.526661 2129.9L3.47334 2132.6ZM36.1122 2102.61C44.1592 2096.49 52.3227 2091.16 60.6055 2086.56L58.6632 2083.06C50.2091 2087.76 41.8859 2093.19 33.6913 2099.42L36.1122 2102.61ZM87.1944 2074.36C96.457 2070.96 105.871 2068.32 115.44 2066.39L114.647 2062.47C104.885 2064.44 95.275 2067.13 85.8139 2070.61L87.1944 2074.36ZM144.544 2062.59C154.199 2061.98 164.01 2061.96 173.981 2062.45L174.179 2058.46C164.072 2057.95 154.11 2057.98 144.291 2058.6L144.544 2062.59ZM203.383 2065.28C212.937 2066.61 222.63 2068.32 232.466 2070.37L233.28 2066.45C223.368 2064.39 213.587 2062.66 203.934 2061.32L203.383 2065.28ZM261.229 2077.12C270.607 2079.55 280.109 2082.21 289.736 2085.07L290.872 2081.23C281.209 2078.37 271.663 2075.69 262.232 2073.25L261.229 2077.12ZM318.04 2093.83C327.318 2096.81 336.707 2099.91 346.209 2103.1L347.482 2099.31C337.969 2096.12 328.562 2093.01 319.263 2090.02L318.04 2093.83ZM374.314 2112.64C383.578 2115.8 392.948 2119 402.421 2122.22L403.706 2118.43C394.238 2115.22 384.873 2112.01 375.606 2108.85L374.314 2112.64ZM430.59 2131.66C439.918 2134.74 449.346 2137.8 458.873 2140.81L460.076 2136.99C450.569 2133.99 441.159 2130.94 431.844 2127.86L430.59 2131.66ZM487.292 2149.49C496.724 2152.27 506.25 2154.98 515.873 2157.58L516.915 2153.71C507.326 2151.13 497.829 2148.43 488.424 2145.66L487.292 2149.49ZM544.664 2164.93C554.242 2167.24 563.912 2169.41 573.675 2171.43L574.486 2167.52C564.767 2165.5 555.139 2163.34 545.6 2161.04L544.664 2164.93ZM602.903 2176.95C612.622 2178.6 622.431 2180.09 632.332 2181.37L632.847 2177.41C623.001 2176.13 613.243 2174.65 603.573 2173.01L602.903 2176.95ZM661.94 2184.59C671.763 2185.44 681.673 2186.09 691.672 2186.5L691.838 2182.51C681.902 2182.1 672.052 2181.45 662.287 2180.6L661.94 2184.59ZM721.384 2187.04C731.207 2186.98 741.113 2186.69 751.103 2186.14L750.883 2182.15C740.961 2182.69 731.12 2182.98 721.361 2183.04L721.384 2187.04ZM780.774 2183.77C790.556 2182.73 800.416 2181.45 810.355 2179.89L809.735 2175.94C799.863 2177.49 790.07 2178.76 780.354 2179.79L780.774 2183.77ZM839.643 2174.53C849.198 2172.53 858.823 2170.27 868.52 2167.74L867.509 2163.87C857.876 2166.39 848.314 2168.63 838.824 2170.61L839.643 2174.53ZM897.131 2159.51C906.52 2156.56 915.975 2153.35 925.496 2149.86L924.119 2146.1C914.657 2149.57 905.262 2152.76 895.933 2155.69L897.131 2159.51ZM952.992 2139.07C957.605 2137.14 962.233 2135.14 966.876 2133.08L965.251 2129.42C960.635 2131.48 956.034 2133.46 951.448 2135.38L952.992 2139.07ZM966.876 2133.08C971.579 2130.99 976.266 2128.9 980.937 2126.81L979.302 2123.16C974.635 2125.25 969.951 2127.33 965.251 2129.42L966.876 2133.08ZM1008.77 2114.25C1018.03 2110.04 1027.23 2105.83 1036.36 2101.62L1034.68 2097.98C1025.56 2102.19 1016.37 2106.4 1007.11 2110.61L1008.77 2114.25ZM1064.13 2088.7C1073.32 2084.39 1082.44 2080.09 1091.49 2075.78L1089.77 2072.17C1080.73 2076.47 1071.62 2080.77 1062.44 2085.08L1064.13 2088.7ZM1119.18 2062.5C1128.34 2058.07 1137.42 2053.64 1146.43 2049.21L1144.66 2045.62C1135.66 2050.04 1126.59 2054.47 1117.44 2058.9L1119.18 2062.5ZM1173.88 2035.61C1183 2031.05 1192.04 2026.5 1201 2021.94L1199.18 2018.38C1190.24 2022.93 1181.2 2027.48 1172.09 2032.03L1173.88 2035.61ZM1228.22 2007.99C1237.29 2003.3 1246.27 1998.62 1255.16 1993.94L1253.3 1990.4C1244.42 1995.07 1235.44 1999.75 1226.38 2004.44L1228.22 2007.99ZM1282.17 1979.59C1291.17 1974.77 1300.08 1969.95 1308.89 1965.14L1306.97 1961.63C1298.17 1966.43 1289.27 1971.25 1280.28 1976.07L1282.17 1979.59ZM1335.68 1950.36C1344.6 1945.39 1353.41 1940.44 1362.12 1935.49L1360.15 1932.01C1351.45 1936.95 1342.64 1941.9 1333.73 1946.87L1335.68 1950.36ZM1388.7 1920.23C1397.51 1915.12 1406.21 1910.02 1414.79 1904.93L1412.75 1901.49C1404.18 1906.57 1395.5 1911.66 1386.69 1916.77L1388.7 1920.23ZM1441.15 1889.12C1449.9 1883.81 1458.51 1878.52 1467 1873.25L1464.89 1869.85C1456.42 1875.11 1447.81 1880.4 1439.07 1885.7L1441.15 1889.12ZM1492.9 1856.95C1501.59 1851.41 1510.13 1845.89 1518.53 1840.4L1516.34 1837.05C1507.96 1842.54 1499.43 1848.05 1490.75 1853.58L1492.9 1856.95ZM1543.77 1823.63C1552.4 1817.82 1560.85 1812.04 1569.12 1806.29L1566.84 1803.01C1558.58 1808.75 1550.15 1814.52 1541.54 1820.32L1543.77 1823.63ZM1593.99 1788.73C1602.35 1782.73 1610.52 1776.76 1618.49 1770.83L1616.1 1767.62C1608.15 1773.53 1600 1779.49 1591.66 1785.48L1593.99 1788.73ZM1642.94 1752.25C1651.16 1745.88 1659.14 1739.56 1666.87 1733.3L1664.36 1730.19C1656.64 1736.44 1648.69 1742.74 1640.49 1749.09L1642.94 1752.25ZM1690.27 1713.87C1698.17 1707.13 1705.78 1700.47 1713.09 1693.87L1710.41 1690.9C1703.13 1697.47 1695.55 1704.11 1687.67 1710.82L1690.27 1713.87ZM1735.51 1672.96C1743.1 1665.62 1750.3 1658.39 1757.1 1651.26L1754.2 1648.5C1747.44 1655.59 1740.29 1662.78 1732.73 1670.08L1735.51 1672.96ZM1777.63 1628.62C1784.58 1620.54 1790.96 1612.62 1796.78 1604.85L1793.58 1602.45C1787.82 1610.14 1781.49 1618 1774.6 1626.01L1777.63 1628.62ZM1814.09 1579.56C1819.85 1570.2 1824.69 1561.11 1828.6 1552.31L1824.94 1550.69C1821.12 1559.3 1816.37 1568.24 1810.69 1577.46L1814.09 1579.56ZM1838.26 1523.23C1840.56 1512.35 1841.12 1502 1839.87 1492.25L1835.9 1492.76C1837.09 1502 1836.56 1511.89 1834.34 1522.41L1838.26 1523.23ZM1829.44 1462.97C1824.25 1454.68 1817.23 1447.12 1808.39 1440.33L1805.95 1443.5C1814.47 1450.04 1821.14 1457.26 1826.05 1465.09L1829.44 1462.97ZM1781.87 1424.7C1777.3 1422.61 1772.47 1420.64 1767.36 1418.79L1766 1422.55C1771.01 1424.37 1775.74 1426.3 1780.2 1428.34L1781.87 1424.7ZM1767.36 1418.79C1763.09 1417.24 1758.44 1415.97 1753.46 1414.96L1752.67 1418.88C1757.49 1419.86 1761.94 1421.07 1766 1422.55L1767.36 1418.79ZM1723.79 1412C1714.6 1411.81 1704.69 1412.14 1694.11 1412.93L1694.41 1416.92C1704.88 1416.14 1714.66 1415.82 1723.7 1416L1723.79 1412ZM1664.39 1416.11C1654.96 1417.38 1645.12 1418.93 1634.91 1420.72L1635.6 1424.66C1645.77 1422.88 1655.56 1421.34 1664.93 1420.07L1664.39 1416.11ZM1606.26 1426.2C1596.78 1428.14 1587.03 1430.26 1577.02 1432.53L1577.91 1436.43C1587.89 1434.16 1597.61 1432.05 1607.06 1430.12L1606.26 1426.2ZM1548.47 1439.27C1539.07 1441.56 1529.48 1443.97 1519.71 1446.48L1520.7 1450.36C1530.46 1447.85 1540.03 1445.44 1549.42 1443.15L1548.47 1439.27ZM1491.15 1453.98C1481.77 1456.49 1472.26 1459.08 1462.61 1461.73L1463.68 1465.59C1473.32 1462.93 1482.82 1460.35 1492.18 1457.85L1491.15 1453.98ZM1434.17 1469.66C1424.79 1472.3 1415.29 1475 1405.7 1477.75L1406.8 1481.6C1416.39 1478.85 1425.88 1476.15 1435.25 1473.51L1434.17 1469.66ZM1377.39 1485.9C1367.97 1488.63 1358.47 1491.39 1348.89 1494.19L1350 1498.03C1359.58 1495.23 1369.08 1492.47 1378.5 1489.74L1377.39 1485.9ZM1320.68 1502.43C1311.23 1505.2 1301.71 1507.99 1292.13 1510.79L1293.25 1514.63C1302.83 1511.82 1312.35 1509.04 1321.8 1506.27L1320.68 1502.43ZM1263.97 1519.03C1254.53 1521.78 1245.05 1524.55 1235.52 1527.32L1236.63 1531.16C1246.16 1528.39 1255.65 1525.62 1265.09 1522.87L1263.97 1519.03ZM1207.21 1535.52C1197.78 1538.23 1188.32 1540.95 1178.83 1543.66L1179.92 1547.5C1189.42 1544.8 1198.89 1542.08 1208.32 1539.36L1207.21 1535.52ZM1150.39 1551.72C1140.94 1554.38 1131.47 1557.03 1121.98 1559.65L1123.05 1563.51C1132.54 1560.88 1142.02 1558.23 1151.47 1555.57L1150.39 1551.72ZM1093.49 1567.47C1083.99 1570.06 1074.49 1572.61 1064.98 1575.14L1066 1579C1075.52 1576.48 1085.03 1573.92 1094.53 1571.33L1093.49 1567.47ZM1036.45 1582.63C1026.9 1585.1 1017.35 1587.54 1007.81 1589.93L1008.79 1593.81C1018.34 1591.41 1027.89 1588.97 1037.45 1586.5L1036.45 1582.63ZM979.166 1597.01C969.589 1599.34 960.027 1601.62 950.488 1603.84L951.397 1607.74C960.949 1605.51 970.522 1603.23 980.109 1600.9L979.166 1597.01ZM921.642 1610.43C912.054 1612.56 902.494 1614.64 892.97 1616.65L893.797 1620.57C903.336 1618.55 912.91 1616.47 922.512 1614.33L921.642 1610.43ZM863.877 1622.62C854.213 1624.53 844.593 1626.38 835.024 1628.14L835.749 1632.07C845.336 1630.31 854.974 1628.46 864.655 1626.54L863.877 1622.62ZM805.858 1633.29C796.101 1634.93 786.406 1636.48 776.781 1637.93L777.377 1641.89C787.026 1640.43 796.744 1638.88 806.522 1637.23L805.858 1633.29ZM747.568 1642.06C737.71 1643.35 727.936 1644.53 718.255 1645.59L718.689 1649.56C728.4 1648.5 738.203 1647.32 748.088 1646.02L747.568 1642.06ZM688.991 1648.42C679.041 1649.26 669.204 1649.96 659.488 1650.51L659.712 1654.5C669.467 1653.95 679.342 1653.25 689.327 1652.41L688.991 1648.42ZM630.157 1651.69C620.155 1651.93 610.301 1651.99 600.607 1651.86L600.553 1655.86C610.3 1655.99 620.204 1655.93 630.253 1655.69L630.157 1651.69ZM571.228 1650.85C561.267 1650.28 551.501 1649.49 541.945 1648.46L541.515 1652.44C551.143 1653.48 560.977 1654.27 571.002 1654.84L571.228 1650.85ZM512.702 1644.43C502.963 1642.78 493.483 1640.83 484.277 1638.59L483.329 1642.47C492.633 1644.74 502.207 1646.7 512.032 1648.37L512.702 1644.43ZM455.778 1630.35C446.367 1627.17 437.309 1623.6 428.623 1619.64L426.962 1623.28C435.779 1627.3 444.965 1630.92 454.497 1634.14L455.778 1630.35ZM402.876 1606.01C394.443 1600.86 386.462 1595.23 378.96 1589.1L376.428 1592.19C384.078 1598.45 392.209 1604.19 400.791 1609.42L402.876 1606.01ZM357.869 1569.11C351.358 1561.94 345.347 1554.25 339.864 1546L336.532 1548.21C342.127 1556.63 348.262 1564.48 354.909 1571.8L357.869 1569.11ZM325.607 1520.78C321.553 1512.28 317.958 1503.29 314.843 1493.79L311.042 1495.04C314.209 1504.69 317.867 1513.84 321.996 1522.5L325.607 1520.78ZM307.22 1465.04C305.347 1456.02 303.846 1446.6 302.731 1436.79L298.757 1437.24C299.885 1447.17 301.405 1456.7 303.303 1465.86L307.22 1465.04ZM300.575 1406.72C300.278 1397.55 300.278 1388.08 300.585 1378.29L296.587 1378.17C296.277 1388.04 296.277 1397.59 296.577 1406.85L300.575 1406.72ZM302.437 1347.98C303.253 1338.83 304.312 1329.43 305.621 1319.78L301.657 1319.24C300.341 1328.95 299.274 1338.41 298.453 1347.62L302.437 1347.98ZM310.251 1290.35C311.147 1285.32 312.105 1280.22 313.127 1275.06L309.203 1274.29C308.177 1279.47 307.213 1284.59 306.313 1289.65L310.251 1290.35ZM313.127 1275.06C314.156 1269.87 315.166 1264.73 316.16 1259.63L312.234 1258.87C311.241 1263.96 310.231 1269.1 309.203 1274.29L313.127 1275.06ZM321.912 1229.64C323.774 1219.77 325.567 1210.09 327.292 1200.6L323.356 1199.88C321.633 1209.36 319.842 1219.04 317.981 1228.9L321.912 1229.64ZM332.724 1170.04C334.454 1160.08 336.104 1150.35 337.676 1140.85L333.729 1140.2C332.16 1149.69 330.512 1159.41 328.783 1169.36L332.724 1170.04ZM342.572 1110.32C344.132 1100.29 345.596 1090.52 346.968 1081.02L343.009 1080.45C341.639 1089.93 340.177 1099.69 338.62 1109.71L342.572 1110.32ZM351.197 1050.39C352.534 1040.21 353.754 1030.37 354.86 1020.86L350.887 1020.4C349.783 1029.89 348.565 1039.71 347.231 1049.87L351.197 1050.39ZM358.136 990.39C359.172 979.82 360.05 969.721 360.775 960.079L356.786 959.778C356.063 969.388 355.188 979.458 354.155 990L358.136 990.39ZM362.618 930.096C363.113 919.421 363.388 909.419 363.455 900.066L359.455 900.037C359.389 909.333 359.116 919.283 358.623 929.911L362.618 930.096ZM362.842 869.671C362.244 858.157 361.228 847.96 359.829 839.008L355.877 839.626C357.251 848.416 358.255 858.473 358.847 869.879L362.842 869.671ZM352.29 809.726C347.032 796.857 339.917 789.269 331.104 786.958L330.089 790.827C337.166 792.682 343.556 798.926 348.587 811.239L352.29 809.726ZM301.427 795.368C294.208 800.445 286.657 807.507 278.92 816.208L281.909 818.866C289.518 810.309 296.84 803.484 303.728 798.64L301.427 795.368ZM259.972 840.196C254.418 847.968 248.812 856.434 243.201 865.493L246.602 867.599C252.172 858.605 257.73 850.213 263.226 842.521L259.972 840.196ZM227.817 891.788C223.038 900.408 218.286 909.398 213.594 918.695L217.165 920.498C221.836 911.244 226.563 902.299 231.315 893.728L227.817 891.788ZM200.406 945.97C196.216 955.011 192.1 964.263 188.081 973.678L191.76 975.248C195.763 965.87 199.863 956.655 204.035 947.651L200.406 945.97ZM176.581 1001.75C172.899 1011.13 169.33 1020.61 165.897 1030.16L169.661 1031.51C173.081 1022 176.636 1012.55 180.304 1003.21L176.581 1001.75ZM156.049 1058.87C152.896 1068.53 149.901 1078.21 147.087 1087.87L150.927 1088.99C153.729 1079.37 156.712 1069.73 159.852 1060.11L156.049 1058.87ZM139.093 1117.17C137.848 1122.07 136.656 1126.96 135.52 1131.83L139.416 1132.74C140.545 1127.9 141.731 1123.03 142.97 1118.15L139.093 1117.17ZM135.52 1131.83C134.284 1137.13 133.185 1142.23 132.22 1147.14L136.146 1147.91C137.1 1143.05 138.189 1137.99 139.416 1132.74L135.52 1131.83ZM127.763 1177.01C126.664 1188.71 126.607 1198.95 127.531 1207.81L131.509 1207.39C130.619 1198.86 130.665 1188.89 131.745 1177.38L127.763 1177.01ZM136.979 1237.06C143.311 1246.27 152.415 1251.29 163.644 1252.69L164.137 1248.72C153.911 1247.45 145.887 1242.95 140.275 1234.8L136.979 1237.06ZM194.331 1249.44C203.238 1246.97 212.84 1243.29 223.024 1238.54L221.333 1234.91C211.296 1239.59 201.905 1243.19 193.261 1245.59L194.331 1249.44ZM249.788 1224.42C258.15 1219.55 266.803 1214.14 275.703 1208.22L273.489 1204.89C264.646 1210.77 256.06 1216.14 247.776 1220.96L249.788 1224.42ZM300.546 1190.9C308.472 1185.13 316.547 1179.04 324.744 1172.65L322.285 1169.49C314.119 1175.86 306.079 1181.93 298.193 1187.67L300.546 1190.9ZM348.413 1153.67C356.074 1147.36 363.814 1140.83 371.612 1134.11L369 1131.08C361.223 1137.79 353.506 1144.29 345.871 1150.58L348.413 1153.67ZM394.39 1114.08C401.829 1107.41 409.301 1100.59 416.789 1093.63L414.067 1090.7C406.596 1097.64 399.14 1104.45 391.72 1111.1L394.39 1114.08ZM438.842 1072.82C446.092 1065.87 453.34 1058.81 460.571 1051.67L457.761 1048.83C450.543 1055.95 443.309 1062.99 436.074 1069.93L438.842 1072.82ZM481.994 1030.22C489.073 1023.03 496.12 1015.77 503.119 1008.47L500.231 1005.7C493.244 1012.99 486.21 1020.23 479.144 1027.41L481.994 1030.22ZM523.951 986.437C530.866 979.027 537.717 971.586 544.489 964.132L541.529 961.443C534.769 968.883 527.93 976.311 521.027 983.708L523.951 986.437ZM564.727 941.554C571.473 933.923 578.12 926.298 584.651 918.698L581.618 916.091C575.099 923.677 568.464 931.288 561.73 938.905L564.727 941.554ZM604.244 895.553C607.48 891.672 610.68 887.802 613.843 883.946L610.751 881.409C607.595 885.257 604.401 889.118 601.171 892.992L604.244 895.553ZM613.843 883.946C617.078 880.003 620.33 876.255 623.598 872.697L620.652 869.992C617.332 873.606 614.031 877.41 610.751 881.409L613.843 883.946ZM644.48 852.647C652.23 846.159 660.057 840.62 667.952 835.947L665.914 832.505C657.824 837.294 649.82 842.96 641.913 849.58L644.48 852.647ZM694.059 823.62C703.304 820.302 712.638 818.006 722.047 816.61L721.46 812.654C711.799 814.087 702.209 816.445 692.708 819.855L694.059 823.62ZM750.896 815.017C760.422 815.324 770.018 816.404 779.673 818.143L780.382 814.207C770.557 812.437 760.766 811.333 751.024 811.019L750.896 815.017ZM807.957 824.967C817.107 827.695 826.292 830.901 835.503 834.487L836.955 830.76C827.658 827.14 818.369 823.897 809.1 821.134L807.957 824.967ZM862.347 845.9C871.118 849.913 879.898 854.182 888.68 858.622L890.485 855.052C881.667 850.594 872.839 846.302 864.011 842.262L862.347 845.9ZM914.641 872.169C923.24 876.77 931.826 881.452 940.395 886.139L942.314 882.629C933.744 877.942 925.144 873.252 916.529 868.642L914.641 872.169ZM966.15 900.189C974.828 904.885 983.478 909.5 992.086 913.949L993.923 910.395C985.345 905.963 976.719 901.36 968.054 896.671L966.15 900.189ZM1018.38 926.989C1027.43 931.258 1036.42 935.241 1045.35 938.836L1046.85 935.125C1038 931.565 1029.08 927.614 1020.09 923.372L1018.38 926.989ZM1073.15 948.718C1082.8 951.649 1092.37 953.982 1101.83 955.574L1102.49 951.629C1093.22 950.07 1083.83 947.78 1074.31 944.89L1073.15 948.718ZM1131.39 957.975C1141.35 957.839 1151.16 956.665 1160.8 954.275L1159.84 950.392C1150.52 952.703 1141.01 953.843 1131.33 953.976L1131.39 957.975ZM1188.52 943.647C1196.86 939.219 1205.03 933.679 1213.01 926.91L1210.42 923.86C1202.65 930.453 1194.72 935.828 1186.64 940.114L1188.52 943.647ZM1233.72 905.994C1236.87 902.263 1239.99 898.305 1243.07 894.112L1239.85 891.743C1236.82 895.867 1233.76 899.753 1230.66 903.412L1233.72 905.994ZM1243.07 894.112C1246.18 889.886 1249.21 885.67 1252.15 881.463L1248.88 879.17C1245.95 883.35 1242.94 887.541 1239.85 891.743L1243.07 894.112ZM1269.29 855.591C1274.89 846.61 1280.1 837.672 1284.89 828.776L1281.37 826.877C1276.62 835.694 1271.45 844.559 1265.89 853.474L1269.29 855.591ZM1298.65 800.877C1302.96 791.19 1306.77 781.551 1310.05 771.959L1306.26 770.665C1303.03 780.137 1299.27 789.665 1294.99 799.249L1298.65 800.877ZM1318.57 742.043C1320.91 731.747 1322.6 721.504 1323.62 711.311L1319.64 710.91C1318.64 720.933 1316.97 731.015 1314.67 741.159L1318.57 742.043ZM1324.66 680.149C1324.28 669.757 1323.18 659.419 1321.32 649.135L1317.38 649.846C1319.21 659.941 1320.29 670.089 1320.66 680.293L1324.66 680.149ZM1313.61 618.922C1310.41 609.254 1306.51 599.636 1301.89 590.066L1298.29 591.805C1302.83 601.224 1306.67 610.681 1309.81 620.179L1313.61 618.922ZM1286.74 562.893C1281.35 554.382 1275.36 545.909 1268.77 537.472L1265.62 539.935C1272.14 548.273 1278.04 556.639 1283.36 565.033L1286.74 562.893ZM1248.6 513.821C1241.79 506.457 1234.5 499.119 1226.71 491.806L1223.97 494.721C1231.69 501.974 1238.92 509.246 1245.67 516.538L1248.6 513.821ZM1203.47 471.26C1195.74 464.804 1187.61 458.367 1179.07 451.947L1176.67 455.143C1185.15 461.525 1193.23 467.921 1200.91 474.332L1203.47 471.26ZM1153.94 433.883C1145.65 428.187 1137.04 422.503 1128.11 416.832L1125.96 420.21C1134.86 425.856 1143.43 431.512 1151.67 437.179L1153.94 433.883ZM1101.68 400.669C1097.24 398.048 1092.73 395.43 1088.15 392.814L1086.17 396.288C1090.73 398.895 1095.23 401.503 1099.65 404.114L1101.68 400.669ZM1088.15 392.814C1083.83 390.348 1079.4 387.911 1074.87 385.503L1072.99 389.034C1077.49 391.426 1081.88 393.843 1086.17 396.288L1088.15 392.814ZM1047.34 371.773C1038.28 367.523 1028.91 363.36 1019.24 359.277L1017.69 362.962C1027.31 367.027 1036.64 371.168 1045.64 375.394L1047.34 371.773ZM990.731 347.769C981.334 344.138 971.714 340.57 961.895 337.059L960.548 340.825C970.338 344.326 979.927 347.883 989.29 351.5L990.731 347.769ZM932.806 327.004C923.243 323.805 913.524 320.651 903.668 317.539L902.463 321.353C912.299 324.459 921.997 327.606 931.537 330.797L932.806 327.004ZM874.383 308.523C864.672 305.605 854.852 302.721 844.94 299.867L843.834 303.711C853.732 306.561 863.537 309.44 873.231 312.353L874.383 308.523ZM815.38 291.513C805.573 288.79 795.695 286.092 785.762 283.415L784.721 287.277C794.646 289.952 804.514 292.647 814.309 295.367L815.38 291.513ZM756.157 275.536C746.297 272.942 736.397 270.365 726.473 267.803L725.473 271.675C735.392 274.237 745.286 276.812 755.14 279.405L756.157 275.536ZM696.754 260.179C686.853 257.655 676.943 255.141 667.038 252.634L666.057 256.511C675.96 259.018 685.867 261.532 695.765 264.055L696.754 260.179ZM637.3 245.116C627.362 242.605 617.445 240.098 607.563 237.591L606.579 241.468C616.463 243.975 626.382 246.483 636.321 248.994L637.3 245.116ZM577.868 230.024C567.929 227.478 558.042 224.928 548.223 222.373L547.215 226.244C557.04 228.801 566.932 231.351 576.875 233.899L577.868 230.024ZM518.528 214.561C508.56 211.908 498.682 209.244 488.91 206.566L487.852 210.424C497.635 213.105 507.523 215.771 517.499 218.426L518.528 214.561ZM459.404 198.335C449.477 195.513 439.684 192.67 430.044 189.804L428.904 193.638C438.561 196.51 448.37 199.356 458.311 202.182L459.404 198.335ZM400.789 180.872C390.85 177.752 381.109 174.599 371.59 171.409L370.319 175.201C379.865 178.401 389.63 181.561 399.591 184.689L400.789 180.872ZM342.637 161.326C332.791 157.757 323.237 154.136 314.007 150.458L312.526 154.174C321.8 157.869 331.392 161.505 341.273 165.087L342.637 161.326ZM285.827 138.579C276.182 134.264 266.996 129.868 258.312 125.379L256.475 128.932C265.235 133.46 274.489 137.889 284.193 142.23L285.827 138.579ZM231.867 110.43C222.714 104.731 214.377 98.8855 206.929 92.8793L204.418 95.993C212.013 102.117 220.486 108.055 229.752 113.826L231.867 110.43ZM185.18 71.864C178.33 63.6713 173.095 55.204 169.605 46.4274L165.888 47.9052C169.56 57.1397 175.036 65.9676 182.111 74.4298L185.18 71.864ZM164.543 17.3456C164.727 12.4947 165.403 7.53419 166.595 2.45746L162.701 1.54254C161.453 6.85796 160.74 12.074 160.546 17.1938L164.543 17.3456Z" fill="#5683E6"/>
</svg>
