<svg width="991" height="294" viewBox="0 0 991 294" fill="none" xmlns="http://www.w3.org/2000/svg">
<g opacity="0.5">
<path fill-rule="evenodd" clip-rule="evenodd" d="M0 293.137V7.69125V4.44819C1.17553 4.29924 2.36396 4.25523 3.52011 4.21461C3.92702 4.20107 4.35332 4.1943 4.82482 4.1943C5.65802 4.1943 6.52351 4.218 7.21461 4.23831C9.92736 4.31617 12.2526 4.47866 14.3259 4.73255C16.5284 5.00337 18.6534 5.39267 20.6492 5.89369C22.4642 6.34731 24.2404 6.92957 26.0812 7.67432C28.2772 8.56463 30.4797 9.61067 33.0116 10.9614C33.102 11.0088 33.1795 11.0494 33.257 11.0934C33.7867 10.8327 34.2646 10.6025 34.7232 10.3893C35.5176 10.0203 36.3896 9.66484 37.5587 9.2383C39.4124 8.56125 41.4599 8.00269 43.4428 7.46782L43.6494 7.41027C45.8584 6.8077 48.1061 6.29653 50.5993 5.73797C53.1247 5.16925 55.6566 4.675 57.5814 4.30601C62.2576 3.40893 67.231 2.61001 72.3594 1.9262C77.1132 1.29316 81.8799 0.819225 86.5303 0.51794C91.5489 0.192958 96.6966 0.118485 101.67 0.0440097H101.754C103.698 0.0135426 105.616 0 107.457 0C108.045 0 108.633 -1.85949e-06 109.221 0.00338337C111.83 0.0169243 114.394 0.0778597 116.777 0.142179C121.648 0.274203 126.782 0.545021 132.04 0.951249C134.74 1.16113 137.44 1.4658 139.765 1.74001C142.303 2.03452 144.822 2.41705 147.167 2.78604C149.511 3.15503 151.869 3.58834 154.142 4.00811L154.201 4.01827L154.62 4.09613C156.849 4.50574 159.142 4.94582 161.434 5.40621C163.973 5.914 166.259 6.41501 168.41 6.93634C170.406 7.41704 172.447 7.96884 174.656 8.6188C178.686 9.80702 182.73 11.1746 187.012 12.7996C190.81 14.2451 194.504 15.8429 197.979 17.549C199.968 18.5274 201.964 19.6377 204.438 21.1475C206.841 22.6133 208.992 24.2315 210.819 25.6364C212.434 26.8753 214.042 28.2498 215.89 29.9593C216.581 30.6025 217.233 31.2728 217.789 31.8483C217.989 32.0548 218.183 32.2612 218.376 32.4711L218.447 32.549C218.583 32.6979 218.725 32.8469 218.861 32.9925L219.061 32.9248C219.307 32.8435 219.552 32.7623 219.797 32.681C220.062 32.593 220.321 32.5016 220.585 32.4136L220.786 32.3459L220.915 32.3019C221.348 32.1529 221.774 32.0074 222.213 31.8652C224.009 31.2728 226.108 30.7785 228.446 30.3926C230.371 30.0744 232.438 29.8476 234.756 29.6919C236.449 29.5801 238.121 29.526 239.723 29.526C240.35 29.526 240.976 29.5361 241.596 29.5531C242.823 29.5869 244.005 29.658 245.2 29.7629C246.647 29.8916 248.036 30.1116 249.321 30.3317C251.588 30.7176 253.907 31.2626 256.2 31.9498C257.847 32.4407 259.559 33.0432 261.587 33.8388C263.415 34.5564 265.139 35.4027 266.709 36.3472C267.367 36.7433 267.987 37.1631 268.511 37.5185L268.801 37.7149L268.879 37.7656C268.989 37.8401 269.098 37.9146 269.208 37.9891C269.899 37.769 270.506 37.5659 271.075 37.373C272.076 37.0277 273.019 36.7264 273.962 36.4522C275.88 35.8902 278.089 35.3757 280.712 34.8814C283.243 34.4041 285.233 34.0994 287.177 33.8997C289.27 33.6864 291.543 33.5273 294.333 33.4021C296.517 33.3039 298.667 33.2531 300.728 33.2531C300.98 33.2531 301.232 33.2531 301.483 33.2531C303.647 33.2667 306.302 33.2836 308.827 33.4325C311.637 33.6018 313.904 33.7981 315.964 34.0622C318.283 34.3567 320.731 34.7088 323.45 35.1387C327.842 35.8361 332.486 36.7738 337.647 38.0128C342.33 39.1333 346.741 40.4197 350.765 41.8381C352.645 42.5016 354.544 43.2599 356.552 44.1603C358.664 45.1082 360.505 46.1813 361.875 47.0107C364.716 48.7372 367.255 50.7954 369.651 53.3005C370.549 54.2382 371.337 55.2267 372.034 56.1001C372.176 55.9816 372.325 55.8631 372.48 55.7446C373.546 54.9084 374.85 53.947 376.446 53.1481C378.028 52.356 379.837 51.6112 381.826 50.9376C383.874 50.2436 385.773 49.6715 387.626 49.1908C392.277 47.989 397.192 47.2409 401.817 46.6146C404.323 46.2727 406.867 45.9884 409.393 45.7717C411.97 45.5483 414.573 45.423 416.782 45.3316C418.183 45.2741 419.637 45.2436 421.232 45.2436C422.259 45.2436 423.344 45.2572 424.558 45.2808C427.239 45.335 429.9 45.5381 432.38 45.748C437.592 46.1915 442.753 46.8922 447.597 47.5693C452.144 48.2057 456.943 48.9911 461.174 50.3858C462.22 50.7311 463.234 51.0933 464.274 51.4961C465.275 51.8821 466.251 52.3357 467.11 52.7351L467.284 52.8164C468.97 53.6017 470.552 54.465 472.09 55.2977L472.555 55.5483C473.453 56.0357 474.26 56.4792 475.009 56.9024L475.132 56.97C475.933 57.4237 476.766 57.8908 477.502 58.3851C477.87 58.6322 478.355 58.9606 478.813 59.3059C479.207 59.6038 479.601 59.922 480.086 60.3316C480.454 60.6396 480.79 60.968 481.093 61.2998L481.235 61.4555C481.5 61.7432 481.759 62.031 481.991 62.3221C482.521 62.9856 483.005 63.7033 483.516 64.5801C483.91 65.2469 484.194 65.9443 484.471 66.618L484.517 66.7229C484.678 67.119 484.84 67.5184 484.995 67.9145L485.014 67.8908L485.046 67.8671C485.66 67.4135 486.383 66.9836 487.132 66.5503C487.895 66.1068 488.734 65.6565 489.639 65.2097C491.279 64.3972 493.036 63.7236 494.851 63.2158C495.8 62.9484 496.705 62.7317 497.622 62.5489C498.681 62.339 499.895 62.1731 501.433 62.0276C502.505 61.926 503.693 61.8719 504.966 61.8685H505.127C506.438 61.8685 507.523 61.9057 508.544 61.987C509.952 62.0987 511.121 62.2679 512.135 62.5015C513.188 62.7419 514.234 63.0635 515.436 63.5137C517.322 64.2178 518.885 65.1555 519.899 65.7953C520.105 65.9274 520.312 66.0594 520.512 66.1948L520.538 66.2117L520.674 66.2997C520.803 66.3844 520.926 66.4656 521.055 66.5469L521.404 66.3708L521.429 66.3573C521.972 66.0899 522.527 65.8123 523.102 65.5584C523.974 65.1725 524.988 64.8035 526.119 64.465C528.153 63.8522 530.362 63.2835 533.081 62.6843C535.419 62.1664 537.997 61.7094 540.748 61.3235C543.261 60.9714 545.889 60.7683 548.124 60.6159C550.85 60.4331 553.543 60.4094 555.584 60.4094C557.929 60.4094 560.512 60.4873 563.464 60.643C566.28 60.7954 568.812 61.0154 571.208 61.3167C573.74 61.6349 575.898 62.014 577.822 62.4778C580.677 63.1616 583.17 63.9639 585.237 64.8543C586.361 65.3383 587.33 65.7987 588.208 66.2659C588.983 66.6789 589.791 67.1494 590.747 67.752C592.678 68.9741 594.247 70.1454 595.546 71.3268C596.534 72.2205 597.445 73.1548 598.336 74.0587L598.355 74.079L598.388 74.1129C598.588 74.3058 598.756 74.4582 598.917 74.5902L599.008 74.6511H599.292C599.97 74.6511 600.642 74.641 601.301 74.6206C602.179 74.5834 603.064 74.5394 603.942 74.492L604.188 74.4785C605.137 74.4311 606.119 74.3803 607.081 74.3431C609.303 74.2517 611.299 74.1941 613.198 74.1636C613.592 74.1569 613.986 74.1535 614.38 74.1535C618.133 74.1535 622.053 74.4209 626.038 74.949C629.849 75.45 633.518 76.2557 636.947 77.3424C638.104 77.708 639.305 78.1379 640.629 78.6626C640.894 78.7676 641.152 78.8759 641.404 78.9808C641.792 79.1433 642.186 79.3092 642.599 79.4581L642.625 79.4683L642.683 79.4852C643.148 79.448 643.568 79.4107 643.975 79.3701C644.892 79.255 645.809 79.1027 646.7 78.9605L647.152 78.886C648.16 78.7235 649.206 78.5577 650.447 78.3715C652.513 78.06 654.781 77.7655 657.597 77.4439C662.441 76.8888 667.479 76.5231 672.568 76.3573C674.545 76.293 676.87 76.2252 679.144 76.2252C679.447 76.2252 679.751 76.2252 680.054 76.2252C682.715 76.2456 685.364 76.3099 687.921 76.4114C690.479 76.5164 693.121 76.6721 696.008 76.8854C698.159 77.0479 700.704 77.2577 703.216 77.5963C705.664 77.9246 708.002 78.3444 710.159 78.7439C711.335 78.9639 712.517 79.1805 713.699 79.3972L713.789 79.4141C715.036 79.6443 716.27 79.8678 717.49 80.0979C719.557 80.4839 721.753 80.9003 723.923 81.381C726.19 81.882 728.386 82.4608 730.453 83.0973C732.062 83.5915 733.741 84.167 735.73 84.9084C737.151 85.4365 738.495 85.9882 739.728 86.5468C741.072 87.1562 742.196 87.8434 743.216 88.4967C743.526 88.6964 743.836 88.8928 744.146 89.0891C745.07 89.6748 746.019 90.2773 746.911 90.8867C747.356 91.1947 747.828 91.5265 748.383 91.9293L748.493 92.0072C748.823 92.2475 749.158 92.4913 749.527 92.7147C749.578 92.7418 749.63 92.7689 749.682 92.7926C749.707 92.8027 749.727 92.8095 749.753 92.8196L749.817 92.8366L749.888 92.8569C749.979 92.8772 750.063 92.8941 750.153 92.9111C750.347 92.9415 750.547 92.9686 750.747 92.9889C751.148 93.0228 751.587 93.0465 752.084 93.0634C752.465 93.0702 752.853 93.0702 753.234 93.0702C754.687 93.0702 756.166 93.0363 757.594 92.9991L758.446 92.9788C761.314 92.911 763.684 92.867 765.887 92.84C768.542 92.8061 771.132 92.7824 773.593 92.7723C773.903 92.7723 774.219 92.7723 774.529 92.7723C776.518 92.7723 778.624 92.7993 781.356 92.8603C784.192 92.9246 786.769 93.0363 789.223 93.2056C791.594 93.3681 794.022 93.5949 796.438 93.8758C802.135 94.5326 806.74 95.1995 810.944 95.9679C815.989 96.8921 820.213 97.9212 823.875 99.1128C826.013 99.8102 828.171 100.582 830.47 101.476C832.446 102.244 834.294 103.05 835.973 103.872C836.67 104.218 837.374 104.583 838.066 104.966L838.208 105.044C838.356 105.125 838.505 105.21 838.647 105.294C839.448 105.748 840.249 106.229 841.095 106.757C841.734 107.156 842.309 107.528 842.839 107.894L843.142 108.104L843.181 108.128C843.51 108.358 843.808 108.564 844.124 108.764C844.195 108.801 844.266 108.835 844.337 108.869L844.421 108.899L844.505 108.933C844.583 108.96 844.673 108.984 844.757 109.008C844.951 109.052 845.145 109.092 845.345 109.13C845.758 109.191 846.184 109.245 846.649 109.292C848.258 109.417 849.885 109.482 851.126 109.519C852.811 109.56 854.588 109.587 856.015 109.61L856.616 109.621C857.339 109.631 858.069 109.644 858.792 109.658C861.156 109.702 863.598 109.773 866.265 109.871C869.688 110 873.17 110.155 876.528 110.308H876.606L876.761 110.318C878.466 110.396 880.165 110.474 881.87 110.545C884.357 110.653 886.85 110.755 889.337 110.86L890.015 110.887C892.572 110.992 895.13 111.1 897.681 111.212C902.829 111.438 908.055 111.733 913.202 112.088C918.731 112.471 924.363 112.918 929.666 113.344L931.83 113.517C936.241 113.869 940.795 114.231 945.277 114.729C950.341 115.291 955.521 115.951 960.669 116.692C962.051 116.892 963.433 117.092 964.816 117.291C965.817 117.437 966.818 117.583 967.819 117.728L968.704 117.857C970.932 118.182 973.232 118.514 975.473 118.876C977.662 119.231 979.949 119.641 982.268 120.098C984.431 120.521 986.447 120.971 988.856 121.516C989.56 121.675 990.27 121.834 990.974 121.997V288.879V293.107H0V293.137Z" fill="#DAF6FF"/>
<path fill-rule="evenodd" clip-rule="evenodd" d="M0 293.141V158.297V156.767C0.245439 156.729 0.484422 156.696 0.749238 156.662C3.7591 156.272 6.50415 155.947 9.14585 155.67C14.4228 155.108 19.9193 154.556 25.4805 154.025C30.5507 153.541 36.4477 152.989 42.3577 152.566C47.8607 152.173 53.3249 152.004 59.3899 151.831C62.4126 151.746 65.4225 151.672 68.329 151.601L68.891 151.587L69.5433 151.57H69.6208C71.7716 151.516 73.9225 151.462 76.0733 151.408C79.9551 151.31 84.1082 151.191 87.1503 151.107H87.3441L87.7962 151.09H87.9577L88.0029 151.083C94.2681 150.907 102.064 150.687 109.343 150.538C111.636 150.494 113.929 150.453 116.222 150.413C118.018 150.382 119.807 150.352 121.602 150.318C125.478 150.247 129.527 150.142 133.622 150L134.507 149.962H134.585L134.656 149.956H134.733L134.791 149.952C136.949 149.857 139.177 149.759 141.36 149.617L141.502 149.607C143.86 149.455 146.786 149.265 149.589 149.031C155.221 148.568 160.814 148.063 166.214 147.525C172.68 146.885 179.442 146.174 186.883 145.352C191.165 144.847 195.589 144.326 199.897 143.713C202.022 143.409 204.283 143.063 206.815 142.664C208.914 142.329 210.962 141.949 213.048 141.557C214.546 141.252 216.142 140.927 217.698 140.565C219.1 140.237 220.566 139.871 222.31 139.414C224.06 138.926 225.52 138.517 227.012 138.063C228.607 137.572 230.229 137.058 231.83 136.53L232.16 136.418L232.528 136.296C232.999 136.137 233.464 135.985 233.93 135.832L233.962 135.822C234.078 135.785 234.194 135.748 234.311 135.714C234.414 135.369 234.776 135.047 235.247 134.868C235.977 134.593 236.7 134.316 237.424 134.038L237.476 134.018C238.567 133.598 239.807 133.121 241.067 132.671C244.516 131.432 247.771 130.358 251.013 129.394C253.054 128.784 254.992 128.27 256.923 127.823C258.758 127.396 260.786 126.997 263.124 126.601C267.057 125.934 271.366 125.396 276.313 124.952C280.395 124.59 284.509 124.407 288.533 124.407H289.005C291.201 124.414 293.468 124.475 295.386 124.532C297.892 124.607 299.946 124.695 301.858 124.803C305.85 125.037 310.009 125.413 314.95 125.995C317.069 126.242 319.116 126.516 321.035 126.804C323.063 127.105 325.02 127.478 326.835 127.83C327.939 128.043 329.044 128.263 330.142 128.483L330.684 128.591C331.188 128.693 331.808 128.822 332.409 128.93C332.564 128.954 332.725 128.974 332.88 128.994H332.951L333.016 129.001H333.061H333.1C333.132 129.001 333.158 128.994 333.184 128.991L333.229 128.984C333.429 128.94 333.649 128.886 333.972 128.805C334.812 128.564 335.658 128.29 336.407 128.046L336.478 128.023C336.995 127.853 337.511 127.687 338.028 127.528C339.727 127 341.484 126.52 343.247 126.103C345.236 125.633 347.284 125.281 349.209 124.966C351.12 124.651 353.013 124.384 354.841 124.177C358.839 123.72 362.96 123.415 367.074 123.273C368.676 123.219 370.342 123.192 372.041 123.192C374.392 123.192 376.962 123.243 379.888 123.348C383.68 123.486 387.142 123.7 390.481 123.994C392.16 124.147 393.704 124.306 395.203 124.488C395.9 124.57 396.604 124.671 397.282 124.766L397.386 124.783L397.424 124.79C398.219 124.905 399.117 125.033 400.027 125.132H400.085L400.137 125.135C400.195 125.138 400.253 125.145 400.312 125.145H400.389L400.441 125.135C400.531 125.108 400.622 125.077 400.712 125.047C401.196 124.854 401.674 124.644 402.217 124.38C403.095 123.95 403.929 123.5 404.736 123.067L404.801 123.033L404.846 123.009C405.246 122.796 405.627 122.593 406.008 122.39C407.248 121.736 408.915 120.887 410.769 120.108C412.215 119.499 413.843 118.893 415.903 118.205C417.654 117.616 419.527 117.085 421.458 116.621C423.376 116.164 425.301 115.782 427.187 115.48C429.06 115.179 431.101 114.939 433.426 114.746C435.784 114.553 438.109 114.441 440.325 114.414C440.693 114.411 441.054 114.407 441.423 114.407C442.869 114.407 444.51 114.441 446.583 114.509C449.425 114.61 452.015 114.753 454.496 114.949C455.833 115.057 457.241 115.193 458.797 115.365C459.359 115.426 459.921 115.491 460.476 115.555L460.638 115.572H460.677C461.316 115.65 462.04 115.734 462.737 115.805C463.415 115.87 464.436 115.964 465.45 116.005C465.56 116.005 465.669 116.005 465.786 116.005C465.915 116.005 466.044 116.005 466.167 116.002C466.277 115.995 466.38 115.988 466.49 115.978L466.58 115.964L466.619 115.958L466.722 115.934C466.78 115.917 466.832 115.9 466.877 115.887C467.019 115.829 467.162 115.765 467.304 115.7C467.704 115.497 468.085 115.287 468.466 115.054C469.209 114.577 469.939 114.062 470.52 113.649L470.559 113.618L470.662 113.547L470.753 113.483L470.837 113.422C471.153 113.199 471.457 112.985 471.767 112.772C473.084 111.865 474.37 111.036 475.681 110.243C478.555 108.517 481.61 106.946 484.762 105.568C486.383 104.864 488.043 104.231 489.89 103.537C491.492 102.935 493.275 102.312 495.49 101.574C498.784 100.477 502.492 99.3599 506.832 98.1615C514.447 96.0559 522.598 93.8894 531.208 92.5556C533.075 92.2645 535.161 92.0139 537.771 91.7668C539.863 91.5705 542.085 91.4283 544.372 91.3403C546.096 91.276 547.898 91.2421 549.726 91.2421C552.258 91.2421 554.919 91.303 557.864 91.4249C560.054 91.5197 562.256 91.6348 564.407 91.7736C566.493 91.909 568.541 92.0918 570.802 92.2983C574.451 92.6334 578.313 93.1108 582.615 93.7539C586.555 94.3396 590.379 95.0437 593.983 95.8426C595.836 96.2522 597.541 96.6652 599.188 97.1019C599.938 97.2983 600.713 97.5183 601.333 97.6977L601.404 97.7181C602.082 97.911 602.799 98.1141 603.484 98.2969L603.548 98.2495L603.581 98.2292C603.936 98.0024 604.291 97.7756 604.646 97.5488L604.698 97.5183L604.763 97.4777C605.35 97.0986 606.016 96.6686 606.694 96.259C607.921 95.5177 609.342 94.7831 610.918 94.0755C614.07 92.6571 617.538 91.3911 621.226 90.3146C623.313 89.7018 625.373 89.1771 627.117 88.7472C629.106 88.2496 631.173 87.8129 633.253 87.4405C635.294 87.0749 637.406 86.8515 639.202 86.6822C641.204 86.496 643.368 86.3708 645.816 86.3031C647.049 86.2692 648.309 86.2523 649.549 86.2523C653.889 86.2523 658.43 86.4588 663.054 86.8582C665.425 87.0647 667.899 87.3728 670.857 87.8196C672.187 88.0227 673.44 88.2462 674.577 88.4899C674.881 88.5542 675.178 88.6219 675.475 88.6896C675.565 88.5508 675.798 88.2225 676.089 87.9043C676.489 87.4642 676.941 87.0478 677.29 86.7296C678.071 86.0221 678.924 85.3213 679.802 84.6545C680.797 83.9029 681.753 83.2259 682.735 82.5861L682.774 82.5624C683.691 81.9666 684.724 81.2997 685.803 80.687C688.322 79.2584 691.086 77.9923 693.211 77.0512C695.711 75.9476 698.243 74.9185 700.729 73.991C703.649 72.9043 706.135 72.0242 708.809 71.2693C711.793 70.4229 714.9 69.6511 718.046 68.9775C721.159 68.3072 724.382 67.7994 727.631 67.471C730.537 67.1799 733.67 67.0377 737.19 67.0377H737.487C743.21 67.0513 749.488 67.4913 756.683 68.3884C759.848 68.7811 762.961 69.2923 765.932 69.905C768.374 70.406 770.964 71.1034 774.064 72.0952C775.898 72.6809 777.681 73.2665 779.289 73.9876C780.006 74.3126 780.73 74.6714 781.615 75.142L781.66 75.1657C781.789 74.9896 781.95 74.8136 782.086 74.6579C783.042 73.6051 784.172 72.5387 785.458 71.4859L785.309 71.6349C787.059 70.1724 788.855 68.8759 790.793 67.6707C793.157 66.2049 795.165 65.0607 797.122 64.0621C801.321 61.926 806.43 59.9863 812.74 58.1278C815.576 57.2916 818.657 56.5469 821.905 55.9172C823.598 55.5855 825.341 55.318 826.821 55.098C828.539 54.8441 830.115 54.6478 831.645 54.4988C835.217 54.1535 838.427 53.9741 841.45 53.9538H841.482C841.747 53.9538 842.018 53.9538 842.283 53.9538C845.235 53.9538 848.277 54.0554 851.584 54.2652C857.894 54.6715 864.483 55.4772 871.155 56.662C874.242 57.207 877.291 57.8908 880.21 58.6931C881.644 59.0858 883.039 59.536 884.357 60.0337C885.855 60.599 887.018 61.1677 887.922 61.7737L887.948 61.7974C888.284 61.3911 888.62 61.0357 889.001 60.6836C890.531 59.2618 892.392 57.9653 894.542 56.8279C896.5 55.7954 898.812 54.8373 902.041 53.7236C904.812 52.7656 907.796 51.9734 910.89 51.3709C914.145 50.7378 917.394 50.2876 920.553 50.0337C923.524 49.7967 926.701 49.6816 930.267 49.6816H930.771C932.385 49.6884 934.013 49.7493 935.537 49.8137C937.126 49.8847 938.812 49.966 940.381 50.0811C943.863 50.3485 946.86 50.6904 949.534 51.1271C954.32 51.9023 958.886 52.9958 963.098 54.3702C964.99 54.9829 967.173 55.7446 969.066 56.7128C970.034 57.2104 970.771 57.7046 971.307 58.2192C971.404 58.3106 971.501 58.4054 971.591 58.5002L971.927 58.2869L972.043 58.2226C972.444 57.989 972.831 57.7656 973.225 57.5388C975.214 56.4182 977.404 55.4805 979.729 54.7527C980.789 54.421 981.971 54.1095 983.566 53.7473C984.903 53.4426 986.24 53.1854 987.538 52.9822C988.681 52.8028 989.818 52.664 990.929 52.5625V290.422V293.124H0V293.141Z" fill="#F0FBFF"/>
<path fill-rule="evenodd" clip-rule="evenodd" d="M0 293.142V88.051V85.722V82.8479C0.736318 82.7023 1.47909 82.5703 2.23478 82.4417C3.88827 82.1607 5.61927 81.9474 7.33089 81.7849C8.18993 81.7037 9.04895 81.6394 9.92091 81.5852C10.8897 81.5277 11.8715 81.5243 12.8468 81.5378C14.6811 81.5615 16.5478 81.7409 18.2981 82.0185C21.6632 82.55 24.7571 83.4606 27.4052 84.6658C28.3224 84.1749 29.2202 83.6773 30.1567 83.1966C31.4744 82.5195 32.863 81.8831 34.2905 81.267C37.0549 80.0754 40.0454 79.0192 43.1844 78.1187C46.3557 77.2115 49.7144 76.4566 53.1764 75.9048C55.0172 75.6137 56.8773 75.3767 58.7569 75.1668C60.4556 74.9772 62.1801 74.8486 63.8982 74.7301C66.1071 74.5778 68.3484 74.5236 70.5767 74.5372C72.7986 74.5507 75.0528 74.6421 77.2359 74.8588C77.1261 74.8486 77.0163 74.8384 76.9065 74.8249C77.1713 74.852 77.4555 74.8689 77.7203 74.9061C77.998 74.9332 78.2757 74.9603 78.5535 74.9874C78.6052 74.9942 78.6633 74.9976 78.715 75.0043C80.4395 75.1804 82.1253 75.4512 83.7917 75.7321C85.5614 76.0334 87.3183 76.4126 88.9782 76.8594C89.8179 77.0862 90.6382 77.3198 91.4649 77.5636C92.324 77.8174 93.1442 78.1187 93.9645 78.4099C95.4178 78.9244 96.7871 79.5101 98.1176 80.1092C100.85 81.3415 103.491 82.6651 105.759 84.1377C106.869 84.8587 107.935 85.617 108.814 86.4227C109.272 86.8459 109.711 87.2792 110.099 87.7226C110.357 88.0205 110.609 88.3252 110.822 88.6333C110.984 88.5656 111.152 88.5012 111.32 88.4369C112.108 88.1356 112.915 87.858 113.755 87.5906C115.44 87.0557 117.307 86.6834 119.154 86.3347C120.84 86.0165 122.623 85.7558 124.412 85.6678C125.394 85.6204 126.408 85.5933 127.389 85.6509C128.423 85.7118 129.43 85.8032 130.438 85.9318C132.24 86.1654 133.939 86.6055 135.554 87.0727C137.188 87.5466 138.693 88.139 140.068 88.7924C141.418 89.4356 142.529 90.2142 143.446 91.0368C143.963 91.5005 144.422 91.9846 144.867 92.4687C145.042 92.6583 145.203 92.8479 145.365 93.0374C148.407 92.4552 151.501 91.9237 154.756 91.7849C156.726 91.7003 158.702 91.6563 160.679 91.7341C161.609 91.7714 162.532 91.8154 163.456 91.8695C164.386 91.9237 165.31 92.0219 166.227 92.1133C169.831 92.4721 173.267 93.1932 176.49 94.1004C178.157 94.5676 179.733 95.1227 181.179 95.7626C182.594 96.3888 183.905 97.0828 185.113 97.8208C185.959 98.3387 186.708 98.8837 187.412 99.4592C188.607 100.434 189.234 101.568 189.679 102.696C190.183 103.965 190.467 105.248 190.661 106.538C190.655 106.484 190.648 106.429 190.635 106.379C190.655 106.524 190.674 106.666 190.693 106.812C190.693 106.829 190.693 106.846 190.693 106.866C191.514 106.829 192.334 106.798 193.154 106.781C194.931 106.741 196.752 106.798 198.522 106.9C200.253 107.002 201.958 107.161 203.663 107.343C205.439 107.536 207.177 107.824 208.895 108.119C210.387 108.376 211.821 108.714 213.242 109.07C215.16 109.551 217.001 110.14 218.738 110.783C221.444 111.785 223.886 112.973 226.134 114.249C227.716 115.15 229.059 116.169 230.106 117.262C230.984 118.176 231.617 119.161 232.043 120.157C232.483 121.169 232.696 122.188 232.864 123.22C234.459 123.054 236.074 122.959 237.708 122.973C240.072 122.993 242.404 123.183 244.664 123.535C245.963 123.735 247.216 124.012 248.456 124.297C249.754 124.595 251.026 124.933 252.266 125.295C254.811 126.037 257.078 127.049 259.01 128.19C260.76 129.226 262.362 130.336 263.615 131.558C264.525 132.448 265.262 133.369 265.83 134.337C266.101 134.794 266.308 135.258 266.547 135.718C268.956 135.37 271.307 134.913 273.723 134.564C275.415 134.32 277.153 134.168 278.877 134.016C280.938 133.836 283.024 133.701 285.11 133.609C286.163 133.562 287.222 133.525 288.281 133.491C289.36 133.457 290.452 133.464 291.537 133.46C293.797 133.457 296.064 133.565 298.312 133.691C300.398 133.809 302.465 134.046 304.506 134.293C306.786 134.571 309.027 134.92 311.256 135.282C313.277 135.61 315.28 135.982 317.243 136.395C319.239 136.815 321.17 137.333 323.043 137.888C326.247 138.833 329.276 139.95 332.183 141.125C334.87 142.208 337.382 143.427 339.727 144.706C341.057 145.427 342.291 146.192 343.499 146.971C343.667 147.076 343.835 147.184 344.003 147.289C345.236 146.825 346.496 146.379 347.859 146.033C348.795 145.796 349.758 145.59 350.752 145.424C352.076 145.204 353.439 145.065 354.795 144.923C357.218 144.672 359.73 144.493 362.204 144.537C364.219 144.574 366.196 144.74 368.107 145.082C374.211 146.172 379.204 148.4 383.512 150.854C383.428 150.806 383.337 150.756 383.254 150.708C383.467 150.83 383.686 150.949 383.899 151.07C384.138 151.047 384.377 151.023 384.616 150.999C386.005 150.837 387.381 150.647 388.769 150.488C390.972 150.238 393.233 150.123 395.48 150.021C399.943 149.825 404.413 150.031 408.792 150.492C411.195 150.745 413.559 151.057 415.89 151.456C418.3 151.873 420.67 152.343 423.008 152.865C425.908 153.511 428.724 154.259 431.573 154.97C432.432 155.177 433.291 155.373 434.163 155.563C435.157 155.779 436.139 156.02 437.16 156.202C437.231 156.213 437.302 156.223 437.373 156.233C437.592 156.246 437.806 156.257 438.019 156.263C439.885 156.294 441.752 156.206 443.612 156.158C446.777 156.074 449.936 156.07 453.1 156.111C456.53 156.155 459.96 156.199 463.389 156.226C466.864 156.253 470.346 156.257 473.821 156.284C480.913 156.338 487.998 156.399 495.083 156.514C502.453 156.632 509.81 156.846 517.166 157.066C521.584 157.188 526.002 157.296 530.42 157.374C534.896 157.452 539.379 157.499 543.861 157.546C552.942 157.638 562.024 157.712 571.105 157.824C580.07 157.932 589.035 158.061 598 158.19C606.881 158.318 615.756 158.487 624.63 158.68C633.46 158.873 642.289 159.066 651.118 159.31C659.961 159.554 668.803 159.787 677.639 160.095C686.83 160.414 696.008 160.779 705.179 161.226C714.06 161.659 722.941 162.133 731.816 162.617C741.136 163.129 750.463 163.616 759.796 164.073C768.483 164.496 777.177 164.869 785.877 165.248C795.223 165.654 804.563 166.067 813.903 166.521C822.965 166.964 832.007 167.485 841.043 168.051C849.711 168.592 858.366 169.205 867.001 169.879C875.934 170.576 884.854 171.311 893.793 171.991C911.245 173.318 928.729 174.489 946.272 175.431C953.254 175.806 960.236 176.199 967.212 176.619C974.278 177.045 981.325 177.543 988.378 178.017C989.25 178.074 990.122 178.135 991 178.193V181.152V291.886V293.145H0V293.142Z" fill="white"/>
</g>
</svg>
