<svg width="207" height="225" viewBox="0 0 207 225" fill="none" xmlns="http://www.w3.org/2000/svg">
<path d="M185.838 209.526C185.838 210.999 187.032 212.193 188.505 212.193C189.978 212.193 191.171 210.999 191.171 209.526C191.171 208.053 189.978 206.859 188.505 206.859C187.032 206.859 185.838 208.053 185.838 209.526ZM174.269 129.671L174.737 129.496L174.269 129.671ZM133.728 61.9723L133.355 62.306L133.728 61.9723ZM73.054 16.7378L72.8442 17.1916L73.054 16.7378ZM1.48438 0.353516C1.20823 0.353516 0.984375 0.577373 0.984375 0.853516C0.984375 1.12966 1.20823 1.35352 1.48438 1.35352V0.353516ZM10.6883 1.60711C10.964 1.62232 11.1998 1.41112 11.215 1.1354C11.2302 0.859677 11.019 0.623834 10.7433 0.60863L10.6883 1.60711ZM29.149 2.64226C28.8767 2.59694 28.6191 2.78102 28.5738 3.05342C28.5284 3.32581 28.7125 3.58338 28.9849 3.6287L29.149 2.64226ZM46.9527 7.6337C47.2186 7.70829 47.4946 7.55322 47.5692 7.28734C47.6438 7.02146 47.4887 6.74546 47.2228 6.67087L46.9527 7.6337ZM64.7578 12.6203C64.5014 12.5178 64.2104 12.6426 64.1079 12.899C64.0054 13.1554 64.1301 13.4464 64.3865 13.5489L64.7578 12.6203ZM81.3557 21.4061C81.5998 21.5352 81.9023 21.442 82.0314 21.1979C82.1605 20.9538 82.0673 20.6512 81.8232 20.5221L81.3557 21.4061ZM98.209 30.3264C97.9798 30.1724 97.6691 30.2335 97.5152 30.4627C97.3612 30.692 97.4223 31.0026 97.6515 31.1566L98.209 30.3264ZM112.856 42.5379C113.068 42.7144 113.383 42.6852 113.56 42.4728C113.736 42.2604 113.707 41.9452 113.495 41.7687L112.856 42.5379ZM127.558 54.6827C127.364 54.4862 127.047 54.4841 126.851 54.6781C126.654 54.8721 126.652 55.1887 126.846 55.3852L127.558 54.6827ZM139.776 69.8365C139.95 70.051 140.264 70.0839 140.479 69.9099C140.693 69.736 140.726 69.4211 140.552 69.2066L139.776 69.8365ZM152.313 85.2391C152.161 85.0089 151.851 84.9458 151.62 85.0983C151.39 85.2508 151.327 85.561 151.48 85.7913L152.313 85.2391ZM161.619 102.786C161.749 103.029 162.052 103.121 162.295 102.991C162.539 102.86 162.631 102.557 162.5 102.314L161.619 102.786ZM171.07 120.254C170.962 120 170.669 119.881 170.414 119.989C170.16 120.096 170.041 120.39 170.149 120.644L171.07 120.254ZM177.121 139.456C177.205 139.719 177.487 139.864 177.75 139.78C178.013 139.696 178.157 139.414 178.073 139.151L177.121 139.456ZM183.421 158.862C183.361 158.592 183.094 158.423 182.824 158.483C182.555 158.544 182.385 158.811 182.445 159.08L183.421 158.862ZM186.002 179.101C186.038 179.375 186.289 179.568 186.563 179.531C186.837 179.495 187.029 179.244 186.993 178.97L186.002 179.101ZM188.781 199.315C188.769 199.039 188.536 198.825 188.26 198.837C187.984 198.849 187.77 199.083 187.782 199.358L188.781 199.315ZM1.48438 1.35352C4.55702 1.35352 7.6259 1.43825 10.6883 1.60711L10.7433 0.60863C7.66264 0.438757 4.57541 0.353516 1.48438 0.353516V1.35352ZM28.9849 3.6287C35.0292 4.63434 41.0257 5.97095 46.9527 7.6337L47.2228 6.67087C41.2611 4.99838 35.2292 3.65387 29.149 2.64226L28.9849 3.6287ZM64.3865 13.5489C67.2288 14.6853 70.0489 15.8997 72.8442 17.1916L73.2637 16.2839C70.4525 14.9846 67.6163 13.7633 64.7578 12.6203L64.3865 13.5489ZM72.8442 17.1916C75.7154 18.5186 78.5534 19.924 81.3557 21.4061L81.8232 20.5221C79.0052 19.0318 76.1512 17.6184 73.2637 16.2839L72.8442 17.1916ZM97.6515 31.1566C102.883 34.6701 107.957 38.4685 112.856 42.5379L113.495 41.7687C108.571 37.6778 103.469 33.8591 98.209 30.3264L97.6515 31.1566ZM126.846 55.3852C129.063 57.631 131.234 59.9385 133.355 62.306L134.1 61.6386C131.968 59.2592 129.786 56.94 127.558 54.6827L126.846 55.3852ZM133.355 62.306C135.554 64.7587 137.694 67.2698 139.776 69.8365L140.552 69.2066C138.461 66.6273 136.309 64.1037 134.1 61.6386L133.355 62.306ZM151.48 85.7913C155.106 91.2673 158.49 96.939 161.619 102.786L162.5 102.314C159.357 96.4399 155.957 90.7415 152.313 85.2391L151.48 85.7913ZM170.149 120.644C171.431 123.674 172.648 126.742 173.8 129.845L174.737 129.496C173.58 126.38 172.357 123.299 171.07 120.254L170.149 120.644ZM173.8 129.845C174.979 133.021 176.086 136.226 177.121 139.456L178.073 139.151C177.034 135.906 175.922 132.687 174.737 129.496L173.8 129.845ZM182.445 159.08C183.923 165.685 185.11 172.367 186.002 179.101L186.993 178.97C186.098 172.206 184.906 165.496 183.421 158.862L182.445 159.08ZM187.782 199.358C187.93 202.742 188.005 206.132 188.005 209.526H189.005C189.005 206.117 188.93 202.712 188.781 199.315L187.782 199.358ZM185.838 209.526C185.838 210.999 187.032 212.193 188.505 212.193C189.978 212.193 191.171 210.999 191.171 209.526C191.171 208.053 189.978 206.859 188.505 206.859C187.032 206.859 185.838 208.053 185.838 209.526ZM174.269 129.671L174.737 129.496L174.269 129.671ZM133.728 61.9723L133.355 62.306L133.728 61.9723ZM73.054 16.7378L72.8442 17.1916L73.054 16.7378ZM1.48438 0.353516C1.20823 0.353516 0.984375 0.577373 0.984375 0.853516C0.984375 1.12966 1.20823 1.35352 1.48438 1.35352V0.353516ZM10.6883 1.60711C10.964 1.62232 11.1998 1.41112 11.215 1.1354C11.2302 0.859677 11.019 0.623834 10.7433 0.60863L10.6883 1.60711ZM29.149 2.64226C28.8767 2.59694 28.6191 2.78102 28.5738 3.05342C28.5284 3.32581 28.7125 3.58338 28.9849 3.6287L29.149 2.64226ZM46.9527 7.6337C47.2186 7.70829 47.4946 7.55322 47.5692 7.28734C47.6438 7.02146 47.4887 6.74546 47.2228 6.67087L46.9527 7.6337ZM64.7578 12.6203C64.5014 12.5178 64.2104 12.6426 64.1079 12.899C64.0054 13.1554 64.1301 13.4464 64.3865 13.5489L64.7578 12.6203ZM81.3557 21.4061C81.5998 21.5352 81.9023 21.442 82.0314 21.1979C82.1605 20.9538 82.0673 20.6512 81.8232 20.5221L81.3557 21.4061ZM98.209 30.3264C97.9798 30.1724 97.6691 30.2335 97.5152 30.4627C97.3612 30.692 97.4223 31.0026 97.6515 31.1566L98.209 30.3264ZM112.856 42.5379C113.068 42.7144 113.383 42.6852 113.56 42.4728C113.736 42.2604 113.707 41.9452 113.495 41.7687L112.856 42.5379ZM127.558 54.6827C127.364 54.4862 127.047 54.4841 126.851 54.6781C126.654 54.8721 126.652 55.1887 126.846 55.3852L127.558 54.6827ZM139.776 69.8365C139.95 70.051 140.264 70.0839 140.479 69.9099C140.693 69.736 140.726 69.4211 140.552 69.2066L139.776 69.8365ZM152.313 85.2391C152.161 85.0089 151.851 84.9458 151.62 85.0983C151.39 85.2508 151.327 85.561 151.48 85.7913L152.313 85.2391ZM161.619 102.786C161.749 103.029 162.052 103.121 162.295 102.991C162.539 102.86 162.631 102.557 162.5 102.314L161.619 102.786ZM171.07 120.254C170.962 120 170.669 119.881 170.414 119.989C170.16 120.096 170.041 120.39 170.149 120.644L171.07 120.254ZM177.121 139.456C177.205 139.719 177.487 139.864 177.75 139.78C178.013 139.696 178.157 139.414 178.073 139.151L177.121 139.456ZM183.421 158.862C183.361 158.592 183.094 158.423 182.824 158.483C182.555 158.544 182.385 158.811 182.445 159.08L183.421 158.862ZM186.002 179.101C186.038 179.375 186.289 179.568 186.563 179.531C186.837 179.495 187.029 179.244 186.993 178.97L186.002 179.101ZM188.781 199.315C188.769 199.039 188.536 198.825 188.26 198.837C187.984 198.849 187.77 199.083 187.782 199.358L188.781 199.315ZM1.48438 1.35352C4.55702 1.35352 7.6259 1.43825 10.6883 1.60711L10.7433 0.60863C7.66264 0.438757 4.57541 0.353516 1.48438 0.353516V1.35352ZM28.9849 3.6287C35.0292 4.63434 41.0257 5.97095 46.9527 7.6337L47.2228 6.67087C41.2611 4.99838 35.2292 3.65387 29.149 2.64226L28.9849 3.6287ZM64.3865 13.5489C67.2288 14.6853 70.0489 15.8997 72.8442 17.1916L73.2637 16.2839C70.4525 14.9846 67.6163 13.7633 64.7578 12.6203L64.3865 13.5489ZM72.8442 17.1916C75.7154 18.5186 78.5534 19.924 81.3557 21.4061L81.8232 20.5221C79.0052 19.0318 76.1512 17.6184 73.2637 16.2839L72.8442 17.1916ZM97.6515 31.1566C102.883 34.6701 107.957 38.4685 112.856 42.5379L113.495 41.7687C108.571 37.6778 103.469 33.8591 98.209 30.3264L97.6515 31.1566ZM126.846 55.3852C129.063 57.631 131.234 59.9385 133.355 62.306L134.1 61.6386C131.968 59.2592 129.786 56.94 127.558 54.6827L126.846 55.3852ZM133.355 62.306C135.554 64.7587 137.694 67.2698 139.776 69.8365L140.552 69.2066C138.461 66.6273 136.309 64.1037 134.1 61.6386L133.355 62.306ZM151.48 85.7913C155.106 91.2673 158.49 96.939 161.619 102.786L162.5 102.314C159.357 96.4399 155.957 90.7415 152.313 85.2391L151.48 85.7913ZM170.149 120.644C171.431 123.674 172.648 126.742 173.8 129.845L174.737 129.496C173.58 126.38 172.357 123.299 171.07 120.254L170.149 120.644ZM173.8 129.845C174.979 133.021 176.086 136.226 177.121 139.456L178.073 139.151C177.034 135.906 175.922 132.687 174.737 129.496L173.8 129.845ZM182.445 159.08C183.923 165.685 185.11 172.367 186.002 179.101L186.993 178.97C186.098 172.206 184.906 165.496 183.421 158.862L182.445 159.08ZM187.782 199.358C187.93 202.742 188.005 206.132 188.005 209.526H189.005C189.005 206.117 188.93 202.712 188.781 199.315L187.782 199.358Z" fill="#B0EE18"/>
<circle cx="188.02" cy="205.682" r="8.5" fill="#B0EE18"/>
<circle cx="188.02" cy="205.682" r="13.5" stroke="#B0EE18" stroke-opacity="0.5" stroke-width="10"/>
</svg>
