<svg width="227" height="250" viewBox="0 0 227 250" fill="none" xmlns="http://www.w3.org/2000/svg">
<path d="M22.2078 231.361C22.2078 232.834 21.0139 234.028 19.5411 234.028C18.0683 234.028 16.8744 232.834 16.8744 231.361C16.8744 229.889 18.0683 228.695 19.5411 228.695C21.0139 228.695 22.2078 229.889 22.2078 231.361ZM80.0115 68.4713L80.3839 68.805L80.3839 68.805L80.0115 68.4713ZM146.992 18.5352L147.201 18.9891L147.201 18.9891L146.992 18.5352ZM226 0.5C226.276 0.5 226.5 0.723858 226.5 1C226.5 1.27614 226.276 1.5 226 1.5V0.5ZM215.837 1.78003C215.561 1.79524 215.325 1.58405 215.31 1.30832C215.295 1.0326 215.506 0.796755 215.782 0.781551L215.837 1.78003ZM195.468 3.02592C195.741 2.9806 195.998 3.16468 196.044 3.43708C196.089 3.70948 195.905 3.96704 195.633 4.01236L195.468 3.02592ZM175.792 8.43486C175.526 8.50945 175.25 8.35438 175.175 8.0885C175.101 7.82263 175.256 7.54662 175.522 7.47203L175.792 8.43486ZM156.169 14.0381C156.426 13.9356 156.717 14.0603 156.819 14.3167C156.922 14.5732 156.797 14.8641 156.541 14.9666L156.169 14.0381ZM137.803 23.6429C137.559 23.772 137.256 23.6787 137.127 23.4346C136.998 23.1905 137.091 22.888 137.335 22.7589L137.803 23.6429ZM119.251 33.5794C119.48 33.4254 119.791 33.4864 119.945 33.7157C120.099 33.9449 120.038 34.2556 119.809 34.4095L119.251 33.5794ZM103.02 46.977C102.807 47.1535 102.492 47.1243 102.316 46.9119C102.139 46.6995 102.168 46.3843 102.381 46.2078L103.02 46.977ZM86.8596 60.4605C87.0536 60.264 87.3701 60.262 87.5667 60.456C87.7632 60.6499 87.7652 60.9665 87.5713 61.163L86.8596 60.4605ZM73.2946 77.1202C73.1207 77.3347 72.8058 77.3676 72.5914 77.1936C72.3769 77.0197 72.344 76.7048 72.5179 76.4903L73.2946 77.1202ZM59.5376 94.1852C59.69 93.9549 60.0003 93.8919 60.2305 94.0444C60.4607 94.1968 60.5238 94.5071 60.3713 94.7373L59.5376 94.1852ZM49.1759 113.502C49.0456 113.746 48.7426 113.838 48.4991 113.707C48.2556 113.577 48.1639 113.274 48.2942 113.03L49.1759 113.502ZM38.8364 132.831C38.944 132.577 39.2374 132.458 39.4917 132.566C39.746 132.673 39.865 132.967 39.7574 133.221L38.8364 132.831ZM32.0587 153.993C31.9745 154.256 31.693 154.401 31.43 154.316C31.167 154.232 31.0221 153.951 31.1064 153.688L32.0587 153.993ZM25.2038 175.443C25.2641 175.173 25.5314 175.004 25.8009 175.064C26.0704 175.124 26.2399 175.392 26.1796 175.661L25.2038 175.443ZM22.2526 197.768C22.2163 198.042 21.965 198.234 21.6913 198.198C21.4175 198.162 21.225 197.91 21.2612 197.637L22.2526 197.768ZM19.2879 220.091C19.2999 219.815 19.5334 219.601 19.8093 219.613C20.0851 219.625 20.299 219.859 20.2869 220.135L19.2879 220.091ZM226 1.5C222.607 1.5 219.218 1.59357 215.837 1.78003L215.782 0.781551C219.181 0.594075 222.589 0.5 226 0.5V1.5ZM195.633 4.01236C188.958 5.12284 182.337 6.59878 175.792 8.43486L175.522 7.47203C182.101 5.62621 188.758 4.14237 195.468 3.02592L195.633 4.01236ZM156.541 14.9666C153.402 16.2215 150.288 17.5625 147.201 18.9891L146.782 18.0814C149.884 16.6474 153.015 15.2995 156.169 14.0381L156.541 14.9666ZM147.201 18.9891C144.031 20.4544 140.897 22.0063 137.803 23.6429L137.335 22.7589C140.445 21.114 143.595 19.5542 146.782 18.0814L147.201 18.9891ZM119.809 34.4095C114.032 38.2893 108.429 42.4835 103.02 46.977L102.381 46.2078C107.815 41.6928 113.446 37.4782 119.251 33.5794L119.809 34.4095ZM87.5713 61.163C85.1234 63.6429 82.7268 66.1909 80.3839 68.805L79.6392 68.1376C81.9928 65.5115 84.4004 62.9519 86.8596 60.4605L87.5713 61.163ZM80.3839 68.805C77.9566 71.5134 75.5929 74.2861 73.2946 77.1202L72.5179 76.4903C74.8265 73.6435 77.2008 70.8583 79.6392 68.1376L80.3839 68.805ZM60.3713 94.7373C56.3669 100.784 52.6306 107.046 49.1759 113.502L48.2942 113.03C51.7635 106.547 55.5158 100.258 59.5376 94.1852L60.3713 94.7373ZM39.7574 133.221C38.3418 136.567 36.9973 139.954 35.7256 143.38L34.7881 143.032C36.065 139.592 37.415 136.191 38.8364 132.831L39.7574 133.221ZM35.7256 143.38C34.4237 146.887 33.2012 150.426 32.0587 153.993L31.1064 153.688C32.2534 150.106 33.4809 146.553 34.7881 143.032L35.7256 143.38ZM26.1796 175.661C24.5476 182.954 23.2369 190.332 22.2526 197.768L21.2612 197.637C22.2495 190.171 23.5652 182.764 25.2038 175.443L26.1796 175.661ZM20.2869 220.135C20.1232 223.87 20.0411 227.614 20.0411 231.361H19.0411C19.0411 227.599 19.1236 223.841 19.2879 220.091L20.2869 220.135ZM22.2078 231.361C22.2078 232.834 21.0139 234.028 19.5411 234.028C18.0683 234.028 16.8744 232.834 16.8744 231.361C16.8744 229.889 18.0683 228.695 19.5411 228.695C21.0139 228.695 22.2078 229.889 22.2078 231.361ZM80.0115 68.4713L80.3839 68.805L80.3839 68.805L80.0115 68.4713ZM146.992 18.5352L147.201 18.9891L147.201 18.9891L146.992 18.5352ZM226 0.5C226.276 0.5 226.5 0.723858 226.5 1C226.5 1.27614 226.276 1.5 226 1.5V0.5ZM215.837 1.78003C215.561 1.79524 215.325 1.58405 215.31 1.30832C215.295 1.0326 215.506 0.796755 215.782 0.781551L215.837 1.78003ZM195.468 3.02592C195.741 2.9806 195.998 3.16468 196.044 3.43708C196.089 3.70948 195.905 3.96704 195.633 4.01236L195.468 3.02592ZM175.792 8.43486C175.526 8.50945 175.25 8.35438 175.175 8.0885C175.101 7.82263 175.256 7.54662 175.522 7.47203L175.792 8.43486ZM156.169 14.0381C156.426 13.9356 156.717 14.0603 156.819 14.3167C156.922 14.5732 156.797 14.8641 156.541 14.9666L156.169 14.0381ZM137.803 23.6429C137.559 23.772 137.256 23.6787 137.127 23.4346C136.998 23.1905 137.091 22.888 137.335 22.7589L137.803 23.6429ZM119.251 33.5794C119.48 33.4254 119.791 33.4864 119.945 33.7157C120.099 33.9449 120.038 34.2556 119.809 34.4095L119.251 33.5794ZM103.02 46.977C102.807 47.1535 102.492 47.1243 102.316 46.9119C102.139 46.6995 102.168 46.3843 102.381 46.2078L103.02 46.977ZM86.8596 60.4605C87.0536 60.264 87.3701 60.262 87.5667 60.456C87.7632 60.6499 87.7652 60.9665 87.5713 61.163L86.8596 60.4605ZM73.2946 77.1202C73.1207 77.3347 72.8058 77.3676 72.5914 77.1936C72.3769 77.0197 72.344 76.7048 72.5179 76.4903L73.2946 77.1202ZM59.5376 94.1852C59.69 93.9549 60.0003 93.8919 60.2305 94.0444C60.4607 94.1968 60.5238 94.5071 60.3713 94.7373L59.5376 94.1852ZM49.1759 113.502C49.0456 113.746 48.7426 113.838 48.4991 113.707C48.2556 113.577 48.1639 113.274 48.2942 113.03L49.1759 113.502ZM38.8364 132.831C38.944 132.577 39.2374 132.458 39.4917 132.566C39.746 132.673 39.865 132.967 39.7574 133.221L38.8364 132.831ZM32.0587 153.993C31.9745 154.256 31.693 154.401 31.43 154.316C31.167 154.232 31.0221 153.951 31.1064 153.688L32.0587 153.993ZM25.2038 175.443C25.2641 175.173 25.5314 175.004 25.8009 175.064C26.0704 175.124 26.2399 175.392 26.1796 175.661L25.2038 175.443ZM22.2526 197.768C22.2163 198.042 21.965 198.234 21.6913 198.198C21.4175 198.162 21.225 197.91 21.2612 197.637L22.2526 197.768ZM19.2879 220.091C19.2999 219.815 19.5334 219.601 19.8093 219.613C20.0851 219.625 20.299 219.859 20.2869 220.135L19.2879 220.091ZM226 1.5C222.607 1.5 219.218 1.59357 215.837 1.78003L215.782 0.781551C219.181 0.594075 222.589 0.5 226 0.5V1.5ZM195.633 4.01236C188.958 5.12284 182.337 6.59878 175.792 8.43486L175.522 7.47203C182.101 5.62621 188.758 4.14237 195.468 3.02592L195.633 4.01236ZM156.541 14.9666C153.402 16.2215 150.288 17.5625 147.201 18.9891L146.782 18.0814C149.884 16.6474 153.015 15.2995 156.169 14.0381L156.541 14.9666ZM147.201 18.9891C144.031 20.4544 140.897 22.0063 137.803 23.6429L137.335 22.7589C140.445 21.114 143.595 19.5542 146.782 18.0814L147.201 18.9891ZM119.809 34.4095C114.032 38.2893 108.429 42.4835 103.02 46.977L102.381 46.2078C107.815 41.6928 113.446 37.4782 119.251 33.5794L119.809 34.4095ZM87.5713 61.163C85.1234 63.6429 82.7268 66.1909 80.3839 68.805L79.6392 68.1376C81.9928 65.5115 84.4004 62.9519 86.8596 60.4605L87.5713 61.163ZM80.3839 68.805C77.9566 71.5134 75.5929 74.2861 73.2946 77.1202L72.5179 76.4903C74.8265 73.6435 77.2008 70.8583 79.6392 68.1376L80.3839 68.805ZM60.3713 94.7373C56.3669 100.784 52.6306 107.046 49.1759 113.502L48.2942 113.03C51.7635 106.547 55.5158 100.258 59.5376 94.1852L60.3713 94.7373ZM39.7574 133.221C38.3418 136.567 36.9973 139.954 35.7256 143.38L34.7881 143.032C36.065 139.592 37.415 136.191 38.8364 132.831L39.7574 133.221ZM35.7256 143.38C34.4237 146.887 33.2012 150.426 32.0587 153.993L31.1064 153.688C32.2534 150.106 33.4809 146.553 34.7881 143.032L35.7256 143.38ZM26.1796 175.661C24.5476 182.954 23.2369 190.332 22.2526 197.768L21.2612 197.637C22.2495 190.171 23.5652 182.764 25.2038 175.443L26.1796 175.661ZM20.2869 220.135C20.1232 223.87 20.0411 227.614 20.0411 231.361H19.0411C19.0411 227.599 19.1236 223.841 19.2879 220.091L20.2869 220.135Z" fill="#B0EE18"/>
<ellipse cx="9.73143" cy="10.8581" rx="9.73143" ry="10.8581" transform="matrix(-1 0 0 1 29.4609 217.734)" fill="#B0EE18"/>
<path d="M19.7295 244.451C11.0925 244.451 4.99808 236.821 4.99808 228.592C4.99808 220.363 11.0925 212.734 19.7295 212.734C28.3665 212.734 34.4609 220.363 34.4609 228.592C34.4609 236.821 28.3665 244.451 19.7295 244.451Z" stroke="#B0EE18" stroke-opacity="0.5" stroke-width="10"/>
</svg>
