<svg width="241" height="239" viewBox="0 0 241 239" fill="none" xmlns="http://www.w3.org/2000/svg">
<rect width="241" height="239" fill="#F5F5F5"/>
<circle cx="97.4208" cy="110.785" r="89.2342" fill="url(#paint0_radial_0_1)"/>
<path style="mix-blend-mode:screen" d="M44.189 163.997C52.324 155.859 52.3239 142.664 44.189 134.525C36.054 126.387 22.8646 126.387 14.7297 134.525C6.5947 142.664 6.59469 155.859 14.7297 163.997C22.8646 172.136 36.054 172.136 44.189 163.997Z" fill="url(#paint1_radial_0_1)"/>
<path style="mix-blend-mode:screen" d="M44.189 163.997C52.324 155.859 52.3239 142.664 44.189 134.525C36.054 126.387 22.8646 126.387 14.7297 134.525C6.5947 142.664 6.59469 155.859 14.7297 163.997C22.8646 172.136 36.054 172.136 44.189 163.997Z" fill="url(#paint2_radial_0_1)"/>
<path style="mix-blend-mode:screen" d="M44.189 163.997C52.324 155.859 52.3239 142.664 44.189 134.525C36.054 126.387 22.8646 126.387 14.7297 134.525C6.5947 142.664 6.59469 155.859 14.7297 163.997C22.8646 172.136 36.054 172.136 44.189 163.997Z" fill="url(#paint3_radial_0_1)"/>
<path style="mix-blend-mode:screen" d="M44.189 163.997C52.324 155.859 52.3239 142.664 44.189 134.525C36.054 126.387 22.8646 126.387 14.7297 134.525C6.5947 142.664 6.59469 155.859 14.7297 163.997C22.8646 172.136 36.054 172.136 44.189 163.997Z" fill="url(#paint4_radial_0_1)"/>
<path style="mix-blend-mode:screen" d="M29.4588 170.1C40.9634 170.1 50.2897 160.77 50.2897 149.26C50.2897 137.751 40.9634 128.42 29.4588 128.42C17.9542 128.42 8.62793 137.751 8.62793 149.26C8.62793 160.77 17.9542 170.1 29.4588 170.1Z" fill="url(#paint5_radial_0_1)"/>
<path style="mix-blend-mode:screen" d="M44.189 163.997C52.324 155.859 52.3239 142.664 44.189 134.525C36.054 126.387 22.8646 126.387 14.7297 134.525C6.5947 142.664 6.59469 155.859 14.7297 163.997C22.8646 172.136 36.054 172.136 44.189 163.997Z" fill="url(#paint6_radial_0_1)"/>
<path style="mix-blend-mode:screen" d="M20.7862 130.309C31.2482 125.515 43.6123 130.114 48.4002 140.581C53.192 151.047 48.5944 163.417 38.1324 168.207C27.6705 173.001 15.3063 168.401 10.5185 157.935C5.72658 147.468 10.3242 135.099 20.7862 130.309Z" fill="url(#paint7_radial_0_1)"/>
<path style="mix-blend-mode:multiply" opacity="0.52" d="M44.1958 163.997C52.3308 155.859 52.3308 142.664 44.1958 134.525C36.0608 126.387 22.8715 126.387 14.7365 134.525C6.60154 142.664 6.60153 155.859 14.7365 163.997C22.8715 172.136 36.0609 172.136 44.1958 163.997Z" fill="url(#paint8_linear_0_1)"/>
<path d="M95.1261 63.4361C140.682 64.4482 155.671 84.9068 154.863 107.415C154.359 121.57 159.674 132.185 159.674 132.185C161.799 135.534 164.176 137.199 166.759 137.492C165.282 140.677 162.73 141.433 159.674 141.032C163.085 143.96 165.143 147.947 163.723 154.683C162.354 151.729 160.224 150.213 157.646 149.545C160.929 154.344 161.176 158.279 157.646 160.833C157.368 157.375 155.46 155.387 149.97 156.62C133.247 167.09 116.335 175.301 98.4139 171.113C88.0359 178.373 78.1776 177.962 69.0499 166.818C61.2805 165.868 54.9364 161.814 49.3075 156.204C44.2136 155.279 43.0714 157.724 43.483 161.511C40.293 158.88 38.4818 155.772 41.7131 150.896C38.8214 150.927 36.362 152.633 34.1186 155.191C33.9437 150.223 34.4016 145.733 36.9022 142.804C33.8459 141.268 32.184 138.91 32.3435 135.473C34.4222 136.896 36.8919 136.901 39.6858 135.724C39.6858 135.724 46.7708 128.65 47.2802 105.139C47.5529 92.5929 60.9512 62.6757 95.121 63.4361H95.1261Z" fill="url(#paint9_linear_0_1)"/>
<path d="M68.6825 134.492C65.1066 134.492 61.4586 134.184 57.5945 133.86C55.0733 133.65 52.4698 133.429 49.8045 133.29C49.4958 133.275 49.2179 133.12 49.043 132.863C48.8681 132.612 48.8218 132.298 48.9195 132.005C54.533 114.65 59.2152 102.366 68.3584 102.366C69.8968 102.366 71.5793 102.725 73.3596 103.434C75.2376 104.184 76.74 105.705 77.4912 107.611C80.0844 114.203 81.2833 124.011 76.8532 131.785C76.03 133.233 74.5584 134.184 72.9171 134.323C71.5896 134.436 70.2055 134.492 68.6928 134.492H68.6825Z" fill="#4F5E63"/>
<path d="M68.3508 103.655C69.7246 103.655 71.2476 103.984 72.8735 104.631C74.4222 105.248 75.6673 106.507 76.2848 108.084C78.7699 114.398 79.9276 123.775 75.724 131.153C75.1065 132.237 74.0157 132.941 72.7963 133.043C71.5048 133.151 70.1568 133.208 68.6749 133.208C65.1556 133.208 61.5282 132.905 57.6898 132.581C55.2818 132.381 52.7966 132.17 50.2497 132.031C55.467 115.924 60.1492 103.655 68.3405 103.655M68.3405 101.086C57.9779 101.086 52.987 115.21 47.6822 131.615C47.2243 133.033 48.2379 134.497 49.73 134.574C56.3932 134.919 62.6653 135.777 68.6749 135.777C70.1362 135.777 71.582 135.725 73.0124 135.602C75.0808 135.427 76.9279 134.225 77.957 132.422C82.7833 123.949 81.2397 113.653 78.6773 107.144C77.7975 104.914 76.0533 103.136 73.8254 102.248C71.8444 101.456 70.023 101.086 68.3456 101.086H68.3405Z" fill="black"/>
<path d="M109.924 136.546C101.944 136.546 96.3095 134.722 94.4623 131.542C91.4318 126.312 90.7989 115.687 95.0644 107.641C97.0967 103.803 101.059 99.1176 108.375 98.5884C108.674 98.5679 108.982 98.5576 109.281 98.5576C120.852 98.5576 131.606 114.392 137.297 127.951C137.77 129.081 137.271 130.401 136.16 130.951C129.383 134.301 118.841 136.551 109.919 136.551L109.924 136.546Z" fill="#4F5E63"/>
<path d="M109.285 97.2698V99.8387C115.151 99.8387 120.502 104.447 123.954 108.316C128.467 113.366 132.784 120.518 136.113 128.446C136.324 128.954 136.097 129.545 135.593 129.797C128.981 133.065 118.665 135.264 109.923 135.264C102.524 135.264 97.1578 133.63 95.573 130.896C92.7122 125.964 92.1411 115.899 96.2007 108.239C98.0839 104.689 101.737 100.352 108.467 99.8644C108.735 99.8438 109.012 99.8335 109.28 99.8335V97.2646M109.28 97.2646C108.946 97.2646 108.611 97.2749 108.282 97.3006C90.8136 98.5645 87.5618 122.203 93.3451 132.181C95.6759 136.199 102.252 137.827 109.918 137.827C119.118 137.827 129.887 135.479 136.73 132.094C138.449 131.246 139.22 129.211 138.479 127.449C132.043 112.108 121.021 97.2646 109.275 97.2646H109.28Z" fill="black"/>
<path d="M154.353 99.5796C175.269 94.56 168.024 52.0604 159.668 47.0049C154.446 49.1525 150.463 52.2762 145.745 54.5882C135.403 59.6592 129.543 59.4023 121.938 71.4812C121.635 71.959 121.676 72.5807 122.036 73.0174C126.404 78.3504 146.934 101.357 154.353 99.5796Z" fill="#515A61"/>
<mask id="mask0_0_1" style="mask-type:luminance" maskUnits="userSpaceOnUse" x="121" y="47" width="48" height="53">
<path d="M154.357 99.5777C175.273 94.5581 168.028 52.0585 159.672 47.0029C154.45 49.1505 150.467 52.2743 145.749 54.5863C135.407 59.6572 129.547 59.4004 121.942 71.4792C121.638 71.9571 121.68 72.5787 122.04 73.0154C126.408 78.3484 146.938 101.355 154.357 99.5777Z" fill="white"/>
</mask>
<g mask="url(#mask0_0_1)">
<path opacity="0.2" d="M158.49 54.3325C172.33 77.586 171.065 100.588 147.016 100.67L158.49 54.3325Z" fill="#44494D"/>
<path d="M119.426 73.7955C119.426 73.7955 128.054 62.3383 139.93 58.8806C151.805 55.428 160.264 47.002 160.264 47.002L135.628 46.4985L119.426 73.7955Z" fill="#7D848C"/>
</g>
<path d="M138.156 76.8288C138.156 76.8288 139.926 72.2767 146.255 67.7298C153.834 62.2838 157.394 57.48 157.394 57.48C165.493 70.2576 161.3 89.144 153.597 94.0198L138.156 76.8339V76.8288Z" fill="#FAFEFF"/>
<path d="M138.156 76.8278C138.156 76.8278 139.926 72.2758 146.255 67.7288C153.834 62.2828 157.394 57.479 157.394 57.479C165.493 70.2566 161.3 89.143 153.597 94.0188L138.156 76.833V76.8278Z" fill="url(#paint10_linear_0_1)"/>
<mask id="mask1_0_1" style="mask-type:luminance" maskUnits="userSpaceOnUse" x="138" y="57" width="24" height="38">
<path d="M138.152 76.8293C138.152 76.8293 139.922 72.2772 146.251 67.7303C153.83 62.2843 157.391 57.4805 157.391 57.4805C165.489 70.2581 161.296 89.1445 153.593 94.0203L138.152 76.8344V76.8293Z" fill="white"/>
</mask>
<g mask="url(#mask1_0_1)">
<path opacity="0.2" d="M157.647 56.8647C153.731 79.625 145.602 84.1103 136.387 78.6026C138.666 67.8853 147.382 60.9647 157.647 56.8647Z" fill="#44494D"/>
</g>
<path d="M70.315 70.5128C70.315 70.5128 58.4192 59.3895 50.5726 56.8617C46.4204 55.5259 42.1344 52.7001 39.8499 51.0509C38.8466 50.3316 37.447 50.5115 36.6804 51.4774C27.5167 63.0579 27.8614 86.1881 49.559 99.5771L70.315 70.5076V70.5128Z" fill="#515A61"/>
<mask id="mask2_0_1" style="mask-type:luminance" maskUnits="userSpaceOnUse" x="31" y="50" width="40" height="50">
<path d="M70.315 70.5128C70.315 70.5128 58.4192 59.3895 50.5726 56.8617C46.4204 55.5259 42.1344 52.7001 39.8499 51.0509C38.8466 50.3316 37.447 50.5115 36.6804 51.4774C27.5167 63.0579 27.8614 86.1881 49.559 99.5771L70.315 70.5076V70.5128Z" fill="white"/>
</mask>
<g mask="url(#mask2_0_1)">
<path d="M37.9141 48.7739C37.9141 48.7739 40.4455 57.3694 46.2648 59.1368C53.7255 61.4025 69.0481 77.5865 69.0481 77.5865L74.3631 70.5118C68.2197 61.1302 53.638 54.7491 37.9141 48.7739Z" fill="#7D848C"/>
<path opacity="0.2" d="M37.4113 58.3811C24.7539 64.9523 33.362 96.2927 48.0414 98.0652L51.0771 93.5131L38.9291 58.6328C38.6616 57.8725 38.1265 58.0112 37.4113 58.3811Z" fill="black"/>
</g>
<path d="M51.3323 93.2614C35.8914 84.9588 33.504 72.1504 37.5687 58.4171C37.7591 57.78 38.639 57.7286 38.8757 58.3503C39.8635 60.9706 41.7364 65.3428 43.4807 66.2163C52.6084 70.7734 57.908 80.119 57.908 80.119L51.3272 93.2614H51.3323Z" fill="url(#paint11_linear_0_1)"/>
<mask id="mask3_0_1" style="mask-type:luminance" maskUnits="userSpaceOnUse" x="35" y="57" width="23" height="37">
<path d="M51.3372 93.2653C35.8963 84.9627 33.5089 72.1543 37.5736 58.421C37.764 57.7839 38.6439 57.7326 38.8805 58.3542C39.8684 60.9745 41.7413 65.3467 43.4856 66.2202C52.6133 70.7774 57.9129 80.1229 57.9129 80.1229L51.3321 93.2653H51.3372Z" fill="white"/>
</mask>
<g mask="url(#mask3_0_1)">
<path opacity="0.2" d="M57.9151 85.4291C38.4248 75.0662 38.6769 57.6235 38.6769 57.6235L61.5425 75.7496L57.9151 85.424V85.4291Z" fill="#44494D"/>
</g>
<path opacity="0.2" d="M97.6482 118.431C96.3619 93.8267 121.548 97.4129 121.733 118.431C121.908 137.904 98.7133 138.823 97.6482 118.431Z" fill="black"/>
<path opacity="0.2" d="M98.9624 118.857C97.815 96.0969 120.269 99.4108 120.434 118.857C120.588 136.87 99.9143 137.723 98.9624 118.857Z" fill="#1E2429"/>
<path d="M99.4654 119.855C98.3438 98.728 120.268 101.806 120.432 119.855C120.582 136.573 100.392 137.364 99.4654 119.855Z" fill="#FCFDFF"/>
<path d="M102.741 121.426C102.01 110.38 116.278 111.988 116.381 121.426C116.479 130.171 103.343 130.582 102.741 121.426Z" fill="#076BD3"/>
<path d="M105.764 122.175C105.265 113.677 115.035 114.915 115.113 122.175C115.179 128.9 106.18 129.219 105.764 122.175Z" fill="black"/>
<path d="M103.735 117.563C103.468 113.879 108.747 114.419 108.788 117.563C108.824 120.476 103.962 120.615 103.735 117.563Z" fill="white"/>
<path d="M111.32 124.977C111.171 122.264 114.078 122.66 114.098 124.977C114.119 127.125 111.443 127.227 111.32 124.977Z" fill="white"/>
<path opacity="0.2" d="M99.5684 121.099C101.369 137.314 120.577 136.168 120.432 119.856C120.432 119.84 120.432 119.825 120.432 119.804C116.126 126.982 105.053 127.614 99.5735 121.099H99.5684Z" fill="black"/>
<mask id="mask4_0_1" style="mask-type:luminance" maskUnits="userSpaceOnUse" x="32" y="63" width="135" height="113">
<path d="M95.1271 63.4332C140.683 64.4453 155.672 84.9039 154.864 107.412C154.359 121.567 159.675 132.182 159.675 132.182C161.8 135.531 164.177 137.196 166.76 137.489C165.283 140.674 162.731 141.43 159.675 141.029C163.086 143.957 165.144 147.944 163.724 154.68C162.355 151.726 160.225 150.21 157.647 149.542C160.93 154.341 161.177 158.276 157.647 160.83C157.369 157.372 155.461 155.384 149.971 156.617C133.248 167.088 116.336 175.298 98.4149 171.11C88.0369 178.37 78.1786 177.959 69.0509 166.815C61.2815 165.865 54.9374 161.811 49.3084 156.201C44.2146 155.276 43.0724 157.721 43.484 161.508C40.294 158.877 38.4828 155.769 41.714 150.893C38.8224 150.924 36.363 152.63 34.1196 155.189C33.9447 150.22 34.4026 145.73 36.9032 142.801C33.8469 141.265 32.185 138.907 32.3445 135.47C34.4232 136.893 36.8929 136.898 39.6868 135.722C39.6868 135.722 46.7718 128.647 47.2812 105.136C47.5539 92.59 60.9522 62.6728 95.122 63.4332H95.1271Z" fill="white"/>
</mask>
<g mask="url(#mask4_0_1)">
<path d="M85.499 95.7855C66.7702 83.1466 52.0856 96.0372 46.2663 110.7L22.4746 96.7976L83.7291 54.334L178.088 70.6361L166.753 137.489C143.466 143.808 142.961 60.1448 85.499 95.7855Z" fill="url(#paint12_linear_0_1)"/>
<path opacity="0.2" d="M69.0436 166.81C81.953 179.449 91.3174 173.381 100.43 166.558C142.22 162.587 154.404 147.528 149.958 126.242C149.958 126.242 147.005 101.093 144.977 93.2575C142.95 85.4224 137.892 82.1343 137.892 82.1343L126.249 48.2661L212.396 121.798L157.383 213.569L62.7148 183.744L69.0436 166.81Z" fill="black"/>
</g>
<path d="M79.7068 103.88C84.034 113.971 83.3445 124.678 79.9383 135.724H91.33C88.5155 123.656 87.5842 112.409 91.7159 103.387C92.1018 102.539 92.0915 101.563 91.7004 100.721L86.905 90.3423C86.1435 88.6983 83.7561 88.8524 83.2107 90.5787L79.6142 102.056C79.429 102.658 79.4598 103.3 79.7068 103.88Z" fill="#4F5E63"/>
<path d="M65.2539 141.788C75.6319 132.185 95.6316 132.437 103.73 142.461Z" fill="url(#paint13_linear_0_1)"/>
<path d="M65.2539 141.788C75.6319 132.185 95.6316 132.437 103.73 142.461" stroke="black" stroke-miterlimit="10"/>
<path d="M72.5944 142.046C72.8516 138.357 93.0828 138.383 92.5889 142.55C92.1721 146.064 87.7781 151.9 82.9724 151.9C76.8958 151.9 72.3782 145.077 72.5944 142.041V142.046Z" fill="#361807"/>
<path d="M75.8908 143.052C75.3866 146.083 86.3821 146.34 87.087 143.052C87.7919 139.764 76.4002 140.021 75.8908 143.052Z" fill="#9E3B23"/>
<path d="M136.659 83.0979C137.271 83.2623 137.883 82.8308 137.94 82.1988C138.182 79.5375 139.586 72.92 147.263 67.2223C157.137 59.8907 158.403 54.8351 158.403 54.8351L159.668 47C154.446 49.1476 150.463 52.2714 145.745 54.5833C135.403 59.6543 129.543 59.3974 121.938 71.4763C121.635 71.9541 121.676 72.5758 122.036 73.0125C126.404 78.3455 131.004 81.5617 136.659 83.0928V83.0979Z" fill="#515A61"/>
<mask id="mask5_0_1" style="mask-type:luminance" maskUnits="userSpaceOnUse" x="121" y="47" width="47" height="53">
<path d="M154.354 99.5767C175.27 94.5571 168.025 52.0575 159.669 47.002C154.447 49.1495 150.464 52.2733 145.746 54.5853C135.404 59.6563 129.544 59.3994 121.939 71.4783C121.635 71.9561 121.677 72.5777 122.037 73.0145C126.405 78.3475 146.935 101.354 154.354 99.5767Z" fill="white"/>
</mask>
<g mask="url(#mask5_0_1)">
<path d="M119.423 73.7945C119.423 73.7945 128.051 62.3373 139.927 58.8796C151.802 55.427 160.261 47.0011 160.261 47.0011L135.625 46.4976L119.423 73.7945Z" fill="#7D848C"/>
</g>
<path opacity="0.2" d="M57.917 121.57C57.917 136.228 77.6903 138.324 78.4209 120.558C79.3625 97.5871 57.917 98.1214 57.917 121.57Z" fill="black"/>
<path d="M59.1807 122.335C59.1807 135.992 76.0006 137.944 76.6231 121.395C77.4258 99.9964 59.1807 100.495 59.1807 122.335Z" fill="#1E2429"/>
<path d="M59.4326 122.63C59.4326 135.284 76.2525 137.093 76.8751 121.757C77.6777 101.93 59.4326 102.392 59.4326 122.63Z" fill="#FCFDFF"/>
<path d="M65.001 123.968C65.001 130.483 75.4819 131.413 75.8678 123.522C76.3669 113.313 65.001 113.549 65.001 123.968Z" fill="#076BD3"/>
<path d="M67.2803 124.357C67.2803 129.12 74.8387 129.798 75.1165 124.028C75.4767 116.568 67.2803 116.743 67.2803 124.357Z" fill="black"/>
<path d="M71.834 126.641C71.834 127.895 74.0259 128.075 74.1082 126.554C74.2111 124.591 71.834 124.638 71.834 126.641Z" fill="white"/>
<path d="M65.7607 119.669C65.7607 121.421 69.9027 121.673 70.057 119.546C70.2526 116.797 65.7607 116.864 65.7607 119.669Z" fill="white"/>
<path opacity="0.2" d="M59.4738 120.995C59.448 121.524 59.4326 122.068 59.4326 122.628C59.4326 135.149 75.8975 137.05 76.8442 122.238C71.9665 126.626 63.3996 125.809 59.4738 121V120.995Z" fill="black"/>
<path d="M66.2646 153.672C66.8255 151.93 68.189 150.8 70.0619 150.892Z" fill="#F9FEFF"/>
<path d="M66.2646 153.672C66.8255 151.93 68.189 150.8 70.0619 150.892" stroke="black" stroke-miterlimit="10"/>
<path d="M98.9131 151.39C100.657 151.95 101.789 153.311 101.697 155.181Z" fill="#F9FEFF"/>
<path d="M98.9131 151.39C100.657 151.95 101.789 153.311 101.697 155.181" stroke="black" stroke-miterlimit="10"/>
<path d="M67.6631 151.519C70.74 157.7 75.4221 163.187 82.5998 157.011C88.8564 162.067 95.4321 160.788 101.329 153.292" fill="url(#paint14_linear_0_1)"/>
<path d="M67.6631 151.519C70.74 157.7 75.4221 163.187 82.5998 157.011C88.8564 162.067 95.4321 160.788 101.329 153.292" stroke="black" stroke-miterlimit="10"/>
<path d="M82.4131 151.901L82.5929 156.787" stroke="black" stroke-miterlimit="10"/>
<path opacity="0.2" d="M67.7836 151.396C67.9328 152.08 70.2379 155.707 73.6081 157.464C76.2939 158.862 82.4682 156.961 82.4682 156.961C82.4682 156.961 85.684 158.826 89.5533 158.728C93.3247 158.636 97.7085 156.632 101.197 153.169C101.197 153.169 99.5968 155.877 96.8956 157.721C94.1943 159.566 90.1861 160.393 88.2875 159.997C83.9346 159.083 82.4631 156.966 82.4631 156.966C82.4631 156.966 81.0893 158.415 79.1701 159.242C78.2697 159.632 76.9268 159.684 76.1344 159.745C72.1417 160.079 67.4183 151.648 67.7836 151.407V151.396Z" fill="black"/>
<path style="mix-blend-mode:screen" d="M204.571 108.617C224.559 88.6209 224.559 56.2014 204.571 36.2056C184.584 16.2099 152.178 16.2098 132.191 36.2056C112.204 56.2013 112.204 88.6209 132.191 108.617C152.178 128.612 184.584 128.612 204.571 108.617Z" fill="url(#paint15_radial_0_1)"/>
<path style="mix-blend-mode:screen" d="M204.572 108.617C224.56 88.6209 224.56 56.2014 204.572 36.2056C184.585 16.2099 152.179 16.2098 132.192 36.2056C112.205 56.2013 112.205 88.6209 132.192 108.617C152.179 128.612 184.585 128.612 204.572 108.617Z" fill="url(#paint16_radial_0_1)"/>
<path style="mix-blend-mode:screen" d="M204.572 108.617C224.56 88.6209 224.56 56.2014 204.572 36.2056C184.585 16.2099 152.179 16.2098 132.192 36.2056C112.205 56.2013 112.205 88.6209 132.192 108.617C152.179 128.612 184.585 128.612 204.572 108.617Z" fill="url(#paint17_radial_0_1)"/>
<path style="mix-blend-mode:screen" d="M204.571 108.617C224.559 88.6209 224.559 56.2014 204.571 36.2056C184.584 16.2099 152.178 16.2098 132.191 36.2056C112.204 56.2013 112.204 88.6209 132.191 108.617C152.178 128.612 184.584 128.612 204.571 108.617Z" fill="url(#paint18_radial_0_1)"/>
<path style="mix-blend-mode:screen" d="M168.377 123.611C196.643 123.611 219.557 100.687 219.557 72.4084C219.557 44.1301 196.643 21.2061 168.377 21.2061C140.111 21.2061 117.196 44.1301 117.196 72.4084C117.196 100.687 140.111 123.611 168.377 123.611Z" fill="url(#paint19_radial_0_1)"/>
<path style="mix-blend-mode:screen" d="M204.571 108.617C224.559 88.6209 224.559 56.2014 204.571 36.2056C184.584 16.2099 152.178 16.2098 132.191 36.2056C112.204 56.2013 112.204 88.6209 132.191 108.617C152.178 128.612 184.584 128.612 204.571 108.617Z" fill="url(#paint20_radial_0_1)"/>
<path style="mix-blend-mode:screen" d="M147.067 25.8507C172.771 14.0723 203.15 25.3732 214.913 51.0888C226.687 76.8044 215.39 107.195 189.686 118.964C163.981 130.742 133.603 119.441 121.839 93.7259C110.066 68.0103 121.362 37.6192 147.067 25.8507Z" fill="url(#paint21_radial_0_1)"/>
<path style="mix-blend-mode:multiply" opacity="0.52" d="M204.57 108.617C224.558 88.6209 224.558 56.2014 204.57 36.2056C184.583 16.2099 152.177 16.2098 132.19 36.2056C112.203 56.2013 112.203 88.6209 132.19 108.617C152.177 128.612 184.583 128.612 204.57 108.617Z" fill="url(#paint22_linear_0_1)"/>
<path style="mix-blend-mode:screen" d="M148.878 213.908C162.662 200.118 162.662 177.759 148.878 163.969C135.093 150.179 112.745 150.179 98.9606 163.969C85.1763 177.759 85.1763 200.118 98.9605 213.908C112.745 227.698 135.093 227.698 148.878 213.908Z" fill="url(#paint23_radial_0_1)"/>
<path style="mix-blend-mode:screen" d="M148.88 213.908C162.664 200.118 162.664 177.759 148.88 163.969C135.095 150.179 112.747 150.179 98.9625 163.969C85.1783 177.759 85.1782 200.118 98.9625 213.908C112.747 227.698 135.095 227.698 148.88 213.908Z" fill="url(#paint24_radial_0_1)"/>
<path style="mix-blend-mode:screen" d="M148.88 213.908C162.664 200.118 162.664 177.759 148.88 163.969C135.095 150.179 112.747 150.179 98.9625 163.969C85.1783 177.759 85.1782 200.118 98.9625 213.908C112.747 227.698 135.095 227.698 148.88 213.908Z" fill="url(#paint25_radial_0_1)"/>
<path style="mix-blend-mode:screen" d="M148.878 213.908C162.662 200.118 162.662 177.759 148.878 163.969C135.093 150.179 112.745 150.179 98.9606 163.969C85.1763 177.759 85.1763 200.118 98.9605 213.908C112.745 227.698 135.093 227.698 148.878 213.908Z" fill="url(#paint26_radial_0_1)"/>
<path style="mix-blend-mode:screen" d="M123.92 224.248C143.414 224.248 159.217 208.438 159.217 188.936C159.217 169.434 143.414 153.624 123.92 153.624C104.426 153.624 88.623 169.434 88.623 188.936C88.623 208.438 104.426 224.248 123.92 224.248Z" fill="url(#paint27_radial_0_1)"/>
<path style="mix-blend-mode:screen" d="M148.878 213.908C162.662 200.118 162.662 177.759 148.878 163.969C135.093 150.179 112.745 150.179 98.9606 163.969C85.1763 177.759 85.1763 200.118 98.9605 213.908C112.745 227.698 135.093 227.698 148.878 213.908Z" fill="url(#paint28_radial_0_1)"/>
<path style="mix-blend-mode:screen" d="M109.217 156.828C126.944 148.705 147.894 156.498 156.007 174.233C164.127 191.968 156.336 212.927 138.609 221.043C120.882 229.166 99.9312 221.373 91.8185 203.638C83.6989 185.903 91.4893 164.944 109.217 156.828Z" fill="url(#paint29_radial_0_1)"/>
<path style="mix-blend-mode:multiply" opacity="0.52" d="M148.876 213.908C162.66 200.118 162.66 177.759 148.876 163.969C135.092 150.179 112.743 150.179 98.9586 163.969C85.1744 177.759 85.1743 200.118 98.9586 213.908C112.743 227.698 135.092 227.698 148.876 213.908Z" fill="url(#paint30_linear_0_1)"/>
<defs>
<radialGradient id="paint0_radial_0_1" cx="0" cy="0" r="1" gradientUnits="userSpaceOnUse" gradientTransform="translate(97.4208 110.785) rotate(90) scale(89.2342)">
<stop stop-color="#37579C"/>
<stop offset="1" stop-color="#131E36"/>
</radialGradient>
<radialGradient id="paint1_radial_0_1" cx="0" cy="0" r="1" gradientUnits="userSpaceOnUse" gradientTransform="translate(28.0344 147.979) scale(26.2905 26.3017)">
<stop offset="0.59"/>
<stop offset="0.63" stop-color="#070707"/>
<stop offset="0.68" stop-color="#1B1B1B"/>
<stop offset="0.74" stop-color="#3C3C3C"/>
<stop offset="0.81" stop-color="#696969"/>
<stop offset="0.89" stop-color="#A4A4A4"/>
<stop offset="0.98" stop-color="#EAEAEA"/>
<stop offset="1" stop-color="white"/>
</radialGradient>
<radialGradient id="paint2_radial_0_1" cx="0" cy="0" r="1" gradientUnits="userSpaceOnUse" gradientTransform="translate(17.8355 132.804) scale(26.9017 26.9131)">
<stop offset="0.3" stop-color="#FFE496"/>
<stop offset="0.34" stop-color="#EAD18A"/>
<stop offset="0.48" stop-color="#A49360"/>
<stop offset="0.62" stop-color="#695E3E"/>
<stop offset="0.74" stop-color="#3C3523"/>
<stop offset="0.85" stop-color="#1B1810"/>
<stop offset="0.94" stop-color="#070604"/>
<stop offset="1"/>
</radialGradient>
<radialGradient id="paint3_radial_0_1" cx="0" cy="0" r="1" gradientUnits="userSpaceOnUse" gradientTransform="translate(41.0854 165.72) rotate(180) scale(10.5753 10.5798)">
<stop stop-color="white"/>
<stop offset="0.06" stop-color="#EAEAEA"/>
<stop offset="0.26" stop-color="#A4A4A4"/>
<stop offset="0.45" stop-color="#696969"/>
<stop offset="0.63" stop-color="#3C3C3C"/>
<stop offset="0.78" stop-color="#1B1B1B"/>
<stop offset="0.91" stop-color="#070707"/>
<stop offset="1"/>
</radialGradient>
<radialGradient id="paint4_radial_0_1" cx="0" cy="0" r="1" gradientUnits="userSpaceOnUse" gradientTransform="translate(30.3159 150.116) rotate(180) scale(22.3445 22.354)">
<stop/>
<stop offset="0.82"/>
<stop offset="0.84" stop-color="#070305"/>
<stop offset="0.86" stop-color="#1B0D15"/>
<stop offset="0.89" stop-color="#3C1D2F"/>
<stop offset="0.92" stop-color="#693353"/>
<stop offset="0.95" stop-color="#A44F81"/>
<stop offset="0.99" stop-color="#EA72B8"/>
<stop offset="1" stop-color="#FF7CC9"/>
</radialGradient>
<radialGradient id="paint5_radial_0_1" cx="0" cy="0" r="1" gradientUnits="userSpaceOnUse" gradientTransform="translate(36.9553 137.43) rotate(72.487) scale(13.284 13.2793)">
<stop stop-color="white"/>
<stop offset="0.02" stop-color="#FFF6D3"/>
<stop offset="0.04" stop-color="#FFEFA9"/>
<stop offset="0.06" stop-color="#FFE98B"/>
<stop offset="0.08" stop-color="#FFE678"/>
<stop offset="0.09" stop-color="#FFE572"/>
<stop offset="0.13" stop-color="#E2CB65"/>
<stop offset="0.22" stop-color="#A7964A"/>
<stop offset="0.32" stop-color="#746833"/>
<stop offset="0.41" stop-color="#4A4221"/>
<stop offset="0.49" stop-color="#2A2512"/>
<stop offset="0.58" stop-color="#121008"/>
<stop offset="0.66" stop-color="#040402"/>
<stop offset="0.73"/>
</radialGradient>
<radialGradient id="paint6_radial_0_1" cx="0" cy="0" r="1" gradientUnits="userSpaceOnUse" gradientTransform="translate(15.4639 133.727) scale(13.2748 13.2804)">
<stop stop-color="white"/>
<stop offset="0.02" stop-color="#F6F6F6"/>
<stop offset="0.15" stop-color="#ACACAC"/>
<stop offset="0.27" stop-color="#6F6F6F"/>
<stop offset="0.39" stop-color="#3F3F3F"/>
<stop offset="0.49" stop-color="#1C1C1C"/>
<stop offset="0.57" stop-color="#070707"/>
<stop offset="0.62"/>
</radialGradient>
<radialGradient id="paint7_radial_0_1" cx="0" cy="0" r="1" gradientUnits="userSpaceOnUse" gradientTransform="translate(20.1809 159.616) rotate(65.3992) scale(11.3928 11.3896)">
<stop stop-color="white"/>
<stop offset="0.03" stop-color="#FFF6FF"/>
<stop offset="0.07" stop-color="#FFF3FF"/>
<stop offset="0.1" stop-color="#EFE3EF"/>
<stop offset="0.2" stop-color="#B7AFB7"/>
<stop offset="0.31" stop-color="#868086"/>
<stop offset="0.42" stop-color="#5D585D"/>
<stop offset="0.53" stop-color="#3B383B"/>
<stop offset="0.64" stop-color="#211F21"/>
<stop offset="0.75" stop-color="#0E0E0E"/>
<stop offset="0.87" stop-color="#030303"/>
<stop offset="1"/>
</radialGradient>
<linearGradient id="paint8_linear_0_1" x1="19.0484" y1="167.313" x2="39.8966" y2="131.216" gradientUnits="userSpaceOnUse">
<stop stop-color="#E8ABFF"/>
<stop offset="0.03" stop-color="#EAB4FF"/>
<stop offset="0.16" stop-color="#F3D4FF"/>
<stop offset="0.28" stop-color="#F9ECFF"/>
<stop offset="0.4" stop-color="#FDFAFF"/>
<stop offset="0.5" stop-color="white"/>
<stop offset="1" stop-color="white"/>
</linearGradient>
<linearGradient id="paint9_linear_0_1" x1="32.3384" y1="119.7" x2="166.759" y2="119.7" gradientUnits="userSpaceOnUse">
<stop offset="0.19" stop-color="#F9FEFF"/>
<stop offset="0.86" stop-color="#BBBEBF"/>
</linearGradient>
<linearGradient id="paint10_linear_0_1" x1="138.156" y1="75.7489" x2="161.783" y2="75.7489" gradientUnits="userSpaceOnUse">
<stop offset="0.19" stop-color="#F9FEFF"/>
<stop offset="0.86" stop-color="#BBBEBF"/>
</linearGradient>
<linearGradient id="paint11_linear_0_1" x1="35.8142" y1="75.5824" x2="57.9132" y2="75.5824" gradientUnits="userSpaceOnUse">
<stop offset="0.19" stop-color="#F9FEFF"/>
<stop offset="0.86" stop-color="#BBBEBF"/>
</linearGradient>
<linearGradient id="paint12_linear_0_1" x1="22.4695" y1="96.0835" x2="178.088" y2="96.0835" gradientUnits="userSpaceOnUse">
<stop offset="0.19" stop-color="#98A7AC"/>
<stop offset="0.86" stop-color="#565F61"/>
</linearGradient>
<linearGradient id="paint13_linear_0_1" x1="65.2539" y1="138.613" x2="103.73" y2="138.613" gradientUnits="userSpaceOnUse">
<stop offset="0.19" stop-color="#EEF2F3"/>
<stop offset="0.86" stop-color="#E1E5E6"/>
</linearGradient>
<linearGradient id="paint14_linear_0_1" x1="67.6631" y1="155.783" x2="101.329" y2="155.783" gradientUnits="userSpaceOnUse">
<stop offset="0.19" stop-color="#EEF2F3"/>
<stop offset="0.86" stop-color="#E1E5E6"/>
</linearGradient>
<radialGradient id="paint15_radial_0_1" cx="0" cy="0" r="1" gradientUnits="userSpaceOnUse" gradientTransform="translate(164.88 69.2615) scale(64.5947 64.6222)">
<stop offset="0.59"/>
<stop offset="0.63" stop-color="#070707"/>
<stop offset="0.68" stop-color="#1B1B1B"/>
<stop offset="0.74" stop-color="#3C3C3C"/>
<stop offset="0.81" stop-color="#696969"/>
<stop offset="0.89" stop-color="#A4A4A4"/>
<stop offset="0.98" stop-color="#EAEAEA"/>
<stop offset="1" stop-color="white"/>
</radialGradient>
<radialGradient id="paint16_radial_0_1" cx="0" cy="0" r="1" gradientUnits="userSpaceOnUse" gradientTransform="translate(139.823 31.9764) scale(66.0962 66.1243)">
<stop offset="0.3" stop-color="#FFE496"/>
<stop offset="0.34" stop-color="#EAD18A"/>
<stop offset="0.48" stop-color="#A49360"/>
<stop offset="0.62" stop-color="#695E3E"/>
<stop offset="0.74" stop-color="#3C3523"/>
<stop offset="0.85" stop-color="#1B1810"/>
<stop offset="0.94" stop-color="#070604"/>
<stop offset="1"/>
</radialGradient>
<radialGradient id="paint17_radial_0_1" cx="0" cy="0" r="1" gradientUnits="userSpaceOnUse" gradientTransform="translate(196.947 112.851) rotate(180) scale(25.9831 25.9941)">
<stop stop-color="white"/>
<stop offset="0.06" stop-color="#EAEAEA"/>
<stop offset="0.26" stop-color="#A4A4A4"/>
<stop offset="0.45" stop-color="#696969"/>
<stop offset="0.63" stop-color="#3C3C3C"/>
<stop offset="0.78" stop-color="#1B1B1B"/>
<stop offset="0.91" stop-color="#070707"/>
<stop offset="1"/>
</radialGradient>
<radialGradient id="paint18_radial_0_1" cx="0" cy="0" r="1" gradientUnits="userSpaceOnUse" gradientTransform="translate(170.486 74.5111) rotate(180) scale(54.8995 54.9229)">
<stop/>
<stop offset="0.82"/>
<stop offset="0.84" stop-color="#070305"/>
<stop offset="0.86" stop-color="#1B0D15"/>
<stop offset="0.89" stop-color="#3C1D2F"/>
<stop offset="0.92" stop-color="#693353"/>
<stop offset="0.95" stop-color="#A44F81"/>
<stop offset="0.99" stop-color="#EA72B8"/>
<stop offset="1" stop-color="#FF7CC9"/>
</radialGradient>
<radialGradient id="paint19_radial_0_1" cx="0" cy="0" r="1" gradientUnits="userSpaceOnUse" gradientTransform="translate(186.795 43.3423) rotate(72.487) scale(32.6381 32.6267)">
<stop stop-color="white"/>
<stop offset="0.02" stop-color="#FFF6D3"/>
<stop offset="0.04" stop-color="#FFEFA9"/>
<stop offset="0.06" stop-color="#FFE98B"/>
<stop offset="0.08" stop-color="#FFE678"/>
<stop offset="0.09" stop-color="#FFE572"/>
<stop offset="0.13" stop-color="#E2CB65"/>
<stop offset="0.22" stop-color="#A7964A"/>
<stop offset="0.32" stop-color="#746833"/>
<stop offset="0.41" stop-color="#4A4221"/>
<stop offset="0.49" stop-color="#2A2512"/>
<stop offset="0.58" stop-color="#121008"/>
<stop offset="0.66" stop-color="#040402"/>
<stop offset="0.73"/>
</radialGradient>
<radialGradient id="paint20_radial_0_1" cx="0" cy="0" r="1" gradientUnits="userSpaceOnUse" gradientTransform="translate(133.995 34.2446) scale(32.6155 32.6294)">
<stop stop-color="white"/>
<stop offset="0.02" stop-color="#F6F6F6"/>
<stop offset="0.15" stop-color="#ACACAC"/>
<stop offset="0.27" stop-color="#6F6F6F"/>
<stop offset="0.39" stop-color="#3F3F3F"/>
<stop offset="0.49" stop-color="#1C1C1C"/>
<stop offset="0.57" stop-color="#070707"/>
<stop offset="0.62"/>
</radialGradient>
<radialGradient id="paint21_radial_0_1" cx="0" cy="0" r="1" gradientUnits="userSpaceOnUse" gradientTransform="translate(145.58 97.8571) rotate(65.3992) scale(27.9916 27.9838)">
<stop stop-color="white"/>
<stop offset="0.03" stop-color="#FFF6FF"/>
<stop offset="0.07" stop-color="#FFF3FF"/>
<stop offset="0.1" stop-color="#EFE3EF"/>
<stop offset="0.2" stop-color="#B7AFB7"/>
<stop offset="0.31" stop-color="#868086"/>
<stop offset="0.42" stop-color="#5D585D"/>
<stop offset="0.53" stop-color="#3B383B"/>
<stop offset="0.64" stop-color="#211F21"/>
<stop offset="0.75" stop-color="#0E0E0E"/>
<stop offset="0.87" stop-color="#030303"/>
<stop offset="1"/>
</radialGradient>
<linearGradient id="paint22_linear_0_1" x1="142.784" y1="116.763" x2="194.007" y2="28.0758" gradientUnits="userSpaceOnUse">
<stop stop-color="#E8ABFF"/>
<stop offset="0.03" stop-color="#EAB4FF"/>
<stop offset="0.16" stop-color="#F3D4FF"/>
<stop offset="0.28" stop-color="#F9ECFF"/>
<stop offset="0.4" stop-color="#FDFAFF"/>
<stop offset="0.5" stop-color="white"/>
<stop offset="1" stop-color="white"/>
</linearGradient>
<radialGradient id="paint23_radial_0_1" cx="0" cy="0" r="1" gradientUnits="userSpaceOnUse" gradientTransform="translate(121.505 186.766) scale(44.5479 44.5668)">
<stop offset="0.59"/>
<stop offset="0.63" stop-color="#070707"/>
<stop offset="0.68" stop-color="#1B1B1B"/>
<stop offset="0.74" stop-color="#3C3C3C"/>
<stop offset="0.81" stop-color="#696969"/>
<stop offset="0.89" stop-color="#A4A4A4"/>
<stop offset="0.98" stop-color="#EAEAEA"/>
<stop offset="1" stop-color="white"/>
</radialGradient>
<radialGradient id="paint24_radial_0_1" cx="0" cy="0" r="1" gradientUnits="userSpaceOnUse" gradientTransform="translate(104.225 161.053) scale(45.5834 45.6028)">
<stop offset="0.3" stop-color="#FFE496"/>
<stop offset="0.34" stop-color="#EAD18A"/>
<stop offset="0.48" stop-color="#A49360"/>
<stop offset="0.62" stop-color="#695E3E"/>
<stop offset="0.74" stop-color="#3C3523"/>
<stop offset="0.85" stop-color="#1B1810"/>
<stop offset="0.94" stop-color="#070604"/>
<stop offset="1"/>
</radialGradient>
<radialGradient id="paint25_radial_0_1" cx="0" cy="0" r="1" gradientUnits="userSpaceOnUse" gradientTransform="translate(143.621 216.828) rotate(180) scale(17.9193 17.9269)">
<stop stop-color="white"/>
<stop offset="0.06" stop-color="#EAEAEA"/>
<stop offset="0.26" stop-color="#A4A4A4"/>
<stop offset="0.45" stop-color="#696969"/>
<stop offset="0.63" stop-color="#3C3C3C"/>
<stop offset="0.78" stop-color="#1B1B1B"/>
<stop offset="0.91" stop-color="#070707"/>
<stop offset="1"/>
</radialGradient>
<radialGradient id="paint26_radial_0_1" cx="0" cy="0" r="1" gradientUnits="userSpaceOnUse" gradientTransform="translate(125.371 190.387) rotate(180) scale(37.8616 37.8777)">
<stop/>
<stop offset="0.82"/>
<stop offset="0.84" stop-color="#070305"/>
<stop offset="0.86" stop-color="#1B0D15"/>
<stop offset="0.89" stop-color="#3C1D2F"/>
<stop offset="0.92" stop-color="#693353"/>
<stop offset="0.95" stop-color="#A44F81"/>
<stop offset="0.99" stop-color="#EA72B8"/>
<stop offset="1" stop-color="#FF7CC9"/>
</radialGradient>
<radialGradient id="paint27_radial_0_1" cx="0" cy="0" r="1" gradientUnits="userSpaceOnUse" gradientTransform="translate(136.622 168.89) rotate(72.487) scale(22.5089 22.5011)">
<stop stop-color="white"/>
<stop offset="0.02" stop-color="#FFF6D3"/>
<stop offset="0.04" stop-color="#FFEFA9"/>
<stop offset="0.06" stop-color="#FFE98B"/>
<stop offset="0.08" stop-color="#FFE678"/>
<stop offset="0.09" stop-color="#FFE572"/>
<stop offset="0.13" stop-color="#E2CB65"/>
<stop offset="0.22" stop-color="#A7964A"/>
<stop offset="0.32" stop-color="#746833"/>
<stop offset="0.41" stop-color="#4A4221"/>
<stop offset="0.49" stop-color="#2A2512"/>
<stop offset="0.58" stop-color="#121008"/>
<stop offset="0.66" stop-color="#040402"/>
<stop offset="0.73"/>
</radialGradient>
<radialGradient id="paint28_radial_0_1" cx="0" cy="0" r="1" gradientUnits="userSpaceOnUse" gradientTransform="translate(100.205 162.617) scale(22.4934 22.503)">
<stop stop-color="white"/>
<stop offset="0.02" stop-color="#F6F6F6"/>
<stop offset="0.15" stop-color="#ACACAC"/>
<stop offset="0.27" stop-color="#6F6F6F"/>
<stop offset="0.39" stop-color="#3F3F3F"/>
<stop offset="0.49" stop-color="#1C1C1C"/>
<stop offset="0.57" stop-color="#070707"/>
<stop offset="0.62"/>
</radialGradient>
<radialGradient id="paint29_radial_0_1" cx="0" cy="0" r="1" gradientUnits="userSpaceOnUse" gradientTransform="translate(108.191 206.487) rotate(65.3992) scale(19.3045 19.2991)">
<stop stop-color="white"/>
<stop offset="0.03" stop-color="#FFF6FF"/>
<stop offset="0.07" stop-color="#FFF3FF"/>
<stop offset="0.1" stop-color="#EFE3EF"/>
<stop offset="0.2" stop-color="#B7AFB7"/>
<stop offset="0.31" stop-color="#868086"/>
<stop offset="0.42" stop-color="#5D585D"/>
<stop offset="0.53" stop-color="#3B383B"/>
<stop offset="0.64" stop-color="#211F21"/>
<stop offset="0.75" stop-color="#0E0E0E"/>
<stop offset="0.87" stop-color="#030303"/>
<stop offset="1"/>
</radialGradient>
<linearGradient id="paint30_linear_0_1" x1="106.265" y1="219.526" x2="141.591" y2="158.363" gradientUnits="userSpaceOnUse">
<stop stop-color="#E8ABFF"/>
<stop offset="0.03" stop-color="#EAB4FF"/>
<stop offset="0.16" stop-color="#F3D4FF"/>
<stop offset="0.28" stop-color="#F9ECFF"/>
<stop offset="0.4" stop-color="#FDFAFF"/>
<stop offset="0.5" stop-color="white"/>
<stop offset="1" stop-color="white"/>
</linearGradient>
</defs>
</svg>
