<svg width="187" height="226" viewBox="0 0 187 226" fill="none" xmlns="http://www.w3.org/2000/svg">
<path d="M176.98 61.3009C171.186 56.0514 164.136 53.8713 156.986 54.1008C156.233 50.8521 154.562 47.7612 152.569 45.9468C150.79 44.3261 148.459 43.236 146.035 42.8057C146.014 25.9958 133.342 9.39389 118.289 3.24077C103.358 -2.86214 87.6741 -0.0509304 76.0205 9.20025C67.7446 4.35952 54.8216 8.6624 48.5681 14.9159C42.8309 20.6531 40.0412 30.2126 42.0708 38.2877C39.4317 37.6996 36.6205 38.7323 34.8634 41.2352C33.8881 42.6264 33.3861 44.4982 33.379 46.3843C18.5484 43.9101 4.44212 60.6268 0.935271 73.5426C-2.29906 85.4616 2.9361 101.762 15.3858 105.57C17.2503 113.143 23.1381 120.286 29.8147 123.277C35.3368 125.751 44.8031 124.747 50.5905 120.516C52.3762 123.728 55.84 126.396 59.6552 125.866C61.1397 125.658 63.0688 124.689 64.3023 123.341C67.6298 125.823 71.7462 127.479 75.6475 128.749C83.5863 131.33 94.4655 132.27 102.978 129.243C103.788 129.917 104.649 130.506 105.538 130.986C109.913 133.345 114.911 131.137 118.002 127.386C121.201 129.81 125.166 131.065 129.634 130.298C137.128 129.021 141.768 123.779 144.465 117.425C160.163 120.078 177.54 109.68 183.714 93.802C188.175 82.3348 186.296 69.7417 176.966 61.2866L176.98 61.3009Z" fill="#80C441"/>
<path d="M178.415 103.095C165.771 109.441 154.756 100.097 154.756 100.097C141.56 111.815 128.659 98.6412 128.659 98.6412C117.221 104.507 109.891 90.7526 109.891 90.7526C85.2573 105.734 77.9281 83.5883 77.9281 83.5883C77.9281 83.5883 65.0266 95.4141 56.2272 79.5938C47.4279 63.7664 64.7326 53.6618 64.7326 53.6618C64.7326 53.6618 53.2941 54.9527 50.3681 32.9578C48.1163 16.0475 60.4154 9.37089 66.2242 7.18359C59.5978 7.59237 52.6558 10.8267 48.5681 14.9144C42.8309 20.6516 40.0412 30.2112 42.0708 38.2862C39.4317 37.6982 36.6205 38.7308 34.8635 41.2337C33.8881 42.625 33.3861 44.4967 33.379 46.3828C18.5484 43.9086 4.44212 60.6253 0.935271 73.5411C-2.29906 85.4601 2.9361 101.761 15.3858 105.569C17.2503 113.142 23.1381 120.285 29.8147 123.275C35.3368 125.749 44.8031 124.745 50.5905 120.514C52.3762 123.727 55.84 126.395 59.6552 125.864C61.1397 125.656 63.0688 124.688 64.3023 123.34C67.6299 125.821 71.7463 127.478 75.6475 128.747C83.5863 131.329 94.4655 132.268 102.978 129.242C103.788 129.916 104.649 130.504 105.538 130.985C109.913 133.344 114.911 131.135 118.002 127.384C121.201 129.808 125.166 131.063 129.634 130.296C137.128 129.02 141.768 123.777 144.465 117.423C156.836 119.517 170.246 113.493 178.4 103.08L178.415 103.095Z" fill="#76A42B"/>
<path d="M53.788 91.499C56.1474 90.9899 58.7722 89.8066 61.2391 90.0145C63.6774 90.2225 65.3125 91.3628 66.9404 92.6967C72.6776 100.155 79.7989 106.315 82.8396 115.688C86.8054 127.916 82.8611 143.069 80.9463 155.375C78.8809 168.607 75.9621 181.63 73.2298 194.739C72.0752 200.276 71.0784 205.841 70.3612 211.449C69.8592 215.4 68.5612 221.216 69.4289 225.605H99.9076C100.818 220.499 98.667 214.841 98.208 209.699C97.663 203.589 97.5626 197.45 97.6343 191.319C97.7777 178.503 98.5666 165.716 98.0861 152.901C98.0072 150.728 97.8853 148.548 97.7562 146.375C97.9355 144.36 98.1506 142.338 98.4303 140.286C98.4303 140.251 98.4375 140.215 98.4447 140.179C99.4702 132.857 102.568 125.972 107.122 120.149C111.963 113.953 117.492 107.707 120.533 100.822C122.24 98.3119 123.789 95.6728 125.538 93.1772C129.784 87.1029 135.342 85.2455 142.305 83.8184C149.799 82.2837 158.004 80.2829 160.048 71.9855C160.177 71.4548 159.409 71.0891 159.144 71.6054C153.565 82.212 139.63 78.4398 130.458 82.5706C129.103 83.1801 127.912 83.9403 126.822 84.8081C129.863 76.4031 132.021 67.6611 133.456 58.7757C133.585 57.9581 132.394 57.5852 132.186 58.4243C126.851 79.5586 115.463 99.1438 100.912 115.308C98.9108 117.531 97.1323 119.712 95.5402 121.928C95.3108 120.056 95.0956 118.191 94.8374 116.327C93.9697 109.93 92.7577 103.533 92.184 97.1071C91.9115 94.0593 92.0549 91.1548 92.3418 88.2647C92.8151 86.6583 93.4677 85.1236 94.3856 83.7037C98.0789 77.9952 103.873 73.8142 107.595 68.0197C111.597 61.802 114 55.3262 115.627 48.126C115.778 47.4663 114.882 47.2511 114.638 47.8535C112.522 53.1245 109.611 58.2306 106.154 62.8777C106.183 62.6339 106.211 62.3973 106.233 62.1678C107.108 53.4544 104.877 45.4798 107.911 36.9529C108.112 36.3792 107.316 36.164 107.007 36.5728C103.235 41.5498 102.676 48.3555 102.418 54.4298C102.26 58.2235 102.389 62.053 101.471 65.775C101.034 67.5392 100.123 69.1313 99.3268 70.7305C95.5617 74.3449 91.3306 77.4071 88.6772 81.8678C88.1967 77.8016 87.0564 73.7784 86.7982 69.6476C86.4899 64.7208 86.7624 59.8729 87.8166 55.0322C89.6166 46.7204 96.0207 38.8749 95.5474 30.2548C95.5187 29.6882 94.6295 29.4946 94.5004 30.1113C93.3027 35.9489 89.9178 40.3665 87.042 45.4367C84.5751 49.7898 82.9758 54.48 82.1941 59.4283C81.9503 60.9701 81.771 62.6411 81.685 64.3694C81.5344 64.1328 81.3981 63.8889 81.2404 63.6594C76.1271 56.4234 66.8472 52.4289 63.9643 43.6224C63.7276 42.9052 62.6806 43.1921 62.8312 43.9307C64.4376 51.8122 70.6553 56.1222 75.3956 62.1319C81.5129 69.8843 81.8141 80.0032 84.6826 89.0751C85.0269 94.5899 85.3568 100.112 85.5791 105.627C83.5639 102.134 81.0324 98.8785 78.2283 95.6226C70.6266 86.8017 64.2942 77.6653 62.3077 65.9256C62.1929 65.2587 61.0527 65.4093 61.1172 66.0834C61.8846 73.5561 63.5483 80.4263 66.754 86.9308C65.0042 86.0774 63.1539 85.5826 61.2391 85.6902C58.263 85.8479 55.4374 87.0742 52.5904 88.0424C49.8222 86.1276 47.0109 84.4567 44.4866 82.1188C41.6108 79.4653 39.0721 76.6039 36.7342 73.47C36.6195 73.3194 36.3183 73.3983 36.3972 73.6134C38.6705 79.4725 43.038 85.4463 48.5241 89.1038C43.3965 89.993 38.2905 89.4839 33.378 87.734C32.9979 87.5978 32.7541 88.1428 33.1127 88.3293C39.6315 91.7787 46.5305 93.0624 53.7952 91.499H53.788Z" fill="#7E4F2E"/>
<path d="M84.6866 89.0603C85.0308 94.5751 85.3607 100.097 85.583 105.612C85.5256 105.512 85.4539 105.418 85.3965 105.318C85.5185 106.121 85.583 106.594 85.583 106.594L88.4874 111.048C88.4874 111.048 88.8819 104.013 88.4874 97.9529C88.093 91.893 84.9663 77.8154 83.4029 73.7133C81.8395 69.6113 79.9677 62.9848 72.6529 57.6851C68.6584 54.7878 65.2447 49.1152 62.957 44.4609C64.7356 51.9981 70.7596 56.2508 75.3923 62.1171C81.5096 69.8694 81.8108 79.9884 84.6794 89.0603H84.6866Z" fill="#6A3F23"/>
<path d="M87.7122 117.502C85.5607 111.836 73.2473 94.2376 70.5078 91.8926C67.7683 89.5475 64.4695 87.0303 54.8669 90.5228C48.0038 93.0256 39.9646 91.0176 35.9414 89.6694C41.614 92.079 47.5663 92.832 53.7912 91.491C56.1506 90.9818 58.7753 89.7985 61.2423 90.0065C63.6806 90.2144 65.3157 91.3547 66.9436 92.6886C72.6808 100.147 79.8021 106.307 82.8428 115.68C86.8086 127.908 82.8643 143.061 80.9495 155.367C78.8841 168.598 75.9653 181.622 73.233 194.731C72.0784 200.268 71.0816 205.833 70.3644 211.441C69.8624 215.392 68.5644 221.208 69.4321 225.597H89.6843C86.2062 194.323 87.9058 162.653 89.0748 147.407C90.2509 132.16 89.8565 123.167 87.705 117.502H87.7122Z" fill="#6A3F23"/>
<path d="M132.333 64.9433C131.795 65.2876 131.113 65.9904 131.113 65.9904L132.677 57.9512C132.462 57.9799 132.261 58.1161 132.189 58.4173C126.854 79.5516 115.465 99.1369 100.914 115.301C98.9135 117.524 97.135 119.705 95.543 121.921L96.5111 127.665C96.5111 127.665 115.085 105.584 119.194 96.9783C123.297 88.3869 128.568 73.7499 131.694 67.9769C131.917 66.9657 132.139 65.9617 132.34 64.9433H132.333Z" fill="#6A3F23"/>
<path d="M159.878 71.4766C158.809 73.5419 157.174 76.303 155.051 77.7588C151.53 80.1684 143.814 79.7237 138.335 83.2449C132.856 86.7661 127.699 83.79 123.855 95.6874C124.408 94.834 124.96 93.9878 125.541 93.1631C129.786 87.0888 135.344 85.2314 142.308 83.8043C149.802 82.2696 158.006 80.2688 160.05 71.9714C160.1 71.7634 160.014 71.5913 159.878 71.4766Z" fill="#6A3F23"/>
<path d="M85.9982 51.5753C87.7552 45.5656 90.3943 42.4819 93.019 37.9423C95.0055 34.5 94.8334 31.7749 95.0844 29.731C94.8334 29.6808 94.5681 29.7812 94.5035 30.0968C93.3059 35.9343 89.921 40.3519 87.0452 45.4222C84.5782 49.7752 82.979 54.4654 82.1973 59.4137C81.9606 60.934 81.7814 62.5691 81.6953 64.2688L83.6531 66.9724C83.6531 66.9724 84.2412 57.5921 85.9982 51.5753Z" fill="#6A3F23"/>
<path d="M115.63 48.1115C115.701 47.7816 115.515 47.5593 115.271 47.502C114.611 50.8223 113.285 56.244 110.043 60.9628C105.202 67.998 97.4357 75.7719 94.3591 79.5799C91.2826 83.3951 92.136 90.7459 92.136 90.7459C92.1862 89.9068 92.2507 89.0749 92.3368 88.2502C92.8101 86.6438 93.4627 85.1091 94.3807 83.6891C98.074 77.9807 103.869 73.7997 107.59 68.0052C111.592 61.7875 113.995 55.3117 115.623 48.1115H115.63Z" fill="#6A3F23"/>
<path d="M104.47 55.8287C104.907 48.2126 104.104 42.3822 106.564 37.1973C103.2 42.1097 102.67 48.5999 102.419 54.416C102.261 58.2097 102.39 62.0392 101.472 65.7612C101.092 67.3102 100.346 68.7158 99.6289 70.1143L104.032 63.4448L104.47 55.8216V55.8287Z" fill="#6A3F23"/>
</svg>
