<svg width="1440" height="874" viewBox="0 0 1440 874" fill="none" xmlns="http://www.w3.org/2000/svg">
<path opacity="0.2" d="M1521.8 5.02294C1155.52 4.5315 770.674 3.44336 458.625 4.63686C461.847 0.91595 608.39 1.68812 703.609 0.810547H1521.8V5.05807V5.02294ZM1521.8 19.9768H1193.62C1015.36 22.083 560.331 15.5186 581.003 23.8029C837.047 22.1531 1239.9 25.1017 1521.8 24.2592V19.9768ZM91.048 27.6643C47.8443 27.8398 -0.71122 27.8399 -48.0666 27.9101V31.2447C180.375 31.9116 447.424 33.8074 458.625 27.6995H91.048V27.6643ZM91.048 46.8304C268.966 44.7242 724.335 51.2886 703.609 43.0043C520.188 36.9315 202.409 40.1959 91.048 46.8304ZM-48.0666 66.6636V69.6472C74.0303 69.5419 198.279 69.4718 213.642 66.0318C130.619 66.3828 27.9183 66.1019 -48.0666 66.6636ZM1521.8 73.8948V69.226C1436.81 72.0343 1351.72 61.6088 1267.06 71.2621C1351.64 72.1045 1436.64 82.5301 1521.8 73.8948ZM-48.0666 73.3332V77.5454H91.048C257.7 76.4923 135.982 73.2981 -48.0666 73.3332ZM1521.8 80.4239C1252.78 77.8262 1003.9 73.5086 825.987 81.3366C969.264 81.0908 1249.99 84.8117 1521.8 85.0575V80.4239ZM1521.8 108.19H1193.62C1098.38 109.068 951.824 108.296 948.613 112.016C1108.63 111.069 1315.86 111.595 1521.8 112.087V108.155V108.19ZM-48.0666 166.742C458.842 165.478 928.514 163.056 1316 158.071C873.147 158.422 412.394 158.212 -48.0666 158.036V166.742ZM-48.0666 220.484C-39.3632 220.133 -30.6597 219.291 -21.9239 217.255C-30.6597 215.605 -39.3632 215.394 -48.0666 215.745V220.484ZM1316 215.605H581.003C575.511 227.54 1416.63 232.665 1316 215.605ZM1070.99 238.633C976.043 239.51 829.533 238.738 825.987 242.459C1003.95 240.388 1459.31 246.952 1438.58 238.633H1070.99ZM1521.8 303.854H1070.99C940.602 303.678 759.97 305.644 948.613 307.68H1521.8V303.854ZM213.642 323.02C308.569 322.142 455.176 322.879 458.625 319.159C363.45 320.036 216.875 319.299 213.642 323.02ZM1521.8 334.499H1316C1020.89 336.078 1049.78 327.513 703.609 330.672H-31.3517C-36.39 330.672 -41.9796 330.672 -48.0558 330.637V334.604C161.627 335.868 334.636 338.255 581.014 338.325C1080.84 337.517 1242.18 340.396 1521.81 339.834V334.463L1521.8 334.499ZM213.642 349.838C130.619 350.189 27.9183 349.909 -48.0666 350.505V353.244C193.651 353.138 567.975 357.14 581.003 349.874H213.642V349.838ZM1521.8 357.526H-48.0666V361.212C508.403 361.879 1077.67 362.967 1521.8 360.124V357.491V357.526ZM825.987 365.214C792.103 364.16 640.09 367.074 703.609 369.04C737.536 370.093 889.343 367.214 825.987 365.214ZM91.048 369.04C-97.8871 380.624 724.821 379.149 703.609 372.866C419.53 374.095 233.309 372.269 91.048 369.04ZM91.048 392.067C185.975 391.19 332.798 391.962 336.031 388.241C241.072 389.083 94.4969 388.346 91.048 392.067ZM1521.8 412.567C1487.47 413.199 1459.21 414.042 1438.58 415.095C1466.21 415.27 1493.98 415.446 1521.8 415.586V412.532V412.567ZM458.625 445.775C424.741 444.686 272.696 447.6 336.031 449.566C369.915 450.654 521.961 447.74 458.625 445.775ZM1521.8 445.775H1193.62C1098.38 446.617 951.814 445.845 948.613 449.566C1090.73 447.916 1409.73 451.777 1521.8 449.18V445.775ZM458.625 453.462C363.45 454.305 216.875 453.533 213.642 457.253C308.569 456.411 455.176 457.148 458.625 453.462ZM1521.8 464.941H-48.0666V468.767H1438.58C1465.64 468.662 1493.41 468.556 1521.8 468.486V464.941ZM1521.8 472.628H-48.0666V475.963C468.54 476.139 1004.83 476.911 1521.8 477.086V472.628ZM1521.8 480.316H948.613C733.265 482.527 228.844 475.682 213.642 484.142C591.75 482.106 1189.57 486.95 1521.8 483.44V480.281V480.316ZM1521.8 503.344H825.987C731.081 504.186 584.452 503.449 581.003 507.17C836.669 505.344 1274.09 509.206 1521.8 507.134V503.344ZM-48.0666 519.456C39.4544 518.508 125.829 517.034 213.642 514.857C138.857 515.384 48.5146 515.419 -48.0666 515.278V519.456ZM948.613 518.683H703.609V526.371H948.613V518.683ZM581.003 526.371C-203.55 521.948 312.083 538.095 581.003 526.371V526.371ZM458.625 534.059C326.592 535.112 133.073 534.234 -48.0666 533.742V541.079C142.944 540.763 335.35 538.938 581.003 537.92C1157.94 539.78 877.342 530.969 458.625 534.093V534.059ZM825.987 541.711C594.432 540.833 555.834 545.993 336.02 545.537C219.221 544.308 54.4935 544.905 -48.0774 545.993V549.188C-13.0474 549.328 32.7619 549.398 91.0372 549.398C343.491 547.082 942.148 555.541 825.976 541.711H825.987ZM1521.8 541.922C1277.07 541.465 970.085 539.043 1070.99 549.363C1288.3 550.171 1335.81 545.642 1521.8 545.502V541.922ZM336.031 557.051C241.072 557.893 94.4969 557.121 91.048 560.842C185.975 559.999 332.798 560.772 336.031 557.051ZM825.997 560.842C859.925 561.93 1011.93 559.017 948.624 557.051C914.74 555.963 762.695 558.876 825.997 560.842ZM1521.81 562.527C1352.66 562.667 1052.31 563.404 1071 572.321C1173.59 569.828 1346.71 569.512 1521.81 569.302V562.527ZM91.0588 576.182C54.3097 576.603 5.72176 576.673 -48.0558 576.568V579.973C268.523 580.78 593.61 581.834 703.619 576.182H91.048H91.0588ZM213.653 583.869C118.477 584.747 -28.0974 583.975 -31.3517 587.696C380.867 585.273 1106.39 592.645 1316.01 583.869H213.653ZM-48.0558 602.72V606.967C306.98 606.932 183.413 603.808 -48.0558 602.72ZM1071 599.209C286.416 594.786 802.114 610.934 1071 599.209V599.209ZM-31.3517 633.751H-48.0558V636.383C-34.7682 635.751 -28.519 634.874 -31.3517 633.751ZM1316.01 645.264C873.623 642.983 498.564 638.876 213.653 649.091C546.092 646.703 1185.62 653.935 1316.01 645.264ZM-48.0558 661.166V661.341C-42.5094 661.166 -36.9522 660.92 -31.3517 660.604L-48.0558 661.166ZM-31.3517 660.604C-53.2022 660.464 -75.0635 660.359 -96.9141 660.253L-31.3517 660.604ZM1316.01 664.43H825.997C681.996 665.027 478.368 663.764 458.636 668.257C712.355 665.975 1263.39 672.96 1316.01 664.43ZM1521.81 679.525C1266.08 679.419 880.921 680.122 1193.63 683.632C1302.4 682.93 1412.16 682.579 1521.81 682.509V679.56V679.525ZM1521.81 692.127C1475.24 692.513 1440.16 693.285 1438.59 695.075C1464.87 694.9 1492.72 694.794 1521.81 694.689V692.127ZM336.042 702.763C369.926 703.816 521.971 700.938 458.636 698.937C424.752 697.884 272.707 700.797 336.042 702.763ZM1521.81 713.996C1495.03 714.066 1467.32 714.136 1438.59 714.277C1511.16 723.403 376.91 713.68 825.997 721.929C1014.1 720.735 1281.42 721.999 1521.81 722.42V713.996ZM-31.3517 729.617C-36.7359 729.687 -42.3256 729.722 -48.0558 729.757V733.759C267.128 734.391 565.099 734.496 703.619 729.617H-31.3517ZM1316.01 729.617C1282.08 728.563 1130.08 731.477 1193.63 733.443C1227.51 734.496 1379.56 731.582 1316.01 729.617ZM1521.81 748.783H1438.59C1343.44 749.625 1196.84 748.888 1193.63 752.609C1285.34 751.942 1400.46 752.012 1521.81 752.293V748.783ZM-48.0558 752.609V756.997C239.58 756.716 500.38 755.557 703.619 752.609H-48.0666H-48.0558ZM-48.0558 802.455V806.913C212.053 807.018 442.429 806.176 581.014 802.455H-48.0666H-48.0558ZM458.636 810.143C335.696 811.406 118.542 809.721 -48.0558 809.616V813.442C437.521 813.302 1067.63 817.69 1316.01 810.143H458.636ZM-48.0558 836.013C-18.6047 835.171 -2.26812 834.083 -31.3517 833.17C-35.4169 833.03 -41.1796 832.959 -48.0558 832.959V836.013ZM1521.81 837.382C1278.11 838.19 1073 840.191 948.624 844.684C1147.62 844.649 1373.51 845.456 1521.81 843.841V837.382ZM-31.3517 844.684C2.55392 845.737 154.351 842.823 91.048 840.858C57.1316 839.804 -94.8815 842.718 -31.3517 844.684ZM-48.0558 853.284V860.059C118.737 859.919 286.102 858.9 458.636 856.162C306.504 854.653 134.673 853.776 -48.0558 853.249V853.284ZM-48.0558 870.555C-18.6047 869.712 -2.26812 868.624 -31.3517 867.711C-35.4169 867.571 -41.1796 867.501 -48.0558 867.501V870.555ZM1438.59 867.711C1181.16 866.483 377.418 867.115 825.997 875.399C923.238 865.254 1401.98 883.999 1438.59 867.711ZM-31.3517 890.739C-37.0062 890.739 -42.5743 890.739 -48.0558 890.739V895.267C125.537 895.723 309.813 894.881 336.042 890.774H-31.3517V890.739ZM-48.0558 900.217V906.149C130.262 906.395 370.985 906.044 458.636 906.079C783.378 906.009 1179.89 908.185 1193.63 898.391C795.584 899.479 253.992 896.074 -48.0558 900.182V900.217ZM1521.81 121.213C1380.97 121.354 1229.04 121.81 948.624 123.6H581.014C512.998 123.6 441.975 126.725 581.014 127.427C941.51 125.601 1244.93 126.619 1521.81 126.935V121.213Z" fill="#431E14"/>
</svg>
