<svg width="1440" height="407" viewBox="0 0 1440 407" opacity=".02" xmlns="http://www.w3.org/2000/svg">
<path d="M1093.25 406.527C1093.06 406.527 1092.88 406.527 1092.69 406.527C1077.71 406.527 1063.71 397.616 1055.32 382.655L996.114 277.05C987.942 262.456 983.594 245.478 983.594 227.951V179.255C983.594 161.361 995.836 146.803 1010.88 146.803C1041.01 146.803 1065.5 117.688 1065.5 81.8631C1065.5 46.0379 1041.01 16.9231 1010.88 16.9231H969.934C959.85 16.9231 956.273 25.6502 956.273 33.1672C956.273 40.6843 959.85 49.4114 969.934 49.4114H1010.88C1028.52 49.4114 1037.74 65.7289 1037.74 81.8631C1037.74 97.9973 1028.52 114.315 1010.88 114.315H969.934C962.41 114.315 956.273 121.612 956.273 130.559V203.603C956.273 224.907 942.551 236.055 928.983 236.055C915.415 236.055 901.693 224.907 901.693 203.603V33.1307C901.693 21.14 894.354 16.8864 888.033 16.8864C881.711 16.8864 874.372 21.14 874.372 33.1307V374.075C874.372 391.969 862.13 406.527 847.082 406.527C832.034 406.527 817.942 397.616 809.554 382.655L750.349 277.05C742.177 262.456 737.829 245.478 737.829 227.951V179.255C737.829 161.361 750.071 146.803 765.119 146.803C795.246 146.803 819.73 117.688 819.73 81.8631C819.73 46.0379 795.246 16.9231 765.119 16.9231H724.169C714.085 16.9231 710.508 25.6502 710.508 33.1672C710.508 40.6843 714.085 49.4114 724.169 49.4114H765.119C782.757 49.4114 791.978 65.7289 791.978 81.8631C791.978 90.1869 789.603 98.034 785.286 103.938C780.321 110.758 773.352 114.352 765.119 114.352H724.169C716.644 114.352 710.508 121.649 710.508 130.596V203.64C710.508 224.944 696.786 236.091 683.218 236.091C669.65 236.091 655.928 224.944 655.928 203.64V33.1672C655.928 21.1766 648.589 16.9231 642.267 16.9231C635.946 16.9231 628.607 21.1766 628.607 33.1672V374.112C628.607 391.713 616.581 406.05 601.779 406.123L478.28 406.6C463.294 406.6 451.144 392.116 451.144 374.332V227.804C451.144 210.02 463.324 195.536 478.28 195.536H560.366C570.45 195.536 574.027 186.809 574.027 179.292C574.027 171.774 570.45 163.047 560.366 163.047H478.28C463.324 163.047 451.144 148.563 451.144 130.779V81.5331C451.144 63.8222 463.263 49.3748 478.187 49.3748H560.366C570.45 49.3748 574.027 40.6477 574.027 33.1307C574.027 25.6136 570.45 16.8864 560.366 16.8864H437.329C429.898 16.8864 423.823 24.0734 423.823 32.9472V374.075C423.823 395.379 410.101 406.527 396.533 406.527C382.965 406.527 369.243 395.379 369.243 374.075V33.1307C369.243 21.14 361.904 16.8864 355.582 16.8864C349.261 16.8864 341.922 21.14 341.922 33.1307V374.075C341.922 395.379 328.2 406.527 314.632 406.527C301.064 406.527 287.342 395.379 287.342 374.075V32.9472C287.342 24.1101 281.298 16.8864 273.835 16.8864H233.101C225.361 16.8864 219.07 24.3668 219.07 33.5707V374.075C219.07 395.379 205.348 406.527 191.78 406.527C178.212 406.527 164.49 395.379 164.49 374.075V33.1307C164.49 21.14 157.151 16.8864 150.829 16.8864C144.508 16.8864 137.169 21.14 137.169 33.1307V179.255C137.169 200.559 123.447 211.707 109.879 211.707C96.3108 211.707 82.5887 200.559 82.5887 179.255V33.1307C82.5887 21.14 75.2496 16.8864 68.9282 16.8864C62.6068 16.8864 55.2677 21.14 55.2677 33.1307V179.255C55.2677 200.559 41.5456 211.707 27.9776 211.707C14.4096 211.707 0.6875 200.559 0.6875 179.255V8.78267C0.6875 4.3091 3.74029 0.678941 7.50232 0.678941C11.2643 0.678941 14.3171 4.3091 14.3171 8.78267V179.255C14.3171 191.245 21.6562 195.499 27.9776 195.499C34.299 195.499 41.6381 191.245 41.6381 179.255V33.1307C41.6381 11.8262 55.3602 0.678941 68.9282 0.678941C82.4962 0.678941 96.2183 11.8262 96.2183 33.1307V179.255C96.2183 191.245 103.557 195.499 109.879 195.499C116.2 195.499 123.539 191.245 123.539 179.255V33.1307C123.539 11.8262 137.261 0.678941 150.829 0.678941C164.397 0.678941 178.12 11.8262 178.12 33.1307V374.075C178.12 386.066 185.459 390.319 191.78 390.319C198.101 390.319 205.44 386.066 205.44 374.075V33.5707C205.44 15.4197 217.867 0.642237 233.131 0.642237H273.866C288.822 0.642237 301.002 15.1263 301.002 32.9105V374.038C301.002 386.029 308.341 390.283 314.663 390.283C320.984 390.283 328.323 386.029 328.323 374.038V33.0939C328.323 11.7895 342.045 0.642237 355.613 0.642237C369.181 0.642237 382.903 11.7895 382.903 33.0939V374.038C382.903 386.029 390.242 390.283 396.564 390.283C402.885 390.283 410.224 386.029 410.224 374.038V32.9105C410.224 15.1263 422.405 0.642237 437.36 0.642237H560.397C578.313 0.642237 587.687 16.9598 587.687 33.0939C587.687 49.2281 578.313 65.5457 560.397 65.5457H478.218C470.848 65.5457 464.835 72.696 464.835 81.4598V130.706C464.835 139.543 470.879 146.73 478.311 146.73H560.397C578.313 146.73 587.687 163.047 587.687 179.182C587.687 195.316 578.313 211.633 560.397 211.633H478.311C470.879 211.633 464.805 218.82 464.805 227.694V374.222C464.805 383.059 470.848 390.246 478.28 390.246L601.779 389.769C609.057 389.769 615.008 382.655 615.008 374.002V33.0572C615.008 11.7528 628.73 0.605532 642.298 0.605532C655.866 0.605532 669.588 11.7528 669.588 33.0572V203.53C669.588 215.52 676.927 219.774 683.249 219.774C689.57 219.774 696.909 215.52 696.909 203.53V130.486C696.909 112.591 709.151 98.034 724.199 98.034H765.15C774.894 98.034 778.348 89.3069 778.348 81.7898C778.348 74.2728 774.894 65.5457 765.15 65.5457H724.199C706.284 65.5457 696.909 49.2281 696.909 33.0939C696.909 24.7335 699.345 16.8497 703.755 10.9461C707.27 6.21585 713.684 0.605532 724.23 0.605532H765.181C802.832 0.605532 833.452 37.0175 833.452 81.7898C833.452 126.562 802.832 162.974 765.181 162.974C757.657 162.974 751.52 170.271 751.52 179.218V227.914C751.52 242.252 755.036 256.112 761.727 268.03L820.933 373.635C826.761 384.049 836.567 390.283 847.082 390.283C854.606 390.283 860.742 382.986 860.742 374.038V33.0939C860.742 11.7895 874.465 0.642237 888.033 0.642237C901.601 0.642237 915.323 11.7895 915.323 33.0939V203.566C915.323 215.557 922.662 219.81 928.983 219.81C935.305 219.81 942.644 215.557 942.644 203.566V130.522C942.644 112.628 954.886 98.0707 969.934 98.0707H1010.88C1020.63 98.0707 1024.08 89.3436 1024.08 81.8265C1024.08 74.3095 1020.63 65.5823 1010.88 65.5823H969.934C952.018 65.5823 942.644 49.2648 942.644 33.1307C942.644 16.9965 952.018 0.678941 969.934 0.678941H1010.88C1048.54 0.678941 1079.16 37.0908 1079.16 81.8631C1079.16 126.635 1048.54 163.047 1010.88 163.047C1003.36 163.047 997.224 170.344 997.224 179.292V227.987C997.224 242.325 1000.74 256.186 1007.43 268.103L1066.64 373.708C1072.46 384.122 1082.27 390.356 1092.79 390.356C1096.52 390.466 1099.91 388.852 1102.47 385.846C1105.03 382.875 1106.45 378.879 1106.45 374.588V106.211C1106.45 84.9067 1120.17 73.7594 1133.74 73.7594C1147.3 73.7594 1161.03 84.9067 1161.03 106.211V325.379C1161.03 337.296 1168.37 341.513 1174.69 341.513C1181.01 341.513 1188.35 337.296 1188.35 325.379V32.6539C1188.35 11.3495 1202.07 0.202232 1215.64 0.202232C1229.21 0.202232 1242.93 11.3495 1242.93 32.6539V373.672C1242.93 382.582 1249.03 389.806 1256.5 389.806H1277.03C1363.62 389.806 1434.05 306.055 1434.05 203.089C1434.05 100.124 1363.62 16.3731 1277.03 16.3731C1273.27 16.3731 1270.22 12.7429 1270.22 8.26936C1270.22 3.7958 1273.27 0.165527 1277.03 0.165527C1371.14 0.165527 1447.68 91.2136 1447.68 203.089C1447.68 314.965 1371.11 406.013 1277.03 406.013H1256.5C1241.48 406.013 1229.27 391.493 1229.27 373.635V32.6172C1229.27 20.6266 1221.93 16.3731 1215.61 16.3731C1209.29 16.3731 1201.95 20.6266 1201.95 32.6172V325.342C1201.95 346.61 1188.22 357.721 1174.66 357.721C1161.09 357.721 1147.37 346.61 1147.37 325.342V106.174C1147.37 94.1838 1140.03 89.9302 1133.71 89.9302C1127.38 89.9302 1120.04 94.1838 1120.04 106.174V374.552C1120.04 383.205 1117.18 391.346 1111.97 397.396C1106.91 403.3 1100.25 406.527 1093.16 406.527H1093.25Z" fill="url(#paint0_linear_141_19815)"/>
<defs>
<linearGradient id="paint0_linear_141_19815" x1="0.594991" y1="203.309" x2="1447.8" y2="203.309" gradientUnits="userSpaceOnUse">
<stop stop-color="#F58047"/>
<stop offset="1" stop-color="#FDC45D"/>
</linearGradient>
</defs>
</svg>
