<svg xmlns="http://www.w3.org/2000/svg" width="200" height="200" fill="none" xmlns:v="https://vecta.io/nano"><rect x=".5" y=".5" width="199" height="199" rx="36.5" fill="url(#A)" stroke="#2a2b44"/><path d="M112.86 136.551H99.81c-3.196 0-5.8-2.605-5.8-5.801V78.549a5.72 5.72 0 0 1 1.705-4.095 5.75 5.75 0 0 1 4.077-1.682h.029l13.05.058h.087c4.988 0 9.686 1.937 13.23 5.47a18.63 18.63 0 0 1 5.528 13.305c0 2.14 1.56 2.9 2.9 2.9s2.9-.76 2.9-2.9c0-13.59-11.061-24.651-24.651-24.651h-21.75a2.9 2.9 0 0 0-2.9 2.9v60.901c0 3.811-2.917 5.8-5.8 5.8s-5.8-1.989-5.8-5.8V82.899c0-2.14-1.56-2.9-2.9-2.9s-2.9.76-2.9 2.9V109c0 3.811-2.917 5.8-5.8 5.8s-5.8-1.989-5.8-5.8V91.6a1.45 1.45 0 1 1 2.9 0V109c0 2.14 1.56 2.9 2.9 2.9s2.9-.76 2.9-2.9V82.899c0-3.811 2.917-5.8 5.8-5.8s5.8 1.989 5.8 5.8v47.851c0 2.141 1.56 2.901 2.9 2.901s2.9-.76 2.9-2.901V69.849a5.81 5.81 0 0 1 5.8-5.8h21.75c15.191 0 27.551 12.36 27.551 27.551 0 2.169-1.004 3.99-2.755 5-1.85 1.067-4.24 1.067-6.09 0-1.752-1.009-2.755-2.836-2.755-5a15.75 15.75 0 0 0-4.675-11.247c-2.999-2.981-6.972-4.623-11.195-4.623h-.069l-13.062-.058h-.012c-.766 0-1.491.296-2.03.841a2.87 2.87 0 0 0-.847 2.042v52.201a2.9 2.9 0 0 0 2.9 2.9h13.051c13.589 0 24.65-11.061 24.65-24.65a1.45 1.45 0 1 1 2.9 0c0 15.19-12.36 27.55-27.55 27.55l-.018-.005z" fill="url(#B)"/><defs><linearGradient id="A" x1="100" y1="0" x2="100" y2="200" gradientUnits="userSpaceOnUse"><stop offset=".255" stop-color="#1e1e1e"/><stop offset=".708" stop-color="#161f24"/></linearGradient><linearGradient id="B" x1="59.21" y1="100.29" x2="140.435" y2="100.29" gradientUnits="userSpaceOnUse"><stop stop-color="#f58047"/><stop offset="1" stop-color="#fdc45d"/></linearGradient></defs></svg>