<svg width="3618" height="2677" viewBox="0 0 3618 2677" fill="none" xmlns="http://www.w3.org/2000/svg">
<path opacity="0.02" d="M2431.88 2369.69C2431.42 2369.43 2430.97 2369.18 2430.51 2368.93C2393.55 2348.49 2369.78 2309.95 2367.16 2265.85L2348.62 1954.55C2346.08 1911.55 2355.86 1868.55 2377.02 1830.29L2435.8 1723.98C2457.4 1684.91 2505.17 1669.82 2542.28 1690.34C2616.58 1731.43 2712.11 1701.25 2755.36 1623.04C2798.61 1544.83 2773.37 1447.88 2699.07 1406.79L2598.07 1350.95C2573.2 1337.2 2553.85 1351.37 2544.77 1367.78C2535.7 1384.19 2533.98 1408.12 2558.85 1421.88L2659.85 1477.72C2703.35 1501.77 2706.39 1549.97 2686.91 1585.2C2667.44 1620.42 2625 1643.47 2581.5 1619.42L2480.5 1563.57C2461.95 1553.31 2438 1560.87 2427.2 1580.41L2339.03 1739.87C2313.31 1786.38 2266.01 1792.01 2232.55 1773.5C2199.08 1755 2178.7 1711.95 2204.42 1665.44L2410.2 1293.27C2424.68 1267.09 2411.71 1247.8 2396.12 1239.18C2380.53 1230.56 2357.3 1229.83 2342.82 1256.01L1931.24 2000.35C1909.64 2039.42 1861.88 2054.51 1824.76 2033.99C1787.65 2013.46 1763.65 1974.79 1761.03 1930.69L1742.49 1619.4C1739.96 1576.39 1749.73 1533.4 1770.89 1495.13L1829.67 1388.82C1851.27 1349.75 1899.04 1334.67 1936.15 1355.19C2010.45 1396.27 2105.99 1366.1 2149.23 1287.89C2192.48 1209.67 2167.24 1112.72 2092.94 1071.64L1991.94 1015.79C1967.07 1002.04 1947.72 1016.22 1938.64 1032.63C1929.57 1049.04 1927.86 1072.97 1952.72 1086.72L2053.72 1142.57C2097.22 1166.62 2100.26 1214.82 2080.79 1250.04C2070.74 1268.21 2055.41 1282.11 2037.64 1289.11C2017.16 1297.23 1995.63 1295.57 1975.33 1284.34L1874.33 1228.5C1855.77 1218.24 1831.83 1225.8 1821.03 1245.33L1732.85 1404.8C1707.14 1451.31 1659.84 1456.93 1626.37 1438.43C1592.91 1419.93 1572.53 1376.88 1598.24 1330.37L1804.03 958.196C1818.51 932.018 1805.54 912.723 1789.95 904.103C1774.36 895.482 1751.13 894.76 1736.65 920.937L1325.07 1665.28C1303.82 1703.7 1256.86 1718.61 1220.26 1698.58L915.104 1531.2C878.143 1510.77 865.663 1462.58 887.132 1423.75L1064.02 1103.85C1085.48 1065.03 1133.01 1050.02 1169.89 1070.41L1372.34 1182.35C1397.21 1196.11 1416.57 1181.93 1425.64 1165.52C1434.72 1149.11 1436.43 1125.18 1411.56 1111.43L1209.11 999.485C1172.23 979.089 1159.67 930.858 1181.14 892.031L1240.59 784.519C1261.97 745.853 1309.3 730.838 1346.11 751.191L1548.78 863.26C1573.65 877.011 1593.01 862.836 1602.08 846.425C1611.16 830.014 1612.87 806.083 1588 792.332L1284.56 624.545C1266.23 614.41 1242.57 621.816 1231.86 641.189L820.061 1385.93C794.342 1432.44 747.043 1438.07 713.58 1419.56C680.118 1401.06 659.732 1358.01 685.45 1311.5L1097.03 567.158C1111.5 540.98 1098.54 521.685 1082.95 513.065C1067.36 504.444 1044.12 503.722 1029.65 529.9L618.068 1274.24C592.35 1320.75 545.051 1326.38 511.588 1307.87C478.126 1289.37 457.74 1246.32 483.458 1199.81L895.258 455.067C905.926 435.774 899.74 411.761 881.336 401.585L780.872 346.034C761.783 335.479 737.239 343.231 726.128 363.325L315.081 1106.71C289.362 1153.22 242.063 1158.84 208.6 1140.34C175.138 1121.83 154.752 1078.78 180.47 1032.27L592.049 287.932C606.524 261.754 593.558 242.46 577.968 233.839C562.377 225.218 539.142 224.496 524.667 250.674L348.27 569.689C322.552 616.2 275.253 621.823 241.79 603.32C208.327 584.817 187.941 541.768 213.66 495.257L390.057 176.242C404.532 150.064 391.566 130.769 375.976 122.149C360.385 113.528 337.15 112.806 322.675 138.984L146.278 457.998C120.56 504.51 73.2606 510.133 39.7981 491.63C6.33552 473.127 -14.0506 430.078 11.6676 383.566L217.457 11.3957C222.857 1.62915 234.769 -2.13297 244.047 2.99738C253.325 8.12773 256.472 20.2161 251.072 29.9827L45.2822 402.153C30.8074 428.331 43.7727 447.626 59.3632 456.246C74.9537 464.867 98.1887 465.589 112.664 439.411L289.061 120.397C314.779 73.8854 362.078 68.2621 395.541 86.7651C429.003 105.268 449.39 148.318 423.671 194.829L247.274 513.843C232.799 540.021 245.765 559.316 261.355 567.937C276.946 576.557 300.181 577.279 314.656 551.102L491.053 232.087C516.771 185.576 564.07 179.952 597.533 198.455C630.995 216.958 651.382 260.008 625.663 306.519L214.085 1050.86C199.61 1077.04 212.575 1096.33 228.166 1104.95C243.756 1113.57 266.991 1114.3 281.466 1088.12L692.514 344.738C714.425 305.111 762.912 289.796 800.558 310.612L901.022 366.163C937.906 386.558 950.462 434.79 928.993 473.616L517.193 1218.36C502.718 1244.54 515.683 1263.83 531.274 1272.45C546.864 1281.07 570.099 1281.79 584.574 1255.62L996.153 511.274C1021.87 464.763 1069.17 459.14 1102.63 477.643C1136.1 496.146 1156.48 539.195 1130.76 585.707L719.185 1330.05C704.71 1356.23 717.675 1375.52 733.266 1384.14C748.856 1392.76 772.091 1393.48 786.566 1367.31L1198.37 622.564C1219.84 583.738 1267.36 568.728 1304.25 589.123L1607.69 756.911C1651.88 781.343 1655.3 829.751 1635.82 864.974C1616.34 900.198 1573.53 923.038 1529.34 898.606L1326.66 786.537C1308.49 776.487 1285.03 783.897 1274.45 803.03L1215 910.542C1204.33 929.835 1210.56 953.768 1228.89 963.903L1431.34 1075.85C1475.52 1100.28 1478.94 1148.69 1459.47 1183.91C1439.99 1219.13 1397.17 1241.97 1352.99 1217.54L1150.54 1105.6C1132.21 1095.46 1108.55 1102.87 1097.84 1122.24L920.956 1442.14C910.288 1461.43 916.518 1485.36 934.846 1495.5L1240.01 1662.88C1257.95 1672.8 1281.22 1665.39 1291.67 1646.49L1703.25 902.152C1728.96 855.641 1776.26 850.018 1809.73 868.521C1843.19 887.024 1863.57 930.073 1837.86 976.584L1632.07 1348.76C1617.59 1374.93 1630.56 1394.23 1646.15 1402.85C1661.74 1411.47 1684.97 1412.19 1699.45 1386.01L1787.62 1226.55C1809.23 1187.48 1856.99 1172.39 1894.1 1192.91L1995.1 1248.76C2019.13 1262.05 2038.19 1247.7 2047.26 1231.29C2056.33 1214.88 2058.35 1191.12 2034.32 1177.83L1933.32 1121.99C1889.14 1097.55 1885.72 1049.15 1905.19 1013.92C1915.29 995.67 1930.81 981.781 1948.81 974.906C1963.19 969.373 1985.78 965.871 2011.79 980.253L2112.79 1036.1C2205.65 1087.44 2237.21 1208.69 2183.16 1306.44C2129.12 1404.19 2009.64 1441.92 1916.78 1390.58C1898.23 1380.32 1874.28 1387.88 1863.48 1407.41L1804.7 1513.72C1787.39 1545.02 1779.33 1580.08 1781.44 1615.22L1799.98 1926.52C1801.78 1957.2 1818.44 1984.18 1844.37 1998.52C1862.93 2008.78 1886.87 2001.22 1897.67 1981.69L2309.25 1237.35C2334.97 1190.83 2382.27 1185.21 2415.73 1203.71C2449.2 1222.22 2469.58 1265.27 2443.86 1311.78L2238.07 1683.95C2223.6 1710.13 2236.56 1729.42 2252.16 1738.04C2267.75 1746.66 2290.98 1747.38 2305.46 1721.21L2393.63 1561.74C2415.23 1522.67 2463 1507.59 2500.11 1528.11L2601.11 1583.95C2625.14 1597.24 2644.19 1582.9 2653.27 1566.49C2662.34 1550.08 2664.36 1526.31 2640.33 1513.02L2539.33 1457.18C2495.15 1432.75 2491.72 1384.34 2511.2 1349.12C2530.68 1313.89 2573.5 1291.05 2617.68 1315.48L2718.68 1371.33C2811.54 1422.67 2843.1 1543.93 2789.05 1641.67C2735 1739.42 2615.53 1777.15 2522.67 1725.81C2504.11 1715.55 2480.17 1723.11 2469.37 1742.64L2410.59 1848.95C2393.28 1880.26 2385.22 1915.31 2387.33 1950.45L2405.87 2261.75C2407.67 2292.43 2424.33 2319.41 2450.26 2333.75C2459.33 2339.08 2469.64 2340.18 2479.59 2337.11C2489.48 2334.12 2497.81 2327.32 2502.99 2317.96L2826.96 1732.04C2852.68 1685.53 2899.98 1679.91 2933.44 1698.41C2966.91 1716.91 2987.29 1759.96 2961.57 1806.48L2697 2284.96C2682.61 2310.98 2695.62 2330.19 2711.21 2338.81C2726.81 2347.43 2750 2348.23 2764.38 2322.22L3117.75 1683.15C3143.47 1636.63 3190.77 1631.01 3224.23 1649.51C3257.7 1668.02 3278.08 1711.07 3252.36 1757.58L2840.7 2502.08C2829.94 2521.53 2836.28 2545.63 2854.68 2555.81L2905.33 2583.81C3118.88 2701.89 3393.69 2615.1 3517.98 2390.31C3642.28 2165.52 3569.68 1886.63 3356.13 1768.54C3346.85 1763.41 3343.7 1751.32 3349.1 1741.56C3354.5 1731.79 3366.42 1728.03 3375.69 1733.16C3607.8 1861.5 3686.65 2164.65 3551.6 2408.89C3416.54 2653.14 3117.8 2747.5 2885.77 2619.2L2835.12 2591.19C2798.08 2570.71 2785.49 2522.36 2807.05 2483.37L3218.72 1738.87C3233.19 1712.69 3220.23 1693.4 3204.64 1684.78C3189.05 1676.15 3165.81 1675.43 3151.34 1701.61L2797.97 2340.68C2772.29 2387.11 2725.04 2392.66 2691.57 2374.15C2658.11 2355.65 2637.68 2312.68 2663.35 2266.25L2927.93 1787.77C2942.4 1761.59 2929.44 1742.29 2913.85 1733.67C2898.26 1725.05 2875.02 1724.33 2860.55 1750.51L2536.57 2336.42C2526.12 2355.32 2509.22 2369.18 2489.07 2375.28C2469.47 2381.27 2449.14 2379.23 2431.65 2369.56L2431.88 2369.69Z" fill="url(#paint0_linear_516_12183)"/>
<defs>
<linearGradient id="paint0_linear_516_12183" x1="-17.5986" y1="435.955" x2="3551.64" y2="2409.54" gradientUnits="userSpaceOnUse">
<stop stop-color="#F58047"/>
<stop offset="1" stop-color="#FDC45D"/>
</linearGradient>
</defs>
</svg>
