<svg width="200" height="75" viewBox="0 0 200 75" fill="none" xmlns="http://www.w3.org/2000/svg">
<g id="Group">
<path id="Vector" d="M0.157364 17.9757H0.216908C0.306224 17.9757 0.374276 18.0565 0.374276 18.1515V19.2685C0.374276 19.3683 0.446581 19.4443 0.531644 19.4443H0.871894C0.96121 19.4443 1.02926 19.5251 1.02926 19.6202V22.6288C1.02926 22.7286 1.07604 22.8047 1.18663 22.8047H1.50561C1.62045 22.8047 1.66298 22.7239 1.66298 22.6288V19.6202C1.66298 19.5204 1.73528 19.4443 1.82035 19.4443H2.1606C2.24991 19.4443 2.31797 19.3635 2.31797 19.2685V18.1515C2.31797 18.0517 2.39027 17.9757 2.47533 17.9757H2.53487C2.62419 17.9757 2.69225 17.8949 2.69225 17.7998V8.32718C2.69225 8.22736 2.61994 8.15132 2.53487 8.15132H2.14784C2.05852 8.15132 1.99047 8.07052 1.99047 7.97546V4.12557C1.99047 4.03051 1.92667 3.95922 1.84161 3.94971V3.54571C1.94794 3.53145 2.02875 3.43163 2.02875 3.3128C2.02875 3.19398 1.94794 3.09417 1.84161 3.07991V2.67116C1.94794 2.65691 2.02875 2.55708 2.02875 2.43826V1.96772C2.02875 1.84415 1.94794 1.74909 1.84161 1.73483V1.25478C1.94794 1.24052 2.02875 1.14071 2.02875 1.02189V0.551344C2.02875 0.418262 1.93093 0.313697 1.81609 0.313697H1.80759C1.73954 0.128331 1.57792 0 1.39078 0C1.20364 0 1.03777 0.128331 0.973969 0.313697H0.948451C0.829363 0.313697 0.735793 0.423015 0.735793 0.551344V1.02189C0.735793 1.15022 0.829364 1.25478 0.939946 1.25954V1.73007C0.825111 1.73483 0.735793 1.83939 0.735793 1.96772V2.43826C0.735793 2.56659 0.829364 2.67115 0.939946 2.67591V3.07515C0.825111 3.07991 0.735793 3.18447 0.735793 3.3128C0.735793 3.44113 0.829364 3.5457 0.939946 3.55045V3.94971H0.859135C0.769819 3.94971 0.701767 4.03051 0.701767 4.12557V7.97546C0.701767 8.07527 0.629466 8.15132 0.544403 8.15132H0.157364C0.0680483 8.15132 0 8.23212 0 8.32718V17.7998C0 17.8996 0.0723015 17.9757 0.157364 17.9757Z" fill="#F48046"/>
<path id="Vector_2" d="M151.114 74.4359C151.089 74.4359 151.063 74.4359 151.038 74.4359C148.971 74.4359 147.04 73.2809 145.883 71.3417L137.717 57.6532C136.59 55.7616 135.99 53.5609 135.99 51.289V44.9771C135.99 42.6577 137.679 40.7707 139.754 40.7707C143.909 40.7707 147.286 36.9969 147.286 32.3533C147.286 27.7096 143.909 23.9358 139.754 23.9358H134.106C132.715 23.9358 132.222 25.067 132.222 26.0413C132.222 27.0157 132.715 28.1469 134.106 28.1469H139.754C142.187 28.1469 143.459 30.262 143.459 32.3533C143.459 34.4446 142.187 36.5596 139.754 36.5596H134.106C133.068 36.5596 132.222 37.5055 132.222 38.6652V48.1331C132.222 50.8945 130.329 52.3394 128.458 52.3394C126.586 52.3394 124.694 50.8945 124.694 48.1331V26.0366C124.694 24.4824 123.681 23.931 122.81 23.931C121.938 23.931 120.925 24.4824 120.925 26.0366V70.2295C120.925 72.549 119.237 74.4359 117.161 74.4359C115.086 74.4359 113.142 73.2809 111.985 71.3417L103.819 57.6532C102.692 55.7616 102.092 53.5609 102.092 51.289V44.9771C102.092 42.6577 103.781 40.7707 105.856 40.7707C110.012 40.7707 113.389 36.9969 113.389 32.3533C113.389 27.7096 110.012 23.9358 105.856 23.9358H100.208C98.8175 23.9358 98.3242 25.067 98.3242 26.0413C98.3242 27.0157 98.8175 28.1469 100.208 28.1469H105.856C108.289 28.1469 109.561 30.262 109.561 32.3533C109.561 33.4322 109.233 34.4493 108.638 35.2145C107.953 36.0986 106.992 36.5644 105.856 36.5644H100.208C99.1705 36.5644 98.3242 37.5102 98.3242 38.6699V48.1378C98.3242 50.8993 96.4315 52.3442 94.5601 52.3442C92.6887 52.3442 90.7961 50.8993 90.7961 48.1378V26.0413C90.7961 24.4871 89.7838 23.9358 88.9119 23.9358C88.0401 23.9358 87.0278 24.4871 87.0278 26.0413V70.2343C87.0278 72.5157 85.3691 74.3741 83.3276 74.3836L66.2937 74.4454C64.2267 74.4454 62.5509 72.568 62.5509 70.2628V51.27C62.5509 48.9648 64.2309 47.0874 66.2937 47.0874H77.6156C79.0064 47.0874 79.4997 45.9562 79.4997 44.9819C79.4997 44.0075 79.0064 42.8763 77.6156 42.8763H66.2937C64.2309 42.8763 62.5509 40.9989 62.5509 38.6937V32.3105C62.5509 30.0148 64.2224 28.1421 66.2809 28.1421H77.6156C79.0064 28.1421 79.4997 27.0109 79.4997 26.0366C79.4997 25.0622 79.0064 23.931 77.6156 23.931H60.6455C59.6205 23.931 58.7826 24.8626 58.7826 26.0128V70.2295C58.7826 72.991 56.89 74.4359 55.0186 74.4359C53.1472 74.4359 51.2546 72.991 51.2546 70.2295V26.0366C51.2546 24.4824 50.2423 23.931 49.3704 23.931C48.4985 23.931 47.4863 24.4824 47.4863 26.0366V70.2295C47.4863 72.991 45.5936 74.4359 43.7222 74.4359C41.8508 74.4359 39.9582 72.991 39.9582 70.2295V26.0128C39.9582 24.8674 39.1246 23.931 38.0953 23.931H32.4769C31.4094 23.931 30.5417 24.9006 30.5417 26.0936V70.2295C30.5417 72.991 28.6491 74.4359 26.7777 74.4359C24.9063 74.4359 23.0136 72.991 23.0136 70.2295V26.0366C23.0136 24.4824 22.0014 23.931 21.1295 23.931C20.2576 23.931 19.2453 24.4824 19.2453 26.0366V44.9771C19.2453 47.7386 17.3527 49.1835 15.4813 49.1835C13.6099 49.1835 11.7173 47.7386 11.7173 44.9771V26.0366C11.7173 24.4824 10.705 23.931 9.83312 23.931C8.96122 23.931 7.94898 24.4824 7.94898 26.0366V44.9771C7.94898 47.7386 6.05632 49.1835 4.18494 49.1835C2.31355 49.1835 0.420898 47.7386 0.420898 44.9771V22.8806C0.420898 22.3008 0.84196 21.8302 1.36084 21.8302C1.87973 21.8302 2.30079 22.3008 2.30079 22.8806V44.9771C2.30079 46.5313 3.31304 47.0827 4.18494 47.0827C5.05683 47.0827 6.06908 46.5313 6.06908 44.9771V26.0366C6.06908 23.2751 7.96173 21.8302 9.83312 21.8302C11.7045 21.8302 13.5972 23.2751 13.5972 26.0366V44.9771C13.5972 46.5313 14.6094 47.0827 15.4813 47.0827C16.3532 47.0827 17.3655 46.5313 17.3655 44.9771V26.0366C17.3655 23.2751 19.2581 21.8302 21.1295 21.8302C23.0009 21.8302 24.8935 23.2751 24.8935 26.0366V70.2295C24.8935 71.7838 25.9058 72.3351 26.7777 72.3351C27.6496 72.3351 28.6618 71.7838 28.6618 70.2295V26.0936C28.6618 23.7409 30.3758 21.8255 32.4811 21.8255H38.0996C40.1623 21.8255 41.8423 23.7029 41.8423 26.0081V70.2248C41.8423 71.779 42.8546 72.3303 43.7265 72.3303C44.5984 72.3303 45.6106 71.779 45.6106 70.2248V26.0318C45.6106 23.2704 47.5033 21.8255 49.3747 21.8255C51.246 21.8255 53.1387 23.2704 53.1387 26.0318V70.2248C53.1387 71.779 54.151 72.3303 55.0228 72.3303C55.8947 72.3303 56.907 71.779 56.907 70.2248V26.0081C56.907 23.7029 58.587 21.8255 60.6498 21.8255H77.6198C80.0909 21.8255 81.3839 23.9405 81.3839 26.0318C81.3839 28.1231 80.0909 30.2382 77.6198 30.2382H66.2852C65.2687 30.2382 64.4393 31.165 64.4393 32.301V38.6842C64.4393 39.8296 65.2729 40.7612 66.298 40.7612H77.6198C80.0909 40.7612 81.3839 42.8763 81.3839 44.9676C81.3839 47.0589 80.0909 49.174 77.6198 49.174H66.298C65.2729 49.174 64.4351 50.1055 64.4351 51.2558V70.2486C64.4351 71.394 65.2687 72.3256 66.2937 72.3256L83.3276 72.2638C84.3313 72.2638 85.1522 71.3417 85.1522 70.22V26.0271C85.1522 23.2656 87.0448 21.8207 88.9162 21.8207C90.7876 21.8207 92.6802 23.2656 92.6802 26.0271V48.1236C92.6802 49.6778 93.6925 50.2291 94.5644 50.2291C95.4363 50.2291 96.4485 49.6778 96.4485 48.1236V38.6557C96.4485 36.3362 98.137 34.4493 100.213 34.4493H105.861C107.205 34.4493 107.681 33.3181 107.681 32.3438C107.681 31.3694 107.205 30.2382 105.861 30.2382H100.213C97.7415 30.2382 96.4485 28.1231 96.4485 26.0318C96.4485 24.9482 96.7845 23.9263 97.3927 23.161C97.8776 22.5479 98.7623 21.8207 100.217 21.8207H105.865C111.058 21.8207 115.281 26.5404 115.281 32.3438C115.281 38.1471 111.058 42.8668 105.865 42.8668C104.827 42.8668 103.981 43.8126 103.981 44.9723V51.2843C103.981 53.1427 104.466 54.9393 105.389 56.484L113.555 70.1725C114.359 71.5223 115.711 72.3303 117.161 72.3303C118.199 72.3303 119.046 71.3845 119.046 70.2248V26.0318C119.046 23.2704 120.938 21.8255 122.81 21.8255C124.681 21.8255 126.574 23.2704 126.574 26.0318V48.1283C126.574 49.6825 127.586 50.2339 128.458 50.2339C129.33 50.2339 130.342 49.6825 130.342 48.1283V38.6604C130.342 36.341 132.03 34.4541 134.106 34.4541H139.754C141.098 34.4541 141.574 33.3229 141.574 32.3485C141.574 31.3742 141.098 30.2429 139.754 30.2429H134.106C131.635 30.2429 130.342 28.1279 130.342 26.0366C130.342 23.9453 131.635 21.8302 134.106 21.8302H139.754C144.947 21.8302 149.171 26.5499 149.171 32.3533C149.171 38.1566 144.947 42.8763 139.754 42.8763C138.716 42.8763 137.87 43.8221 137.87 44.9819V51.2938C137.87 53.1522 138.355 54.9488 139.278 56.4935L147.444 70.182C148.248 71.5318 149.6 72.3398 151.05 72.3398C151.565 72.3541 152.033 72.145 152.386 71.7552C152.739 71.3702 152.935 70.8522 152.935 70.2961V35.5092C152.935 32.7478 154.827 31.3029 156.699 31.3029C158.57 31.3029 160.463 32.7478 160.463 35.5092V63.9176C160.463 65.4623 161.475 66.0089 162.347 66.0089C163.219 66.0089 164.231 65.4623 164.231 63.9176V25.9748C164.231 23.2133 166.124 21.7684 167.995 21.7684C169.866 21.7684 171.759 23.2133 171.759 25.9748V70.1773C171.759 71.3322 172.601 72.2686 173.63 72.2686H176.463C188.406 72.2686 198.12 61.4128 198.12 48.0665C198.12 34.7202 188.406 23.8645 176.463 23.8645C175.944 23.8645 175.523 23.3939 175.523 22.8141C175.523 22.2342 175.944 21.7637 176.463 21.7637C189.444 21.7637 200 33.5653 200 48.0665C200 62.5678 189.439 74.3694 176.463 74.3694H173.63C171.559 74.3694 169.875 72.4872 169.875 70.1725V25.97C169.875 24.4158 168.863 23.8645 167.991 23.8645C167.119 23.8645 166.107 24.4158 166.107 25.97V63.9129C166.107 66.6696 164.214 68.1097 162.343 68.1097C160.471 68.1097 158.579 66.6696 158.579 63.9129V35.5045C158.579 33.9502 157.566 33.3989 156.694 33.3989C155.823 33.3989 154.81 33.9502 154.81 35.5045V70.2913C154.81 71.413 154.415 72.4682 153.696 73.2524C152.998 74.0176 152.08 74.4359 151.102 74.4359H151.114Z" fill="url(#paint0_linear_312_7210)"/>
</g>
<defs>
<linearGradient id="paint0_linear_312_7210" x1="0.408139" y1="48.095" x2="200.017" y2="48.095" gradientUnits="userSpaceOnUse">
<stop stop-color="#F58047"/>
<stop offset="1" stop-color="#FDC45D"/>
</linearGradient>
</defs>
</svg>
