<svg width="1253" height="1321" viewBox="0 0 1253 1321" fill="none" xmlns="http://www.w3.org/2000/svg">
<g filter="url(#filter0_d_434_19499)">
<path d="M460.301 345.594L460.5 345.162C460.799 344.513 461.552 344.26 462.17 344.545L469.435 347.889C470.084 348.188 470.82 347.89 471.105 347.272L472.242 344.801C472.541 344.152 473.294 343.899 473.912 344.184L493.48 353.191C494.129 353.489 494.78 353.377 495.15 352.574L496.216 350.257C496.6 349.423 496.217 348.872 495.599 348.587L476.031 339.581C475.382 339.282 475.129 338.529 475.413 337.911L476.551 335.44C476.85 334.791 476.552 334.055 475.933 333.77L468.669 330.426C468.02 330.127 467.767 329.375 468.051 328.757L468.25 328.324C468.549 327.675 468.251 326.939 467.633 326.655L406.024 298.297C405.375 297.998 404.638 298.296 404.354 298.914L403.06 301.725C402.761 302.374 402.008 302.626 401.39 302.342L376.351 290.816C375.732 290.532 375.055 290.782 374.709 291.371L372.082 290.162C372.344 289.347 371.965 288.461 371.192 288.105C370.42 287.749 369.5 288.038 369.052 288.767L366.394 287.544C366.656 286.729 366.277 285.843 365.505 285.487L362.444 284.078C361.64 283.708 360.752 284.011 360.304 284.741L357.182 283.303C357.444 282.488 357.065 281.603 356.293 281.247L353.232 279.838C352.367 279.44 351.36 279.837 350.976 280.672L350.947 280.733C349.514 280.673 348.139 281.463 347.513 282.822C346.888 284.181 347.168 285.77 348.16 286.789L348.075 286.974C347.676 287.839 348.075 288.846 348.909 289.23L351.97 290.639C352.804 291.023 353.797 290.656 354.198 289.867L357.258 291.276C356.905 292.124 357.287 293.086 358.121 293.47L361.182 294.879C362.016 295.263 363.009 294.896 363.41 294.107L366.006 295.303C365.653 296.151 366.035 297.113 366.869 297.497C367.704 297.881 368.697 297.515 369.098 296.725L371.694 297.921L371.424 298.508C371.126 299.157 371.424 299.893 372.042 300.177L397.081 311.703C397.73 312.001 397.983 312.754 397.699 313.372L396.405 316.183C396.106 316.832 396.404 317.568 397.022 317.853L458.631 346.211C459.28 346.51 460.017 346.212 460.301 345.594Z" fill="#FDC45D"/>
<path d="M491.118 349.115C598.929 401.655 371.337 689.68 335.123 615.884C298.908 542.088 468.819 476.47 521.906 515.238C574.994 554.006 405.827 629.223 454.498 707.565C503.169 785.907 882.08 747.509 881.154 618.281C880.228 489.053 515.939 844.778 639.056 867.909C762.173 891.041 1050.79 720.75 1072.58 773.387C1094.37 826.024 985.181 1108.37 1100.64 1133.3" stroke="#FDC45D" stroke-width="4"/>
</g>
<circle opacity="0.05" cx="318.104" cy="318.104" r="318.104" fill="url(#paint0_radial_434_19499)"/>
<defs>
<filter id="filter0_d_434_19499" x="317.105" y="268.683" width="794.953" height="877.572" filterUnits="userSpaceOnUse" color-interpolation-filters="sRGB">
<feFlood flood-opacity="0" result="BackgroundImageFix"/>
<feColorMatrix in="SourceAlpha" type="matrix" values="0 0 0 0 0 0 0 0 0 0 0 0 0 0 0 0 0 0 127 0" result="hardAlpha"/>
<feOffset/>
<feGaussianBlur stdDeviation="5.5"/>
<feComposite in2="hardAlpha" operator="out"/>
<feColorMatrix type="matrix" values="0 0 0 0 0 0 0 0 0 0 0 0 0 0 0 0 0 0 0.5 0"/>
<feBlend mode="normal" in2="BackgroundImageFix" result="effect1_dropShadow_434_19499"/>
<feBlend mode="normal" in="SourceGraphic" in2="effect1_dropShadow_434_19499" result="shape"/>
</filter>
<radialGradient id="paint0_radial_434_19499" cx="0" cy="0" r="1" gradientUnits="userSpaceOnUse" gradientTransform="translate(318.104 318.104) rotate(90) scale(318.104)">
<stop stop-color="#FDC45D"/>
<stop offset="1" stop-color="#FDC45D" stop-opacity="0"/>
</radialGradient>
</defs>
</svg>
