<svg width="4101" height="2954" viewBox="0 0 4101 2954" fill="none" xmlns="http://www.w3.org/2000/svg">
<path d="M1899.74 2862.62C2233.06 3199.79 2190.28 2463.55 2475.03 2594.86C2759.79 2726.18 2455.85 3015.36 2225.69 2763.06C1995.52 2510.76 2141.59 2236.34 1899.74 2099.12C1657.9 1961.91 1517.82 1753.33 1663.96 1670.67C1810.09 1588 2002.26 1880.62 1299.64 1924.54C421.366 1979.43 207.472 1690.08 485.162 1473.74C762.852 1257.4 1163.24 1328.43 1085.75 1531.86C1008.25 1735.28 575.572 2290.66 343.088 2071.09C110.603 1851.52 -157.4 970.018 120.29 756.907C397.98 543.796 796.462 630.163 1117.5 395.397C1731.5 -53.6021 2170.68 -156.887 3142.59 288.709C3920.12 645.186 4103.74 951.721 4098.36 1060.43" stroke="#FDC45D" stroke-width="4"/>
</svg>
