<svg xmlns="http://www.w3.org/2000/svg" width="885" height="895" fill="none" xmlns:v="https://vecta.io/nano"><path d="M702.449 263.252l.064.536c.097.806.822 1.341 1.59 1.25l9.017-1.079c.806-.096 1.498.482 1.59 1.249l-.125 2.738 28.199-1.726.029 9.28L716 278.055l.467 1.841c.096.805-.483 1.497-1.25 1.589l-9.018 1.078c-.806.097-1.342.822-1.25 1.589l.064.537c.097.805-.482 1.497-1.25 1.589l-76.475 9.147c-.806.096-1.498-.483-1.59-1.25l-.417-3.489c-.097-.806-.822-1.341-1.59-1.249l-31.081 3.717c-.768.092-1.412-.414-1.58-1.172l-3.262.39c0 .972-.719 1.797-1.679 1.912s-1.852-.517-2.082-1.462l-3.299.394c-.001.973-.72 1.798-1.679 1.913l-3.799.454a1.89 1.89 0 0 1-2.082-1.463l-3.875.464c-.001.973-.719 1.798-1.679 1.912l-3.799.455a1.94 1.94 0 0 1-2.148-1.688l-.009-.077c-1.57-.435-2.78-1.768-2.982-3.455s.656-3.307 2.083-4.062l-.027-.23c-.129-1.073.653-2.023 1.689-2.147l3.799-.454a1.95 1.95 0 0 1 2.139 1.611l3.798-.454c-.085-1.04.663-1.946 1.699-2.07l3.799-.455a1.95 1.95 0 0 1 2.138 1.612l3.224-.386a1.92 1.92 0 0 1 1.698-2.07 1.95 1.95 0 0 1 2.139 1.611l3.223-.385-.087-.729c-.096-.805.483-1.497 1.25-1.589l31.082-3.717c.805-.097 1.341-.822 1.25-1.589l-.418-3.49c-.096-.805.483-1.497 1.25-1.589l76.476-9.147c.806-.096 1.497.483 1.589 1.25z" fill="#fdc45d"/><path d="M741.298 271.129c21.684-.611 64.705-35.652 55.459 34.202-11.558 87.318-235.542 305.654-296.804 244.309-53.981-54.055 39.678-175.197 98.019-131.853 38.883 28.887 44.153 167.177-45.746 272.334s-221.941 63.468-316.066 88.451" stroke="#fdc45d" stroke-width="4"/><circle opacity=".05" cx="534.016" cy="303.59" r="214.746" transform="rotate(313.482 534.016 303.59)" fill="url(#A)"/><defs><radialGradient id="A" cx="0" cy="0" r="1" gradientUnits="userSpaceOnUse" gradientTransform="translate(534.016 303.59) rotate(90) scale(214.746)"><stop stop-color="#fdc45d"/><stop offset="1" stop-color="#fdc45d" stop-opacity="0"/></radialGradient></defs></svg>