<svg xmlns="http://www.w3.org/2000/svg" width="224" height="246" fill="none" xmlns:v="https://vecta.io/nano"><g fill="#fdc45d"><path d="M22.069 228.008c0 1.472-1.194 2.666-2.667 2.666s-2.667-1.194-2.667-2.666 1.194-2.667 2.667-2.667 2.667 1.194 2.667 2.667zm12.82-86.872l.469.174h0l-.469-.174zM144.997 18.28l.21.454-.21-.454zM222.855.5a.5.5 0 0 1 .5.5.5.5 0 0 1-.5.5v-1zM212.84 1.776a.5.5 0 1 1-.055-.998l.055.998zm-20.073 1.213a.5.5 0 1 1 .164.986l-.164-.986zM173.38 8.334a.5.5 0 0 1-.27-.963l.27.963zm-19.341 5.508a.5.5 0 1 1 .371.929l-.371-.929zm-18.093 9.478a.5.5 0 1 1-.468-.884l.468.884zm-18.289 9.779a.5.5 0 0 1 .693.136.5.5 0 0 1-.136.694l-.557-.83zM101.67 46.313a.5.5 0 0 1-.639-.769l.639.769zM85.736 59.59a.5.5 0 0 1 .712.703l-.712-.703zM72.379 76.017a.5.5 0 1 1-.777-.63l.777.63zM58.811 92.825a.5.5 0 0 1 .834.552l-.834-.552zm-10.198 19.043a.5.5 0 1 1-.882-.472l.882.472zM38.41 130.909a.5.5 0 1 1 .921.39l-.921-.39zm-6.665 20.859a.5.5 0 0 1-.952-.305l.952.305zm-6.769 21.134a.5.5 0 1 1 .976.218l-.976-.218zm-2.894 22.002a.5.5 0 0 1-.561.43.5.5 0 0 1-.43-.561l.991.131zm-2.936 21.997a.5.5 0 1 1 .999.044l-.999-.044zM222.855 1.5a181.92 181.92 0 0 0-10.015.276l-.055-.998C216.136.593 219.494.5 222.855.5v1zm-29.924 2.476c-6.577 1.094-13.102 2.549-19.551 4.358l-.27-.963c6.484-1.819 13.044-3.281 19.657-4.382l.164.986zM154.41 14.77a190.56 190.56 0 0 0-9.203 3.964l-.419-.908c3.057-1.413 6.142-2.742 9.251-3.985l.371.929zm-9.203 3.964a193.02 193.02 0 0 0-9.261 4.586l-.468-.884c3.065-1.621 6.169-3.158 9.31-4.61l.419.908zm-26.993 15.195a203 203 0 0 0-16.544 12.384l-.639-.769c5.356-4.449 10.904-8.603 16.626-12.445l.557.83zM86.447 60.292c-2.412 2.444-4.774 4.954-7.082 7.53l-.745-.667c2.319-2.588 4.692-5.11 7.116-7.565l.712.703zm-7.082 7.53c-2.392 2.669-4.721 5.401-6.986 8.194l-.777-.63c2.275-2.806 4.615-5.55 7.018-8.231l.745.667zM59.644 93.377a230.14 230.14 0 0 0-11.032 18.491l-.882-.472a231.14 231.14 0 0 1 11.08-18.571l.834.552zm-20.313 37.922a240.43 240.43 0 0 0-3.973 10.011l-.937-.348c1.258-3.39 2.589-6.742 3.989-10.053l.921.39zm-3.973 10.011c-1.283 3.455-2.488 6.943-3.613 10.458l-.952-.305c1.13-3.53 2.34-7.031 3.628-10.501l.938.348zm-9.407 31.81a249.89 249.89 0 0 0-3.87 21.784l-.991-.131c.974-7.357 2.271-14.656 3.885-21.871l.976.218zm-5.807 43.825a252.69 252.69 0 0 0-.242 11.063h-1c0-3.708.081-7.411.243-11.107l.999.044zm1.924 11.063c0 1.472-1.194 2.666-2.667 2.666s-2.667-1.194-2.667-2.666 1.194-2.667 2.667-2.667 2.667 1.194 2.667 2.667zm12.82-86.872l.469.174h0l-.469-.174zM144.997 18.28l.21.454-.21-.454zM222.855.5a.5.5 0 0 1 .5.5.5.5 0 0 1-.5.5v-1zM212.84 1.776a.5.5 0 1 1-.055-.998l.055.998zm-20.073 1.213a.5.5 0 1 1 .164.986l-.164-.986zM173.38 8.334a.5.5 0 0 1-.27-.963l.27.963zm-19.341 5.508a.5.5 0 1 1 .371.929l-.371-.929zm-18.093 9.478a.5.5 0 1 1-.468-.884l.468.884zm-18.289 9.779a.5.5 0 0 1 .693.136.5.5 0 0 1-.136.694l-.557-.83zM101.67 46.313a.5.5 0 0 1-.639-.769l.639.769zM85.736 59.59a.5.5 0 0 1 .712.703l-.712-.703zM72.379 76.017a.5.5 0 1 1-.777-.63l.777.63zM58.811 92.825a.5.5 0 0 1 .834.552l-.834-.552zm-10.198 19.043a.5.5 0 1 1-.882-.472l.882.472zM38.41 130.909a.5.5 0 1 1 .921.39l-.921-.39zm-6.665 20.859a.5.5 0 0 1-.952-.305l.952.305zm-6.769 21.134a.5.5 0 1 1 .976.218l-.976-.218zm-2.894 22.002a.5.5 0 0 1-.561.43.5.5 0 0 1-.43-.561l.991.131zm-2.936 21.997a.5.5 0 1 1 .999.044l-.999-.044zM222.855 1.5a181.92 181.92 0 0 0-10.015.276l-.055-.998C216.136.593 219.494.5 222.855.5v1zm-29.924 2.476c-6.577 1.094-13.102 2.549-19.551 4.358l-.27-.963c6.484-1.819 13.044-3.281 19.657-4.382l.164.986zM154.41 14.77a190.56 190.56 0 0 0-9.203 3.964l-.419-.908c3.057-1.413 6.142-2.742 9.251-3.985l.371.929zm-9.203 3.964a193.02 193.02 0 0 0-9.261 4.586l-.468-.884c3.065-1.621 6.169-3.158 9.31-4.61l.419.908zm-26.993 15.195a203 203 0 0 0-16.544 12.384l-.639-.769c5.356-4.449 10.904-8.603 16.626-12.445l.557.83zM86.447 60.292c-2.412 2.444-4.774 4.954-7.082 7.53l-.745-.667c2.319-2.588 4.692-5.11 7.116-7.565l.712.703zm-7.082 7.53c-2.392 2.669-4.721 5.401-6.986 8.194l-.777-.63c2.275-2.806 4.615-5.55 7.018-8.231l.745.667zM59.644 93.377a230.14 230.14 0 0 0-11.032 18.491l-.882-.472a231.14 231.14 0 0 1 11.08-18.571l.834.552zm-20.313 37.922a240.43 240.43 0 0 0-3.973 10.011l-.937-.348c1.258-3.39 2.589-6.742 3.989-10.053l.921.39zm-3.973 10.011c-1.283 3.455-2.488 6.943-3.613 10.458l-.952-.305c1.13-3.53 2.34-7.031 3.628-10.501l.938.348zm-9.407 31.81a249.89 249.89 0 0 0-3.87 21.784l-.991-.131c.974-7.357 2.271-14.656 3.885-21.871l.976.218zm-5.807 43.825a252.69 252.69 0 0 0-.242 11.063h-1c0-3.708.081-7.411.243-11.107l.999.044z"/><ellipse cx="9.59" cy="10.7" rx="9.59" ry="10.7" transform="matrix(-1 0 0 1 29.1797 214.578)"/></g><path d="M19.59 240.978c-8.559 0-14.59-7.558-14.59-15.7s6.031-15.7 14.59-15.7 14.59 7.558 14.59 15.7-6.031 15.7-14.59 15.7z" stroke="#fe7625" stroke-opacity=".2" stroke-width="10"/></svg>