<svg xmlns="http://www.w3.org/2000/svg" width="207" height="227" fill="none" xmlns:v="https://vecta.io/nano"><g fill="#fdc45d"><path d="M185.354 209.673c0 1.472 1.194 2.666 2.666 2.666s2.667-1.194 2.667-2.666a2.67 2.67 0 0 0-2.667-2.667c-1.472 0-2.666 1.194-2.666 2.667zm-11.57-79.856l.469-.174-.469.174zm-40.541-67.698l-.372.334.372-.334zM72.57 16.884l-.21.454.21-.454zM1 .5a.5.5 0 1 0 0 1v-1zm9.204 1.254a.5.5 0 1 0 .055-.998l-.055.998zm18.461 1.035a.5.5 0 0 0-.164.986l.164-.986zM46.468 7.78a.5.5 0 0 0 .27-.963l-.27.963zm17.805 4.987a.5.5 0 1 0-.371.929l.371-.929zm16.598 8.786a.5.5 0 1 0 .468-.884l-.468.884zm16.853 8.92a.5.5 0 0 0-.557.83l.557-.83zm14.646 12.211a.5.5 0 0 0 .639-.769l-.639.769zm14.703 12.145a.5.5 0 0 0-.712.703l.712-.703zm12.217 15.154a.5.5 0 1 0 .777-.63l-.777.63zm12.538 15.403a.5.5 0 1 0-.834.552l.834-.552zm9.305 17.546a.5.5 0 1 0 .882-.472l-.882.472zm9.451 17.469a.5.5 0 0 0-.921.39l.921-.39zm6.052 19.202a.5.5 0 0 0 .628.323.5.5 0 0 0 .324-.628l-.952.305zm6.3 19.405a.5.5 0 1 0-.976.219l.976-.219zm2.581 20.24a.5.5 0 0 0 .561.43.5.5 0 0 0 .43-.561l-.991.131zm2.779 20.213a.5.5 0 1 0-.999.044l.999-.044zM1 1.5l9.204.254.055-.998L1 .5v1zm27.501 2.275c6.044 1.006 12.041 2.342 17.968 4.005l.27-.963a170.51 170.51 0 0 0-18.074-4.029l-.164.986zm35.402 9.92a175.2 175.2 0 0 1 8.458 3.643l.42-.908a176.09 176.09 0 0 0-8.506-3.664l-.371.929zm8.458 3.643a177.36 177.36 0 0 1 8.511 4.215l.468-.884a178.33 178.33 0 0 0-8.559-4.238l-.42.908zm24.807 13.965a186.49 186.49 0 0 1 15.204 11.381l.639-.769c-4.924-4.091-10.025-7.91-15.285-11.442l-.557.83zm29.195 24.229c2.217 2.246 4.387 4.553 6.509 6.921l.745-.667c-2.133-2.379-4.314-4.699-6.542-6.956l-.712.703zm6.509 6.921a200.29 200.29 0 0 1 6.42 7.531l.777-.63a201.97 201.97 0 0 0-6.452-7.568l-.745.667zm18.124 23.485c3.627 5.476 7.011 11.148 10.139 16.994l.882-.472a212.48 212.48 0 0 0-10.187-17.074l-.834.552zm18.669 34.853c1.282 3.03 2.5 6.098 3.652 9.2l.937-.348c-1.157-3.116-2.38-6.198-3.668-9.242l-.921.39zm3.652 9.2c1.179 3.176 2.286 6.381 3.321 9.612l.952-.305c-1.039-3.245-2.152-6.465-3.336-9.655l-.937.348zm8.645 29.236c1.478 6.604 2.665 13.286 3.557 20.021l.991-.131a230.83 230.83 0 0 0-3.572-20.109l-.976.219zm5.337 40.278a232.64 232.64 0 0 1 .222 10.168h1a233.12 233.12 0 0 0-.223-10.212l-.999.044zm-1.944 10.168c0 1.472 1.194 2.666 2.666 2.666s2.667-1.194 2.667-2.666a2.67 2.67 0 0 0-2.667-2.667c-1.472 0-2.666 1.194-2.666 2.667zm-11.57-79.856l.469-.174-.469.174zm-40.541-67.698l-.372.334.372-.334zM72.57 16.884l-.21.454.21-.454zM1 .5a.5.5 0 1 0 0 1v-1zm9.204 1.254a.5.5 0 1 0 .055-.998l-.055.998zm18.461 1.035a.5.5 0 0 0-.164.986l.164-.986zM46.468 7.78a.5.5 0 0 0 .27-.963l-.27.963zm17.805 4.987a.5.5 0 1 0-.371.929l.371-.929zm16.598 8.786a.5.5 0 1 0 .468-.884l-.468.884zm16.853 8.92a.5.5 0 0 0-.557.83l.557-.83zm14.646 12.211a.5.5 0 0 0 .639-.769l-.639.769zm14.703 12.145a.5.5 0 0 0-.712.703l.712-.703zm12.217 15.154a.5.5 0 1 0 .777-.63l-.777.63zm12.538 15.403a.5.5 0 1 0-.834.552l.834-.552zm9.305 17.546a.5.5 0 1 0 .882-.472l-.882.472zm9.451 17.469a.5.5 0 0 0-.921.39l.921-.39zm6.052 19.202a.5.5 0 0 0 .628.323.5.5 0 0 0 .324-.628l-.952.305zm6.3 19.405a.5.5 0 1 0-.976.219l.976-.219zm2.581 20.24a.5.5 0 0 0 .561.43.5.5 0 0 0 .43-.561l-.991.131zm2.779 20.213a.5.5 0 1 0-.999.044l.999-.044zM1 1.5c3.073 0 6.142.085 9.204.254l.055-.998A168.16 168.16 0 0 0 1 .5v1zm27.501 2.275c6.044 1.006 12.041 2.342 17.968 4.005l.27-.963a170.51 170.51 0 0 0-18.074-4.029l-.164.986zm35.402 9.92a175.2 175.2 0 0 1 8.458 3.643l.42-.908a176.09 176.09 0 0 0-8.506-3.664l-.371.929zm8.458 3.643a177.36 177.36 0 0 1 8.511 4.215l.468-.884a178.33 178.33 0 0 0-8.559-4.238l-.42.908zm24.807 13.965a186.49 186.49 0 0 1 15.204 11.381l.639-.769c-4.924-4.091-10.025-7.91-15.285-11.442l-.557.83zm29.195 24.229c2.217 2.246 4.387 4.553 6.509 6.921l.745-.667c-2.133-2.379-4.314-4.699-6.542-6.956l-.712.703zm6.509 6.921a200.29 200.29 0 0 1 6.42 7.531l.777-.63a201.97 201.97 0 0 0-6.452-7.568l-.745.667zm18.124 23.485c3.627 5.476 7.011 11.148 10.139 16.994l.882-.472a212.48 212.48 0 0 0-10.187-17.074l-.834.552zm18.669 34.853c1.282 3.03 2.5 6.098 3.652 9.2l.937-.348c-1.157-3.116-2.38-6.198-3.668-9.242l-.921.39zm3.652 9.2c1.179 3.176 2.286 6.381 3.321 9.612l.952-.305c-1.039-3.245-2.152-6.465-3.336-9.655l-.937.348zm8.645 29.236c1.478 6.604 2.665 13.286 3.557 20.021l.991-.131a230.83 230.83 0 0 0-3.572-20.109l-.976.219zm5.337 40.278a232.64 232.64 0 0 1 .222 10.168h1a233.12 233.12 0 0 0-.223-10.212l-.999.044z"/><ellipse cx="187.85" cy="207.164" rx="8.815" ry="9.836"/></g><path d="M187.85 222c8.131 0 13.816-7.172 13.816-14.836s-5.685-14.836-13.816-14.836-13.815 7.172-13.815 14.836S179.719 222 187.85 222z" stroke="#fe7625" stroke-opacity=".2" stroke-width="10"/></svg>