<svg xmlns="http://www.w3.org/2000/svg" viewBox="0 0 3840 1080" xmlns:v="https://vecta.io/nano"><defs><clipPath id="A"><path d="M0 0h3840v1080H0z" fill="none" stroke-width="0"/></clipPath><clipPath id="B"><path d="M0 0h3840v1080H0z" fill="none" stroke-width="0"/></clipPath></defs><g clip-path="url(#A)"><g opacity=".2" fill="#fcfff9"><ellipse cx="2002.9" cy="270" rx="2.1" ry="2"/><ellipse cx="2133.1" cy="210.1" rx="2.1" ry="2"/><ellipse cx="2157.1" cy="87.7" rx="2.1" ry="2"/><ellipse cx="2353.1" cy="285.9" rx="2.1" ry="2"/><ellipse cx="2266" cy="225.1" rx="2.1" ry="2"/><ellipse cx="2302.9" cy="47.2" rx="2.1" ry="2"/><ellipse cx="2512.6" cy="243.3" rx="2.1" ry="2"/><ellipse cx="2427.8" cy="232.8" rx="2.1" ry="2"/><ellipse cx="2538.2" cy="175.9" rx="2.1" ry="2"/><ellipse cx="2757.8" cy="212.1" rx="2.1" ry="2"/><ellipse cx="2782.6" cy="79.1" rx="2.1" ry="2"/><ellipse cx="2827.1" cy="287.6" rx="2.1" ry="2"/><ellipse cx="1870.6" cy="258.9" rx="2.1" ry="2"/><ellipse cx="1764.9" cy="224.2" rx="2.1" ry="2"/><ellipse cx="1745.9" cy="287.6" rx="2.1" ry="2"/><ellipse cx="1637.7" cy="242.6" rx="2.1" ry="2"/><ellipse cx="1586.7" cy="228.2" rx="2.1" ry="2"/><ellipse cx="1515" cy="141.1" rx="2.1" ry="2"/><ellipse cx="1572" cy="277.5" rx="2.1" ry="2"/><ellipse cx="1544" cy="239.7" rx="2.1" ry="2"/><ellipse cx="1248" cy="270.9" rx="2.1" ry="2"/><ellipse cx="1080.6" cy="223.6" rx="2.1" ry="2"/><ellipse cx="1100" cy="317.8" rx="2.1" ry="2"/><ellipse cx="715" cy="243.6" rx="2.1" ry="2"/><ellipse cx="360.78" cy="220" rx="2.1" ry="2" transform="matrix(.974644 -.22376 .22376 .974644 -40.09 86.33)"/><ellipse cx="363.59" cy="153.91" rx="2.1" ry="2" transform="matrix(.974644 -.22376 .22376 .974644 -25.22 85.28)"/><ellipse cx="479.48" cy="171.12" rx="2.1" ry="2" transform="matrix(.974644 -.22376 .22376 .974644 -26.14 111.65)"/><ellipse cx="532.48" cy="172.62" rx="2.1" ry="2" transform="matrix(.974644 -.22376 .22376 .974644 -25.13 123.55)"/><ellipse cx="623.38" cy="239.53" rx="2.1" ry="2" transform="matrix(.974644 -.22376 .22376 .974644 -37.79 145.59)"/><ellipse cx="534.68" cy="121.22" rx="2.1" ry="2" transform="matrix(.974644 -.22376 .22376 .974644 -13.57 122.74)"/><ellipse cx="571.07" cy="150.91" rx="2.1" ry="2" transform="matrix(.974644 -.22376 .22376 .974644 -19.29 131.64)"/><ellipse cx="92.4" cy="255.5" rx="2.1" ry="2"/><ellipse cx="2918.54" cy="364.16" rx="2.1" ry="2" transform="matrix(.954188 -.299207 .299207 .954188 24.74 889.9)"/><ellipse cx="3029.84" cy="362.57" rx="2.1" ry="2" transform="matrix(.954188 -.299207 .299207 .954188 30.31 923.13)"/><ellipse cx="3027.05" cy="296.47" rx="2.1" ry="2" transform="matrix(.954188 -.299207 .299207 .954188 49.96 919.27)"/><ellipse cx="3144.06" cy="303.87" rx="2.1" ry="2" transform="matrix(.954188 -.299207 .299207 .954188 53.11 954.61)"/><ellipse cx="3197.05" cy="300.85" rx="2.1" ry="2" transform="matrix(.954188 -.299207 .299207 .954188 56.44 970.33)"/><ellipse cx="3293.24" cy="359.77" rx="2.1" ry="2" transform="matrix(.954188 -.299207 .299207 .954188 43.22 1001.81)"/><ellipse cx="3194.86" cy="249.44" rx="2.1" ry="2" transform="matrix(.954188 -.299207 .299207 .954188 71.72 967.32)"/><ellipse cx="3233.54" cy="275.97" rx="2.1" ry="2" transform="matrix(.954188 -.299207 .299207 .954188 65.56 980.11)"/><ellipse cx="3503.15" cy="150.17" rx="2.1" ry="2" transform="matrix(.954188 -.299207 .299207 .954188 115.54 1055.01)"/><ellipse cx="3676.95" cy="140.36" rx="2.1" ry="2" transform="matrix(.954188 -.299207 .299207 .954188 126.44 1106.56)"/><ellipse cx="3627.75" cy="57.66" rx="2.1" ry="2" transform="matrix(.954188 -.299207 .299207 .954188 148.93 1088.05)"/><ellipse cx="1987.5" cy="318.3" rx="2.1" ry="2"/><ellipse cx="1992.6" cy="239.9" rx="2.1" ry="2"/></g></g><g clip-path="url(#B)" fill="#5b2e49"><path d="M2352.8 345.8c-.3 0-1.6-.1-2.9-.2h.3c1.1-.1 2.8-.6 3.4-1.3 0 0-1-.1-2.5-.1 1.5-.4 2.3-1.4 2.3-1.4l-3.2.5-3.3.8h0c-.1 0-.2.1-.4.1h0l-1.4.3h0l-2.5.5c-.7.1-1.2.3-1.2.3-.6-.2-1.6-.2-3.9 1.2h0v-.1h0s0-.1.1-.1c.5-.6.8-1.4.8-2v-.5l.5-1h0l-.2.1-.7.3h-.9c-1 .2-1.6.6-2 1.8-.3.8-.8 1.1-1.1 1.2-.1-.3-.3-.5-.5-.8q-.1-.1-.2-.2c-.3-.7-.6-1.4-.5-2.2 0-.6 0-1-.1-1.4 0-.5-.1-1.1-.1-1.2v-.1c0-.3 0-.5-.1-.8-.1-.9-.3-1.8-.5-2.6-.3-1.3-1.7-2.9-2.3-3.2 0 0-.2.7-.1 1.4a4.74 4.74 0 0 0-1-1l-.1 1.9-.7-.5s0 1 .3 2.1q0 .1.1.2l-.3-.3-.1-.1h0c0 .1-.1.7.4 2 .1.2.2.5.4.7-.3.1-.5 1.3.2 2l.1.1c-.2.3-.4 1.2.2 1.6 0 0 .1.1.2.1-.3.3-.3 1 .1 1.2q.1 0 .2.1c-.2.2-.3.5 0 .7.1.1.3.1.4.1-.3.3-.3.8.1.9h.1c-.1.3-.1.8.3 1 .1.1.2.1.4 0v.1h0v.1h0v.1h0v.1h0v.1h0v.1h0v.1h0l.1.1h.4v.1h0v.1h0q0 .1.1.2h0v.1h0a1.38 1.38 0 0 0 .4.3h.1c0 .2.1.5.2.7l-.7 1.8c-.4.9-.9 1.7-1.4 2.3-.6.5-1.5 1.3-3 1.9-.3.1-.6.2-.9.4-1.2.4-2.4 1-3.4 1.5-.3.2.2.2.4.1 1.5-.7 2.5-.9 3.2-1 .2.2.9.3 1.4 0-.1.2 0 .5.4.6s.6 0 .8-.2c-.1.4-.2.7.1.9.2.2.5 0 .8-.3-.1.5-.2.9 0 1.2.1.2.4 0 .7-.3q.1-.1.2-.2c-.2.6-.3 1 0 1.6.1.2.3.3.4.1 0 .5-.1.9-.2 1.3l-.3 1.8c-.1.3.1.6.2.4a39.61 39.61 0 0 1 1.3-4.6c.6-2.2.6-3.3.8-4.8v-.3c.4-.3.8-.6 1.2-1h.1c.1 0 .2-.2.2-.3l.1-.1c0 .3 0 .5.2.7h0c.1 0 .1.1.2 0 .1 0 .2-.1.3-.3 0 .1 0 .3.1.4s.2.3.3.3c.2.1.4-.1.5-.3 0 .2.1.4.2.5.2.1.4-.2.5-.6 0 .4.1.6.3.7.3.1.5-.4.7-.9.1.4.2.7.4.8.3.2.5-.2.6-.8a1.38 1.38 0 0 0 .3.4c.4.2.5-.3.5-1 .1.3.3.5.5.5.5 0 .6-.5.5-1 .1.2.3.3.4.3.6.1.7-.5.7-.9.2.2.5.4.7.4.6.1.8-.2.8-.5a.9.9 0 0 0 .5.1c1 0 1.2-.4 1.1-.7 1.1.3 1.9 0 2.1-.5l-.3-.2c1.3 0 2-1 2-1s-.3-.1-.8-.2c1.3 0 2-.9 2-.9l-1.3-.4h.3c1.7.1 2.3-.7 2.3-.7s-1.7-.3-2.5-.7h.8c1.8.3 3.7-.7 3.3-.7zm30.1-45.5s-1.9-.8-5.4-3c-3-1.9-6.6-5.9-8.5-8.5-.8-1.5-2-3.4-3.1-4.8-.4-.6-.8-1.2-1.3-1.7-1.6-1.9-4.2-4.2-4.6-4.9h0s-.2-.4.4-1.3c.3-.4.8-1 1.6-1.7 1.6-1.3 2.5-3.2 2.9-4.3l1.8-1.6v-.1c0-.1-.1-.1-.1-.1l-1.9.3c-.1-.1-.1-.2-.1-.2l-.2.2c-.3-.2-.8-.4-1.2-.6-.9-.4-2-.6-2.9-.4-1.8.4-3 1.2-3.8 2.2-.2.2-.4.5-.6.8h0c-1.5-1.1-8.9-9-10.9-11.1h0l-.5-.5h0l-1.3-1.9c-.9-1.5-1.8-3.4-2.8-6.8-1.1-3.6-2-9.1-2-9.1s-.9 2.8-.7 4.8c-.4-1.1-1.4-1.7-1.4-1.7-.1.5-.1 1.4 0 2.6-.6-.5-1.5-.8-1.5-.8 0 .8 0 1.9.3 3.1-.9-.6-2-.2-2-.2 0 .7.1 1.5.5 2.5-.6 0-1.2.3-1.2.3.1.6.4 1.7 1.2 2.9-.7 0-1.2.4-1.2.4.2 1.2.8 3.4 3.1 4.5.1 0 .1.1.2.1-1.1.1-1.8.6-1.8.6.7 1.4 1.7 2.6 3.4 3.3-1.1.4-1.5.8-1.4 1.6.1.4.5.8 1.6.9h0c-.4.6-.6 1.4 0 1.8.2.1.5.1 1 0h0c-.2.8-.1 1.8.8 2 .2 0 .4 0 .7-.1-.4.7-.4 1.5.7 1.8.2.1.4 0 .7 0-.3.7 0 1.6 1.6 1.2-.1.7.3 1.3.8 1.2.1 0 .2 0 .3-.1 0 .2 0 .4.1.6-1.3 1-2.7 2.1-4.7 3-5.1.7-13.1 3-20.5 10.9-.3.4.3.5 1.8-.7 2.2-1.7 2.8-2.1 5.2-3.4.7-.4 1.4-.8 2-1 .5.7 3.4.5 3.4.5-.1.6.4.7.4.7-.9 1.1-.2 2.6-.1 2.8-.2.2-.5.5-.8.7-2.1 1.8-4 3.1-5.9 5.1-.8.8-1.1 1.8.1.8 1.8-1.5 2.5-2.4 4.9-3.9 6.2-4.1 9.7-6.8 11.4-8.3h0c.9-.2 1.8-.2 2.8-.3 0 .1.1.1.1.1.1.1.4 0 .7-.2h3.6c-.1.4.1 1.9 2.2 2.2-.3.3-.4.5-.4.8.3 1.2 1 1.8 2.7 1.3-.4.5-.7.9-.4 1.4.5 1 1.5.8 2.7.2-.2.5-.3.9-.1 1.2.6 1 1.7.5 2.7-.3-.2.6-.2 1.2-.1 1.6.3 1.3 1.4 2 2.3 1 .1.8.3 1.5.7 2 .8 1.1 1.5.1 1.9-.9.3 1.5.8 2.7 1.4 3.1.7.5 1-.1 1-.9.6 1.2 1.2 2 1.7 2.2.8.2 1.2-.2 1.4-.6.8 1.1 1.6 1.8 2.2 2 1.7.5 2.7 0 3-.6 2.4 1.9 3.7 2.2 5.1 2.6 2.5.5 4.3.7 4.3.7zm-22.9-23h-.1.1zM2235.9 299q0-.1 0 0l-.5-.2h0c-.1-.1-.2-.2-.3-.2h-.6c-.3 0-.6.1-.9.2h-.1c-.1 0-.1.1-.2.1 0 0-.1 0-.1.1-.1 0-.2.1-.3.1v-.1c.1-.3.2-.5.2-.6-.1-.3-1-.5-1.8-.5-.1 0-.5.1-1 .3-.4.1-.9.3-1.4.5-.5.1-2.9.9-3.5 1.1l-3.4.9c-.2.1-.8.2-.8.2h0c.3.2.8.2 1.2.2h.2s.2 0 .3-.1c0 0-.3.1-.4.2s-.2.1-.2.1h0c-.1.1 0 .1.2.2.3.1.7-.1 1-.2h0c-.1.1-.2.1-.1.2 0 0 .1.1.3.1.3 0 .7-.1 1-.2h0l-.1.1q0 .1.1.2h.2c.3 0 .6-.1.8-.3h0c0 .1.1.2.3.2s.4-.2.6-.4h0v.1c0 .1.2.1.3 0 .2 0 .3-.1.4-.2h0l.1-.1h0c.2.2.4.1.6 0h0c-.2.2-.2.4 0 .5-.1.1-.1.3 0 .4h0c-.2.1-.1.3 0 .4-.1 0-.1.1-.1.2v.1c-.6.3-.5.6-2.2 1.6l-1.6.9c-.3.1-2.4 1-3 1.2-.1 0-.6.2-.6.4-.1.1.5 0 .9-.1l1.9-.7c.1 0 .2 0 .2.1s-.2.3-.3.4l-1.1.7c-.2.1-.3.2-.5.3-.2.2-.5.5-.3.5.7-.2 2.8-1.7 3.2-2 .6-.4 1.2-.7 1.7-.9.4-.1.9-.3 1.2-.3s.7-.1 1.1-.3c-.3.2-.4.4-.4.5s.1 0 .2 0c-.4.3-.6.5-.7.6s-.2.2-.1.3h0c.1 0 .3-.1.6-.3-.1.1-.2.2-.3.2-.2.1-.4.4-.5.5-.3.3-.3.6-.3.6l.6-.4c.4-.3 1.6-.8 3.4-2 .5-.3.7-.9.9-1.5.6-.4 1.1-.8 1.4-1.1.1-.1.2-.2.2-.3 0 0 .5-.6.8-.7h0c.3-.2.9-.4 1.2-.9.1-.1.1-.2.1-.2l.3-.7h0zm-11.1 5.5h0z"/></g></svg>