<svg xmlns="http://www.w3.org/2000/svg" viewBox="0 0 3840 1080" xmlns:v="https://vecta.io/nano"><defs><clipPath id="A"><path d="M0 0h3840v1080H0z" fill="none" stroke-width="0"/></clipPath></defs><g clip-path="url(#A)"><g fill="#402b48"><path d="M1154.8 715c1.9 1 4.1 1.2 6.1 2 .6.2 1.1-.3 1.5-.6 1.1-.9 1.8-.7 2.5.5.2.4.2.8.2 1.2.2 1.1.9 1.4 1.9.8 1.9-1 3.5-2.3 4.3-4.2.3-.7.8-.9 1.3-.2.3.4.5.5 1 .5.6 0 .9.1.5.7-.1.1 0 .3-.1.4-.4.6-1.1 1.4-.4 1.8s2 .4 2.8-.2c1.2-.7 1.9-1.7 2.6-2.8.1-.2 0-.5.5-.5.3.7.5 1.5.8 2.2a1.85 1.85 0 0 0 .7.8c.6-.1 1.2-.3 1.7-.4h0c1.5-1.5 2.7-3.1 2.4-5.3-.1-.4 0-.8 0-1.1 0-.4.3-.5.7-.4.4 0 .6.2.6.5-.3 2.1-.8 4.1-1.9 5.9l6.7-1.8c-.5-.7-.5-1.6-.1-3.2.1.1.4.1.4.2.2 1 .7 1.9 1.3 2.6l12.1-3.2c5.7-1.5 11.4-3 17-4.8.6-.7 1.4-1.2 2.3-1.7.3-.7-.2-1.3-1.3-1.4s-2 .3-2.9.9c-2.3 1.7-4.8 3.1-7.7 4-.8.2-1.9.9-2.3.3s1-.8 1.5-1.3c.2-.2.4-.4.7-.6.4-.2.6-.4.4-.8-.1-.3-.5-.4-.9-.5-1.6-.3-2.9.5-4.3 1.1-.2.1-.3.2-.5.3-3.9 2.8-8.4 2.2-12.8 1.7h-.5c-2.9-.3-3.2-.7-2-3.1.3-.5.5-1.1.8-1.8.2.2.4.3.4.5.4 2.2 2.5 2.2 4.3 2.6.8.2 1.2-.2 1.3-1 0-.7-.3-1.3-.3-2.1 1 .5 1.8 1.1 2.8 1.2.4.1.7.2 1 0 1.3-.6 1.4-.9.4-1.8-.4-.3-.8-.6-1.2-1-.3-.3-.7-.5-1.3-1 1.6 0 2.8-.2 3.8.9.8.9 2.2.6 3-.4.8-.9 2.4-1 4.3-.3 1.1.4 2.7-.3 3-1.4.4-1.2-.7-1.6-1.7-1.8-1.4-.4-2.8-.4-4.2-.9.4-.9 1.4-1.2 2.1-1.7.8-.7.7-1-.2-1.3.2-.3.6-.1.7-.3 1-.9 2.3-1.3 3.7-1.3.4 0 .8-.5.9-.9.1-.6-.4-.8-.8-1.1-1-.6-2.3-.2-3.3-.8 1.1-.9 2.8-1.3 3.6-2.7.5-.8 1-1.7.4-2.4s-1.6-.1-2.4.2c-2.7 1.1-5 2.7-7.5 4-1.1.6-1.9.5-2.4-.5-.3-.5-.6-.6-1.1-.6-.6 0-1.1 0-1.6-.5 1.2-1.1 2.8-1.9 3.5-3.4.3-.6.9-1.2.3-1.8-.6-.7-1.4-.1-2 .1-.9.3-1.7.8-2.5 1.2-.3.1-.9.4-.9-.1-.1-1.1-.1-2.2 0-3.3 0-.4.5-.5.9-.1.6.6 1.4.7 2.1.8 1 .2 1.6-.4 1.9-1.1s0-1.4-.9-1.8c-1.6-.7-1.7-1.2-.6-2.6l3-3.5c.1-.1.2-.1.2-.2.6-.8.9-1.7.2-2.5-.8-.8-1.8-.1-2.5.2-.6.2-1.1.8-1.6 1.2s-1.1.7-1.7.5c-.8-.2-.6-.8-.6-1.3 0-.8-.5-1.4-1.3-1.5-.9-.1-1.3.6-1.5 1.2-.4 1.2-.9 2.4-.7 3.7.2 1.7-1.7 2.6-2 4.1 0 .2-.3.4-.6.3s-.3-.4-.3-.6c.1-2.1-.2-4.3.4-6.3.3-1 1.1-1.8 1.8-2.7 1.4-1.6 2.9-3 3.7-4.9l.3-.9c0-.4-.1-.8-.5-1s-.7.1-1 .3c-1.3 1.1-2.5 2.3-3.8 3.5-.4.4-.8.7-1.2 1.1-.2 0-.3-.1-.5-.1v-12.1c-2.1 1.2-3.4 2.7-3.3 4.8.1 1.4 0 2.8 0 4.1 0 .5-.2.9-.7 1-.6.1-.9-.3-1-.7-.4-1-1-1.7-1.8-2.4a2.52 2.52 0 0 0-1.7-.6c-1.5 0-2 .5-1.2 1.7.6 1.1 1.5 2 2.3 3.1 1.6 1.9 3.5 3.7 4.3 6.1.4 1.4.6 2.7.6 4.1 0 .2-.2.6-.4.4-.7-.8-2.2-.6-2.5-1.8-.4-1.7-1.3-3.1-2.4-4.5-.4-.5-.9-1.3-1.7-1-.9.3-.3 1.1-.3 1.8 0 .1.1.2.2.5l-5-2.2c-.5-.2-.9-.4-1.4-.5-.6-.1-1.4-.4-1.8.1-.4.6.4 1 .8 1.4 1.2.9 2.6 1.6 3.8 2.9-1.5 0-2.5.7-3.3 1.5-.3.3-.8.5-1.2.6s-.9-.1-.8.6c.1.5.5.5.9.6 1.7.7 3.5.7 5.2.2 1.1-.3 2.2-.2 3.3-.2.3 0 .7-.1.8.3.1.3-.3.5-.5.6-.4.2-.9.5-1.4.5-2.6 0-3.6 1.9-5.1 3.3-.3.2-.4.7 0 .9.8.4 1.8 1.3 2.7.6 1.3-.9 1.9-.2 2.6.5l.3.3c.6.5 1.5.8 2.1.5.8-.3.5-1.3.3-1.8-.4-1 .1-1 .8-.8 2.8.6 4.3 3.3 3 5.7-.7 1.3-.8 2.6-.7 4 .1 1.3 0 2.6-.1 3.8-.1.7-.3.8-1 .5-3.1-1.5-5.9-3.5-7.6-6.3-1.1-1.9-1.7-4-3-5.8-.9-1.2-1.5-1.2-2.5-.1-1.2 1.3-1.5 1.3-2.8.1l-2.7-2.4c-.5-.4-1.1-.7-1.7-.2-.5.4-.3.8-.2 1.4.4 1.4 1.6 2.3 2.4 3.5.1.2.6.3.4.7-.2.3-.5.3-.8.3h-3.2c-.5 0-1 .1-1.2.6s0 1.1.5 1.2c2 .5 2.2 2.6 3.9 3.4.7.3.4 1.2-.6 1.4l-3.2.6c-.8.2-1.1.6-1.1 1.4s.7.7 1.3.9c1.5.5 3.1 1.1 3.8 2.5.5.9.8 1.1 1.8.4 1.9-1.4 2.9-1.1 3.5.8.3.9-.2 1.3-1 1.4l-4.5.6c-.6.1-1.5.1-1.7.7-.2.7.6 1.1 1.2 1.3.9.4 1.8.8 2.7 1 1 .2 1 .6.4 1.1-.8.8-.2 1.1.6 1.2.7.2 1.5.3 2.1.8.3.2.4.5.2.8-.1.1-.5.2-.7.1-.9-.3-1.9-.4-2.6-.9-1.5-1.2-3.2-.7-4.8-.7-.9 0-1.1 1.1-.3 1.8.6.5.4.7-.1 1.1-1.7 1.2-3.8 1.3-5.7 1.6-.7.1-1.1.2-1.5.9-.5 1-1.7 1.2-2.7 1.7-.6.3-1.5.4-1.5 1.1 0 .5.8.7 1.3 1zm43.5-25.7c.3.1.7-.1.9.2s-.1.6-.3.9c-1.3 2.1-4.2 2.5-5.7 4.4-.3.4-.7.1-.7-.4.1-2 3.6-5.2 5.8-5.1zm-3-9.8c.4-.4.9-1.1 1.5-.6.4.3-.3 1-.6 1.3-1.2 1.4-1.9 2.9-2.2 4.6-.1.8-.6 1.6-1.4 2.3-.9-3.2.3-5.6 2.7-7.6zm-15.4 28c-.3-.1-.9-.2-.8-.7.1-.3.3-.3.6-.3 1.8 0 3.5.1 5.4-.4-1.4 1.8-3.2 1.8-5.2 1.4zm-3.4-12.3c.5-.3 1.5-.4 1.6.3.2.9.9.9 1.5 1.2.4.2 1.2.5 1.1.9-.1 1.2.9.9 1.5 1.1.5.2 1 0 1.6 0h0c.7 0 1.4 0 2 .1.6.2 1.1.6 1 1.3-.1.5.2 1.1-.5 1.4-.8.3-.9-.3-1.4-.6-.3-.2-.7-.4-1.1-.5-2.8-.7-4.9-2.4-7.1-4.1-.4-.3-.8-.8-.2-1.1zm-1.7 12.3c.2-.3.8-.3 1-.1.4.5.7.5 1.2.2.9-.5 1.4-.3 1.2.8.3 1.2-.7 1.2-1.5 1-.6-.2-1.1-.6-1.7-1-.2-.4-.4-.7-.2-.9zm-8.4 2.3c.2.2.9-.2.9.5 0 .5-.3.7-.8.7-.6 0-1.1-.3-1.1-.8.1-.6.6-.3 1-.4z"/><path d="M1132.6 732.4c-1-.6-2.3-.2-3.3-.8 1.1-.9 2.8-1.3 3.6-2.7.5-.8 1-1.7.4-2.4s-1.6-.1-2.4.2c-2.7 1.1-5 2.7-7.5 4-1.1.6-1.9.5-2.4-.5-.3-.5-.6-.6-1.1-.6-.6 0-1.1 0-1.6-.5 1.2-1.1 2.8-1.9 3.5-3.4.3-.6.9-1.2.3-1.8-.6-.7-1.4-.1-2 .1-.9.3-1.7.8-2.5 1.2-.3.1-.9.4-.9-.1-.1-1.1-.1-2.2 0-3.3 0-.4.5-.5.9-.1.6.6 1.4.7 2.1.8 1 .2 1.6-.4 1.9-1.1s0-1.4-.9-1.8c-1.6-.7-1.7-1.2-.6-2.6l3-3.5c.1-.1.2-.1.2-.2.6-.8.9-1.7.2-2.5-.8-.8-1.8-.1-2.5.2-.6.2-1.1.8-1.6 1.2s-1.1.7-1.7.5c-.8-.2-.6-.8-.6-1.3 0-.8-.5-1.4-1.3-1.5-.9-.1-1.3.6-1.5 1.2-.4 1.2-.9 2.4-.7 3.7.2 1.7-1.7 2.6-2 4.1 0 .2-.3.4-.6.3s-.3-.4-.3-.6c.1-2.1-.2-4.3.4-6.3.3-1 1.1-1.8 1.8-2.7 1.4-1.6 2.9-3 3.7-4.9l.3-.9c0-.4-.1-.8-.5-1s-.7.1-1 .3l-3.8 3.5-1.2 1.1c-.2 0-.3-.1-.5-.1v-12.1c-2.1 1.2-3.4 2.7-3.3 4.8.1 1.4 0 2.8 0 4.1 0 .5-.2.9-.7 1-.6.1-.9-.3-1-.7-.4-1-1-1.7-1.8-2.4a2.52 2.52 0 0 0-1.7-.6c-1.5 0-2 .5-1.2 1.7.6 1.1 1.5 2 2.3 3.1 1.6 1.9 3.5 3.7 4.3 6.1.4 1.4.6 2.7.6 4.1 0 .2-.2.6-.4.4-.7-.8-2.2-.6-2.5-1.8-.4-1.7-1.3-3.1-2.4-4.5-.4-.5-.9-1.3-1.7-1-.9.3-.3 1.1-.3 1.8 0 .1.1.2.2.5l-5-2.2c-.5-.2-.9-.4-1.4-.5-.6-.1-1.4-.4-1.8.1-.4.6.4 1 .8 1.4 1.2.9 2.6 1.6 3.8 2.9-1.5 0-2.5.7-3.3 1.5-.3.3-.8.5-1.2.6s-.9-.1-.8.6c.1.5.5.5.9.6 1.7.7 3.5.7 5.2.2 1.1-.3 2.2-.2 3.3-.2.3 0 .7-.1.8.3.1.3-.3.5-.5.6-.4.2-.9.5-1.4.5-2.6 0-3.6 1.9-5.1 3.3-.3.2-.4.7 0 .9.8.4 1.8 1.3 2.7.6 1.3-.9 1.9-.2 2.6.5l.3.3c.6.5 1.5.8 2.1.5.8-.3.5-1.3.3-1.8-.4-1 .1-1 .8-.8 2.8.6 4.3 3.3 3 5.7-.7 1.3-.8 2.6-.7 4 .1 1.3 0 2.6-.1 3.8-.1.7-.3.8-1 .5-3.1-1.5-5.9-3.5-7.6-6.3-1.1-1.9-1.7-4-3-5.8-.9-1.2-1.5-1.2-2.5-.1-1.2 1.3-1.5 1.3-2.8.1l-2.7-2.4c-.5-.4-1.1-.7-1.7-.2-.5.4-.3.8-.2 1.4 0 .2.1.3.2.5-.6.1-1.1.3-1.5.7-2 1.7-4.5 1.5-6.7 1.2-3.2-.5-6.4-1.1-9.4-2.5-.1-.1-.2-.2-.3-.2.1 0 .3 0 .4-.1.7 0 .9-.5 1.2-.8.5-.4.9-.8 1.7-.9.9-.1 1.8-.5 1.9-1.5 0-.4.3-.7.7-.9 1.2-.6 1.9-1.6 2.4-2.7.3-.6.5-1.1 1.4-1.1 1 0 .6-.9 1-1.4.8.3 1.2 1 1.7 1.5.3.2.5.5.9.5.6-.1.3-.5.3-.8-.1-1 .6-1.2 1.5-1.2 1.2 0 2.5.1 2.7-1.4 0-.3.4-.3.6-.3h1.6c2.4-.1 2.9-.9 1.6-2.7 2.6-.5 5-1.4 6.9-3.4-2.3-.4-4.2.1-6.1.4h-.5c-2.3.2-2.4.1-1.6-1.7l.3-1c-1.2-.3-2.3-.2-3.2.5l-3.1 2.2c-.7.5-1.1.6-1.3-.5-.4-1.6-.6-3 1.3-3.9.4-.2.9-.5.7-1-.2-.4-.8-.1-1.1-.2-1.4-.5-2.9-.7-4.5-.6-1 0-1.8.2-2.3.9-.6.8-1.1.4-1.5-.1-.7-.8-.6-1.7.1-2.5.7-.9 1.7-1.2 2.8-.8.6.2 1.3.8 1.9.4s.1-1.2-.1-1.9h1.6c1 0 2.2.2 1.5-1.3-.2-.4.1-.7.7-.7h.3c.9-.1 2.2.5 2.6-.4.4-.7-1-1.2-1.3-2 .2-.2.5-.1.7-.1.6.1 1.2.7 1.6-.2.4-.8.2-1.6-.5-2.2-.8-.6-1.7-.8-2.7-.3-1.4.7-2.9.1-4.3.1-.6 0-.4-.4-.4-.7 0-1.4-.5-1.6-1.9-1-1 .5-2 .9-3.1 1.2-.6.2-1.1.2-1.7.2-1 0-1.3-.3-.6-1.1.4-.4.9-1.1.5-1.5-.4-.5-1.1-.1-1.7 0-2.3.6-4.3 1.9-6.4 2.7-.9.3-1.6.3-2.4-.1-3.9-1.9-7.9-3.7-11.2-6.5-1.9-1.6-2.6-2-1.8-4.9.1.1.4.1.4.2.7 3 2.8 4.6 6.3 5 1.2.1 2.7-.2 3.5 1.1.2.3.5.2.8-.1.9-.9 1.4-.4 2 .4.7.9 1.2 2.1 2.9 2v-2c1.1.2 1.6 1.2 2.7 1.1.7 0 1.6.2 2-.5.4-.8-.4-1.3-1-1.7-1-.7-2.1-1.3-3.1-2-.5-.3-1.1-.7-.8-1.6 1.9 2 4.6 2.5 7.1 3.3.4.1.6.5 1 .7.4.3.7.7 1.2.4.4-.2.9-.5.8-1.1-.1-.8.2-1.3 1-1.7 1-.5.5-1.2-.1-1.6-1-.6-2.1-1.2-3.4-1.9 1.5-.5 2.5.1 3.3.8.9.8 1.8 1.6 3 2.1.3.1.6.4 1 .4 1 0 2.1.2 2.5-.8.4-.9-.5-1.6-1.2-2.1-.6-.5-1.4-.8-2.3-1.3 1.2-.3 2.1.1 3.1.2 2.7.2 5.2-.4 7.4-1.7.4-.3 1.2-.5 1-1.1s-.9-.8-1.7-.9l-5.6-.6c-.9-.1-1.7-.2-.8-1.4.7-.9.2-1.6-1.1-1.7-1.1-.1-2 .3-2.9.9-2.3 1.7-4.8 3.1-7.7 4-.8.2-1.9.9-2.3.3s1-.8 1.5-1.3c.2-.2.4-.4.7-.6.4-.2.6-.4.4-.8-.1-.3-.5-.4-.9-.5-1.6-.3-2.9.5-4.3 1.1-.2.1-.3.2-.5.3-3.9 2.8-8.4 2.2-12.8 1.7h-.5c-2.9-.3-3.2-.7-2-3.1.3-.5.5-1.1.8-1.8.2.2.4.3.4.5.4 2.2 2.5 2.2 4.3 2.6.8.2 1.2-.2 1.3-1 0-.7-.3-1.3-.3-2.1 1 .5 1.8 1.1 2.8 1.2.4.1.7.2 1 0 1.3-.6 1.4-.9.4-1.8-.4-.3-.8-.6-1.2-1-.3-.3-.7-.5-1.3-1 1.6 0 2.8-.2 3.8.9.8.9 2.2.6 3-.4.8-.9 2.4-1 4.3-.3 1.1.4 2.7-.3 3-1.4.4-1.2-.7-1.6-1.7-1.8-1.4-.4-2.8-.4-4.2-.9.4-.9 1.4-1.2 2.1-1.7.8-.7.7-1-.2-1.3.2-.3.6-.1.7-.3 1-.9 2.3-1.3 3.7-1.3.4 0 .8-.5.9-.9.1-.6-.4-.8-.8-1.1-1-.6-2.3-.2-3.3-.8 1.1-.9 2.8-1.3 3.6-2.7.5-.8 1-1.7.4-2.4s-1.6-.1-2.4.2c-2.7 1.1-5 2.7-7.5 4-1.1.6-1.9.5-2.4-.5-.3-.5-.6-.6-1.1-.6-.6 0-1.1 0-1.6-.5 1.2-1.1 2.8-1.9 3.5-3.4.3-.6.9-1.2.3-1.8-.6-.7-1.4-.1-2 .1-.9.3-1.7.8-2.5 1.2-.3.1-.9.4-.9-.1-.1-1.1-.1-2.2 0-3.3 0-.4.5-.5.9-.1.6.6 1.4.7 2.1.8 1 .2 1.6-.4 1.9-1.1s0-1.4-.9-1.8c-1.6-.7-1.7-1.2-.6-2.6l3-3.5c.1-.1.2-.1.2-.2.6-.8.9-1.7.2-2.5-.8-.8-1.8-.1-2.5.2-.6.2-1.1.8-1.6 1.2s-1.1.7-1.7.5c-.8-.2-.6-.8-.6-1.3 0-.8-.5-1.4-1.3-1.5-.9-.1-1.3.6-1.5 1.2-.4 1.2-.9 2.4-.7 3.7.2 1.7-1.7 2.6-2 4.1 0 .2-.3.4-.6.3s-.3-.4-.3-.6c.1-2.1-.2-4.3.4-6.3.3-1 1.1-1.8 1.8-2.7 1.4-1.6 2.9-3 3.7-4.9l.3-.9c0-.4-.1-.8-.5-1s-.7.1-1 .3c-1.3 1.1-2.5 2.3-3.8 3.5-.4.4-.8.7-1.2 1.1-.2 0-.3-.1-.5-.1v-12.1c-2.1 1.2-3.4 2.7-3.3 4.8.1 1.4 0 2.8 0 4.1 0 .5-.2.9-.7 1-.6.1-.9-.3-1-.7-.4-1-1-1.7-1.8-2.4a2.52 2.52 0 0 0-1.7-.6c-1.5 0-2 .5-1.2 1.7.6 1.1 1.5 2.1 2.3 3.1 1.6 1.9 3.5 3.7 4.3 6.1.4 1.4.6 2.7.6 4.1 0 .2-.2.6-.4.4-.7-.8-2.2-.6-2.5-1.8-.4-1.7-1.3-3.1-2.4-4.5-.4-.5-.9-1.3-1.7-1-.9.3-.3 1.1-.3 1.8 0 .1.1.2.2.5l-5-2.2c-.5-.2-.9-.4-1.4-.5-.6-.1-1.4-.4-1.8.1-.4.6.4 1 .8 1.4 1.2.9 2.6 1.6 3.8 2.9-1.5 0-2.5.7-3.3 1.5-.3.3-.8.5-1.2.6s-.9-.1-.8.6c.1.5.5.5.9.6 1.7.7 3.5.7 5.2.2 1.1-.3 2.2-.2 3.3-.2.3 0 .7-.1.8.3.1.3-.3.5-.5.6-.4.2-.9.5-1.4.5-2.6 0-3.6 1.9-5.1 3.3-.3.2-.4.7 0 .9.8.4 1.8 1.3 2.7.6 1.3-.9 1.9-.2 2.6.5l.3.3c.6.5 1.5.8 2.1.5.8-.3.5-1.3.3-1.8-.4-1 .1-1 .8-.8 2.8.6 4.3 3.3 3 5.7-.7 1.3-.8 2.6-.7 4 .1 1.3 0 2.6-.1 3.8-.1.7-.3.8-1 .5-3.1-1.5-5.9-3.5-7.6-6.3-1.1-1.9-1.7-4-3-5.8-.9-1.2-1.5-1.2-2.5-.1-1.2 1.3-1.5 1.3-2.8.1l-2.7-2.4c-.5-.4-1.1-.7-1.7-.2-.5.4-.3.8-.2 1.4.4 1.4 1.6 2.3 2.4 3.5.1.2.6.3.4.7-.2.3-.5.3-.8.3h-3.2c-.5 0-1 .1-1.2.6s0 1.1.5 1.2c2 .5 2.2 2.6 3.9 3.4.7.3.4 1.2-.6 1.4l-3.2.6c-.8.2-1.1.6-1.1 1.4s.7.7 1.3.9c1.5.5 3.1 1.1 3.8 2.5.5.9.8 1.1 1.8.4 1.9-1.4 2.9-1.1 3.5.8.3.9-.2 1.3-1 1.4l-4.5.6c-.6.1-1.5.1-1.7.7-.2.7.6 1.1 1.2 1.3.9.4 1.8.8 2.7 1 1 .2 1 .6.4 1.1-.8.8-.2 1.1.6 1.2.7.2 1.5.3 2.1.8.3.2.4.5.2.8-.1.1-.5.2-.7.1-.9-.3-1.9-.4-2.6-.9-1.5-1.2-3.2-.7-4.8-.7-.9 0-1.1 1.1-.3 1.8.6.5.4.7-.1 1.1-1.7 1.2-3.8 1.3-5.7 1.6-.7.1-1.1.2-1.5.9-.5 1-1.7 1.2-2.7 1.7-.6.3-1.5.4-1.5 1.1 0 .6.8.8 1.3 1.1 1.9 1 4.1 1.2 6.1 2 .6.2 1.1-.3 1.5-.6 1.1-.9 1.8-.7 2.5.5.2.4.2.8.2 1.2.2 1.1.9 1.4 1.9.8 1.9-1 3.5-2.3 4.3-4.2.3-.7.8-.9 1.3-.2.3.4.5.5 1 .5.6 0 .9.1.5.7-.1.1 0 .3-.1.4-.4.6-1.1 1.4-.4 1.8s2 .4 2.8-.2c1.2-.7 1.9-1.7 2.6-2.8.1-.2 0-.5.5-.5.3.7.5 1.5.8 2.2.6 1.2 1.5 1.3 2.4.4 1.5-1.5 2.7-3.1 2.4-5.3-.1-.4 0-.8 0-1.1 0-.4.3-.5.7-.4.4 0 .6.2.6.5-.3 2.5-.9 4.9-2.7 6.9-1.2 1.5-3.1 1.5-4.9 1.4-.6 0-1.3-.1-1.9 0-.6 0-1.4-.1-1.6.6s0 1.3.7 1.8c1.2 1 1 1-.4 1.6-4.3 1.9-7.4-.4-10.6-2.4-.5-.3-.9-1.1-1.7-.7-.8.3-.3 1.1-.3 1.6 0 .2-.1.4-.1.7-.6-.2-1.1-.5-1.6-.6-.9-.2-2.4-1.2-2.1 1 .1.3-.3.6-.6.6-1 .1-1.1.5-.8 1.3.3.6-.1.7-.9.6-1.6-.2-2.9-1-4.3-1.6-.9-.4-1.9-.7-3-.6-.6 0-1.5-.2-1.2 1 .1.5-.7.7-1.3.7-1.5 0-2.9-.1-4.3.4-.6.2-1.5.2-1.4.9s.8 1.3 1.7 1.5c1.7.4 3.3.2 5.1.2-.1.8-1 .6-1.4 1-.2.2-.7.3-.6.6s.4.4.7.4c1.2 0 2 .6 3.1.9.9.3 1 .7.2 1.3-.3.2-1 .4-.8.9s1 .4 1.4.3c1.7-.5 3.7-.4 4.7-2.1.4-.7 1.2-.4 2-.4-.7 1.4-2.2 1.9-3.1 3-.4.4-1.2.7-.8 1.4.3.5 1.1.2 1.6.2 1.7 0 2.8-.9 3.9-1.8.4-.4.7-.9 1.3-1 1-.2 1.8 0 1.9 1.1v1.6c0 .5-.8 1.2.2 1.4.8.2 1.6.5 2.5-.1 1.1-.7 2-1.5 2.9-2.4.2-.2.4-.4.7-.2.1.1.2.3.1.5-.1.5-.8 1.2.2 1.3 1 .2 2.1.2 2.7-.8s1.4-1.5 2.6-1.5c.4 0 1.1-.3 1.2.3.1.4 0 .9-.4 1.3-1.5 1.6-3.5 2.6-5.5 3.5-2.4 1.1-5 1.8-7.6 2.4-2 .5-4 0-5.8-1.2-1.4-1-2.6-2.2-4.2-3-.5-.2-.9-.4-1.5-.3-.1.5.4.7.7 1 .3.4 1 .8.8 1.3-.2.6-1 .4-1.5.4-.1.4.1.6.3.8.3.2.3.4.1.6s-.4.1-.6.1c-1.6-.4-2.9-1.4-4.3-2.1-.7-.3-1.3-.7-2.1-.5 0 .1-.1.2 0 .2.4.5 1.2 1 .9 1.6-.4.8-1.2 0-1.8 0-1.8.1-3.7-.1-5.6.5 1.3 1.3 2.9 2 4.7 2.4q2 .4 1.4 2.1c-.2.5 0 1 .6 1.1 1.3.1 2.7.4 3.6-.9.3-.4.8-.9 1.6-.8.3 0 .6 0 .7.1.2.2.1.5-.2.8-.5.5-1 1.1-1.4 1.6.1.5.5.3.8.3.9.1 1.1.5.5 1.1-.3.4-.9.8-.5 1.2.3.5 1.1.2 1.6.2.6-.1 1.2-.4 1.8-.5.8-.2 1.3.1 1 .9-.2.6-.6 1.7-.1 1.8 1.6.4 2.1 2.6 4.5 1.7 1.6-.6 3-1 3-3a10.01 10.01 0 0 0 .4.9c.5 1.5 1.5 1.8 3 1 .8-.4 1.4-1 2.2-1.4.2-.2.4-.5.8-.4s.2.5.2.7c.2 2.1.2 2.2 2.3 1.2.7-.3 1.4-.6 2.2-.6.8.1 1.2-.4 1.5-1 .2-.3.7-.7.8-.3.4 2 1.7.7 2.6.7.1 0 .2 0 .5.1a27.34 27.34 0 0 1-6.6 3.9c-3.4 1.5-7 2.7-10.9 3.3-2.4.4-4.4-.5-6.4-1.2-.3-.1-.6-.4-1-.5-.8-.2-1.5-1.4-2.2-.7-1 1-.4 2.8.8 3.5.2.1.3.2.6.3a1.14 1.14 0 0 1-1.3.6c-2.7-.5-5.6-.4-7.9-1.9-.4-.2-.8-.3-1.2-.3-1.5 0-1.7.2-1 1.3.1.2.5.4.2.7-.2.2-.5.3-.8.2-1.3-.4-2.4-.3-3.4.7-.7.7-1.8.5-2.8.7-.6.1-1.1.3-1.8.5 1.9 1.8 4 3.1 6.3 4.2.4.2.7.4 1.1.6.4.3.5.6-.1.8-.4.1-.9-.1-.9.6 0 .5.5.7.9.9h.2c.7.2 1.6.3 2 .7.6.7-.6 1-.9 1.5-.4.8-.2 1.2.6 1.4 1.7.4 3.5.5 5.3.2 1.4-.3 2.8 0 4.4-.1-.3.6-.9 1.1-.7 1.6h-.4c-.9.3-.3 1.1-.3 1.8 0 .1.1.2.2.5l-5-2.2c-.5-.2-.9-.4-1.4-.5-.6-.1-1.4-.4-1.8.1-.4.6.4 1 .8 1.4 1.2.9 2.6 1.6 3.8 2.9h-.1a14.29 14.29 0 0 1-2-1.4c-.4-.3-1-1-1.6-.5-.5.4 0 1.1.4 1.5.2.2.3.4.5.7-1.6.6-2.7-.7-4.2-.7.3 1.1 1.2 1.7 2.1 2.4-.3 0-.5.1-.4.5.1.5.5.5.8.6-2.7-.7-5.4-.5-8-1.8.7 2-.2 2.1-1.7 1.7-.4-.1-1-.2-1.3.2-.4.5.4.7.3 1.2-1.5.1-3.4-.4-3.9 1.5-.3 1 1.9 2.2 3.8 2.3-.1.6-1.3.4-1.1 1 .2.5 1.1.7 1.7.9.4.1.9 0 1.4 0 .6 0 1.1.2 1.5.4.3.4.7.8 1 1.2.1.2.1.5.1.7v.6h-3.5c-.5 0-1 .1-1.2.6s0 1.1.5 1.2c2 .5 2.2 2.6 3.9 3.4.7.3.4 1.2-.6 1.4l-3.2.6c-.8.2-1.1.6-1.1 1.4v.2c-.6-.2-1.2-.5-1.8-.7q-.2 1.3 2.8 2.9c-.1.3-.4.4-.7.4-.4 0-1-.2-1.1.5 0 .7.6.8 1.2.9s1.2 0 1.7 0h1.9c-.5 1-1.5 1.4-2.1 2-.5.5-1.1 1-.7 1.6.4.5 1.2.6 1.9.3.1 0 .2-.1.3-.1.2.3.7.5 1.1.7.7.4 1.4.7 2.2.9-2.2 2-4.9 2-8 1.4-3.5-.8-6.9-1.7-10.3-2.6-.5-.1-1.1-.3-1.5.1-.4.5.2.9.5 1.2.5.6 1.1 1.1 1.6 1.7.7.4 1.4.8.4 1.5-.9.7-1.5 1.4-.3 2.3.2.1.2.5.2.8 0 .8.3 1.2 1.2 1.1.6 0 1.2.3 1 .8-.6 1.3.3 1.1 1.1 1.2-.2.1-.4.1-.5.2-.6.3-1.5.4-1.5 1.1 0 .6.8.8 1.3 1.1 1.9 1 4.1 1.2 6.1 2 .6.2 1.1-.3 1.5-.6 1.1-.9 1.8-.7 2.5.5.1.2.2.5.2.7-1.9.5-3.8.9-5.7 1.3-.6.1-1.4.7-2 0-.6.1-1.2.1-1.6-.4-.5-.1-1 0-1.5-.3-.4-.1-.9 0-1.1-.5-.5.2-1 0-1.5-.1q-2-.4-2 1.4c-.3 1.4-.6 1.5-2.2.5-.8-.2-1.6-.1-2.3-.3-1.9-.7-3.9-1.1-6-.9-.2 1.2.4 2.3 1.5 2.8 2.1 1 3.7 2.8 5.8 3.9-1.3 0-2.5 0-3.7.4-.6.2-1.5.2-1.4.9s.8 1.3 1.7 1.5c1.7.4 3.3.2 5.1.2-.1.8-1 .6-1.4 1-.2.2-.7.3-.6.6s.4.4.7.4c1 0 1.8.5 2.7.8v.1c.2.2.4.2.7.2.6.3.6.7-.1 1.2-.3.2-1 .4-.8.9s1 .4 1.4.3c1.7-.5 3.7-.4 4.7-2.1.4-.7 1.2-.4 2-.4-.7 1.4-2.2 1.9-3.1 3 0 0-.1.1-.2.1-.8.1-1.7.1-2.6 0-.2.7-.9.4-1.3.4-1.4.1-2.8-.1-4.2.3-.4.1-.9 0-1 .5-.1.6.5.6.9.7.2.1.4.1.5.2-.4.6-.8.6-1.1.6-5.1-.1-10.3.5-15.3-.8-.4-.1-1.1-.3-1.2.2-.1.4.4.7.9.9 1.1.4 2.2.7 3.2 1.1 1.3.5 2.8.6 3.9 1.6-.6.5-2.1.3-1.8 1.4.5 1.7-.8 1.8-1.9 2.3-.4.1-1.1 0-1.1.6 0 .4.6.4 1 .6.5.3 1.1.5 1.6.2.3-.1.6-.2.9 0 1.5 1.3 3.5 1.4 5.3 1.8.6.1 1.3.3 1.9.4 6-2.8 78.2 12.6 117.4-7.5 41.4-21.3 49.7-78 50.8-77.5 0-.1.1-.2.1-.3.3-.9-.2-1.1-.7-1.4zm-79.2-78.7c.3.1.7-.1.9.2s-.1.6-.3.9c-1.3 2.1-4.2 2.5-5.7 4.4-.3.4-.7.1-.7-.4.1-1.9 3.7-5.1 5.8-5.1zm-3-9.7c.4-.4.9-1.1 1.5-.6.4.3-.3 1-.6 1.3-1.2 1.4-1.9 2.9-2.2 4.6-.1.8-.6 1.6-1.4 2.3-.9-3.2.4-5.6 2.7-7.6zm-28.7 31.4c-.6 0-1.1-.3-1.1-.8s.6-.2 1-.3c.2.2.9-.2.9.5-.1.4-.4.7-.8.6zm-43.4 108.9c.4-.5.8-.6 1.3-.7-.4.3-.9.5-1.3.7zm3.9 20.4c.2-.2.4-.3.7-.4.2 0 .4-.1.6-.1-.4.3-.9.4-1.3.5zm11.4-17.6c.1-.1.2-.3.2-.5.1-.1.1-.2.2-.3h0c.1.4-.1.6-.4.8zm13.2-22.1c-1.1-.6-2.2-1.4-3.1-2.2.9-.5 1.8-1 2.6-1.6.3.4.2.8 0 1.1-.3.6 0 1.1.5 1.3 1.8.7.7 1 0 1.4zm1.8-19.6h0c-.5-1.7-1.3-3.2-2.4-4.5-.2-.2-.3-.4-.5-.6.5 0 1-.2 1.4-.4.6-.3 1.1-.5 1.6-.8.9 1.1 1.7 2.2 2.1 3.5.3.9.4 1.7.5 2.6-.8.1-1.7.2-2.7.2zm12.7-6.8c-.6.5-.8 1-1 1.6-.1 0-.2-.1-.3-.1-.9-.1-1.3.6-1.5 1.2-.2.5-.3 1-.5 1.5-1 .5-2 .9-3 1.3.1-.6.1-1.1.3-1.7.3-1 1-1.8 1.7-2.5h.3c1.2 0 2.2-.2 2.8-1.3.1-.3.5-.5.8-.6.1-.1.4 0 .6.1.1.1 0 .3-.2.5zm19-50.9c0 1.3 0 2.5-.1 3.8 0 .3-.1.8-.7.8-.3 0-.5-.1-.5-.4.2-2.1-.4-4.2.4-6.3 1 .6.9 1.4.9 2.1zm-8.5-14c-.6-.2-1.1-.6-1.7-1-.2-.2-.5-.5-.3-.7.2-.3.8-.3 1-.1.4.5.7.5 1.2.2.9-.5 1.4-.3 1.2.8.4 1.1-.6 1-1.4.8zm3.3-1.8c-.3-.1-.9-.2-.8-.7.1-.3.3-.3.6-.3 1.8 0 3.5.1 5.4-.4-1.5 1.8-3.3 1.9-5.2 1.4zm6.3-5.9c-.8.3-.9-.3-1.4-.6-.3-.2-.7-.4-1.1-.5-2.8-.7-4.9-2.4-7.1-4.1-.4-.3-.8-.8-.2-1.2.5-.3 1.5-.4 1.6.3.2.9.9.9 1.5 1.2.4.2 1.2.5 1.1.9-.1 1.2.9.9 1.5 1.1.5.2 1 0 1.6 0h0c.7 0 1.4 0 2 .1.6.2 1.1.6 1 1.3 0 .6.2 1.2-.5 1.5zm40.1 67.5c.1-.1.2 0 .3.1.3.1.6.2.8.3-.1 0-.2 0-.3.1-.3.1-.5.2-.6.3a.76.76 0 0 1-.2-.4c0-.2-.1-.4 0-.4zm-3.7 2.5c.5 0 1 0 1.6.2.7.2 1.4.1 2-.4.2.3.7.3 1.1.5 1.2.4 2.5.9 3.3 1.8-2.7.8-6.2.5-8.4-.9-.3-.2-.6-.4-.5-.8.1-.6.6-.4.9-.4zm-24.6-36.5c-.6.1-.9-.3-1.1-.8.5-.2 1-.3 1.3.3.2.2.1.5-.2.5zm2.1.5c0-.2-.1-.4.2-.5.8-.2 1.3 0 1.8.6l.1.1c.7 0 2.1 1.6 2-.6 0-.5.5-.4.8-.4.6 0 .9.4 1.3.7 2 1.7 3.7 1.4 5.4-.2.4-.4.9-.8 1.5-1 1.1-.4 1.7 0 1.5 1.1-.3 1.7-1.7 2.8-3.5 2.8h-1.3c-2.9.1-5.7-.5-8.4-1.4-.6-.3-1.2-.5-1.4-1.2zm10.8 21.7c0 .1 0 .2-.1.2-.5.1-.7-.2-1-.4l-.3-.3-.3-.3-.3-.3c0-.1-.1-.2-.1-.3.1 0 .2 0 .3.1l.3.3.3.3c.2 0 .3.1.3.3.5 0 .8.1.9.4zm-3 23.7c2.2.1 4.1 1.1 5.8 2.3-2.2-.1-4.1-1-5.8-2.3zm20.2 4.9c-1.7 1.2-3.8 1.3-5.7 1.6h-.3c-.9-.6-1.9-1.1-3-1.1-1 0-1-.4-.5-1s.9-1.3 1.4-1.9c.3-.5.4-1.1.1-1.5-.2-.4-.9-.6-1.4-.4-.6.3-.9-.2-1.3-.2-.5 0-1.4.4-1.5-.3-.2-.7.8-1 1.4-1.2 1.5-.5 2.9 0 4.1.9 1.2 1 2.1 2.1 3.5 2.9.7.4 1.4.8 2-.2.2-.4.6-.3 1.1-.2-.2.4-.1 1 .5 1.5.3.6.1.8-.4 1.1zm1.6 2.5c-.6 0-1.1-.3-1.1-.8s.6-.2 1-.3c.2.2.9-.2.9.5 0 .3-.3.6-.8.6zm6.9-3.9c-.1.1-.5.2-.7.1-.9-.3-1.9-.4-2.6-.9-1.2-1-2.6-.8-4-.7 0-.2-.1-.3-.2-.6-.5-1 .4-1 1-.8 1.6.6 1.9-.2 1.8-1.3v-.1c.4.2.9.3 1.4.4 1 .2 1 .6.4 1.1-.8.8-.2 1.1.6 1.2.7.2 1.5.3 2.1.8.2.3.3.6.2.8zm3.3 2.1c-.6-.2-1.1-.6-1.7-1-.2-.2-.5-.5-.3-.7.2-.3.8-.3 1-.1.4.5.7.5 1.2.2.9-.5 1.4-.3 1.2.8.4 1.1-.6 1-1.4.8zm1.5 7.2h-.1c.4-.5.7-.9 1-1.4.1-.2 0-.5.5-.5.3.7.5 1.5.8 2.2 0 .1.1.1.1.2-.8-.2-1.6-.3-2.3-.5zm1.7-8.9c-.3-.1-.9-.2-.8-.7.1-.3.3-.3.6-.3 1.8 0 3.5.1 5.4-.4-1.4 1.8-3.2 1.8-5.2 1.4zm4.4 9.5h-1.5c1.4-1.5 2.7-3.1 2.4-5.3-.1-.4 0-.8 0-1.1 0-.4.3-.5.7-.4.4 0 .6.2.6.5-.3 2.2-.9 4.4-2.2 6.3zm2-15.5c-.8.3-.9-.3-1.4-.6-.3-.2-.7-.4-1.1-.5-2.2-.6-4-1.7-5.7-3 .3-.2.6-.4.4-.7-.2-.5-.7-.2-1.1-.2h-.6l-.1-.1c-.4-.3-.8-.8-.2-1.2.5-.3 1.5-.4 1.6.3.2.9.9.9 1.5 1.2.4.2 1.2.5 1.1.9-.1 1.2.9.9 1.5 1.1.5.2 1 0 1.6 0h0c.7 0 1.4 0 2 .1.6.2 1.1.6 1 1.3-.1.5.2 1.1-.5 1.4zm9-22c.4-.4.9-1.1 1.5-.6.4.3-.3 1-.6 1.3-1.2 1.4-1.9 2.9-2.2 4.6-.1.8-.6 1.6-1.4 2.3-.9-3.2.3-5.6 2.7-7.6zm3.5 10.9c-1.3 2.1-4.2 2.5-5.7 4.4-.3.4-.7.1-.7-.4.1-2 3.6-5.2 5.8-5.2.3.1.7-.1.9.2.2.4-.1.7-.3 1z"/></g><g fill="#34233b"><path d="M1143.5 727c1.9 1 4.1 1.2 6.1 2 .6.2 1.1-.3 1.5-.6 1.1-.9 1.8-.7 2.5.5.2.4.2.8.2 1.2.2 1.1.9 1.4 1.9.8 1.9-1 3.5-2.3 4.3-4.2.3-.7.8-.9 1.3-.2.3.4.5.5 1 .5.6 0 .9.1.5.7-.1.1 0 .3-.1.4-.4.6-1.1 1.4-.4 1.8s2 .4 2.8-.2c1.2-.7 1.9-1.7 2.6-2.8.1-.2 0-.5.5-.5.3.7.5 1.5.8 2.2.6 1.2 1.5 1.3 2.4.4 1.5-1.5 2.7-3.1 2.4-5.3-.1-.4 0-.8 0-1.1 0-.4.3-.5.7-.4.4 0 .6.2.6.5-.3 2.5-.9 4.9-2.7 6.9-1.2 1.5-3.1 1.5-4.9 1.4-.6 0-1.3-.1-1.9 0-.6 0-1.4-.1-1.6.6-.1.4-.1.7.1 1.1l17.9-3.8c-.1-.1-.3-.2-.4-.3-1.9-1.6-2.6-2-1.8-4.9.1.1.4.1.4.2.5 2.3 2 3.8 4.2 4.5 3.6-.8 7.3-1.5 10.9-2.2 0-.2 0-.4.1-.7l.6.6c2.7-.5 5.5-1 8.3-1.4.2 0 .4-.1.6-.1-.6-.3-1.3-.7-2-1.1 1.5-.5 2.5.1 3.3.8l.1.1c1.6-.2 3.3-.5 4.9-.6-.6-.4-1.2-.7-2-1.1 1.2-.3 2.1.1 3.1.2 2.7.2 5.2-.4 7.4-1.7.4-.3 1.2-.5 1-1.1s-.9-.8-1.7-.9l-5.6-.6c-.9-.1-1.7-.2-.8-1.4.7-.9.2-1.6-1.1-1.7-1.1-.1-2 .3-2.9.9-2.3 1.7-4.8 3.1-7.7 4-.8.2-1.9.9-2.3.3s1-.8 1.5-1.3c.2-.2.4-.4.7-.6.4-.2.6-.4.4-.8-.1-.3-.5-.4-.9-.5-1.6-.3-2.9.5-4.3 1.1-.2.1-.3.2-.5.3-3.9 2.8-8.4 2.2-12.8 1.7h-.5c-2.9-.3-3.2-.7-2-3.1.3-.5.5-1.1.8-1.8.2.2.4.3.4.5.4 2.2 2.5 2.2 4.3 2.6.8.2 1.2-.2 1.3-1 0-.7-.3-1.3-.3-2.1 1 .5 1.8 1.1 2.8 1.2.4.1.7.2 1 0 1.3-.6 1.4-.9.4-1.8-.4-.3-.8-.6-1.2-1-.3-.3-.7-.5-1.3-1 1.6 0 2.8-.2 3.8.9.8.9 2.2.6 3-.4.8-.9 2.4-1 4.3-.3 1.1.4 2.7-.3 3-1.4.4-1.2-.7-1.6-1.7-1.8-1.4-.4-2.8-.4-4.2-.9.4-.9 1.4-1.2 2.1-1.7.8-.7.7-1-.2-1.3.2-.3.6-.1.7-.3 1-.9 2.3-1.3 3.7-1.3.4 0 .8-.5.9-.9.1-.6-.4-.8-.8-1.1-1-.6-2.3-.2-3.3-.8 1.1-.9 2.8-1.3 3.6-2.7.5-.8 1-1.7.4-2.4s-1.6-.1-2.4.2c-2.7 1.1-5 2.7-7.5 4-1.1.6-1.9.5-2.4-.5-.3-.5-.6-.6-1.1-.6-.6 0-1.1 0-1.6-.5 1.2-1.1 2.8-1.9 3.5-3.4.3-.6.9-1.2.3-1.8-.6-.7-1.4-.1-2 .1-.9.3-1.7.8-2.5 1.2-.3.1-.9.4-.9-.1-.1-1.1-.1-2.2 0-3.3 0-.4.5-.5.9-.1.6.6 1.4.7 2.1.8 1 .2 1.6-.4 1.9-1.1s0-1.4-.9-1.8c-1.6-.7-1.7-1.2-.6-2.6l3-3.5c.1-.1.2-.1.2-.2.6-.8.9-1.7.2-2.5-.8-.8-1.8-.1-2.5.2-.6.2-1.1.8-1.6 1.2s-1.1.7-1.7.5c-.8-.2-.6-.8-.6-1.3 0-.8-.5-1.4-1.3-1.5-.9-.1-1.3.6-1.5 1.2-.4 1.2-.9 2.4-.7 3.7.2 1.7-1.7 2.6-2 4.1 0 .2-.3.4-.6.3s-.3-.4-.3-.6c.1-2.1-.2-4.3.4-6.3.3-1 1.1-1.8 1.8-2.7 1.4-1.6 2.9-3 3.7-4.9l.3-.9c0-.4-.1-.8-.5-1s-.7.1-1 .3c-1.3 1.1-2.5 2.3-3.8 3.5-.4.4-.8.7-1.2 1.1-.2 0-.3-.1-.5-.1v-12.1c-2.1 1.2-3.4 2.7-3.3 4.8.1 1.4 0 2.8 0 4.1 0 .5-.2.9-.7 1-.6.1-.9-.3-1-.7-.4-1-1-1.7-1.8-2.4a2.52 2.52 0 0 0-1.7-.6c-1.5 0-2 .5-1.2 1.7.6 1.1 1.5 2 2.3 3.1 1.6 1.9 3.5 3.7 4.3 6.1.4 1.4.6 2.7.6 4.1 0 .2-.2.6-.4.4-.7-.8-2.2-.6-2.5-1.8-.4-1.7-1.3-3.1-2.4-4.5-.4-.5-.9-1.3-1.7-1-.9.3-.3 1.1-.3 1.8 0 .1.1.2.2.5l-5-2.2c-.5-.2-.9-.4-1.4-.5-.6-.1-1.4-.4-1.8.1-.4.6.4 1 .8 1.4 1.2.9 2.6 1.6 3.8 2.9-1.5 0-2.5.7-3.3 1.5-.3.3-.8.5-1.2.6s-.9-.1-.8.6c.1.5.5.5.9.6 1.7.7 3.5.7 5.2.2 1.1-.3 2.2-.2 3.3-.2.3 0 .7-.1.8.3.1.3-.3.5-.5.6-.4.2-.9.5-1.4.5-2.6 0-3.6 1.9-5.1 3.3-.3.2-.4.7 0 .9.8.4 1.8 1.3 2.7.6 1.3-.9 1.9-.2 2.6.5l.3.3c.6.5 1.5.8 2.1.5.8-.3.5-1.3.3-1.8-.4-1 .1-1 .8-.8 2.8.6 4.3 3.3 3 5.7-.7 1.3-.8 2.6-.7 4 .1 1.3 0 2.6-.1 3.8-.1.7-.3.8-1 .5-3.1-1.5-5.9-3.5-7.6-6.3-1.1-1.9-1.7-4-3-5.8-.9-1.2-1.5-1.2-2.5-.1-1.2 1.3-1.5 1.3-2.8.1l-2.7-2.4c-.5-.4-1.1-.7-1.7-.2-.5.4-.3.8-.2 1.4.4 1.4 1.6 2.3 2.4 3.5.1.2.6.3.4.7-.2.3-.5.3-.8.3h-3.2c-.5 0-1 .1-1.2.6s0 1.1.5 1.2c2 .5 2.2 2.6 3.9 3.4.7.3.4 1.2-.6 1.4l-3.2.6c-.8.2-1.1.6-1.1 1.4s.7.7 1.3.9c1.5.5 3.1 1.1 3.8 2.5.5.9.8 1.1 1.8.4 1.9-1.4 2.9-1.1 3.5.8.3.9-.2 1.3-1 1.4l-4.5.6c-.6.1-1.5.1-1.7.7-.2.7.6 1.1 1.2 1.3.9.4 1.8.8 2.7 1 1 .2 1 .6.4 1.1-.8.8-.2 1.1.6 1.2.7.2 1.5.3 2.1.8.3.2.4.5.2.8-.1.1-.5.2-.7.1-.9-.3-1.9-.4-2.6-.9-1.5-1.2-3.2-.7-4.8-.7-.9 0-1.1 1.1-.3 1.8.6.5.4.7-.1 1.1-1.7 1.2-3.8 1.3-5.7 1.6-.7.1-1.1.2-1.5.9-.5 1-1.7 1.2-2.7 1.7-.6.3-1.5.4-1.5 1.1.1.3.9.5 1.4.8zm43.5-25.7c.3.1.7-.1.9.2s-.1.6-.3.9c-1.3 2.1-4.2 2.5-5.7 4.4-.3.4-.7.1-.7-.4.1-1.9 3.6-5.1 5.8-5.1zm-3-9.8c.4-.4.9-1.1 1.5-.6.4.3-.3 1-.6 1.3-1.2 1.4-1.9 2.9-2.2 4.6-.1.8-.6 1.6-1.4 2.3-.9-3.2.3-5.6 2.7-7.6zm-15.3 28c-.3-.1-.9-.2-.8-.7.1-.3.3-.3.6-.3 1.8 0 3.5.1 5.4-.4-1.5 1.8-3.3 1.8-5.2 1.4zm-3.5-12.3c.5-.3 1.5-.4 1.6.3.2.9.9.9 1.5 1.2.4.2 1.2.5 1.1.9-.1 1.2.9.9 1.5 1.1.5.2 1 0 1.6 0h0c.7 0 1.4 0 2 .1.6.2 1.1.6 1 1.3-.1.5.2 1.1-.5 1.4-.8.3-.9-.3-1.4-.6-.3-.2-.7-.4-1.1-.5-2.8-.7-4.9-2.4-7.1-4.1-.4-.3-.8-.8-.2-1.1zm-1.7 12.3c.2-.3.8-.3 1-.1.4.6.7.5 1.2.2.9-.5 1.4-.3 1.2.8.3 1.2-.7 1.2-1.5 1-.6-.2-1.1-.6-1.7-1-.2-.4-.4-.7-.2-.9zm-8.4 2.3c.2.2.9-.2.9.5 0 .5-.3.7-.8.7-.6 0-1.1-.3-1.1-.8.1-.5.6-.3 1-.4z"/><path d="M1002.5 800c.7.4 1.4.8.4 1.5-.9.7-1.5 1.4-.3 2.3.2.1.2.5.2.8 0 .8.3 1.2 1.2 1.1.6 0 1.2.3 1 .8-.6 1.4.5 1.1 1.3 1.2.6-.9 1.5-.9 2.6-.8l-1.5 1.2v.7l1 .3c2.5.7 5.1 1.3 7.2-.8.3-.3.9-.6 1.3-.1 1 1.1 2.4.9 3.8 1 .5 0 1.3-.2 1.5.4s-.6.8-1.1 1.1l-1.1.5c3 .7 6 1.6 8.9 2.6 3.2 1.1 6.4 2.3 9.6 3.5.8.3 5 2.4 5.7 2.1-.5.2.4-1 .4-1 1.7-1.6 2.5-4.8 3.7-6.7 1.9-3.1 4.2-6.1 6.4-9 4.2-5.5 8.4-11 12.1-16.9 6.7-10.8 12.8-22 21-31.9 3.6-4.4 7.2-8.8 12.9-10.2 4.6-1.1 9.5-1.6 14.3-2.2.2-.1.4-.3.6-.4.8-.7.7-1-.2-1.3.2-.3.6-.1.7-.3 1-.9 2.3-1.3 3.7-1.3.4 0 .8-.5.9-.9.1-.6-.4-.8-.8-1.1-1-.6-2.3-.2-3.3-.8 1.1-.9 2.8-1.3 3.6-2.7.5-.8 1-1.7.4-2.4l-.2-.2c.9-.5 1.8-1.1 2.6-2-2.3-.4-4.2.1-6.1.4h-.5c-2.3.2-2.4.1-1.6-1.7a12.59 12.59 0 0 0 .3-1c-1.2-.3-2.3-.2-3.2.5-.8.6-1.6 1.1-2.4 1.7 0-.1-.1-.1-.1-.2-.6-.7-1.4-.1-2 .1-.1-.5-.2-1-.2-1.5.9.1 1.5-.4 1.7-1.2.2-.4.1-.9-.1-1.2.4-.2.8-.5.6-1-.2-.4-.8-.1-1.1-.2-.5-.2-1-.3-1.5-.4-.1-.4.1-.9.7-1.5l3-3.5c.1-.1.2-.1.2-.2.2-.3.4-.7.5-1.1l.3-.3c.4-.7-1-1.2-1.3-2 .2-.2.5-.1.7-.1.6.1 1.2.7 1.6-.2.4-.8.2-1.6-.5-2.2-.8-.6-1.7-.8-2.7-.3-1.4.7-2.9.1-4.3.1-.6 0-.4-.4-.4-.7 0-1-.3-1.4-.9-1.3.1-.2.1-.3.2-.5l.3-.9c0-.4-.1-.8-.5-1s-.7.1-1 .3c-1.3 1.1-2.5 2.3-3.8 3.5l-.3.3h-.6c-.3 0-.5 0-.7-.1v-.9l.1-.1c.4-.4.9-1.1.5-1.5-.2-.2-.4-.2-.6-.2v-3.2c.2.2.4.3.6.5.4.3.7.7 1.2.4.4-.2.9-.5.8-1.1-.1-.8.2-1.3 1-1.7 1-.5.5-1.2-.1-1.6-1-.6-2.1-1.2-3.4-1.9 1.5-.5 2.5.1 3.3.8.9.8 1.8 1.6 3 2.1.3.1.6.4 1 .4 1 0 2.1.2 2.5-.8.4-.9-.5-1.6-1.2-2.1-.6-.5-1.4-.8-2.3-1.3 1.2-.3 2.1.1 3.1.2 2.7.2 5.2-.4 7.4-1.7.4-.3 1.2-.5 1-1.1s-.9-.8-1.7-.9l-5.6-.6c-.9-.1-1.7-.2-.8-1.4.7-.9.2-1.6-1.1-1.7-1.1-.1-2 .3-2.9.9-2.3 1.7-4.8 3.1-7.7 4-.8.2-1.9.9-2.3.3s1-.8 1.5-1.3c.2-.2.4-.4.7-.6.4-.2.6-.4.4-.8-.1-.3-.5-.4-.9-.5-1.6-.3-2.9.5-4.3 1.1-.2.1-.3.2-.5.3-3.9 2.8-8.4 2.2-12.8 1.7h-.5c-2.9-.3-3.2-.7-2-3.1.3-.5.5-1.1.8-1.8.2.2.4.3.4.5.4 2.2 2.5 2.2 4.3 2.6.8.2 1.2-.2 1.3-1 0-.7-.3-1.3-.3-2.1 1 .5 1.8 1.1 2.8 1.2.4.1.7.2 1 0 1.3-.6 1.4-.9.4-1.8-.4-.3-.8-.6-1.2-1-.3-.3-.7-.5-1.3-1 1.6 0 2.8-.2 3.8.9.8.9 2.2.6 3-.4.8-.9 2.4-1 4.3-.3 1.1.4 2.7-.3 3-1.4.4-1.2-.7-1.6-1.7-1.8-1.4-.4-2.8-.4-4.2-.9.4-.9 1.4-1.2 2.1-1.7.8-.7.7-1-.2-1.3.2-.3.6-.1.7-.3 1-.9 2.3-1.3 3.7-1.3.4 0 .8-.5.9-.9.1-.6-.4-.8-.8-1.1-1-.6-2.3-.2-3.3-.8 1.1-.9 2.8-1.3 3.6-2.7.5-.8 1-1.7.4-2.4s-1.6-.1-2.4.2c-2.7 1.1-5 2.7-7.5 4-1.1.6-1.9.5-2.4-.5-.3-.5-.6-.6-1.1-.6-.6 0-1.1 0-1.6-.5 1.2-1.1 2.8-1.9 3.5-3.4.3-.6.9-1.2.3-1.8-.6-.7-1.4-.1-2 .1-.9.3-1.7.8-2.5 1.2-.3.1-.9.4-.9-.1-.1-1.1-.1-2.2 0-3.3 0-.4.5-.5.9-.1.6.6 1.4.7 2.1.8 1 .2 1.6-.4 1.9-1.1s0-1.4-.9-1.8c-1.6-.7-1.7-1.2-.6-2.6l3-3.5c.1-.1.2-.1.2-.2.6-.8.9-1.7.2-2.5-.8-.8-1.8-.1-2.5.2-.6.2-1.1.8-1.6 1.2s-1.1.7-1.7.5c-.8-.2-.6-.8-.6-1.3 0-.8-.5-1.4-1.3-1.5-.9-.1-1.3.6-1.5 1.2-.4 1.2-.9 2.4-.7 3.7.2 1.7-1.7 2.6-2 4.1 0 .2-.3.4-.6.3s-.3-.4-.3-.6c.1-2.1-.2-4.3.4-6.3.3-1 1.1-1.8 1.8-2.7 1.4-1.6 2.9-3 3.7-4.9l.3-.9c0-.4-.1-.8-.5-1s-.7.1-1 .3c-1.3 1.1-2.5 2.3-3.8 3.5-.4.4-.8.7-1.2 1.1-.2 0-.3-.1-.5-.1v-12.1c-2.1 1.2-3.4 2.7-3.3 4.8.1 1.4 0 2.8 0 4.1 0 .5-.2.9-.7 1-.6.1-.9-.3-1-.7-.4-1-1-1.7-1.8-2.4a2.52 2.52 0 0 0-1.7-.6c-1.5 0-2 .5-1.2 1.7.6 1.1 1.5 2 2.3 3.1 1.6 1.9 3.5 3.7 4.3 6.1.4 1.4.6 2.7.6 4.1 0 .2-.2.6-.4.4-.7-.8-2.2-.6-2.5-1.8-.4-1.7-1.3-3.1-2.4-4.5-.4-.5-.9-1.3-1.7-1-.9.3-.3 1.1-.3 1.8 0 .1.1.2.2.5l-5-2.2c-.5-.2-.9-.4-1.4-.5-.6-.1-1.4-.4-1.8.1-.4.6.4 1 .8 1.4 1.2.9 2.6 1.6 3.8 2.9-1.5 0-2.5.7-3.3 1.5-.3.3-.8.5-1.2.6s-.9-.1-.8.6c.1.5.5.5.9.6 1.7.7 3.5.7 5.2.2 1.1-.3 2.2-.2 3.3-.2.3 0 .7-.1.8.3.1.3-.3.5-.5.6-.4.2-.9.5-1.4.5-2.6 0-3.6 1.9-5.1 3.3-.3.2-.4.7 0 .9.8.4 1.8 1.3 2.7.6 1.3-.9 1.9-.2 2.6.5l.3.3c.6.5 1.5.8 2.1.5.8-.3.5-1.3.3-1.8-.4-1 .1-1 .8-.8 2.8.6 4.3 3.3 3 5.7-.7 1.3-.8 2.6-.7 4 .1 1.3 0 2.6-.1 3.8-.1.7-.3.8-1 .5-3.1-1.5-5.9-3.5-7.6-6.3-1.1-1.9-1.7-4-3-5.8-.9-1.2-1.5-1.2-2.5-.1-1.2 1.3-1.5 1.3-2.8.1l-2.7-2.4c-.5-.4-1.1-.7-1.7-.2-.5.4-.3.8-.2 1.4.4 1.4 1.6 2.3 2.4 3.5.1.2.6.3.4.7-.2.3-.5.3-.8.3h-3.2c-.5 0-1 .1-1.2.6s0 1.1.5 1.2c2 .5 2.2 2.6 3.9 3.4.7.3.4 1.2-.6 1.4l-3.2.6c-.8.2-1.1.6-1.1 1.4s.7.7 1.3.9c1.5.5 3.1 1.1 3.8 2.5.5.9.8 1.1 1.8.4 1.9-1.4 2.9-1.1 3.5.8.3.9-.2 1.3-1 1.4l-4.5.6c-.6.1-1.5.1-1.7.7-.2.7.6 1.1 1.2 1.3.9.4 1.8.8 2.7 1 1 .2 1 .6.4 1.1-.8.8-.2 1.1.6 1.2.7.2 1.5.3 2.1.8.3.2.4.5.2.8-.1.1-.5.2-.7.1-.9-.3-1.9-.4-2.6-.9-1.5-1.2-3.2-.7-4.8-.7-.9 0-1.1 1.1-.3 1.8.6.5.4.7-.1 1.1-1.7 1.2-3.8 1.3-5.7 1.6-.7.1-1.1.2-1.5.9-.5 1-1.7 1.2-2.7 1.7-.6.3-1.5.4-1.5 1.1 0 .6.8.8 1.3 1.1 1.9 1 4.1 1.2 6.1 2 .6.2 1.1-.3 1.5-.6 1.1-.9 1.8-.7 2.5.5.2.4.2.8.2 1.2.2 1.1.9 1.4 1.9.8 1.9-1 3.5-2.3 4.3-4.2.3-.7.8-.9 1.3-.2.3.4.5.5 1 .5.6 0 .9.1.5.7-.1.1 0 .3-.1.4-.4.6-1.1 1.4-.4 1.8s2 .4 2.8-.2c1.2-.7 1.9-1.7 2.6-2.8.1-.2 0-.5.5-.5.3.7.5 1.5.8 2.2.6 1.2 1.5 1.3 2.4.4 1.5-1.5 2.7-3.1 2.4-5.3-.1-.4 0-.8 0-1.1 0-.4.3-.5.7-.4.4 0 .6.2.6.5-.3 2.5-.9 4.9-2.7 6.9-1.2 1.5-3.1 1.5-4.9 1.4-.6 0-1.3-.1-1.9 0-.6 0-1.4-.1-1.6.6s0 1.3.7 1.8c1.2 1 1 1-.4 1.6-4.3 1.9-7.4-.4-10.6-2.4-.5-.3-.9-1.1-1.7-.7-.8.3-.3 1.1-.3 1.6 0 .2-.1.4-.1.7-.6-.2-1.1-.5-1.6-.6-.9-.2-2.4-1.2-2.1 1 .1.3-.3.6-.6.6-1 .1-1.1.5-.8 1.3.3.6-.1.7-.9.6-1.6-.2-2.9-1-4.3-1.6-.9-.4-1.9-.7-3-.6-.6 0-1.5-.2-1.2 1 .1.5-.7.7-1.3.7-1.5 0-2.9-.1-4.3.4-.6.2-1.5.2-1.4.9s.8 1.3 1.7 1.5c1.7.4 3.3.2 5.1.2-.1.8-1 .6-1.4 1-.2.2-.7.3-.6.6s.4.4.7.4c1.2 0 2 .6 3.1.9.9.3 1 .7.2 1.3-.3.2-1 .4-.8.9s1 .4 1.4.3c1.7-.5 3.7-.4 4.7-2.1.4-.7 1.2-.4 2-.4-.7 1.4-2.2 1.9-3.1 3-.4.4-1.2.7-.8 1.4.3.5 1.1.2 1.6.2 1.7 0 2.8-.9 3.9-1.8.4-.4.7-.9 1.3-1 1-.2 1.8 0 1.9 1.1v1.6c0 .5-.8 1.2.2 1.4.8.2 1.6.5 2.5-.1 1.1-.7 2-1.5 2.9-2.4.2-.2.4-.4.7-.2.1.1.2.3.1.5-.1.5-.8 1.2.2 1.3 1 .2 2.1.2 2.7-.8s1.4-1.5 2.6-1.5c.4 0 1.1-.3 1.2.3.1.4 0 .9-.4 1.3-1.5 1.6-3.5 2.6-5.5 3.5-2.4 1.1-5 1.8-7.6 2.4-2 .5-4 0-5.8-1.2-1.4-1-2.6-2.2-4.2-3-.5-.2-.9-.4-1.5-.3-.1.5.4.7.7 1 .3.4 1 .8.8 1.3-.2.6-1 .4-1.5.4-.1.4.1.6.3.8.3.2.3.4.1.6s-.4.1-.6.1c-1.6-.4-2.9-1.4-4.3-2.1-.7-.3-1.3-.7-2.1-.5 0 .1-.1.2 0 .2.4.5 1.2 1 .9 1.6-.4.8-1.2 0-1.8 0-1.8.1-3.7-.1-5.6.5 1.3 1.3 2.9 2 4.7 2.4q2 .4 1.4 2.1c-.2.5 0 1 .6 1.1 1.3.1 2.7.4 3.6-.9.3-.4.8-.9 1.6-.8.3 0 .6 0 .7.1.2.2.1.5-.2.8-.5.5-1 1.1-1.4 1.6.1.5.5.3.8.3.9.1 1.1.5.5 1.1-.3.4-.9.8-.5 1.2.3.5 1.1.2 1.6.2.6-.1 1.2-.4 1.8-.5.8-.2 1.3.1 1 .9-.2.6-.6 1.7-.1 1.8 1.6.4 2.1 2.6 4.5 1.7 1.6-.6 3-1 3-3a10.01 10.01 0 0 0 .4.9c.5 1.5 1.5 1.8 3 1 .8-.4 1.4-1 2.2-1.4.2-.2.4-.5.8-.4s.2.5.2.7c.2 2.1.2 2.2 2.3 1.2.7-.3 1.4-.6 2.2-.6.8.1 1.2-.4 1.5-1 .2-.3.7-.7.8-.3.4 2 1.7.7 2.6.7.1 0 .2 0 .5.1a27.34 27.34 0 0 1-6.6 3.9c-3.4 1.5-7 2.7-10.9 3.3-2.4.4-4.4-.5-6.4-1.2-.3-.1-.6-.4-1-.5-.8-.2-1.5-1.4-2.2-.7-1 1-.4 2.8.8 3.5.2.1.3.2.6.3a1.14 1.14 0 0 1-1.3.6c-2.7-.5-5.6-.4-7.9-1.9-.4-.2-.8-.3-1.2-.3-1.5 0-1.7.2-1 1.3.1.2.5.4.2.7-.2.2-.5.3-.8.2-1.3-.4-2.4-.3-3.4.7-.7.7-1.8.5-2.8.7-.6.1-1.1.3-1.8.5 1.9 1.8 4 3.1 6.3 4.2.4.2.7.4 1.1.6.4.3.5.6-.1.8-.4.1-.9-.1-.9.6 0 .5.5.7.9.9h.2c.7.2 1.6.3 2 .7.6.7-.6 1-.9 1.5-.4.8-.2 1.2.6 1.4 1.7.4 3.5.5 5.3.2 1.4-.3 2.8 0 4.4-.1-.3.7-1.1 1.2-.5 1.8s1.4.1 2.1-.2c.9-.4 1.7-.9 2.6-1.3.8-.4 1.3-.5 1.3.6 0 1.5.3 1.7 1.9 1.3 1.4-.3 2.9-.5 4.3-.5 1.2 0 2.2-.2 2.8-1.3.1-.3.5-.5.8-.6.1-.1.4 0 .6.1s.1.3-.1.5c-.8.6-.9 1.5-1.2 2.4-.2.7-.8 1.3-1.5 1.6-5.1 2.6-10.4 3.8-16.2 2-1.5-.5-2.7-1.3-3.8-2.2-.4-.3-1-1-1.6-.5-.5.4 0 1.1.4 1.5.2.2.3.4.5.7-1.6.6-2.7-.7-4.2-.7.5 1.6 2.4 2.2 3.3 3.8-3-1-6-.6-8.8-2 .7 2-.2 2.1-1.7 1.7-.4-.1-1-.2-1.3.2-.4.5.4.7.3 1.2-1.5.1-3.4-.4-3.9 1.5-.3 1 1.9 2.2 3.8 2.3-.1.6-1.3.4-1.1 1 .2.5 1.1.7 1.7.9.4.1.9 0 1.4 0 1.6.1 2.7 1.1 2.6 2.4-.1 1 .3 1.4 1.4 1.3 1.6-.1 3.2 0 4.8-.5.7-.2 1.4-.2 2.3-.1-1.2.9-2.3 1.8-3.4 2.7-.4.3-.8.7-.5 1.2.2.5.7.2 1.1.2.3 0 .6-.1.8.1 1.4 1.3 3.3 1.4 5 2 .5.2.6 0 .9-.1 1.3-.5 2.5-1.3 3.7-2.1.3.4.2.8 0 1.1-.3.6 0 1.1.5 1.3 1.9.6.5.9-.1 1.3-1.4.8-3.1.7-4.7.9-5.1.6-10.3.4-15.5 0-1.1-.1-2-.7-3.1-1q-.2 1.3 2.8 2.9c-.1.3-.4.4-.7.4-.4 0-1-.2-1.1.5 0 .7.6.8 1.2.9s1.2 0 1.7 0h1.9c-.5 1-1.5 1.4-2.1 2-.5.5-1.1 1-.7 1.6.4.5 1.2.6 1.9.3 1-.5 2.2-.3 3.2-.6.6-.2 1.1 0 1.4.3.4.4-.1.8-.4 1.1-2.3 2.7-5.3 2.8-8.6 2.1-3.5-.8-6.9-1.7-10.3-2.6-.5-.1-1.1-.3-1.5.1-.4.5.2.9.5 1.2.8 1.1 1.4 1.6 1.9 2.2zm97.7-79.6c.2-.2.4-.4.7-.6-.3.6-.8 1.1-1.2 1.7 0-.3.2-.7.5-1.1zm-18.7-43.4c.3.1.7-.1.9.2s-.1.6-.3.9c-1.3 2.1-4.2 2.5-5.7 4.4-.3.4-.7.1-.7-.4.1-2 3.7-5.1 5.8-5.1zm-2.9-9.8c.4-.4.9-1.1 1.5-.6.4.3-.3 1-.6 1.3-1.2 1.4-1.9 2.9-2.2 4.6-.1.8-.6 1.6-1.4 2.3-.9-3.2.3-5.6 2.7-7.6zm2.7 55.6c-.6.1-.9-.3-1.1-.8.5-.2 1-.3 1.3.3.2.1.1.5-.2.5zm2.3.7c0-.1-.1-.2-.1-.3 0-.2-.1-.4.2-.5s.6-.1.9 0c-.4.2-.7.5-1 .8zm6.1 2.1c0-.4.5-.3 1-.2.4.1.8.2 1.2.4-.7 0-1.5-.1-2.2-.2zm4.4-17.4c0 .3-.1.6-.3.8-.1.1-.3.1-.4.2h0c-.6.1-.9-.3-1-.7-.4-1-1-1.7-1.8-2.4l-.1-.1c.9.3 1.5 1.1 2.5 1.1h1.3c-.2.3-.2.7-.2 1.1zm-4.2-7.1c1.2 1.2 2.6 1.9 4.2 2.4v1.5c-.1-.1-.2-.2-.3-.2-1-.7-2.1-1.3-3.1-2-.4-.4-1.1-.7-.8-1.7zm-15.5-1.8c.1.1.4.1.4.2.7 3 2.8 4.6 6.3 5 1.2.1 2.7-.2 3.5 1.1.2.3.5.2.8-.1.9-.9 1.4-.4 2 .4h0c-.1.3 0 .6.3 1.1.6 1.1 1.5 2 2.3 3.1.1.2.3.3.4.5-.1.1-.3.1-.5.2-.9.3-1.6.3-2.4-.1-3.9-1.9-7.9-3.7-11.2-6.5-2.1-1.6-2.7-1.9-1.9-4.9zm-24.6-.6c-.6 0-1.1-.3-1.1-.8s.6-.2 1-.3c.2.2.9-.2.9.5 0 .3-.3.6-.8.6zm10.2-1.8c-.6-.2-1.1-.6-1.7-1-.2-.2-.5-.5-.3-.7.2-.3.8-.3 1-.1.4.5.7.5 1.2.2.9-.5 1.4-.3 1.2.8.4 1.1-.6 1-1.4.8zm3.2-1.7c-.3-.1-.9-.2-.8-.7.1-.3.3-.3.6-.3 1.8 0 3.5.1 5.4-.4-1.4 1.8-3.3 1.8-5.2 1.4zm6.4-6c-.8.3-.9-.3-1.4-.6-.3-.2-.7-.4-1.1-.5-2.8-.7-4.9-2.4-7.1-4.1-.4-.3-.8-.8-.2-1.2.5-.3 1.5-.4 1.6.3.2.9.9.9 1.5 1.2.4.2 1.2.5 1.1.9-.1 1.2.9.9 1.5 1.1.5.2 1 0 1.6 0h0c.7 0 1.4 0 2 .1.6.2 1.1.6 1 1.3-.1.6.1 1.2-.5 1.5zm-2 19.7c1 .5.9 1.3.9 2.1 0 1.3 0 2.5-.1 3.8 0 .3-.1.8-.7.8-.3 0-.5-.1-.5-.4.2-2.1-.5-4.2.4-6.3zm-41.1 90.6c-2 1.1-3.7.2-5.4 0 1.7-.5 3.5-.5 5.4 0z"/></g><path d="M4483.6 823.7c-32.3-21.6-18.3-24.8-51.9-10.4-97.4 12-215.3-13.3-307.8-34.5.7-1.7 2.7-4.7 1-6.3-3.3 1-3.9 7-8.3 3.6v-16c-5.2 3.2-4.2 9.4-4.3 14.7-3.9 1.1-3.7-5.2-7.7-4.3-.3-1.6-1.7-.7-2.3.2v-6.2c-3.4 2.4-4.7 5.9-4.2 10.1h-2.3v-17.4c-6.7 3.5-2.4 12-5.2 16.8-3.3-1-2.3-8.6-2.5-11.2-1.9 2.2-6.2 5.1-5 7.7 2.9 5-2.6 6.2-5.5 2.8v-13.2c-6.6 3.5-1.9 11.5-6.5 15.7-.8-2.3-2.1-5.1-4.7-5.3v-10.4c-8.1 2.6-.3 26.8-9 11.5-1.5-1.8-5.5-1.4-3.8 1.7 4.1 5.8 3.7 7.2-3.3 8.5v-15.3c-6.5 3.5-2.7 11.6-5.1 16.7-2.3-.4-2-4-3.9-5.2-6.5-4.2-3.3 4.2-.8 6.8-12.8 3.9-26 7.6-39.7 10.2.3-4-5.3 2.6-8.9 1.6V781c-6.9 1.6-1.8 19.8-6.6 15.6-.4-3.3-4.3-4.2-3.8-7.2-5.4 3.2-3 9.8-7.3 13.7-1.3-4.2-8.3-4.6-4.8.8-2 .7.2 2.6 1 3.4-.9.8-2 1.5-3.2 2.3v-14c-6.7 1.4-2 20.7-6.6 15.6-.6-2.6-3.8-7-6.4-4.5v-4.9c-7.2 3-1.1 13.6-6.5 15.8-2.1-8-10.4-6.4-4 1.3-10.3 3.3-19.7 5.9-29.7 9.6-.1-.4-.6-.8-1.1-.6v-12.4c-7.2 3-1.1 13.5-6.5 15.7-1.7-1.7-1.1-13.5-1.2-15.7-4.5 3.2-4.7 8.8-5 13.2.7 1 1.3 3.1-.2 3.6-2-.4-1.9-4.2-3.7-5.3-1.5-1.8-5.5-1.4-3.8 1.7-3.1 1.8-4.5 6.8-7.9 7.9v-20.2c-8.1 2.6-.3 26.8-9 11.5-12.3-4.6 8.8 12.7-6.9 10v-15.3c-5.4 3.4-4.1 9.9-4.3 15.4-.9 0-1.3-2-2.4-.3-1.3-5.9-9.7-6.5-4.7.5-.8 0-1.5 0-2.3.1v-13.6c-4.9 3-4.3 8.6-4.3 13.7h-.1c0-2.4-2-1.2-2.7.1-1.2-3.7-8.4-5.4-5.1.4-.4 0-.7.1-1.1.1v-14.4c-2.3 1.8-3.8 3.7-4.2 6.5V829c-2.6 2-4.3 4.3-4.2 7.8-.8-1.5-3.6-2.5-4.6-1V828c-5.2 3.2-3 9.6-7.7 13.1-.9-1.4-2.3-3.1-4.1-2.7v-13.7c-6.7 3.5-2.4 12-5.2 16.8-2-.4-1.8-4.1-3.7-5.2V830c-3.5 2.5-4.7 6-4.2 10-8.9 3.5-5.9-8.8-6.3-13.8-4.2 2.7-4.5 7.4-4.3 12-4.5-1.1-8.8-1.6-9.4-6.8-1.3 1.4 0 4.5-1.8 6.4V836c-4.4 2.8-4.5 7.6-4.3 12.4-2-1-2.3.7-.1 1.3-.8.1-2.4-1.2-3.2-.3-1-3.4-7.7-4.5-4.9.5-.3 0-.6.1-.9.1v-5.4c-1.7 1.3-2.9 2.7-3.6 4.4-1.8-1.1-3.3-2.9-5.2-4.3 7.2.6 10.8-3.1 14-7.9-3 .7-4.5 3.3-7.6 3.2 6.3-4.5-7.3 1.5-8.8-5 4.1-.4 8.2-.8 10.2-4.6-2.6.1-5 2.4-8.1 1 .9-.7 2.2-.9 2.9-2-1.6-.1-2.6-.5-1.6-2.1.8-1.1-4-.9-4.7-3-.4-.7-1-1.5.7-1.4 2.9-1-2.9-1.1-1-3.8.6-1.6 0-2.9-1.2-3.8-3.5-2.9-1-7.2-3-10.8-1.7 4.3-.4 9.4-3.3 13.6-1 2.1 1.3 5.1 3.1 6.1-2.2.9-4.5.6-6.9.1 1 1.9 3.2 2 4.7 3-1.1.9-2.4.3-3.6.6 3 4.2-4.8 1.4-6.7.7 1.2 4.2 7.3 3.7 7.1 5.2-.9 1.8-4 1.5-6.2 1.4 10.6 5.3 9.4 6.2-1.8 5.1 0 1 1 1 1.6 1.5-11.4-1.4-1.4 1.6 1.6 5.3.8 1.1 3 1.3 4.3.6 2.6-1.6.7.9 1.4 1.5v-.3c-1.1 1.8-6.7.6-6.1 3.9-2.5 2.5-8 4.3-9.4.2.8-.5 2.1.3 2.8-.8-1.2-.5-2.7-.6-3.9-1.7 3.2 0 6.2 1.5 9.1.2-1.8-.1-9.4-1.5-7.3-4-1.7-2.3-4.9-5.1-5-8 3.4-.5 6.5-1.6 9.2-4.4-3.2.7-6 2.3-8.8-.1.8-.3 1.6-.7 2.4-1.1-3.9-1.3-4.8-2.7-.5-4.5-5.4-.3-3-.2-.3-3.3-3.3-.4-4.6 2.7-5.1-2-1.5-3.7-2.2-7.2-3.4-10.9-2.5 4.1 1.9 11.5-3.9 12.8.6 1.3 2.5 1 2.4 2.3-1.9.8-4.6-2.9-5.1-1.7h0c.5 1.5 2.3 2.1 3.2 3.9-6-.8-3.5-2.6-5.8-2.5-2.3 0-5-.7-7.1-2.8.8-1.2 3.9 1 2.9-1.5-.1-.5 2.8-.4 3-1.1-2.1-.9-5.7-.3-8.1-1.6-4.3-2.6-1.9-4.5 2-3.8 2.5.2-.3-2.5 3.1-3.4-13.9-.7-5-6.7-9.2-6.4-1.4.2-2.5-.6-3-1.6.9-3.5-3.2-5.9-3-9.5-1.8-3-.6 5.1-2.1 6.2-.8 1.4.7 2.5 1.3 3.7 0 4.6-7.7 8.2-12 9 2.7 2.1 5.6.6 8.5.7-2 1.5-4.1 1.9-6.4 1.9 1 1 1.6 1.1 3.9 1.2q-1.3 1.6-9.7 2.5c3.3 3.2 9.1.9 10 2.2-.3 1.6-4 2.3-5.5 3.3 3.5.4 6.8.1 9.8-1.9-3.7 5.5-6.4 5.2-14.9 6.1 2.4 1.9 6 1.7 7.9 2.6-2.5 1-3.6.8-6.7.8 2.8 1.8 8.4 3 8.4 3.1-.6 2.2-7.4-.3-9-.9-2.8-.7 3.8 4.1 5.3 3.8 3.3.9 1.2 1.6.3 3.2-1.5 1.4-2.8 4.7-5.3 2.4 8.3-4.5-5.8-.1 1.3-4.6-6.4-.6-4.6-5.6-6.5-8.6-2.3 5.2 2.2 9.8-6.2 8.9.5 1.1 1.6 1.4 2.4 1.8 2.7 1.2-2.8 7.1-5.5 6 .9 1.1 2.5.4 3.4 1.2q-1.2.9-6.7.8c.6 2.4 5.8 1.9 4 4.1-.6 4.1-1.9 6.2-6.6 5.9-5.9-4.1.7-1.9 1.3-4.8-1.2-1.1-2.6 1.2-5.3-2.8 2-.4 8.7-1.2 3.3-2.5 1.5-.9 3.5-1.2 4.3-3.2-3.3.8-7.9 1.8-9.3-1.9-.3-.7-.6-1.4.8-1.7.9-.2 1-.6-.1-1.2-2.9.4-4.7-15-5.7-10.7.1 1.8 0 3.6-1.2 5.2-.9 3.3 2.1 4.1-2.7 6 .7.7 1.7.1 2.5.6.1.9-2.9 1.3-1.6 1.8.4.6 2 0 1.7 1-.6 2.9-4.3.8-6 1.4-.1 1.3 3.1 1.8 4.5 2.2-1.5.7-2.6.3-3.9.2.2.8.8 1.2 1.5 1.3 4.8 1.1-2 6.3-4.2 7h5.3c-1.9.9-3.4 1.7-.9 2.1-3.8 3.1-8-2-11.2-4.4 3-.6 5.7-.9 7.8-2.5-2.9-.8-6.3.1-9.1-1.9 1.8-.8 4-.8 5.7-3-6 2.1-8-2.2-11.6-4.7 7.2.6 10.8-3.1 14-7.9-3 .7-4.5 3.3-7.6 3.2 6.3-4.5-7.3 1.5-8.8-5 4.1-.4 8.2-.8 10.2-4.6-2.6.1-5 2.4-8.1 1 .9-.7 2.2-.9 2.9-2-1.6-.1-2.6-.5-1.6-2.1.8-1.1-4-.9-4.7-3-.4-.7-1-1.5.7-1.4 2.9-1-2.9-1.1-1-3.8.6-1.6 0-2.9-1.2-3.8-3.5-2.9-1-7.2-3-10.8-1.7 4.3-.4 9.4-3.3 13.6-1 2.1 1.3 5.1 3.1 6.1-2.2.9-4.5.6-6.9.1 1 1.9 3.2 2 4.7 3-1.1.9-2.4.3-3.6.6 3 4.2-4.8 1.4-6.7.7 1.2 4.2 7.3 3.7 7.1 5.2-.9 1.8-4 1.5-6.2 1.4 10.6 5.3 9.4 6.2-1.8 5.1 0 1 1 1 1.6 1.5-11.4-1.4-1.4 1.6 1.6 5.3.8 1.1 3 1.3 4.3.6 2.6-1.6.7.9 1.4 1.5v-.3c-1.1 1.8-6.7.6-6.1 3.9-2.5 2.5-8 4.3-9.4.2.8-.5 2.1.3 2.8-.8-1.2-.5-2.7-.6-3.9-1.7 3.2 0 6.2 1.5 9.1.2-1.8-.1-9.4-1.5-7.3-4-1.7-2.3-4.9-5.1-5-8 3.4-.5 6.5-1.6 9.2-4.4-3.2.7-6 2.3-8.8-.1.8-.3 1.6-.7 2.4-1.1-3.9-1.3-4.8-2.7-.5-4.5-5.4-.3-3-.2-.3-3.3-3.3-.4-4.6 2.7-5.1-2-1.5-3.7-2.2-7.2-3.4-10.9-2.5 4.1 1.9 11.5-3.9 12.8.6 1.3 2.5 1 2.4 2.3-1.9.8-4.6-2.9-5.1-1.7.5 1.5 2.3 2.1 3.2 3.9-6-.8-3.5-2.6-5.8-2.5-2.3 0-5-.7-7.1-2.8.8-1.2 3.9 1 2.9-1.5-.1-.5 2.8-.4 3-1.1-2.1-.9-5.7-.3-8.1-1.6-4.3-2.6-1.9-4.5 2-3.8 2.5.2-.3-2.5 3.1-3.4-13.9-.7-5-6.7-9.2-6.4-1.4.2-2.5-.6-3-1.6.9-3.5-3.2-5.9-3-9.5-1.8-3-.6 5.1-2.1 6.2-.8 1.4.7 2.5 1.3 3.7h0c0 4.6-7.7 8.2-12 9 2.7 2.1 5.6.6 8.5.7-2 1.5-4.1 1.9-6.4 1.9 1 1 1.6 1.1 3.9 1.2q-1.3 1.6-9.7 2.5c3.3 3.2 9.1.9 10 2.2-.3 1.6-4 2.3-5.5 3.3 3.5.4 6.8.1 9.8-1.9-3.7 5.5-6.4 5.2-14.9 6.1 2.4 1.9 6 1.7 7.9 2.6-2.5 1-3.6.8-6.7.8 2.8 1.8 8.4 3 8.4 3.1-.6 2.2-7.4-.3-9-.9-2.8-.7 3.8 4.1 5.3 3.8 3.3.9 1.2 1.6.3 3.2-1.5 1.4-2.8 4.7-5.3 2.4.8-.7 2.1-.9 2.7-1.7-1.7-1.3-6 0-1.4-2.8-6.4-.6-4.6-5.6-6.5-8.6-2.3 5.2 2.2 9.8-6.2 8.9.5 1.1 1.6 1.4 2.4 1.8 2.7 1.2-2.8 7.1-5.5 6 .9 1.1 2.5.4 3.4 1.2q-1.2.9-6.7.8c.2.7.8 1.2 1.5 1.5-1.7 1.7-2.7 3.6-2.8 6.1-.5-2.6 2.1-9.3-3.1-3-7.4-4.8-5.1-7.6-5.3-14.9-4 2.6-4.6 6.9-4.2 11.4-2.7-.1-4.7-4.4-3.3-7.7l-8.1-1.6c2.3-6-1.4-4.7-3.8-.7-.6-.1-3.8-.8-4.4-.8v-15.3c-5.1 3.2-4.2 9.2-4.3 14.5-.1 0-.2-.1-.3-.1.9-2.4-1.6-2.2-2.7-.7-1.1-1.4-2.2-3.7-4.4-3.3 2.1-2.2 1.1-5.8-1.7-2.7v-4c-4.2 1.8-4 4.7-4.6 7.9-2.7 1.3-.9-13.2-1.4-13.9-6.9 1.1-2 14.9-6.6 11-3.1-5.4-5.5-4.2-8.5-.3l-5.2-1v-9.7c-6.6 2.8-1.9 11.2-11 7.4v-10c-4.5 2-4.4 5.3-4.3 9.3l-1.3-.3c3.2-5.2-1.1-4.1-3.6-1-1.1-1-3-.4-4.2-.5v-11.1c-4.9 2.2-4.3 6-4.3 10.2l-2.3-.4c4.4-5.4 1.2-6.7-3-2-1-.6-4-.6-3.6.7-.5.3 0-12.6-.2-12.6-9 2.8 1 18.5-9.8 7.6 3-8.8-5.6 3.2-8.1 1.4v-13.4c-6.9 1.1-2 14.9-6.6 11 3.1-4.2 2.9-8-2.4-2.9-2.6-1.9-5.9-.2-2.9 2.5-3.1 3.1-.9-13.6-1.5-13.8-6.5 2.2-2.5 8.4-5.2 11.9a1.15 1.15 0 0 1-1.3-.9c-3.9-6.8-10-3.4-2.8 2.4-1.8 0-3.6-.1-5.3-.1v-10.1c-4.9 2.2-4.3 6-4.3 10.2h-.7c1.3-2.6-1.4-2.7-2.7-.9-1.6-2.8-8-2.6-4.2 1.2-.6 0-1.1.1-1.7.1v-11.4c-6.4 2.2-2.6 8.3-5.2 11.9-2 0-1.9-2.9-3.8-3.7-5.5-2.7-4.5 1.7-1.3 4.3-1.7.2-3.3.4-4.9.7v-9.6c-1 .6-1.9 1.2-2.6 1.8.2-1.1-1.2-1.6-1.9-.8-11.9 12.4-5.4-2.2-7-9.2-6.5 2.2-2.5 8.4-5.2 11.9-2.3-.6-2.6-4.8-5.9-4.5-6.3 1.1 6.9 9.3 6.9 12.9-7.3 1.3-14.1 2.4-21.8 3.3 3.3-8.5-5 2-8 .8v-13c-7 1.2-1.9 14.6-6.5 11.1 3.5-3.7 2.1-7.4-2.1-2.7-2.7-2.4-6.4-.4-2.9 2.5-3.6 5.3-1-13.5-1.8-13.6-5.6 2.4-3.8 7-4.5 11.5-.3-.8-1.4-.6-1.9-.1-4-7.4-10.4-3.8-2.7 2.3-1.4.8-2.5 3-4.2 2.9v-14.4c-6.9 1.1-2 14.9-6.6 11-.6-2.2-4.9-5.2-6.6-2.9-2.7-.2-7 7.6-8.2 5 1-1 2.8-5 0-4.2V814c-6.5 2.2-2.5 8.4-5.2 11.9-3.5-.1-1.7-9.3-2.1-11.3-3.1 1.7-4.6 3.7-4.2 6.8-1.8 0-1.9 1.1-.9 2.4-.7.2-1.2.8-1.8 1.3-1-1.9-4-4-6-2.6V815c-6.5 2.2-2.5 8.4-5.2 11.9a1.15 1.15 0 0 1-1.3-.9c-3.9-6.8-10-3.4-2.8 2.4l-4.9-1.2c2.8-4.9-1.3-3.6-3.5-.9l-4.4-1.1V815c-8.5 3.8.6 13.9-11.5 7.4v-7.3c-5.1 2.2-4.2 6.3-4.3 10.7-2.6 1-2.8-1.2-4.7-2.5-2.2-1.7-6-.5-3.1 2.2-1.5 1.8-3.6 1.9-5.7 2.1v-12.3c-6.5 2.2-2.5 8.4-5.2 11.9-1.9-.2-1.8-2.9-3.7-3.8-6.6-3-3.2 3.2-.3 5.5l-4 .6c.5-4.6-5.8 2.5-8.8 1.3V819c-6.5 2.2-2.5 8.4-5.2 11.9-1.9-.2-1.8-2.9-3.7-3.8-3.5-2.3-5.6.5-2.3 3.1-1.7 1.3-3 3.1-5.3 3.1v-13.7c-6.5 2.2-2.5 8.4-5.2 11.9-1.9-.2-1.8-2.9-3.7-3.8-7.8-3.2-1.8 4.5 1 6.8-4.2.4-8.6 1.9-12.8 1.5.8-5.5-5.7 3-8.7 1.6v-12.4c-6.5 2.2-2.5 8.4-5.2 11.9-1.9-.2-1.8-2.9-3.7-3.8-6.6-3-3.2 3.2-.2 5.5l-8.9 1.2c.2-3.7-6 2.3-8.9 1.2v-11.5c-6.5 2.2-2.5 8.4-5.2 11.9-1.9-.2-1.8-2.9-3.7-3.8-6.1-2.8-4 2.2-.9 4.7-1.1.2-2.3.3-3.5.6V835c-5.2 1.8-3.4 6.3-4.8 9.2v-7.6c-3 1.6-4.6 3.6-4.2 6.5-3-2-5.6.3-2.5 2.8-1 .5-1.4-.8-2.2-1.2-1.2-1.2-5.5-1.2-3.8 1.1-1.8 1.8-5 3.3-7.6 3.6V837c-6.5 2.2-2.5 8.4-5.2 11.9-1.9-.2-1.8-2.9-3.7-3.8-7.5-3.1-2.1 4.2.6 6.4l-7.5 1.9c.5-3.2-2.7-.8-3.7.3-1.6-1.1-5.7-.7-2.6 1.3l-2.6.7V843c-6.5 2.2-2.5 8.4-5.2 11.9-1.9-.2-1.8-2.9-3.7-3.8-7.7-3.2-1.9 4.4.8 6.6l-3.8 1c2.3-8.3-5.7 4.1-8.3.8V847c-6.5 2.2-2.5 8.4-5.2 11.9-1.9-.2-1.8-2.9-3.7-3.8-5.8-2.8-4.2 2-1.1 4.5-1.4 1.7-3.6 1.4-5.5.9v-11.3c-5 2.2-4.3 6.2-4.3 10.4-.8-.2-3.4-.4-3.7-1.4 8.8-11.1-.7-5-5.2-.9-.5.3 0-14.5-.2-14.6-6.5 2.2-2.5 8.4-5.2 11.9-1.9-.2-1.8-2.9-3.7-3.8-5.6-2.8-4.1 2.3-1 4.7-3.1-2.5-18 3.6-21.3 4.4v-10.8c-6.9 1.1-2 14.9-6.6 11-.3-2.3-6.2-5.7-6.5-2.3-12.1 4.6-8 12.6-8.8-9.2-6.5 2.2-2.5 8.4-5.2 11.9-2.3-.6-2.6-4.8-5.9-4.5-6 1.5 6.1 8.6 6.6 12.1l-7.6 2.4c.2-.4.4-.9.3-1.3h3.2c-.8-2.3-5.5-5.8-4.1-1-5.8-2.2-9-1.6-8-8.7-6.5 2.2-2.5 8.4-5.2 11.9-1.9-.2-1.8-2.9-3.7-3.8-8.5-3.2-.6 5.5 1.9 7.8l-4.2 1.3c-.4-.5-1.8-.3-1.8.4-.8-1.2-2.3-2.2-4.3-3.2v3.3c-1.7-.5-4.5-2.6-5.9-1-.4-.2-.7-.4-1.1-.6v5.2l-1.9.6-1.6-.4v-5.3c-2.1 1.2-3.6 2.5-4.1 4.3-3.7-.6-.7-1.2.8-2.3 3.7-1.9-.9-2.4-2.6-1.4v-2.2c-3.4 1.7-3.9 5.4-7.9 3.3.1-.9-1.7-1.1-2.2-.6l-4.9-1.3c3.2-2.4 12.1-11 2.3-7.8-2.2.8-2.1 3.6-4.4 3.8-3.1-3.5 1.3-9.8-6.1-11.9 1.2 7.8-3.3 6.5-9.4 8.7 1.6-4.9-3.9-1.2-4.8 1h3.8c0 .5.2.9.4 1.3l-8.9-2.4c.6-3.5 14.9-10.8 7.8-12.1-3.6-.3-4.3 3.9-6.9 4.5-3.1-3.5 1.3-9.8-6.1-11.9-.9 21.8 3.9 13.7-10.3 9.2-.3-3.3-7.1-.1-7.6 2.3-5.4 4.1.5-9.8-7.7-11V860c-3.9-.8-21.4-6.9-25-4.4 4-2.8 5.5-7.4-1.1-4.7-2.2.8-2.1 3.6-4.4 3.8-3.1-3.5 1.3-9.8-6.1-11.9-.1 0 .2 14.9-.2 14.6-4.6-3.6-16.8-10.8-6.1.9-.4 1-3.5 1.2-4.3 1.4 0-4.6.7-8.3-5-10.4v11.3c-2.3.5-4.8.8-6.5-.9 4.1-2.8 5.2-7.3-1.3-4.6-2.2.8-2.1 3.6-4.4 3.8-3.1-3.5 1.3-9.8-6.1-11.9v12.5c-2.7 3.3-12.6-9.2-9.7-.8l-4.5-1c3.3-2.5 10.3-9.8 1-6.6-2.2.8-2.1 3.6-4.4 3.8-3.1-3.5 1.3-9.8-6.1-11.9v12.7l-3-.7c3.7-2.1-1.4-2.3-3-1.3-1.1-1-4.9-3.7-4.3-.3l-8.9-1.9c3.4-2.5 9.9-9.6.8-6.4-2.2.8-2.1 3.6-4.4 3.8-3.1-3.5 1.3-9.8-6.1-11.9v12.4c-2.9-.3-6.7-1.8-8.9-3.6 1.9-2.4-3.3-2.2-4.5-1.1-1 .5-1.5 1.8-2.6 1.2 3.9-2.8.2-4.7-3-2.8.4-3.1-1.4-4.9-5-6.5v7.6c-1.7-3 .5-7.2-5.7-9.2v7.9c-1.3-.3-2.7-.4-4.1-.6 4-2.8 5.7-7.5-1.1-4.7-2.2.8-2.1 3.6-4.4 3.8-3.1-3.5 1.3-9.8-6.1-11.9V841c-3.1 1.2-10.7-4.9-10.4-1.2l-10.5-1.2c3.7-2.6 7.7-8.5-.2-5.5-2.2.8-2.1 3.6-4.4 3.8-3.1-3.5 1.3-9.8-6.1-11.9v12.4c-3.2 1.6-11.1-7.1-10.2-1.6-5 .3-10.1-1.1-15.1-1.5 3.3-2.5 10.6-9.9 1.1-6.8-2.2.8-2.1 3.6-4.4 3.8-3.1-3.5 1.3-9.8-6.1-11.9v13.7c-2.6.1-4.3-1.7-6.3-3.1 4.1-2.9 1-5.3-2.7-3.1-2.2.8-2.1 3.6-4.4 3.8-3.1-3.5 1.3-9.8-6.1-11.9v11.8c-3.1 1.4-11.1-5.9-10.3-1.3l-4.7-.6c3.7-2.7 7.6-8.4-.3-5.5-2.2.8-2.1 3.6-4.4 3.8-3.1-3.5 1.3-9.8-6.1-11.9v12.3c-2.4-.2-4.9-.2-6.7-2.1 3.5-2.9-1.4-3.8-3.7-2.2-2.2 1.5-2.6 3.5-5.5 2.5 0-4.7.8-8.5-5-10.7v7.3c-14.3 6.5-3.4-3.3-13.5-7.4V825l-5.2 1.1c-2.3-2.4-7.5-4.3-4.2.9l-5.8 1.2c3.8-2.7 7.1-8.2-.5-5.3-2.2.8-2.1 3.6-4.4 3.8-3.1-3.5 1.3-9.8-6.1-11.9v7.4c-2.3-1.3-5.8.6-7.1 2.6-.7-.4-1.3-1.1-2.1-1.3 1.2-1.2 1.1-2.3-1-2.4.4-3.2-1.3-5.1-5-6.8-.4 2.2 1.5 11.4-2.5 11.3-3.1-3.5 1.3-9.8-6.1-11.9v9.5c-1.5-.8-2.3 1-1.4 2.1 4.1 7.1-5.4-2.7-8.3-2.9-1.8-2.3-6.9.5-7.7 2.9-5.4 4.1.5-9.8-7.7-11V829c-1.9.1-3.3-2.1-5-2.9 9.2-6.5 1.2-9.5-3.2-2.3-.5-.5-1.8-.8-2.2.1-.8-4.7 1.2-9.2-5.3-11.5-.8.4 2.1 19-2.1 13.6 5.8-6.2-4.4-1.1-6.2-4.5-6.5-1.9 3.1 5.9-1.3 5.4-3.1-3.5 1.3-9.8-6.1-11.9v13c-3.1 1.4-13.4-9.3-9.4-.8-9-.9-17-2-25.6-3.3 2-4.3 7.2-7.1 10-10.9 2.1-2.5-3.2-2.3-4.5-1.2-2.2.8-2.1 3.6-4.4 3.8-3.1-3.5 1.3-9.8-6.1-11.9-1.5 8.5 5.1 20.9-8.2 9.2-.7-.8-2.4-.5-2.2.8-.8-.7-1.9-1.3-3.1-1.8v9.6c-1.9-.2-3.8-.5-5.7-.7 4.1-2.9 4.5-6.9-1.5-4.3-2.2.8-2.2 3.8-4.4 3.7-2.9-3.6 1.3-9.8-6.1-11.9v11.4c-.6 0-1.3-.1-2-.1 5.1-6.5-5.2-.4-6.3-2.1-1.4-1.3-3 .4-1.9 1.8h-.8c0-4.5.6-8-5-10.2v10.1c-2.1 0-4.2 0-6.3.1 3.8-2.7 7.2-8.2-.5-5.3-2.2.8-2.1 3.6-4.4 3.8-3.1-3.5 1.3-9.8-6.1-11.9-.7.5 1.8 17.1-1.8 13.8 3.8-2.9-.7-4.2-3.4-2.5-5.6-4.8-6.8-1.9-2.8 2.9-5.4 4.1.5-9.8-7.7-11v13.4c-2.6 1.9-13.1-10.2-9.5-1.4-12.8 10.9-.8-4.6-11.5-7.6-.2.1.3 12.9-.2 12.6.5-1.4-3.2-1.3-4.2-.7-4.3-4.3-8.9-3.9-3.5 2l-2.7.4c0-4.5.6-8.1-5-10.2v11.1c-1.3.1-3.6-.5-4.9.5-2.6-2.7-8.1-4.5-4.2 1l-1.5.3c.2-4.2.1-7.2-5-9.3v10c-10.6 3.9-5.1-4.3-13-7.4v9.7c-2.3.4-6.9 1.7-8.5-.7.6-3.8-7.1-.5-7.5 2.1-5.4 4.1.5-9.8-7.7-11v13.7l-1.6.3c-.7-3.3-.5-6.1-5.4-7.9v4c-3.2-3.1-4.6.1-2 2.7-2.4-.4-3.9 1.8-5.2 3.3-1.1-1.3-4.2-1.9-3.1.7-.1 0-.2.1-.3.1 0-5.6.9-11.3-5-14.5v15.3c-.7 0-4.5.6-5.2.8-2.5-3.6-7.2-5.6-4.4.7l-9.6 1.6c1.6 3.3-.7 7.6-3.9 7.7.4-4.7-.4-8.8-5-11.4-.3 8.2 2.3 10.1-6.3 14.9-5.9-6.2-3.2 0-3.6 3-.1-3.2-2-5.4-5-7.4-.3 5.9 2.1 14.1-5.7 15.5-4.7-6.2-6.2-1.2-2.7 3.3-14.8 15.5-1.1-5.9-12.5-10.5.2 1.3-.4 20.2 0 20.5-3.1.5-8.6-12-10.5-6.5 1.6 3.8 1.5 5-.8 8.4-5.2 5.8.3-13.9-7.7-15.6v18c-11.2.8 1.9-7.6-5.1-8.2-2.1.4-5 2.3-5.4 4.3.8 2.2-2.5 2.2-2.7.5-.1-5.7 1.1-11.9-5-15.2v13.4l-5-2.7c7.3-7.7-2.3-9-4.7-1.5-4.7 1.5-.2-1.5-7.8-4.1-.1 3.1 1.1 6.7-3.4 6.4 3.5-4.7 1.5-8.6-3.8-3.8-.8-.6-1.4-2-2.6-1.6-2.7 1.4 2.6 5.9-.9 6-2.3-1.5-.7-6.1-1.1-8.6.2-3.7-4 5.4-4 5.4l-5.5-2.6 3.5 7.5c-3.3 1-13-14.1-8-.4-6.8 5.3-7.5 10.9-7.4-2.3.1-2.8-2.9 6.1-4.3 10.3-3.3 4.6-6.6-6.1-10.4-6-2.3 2.8 1.8 6.9 3.4 9.3l-3.1.9c2.5-3.3-2.4-4.1-4.3-2.1-2 1.7-2.3 4.5-5.4 4.3-3.6-10.5-2.2-2.9-10.1-9.6 1.1 2.6 3.3 8.5-1 9-2.5-2.2.6-7.4-3.6-9.9-2.8 26.3-6 3.4-14.9-1.5.4 1.3 2.9 8.2 1.9 9.3 1.3 4 2.6 5.5-2.7 4.8.7-5.3.3-9.7-5-13 .2 3.1.3 9.8-2 12.1-1.4 4.1-8.9-12.3-13.7-14l4.5 14.1c-12.6.4 1.2-6.4-4.8-7.8-3-.1-3 4.1-5.1 4.7-.5-.1.9-8.5 1-10.2.1-2.3-3.9 8.5-5.1 12l-2.2-.3c4-3.8.1-7.3-3.5-3.5-.6-.4-1.1-1.5-1.9-1.2-1.6.9.6 2.8 0 3.9-4.2.7-2-8.1-4.2-8.4-1.8-.7-.8 9.4-5.2 6.6.8-3.3 4.1-11 1.3-12.9-1.1.8-3.8 15-6.9 11.8 7.9-9.7-.1-8.9-7-4.3-.4-4 4.1-5.4-.4-7.9-2.5 1.8-5.7 1.5-8.3 3.1-.1-8.7-5.7-23.6-13-9.4-.2 1.3-2.1 1.7-2.6.3 1.2-1.6 3-4.7-.2-4.7 1-2.6-2.2-5.3-3.1-6.4-.2-.3.2 4.4-5.5 11.2-1.8 2.2-3.5 3.6-.8-12.1l-4.2 8.8c-1-.3-3.7-.6-2.5-1.1-3.8 1.5-3.8-8-3.8-8s-1.6 5.7-2.2 8.5c-3.1-.8-19.6-10.6-19.6-10.6-1.5-.9-2.9-1.8-4.3-2.7 1-1.4 2-2.7 2.9-4.1-1.6-.8-3.7-.3-5.2-1.3-.1.1-.1.2-.2.2-8.5 1.2.5-9-8.9-13.4v7.6c-1.4-2.4-2.3-5-2.3-7.8l-10.8 2.5c.3-4.9-.1-9.3-5-12-.5 6.3 3 16.9-7.4 13.8.5-4.3-1-7.6-5-10v6.3c-2.1 1.1-2 4.9-4.3 5.2-3.2-4.8 1.6-13.5-6.1-16.8v13.7c-2.1-.4-3.7 1.2-4.9 2.7-5.5-3.5-2.9-10-9-13.1v7.7c-1.2-1.4-4.4-.5-5.4 1 0-3.5-1.9-5.8-5-7.8v2.1c-.4-2.7-2.2-4.7-4.9-6.5V839c-.4 0-.9-.1-1.3-.1 1.4-1.9 1.8-4.1-1.3-3.9-2.8-.6-3.9 5-5.7 2.5-.8-1.1-2.3-.6-2.2.8h-.2c0-5.4.6-10.7-5-13.7v13.6c-.9 0-1.8-.1-2.7-.1 5.9-6.8-4.2-6.3-5.5-.5-1.2-1.7-1.8.3-2.9.3-.2-5.8 1.2-12.1-5.1-15.4v15.3c-2.9-.3-6.2.7-8-2.1 3.1-2.9 8.2-12.2-.1-7.9-2.2 1.1-2 5-4.4 5.3-3.2-4.8 1.6-13.5-6.1-16.8v20.2c-3.8-1-5.7-6.2-9.3-7.9 2-3.2-2.9-3.4-4.5-1.7-2.2 1.1-2 5-4.4 5.3-1.7-.4-1.1-2.5-.2-3.6.9-1.7.5-2.6-.9-2.8.5-4.4-.8-8-5-10.5-.1 2.4.6 14-1.4 15.7-6.2-1.8.6-12.8-7.7-15.7v12.4c-.5-.2-1.1.2-1.3.6-11.7-3.7-22.8-6.3-34.9-9.6 7.6-8-2.4-9.1-4.7-1.3-6.2-1.9.7-12.9-7.6-15.8v4.9c-2.9-2.4-6.7 1.6-7.6 4.5-5.3 5.5.3-14-7.7-15.6v14c-1.5-.8-2.7-1.5-3.8-2.3 1-.7 3.6-2.7 1.2-3.4 4.2-5.5-4.1-4.9-5.6-.8-5.1-3.9-2.3-10.5-8.6-13.7.6 3.2-3.9 3.9-4.4 7.2-5.6 4.4.4-14-7.7-15.6v15.6c-3.8 1.1-10.9-5.6-10.5-1.6-16.1-2.6-31.7-6.2-46.7-10.2 3.2-3.1 6.8-11-.9-6.8-2.2 1.3-2 5-4.6 5.2-2.7-5.2 1.6-13.3-5.9-16.7v15.3c-2.6-.9-5.7-1.1-8.2-2.3 3.1-2.9 8.1-12.2-.1-7.9-2.2 1.1-2 5-4.4 5.3-3.2-4.8 1.6-13.5-6.1-16.8v10.4c-2.8.1-4.6 2.9-5.5 5.3-5.4-4.1 0-12.4-7.7-15.7v13.2c-3 3.1-9.9 2.7-6.5-2.8 1.6-2.2-3.8-5.6-5.9-7.7-.1 2.8.8 10.5-2.9 11.2-3.2-4.8 1.6-13.5-6.1-16.8v17.4h-2.7c.5-4.3-1-7.7-5-10.1v6.2c-.7-1-2.3-1.9-2.7-.2-4.4-1-4.8 5.5-9.1 4.3-.1-5.6 1-11.6-5-14.7v16c-4.8 3.4-5.9-2.6-9.7-3.6-1.9 1.6.3 4.7 1.2 6.3-46.7 8.5-83.3 15.9-132.9 22.9-24.2 2.5-37 3.8-45 8.3-1.8-1-4.6-2.1-4.8-2.7-3.7-2.9 2.5-1.4 2.5-3.9-1.2-1.1-2.6 1.2-5.3-2.8 2-.4 8.7-1.2 3.3-2.5 1.5-.9 3.5-1.2 4.3-3.2-3.3.8-7.9 1.8-9.3-1.9-.3-.7-.6-1.4.8-1.7.9-.2 1-.6-.1-1.2-2.9.4-4.7-15-5.7-10.7.1 1.8 0 3.6-1.2 5.2-.9 3.3 2.1 4.1-2.7 6 .7.7 1.7.1 2.5.6.1.9-2.9 1.3-1.6 1.8.4.6 2 0 1.7 1-.6 2.9-4.3.8-6 1.4-.1 1.3 3.1 1.8 4.5 2.2-1.5.7-2.6.3-3.9.2.2.8.8 1.2 1.5 1.3 4.8 1.1-2 6.3-4.2 7h5.3c-1.9.9-3.4 1.7-.9 2.1-3.8 3.1-8-2-11.2-4.4 3-.6 5.7-.9 7.8-2.5-2.9-.8-6.3.1-9.1-1.9 1.8-.8 4-.8 5.7-3-6 2.1-8-2.2-11.6-4.7 7.2.6 10.8-3.1 14-7.9-3 .7-4.5 3.3-7.6 3.2 6.3-4.5-7.3 1.5-8.8-5 4.1-.4 8.2-.8 10.2-4.6-2.6.1-5 2.4-8.1 1 .9-.7 2.2-.9 2.9-2-1.6-.1-2.6-.5-1.6-2.1.8-1.1-4-.9-4.7-3-.4-.7-1-1.5.7-1.4 2.9-1-2.9-1.1-1-3.8.6-1.6 0-2.9-1.2-3.8-3.5-2.9-1-7.2-3-10.8-1.7 4.3-.4 9.4-3.3 13.6-1 2.1 1.3 5.1 3.1 6.1-2.2.9-4.5.6-6.9.1 1 1.9 3.2 2 4.7 3-1.1.9-2.4.3-3.6.6 3 4.2-4.8 1.4-6.7.7 1.2 4.2 7.3 3.7 7.1 5.2-.9 1.8-4 1.5-6.2 1.4 10.6 5.3 9.4 6.2-1.8 5.1 0 1 1 1 1.6 1.5-11.4-1.4-1.4 1.6 1.6 5.3.8 1.1 3 1.3 4.3.6 2.6-1.6.7.9 1.4 1.5v-.3c-1.1 1.8-6.7.6-6.1 3.9-2.5 2.5-8 4.3-9.4.2.8-.5 2.1.3 2.8-.8-1.2-.5-2.7-.6-3.9-1.7 3.2 0 6.2 1.5 9.1.2-1.8-.1-9.4-1.5-7.3-4-1.7-2.3-4.9-5.1-5-8 3.4-.5 6.5-1.6 9.2-4.4-3.2.7-6 2.3-8.8-.1.8-.3 1.6-.7 2.4-1.1-3.9-1.3-4.8-2.7-.5-4.5-5.4-.3-3-.2-.3-3.3-3.3-.4-4.6 2.7-5.1-2-1.5-3.7-2.2-7.2-3.4-10.9-2.5 4.1 1.9 11.5-3.9 12.8.6 1.3 2.5 1 2.4 2.3-1.9.8-4.6-2.9-5.1-1.7h0c.5 1.5 2.3 2.1 3.2 3.9-6-.8-3.5-2.6-5.8-2.5-2.3 0-5-.7-7.1-2.8.8-1.2 3.9 1 2.9-1.5-.1-.5 2.8-.4 3-1.1-2.1-.9-5.7-.3-8.1-1.6-4.3-2.6-1.9-4.5 2-3.8 2.5.2-.3-2.5 3.1-3.4-13.9-.7-5-6.7-9.2-6.4-1.4.2-2.5-.6-3-1.6.9-3.5-3.2-5.9-3-9.5-1.8-3-.6 5.1-2.1 6.2-.8 1.4.7 2.5 1.3 3.7h0c0 4.6-7.7 8.2-12 9 2.7 2.1 5.6.6 8.5.7-2 1.5-4.1 1.9-6.4 1.9 1 1 1.6 1.1 3.9 1.2q-1.3 1.6-9.7 2.5c5.5 4.1 16.9-.6 4.5 5.5 3.5.4 6.8.1 9.8-1.9-3.7 5.5-6.4 5.2-14.9 6.1 2.4 1.9 6 1.7 7.9 2.6-2.5 1-3.6.8-6.7.8 2.8 1.8 8.4 3 8.4 3.1-.6 2.2-7.4-.3-9-.9-2.8-.7 3.8 4.1 5.3 3.8 3.3.9 1.2 1.6.3 3.2-1.5 1.4-2.8 4.7-5.3 2.4 8.6-4.5-6-.1 1.3-4.6-6.4-.6-4.6-5.6-6.5-8.6-2.3 5.2 2.2 9.8-6.2 8.9.5 1.1 1.6 1.4 2.4 1.8 2.7 1.2-2.8 7.1-5.5 6 .9 1.1 2.5.4 3.4 1.2q-1.2.9-6.7.8c.6 2.4 5.8 1.9 4 4.1-.2 6.1-4.7 6.2-10.4 5.8 1.4 2.3 5.7 3.1 11.2 1.9-1.1 1.3-2.8 1.7-4.4 2.7h5c-9.3 5.4-37.2 1.5-43.6.2 5.9-7.9 1.3-5.4-3.2-1 .4-3.3-1.7-2.6-2.1 0-.9-.3-1.5-1.3-2.6-1.3.2-2.3 5.5-8.8 1.6-9.1-2.3.4-1.5 3.8-3 4.6-2.3-2.5-.7-8.2-5.4-9.5l.5 2.6c-2-.8-3.3 1.9-3.4 3.6-2.3 3.6-1.6-8.6-6.1-8.6 1.5 4.6.6 5.6-3.2 8.3.3-4.3-2.1-1.6-2.3.9-.9-.7-.7-.1-2.9.6-.7-3.5 6.4-10.8 2.2-11.9-2.3.4-1.5 3.8-3 4.6-2.3-2.5-.7-8.2-5.4-9.5l2.5 12.4c-2-.3-9.4-8.2-5.2-.6-2-.8-3.2 1.9-3.4 3.7-2.3 3.6-1.6-8.6-6.1-8.6-.6.1 4.8 16.3 1 11.6-9.6-7.7-2.8 2.1 1.1 5-1.3.5-2.6 1.1-3.7 1.5 5.1-6.6-2.2-1.8-4.4.8 0-.8.3-2-.6-2.3-1.9 1.1-1.2 4-4.6 3.2-.5-3.2 6.3-10.4 2.1-11.3-2.3.4-1.5 3.8-3 4.6-2.3-2.5-.7-8.2-5.4-9.5-.5 4 7.4 18.6-2.8 8.8.4-1.3 2.5-5-.3-4.4-1.5.5-2 2.3-2.3 3.7-2.3 3.6-1.6-8.6-6.1-8.6l2.5 12.4c-1.8-.2-3.6-2.7-5.4-3.7-4.2.6 4.7 6.7 5.3 8.6-2.4.1-4.9.1-7.6.2 4.2-6.8-2.9.8-4.9.1-.3-2-2.8.9-4.6.1.8-.6 2.8-.7 3.1-2-.1-.6-.5-.4-.8-.4-3.2 0 4.1-7.9-1.1-6.4-1.2-1.1-2.7 1.2-3.7 1.8-.4-2.9-1.1-5.7-4.2-6.8.3-1.2-.2-1.7-1.4-1.4-2.3.4-1.5 3.8-3 4.6-2.3-2.5-.7-8.2-5.4-9.5-.2.9 3.3 11.5 1.2 11.4-4.6-3.3-7.7-4.1-2.3 2-.4.4-.8.7-1.3 1.1-.1-6.1-3.2 1.8-2.8 4-5.5 6-.4-10.8 1.1-12.9.3-3.9-4.1.1-3.6 2.2-2.3 3.6-1.6-8.6-6.1-8.6-.1.3 3 12.7 2 12.4-2.5-1.8-4.6-3.9-7.3-5.5l1.5 7.5c-2.3 1.6-2.8 2.4-5.2 1-.3.2-.3.7-.2 1.1-2.5-1.2-1.1 4.9-3.5 4.1-4.7-2.2 5.8-12.7.6-12.4-1.5.5-2 2.3-2.3 3.7-2.3 3.6-1.6-8.6-6.1-8.6-.4 4.3 7.2 18.3-3.2 8.5 3.3-7.6-1.3-5.4-3.2-.1-2.3-2.5-.7-8.2-5.4-9.5-.6.1 4.8 16.3 1 11.6-.1-1.5-.2-3.1-2.3-1.7-.8-.4-1.5-1.7-2.4-1.4-1.1 1.7 2.9 4.3.2 5.6-2.3-2.6-.7-8.2-5.4-9.5.3 3.4 5.2 16.6-3.1 8.6 1.3-.9-.2-1.2-1.1-1.3 3-4.7-1.2-6.6-2.5-1.2h-.9c3.5-4.5 4.4-7.8-1.4-2.6-.2-2.6-1.5-4.5-3.9-5.5 2.8 13.2-7.5 13.3.4-1.8.3-3.9-4.1.1-3.6 2.2-2.3 3.6-1.6-8.6-6.1-8.6-.4 0 3.7 14 1.8 12.3-.3-.9-4.4-3.5-5.6-3.8-1.1 2.6 4.5 5.1 1.2 7.4-2.3-2.5-.7-8.2-5.4-9.5l.3 1.6c-1.9 0-2.6 2.2-2.8 3.8-2.3 3.6-1.6-8.6-6.1-8.6.9 3.4 1.9 7.8.2 11.1l-1.3-1c1.5-1.2 1.4-3.5-.8-1.9-.3-2.7-1.4-4.9-4-5.9.1 2.1 3.1 8.8-.4 9.6.5-2.5-1.4-3.2-1.9-.5-.6-.6-1.9-1.2-1.7.2-.4 0-.9 0-1.3-.1.5-2.3 6.5-13 .6-9.1-2.1 8.9-4.5-1.9-2.9-3.8-1.9.4-2.4-1.3-4.2-2l.5 2.4c-1.1.2-2.2.3-3.4 0 .7-.9 2.4-.3 2.6-1.6-2.3.3-13.1-3.6-9.4-5.4 3.9-.4 5.9.1 9.5-2.5-3.2-.1-5.9 0-8.5-2 1.5.5 6.5-1.1 3.7-1.8-4 .8-6-1.8-8.2-3.9-5.2-3.9 2.3-2.6 3.3-5.2-1.6-.9-3.9-.1-4.9-1.1.1-.6.7-.3 1-.4 3.3-.7-5-3.3-5.4-4.4-3.7-2.9 2.5-1.4 2.5-3.9-1.2-1.1-2.6 1.2-5.3-2.8 2-.4 8.7-1.2 3.3-2.5 1.5-.9 3.5-1.2 4.3-3.2-3.3.8-7.9 1.8-9.3-1.9-.3-.7-.6-1.4.8-1.7.9-.2 1-.6-.1-1.2-2.9.4-4.7-15-5.7-10.7.1 1.8 0 3.6-1.2 5.2-.9 3.3 2.1 4.1-2.7 6 .7.7 1.7.1 2.5.6.1.9-2.9 1.3-1.6 1.8.4.6 2 0 1.7 1-.6 2.9-4.3.8-6 1.4-.1 1.3 3.1 1.8 4.5 2.2-1.5.7-2.6.3-3.9.2.2.8.8 1.2 1.5 1.3 4.8 1.1-2 6.3-4.2 7h5.3c-1.9.9-3.4 1.7-.9 2.1-3.8 3.1-8-2-11.2-4.4 3-.6 5.7-.9 7.8-2.5-2.9-.8-6.3.1-9.1-1.9 1.8-.8 4-.8 5.7-3-6 2.1-8-2.2-11.6-4.7 7.2.6 10.8-3.1 14-7.9-3 .7-4.5 3.3-7.6 3.2 6.3-4.5-7.3 1.5-8.8-5 4.1-.4 8.2-.8 10.2-4.6-2.6.1-5 2.4-8.1 1 .9-.7 2.2-.9 2.9-2-1.6-.1-2.6-.5-1.6-2.1.8-1.1-4-.9-4.7-3-.4-.7-1-1.5.7-1.4 2.9-1-2.9-1.1-1-3.8.6-1.6 0-2.9-1.2-3.8-3.5-2.9-1-7.2-3-10.8-1.7 4.3-.4 9.4-3.3 13.6-1 2.1 1.3 5.1 3.1 6.1-2.2.9-4.5.6-6.9.1 1 1.9 3.2 2 4.7 3-1.1.9-2.4.3-3.6.6 3 4.2-4.8 1.4-6.7.7 1.2 4.2 7.3 3.7 7.1 5.2-.9 1.8-4 1.5-6.2 1.4 10.6 5.3 9.4 6.2-1.8 5.1 0 1 1 1 1.6 1.5-11.4-1.4-1.4 1.6 1.6 5.3.8 1.1 3 1.3 4.3.6 2.6-1.6.7.9 1.4 1.5v-.3c-1.1 1.8-6.7.6-6.1 3.9-2.5 2.5-8 4.3-9.4.2.8-.5 2.1.3 2.8-.8-1.2-.5-2.7-.6-3.9-1.7 3.2 0 6.2 1.5 9.1.2-1.8-.1-9.4-1.5-7.3-4-1.7-2.3-4.9-5.1-5-8 3.4-.5 6.5-1.6 9.2-4.4-3.2.7-6 2.3-8.8-.1.8-.3 1.6-.7 2.4-1.1-3.9-1.3-4.8-2.7-.5-4.5-5.4-.3-3-.2-.3-3.3-3.3-.4-4.6 2.7-5.1-2-1.5-3.7-2.2-7.2-3.4-10.9-2.5 4.1 1.9 11.5-3.9 12.8.6 1.3 2.5 1 2.4 2.3-1.9.8-4.6-2.9-5.1-1.7h0c.5 1.5 2.3 2.1 3.2 3.9-6-.8-3.5-2.6-5.8-2.5-2.3 0-5-.7-7.1-2.8.8-1.2 3.9 1 2.9-1.5-.1-.5 2.8-.4 3-1.1-2.1-.9-5.7-.3-8.1-1.6-4.3-2.6-1.9-4.5 2-3.8 2.5.2-.3-2.5 3.1-3.4-13.9-.7-5-6.7-9.2-6.4-1.4.2-2.5-.6-3-1.6.9-3.5-3.2-5.9-3-9.5-1.8-3-.6 5.1-2.1 6.2-.8 1.4.7 2.5 1.3 3.7h0c0 4.6-7.7 8.2-12 9 2.7 2.1 5.6.6 8.5.7-2 1.5-4.1 1.9-6.4 1.9 1 1 1.6 1.1 3.9 1.2q-1.3 1.6-9.7 2.5c3.3 3.2 9.1.9 10 2.2-.3 1.6-4 2.3-5.5 3.3 3.5.4 6.8.1 9.8-1.9-3.7 5.5-6.4 5.2-14.9 6.1 2.4 1.9 6 1.7 7.9 2.6-2.5 1-3.6.8-6.7.8 2.8 1.8 8.4 3 8.4 3.1-.6 2.2-7.4-.3-9-.9-2.8-.7 3.8 4.1 5.3 3.8 3.3.9 1.2 1.6.3 3.2-1.5 1.4-2.8 4.7-5.3 2.4 8.4-4.4-5.9-.3 1.3-4.6-6.4-.6-4.6-5.6-6.5-8.6-2.3 5.2 2.2 9.8-6.2 8.9.5 1.1 1.6 1.4 2.4 1.8 2.7 1.2-2.8 7.1-5.5 6 .9 1.1 2.5.4 3.4 1.2q-1.2.9-6.7.8c.6 2.4 5.8 1.9 4 4.1-.3 5.9-4.7 6.3-10.4 5.8 1.1 2 4.3 2.8 8.5 2.4.4 1.5-.6 1.7-1.7 2.3h1.8c-.5 6.7-4.7-.7-7.8-.2-.3-1.6-1.7-.7-2.3.2V763c-3.4 2.4-4.7 5.9-4.2 10.1h-2.3v-17.4c-6.7 3.5-2.4 12-5.2 16.8-3.3-1-2.3-8.6-2.5-11.2-1.9 2.2-6.2 5.1-5 7.7 2.9 5-2.6 6.2-5.5 2.8v-13.2c-6.3 3.2-2.2 10.7-5.9 15-2.1-1.1-2.6-4.6-5.3-4.6v-10.4c-2.8 2.1-4.5 4.7-4.2 8.4-6-3.7-11.5-6.8-16.7-9.4 3.5-8.6 1.7-9.8-2.7-1.7l-2.4-11.8c1.5-9.9-2.1-.2-4 1.6l-2.5-12.4c-3.3 2.8.1 6.8-2.3 9.8-1.7-.7-3-10-3.3-11.5-3.8 1.6 1.3 12.5-2 10.2-.7-1.2-1.7-2.5-3.2-2.6 2.5-9.1-1.4-3.8-3.4.7.1-.7.2-2.1-.7-2.1l-2.1-10.3c-3.6 2.9 0 7.5-1.1 10.8-2.2-.4-2.7-5.2-3.1-7-4 3.8 0 7-1.1 10.8-6.5-6.5-6.8-1.6-1.1 2.9-2.7-1.2-6.1-.8-8.8-1.2 3.5-8.3 2.2-10.7-2.6-2l-2.5-12.4c-3.6 2.9 0 7.5-1.1 10.8-1.6-.2-2.1-3.6-4.3-3.2-3.3 1.8 4 5.9 5 8l-2 1.8c-1.4-2.4-3.3-1.8-1.7.8-8.6-3.7-5.2-1.4-9.6 3.8l-2.5-12.4c-3.9 1.6 1.3 12.6-2 10.2-.7-1.2-1.8-2.7-3.3-2.6-4.1 3.3 11.5 9.1 5 13.1-.5-2.2-5.9-7.9-3.8-2.4-3.1-.7-4.9-1.8-4.9-5.1-3.9 2.3 1.2 13.3-2 10.2-.8-1.4-2.5-3.4-4.2-2.2-.8-.4-3.2-13.3-4-9.3.1 1.8 0 3.6-1.2 5.2-.9 3.3 2.1 4.1-2.7 6 .7.7 1.7.1 2.5.6.1.9-2.9 1.3-1.6 1.8 4.6 1.4-1.5 3.7-3.8 2.1l-1.1-5.4c-5 3.4 4.1 16-4.8 7.6.3-.2.6-.5.9-.9-6 2.1-8-2.2-11.6-4.7 7.2.6 10.8-3.1 14-7.9-3 .7-4.5 3.3-7.6 3.2 6.3-4.5-7.3 1.5-8.8-5 4.1-.4 8.2-.8 10.2-4.6-2.6.1-5 2.4-8.1 1 .9-.7 2.2-.9 2.9-2-1.6-.1-2.6-.5-1.6-2.1.8-1.1-4-.9-4.7-3-.4-.7-1-1.5.7-1.4 2.9-1-2.9-1.1-1-3.8.6-1.6 0-2.9-1.2-3.8-3.5-2.9-1-7.2-3-10.8-1.7 4.3-.4 9.4-3.3 13.6-1 2.1 1.3 5.1 3.1 6.1-2.2.9-4.5.6-6.9.1 1 1.9 3.2 2 4.7 3-1.1.9-2.4.3-3.6.6 3 4.2-4.8 1.4-6.7.7 1.2 4.2 7.3 3.7 7.1 5.2-.9 1.8-4 1.5-6.2 1.4 10.6 5.3 9.4 6.2-1.8 5.1 0 1 1 1 1.6 1.5-11.4-1.4-1.4 1.6 1.6 5.3.8 1.1 3 1.3 4.3.6 2.6-1.6.7.9 1.4 1.5v-.3c-1.1 1.8-6.7.6-6.1 3.9-2.5 2.5-8 4.3-9.4.2.8-.5 2.1.3 2.8-.8-1.2-.5-2.7-.6-3.9-1.7 3.2 0 6.2 1.5 9.1.2-1.8-.1-9.4-1.5-7.3-4-1.7-2.3-4.9-5.1-5-8 3.4-.5 6.5-1.6 9.2-4.4-3.2.7-6 2.3-8.8-.1.8-.3 1.6-.7 2.4-1.1-3.9-1.3-4.8-2.7-.5-4.5-5.4-.3-3-.2-.3-3.3-3.3-.4-4.6 2.7-5.1-2-1.5-3.7-2.2-7.2-3.4-10.9-2.5 4.1 1.9 11.5-3.9 12.8.6 1.3 2.5 1 2.4 2.3-1.9.8-4.6-2.9-5.1-1.7h0c.5 1.5 2.3 2.1 3.2 3.9-6-.8-3.5-2.6-5.8-2.5-2.3 0-5-.7-7.1-2.8.8-1.2 3.9 1 2.9-1.5-.1-.5 2.8-.4 3-1.1-2.1-.9-5.7-.3-8.1-1.6-4.2-2.6-2.1-4.5 2-3.8 2.5.2-.3-2.5 3.1-3.4-2.8.1-10.5-1.5-8.1-5 1.7-2.5-3.3-.7-4-2.6.8-2.5-1.2-4.1-2-6.2-.9-1.2-.5-3.9-1.8-4.3-.6.1-.4.6-.3.9.5 2.6-.8 4.2-2 6.2-1.5.5-2.3 2.6-3.5 3.7-.4-.3-.9-.3-1.3-.2v-10.7c-3.3 2.1-2.2 6.2-2.6 9.5-.2-.1-.7-1.8-1.1-1.5 1.8-3.1.5-5-1.7-1.4-1.4-1.1-3 .1-1.7 1.7-.3 0-.6.1-.9.1v-11.3c-3.9.8-1.1 12.1-3.8 9.2-.5-1.3-1.2-2.9-2.6-3.1-2.9.4 2.3 6-3.1 6.1V713c-5.2 2 .5 16.5-5.8 6-2.6.1-2.3 3.8-2.5 6.2-4.6 1.6-2.7-2.3-4.5-1-.9 1.6-2.2 2.2-4.1 2.2v-9.8c-4.1 1.1-.8 10.6-3.8 9.2-.5-1.3-1.3-3-2.8-3.1V718c-3.9 2-1.3 7.2-3.1 9.9-2-4.5-6.9-5.6-2.8.5-.7.1-1.5.3-2.2.4v-8.4c-4 1.7-.9 7.8-3.5 9.1 1.6-3.2.8-8.1-1.7-2.3-.5-.5-1.2-.7-1.8-.5-.1-3.1-.8-6.1-2.7-8.8-1.9 1.9-2 4.4-1.2 7-1.7 1-2.8.8-4.6.7-.7-.8-.7-4.6-2.1-2.9-2.3 1.4-.5 5.1-2.8 5.9.3-1.4-.2-2.6-.7-3.8 0 .1-.1.3-.1.4.2-.9-.4-1.9-1.2-.8-2 1.5-1.2 4-2.1 6-1.7 1.8-.4-3.2-1.4-3.8-1.4 12.1-8.2 14.2-7.3-.2-3.6 2.9 0 7.5-1.1 10.8-6.4-6.5-6.8-1.7-1.1 2.9h0c-.9-1-1.4 1.2-1.8 1.7-3.6 6.1-9.6-2.9-5-8.5-4 2.7-4.8 9-1.5 9.5-.4 0-.6.6-.4.9-.6-.9-3.6-5-4.1-3.4-4.1 11-5.5-1.9-5.8-7-3.6 2.9 0 7.5-1.1 10.8-6.7-4.9-1.1-9.9-7.9.2.5-4.3-3.8-8.1 1.6-12.4 0 0-6.1 3.3-5.6 5.5.2 1.1 1.9 7-.5 4.8-6.9-8-1.8 3.4-6.4 2.4l-2.3-11.2c-4.3 2.5 2.6 15-3.9 8-.9-.9-3.3-.3-2.3 1.2l-5.2-1.3c.6-1.5 4.1-9 .9-7.8-1.2 1.6-1.8 4.5-3.3 5.4l-2.5-12.4c-3.6 2.9 0 7.5-1.1 10.8-4.3-4.9-8.1-3.7-2.2 1.8L244 736c.3-1.6 4.9-10.4 1.3-9.1-3.9 10.9-6.4-1.6-5.8-7-1.7 3.3-3.3 5.3-6.4 7.5-.2-6.2-3.2 1.9-2.8 4.1-7.9-1.2 5.1-13.1-.3-14.5-2.3.4-1.5 3.8-3 4.6-1.5-.8-1.1-3.6-1.7-5.1-.4-2.2-.2 2.9-1.2 8-3.5.8-1.4-8.4-4.3-2.9-.6-.3-1.2-1.3-1.9-1 1.2 11-3.8-2.1-3.1-7.4-3.6 2.9 0 7.5-1.1 10.8-1.3 0-1.6-2.3-2.9-2.8-2.5-1.5-3.1 1.2-1.1 2.6-7.9-.7-1.9-8.5-1.8-12.3-1.1-2.8-2.6 2.8-3.5 3.7-.4.4-.4 1.5-1 1.3-.9-6.8-5.5-16.2-4-6.9 1.6 9.4.6 3.7-3.8 2.2-3.3 2 4.3 6 5.3 8.4-8.5-4.3-16-4.1-11.8-13.8 0-.8-.9-1.3-1.3-.4-1.3 1.6-3.2 8.3-3.7 3.3 1.1-.9 1.8-3.4-.4-2.1-1.6-2.5-2.1-5.2-1.6-8.1-4.3 2.5 2.6 15.1-3.9 8-1.1-.9-3.5-.2-2.1 1.5-.4-.1-.7-.2-1.1-.2 3.8-6.4 2.4-12.3-2-2.9-2.3-2.5-.7-8.2-5.4-9.5 2 3.4 2.6 7.4 2.4 11.8-2.5.2-9.3-7.7-5 .1-5.6.4-11.6 1.9-17.6 4.1.3-2.2 5.3-8.7 1.5-8.8-2.3.4-1.5 3.8-3 4.6-2.3-2.5-.7-8.2-5.4-9.5 3.7 6.7 4.9 16.7-2.9 8.7-3.7.2 2.9 5.9 4.2 7.1-3.5 1.4-6.9 3-10.3 4.7.3-2.1 5.3-8.6 1.5-8.7-2.3.4-1.5 3.8-3 4.6-2.3-2.5-.7-8.2-5.4-9.5 2.4 2.3 2.8 8.4 2.1 12.6-1.9-1.2-3.8-3.7-5.9-4 2 9 10.4 5.5-3 12.5 1.1-1.9 4.7-10.4-.2-6.6-1 .9-.5 3.2-1.7 3.7-1.4.4-2.8 4.4-4.1 2.4 2.2-1.5 3.9-3.6 5.6-6.1-3 .7-4.5 3.3-7.6 3.2 6.3-4.5-7.3 1.5-8.8-5 4.1-.4 8.2-.8 10.2-4.6-2.6.1-5 2.4-8.1 1 .9-.7 2.2-.9 2.9-2-1.6-.1-2.6-.5-1.6-2.1.8-1.1-4-.9-4.7-3-.4-.7-1-1.5.7-1.4 2.9-1-2.9-1.1-1-3.8.6-1.6 0-2.9-1.2-3.8-3.5-2.9-1-7.2-3-10.8-1.7 4.3-.4 9.4-3.3 13.6-1 2.1 1.3 5.1 3.1 6.1-2.2.9-4.5.6-6.9.1 1 1.9 3.2 2 4.7 3-1.1.9-2.4.3-3.6.6 3 4.2-4.8 1.4-6.7.7 1.2 4.2 7.3 3.7 7.1 5.2-.9 1.8-4 1.5-6.2 1.4 10.6 5.3 9.4 6.2-1.8 5.1 0 1 1 1 1.6 1.5-11.4-1.4-1.4 1.6 1.6 5.3 1.2 1.4 3.1.3 3 3-1.6.3-3.8.6-3.3 2.7-2.5 2.5-8 4.3-9.4.2.8-.5 2.1.3 2.8-.8-1.2-.5-2.7-.6-3.9-1.7 3.2 0 6.2 1.5 9.1.2-1.8-.1-9.4-1.5-7.3-4-1.7-2.3-4.9-5.1-5-8 3.4-.5 6.5-1.6 9.2-4.4-3.2.7-6 2.3-8.8-.1.8-.3 1.6-.7 2.4-1.1-3.9-1.3-4.8-2.7-.5-4.5-5.4-.3-3-.2-.3-3.3-3.3-.4-4.6 2.7-5.1-2-1.5-3.7-2.2-7.2-3.4-10.9-2.5 4.1 1.9 11.5-3.9 12.8.6 1.3 2.5 1 2.4 2.3-1.9.8-4.6-2.9-5.1-1.7h0c.5 1.5 2.3 2.1 3.2 3.9-6-.8-3.5-2.6-5.8-2.5-2.3 0-5-.7-7.1-2.8.8-1.2 3.9 1 2.9-1.5-.1-.5 2.8-.4 3-1.1-2.1-.9-5.7-.3-8.1-1.6-4.3-2.6-1.9-4.5 2-3.8 2.5.2-.3-2.5 3.1-3.4-13.9-.7-5-6.7-9.2-6.4-1.4.2-2.5-.6-3-1.6.9-3.5-3.2-5.9-3-9.5-1.8-3-.6 5.1-2.1 6.2-.8 1.4.7 2.5 1.3 3.7h0c0 4.6-7.7 8.2-12 9 2.7 2.1 5.6.6 8.5.7-2 1.5-4.1 1.9-6.4 1.9 1 1 1.6 1.1 3.9 1.2q-1.3 1.6-9.7 2.5c3.3 3.2 9.1.9 10 2.2-.3 1.6-4 2.3-5.5 3.3 3.5.4 6.8.1 9.8-1.9-3.7 5.5-6.4 5.2-14.9 6.1 2.4 1.9 6 1.7 7.9 2.6-2.5 1-3.6.8-6.7.8 2.8 1.8 8.4 3 8.4 3.1-.6 2.2-7.4-.3-9-.9-2.8-.7 3.8 4.1 5.3 3.8 3.3.9 1.2 1.6.3 3.2-1.5 1.4-2.8 4.7-5.3 2.4 8.4-4.3-5.9-.3 1.3-4.6-6.4-.6-4.6-5.6-6.5-8.6-2.3 5.2 2.2 9.8-6.2 8.9.5 1.1 1.6 1.4 2.4 1.8 2.7 1.2-2.8 7.1-5.5 6 .9 1.1 2.5.4 3.4 1.2q-1.2.9-6.7.8c.6 2.4 5.8 1.9 4 4.1-.2 6.1-4.7 6.2-10.4 5.8 1.4 2.3 5.7 3.1 11.2 1.9-1.1 1.3-2.8 1.7-4.4 2.7h5c-.6.7-2 1.1-2.2 1.9v-.3c-4.3 2-8.7 2.8-13.5 1.2 7.1 6.6 6.2 2.6 11.7 5.3-5.7 4-1.1 10.2-12.4 8.9 3 5.6 18.1 2.8 2.7 8.3 1.9.5 3.9.9 6.4 1.6-5 .1-9.4.3-13.8-.6 5.8 4.4 12.5 6.5 20.4 6.1-3.5 4-8.7 4.1-14.1 3.9 1.7 2.1 4.3 1.7 6.7 2.4-6.9 3.2-14.9 1.1-20.5-3 1.7 5.6 9.1 10 16 10-1.9 3.8-8.1.6-10.8 1.3a27.34 27.34 0 0 0 6.6 3.9c-7.4 9.4-13.6 18.3-18.3 25.6v-3.1c-4.5 2-4.4 5.3-4.3 9.3l-1.3-.3c3.2-5.2-1.1-4.1-3.6-1-1.1-1-3-.4-4.2-.5v-11.1c-4.9 2.2-4.3 6-4.3 10.2l-2.3-.4c4.4-5.4 1.2-6.7-3-2-1-.6-4-.6-3.6.7-.5.3 0-12.6-.2-12.6-9 2.8 1 18.5-9.8 7.6 3-8.8-5.6 3.2-8.1 1.4v-13.4c-6.9 1.1-2 14.9-6.6 11 3.1-4.2 2.9-8-2.4-2.9-2.6-1.9-5.9-.2-2.9 2.5-3.1 3.1-.9-13.6-1.5-13.8-6.5 2.2-2.5 8.4-5.2 11.9a1.15 1.15 0 0 1-1.3-.9c-3.9-6.8-10-3.4-2.8 2.4-1.8 0-3.6-.1-5.3-.1v-10.1c-4.9 2.2-4.3 6-4.3 10.2h-.7c1.3-2.6-1.4-2.7-2.7-.9-1.6-2.8-8-2.6-4.2 1.2-.6 0-1.1.1-1.7.1v-11.4c-6.4 2.2-2.6 8.3-5.2 11.9-2 0-1.9-2.9-3.8-3.7-5.5-2.7-4.5 1.7-1.3 4.3-1.7.2-3.3.4-4.9.7v-9.6c-1 .6-1.9 1.2-2.6 1.8.2-1.1-1.2-1.6-1.9-.8-11.9 12.4-5.4-2.2-7-9.2-6.5 2.2-2.5 8.4-5.2 11.9-2.3-.6-2.6-4.8-5.9-4.5-6.3 1.1 6.9 9.3 6.9 12.9-7.3 1.3-14.1 2.4-21.8 3.3 3.3-8.5-5 2-8 .8v-13c-7 1.2-1.9 14.6-6.5 11.1 3.5-3.7 2.1-7.4-2.1-2.7-2.7-2.4-6.4-.4-2.9 2.5-3.6 5.3-1-13.5-1.8-13.6-5.6 2.4-3.8 7-4.5 11.5-.3-.8-1.4-.6-1.9-.1-4-7.4-10.4-3.8-2.7 2.3-1.4.8-2.5 3-4.2 2.9v-14.4c-6.9 1.1-2 14.9-6.6 11-.6-2.2-4.9-5.2-6.6-2.9-2.7-.2-7 7.6-8.2 5 1-1 2.8-5 0-4.2v-10c-6.5 2.2-2.5 8.4-5.2 11.9-3.5-.1-1.7-9.3-2.1-11.3-3.1 1.7-4.6 3.7-4.2 6.8-1.8 0-1.9 1.1-.9 2.4-.7.2-1.2.8-1.8 1.3-1-1.9-4-4-6-2.6V815c-6.5 2.2-2.5 8.4-5.2 11.9a1.15 1.15 0 0 1-1.3-.9c-3.9-6.8-10-3.4-2.8 2.4l-4.9-1.2c2.8-4.9-1.3-3.6-3.5-.9l-4.4-1.1V815c-8.5 3.8.6 13.9-11.5 7.4v-7.3c-5.1 2.2-4.2 6.3-4.3 10.7-2.6 1-2.8-1.2-4.7-2.5-2.2-1.7-6-.5-3.1 2.2-1.5 1.8-3.6 1.9-5.7 2.1v-12.3c-6.5 2.2-2.5 8.4-5.2 11.9-1.9-.2-1.8-2.9-3.7-3.8-6.6-3-3.2 3.2-.3 5.5l-4 .6c.5-4.6-5.8 2.5-8.8 1.3V819c-6.5 2.2-2.5 8.4-5.2 11.9-1.9-.2-1.8-2.9-3.7-3.8-3.5-2.3-5.6.5-2.3 3.1-1.7 1.3-3 3.1-5.3 3.1v-13.7c-6.5 2.2-2.5 8.4-5.2 11.9-1.9-.2-1.8-2.9-3.7-3.8-7.8-3.2-1.8 4.5 1 6.8-4.2.4-8.6 1.9-12.8 1.5.8-5.5-5.7 3-8.7 1.6v-12.4c-6.5 2.2-2.5 8.4-5.2 11.9-1.9-.2-1.8-2.9-3.7-3.8-6.6-3-3.2 3.2-.2 5.5l-8.9 1.2c.2-3.7-6 2.3-8.9 1.2v-11.5c-6.5 2.2-2.5 8.4-5.2 11.9-1.9-.2-1.8-2.9-3.7-3.8-6.1-2.8-4 2.2-.9 4.7-1.1.2-2.3.3-3.5.6V835c-5.2 1.8-3.4 6.3-4.8 9.2v-7.6c-3 1.6-4.6 3.6-4.2 6.5-3-2-5.6.3-2.5 2.8-1 .5-1.4-.8-2.2-1.2-1.2-1.2-5.5-1.2-3.8 1.1-1.8 1.8-5 3.3-7.6 3.6V837c-6.5 2.2-2.5 8.4-5.2 11.9-1.9-.2-1.8-2.9-3.7-3.8-7.5-3.1-2.1 4.2.6 6.4l-7.5 1.9c.5-3.2-2.7-.8-3.7.3-1.6-1.1-5.7-.7-2.6 1.3l-2.6.7V843c-6.5 2.2-2.5 8.4-5.2 11.9-1.9-.2-1.8-2.9-3.7-3.8-7.7-3.2-1.9 4.4.8 6.6l-3.8 1c2.3-8.3-5.7 4.1-8.3.8V847c-6.5 2.2-2.5 8.4-5.2 11.9-1.9-.2-1.8-2.9-3.7-3.8-5.8-2.8-4.2 2-1.1 4.5-1.4 1.7-3.6 1.4-5.5.9v-11.3c-5 2.2-4.3 6.2-4.3 10.4-.8-.2-3.4-.4-3.7-1.4 8.8-11.1-.7-5-5.2-.9-.5.3 0-14.5-.2-14.6-6.5 2.2-2.5 8.4-5.2 11.9-1.9-.2-1.8-2.9-3.7-3.8-5.6-2.8-4.1 2.3-1 4.7-3.1-2.5-18 3.6-21.3 4.4v-10.8c-6.9 1.1-2 14.9-6.6 11-.3-2.3-6.2-5.7-6.5-2.3-12.1 4.6-8 12.6-8.8-9.2-6.5 2.2-2.5 8.4-5.2 11.9-2.3-.6-2.6-4.8-5.9-4.5-6 1.5 6.1 8.6 6.6 12.1l-7.6 2.4c.2-.4.4-.9.3-1.3h3.2c-.8-2.3-5.5-5.8-4.1-1-5.8-2.2-9-1.6-8-8.7-6.5 2.2-2.5 8.4-5.2 11.9-1.9-.2-1.8-2.9-3.7-3.8-8.5-3.2-.6 5.5 1.9 7.8-1.1.4-4.4 1.4-5.4 1.1-.7.7-1.9 1.3-3 1.5-3.9-2.3-12.7-4-4 1.3l-8.3 2.6v-6.3c-6 2.2-2.4 7.3-6 8.1v-9.8c-4.4 2-4.4 5.2-4.3 9.2-1-.3-3.1-.1-2.9.8-4.3-5.4-8.5-1.6-2.7 2.9-.4.6-11 2.4-9.5 4-1.6-1.1-5.9-.8-2.6 1.2 7.7-1.1 11.7 186.8 14.4 188.8l1571.2 35.4-.1 1.5c16.1-.6 48.8-.7 64.9 0v-1.2c862.6-30.4 2605.4-36.6 3463 1.2l-5-160.1c11.5-6.5 13-126.8 6.3-133.9zM91.3 731.6v-.3c-.1 1.1-.8-1-1.2-1.2 2.2-1.6.5 1.1 1.2 1.5zm18.2-.2c-8.4-4.1-1.1-7.2 3.3-2.1l-3.3 2.1zm110.9-4l.9-2.1c1.2 1.2 2.6 2.1 3.4 3.6-1.5-.4-2.9-.9-4.3-1.5zm13.4 4.8c2-.8 3.3-.2 4.6 1.5l-4.6-1.5zm3.1-4.1a8.55 8.55 0 0 1 1.8-2.6l.6 3.2c-.7-.6-1.5-.8-2.4-.6zm43.5 17c.2-.5.4-1.1.6-1.7.7.7 1.4 1.5 2.1 2.2-.8-.1-1.7-.3-2.7-.5zm9.4 1.7c.4-1.1.9-2.2 1.4-3.3 1.2 1.4 2.5 2.7 3.8 4-1.7-.2-3.4-.5-5.2-.7zm11.7 1c.5-1.4 1.2-2.7 1.6-4.1l3.6 3.8c-1.5.2-3.2.3-5.2.3zm25.3-13.4c-3.3 1.8-2.5-1.4.3-1a12.59 12.59 0 0 0-.3 1zm5.9-1.8c.3-.6-.3-1-.8-1 2 .6 9.1-1 3.5-1.9.3-.2.6-.5.9-.7.7.7 1.4 1.5 2.1 2.2-2 .4-3.9.9-5.7 1.4zm6.9-4.2c-.7.3-1-.7-1.3-1.1.5-.4 1.1-.8 1.4-1.3.1.7.7 2-.1 2.4zm4 1.6h-.4c.1-.4.1-.9.1-1.3.2.5.7.9.3 1.3zm14.9-2.7v-1.5c.3.5.6.9.9 1.4-.3 0-.6.1-.9.1zm17.6-2.5v-1.3c.3.4.5.8.8 1.2-.3 0-.6.1-.8.1zm25 6.9h0c-.3-.4-.7-1-.3-1.4.4.4.3.9.3 1.4zm2.8-3.4c0 .4-.1.7-.3.8 0-.6-.2-3.4.3-3.8v3zm2.5-1v-2c.1.1.1.2.2.3h0c0 .6-.1 1.2-.2 1.7zm77.6 51.3c-.6-.5-1.2-1.1-2-1.6.7-.1 1.4-.3 2-.4-.1.6-.1 1.3 0 2zm1.4-4.6c-1.6-.1-3.2-.4-4.7-1.4 1-.5 2.1-.7 3.2-1.1.2.8 1 1.7 1.6 2.3 0 0 0 .1-.1.2zm5.1 8.3c-2.3-.3-4.1-3.9-4.4-6.1 1.9-1 2.8 1.4 4 2.5-.5.3-.9.5-1.3.6 2.4-.5 3.1 1.4 1.7 3zm3.5-8.4c-1.4 3.7-1.3-1.2-1.7-2 1.1.6 3 .5 1.7 2zm-1.9-2.9l-.3-1.4c1 .6 2.8.9 3.8 1.2-1.4.6-2.4.3-3.5.2zm11.2-4.9c-1-3.6 3.1 1.8 4.1 2.6-1.8 0-3.4-.7-4.1-2.6zm6.4-5.9c.4.3.8.6 1.2 1-.4.1-.7.3-.9.4l-.3-1.4zm2.3 4.8c-.4 1.1-1.1 2-1.2.3.5-.1 1-.3 1.4-.6-.1.1-.1.2-.2.3zm12.9-11.6c-.2.9-2.1.7-1.1 1.8L522 757c.6-2.6 2.2-4.7 2.5-7.5.9.5 1.8 1 2.7 1.9-1.2.3-1.8 1.1-2.3 2zm27.7-8.2c-.6.4-.7-2.4-.9-2.6.8.8 1.8 1.5.9 2.6zm1.8 2.9c.2-.4.3-.9.5-1.3.2.5.5 1.1.6 1.6-.4-.1-.7-.2-1.1-.3zm8.6 2.7c-.5-.8-2.5-3-2.5-.8-3.4-.4-2.3-5-1.3-7.3 2.1 3.3 6.5 5.3 7 9.3l-3.2-1.2zm7.8 3c-1.6-.4-1.1-2.9-1.2-4.3.8.9 1.6 1.9 2.2 3.1-.8.2-1.2.6-1 1.2zm5.4 2c-1.2-.8-1-4.2-.5-5.7-.1 1.7 1.5 4.3.5 5.7zm227.1 48c-1.6-.7-5-5.4-6.1-3.4-1.3-.6-2.4-1.9-3.8-2.5 1.6-2.7 6.9.2 8.9-1.2-.2.1 1.8 7.3 1 7.1zm6.6 4.9c-1.6-1-3.5-.9-.8-2.1.1.8 1 1.4.8 2.1zm9.3 3.8c.2-3.1 1.6-2.1 2.4.3l-2.4-.3zm5.6-.9c0-.5.1-1.1.2-1.6.2.3.5.5.7.8-.3.2-.6.5-.9.8zm3.6-3.1c-4.2 1.1-1.2-4.4-.3-6.6l1.1 5.6c-.4 0-.6.5-.8 1zm9.6 2.1c-.8-.2-1 .8-1.2 1.4-.9-.4-1.5-1.3-2.6-1.3.6-1.4 1.1-2.9 1.9-4.1 1.3 1.1 1.9 2.7 2.3 4.3 0-.1-.2-.2-.4-.3zm.6 2.3c.1-.6 0-.8 0-1.3 0 .5.5 1.1 0 1.3zm8.1-1c-.2-.2.1-.4.3-.4.1.3-.1.3-.3.4zm7.5 1.7c-.2 1.6-2.1.6-3.2.8.5-1.5.6-3.4 2.4-3.8-.3 1.2 1.4 2 .8 3zm14.4 1.3c-.8-1-2.9.5-4.4-.1.5-1.3 1.1-2.5 1.6-3.8 1.2 1.1 2.6 2.2 3.1 3.9h-.3zm7.2-3.8c-.5 1.3-.8 2.6-1 3.9h-1.1c2.2-2.2.7-3.6-1.4-1.4.1-2.1 1-3.9 1.8-5.8.2 1.3 2 2.2 1.7 3.3zm13.4 2c.1-.6 0-1 0-1.6.2.4.4.7.6 1.1-.2.2-.4.4-.6.5zm5.9.9l-1.7-1.4c.5-.7 1-1.3 1.5-1.9-.1.3 1 3.5.2 3.3zm3.9-4c-.9 2.6-1.9-1-2-2.2.6.8 1.9 1.3 2 2.2zm.7 5.3c.4-1 .8-2 1.3-3 .4 1 .6 2 .8 3.1-.7 0-1.4 0-2.1-.1zm10 .1c.6-1.7 4-.5 5.5-1 .1.3.2.7.2 1h-5.7zm10.6 0c-2.5.6-2.1-1.5-2.1-3.4.4 1.3 2.8 2.3 2.1 3.4zm2.6-7.2c-1.4.1-1.4 2.5-1.9 3.6-4.9-2.1.3-6.5.8-10.2l1.4 6.7c-.1-.1-.2-.1-.3-.1zm5 1.8c0 .5-.3 1-.8.9.3-.5.6-.9.9-1.4-.1.2-.1.4-.1.5zm24.9 2c-.5 2.3-.9 3.3-3.5 3 0-2.3.9-4.3 1.8-6.2.4 1.2 2.4 1.9 1.7 3.2zm25.9-3.3c.8-3 3.1-5.9 3.1-9 1.3 1.6 3.1 2.8 4.4 4.4-1.5 1-4.3 2.7-7.5 4.6zm20.1-4.8c.4-.9.9-1.5 1.4-2.2l.5 2.4c-.6-.2-1.2-.3-1.9-.2zm6.3 5.7c0-.2.1-.4.2-.6.3.3.6.7.9 1-.3-.2-.7-.3-1.1-.4zm4.4-2.1c-.6-.1-.8.4-1 .9-4-1.7-.6-4.6-.1-7.7l1.4 6.9s-.1-.1-.3-.1zm391.1-32.8l.6-.9c.1.3.3.6.4.9h-1zm45 2.9c-.3-.1-.6-.1-.9-.2.3-.4.6-.9.9-1.3v1.5zm131.8 37.8c-1.4-.4-2.7-.8-4-1.3 1.4-1.9 3-3.8 4-6v7.3zm68.7 18.9c.9-1.3 1.9-2.5 2.8-3.8.3 1.7 1.2 3.4 2.1 4.8-1.7-.3-3.3-.6-4.9-1zm79 6.2c-.5 0-1.2-.2-1.9-.3.7-1 1.4-2 1.9-3.2v3.5zm6.2 4.3c-.8-.2-1.2-.9-1.1-1.8.3.6.7 1.2 1.1 1.8h0zm7.7-1.4c0 .2-.1.5 0 .8-.3.1-.6.1-.9.2.3-.4.7-.9 1-1.4v.4h-.1zm81.7 27.5c.4-.3.8-.7 1.2-1 0 .7.3 1.3.5 1.9-.5-.3-1.1-.6-1.7-.9zm23.6 8.6c-1.3.5-1.9-1.5-2.9-2.1 1-1.2 1.9-2.5 2.9-3.7v5.8zm11.5 4.2c-.2.7-.8 1.5-1.7 1.2.6-.5 1.2-1 1.8-1.4 0 0 0 .1-.1.2zm8.2 5c-.7-.2-1.6-.3-2.2-.7h2.6c-.1.3-.2.5-.4.7zm194.1-6c.1-.1.2-.3.3-.4.1.1.1.2.2.3-.2 0-.4.1-.5.1zm85.5-43.9l-.4.1c.1-.1.1-.3.1-.4.1 0 .3.1.3.3zm20.1-3.4l.6-.6c.1.2.2.3.2.4l-.8.2zm150.7-12.9c-1.4.2-1.5-1.3-2.9-1.4-.1-1.4 0-2.7-.1-4.1 1.3 1.4 2.8 2.6 4.3 4-.5.4-1 .9-1.3 1.5zm68.6 6.6c.1-.2.3-.3.5-.5l.5.5h-1zm23.5-1.2c-1.5.2-3 .3-4.6.5 1.4-1.3 2.9-2.6 4.1-4.1.5 1.5 1.6 2.7 2.7 3.9l-2.2-.3zm26.1 3.3c.3-.3.7-.7 1.1-1 .5.5 1 .9 1.6 1.4l-2.7-.4zm7.6-1.7c-1.4.3-2.4-1.4-3.6-2 1.3-1.3 2.7-2.4 3.6-3.8v5.8zm279.5 33a1.38 1.38 0 0 1 .4-.3c.1.1.1.2.2.2l-.6.1zm72.5.6c1.5-1.5 3.3-2.9 4.5-4.7.1 3.2 3.5 5.2 5.8 7.4l-10.3-2.7zm39.2 10.4c-2.9-.3-5.2-2.4-7.4-4 2.7.1 5.2.2 7.4-1.5v5.5zm37.3 6.2c-.1-.1-.1-.3-.2-.4.2.1.3.2.5.3l-.3.1zm654.2-26.5c1.1.4 1.9.9 1 2-1 1 0 3.2-1 4v-6zm.7 10.7c-.2-.2-.4-.4-.6-.7.5-.1 1.1-.2 1.7-.3a2.59 2.59 0 0 1-1.1 1zm136 1.3c-2.1-.9 2.8-.4.6-1.8.9-.1 1.9-.2 2.9-.4-.9 1.1-2.2 1.5-3.5 2.2zm109.1-7.9c-.3-1.2.8-.9 1.6-1.1-.5.3-1 .7-1.6 1.1zm0-3.8c-.1-1.2-.1-2.5 1.3-2.8.6 1.1 1.3 2.1 1.9 3.2-1-.1-2.1-.2-3.2-.4zm13.4-11.4v-2.6c.2 1 .6 1.9 0 2.6z" fill="#402b48"/></g></svg>