<svg xmlns="http://www.w3.org/2000/svg" viewBox="0 0 3840 1080" xmlns:v="https://vecta.io/nano"><defs><clipPath id="A"><path d="M0 0h3840v1080H0z" fill="none" stroke-width="0"/></clipPath></defs><g clip-path="url(#A)" fill="#91414e"><path d="M2115 644.8c-7-3.5-14-7-20.9-11.1-9-5.3-11.1-16.9-21.7-19.6-33-8.3-27.1-27.1-45.6-39.9-22.2-15.4-46.1-22.8-63.5-43-6.6-7.6-13.1-15.1-20.1-21.7-6.7 8.8-13.9 16.8-21.4 24.3-.1-.1-.3-.2-.2-.4.2-.3.5-.1.9-.4.1 0 .2 0 .2-.2 0-.1-.1-.1-.2-.1q-.5 0-.8-.2c0-.1.1-.1.2-.1.7-.1-1.1-.7-1.1-.9-.8-.6.5-.3.5-.8-.2-.2-.6.2-1.1-.6.2 0 .4-.1.7-.1.2 0 .4 0 .5-.2 0-.3-.3 0-.4-.2.3-.2.7-.3.9-.7-.7.2-1.7.4-2-.4-.1-.1-.1-.3.2-.4.2 0 .2-.1 0-.2-.4-.2-.6-.5-.6-.9s-.4-.8-.4-1.2c0-.1 0-.2-.1-.3-.1 0-.1.1-.1.2 0 .4 0 .8-.2 1.1-.2.5.5.9-.4 1.1-.1 0-.2 0-.2.1.1.1.4 0 .5.1 0 .2-.3.2-.4.3h.1c.1.1.4 0 .4.2-.1.4-.7.4-1 .3-.1 0-.2-.1-.2 0 0 .3.6.4.9.5-.3.2-.6.1-.8 0 0 .2.2.3.3.3 1 .2-.4 1.3-.9 1.5h1.1c-.2.1-.4.2-.5.3 0 .2.2.1.3.2-.1.2-.8.3-1 .1-.5-.3-.8-.7-1.3-1 .6-.1 1.2-.2 1.6-.5-.6-.2-1.3 0-1.9-.4.4-.2.8-.2 1.2-.6-1.3.4-1.7-.5-2.4-1 1.5.1 2.3-.6 2.9-1.7-.6.2-1 .7-1.6.7.2-.1.3-.2.5-.4 0 0 0-.1-.1-.1-.9.3-1.7.4-2.3-.6.9-.1 1.7-.2 2.2-1-.6 0-1.1.5-1.7.2.2-.2.5-.2.6-.4-.3 0-.5-.1-.3-.4.2-.2-.8-.2-1-.6-.1-.1-.2-.3.2-.3.2 0 .3-.2.1-.2-.4-.1-.4-.3-.3-.6s0-.6-.3-.8c-.7-.6-.2-1.5-.6-2.3a.76.76 0 0 0-.2.4c0 .9-.1 1.7-.5 2.5-.2.5.3 1.1.6 1.3-.5.2-.9.1-1.4 0 .2.4.7.4 1 .6-.2.2-.5.1-.7.1-.1.2.3.2.2.4-.2.2-.4.1-.6.1-.3-.1-.7-.1-1-.3.2.9 1.5.8 1.5 1.1-.2.4-.8.3-1.3.3.3.3.8.5 1.1.5.3.1.3.3.5.4.1.3-1.7.1-2 .1 0 .2.2.2.3.3-.4.2-.9-.3-1.1-.1 0 .5 1.2.7 1.4 1.2.2.2.6.3.9.1.1 0 .2-.2.3-.1.2.1-.1.3 0 .4v-.1.1l-.9.3c-.3 0-.4.3-.4.5-.1.2-.4.3-.6.4-.1 0-.2.1-.3.1h-.1c-.6.3-.7-.2-.9-.5.2-.1.4.1.6-.2-.3-.1-.6-.1-.8-.4h0c.7 0 1.3.3 1.9 0-.4 0-2-.3-1.5-.8 0 0 0-.1-.1-.1-.5-.4-.9-1-1-1.6.7-.1 1.4-.3 1.9-.9-.7.1-1.3.5-1.9 0 .2-.1.3-.1.5-.2-.2-.2-.7-.1-.7-.4-.1-.3.4-.4.6-.5-.2-.2-.5.1-.7 0 0-.2.2-.2.3-.3l.3-.3c-.7-.1-1 .6-1.1-.4-.1-.5-.5-1-.5-1.5 0-.3.1-.5-.2-.8-.2.6-.2 1.2-.2 1.8 0 .4 0 .8-.6.9.2.2.3.3.5.3v.1c-.4.1-.7-.3-1-.4 0-.1-.1-.1-.1 0h0c.1.3.5.4.7.8-1.3-.2-.7-.5-1.2-.5s-1.1-.2-1.5-.6c.1-.1.2-.1.3-.1.2 0 .5.1.3-.3 0-.1.3-.1.5-.2.1 0 .2 0 .2-.1s-.1-.1-.2-.1c-.5.1-1-.1-1.5-.2-.3-.2-.6-.4-.5-.7.3-.2.6 0 .9-.1.5 0-.1-.5.7-.7-.6 0-2.2-.3-1.7-1 .2-.2.1-.4-.2-.3-.3 0-.4-.1-.6-.3v-.1c.2-.5-.3-.8-.4-1.2-.1-.3-.2-.5-.2-.8 0-.1 0-.2-.2-.2-.1 0-.1.1-.1.2 0 .4 0 .8-.2 1.3-.2.3.1.5.3.8.1.5-.3.9-.8 1.1-.6.3-.9.8-1.7.8.6.4 1.2.1 1.8.2-.4.3-.9.4-1.3.4.2.2.3.2.8.3q-.3.3-2 .5c.7.7 1.9.2 2.1.5-.1.3-.8.5-1.1.7a3.19 3.19 0 0 0 2.1-.4c0 .3-.3.4-.4.5q-1 .6-2.7.7c.5.3 1.1.5 1.7.5v.1c-.4.2-.6.2-1 .2-31.4-24.6-36.9-50-75.1-78.1-1.5 1-2.8 2.1-4.1 3.2-.9.8-31.6 35.7-75.2 73.9-.3-.2-.6-.3-.7-.4-.8-.6.5-.3.5-.8-.2-.2-.6.2-1.1-.6.2 0 .4-.1.7-.1.2 0 .4 0 .5-.2 0-.3-.3 0-.4-.2.3-.2.7-.3.9-.7-.7.2-1.7.4-2-.4-.1-.1-.1-.3.2-.4.2 0 .2-.1 0-.2-.4-.2-.6-.5-.6-.9s-.4-.8-.4-1.2c0-.1 0-.2-.1-.3-.1 0-.1.1-.1.2 0 .4 0 .8-.2 1.1-.2.5.5.9-.4 1.1-.1 0-.2 0-.2.1.1.1.4 0 .5.1 0 .2-.3.2-.4.3h.1c.1.1.4 0 .4.2-.1.4-.7.4-1 .3-.1 0-.2-.1-.2 0 0 .3.6.4.9.5-.3.2-.6.1-.8 0 0 .2.2.3.3.3 1 .2-.4 1.3-.9 1.5h1.1c-.2.1-.4.2-.5.3 0 .2.2.1.3.2-.1.2-.8.3-1 .1-.5-.3-.8-.7-1.3-1 .6-.1 1.2-.2 1.6-.5-.6-.2-1.3 0-1.9-.4.4-.2.8-.2 1.2-.6-1.3.4-1.7-.5-2.4-1 1.5.1 2.3-.6 2.9-1.7-.6.2-.9.7-1.6.7.2-.1.3-.2.5-.4 0 0 0-.1-.1-.1-.9.3-1.7.4-2.3-.6.9-.1 1.7-.2 2.1-1-.6 0-1.1.5-1.7.2.2-.2.5-.2.6-.4-.3 0-.5-.1-.3-.4.2-.2-.8-.2-1-.6-.1-.1-.2-.3.2-.3.2 0 .3-.2.1-.2-.4-.1-.4-.3-.3-.6s0-.6-.3-.8c-.7-.6-.2-1.5-.6-2.3a.76.76 0 0 0-.2.4c0 .9-.1 1.7-.5 2.5-.2.5.3 1.1.6 1.3-.5.2-.9.1-1.4 0 .2.4.7.4 1 .6-.2.2-.5.1-.7.1-.1.2.3.2.2.4-.2.2-.4.1-.6.1-.3-.1-.7-.1-1-.3.2.9 1.5.8 1.5 1.1-.2.4-.8.3-1.3.3.3.3.8.5 1.1.5.3.1.3.3.5.4.1.3-1.7.1-2 .1 0 .2.2.2.3.3-.4.2-.9-.3-1.1-.1 0 .5 1.2.7 1.4 1.2.2.2.6.3.9.1.1 0 .2-.2.3-.1.2.1-.1.3 0 .4v-.1.1l-.9.3c-.3 0-.4.3-.4.5-.1.2-.4.3-.6.4-.1 0-.2.1-.3.1h-.1c-.6.3-.7-.2-.9-.5.2-.1.4.1.6-.2-.3-.1-.6-.1-.8-.4h0c.7 0 1.3.3 1.9 0-.4 0-2-.3-1.5-.8 0 0 0-.1-.1-.1-.5-.4-.9-1-1-1.6.7-.1 1.4-.3 1.9-.9-.7.1-1.3.5-1.9 0 .2-.1.3-.1.5-.2-.2-.2-.7-.1-.7-.4-.1-.3.4-.4.6-.5-.2-.2-.5.1-.7 0 0-.2.2-.2.3-.3l.3-.3c-.7-.1-1 .6-1.1-.4-.1-.5-.5-1-.5-1.5 0-.3.1-.5-.2-.8-.2.6-.2 1.2-.2 1.8 0 .4 0 .8-.6.9.2.2.3.3.5.3v.1c-.4.1-.7-.3-1-.4 0-.1-.1-.1-.1 0h0c.1.3.5.4.7.8-1.3-.2-.7-.5-1.2-.5s-1.1-.2-1.5-.6c.1-.1.2-.1.3-.1.2 0 .5.1.3-.3 0-.1.3-.1.5-.2.1 0 .2 0 .2-.1s-.1-.1-.2-.1c-.5.1-1-.1-1.5-.2-.3-.2-.6-.4-.5-.7.3-.2.6 0 .9-.1.5 0-.1-.5.7-.7-.6 0-2.2-.3-1.7-1 .2-.2.1-.4-.2-.3-.3 0-.4-.1-.6-.3v-.1c.2-.5-.3-.8-.4-1.2-.1-.3-.2-.5-.2-.8 0-.1 0-.2-.2-.2-.1 0-.1.1-.1.2 0 .4 0 .8-.2 1.3-.2.3.1.5.3.8.1.5-.3.9-.8 1.1-.6.3-.9.8-1.7.8.6.4 1.2.1 1.8.2-.4.3-.9.4-1.3.4.2.2.3.2.8.3q-.3.3-2 .5c.7.7 1.9.2 2.1.5-.1.3-.8.5-1.1.7a3.19 3.19 0 0 0 2.1-.4c0 .3-.3.4-.4.5q-1 .6-2.7.7c.5.3 1.1.5 1.7.5v.1c-.5.2-.8.2-1.4.2.6.4 1.8.6 1.8.7-.1.3-.6.2-1 .1l-13.3-11.1c-10.9 9.5-22.6 20.8-44 35.9-5.9 4.2-11.7 8.6-17.3 13.1-.4-.6 0-1.4-.4-2a.76.76 0 0 0-.2.4c0 .9-.1 1.7-.5 2.5v.1c-1.4 1.1-2.8 2.3-4.2 3.4-.1 0-.1-.1-.2-.1.2-.1.3-.1.5-.2-.2-.2-.7-.1-.7-.4-.1-.3.4-.4.6-.5-.2-.2-.5.1-.7 0 0-.2.2-.2.3-.3l.3-.3c-.7-.1-1 .6-1.1-.4-.1-.5-.5-1-.5-1.5 0-.3.1-.5-.2-.8-.2.6-.2 1.2-.2 1.8 0 .4 0 .8-.6.9.2.2.3.3.5.3v.1c-.4.1-.7-.3-1-.4 0-.1-.1-.1-.1 0h0c.1.3.5.4.7.8-1.3-.2-.7-.5-1.2-.5s-1.1-.2-1.5-.6c.1-.1.2-.1.3-.1.2 0 .5.1.3-.3 0-.1.3-.1.5-.2.1 0 .2 0 .2-.1s-.1-.1-.2-.1c-.5.1-1-.1-1.5-.2-.3-.2-.6-.4-.5-.7.3-.2.6 0 .9-.1.5 0-.1-.5.7-.7-.6 0-2.2-.3-1.7-1 .2-.2.1-.4-.2-.3-.3 0-.4-.1-.6-.3v-.1c.2-.5-.3-.8-.4-1.2-.1-.3-.2-.5-.2-.8 0-.1 0-.2-.2-.2-.1 0-.1.1-.1.2 0 .4 0 .8-.2 1.3-.2.3.1.5.3.8.1.5-.3.9-.8 1.1-.6.3-.9.8-1.7.8.6.4 1.2.1 1.8.2-.4.3-.9.4-1.3.4.2.2.3.2.8.3q-.3.3-2 .5c.7.7 1.9.2 2.1.5-.1.3-.8.5-1.1.7a3.19 3.19 0 0 0 2.1-.4c0 .3-.3.4-.4.5q-1 .6-2.7.7c.5.3 1.1.5 1.7.5v.1c-.5.2-.8.2-1.4.2.6.4 1.8.6 1.8.7-.1.5-1.6-.1-1.9-.2 0-.1-.1-.1-.2 0-.1 0 0 .1.1.1.3.4.7.6 1.2.7.7.2.2.3.1.7-.3.3-.6 1-1.1.5.2-.1.4-.2.6-.4-.1-.3-.6 0-.7-.2s.3-.2.4-.4c-1.3-.1-1-1.2-1.4-1.8 0 .4-.4.8-.2 1.3.2.6-.6.6-1.1.6.1.2.3.3.5.4.5.3-.2.6-.3 1-.1 0-.1.1-.2.1-.2.1-.5.1-.7.1.2.2.5.1.7.3q-.2.2-1.4.2c.1.5 1.2.4.8.9-.1.1-.1.2-.1.2.1 1.2-1.2 1-2.1 1 .3.5 1.2.6 2.4.4-.2.3-.6.3-.9.6h1.1c-.2.1-.3.2-.5.3v.1-.1c-.9.4-1.8.6-2.8.3 1.5 1.4 1.3.5 2.5 1.1-.4.3-.8.6-.7 1.2 0 .1-.1.1-.1.2v-.1c0-.3.1-.5-.2-.8-.1.4-.2.8-.2 1.2-.4.2-1 .3-1.4.2.3.5.8.6 1.2.8.1 0 .1.1.2.1 0 .3-.2.5-.6.5.1.1.2.2.3.2-.1 0-.2.1-.3.1-.1-.1-.3-.2-.4-.3 0-.1-.1-.1-.1 0h0c.1.2.3.4.5.6h-.6c-.3-.2-.1-.3-.5-.3-.5 0-1.1-.2-1.5-.6.1-.1.2-.1.3-.1.2 0 .5.1.3-.3 0-.1.3-.1.5-.2.1 0 .2 0 .2-.1s-.1-.1-.2-.1c-.5.1-1-.1-1.5-.2-.3-.2-.6-.4-.5-.7.3-.2.6 0 .9-.1.5 0-.1-.5.7-.7-.6 0-2.2-.3-1.7-1 .2-.2.1-.4-.2-.3-.3 0-.4-.1-.6-.3v-.1c.2-.5-.3-.8-.4-1.2-.1-.3-.2-.5-.2-.8 0-.1 0-.2-.2-.2-.1 0-.1.1-.1.2 0 .4 0 .8-.2 1.3-.2.3.1.5.3.8.1.5-.3.9-.8 1.1-.6.3-.9.8-1.7.8.6.4 1.2.1 1.8.2-.4.3-.9.4-1.3.4.2.2.3.2.8.3q-.3.3-2 .5c.7.7 1.9.2 2.1.5-.1.3-.8.5-1.1.7a3.19 3.19 0 0 0 2.1-.4c0 .3-.3.4-.4.5q-1 .6-2.7.7c.5.3 1.1.5 1.7.5v.1c-.5.2-.8.2-1.4.2.6.4 1.8.6 1.8.7-.1.5-1.6-.1-1.9-.2 0-.1-.1-.1-.2 0-.1 0 0 .1.1.1.3.4.7.6 1.2.7.7.2.2.3.1.7-.3.3-.6 1-1.1.5.2-.1.4-.2.6-.4-.1-.3-.6 0-.7-.2s.3-.2.4-.4c-1.3-.1-1-1.2-1.4-1.8 0 .4-.4.8-.2 1.3.2.6-.6.6-1.1.6.1.2.3.3.5.4.5.3-.2.6-.3 1-.1 0-.1.1-.2.1-.2.1-.5.1-.7.1.2.2.5.1.7.3q-.2.2-1.4.2c.1.5 1.2.4.8.9-.1.1-.1.2-.1.2.1 1.2-1.2 1-2.1 1 .3.5 1.2.6 2.4.4-.2.3-.6.3-.9.6h1.1c-.2.1-.3.2-.5.3-.9.4-1.8.6-2.8.3 1.5 1.4 1.3.5 2.5 1.1-.4.3-.8.6-.7 1.2-.2.6-1.3.8-1.9.7 0 .1.1.1.1.2-.9.2-1.7.3-2.2-.6.9-.1 1.7-.2 2.2-1-.6 0-1.1.5-1.7.2.2-.2.5-.2.6-.4-.3 0-.5-.1-.3-.4.2-.2-.8-.2-1-.6-.1-.1-.2-.3.2-.3.2 0 .3-.2.1-.2-.4-.1-.4-.3-.3-.6s0-.6-.3-.8c-.7-.6-.2-1.5-.6-2.3a.76.76 0 0 0-.2.4c0 .9-.1 1.7-.5 2.5-.2.5.3 1.1.6 1.3-.5.2-.9.1-1.4 0 .2.4.7.4 1 .6-.2.2-.5.1-.7.1-.1.2.3.2.2.4-.2.2-.4.1-.6.1-.3-.1-.7-.1-1-.3.2.9 1.5.8 1.5 1.1-.2.4-.8.3-1.3.3.3.3.8.5 1.1.5.3.1.3.3.5.4.1.3-1.7.1-2 .1 0 .2.2.2.3.3-.4.2-.9-.3-1.1-.1 0 .5 1.2.7 1.4 1.2.2.2.6.3.9.1.1 0 .2-.2.3-.1.2.1-.1.3 0 .4v-.1.1l-.9.3c-.3 0-.4.3-.4.5-.1.2-.4.3-.6.4-.1 0-.2.1-.3.1h-.1c-.6.3-.7-.2-.9-.5.2-.1.4.1.6-.2-.3-.1-.6-.1-.8-.4h0c.7 0 1.3.3 1.9 0-.4 0-2-.3-1.5-.8 0 0 0-.1-.1-.1-.5-.4-.9-1-1-1.6.7-.1 1.4-.3 1.9-.9-.7.1-1.3.5-1.9 0 .2-.1.3-.1.5-.2-.2-.2-.7-.1-.7-.4-.1-.3.4-.4.6-.5-.2-.2-.5.1-.7 0 0-.2.2-.2.3-.3l.3-.3c-.7-.1-1 .6-1.1-.4-.1-.5-.5-1-.5-1.5 0-.3.1-.5-.2-.8-.2.6-.2 1.2-.2 1.8 0 .4 0 .8-.6.9.2.2.3.3.5.3v.1c-.4.1-.7-.3-1-.4 0-.1-.1-.1-.1 0h0c.1.3.5.4.7.8-1.3-.2-.7-.5-1.2-.5s-1.1-.2-1.5-.6c.1-.1.2-.1.3-.1.2 0 .5.1.3-.3 0-.1.3-.1.5-.2.1 0 .2 0 .2-.1s-.1-.1-.2-.1c-.5.1-1-.1-1.5-.2-.3-.2-.6-.4-.5-.7.3-.2.6 0 .9-.1.5 0-.1-.5.7-.7-.6 0-2.2-.3-1.7-1 .2-.2.1-.4-.2-.3-.3 0-.4-.1-.6-.3v-.1c.2-.5-.3-.8-.4-1.2-.1-.3-.2-.5-.2-.8 0-.1 0-.2-.2-.2-.1 0-.1.1-.1.2 0 .4 0 .8-.2 1.3-.2.3.1.5.3.8h0c.1.5-.3.9-.8 1.1-.6.3-.9.8-1.7.8.6.4 1.2.1 1.8.2-.4.3-.9.4-1.3.4.2.2.3.2.8.3q-.3.3-2 .5c.7.7 1.9.2 2.1.5-.1.3-.8.5-1.1.7a3.19 3.19 0 0 0 2.1-.4c0 .3-.3.4-.4.5q-1 .6-2.7.7c.5.3 1.1.5 1.7.5v.1c-.5.2-.8.2-1.4.2.6.4 1.8.6 1.8.7-.1.5-1.6-.1-1.9-.2 0-.1-.1-.1-.2 0-.1 0 0 .1.1.1.3.4.7.6 1.2.7.7.2.2.3.1.7-.3.3-.6 1-1.1.5.2-.1.4-.2.6-.4-.1-.3-.6 0-.7-.2s.3-.2.4-.4c-1.3-.1-1-1.2-1.4-1.8 0 .4-.4.8-.2 1.3.2.6-.6.6-1.1.6.1.2.3.3.5.4.5.3-.2.6-.3 1-.1 0-.1.1-.2.1-.2.1-.5.1-.7.1.2.2.5.1.7.3q-.2.2-1.1.2c-.1-.1-.1-.3-.1-.4s0-.2-.2-.2c-.1 0-.1.1-.1.2v.4h0c0 .3-.1.6-.2.8-.2.3.1.5.3.8 0 .2 0 .3-.1.4-.4.1-.9 0-1.4 0 .1.3.5.4.9.5-.1.1-.2.1-.3.1-.6.3-.9.8-1.7.8.1.1.2.1.3.2l.4.4h-.3c.2.2.3.2.7.2 0 0 .1 0 .1.1-.2.3-.3.3-2 .5.7.7 1.9.2 2.1.5-.1.3-.8.5-1.1.7.7.1 1.3 0 1.9-.3v.2c-.1.1-.2.1-.2.2-.4.2-.6.4-.9.5h-.8c0 .1.1.1.1.2-.3 0-.6.1-1.1.1.5.3 1.1.5 1.7.5v.1c-.5.2-.8.2-1.4.2.5.3 1.5.6 1.7.6-.1 0-.3.1-.4.1q.1 0 .2.1c-.5.1-1.4-.3-1.7-.4 0-.1-.1-.1-.2 0-.1 0 0 .1.1.1a3.04 3.04 0 0 0 .7.5c-.3 0-.5-.1-.7-.1.4.3.9.6 1.4.8 0 .1-.1.1-.1.2-.3.3-.6 1-1.1.5.2-.1.4-.2.6-.4-.1-.3-.6 0-.7-.2s.3-.2.4-.4c-1.3-.1-1-1.2-1.4-1.8 0 .4-.4.8-.2 1.3.2.6-.6.6-1.1.6.1.2.3.3.5.4.5.3-.2.6-.3 1-.1 0-.1.1-.2.1-.2.1-.5.1-.7.1.2.2.5.1.7.3q-.2.2-1.4.2c.1.5 1.2.4.8.9-.1.1-.1.2-.1.2.1 1.2-1.2 1-2.1 1 .3.5 1.2.6 2.4.4-.2.3-.6.3-.9.6h1.1c-.2.1-.3.2-.5.3-.9.4-1.8.6-2.8.3 1.5 1.4 1.3.5 2.5 1.1-.4.3-.8.6-.7 1.2-.2.6-1.3.8-1.9.7.3.5.8.6 1.2.8.1.1.3.1.5.1.3-.1.4.2.1.3-.4.3-.8.5-1.3.6.4.1.8.2 1.3.3-1.1 0-2 .1-2.9-.1 1.3 1 2.7 1.4 4.5 1.3-1 .7-1.9.9-3.2.8.4.4.9.4 1.4.5-1.5.7-3.1.2-4.3-.6l-.1.1c.7 1.2 1.8 1.9 3.3 2 .1 0 .3-.1.3.1-.3.6-1.8.1-2.4.2.6.5 1.3.9 2.1 1 .7 0 1.6 0 2.6.1-14.3 11.6-29 22.3-45.3 30.7H2115v-.2zm-217-117.9c0 .1-.1.2-.3.2-.2-.1-.4-.3-.6-.4.5 0 .9.1.9.2zm-291.5 62.2c.2-.1.5-.2.8-.3-.2.1-.3.3-.5.4-.1 0-.2 0-.3-.1zm.6-2.9q.1.1.2.1c-.2.1-.4.2-.7.2.2-.1.3-.2.5-.3zm.6.3c.1 0 .3.1.4.1.1.1.3.1.5.1.3-.1.4.2.1.3-.4.3-.8.5-1.3.6.3.1.6.1.9.2l-.1.1c-.8 0-1.6 0-2.4-.1.4.3.9.6 1.4.8-.9.1-1.3-.6-2-1.1 1.2.1 1.9-.4 2.5-1zm-23 3.2h0c-.1-.1-.3-.3-.3-.5.3.2.6.2.3.5zm-2.5 2.9c.3 0 .7-.1 1-.1q-.1.1-.2.1c-.2.1-.5.1-.8 0z"/><path d="M1697.2,687.2c4.1,2.1,8.2,4.1,12.3,6.5,5.3,3.1,6.5,9.9,12.7,11.5,9.1,2.3,13.2,6,16.1,10-3,0-5.7.1-7.1.2-.2,0-.2.1,0,.2.2,0,.3.1.4.2.2,0,.4,0,.3.3.1.1.2.2.3.3-.3,0-.5.1-.8.2.2.1.5.1.7.3-.4,0-.7.1-.9.2.3,0,.7,0,.9.2-.4.1-.9-.1-1.3.2,1.1-.1,1.6.9,2.5,1.3-.5.1-1.7-.3-1.7.3,0,.1-.1.1-.2.2.3,0,.6-.1.9,0-.1.1-.3,0-.3.2.5,0,.9.2,1.3.5.2.1.1.2-.1.2-.5.1-.8,0-1.3.3.4,0,.8,0,1.1.3-.2-.1-.9.1-.5.2.5-.1.8.2,1.1.5.1.1.3.2.2.3-.1.2-.3,0-.6.2q-.1,0-.1.1c0,.1.1,0,.1,0q.3,0,.5.1c0,.1-.1,0-.1,0-.4.1.7.4.7.6.5.4-.3.2-.3.5.2.1.4-.2.7.4-.1,0-.3.1-.4.1s-.3,0-.3.1c0,.2.2,0,.3.1-.2.1-.5.2-.6.4.4-.1,1.1-.2,1.2.3,0,.1.1.2-.1.2-.1,0-.1.1,0,.2.2.1.4.3.4.6s.2.5.3.8q0,.1.1.2c.1,0,.1-.1.1-.1,0-.2,0-.5.2-.7.2-.3-.3-.6.2-.7,0,0,.1,0,.1-.1-.1-.1-.2,0-.3-.1,0-.1.2-.1.3-.2h-.1c-.1-.1-.3,0-.2-.1.1-.3.4-.2.7-.2,0,0,.1.1.1,0,0-.2-.4-.2-.6-.3.2-.1.4,0,.5,0,0-.1-.1-.2-.2-.2-.6-.1.3-.8.6-.9h-.7q.2-.1.3-.2c0-.1-.1-.1-.2-.1,0-.1.5-.2.7-.1.3.2.5.4.8.7-.4.1-.8.1-1,.3.4.1.8,0,1.2.3-.2.1-.5.1-.8.4.8-.3,1.1.3,1.6.6-1-.1-1.4.4-1.9,1.1.4-.1.6-.4,1-.4-.1.1-.2.2-.3.2v.1c.6-.2,1.1-.2,1.4.4-.5.1-1.1.1-1.4.6.4,0,.7-.3,1.1-.1-.1.1-.3.1-.4.3.2,0,.3.1.2.3-.1.1.5.1.6.4.1.1.1.2-.1.2-.1,0-.2.1,0,.1.3,0,.2.2.2.4-.1.2,0,.4.2.5.5.4.1,1,.4,1.4.1-.1.1-.2.1-.3,0-.5.1-1.1.3-1.6.1-.3-.2-.7-.4-.8.3-.1.6-.1.9,0-.1-.2-.4-.3-.6-.4.1-.1.3,0,.5-.1,0-.1-.2-.1-.1-.2.1-.1.3-.1.4,0,.2.1.4.1.6.2-.2-.6-1-.5-.9-.7s.5-.2.8-.2c-.2-.2-.5-.3-.7-.3s-.2-.2-.3-.3c0-.2,1.1-.1,1.2-.1,0-.1-.1-.1-.2-.2.3-.1.6.2.7.1,0-.3-.7-.4-.9-.8-.1-.1-.4-.2-.6-.1-.1,0-.1.1-.2.1-.1-.1.1-.2,0-.3h0c.2,0,.4-.1.6-.2.2,0,.3-.2.2-.3.1-.1.3-.2.4-.3q.1,0,.2-.1h.1c.4-.2.4.1.6.3-.1.1-.3,0-.4.1.2.1.3.1.5.2h0c-.4,0-.8-.2-1.2,0,.2,0,1.3.2,1,.5v.1c.3.2.6.6.6,1-.5.1-.9.2-1.2.6.4-.1.8-.3,1.2,0-.1,0-.2.1-.3.1.1.1.4.1.4.3s-.2.2-.4.3c.1.1.3,0,.4,0,0,.1-.1.1-.2.2q-.1.1-.2.2c.4.1.6-.4.7.3,0,.3.3.6.3,1,0,.2,0,.3.1.5.1-.4.1-.8.1-1.2,0-.3,0-.5.4-.6-.1-.1-.2-.2-.3-.2v-.1c.3,0,.4.2.6.3,0,.1.1,0,0,0h0c-.1-.2-.3-.3-.4-.5.8.1.5.3.8.3s.7.1.9.4c0,.1-.1,0-.2,0s-.3-.1-.2.2c0,0-.2.1-.3.1,0,0-.1,0-.1.1s.1.1.1.1c.3-.1.6.1,1,.2.2.1.4.2.3.5-.2.1-.4,0-.6.1-.3,0,0,.3-.4.4.4,0,1.4.2,1.1.7-.1.2,0,.2.1.2.2,0,.3.1.4.2h0c-.1.3.2.5.3.8,0,.2.2.3.1.5q0,.1.1.1c.1,0,0-.1,0-.1,0-.3,0-.5.1-.8.1-.2-.1-.3-.2-.5,0-.3.2-.6.5-.7.4-.2.6-.5,1.1-.5-.4-.3-.7-.1-1.1-.1.2-.2.4-.2.7-.2,13,9,27,13.4,37.2,25.2,3.9,4.5,7.7,8.9,11.8,12.8,3.2-4.2,6.6-8.1,10.2-11.8.3.1.5.4.8.6-1-.1-1.4.4-1.9,1.1.4-.1.6-.4,1-.4-.1.1-.2.2-.3.2v.1c.6-.2,1.1-.2,1.4.4-.5.1-1.1.1-1.4.6.4,0,.7-.3,1.1-.1-.1.1-.3.1-.4.3.2,0,.3.1.2.3-.1.1.5.1.6.4.1.1.1.2-.1.2-.1,0-.2.1,0,.1.3,0,.2.2.2.4-.1.2,0,.4.2.5.5.4.1,1,.4,1.4.1-.1.1-.2.1-.3,0-.5.1-1.1.3-1.6.1-.3-.2-.7-.4-.8.3-.1.6-.1.9,0-.1-.2-.4-.3-.6-.4.1-.1.3,0,.5-.1,0-.1-.2-.1-.1-.2.1-.1.3-.1.4,0,.2.1.4.1.6.2-.2-.6-1-.5-.9-.7s.5-.2.8-.2c-.2-.2-.5-.3-.7-.3s-.2-.2-.3-.3c0-.2,1.1-.1,1.2-.1,0-.1-.1-.1-.2-.2.3-.1.6.2.7.1,0-.3-.7-.4-.9-.8-.1-.1-.4-.2-.6-.1-.1,0-.1.1-.2.1-.1-.1.1-.2,0-.3h0c.2,0,.4-.1.6-.2.2,0,.3-.2.2-.3.1-.1.3-.2.4-.3q.1,0,.2-.1h.1c.4-.2.4.1.6.3-.1.1-.3,0-.4.1.2.1.3.1.5.2h0c-.4,0-.8-.2-1.2,0,.2,0,1.3.2,1,.5v.1c.3.2.6.6.6,1-.5.1-.9.2-1.2.6.4-.1.8-.3,1.2,0-.1,0-.2.1-.3.1.1.1.4.1.4.3s-.2.2-.4.3c.1.1.3,0,.4,0,0,.1-.1.1-.2.2q-.1.1-.2.2c.4.1.6-.4.7.3,0,.3.3.6.3,1,0,.2,0,.3.1.5.1-.4.1-.8.1-1.2,0-.3,0-.5.4-.6-.1-.1-.2-.2-.3-.2v-.1c.3,0,.4.2.6.3,0,.1.1,0,0,0h0c-.1-.2-.3-.3-.4-.5.8.1.5.3.8.3s.7.1.9.4c0,.1-.1,0-.2,0s-.3-.1-.2.2c0,0-.2.1-.3.1,0,0-.1,0-.1.1s.1.1.1.1c.3-.1.6.1,1,.2.2.1.4.2.3.5-.2.1-.4,0-.6,0-.3,0,0,.3-.4.4.4,0,1.4.2,1.1.7-.1.2,0,.2.1.2.2,0,.3.1.4.2h0c-.1.3.2.5.3.8,0,.2.2.3.1.5q0,.1.1.1c.1,0,0-.1,0-.1,0-.3,0-.5.1-.8.1-.2-.1-.3-.2-.5h0c0-.3.2-.6.5-.7.4-.2.6-.5,1.1-.5-.4-.3-.7-.1-1.1-.1.3-.2.5-.3.8-.3-.1-.1-.2-.2-.5-.2q.2-.2,1.3-.3c-.4-.4-1.2-.1-1.3-.3,0-.2.5-.3.7-.4-.5-.1-.9,0-1.3.2,0-.2.2-.2.3-.3.6-.4.7-.4,1.7-.5-.3-.2-.7-.3-1.1-.3h0c.3-.1.5-.1.9-.1-.4-.2-1.1-.4-1.1-.4.1-.3,1,0,1.2.1,0,0,.1.1.1,0v-.1c-.2-.2-.5-.4-.8-.5-.4-.1-.2-.2,0-.4s.4-.6.7-.3c-.1.1-.3.1-.4.2.1.2.4,0,.4.1s-.2.1-.3.2c.9.1.6.7.9,1.1,0-.3.2-.5.1-.8-.2-.4.4-.4.7-.4-.1-.1-.2-.2-.3-.2-.3-.2.1-.4.2-.6l.1-.1c.1-.1.3-.1.4-.1-.1-.2-.3,0-.5-.2.1-.1.2-.1.7-.1,21.3,15.2,23.6,30.8,47.2,48.2.9-.6,1.7-1.2,2.4-1.9.5-.5,50.4-83.6,50.4-83.6l-224.4-30.4ZM1748.8,728.5q.1.1,0,0c.1.1,0,.1,0,0,0,.1,0,0,0,0Z"/></g></svg>