<?xml version="1.0" encoding="UTF-8"?>
<svg id="Layer_1" data-name="Layer 1" xmlns="http://www.w3.org/2000/svg" xmlns:xlink="http://www.w3.org/1999/xlink" viewBox="0 0 3840 1080">
  <defs>
    <style>
      .cls-1 {
        fill: none;
      }

      .cls-1, .cls-2, .cls-3 {
        stroke-width: 0px;
      }

      .cls-2 {
        fill: #402b48;
      }

      .cls-3 {
        fill: #34233b;
      }

      .cls-4 {
        clip-path: url(#clippath);
      }
    </style>
    <clipPath id="clippath">
      <rect class="cls-1" width="3840" height="1080"/>
    </clipPath>
  </defs>
  <g class="cls-4">
    <g>
      <path class="cls-2" d="M1057.6,753.4l250.7-69.1,44.4,2.7,19.1,7.1,5.8,16.6h21.3l4.4,8.2,3.1,9.8-36.4,55,24.4,41.7-.4,70,80.4-3.5,70.2,29.7-71.1,25.7-168.2,164.2-758-4-292.3-76.3,205.3-39.2,130.7-79.5,124-.7,29.7,19.6c41.3-11.4,71.8-3.1,111,16.6l81.8-22.9,92.1-98.2,28-73.5Z"/>
      <path class="cls-3" d="M3594.9,963.9c-3.7.1-7.5.3-11.2.5-.3-.3-.6-.6-.9-1.1.9-.2,1.6-.4,2.4-.5.7-.1,1.6,0,1.7-.8,0-.9-1.1-.1-1.5-.7,1.1-.7,2.7-.9,3.2-2.4-2.5.6-6.1,1.3-7.1-1.5-.2-.5-.5-1.1.6-1.3.7-.1.7-.5-.1-.9-1.3-.7-2.1-1.7-2.1-3.3.1-1.6-1.3-2.9-1.5-4.5,0-.3.1-.8-.4-1-.5,0-.4.4-.4.7,0,1.4,0,2.7-.9,4-.9,1.7,1.7,3.3-1.4,4.2-.2.1-.6.1-.6.4.5.5,1.3.1,1.9.4-.1.7-1.2.6-1.5,1.2,0,.1.3,0,.3.1.3.5,1.5,0,1.3.8-.3,1.5-2.4,1.4-3.7,1-.3,0-.6-.3-.8.1,0,1,2.3,1.4,3.4,1.7-1.1.6-2,.2-2.9.2.1.6.6.9,1.1,1,1.9.4,1.4,1.7.3,2.9-2.9.2-5.8.5-8.7.8l-.1-.1c2.3-.4,4.3-.7,5.9-1.9-2.2-.6-4.8.1-6.9-1.5,1.4-.6,3.1-.6,4.4-2.3-4.6,1.6-6.1-1.7-8.9-3.6,5.5.5,8.2-2.3,10.7-6-2.3.6-3.4,2.5-5.8,2.5.6-.4,1.2-.9,1.8-1.3-.1-.2-.2-.3-.2-.5-3.2.9-6.3,1.4-8.3-2,3.1-.3,6.3-.6,7.8-3.5-2,.1-3.8,1.8-6.2.8.7-.5,1.7-.7,2.2-1.6-1.3-.1-2-.4-1.2-1.6.6-.8-3-.7-3.6-2.3-.3-.5-.7-1.2.5-1,.7.1.9-.8.2-.9-1.5-.2-1.3-1.3-1-2.1.5-1.2,0-2.2-.9-2.9-2.7-2.2-.8-5.5-2.3-8.2-.5.5-.6,1-.6,1.5.1,3.1-.5,6.1-2,8.9-.7,1.6,1,3.9,2.3,4.6-1.7.7-3.4.5-5.3.1.8,1.4,2.4,1.5,3.6,2.3-.9.7-1.9.2-2.7.5-.2.6,1.1.7.5,1.4-.6.6-1.5.4-2.1.2-1.1-.4-2.4-.4-3.5-1,.9,3.2,5.6,2.8,5.4,3.9-.7,1.3-3,1.1-4.7,1.1,1.3,1.2,2.7,1.7,4.1,2,1.1.2,1,1.1,1.7,1.5.3,1.2-6.2.4-7.1.3,0,.7.8.7,1.3,1.1-1.5.6-3.4-1-4-.4-.1,1.8,4.2,2.6,5.1,4.4.6.9,2.3,1,3.3.4.4-.1.6-.6.9-.3.6.4-.5,1.2.1,1.4v-.3.3c-1.1.2-2.1.8-3.3.9-1,.1-1.5,1-1.3,1.8-.5.8-1.5,1-2.3,1.5-.4-.1-.7.2-1,.4-.2,0-.4-.1-.5,0-2.1,1-2.6-.6-3.4-1.6.6-.4,1.6.2,2.1-.6-.9-.4-2-.5-3-1.3h0c2.5,0,4.7,1.2,7,.2-1.3-.1-7.2-1.1-5.6-3,.1-.1-.1-.4-.2-.5-1.7-1.3-3.3-3.7-3.6-5.6,2.6-.4,5-1.2,7-3.3-2.4.5-4.6,1.8-6.7-.1.6-.3,1.2-.5,1.9-.8-.7-.7-2.4-.4-2.5-1.5-.2-1.2,1.4-1.3,2.2-1.9-.8-.7-1.7.3-2.5-.1-.1-.7.7-.8,1-1.3.4-.4.8-.8,1.2-1.2-2.5-.3-3.5,2.1-3.9-1.5-.3-1.9-1.7-3.5-1.9-5.4-.1-.9.3-2-.6-2.9-.7,2.2-.8,4.4-.7,6.6.1,1.6-.1,2.9-2.3,3.1.6.7,1.1,1.1,1.8,1.2v.5c-1.6.3-2.4-1.1-3.6-1.5-.1-.4-.4-.2-.3.2h0c.4,1.1,1.7,1.6,2.4,2.9-4.6-.6-2.7-2-4.4-1.9-1.7,0-3.8-.6-5.4-2.1.3-.5.8-.2,1.2-.2.6-.1,1.7.4,1.1-.9-.1-.2,1.1-.3,1.7-.6.2-.1.6.1.6-.3,0-.3-.3-.4-.7-.3-1.9.3-3.7-.4-5.5-.9-1-.6-2-1.3-1.7-2.6,1-.6,2.2-.1,3.3-.3,1.9.2-.2-1.9,2.4-2.6-2.1,0-8-1.2-6.2-3.8.7-.9.3-1.3-.8-1.1-1,.2-1.6-.4-2.2-.9,0-.1,0-.2-.1-.3.8-1.8-1.1-3-1.5-4.5-.2-.9-.9-1.7-.8-2.7,0-.4-.2-.6-.6-.6-.5.1-.3.4-.3.7,0,1.6,0,3.1-.8,4.6-.6,1.1.5,1.9,1,2.8h0c.3,1.8-1.2,3.2-3,4-2.1,1-3.4,3-6.2,2.9,2.1,1.6,4.3.5,6.5.6-1.5,1.1-3.1,1.5-4.9,1.5.8.7,1.2.9,3,.9q-1,1.2-7.4,1.9c2.5,2.4,6.9.7,7.6,1.7-.2,1.2-3.1,1.7-4.2,2.5,2.7.3,5.2.1,7.5-1.4,0,1-1,1.3-1.5,2-3.5,2.2-3.8,2.2-9.9,2.7,2,1.2,3.9,1.7,6.1,1.7.1.1.1.2,0,.3-1.9.8-2.7.6-5.1.6,2.1,1.4,6.4,2.3,6.4,2.4-.4,1.7-5.7-.2-6.9-.7-.1-.3-.4-.3-.6-.2-.2.2,0,.3.2.4,1.1,1.4,2.7,2.2,4.4,2.7,2.5.7.9,1.2.2,2.4-1.2,1-2.2,3.6-4.1,1.8.6-.5,1.6-.7,2-1.3-.5-1-2.1.1-2.6-.8-.2-.8,1.1-.8,1.5-1.3-4.9-.5-3.5-4.3-5-6.6,0,1.6-1.4,2.9-.6,4.7.9,2.3-2.3,2.2-4.1,2.1.4.8,1.2,1,1.9,1.4,1.9,1-.8,2.1-1,3.7-.2.2-.4.3-.6.5-.8.4-1.7.4-2.6.4.7.9,1.9.3,2.6.9q-.9.7-5.1.6c.4,1.8,4.4,1.4,3,3.1-.3.2-.4.6-.3.9.3,3.3-2.5,3.6-5.3,3.6-.6-1.6-8.9-4.4-9.4-5.8-5.6-4.5,3.9-2.2,3.8-5.9-1.8-1.6-4,1.8-8.1-4.2,1.7-.3,3.2-.7,4.7-.9,1.3-.2,3.2.1,3.3-1.5.1-1.8-2.2-.2-3.1-1.3,2.2-1.4,5.4-1.9,6.5-4.9-5,1.3-12.1,2.7-14.2-2.9-.5-1.1-1-2.2,1.2-2.6,1.4-.3,1.5-.9-.1-1.8-2.7-1.4-4.3-3.5-4.2-6.6.1-3.2-2.5-5.8-3-9-.1-.6.2-1.6-.7-2.1-1.1,0-.8.8-.8,1.3.1,2.8,0,5.4-1.8,7.9-1.8,3.4,3.3,6.6-2.8,8.3-.5.1-1.1.1-1.3.8,1,1.1,2.6.2,3.8.9-.3,1.5-2.4,1.2-3.1,2.5-.1.2.5,0,.6.2.6,1,3-.1,2.5,1.6-.7,3-4.9,2.8-7.4,1.9-.6-.1-1.3-.7-1.7.2-.1,1.9,4.7,2.8,6.9,3.4-2.2,1.1-4,.4-5.9.3.2,1.3,1.2,1.8,2.2,2,7.4,1.7-3,9.7-6.4,10.7h8.1c-1.8.9-2.7,1.4-3.7,1.9.2,1.3,1.5,1,2.3,1.4-.4,1.3-5.7,1.9-7.5.8-3.5-1.9-5.9-4.9-9.6-7.6,4.6-.9,8.7-1.3,11.9-3.9-4.5-1.2-9.6.1-13.8-2.9,2.8-1.3,6.1-1.2,8.7-4.5-9.2,3.2-12.2-3.3-17.8-7.2,11,1,16.5-4.7,21.4-12.1-4.5,1.1-6.9,5.1-11.5,4.9,1.3-.9,2.5-1.7,3.7-2.6-.2-.3-.3-.7-.5-1-6.4,1.8-12.6,2.8-16.5-4.1,6.2-.7,12.5-1.2,15.6-7.1-4,.2-7.7,3.7-12.4,1.6,1.4-1.1,3.4-1.3,4.5-3.1-2.5-.2-3.9-.8-2.4-3.2,1.2-1.6-6.1-1.3-7.2-4.5-.6-1.1-1.5-2.3,1.1-2.1,1.4.1,1.9-1.5.4-1.7-3-.5-2.6-2.5-2-4.1,1-2.5-.1-4.4-1.9-5.7-5.3-4.5-1.5-11-4.6-16.4-1.1,1-1.2,2-1.2,3,.2,6.2-1,12.2-3.9,17.8-1.5,3.3,2,7.8,4.7,9.2-3.4,1.4-6.8,1-10.5.2,1.6,2.8,4.8,3.1,7.1,4.6-1.7,1.4-3.7.5-5.4,1-.4,1.2,2.2,1.5,1.1,2.7-1.2,1.2-2.9.9-4.3.4-2.3-.9-4.9-.8-7.1-2.1,1.8,6.4,11.1,5.6,10.8,7.9-1.4,2.7-6,2.2-9.4,2.2,2.5,2.5,5.5,3.5,8.2,4,2.2.4,2.1,2.2,3.3,3.1.5,2.4-12.4.9-14.2.7,0,1.5,1.5,1.5,2.5,2.2-3.1,1.3-6.7-2-7.9-.7-.2,3.5,8.5,5.1,10.3,8.8,1.2,1.7,4.6,1.9,6.6.9.7-.1,1.1-1.3,1.9-.6,1.2.8-1,2.3.2,2.9v-.5.6c-2.1.5-4.2,1.7-6.6,1.9-2.1.1-2.9,2-2.7,3.6-1,1.6-3,2-4.6,3-.8-.2-1.3.5-2,.7-.3,0-.7-.2-1-.1-4.1,2-5.1-1.2-6.8-3.3,1.3-.8,3.1.5,4.3-1.2-1.8-.8-4-1-6-2.6h0c5,0,9.5,2.3,13.9.3-2.7-.2-14.3-2.3-11.2-6.1.1-.2-.2-.8-.4-1-3.5-2.7-6.7-7.4-7.3-11.3,5.3-.8,10-2.5,14-6.7-4.8,1.1-9.2,3.5-13.4-.2,1.1-.5,2.4-1.1,3.7-1.7-1.5-1.4-4.7-.8-5.1-3-.4-2.4,2.7-2.6,4.3-3.9-1.6-1.4-3.3.6-4.9-.1-.2-1.4,1.4-1.7,2.1-2.5.7-.8,1.5-1.6,2.4-2.4-5.1-.6-7.1,4.1-7.8-3-.5-3.8-3.3-7-3.9-10.9-.3-1.9.5-4-1.3-5.8-1.4,4.4-1.7,8.8-1.4,13.2.2,3.1-.1,5.8-4.6,6.3,1.1,1.3,2.1,2.2,3.6,2.4v1.1c-3.2.5-4.7-2.1-7.2-2.9-.2-.8-.8-.4-.5.3h0c.8,2.2,3.4,3.2,4.9,5.9-9.2-1.2-5.3-3.9-8.9-3.8-3.5,0-7.7-1.1-10.8-4.3.6-1,1.5-.4,2.3-.5,1.2-.1,3.4.8,2.2-1.9-.2-.4,2.2-.7,3.4-1.1.4-.2,1.3.1,1.2-.6,0-.7-.6-.8-1.4-.7-3.9.6-7.4-.8-11-1.7-2-1.3-4.1-2.7-3.5-5.3,2.1-1.3,4.4-.2,6.6-.6,3.8.3-.5-3.9,4.8-5.1-4.2.1-16.1-2.4-12.4-7.6,1.4-1.8.5-2.6-1.6-2.2-2.1.4-3.2-.8-4.5-1.9.1-.2,0-.4-.1-.5,1.6-3.7-2.2-5.9-2.9-9-.5-1.9-1.8-3.5-1.6-5.5.1-.7-.3-1.2-1.1-1.1-.9.1-.5.9-.5,1.4,0,3.1.1,6.2-1.5,9.1-1.2,2.1,1,3.8,1.9,5.7h0c.5,3.7-2.4,6.4-5.9,7.9-4.3,2-6.8,6.1-12.4,5.9,4.2,3.2,8.5.9,13,1.1-3,2.3-6.2,3-9.7,2.9,1.6,1.5,2.4,1.7,5.9,1.8q-1.9,2.4-14.9,3.8c5,4.8,13.8,1.3,15.2,3.3-.4,2.5-6.2,3.5-8.3,5,5.4.6,10.4.1,15-2.9.1,1.9-2.1,2.6-3,3.9-7.1,4.4-7.5,4.5-19.8,5.3,3.9,2.3,7.8,3.3,12.1,3.4.1.2.1.3,0,.5-3.8,1.5-5.5,1.2-10.2,1.3,4.2,2.8,12.8,4.5,12.9,4.8-.2.9-1.1,1.2-2.3,1.3-.1-.1-.1-.2-.3-.3-.3,0-.4.2-.4.3-3.5-.1-9.1-2.1-10.7-2.7-.3-.5-.8-.7-1.3-.3-.4.3.1.6.4.8,2.2,2.7,5.4,4.4,8.9,5.4,1,.3,1.7.5,2.1.8-.1.1-.2.3-.3.4-.3.6-.2,1.2,0,1.8-.5.5-1,1.1-1.4,1.8-2.3,2.1-4.3,7.2-8.1,3.7,1.3-1,3.2-1.3,4.1-2.7-.9-1.6-3.2-.3-4.5-1,1.4-1.1,2.6-2.6,3.7-4.2-.7.2-1.3.5-1.9.9-3.1-.4-4.9-1.6-5.9-3.1,1.3-.5,2.4-1.3,3.2-2.7-1.4.1-2.6.9-4,1.1-.2-.4-.3-.8-.4-1.3.2-.1.4-.3.5-.6-.3,0-.5,0-.7-.1-.5-2.2-.8-4.6-2-6.4,0,1.3-.4,2.5-.9,3.8-.6-.2-1.1-.6-1.2-1.1-.3-.5-.7-1.2.5-1,.7.1.9-.8.2-.9-1.5-.2-1.3-1.2-1-2.1.5-1.2,0-2.2-.9-2.9-2.7-2.2-.8-5.5-2.3-8.2-.5.5-.6,1-.6,1.5.1,3.1-.5,6.1-2,8.9-.7,1.6,1,3.9,2.3,4.6-1.7.7-3.4.5-5.3.1.8,1.4,2.4,1.5,3.6,2.3-.9.7-1.9.2-2.7.5-.2.6,1.1.7.5,1.4-.6.6-1.5.4-2.1.2-1.1-.4-2.4-.4-3.5-1,.9,3.2,5.6,2.8,5.4,3.9-.7,1.3-3,1.1-4.7,1.1,1.3,1.2,2.7,1.7,4.1,2,1.1.2,1,1.1,1.7,1.5.3,1.2-6.2.4-7.1.3,0,.7.8.7,1.3,1.1-1.5.6-3.4-1-4-.4-.1,1.8,4.2,2.6,5.1,4.4.6.9,2.3,1,3.3.4.4-.1.6-.6.9-.3.6.4-.5,1.2.1,1.4v-.3.3c-1.1.2-2.1.8-3.3.9-1,.1-1.5,1-1.3,1.8-.5.8-1.5,1-2.3,1.5-.4-.1-.7.2-1,.4-.2,0-.4-.1-.5,0-2.1,1-2.6-.6-3.4-1.6.6-.4,1.6.2,2.1-.6-.9-.4-2-.5-3-1.3h0c2.5,0,4.7,1.2,7,.2-1.3-.1-7.2-1.1-5.6-3,.1-.1-.1-.4-.2-.5-1.7-1.3-3.3-3.7-3.6-5.6,2.6-.4,5-1.2,7-3.3-2.4.5-4.6,1.8-6.7-.1.6-.3,1.2-.5,1.9-.8-.7-.7-2.4-.4-2.5-1.5-.2-1.2,1.4-1.3,2.2-1.9-.8-.7-1.7.3-2.5-.1-.1-.7.7-.8,1-1.3.4-.4.8-.8,1.2-1.2-2.5-.3-3.5,2.1-3.9-1.5-.3-1.9-1.7-3.5-1.9-5.4-.1-.9.3-2-.6-2.9-.7,2.2-.8,4.4-.7,6.6.1,1.6-.1,2.9-2.3,3.1.6.7,1.1,1.1,1.8,1.2v.5c-1.6.3-2.4-1.1-3.6-1.5-.1-.4-.4-.2-.3.2h0c.4,1.1,1.7,1.6,2.4,2.9-4.6-.6-2.7-2-4.4-1.9-1.7,0-3.8-.6-5.4-2.1.3-.5.8-.2,1.2-.2.6-.1,1.7.4,1.1-.9-.1-.2,1.1-.3,1.7-.6.2-.1.6.1.6-.3,0-.3-.3-.4-.7-.3-1.9.3-3.7-.4-5.5-.9-1-.6-2-1.3-1.7-2.6,1-.6,2.2-.1,3.3-.3,1.9.2-.2-1.9,2.4-2.6-2.1,0-8-1.2-6.2-3.8.7-.9.3-1.3-.8-1.1-1,.2-1.6-.4-2.2-.9,0-.1,0-.2-.1-.3.8-1.8-1.1-3-1.5-4.5-.2-.9-.9-1.7-.8-2.7,0-.4-.2-.6-.6-.6-.5.1-.3.4-.3.7,0,1.6,0,3.1-.8,4.6-.6,1.1.5,1.9,1,2.8h0c.3,1.8-1.2,3.2-3,4-2.1,1-3.4,3-6.2,2.9,2.1,1.6,4.3.5,6.5.6-1.4,1-2.8,1.4-4.3,1.5h-.5l.1.1c-5,1.2-11.8,2.4-13.8-3-.5-1.1-1-2.2,1.2-2.6,1.4-.3,1.5-.9-.1-1.8-2.7-1.4-4.3-3.5-4.2-6.6.1-3.2-2.5-5.8-3-9-.1-.6.2-1.6-.7-2.1-1.1,0-.8.8-.8,1.3.1,2.8,0,5.4-1.8,7.9-1.8,3.4,3.3,6.6-2.8,8.3-.5.1-1.1.1-1.3.8,1,1.1,2.6.2,3.8.9-.3,1.5-2.4,1.2-3.1,2.5-.1.2.5,0,.6.2.6,1,3-.1,2.5,1.6-.7,3-4.9,2.8-7.4,1.9-.6-.1-1.3-.7-1.7.2-.1,1.9,4.7,2.8,6.9,3.4-2.2,1.1-4,.4-5.9.3.2,1.3,1.2,1.8,2.2,2,7.4,1.7-3,9.7-6.4,10.7h8.1c-1.8.9-2.7,1.4-3.7,1.9.2,1.3,1.5,1,2.3,1.4-.4,1.3-5.7,1.9-7.5.8-3.5-1.9-5.9-4.9-9.6-7.6,4.6-.9,8.7-1.3,11.9-3.9-4.5-1.2-9.6.1-13.8-2.9,2.8-1.3,6.1-1.2,8.7-4.5-9.2,3.2-12.2-3.3-17.8-7.2,11,1,16.5-4.7,21.4-12.1-4.5,1.1-6.9,5.1-11.5,4.9,1.3-.9,2.5-1.7,3.7-2.6-.2-.3-.3-.7-.5-1-6.4,1.8-12.6,2.8-16.5-4.1,6.2-.7,12.5-1.2,15.6-7.1-4,.2-7.7,3.7-12.4,1.6,1.4-1.1,3.4-1.3,4.5-3.1-2.5-.2-3.9-.8-2.4-3.2,1.2-1.6-6.1-1.3-7.2-4.5-.6-1.1-1.5-2.3,1.1-2.1,1.4.1,1.9-1.5.4-1.7-3-.5-2.6-2.5-2-4.1,1-2.5-.1-4.4-1.9-5.7-5.3-4.5-1.5-11-4.6-16.4-1.1,1-1.2,2-1.2,3,.2,6.2-1,12.2-3.9,17.8-1.5,3.3,2,7.8,4.7,9.2-3.4,1.4-6.8,1-10.5.2,1.6,2.8,4.8,3.1,7.1,4.6-1.7,1.4-3.7.5-5.4,1-.4,1.2,2.2,1.5,1.1,2.7-1.2,1.2-2.9.9-4.3.4-2.3-.9-4.9-.8-7.1-2.1,1.8,6.4,11.1,5.6,10.8,7.9-1.4,2.7-6,2.2-9.4,2.2,2.5,2.5,5.5,3.5,8.2,4,2.2.4,2.1,2.2,3.3,3.1.5,2.4-12.4.9-14.2.7,0,1.5,1.5,1.5,2.5,2.2-3.1,1.3-6.7-2-7.9-.7-.2,3.5,8.5,5.1,10.3,8.8,1.2,1.7,4.6,1.9,6.6.9.7-.1,1.1-1.3,1.9-.6,1.2.8-1,2.3.2,2.9v-.5.6c-2.1.5-4.2,1.7-6.6,1.9-2.1.1-2.9,2-2.7,3.6-1,1.6-3,2-4.6,3-.8-.2-1.3.5-2,.7-.3,0-.7-.2-1-.1-4.1,2-5.1-1.2-6.8-3.3,1.3-.8,3.1.5,4.3-1.2-1.8-.8-4-1-6-2.6h0c5,0,9.5,2.3,13.9.3-2.7-.2-14.3-2.3-11.2-6.1.1-.2-.2-.8-.4-1-3.5-2.7-6.7-7.4-7.3-11.3,5.3-.8,10-2.5,14-6.7-4.8,1.1-9.2,3.5-13.4-.2,1.1-.5,2.4-1.1,3.7-1.7-1.5-1.4-4.7-.8-5.1-3-.4-2.4,2.7-2.6,4.3-3.9-1.6-1.4-3.3.6-4.9-.1-.2-1.4,1.4-1.7,2.1-2.5.7-.8,1.5-1.6,2.4-2.4-5.1-.6-7.1,4.1-7.8-3-.5-3.8-3.3-7-3.9-10.9-.3-1.9.5-4-1.3-5.8-1.4,4.4-1.7,8.8-1.4,13.2.2,3.1-.1,5.8-4.6,6.3,1.1,1.3,2.1,2.2,3.6,2.4v1.1c-3.2.5-4.7-2.1-7.2-2.9-.2-.8-.8-.4-.5.3h0c.8,2.2,3.4,3.2,4.9,5.9-9.2-1.2-5.3-3.9-8.9-3.8-3.5,0-7.7-1.1-10.8-4.3.6-1,1.5-.4,2.3-.5,1.2-.1,3.4.8,2.2-1.9-.2-.4,2.2-.7,3.4-1.1.4-.2,1.3.1,1.2-.6,0-.7-.6-.8-1.4-.7-3.9.6-7.4-.8-11-1.7-2-1.3-4.1-2.7-3.5-5.3,2.1-1.3,4.4-.2,6.6-.6,3.8.3-.5-3.9,4.8-5.1-4.2.1-16.1-2.4-12.4-7.6,1.4-1.8.5-2.6-1.6-2.2-2.1.4-3.2-.8-4.5-1.9.1-.2,0-.4-.1-.5,1.6-3.7-2.2-5.9-2.9-9-.5-1.9-1.8-3.5-1.6-5.5.1-.7-.3-1.2-1.1-1.1-.9.1-.5.9-.5,1.4,0,3.1.1,6.2-1.5,9.1-1.2,2.1,1,3.8,1.9,5.7h0c.5,3.7-2.4,6.4-5.9,7.9-4.3,2-6.8,6.1-12.4,5.9,4.2,3.2,8.5.9,13,1.1-3,2.3-6.2,3-9.7,2.9,1.6,1.5,2.4,1.7,5.9,1.8q-1.9,2.4-14.9,3.8c5,4.8,13.8,1.3,15.2,3.3-.4,2.5-6.2,3.5-8.3,5,5.4.6,10.4.1,15-2.9.1,1.9-2.1,2.6-3,3.9-7.1,4.4-7.5,4.5-19.8,5.3,3.9,2.3,7.8,3.3,12.1,3.4.1.2.1.3,0,.5-3.8,1.5-5.5,1.2-10.2,1.3,4.2,2.8,12.8,4.5,12.9,4.8-.9,3.3-11.3-.4-13.8-1.4-.3-.5-.8-.7-1.3-.3-.4.3.1.6.4.8,2.2,2.7,5.4,4.4,8.9,5.4,5.1,1.4,1.8,2.4.4,4.8-2.3,2.1-4.3,7.2-8.1,3.7,1.3-1,3.2-1.3,4.1-2.7-1-1.9-4.2.3-5.1-1.7-.4-1.5,2.2-1.6,3-2.6-9.7-.9-7.1-8.5-10-13.1.1,3.2-2.8,5.8-1.3,9.4,1.8,4.6-4.6,4.4-8.2,4.3.8,1.6,2.4,2.1,3.7,2.8,3.8,1.9-1.7,4.2-2,7.3-.4.3-.8.7-1.2,1-1.6.8-3.3.8-5.1.9,1.4,1.7,3.9.6,5.3,1.9q-1.8,1.4-10.3,1.3c.9,3.6,8.9,2.9,6.1,6.3-.7.5-.7,1.1-.7,1.8.5,5-2.5,6.6-6.4,7-12-4.1-23.8-7.2-35.7-8.4-115.8-12.6-210,16.7-234.2,19.5-50.4,5.8-107.9-18-157-38.1.1-.1.3-.2.4-.3h-1.2c-1.2-.5-2.3-.9-3.5-1.4,1.3-.2,2.7-.9,1.3-1.2-2.8.6-4.1-1.3-5.7-2.7-.5-.5-1.5-.9-1.2-1.7.5-1,1.7-.2,2.9-1.3.4-.1.7-.1.6-.6-.1-.4-.5-.2-.8-.2q-1.7-.1-2.7-.5c.1-.4.5-.2.7-.3,2.3-.5-3.5-2.3-3.8-3.1-2.5-2,1.8-1,1.7-2.7-.8-.7-1.8.8-3.7-1.9.8-.2,1.5-.3,2.1-.4.6-.1,1.5,0,1.5-.7,0-.8-1-.1-1.4-.6,1-.6,2.5-.9,3-2.2-2.3.6-5.5,1.2-6.5-1.3-.2-.5-.4-1,.5-1.2.6-.1.7-.4-.1-.8-1.2-.6-1.9-1.6-1.9-3,.1-1.5-1.2-2.6-1.4-4.1,0-.3.1-.7-.3-.9-.5,0-.4.4-.4.6,0,1.3,0,2.5-.8,3.6-.8,1.5,1.5,3-1.3,3.8-.2.1-.5.1-.6.4.5.5,1.2.1,1.7.4-.1.7-1.1.5-1.4,1.1,0,.1.2,0,.3.1.3.4,1.4,0,1.2.7-.3,1.4-2.2,1.3-3.4.9-.3,0-.6-.3-.8.1,0,.9,2.1,1.3,3.1,1.5-1,.5-1.8.2-2.7.1.1.6.5.8,1,.9,3.4.8-1.4,4.4-2.9,4.9h3.7c-.8.4-1.2.6-1.7.9.1.6.7.5,1,.6-.2.6-2.6.8-3.4.4-1.6-.9-2.7-2.2-4.4-3.5,2.1-.4,3.9-.6,5.4-1.8-2-.5-4.4.1-6.3-1.3,1.3-.6,2.8-.6,4-2.1-4.2,1.4-5.5-1.5-8.1-3.3,5,.4,7.5-2.1,9.7-5.5-2.1.5-3.1,2.3-5.2,2.2.6-.4,1.1-.8,1.7-1.2-.1-.2-.1-.3-.2-.5-2.9.8-5.7,1.3-7.5-1.8,2.8-.3,5.7-.6,7.1-3.2-1.8.1-3.5,1.7-5.6.7.6-.5,1.6-.6,2-1.4-1.1-.1-1.8-.3-1.1-1.4.5-.7-2.8-.6-3.3-2.1-.3-.5-.7-1.1.5-.9.6.1.9-.7.2-.8-1.4-.2-1.2-1.1-.9-1.9.4-1.1,0-2-.8-2.6-2.4-2-.7-5-2.1-7.5-.5.4-.5.9-.5,1.4.1,2.8-.5,5.5-1.8,8.1-.7,1.5.9,3.5,2.1,4.2-1.6.7-3.1.4-4.8.1.7,1.3,2.2,1.4,3.2,2.1-.8.6-1.7.2-2.5.4-.2.5,1,.7.5,1.2-.5.6-1.3.4-1.9.2-1-.4-2.2-.3-3.2-.9.8,2.9,5.1,2.5,4.9,3.6-.6,1.2-2.8,1-4.3,1,1.2,1.1,2.5,1.6,3.7,1.8,1,.2.9,1,1.5,1.4.2,1.1-5.7.4-6.5.3,0,.7.7.7,1.1,1-1.4.6-3.1-.9-3.6-.3-.1,1.6,3.9,2.3,4.7,4,.5.8,2.1.9,3,.4.3-.1.5-.6.9-.3.6.4-.5,1.1.1,1.3v-.2.3c-1,.2-1.9.8-3,.9-.8,0-1.2.7-1.2,1.4-.9-.3-1.8-.6-2.6-.8.6,0,1.1-.1,1.7-.4-1.2-.1-6.5-1-5.1-2.8.1-.1-.1-.4-.2-.5-1.6-1.2-3-3.4-3.3-5.1,2.4-.4,4.5-1.1,6.4-3-2.2.5-4.2,1.6-6.1-.1.5-.2,1.1-.5,1.7-.8-.7-.6-2.2-.4-2.3-1.4-.2-1.1,1.2-1.2,2-1.8-.7-.7-1.5.3-2.2-.1-.1-.7.6-.8.9-1.1.3-.4.7-.7,1.1-1.1-2.3-.3-3.2,1.9-3.5-1.4-.2-1.7-1.5-3.2-1.8-5-.1-.8.2-1.8-.6-2.6-.6,2-.8,4-.6,6,.1,1.4-.1,2.6-2.1,2.9.5.6,1,1,1.6,1.1v.5c-1.4.2-2.2-1-3.3-1.3-.1-.4-.4-.2-.2.2h0c.3,1,1.6,1.5,2.2,2.7-4.2-.6-2.4-1.8-4-1.7-1.6,0-3.5-.5-4.9-2,.3-.4.7-.2,1-.2.5-.1,1.5.4,1-.9-.1-.2,1-.3,1.5-.5.2-.1.6.1.6-.3,0-.3-.3-.4-.6-.3-1.8.3-3.4-.4-5-.8-.9-.6-1.9-1.2-1.6-2.4.9-.6,2-.1,3-.3,1.7.1-.2-1.8,2.2-2.3-1.9,0-7.3-1.1-5.6-3.4.6-.8.2-1.2-.7-1s-1.5-.4-2-.8c0-.1,0-.2-.1-.2.7-1.7-1-2.7-1.3-4.1-.2-.8-.8-1.6-.7-2.5,0-.3-.2-.6-.5-.5-.4.1-.2.4-.2.6,0,1.4,0,2.8-.7,4.2-.5,1,.5,1.7.9,2.6h0c.2,1.7-1.1,2.9-2.7,3.6-1.9.9-3.1,2.8-5.6,2.7,1.9,1.4,3.9.4,5.9.5-1.4,1-2.8,1.3-4.4,1.3.7.7,1.1.8,2.7.8q-.9,1.1-6.8,1.7c2.3,2.2,6.3.6,6.9,1.5-.2,1.1-2.8,1.6-3.8,2.3,2.4.3,4.7.1,6.8-1.3,0,.9-.9,1.2-1.3,1.8-.9.5-1.5.9-2.1,1.2v-.1c0-.3.1-.7-.3-.9-.5,0-.4.4-.4.6v.8c-1.3.5-2.7.6-6.1.9,1.8,1.1,3.6,1.5,5.5,1.6v.1c0,.1-.1.1-.1.2-1.7.7-2.4.5-4.5.5,1.2.8,3.3,1.4,4.6,1.8.1.4,0,.7-.2,1-1.6-.1-4-.9-4.8-1.2-.1-.2-.4-.3-.6-.2-.2.1,0,.3.2.4,1,1.2,2.5,2,4,2.4.4.1.7.2.9.3-.3.3-.9.3-1.2.8,0,.1.2,0,.3.1.1.2.5.2.8.2-.2.2-.4.5-.6.8-.2.1-.3.3-.5.5-.4.1-.8.2-1.2.2-.1,0-.3-.1-.4-.1.1-.1.2-.1.2-.2-.5-.9-1.9.1-2.3-.8-.2-.7,1-.7,1.4-1.2-2.9-.3-3.4-1.8-3.7-3.4.6-.7,1.2-1.5,1.8-2.4-.8.2-1.5.6-2.1,1-.1-.4-.3-.8-.5-1.2,0,.6-.2,1.2-.4,1.7-.7.4-1.3.7-2.2.6.6-.4,1.1-.8,1.7-1.2-.1-.2-.1-.3-.2-.5-2.9.8-5.7,1.3-7.5-1.8,2.8-.3,5.7-.6,7.1-3.2-1.8.1-3.5,1.7-5.6.7.6-.5,1.6-.6,2-1.4-1.1-.1-1.8-.3-1.1-1.4.5-.7-2.8-.6-3.3-2.1-.3-.5-.7-1.1.5-.9.6.1.9-.7.2-.8-1.4-.2-1.2-1.1-.9-1.9.4-1.1,0-2-.8-2.6-2.4-2-.7-5-2.1-7.5-.5.4-.5.9-.5,1.4.1,2.8-.5,5.5-1.8,8.1-.7,1.5.9,3.5,2.1,4.2-1.6.7-3.1.4-4.8.1.7,1.3,2.2,1.4,3.2,2.1-.8.6-1.7.2-2.5.4-.2.5,1,.7.5,1.2-.5.6-1.3.4-1.9.2-1-.4-2.2-.3-3.2-.9.8,2.9,5.1,2.5,4.9,3.6-.6,1.2-2.8,1-4.3,1,1.2,1.1,2.5,1.6,3.7,1.8,1,.2.9,1,1.5,1.4.2,1.1-5.7.4-6.5.3,0,.7.7.7,1.1,1-1.4.6-3.1-.9-3.6-.3-.1,1.6,3.9,2.3,4.7,4,.5.8,2.1.9,3,.4.3-.1.5-.6.9-.3.6.4-.5,1.1.1,1.3v-.2.3c-1,.2-1.9.8-3,.9-.9,0-1.3.9-1.2,1.6-.5.7-1.4.9-2.1,1.3-.4-.1-.6.2-.9.3-.1,0-.3-.1-.4,0-1.9.9-2.3-.5-3.1-1.5.6-.4,1.4.2,1.9-.5-.8-.4-1.8-.4-2.7-1.2h0c2.3,0,4.3,1.1,6.3.1-1.2-.1-6.5-1-5.1-2.8.1-.1-.1-.4-.2-.5-1.6-1.2-3-3.4-3.3-5.1,2.4-.4,4.5-1.1,6.4-3-2.2.5-4.2,1.6-6.1-.1.5-.2,1.1-.5,1.7-.8-.7-.6-2.2-.4-2.3-1.4-.2-1.1,1.2-1.2,2-1.8-.7-.7-1.5.3-2.2-.1-.1-.7.6-.8.9-1.1.3-.4.7-.7,1.1-1.1-2.3-.3-3.2,1.9-3.5-1.4-.2-1.7-1.5-3.2-1.8-5-.1-.8.2-1.8-.6-2.6-.6,2-.8,4-.6,6,.1,1.4-.1,2.6-2.1,2.9.5.6,1,1,1.6,1.1v.5c-1.4.2-2.2-1-3.3-1.3-.1-.4-.4-.2-.2.2h0c.3,1,1.6,1.5,2.2,2.7-4.2-.6-2.4-1.8-4-1.7-1.6,0-3.5-.5-4.9-2,.3-.4.7-.2,1-.2.5-.1,1.5.4,1-.9-.1-.2,1-.3,1.5-.5.2-.1.6.1.6-.3,0-.3-.3-.4-.6-.3-1.8.3-3.4-.4-5-.8-.9-.6-1.9-1.2-1.6-2.4.9-.6,2-.1,3-.3,1.7.1-.2-1.8,2.2-2.3-1.9,0-7.3-1.1-5.6-3.4.6-.8.2-1.2-.7-1s-1.5-.4-2-.8c0-.1,0-.2-.1-.2.7-1.7-1-2.7-1.3-4.1-.2-.8-.8-1.6-.7-2.5,0-.3-.2-.6-.5-.5-.4.1-.2.4-.2.6,0,1.4,0,2.8-.7,4.2-.5,1,.5,1.7.9,2.6h0c.2,1.7-1.1,2.9-2.7,3.6-1.9.9-3.1,2.8-5.6,2.7,1.9,1.4,3.9.4,5.9.5-1.4,1-2.8,1.3-4.4,1.3.7.7,1.1.8,2.7.8q-.9,1.1-6.8,1.7c2.3,2.2,6.3.6,6.9,1.5-.2,1.1-2.8,1.6-3.8,2.3,2.4.3,4.7.1,6.8-1.3,0,.9-.9,1.2-1.3,1.8-3.2,2-3.4,2-9,2.4,1.8,1.1,3.6,1.5,5.5,1.6.1.1.1.2,0,.2-1.7.7-2.5.6-4.6.6-.7-.6-1-1.4-1-2.4.1-1.5-1.2-2.6-1.4-4.1,0-.3.1-.7-.3-.9-.5,0-.4.4-.4.6,0,1.3,0,2.5-.8,3.6-.5.9.1,1.8.1,2.5-.1-.2-.1-.3-.2-.4,0,.5-.1.9-.3,1.3-.2.1-.5.3-.9.4-.2.1-.5.1-.6.4.3.3.7.2,1.1.3-.1.3-.1.5-.2.8-.3.1-.5.2-.7.5,0,.1.2,0,.3.1.1.2.3.2.5.2,0,.1,0,.2.1.3.1.4.2.7.1.9-.7.5-2,.4-2.9.1-.3,0-.6-.3-.8.1,0,.4.3.6.8.9h-1c.2.4.6.7.9.9h-.3c.1.6.5.8,1,.9.3.1.5.2.7.3-.1.7-1.4,1.5-1.5,2.6-.2.1-.4.3-.6.4-.7.4-1.5.4-2.3.4.5.6,1.3.4,2,.6-.5.3-.9.5-1.2.6h1.1c-.5.3-1.1.3-3.7.3-.7-.6-1.4-1.2-2.2-1.8,2.1-.4,3.9-.6,5.4-1.8-2-.5-4.4.1-6.3-1.3,1.3-.6,2.8-.6,4-2.1-4.2,1.4-5.5-1.5-8.1-3.3,5,.4,7.5-2.1,9.7-5.5-2.1.5-3.1,2.3-5.2,2.2.6-.4,1.1-.8,1.7-1.2-.1-.2-.1-.3-.2-.5-2.9.8-5.7,1.3-7.5-1.8,2.8-.3,5.7-.6,7.1-3.2-1.8.1-3.5,1.7-5.6.7.6-.5,1.6-.6,2-1.4-1.1-.1-1.8-.3-1.1-1.4.5-.7-2.8-.6-3.3-2.1-.3-.5-.7-1.1.5-.9.6.1.9-.7.2-.8-1.4-.2-1.2-1.1-.9-1.9.4-1.1,0-2-.8-2.6-2.4-2-.7-5-2.1-7.5-.5.4-.5.9-.5,1.4.1,2.8-.5,5.5-1.8,8.1-.7,1.5.9,3.5,2.1,4.2-1.6.7-3.1.4-4.8.1.7,1.3,2.2,1.4,3.2,2.1-.8.6-1.7.2-2.5.4-.2.5,1,.7.5,1.2-.5.6-1.3.4-1.9.2-1-.4-2.2-.3-3.2-.9.8,2.9,5.1,2.5,4.9,3.6-.6,1.2-2.8,1-4.3,1,1.2,1.1,2.5,1.6,3.7,1.8,1,.2.9,1,1.5,1.4.2,1.1-5.7.4-6.5.3,0,.7.7.7,1.1,1-1.4.6-3.1-.9-3.6-.3-.1,1.6,3.9,2.3,4.7,4,.5.8,2.1.9,3,.4.3-.1.5-.6.9-.3.6.4-.5,1.1.1,1.3v-.2.3c-1,.2-1.9.8-3,.9-.9,0-1.3.9-1.2,1.6-.5.7-1.4.9-2.1,1.3-.4-.1-.6.2-.9.3-.1,0-.3-.1-.4,0-1.9.9-2.3-.5-3.1-1.5.6-.4,1.4.2,1.9-.5-.8-.4-1.8-.4-2.7-1.2h0c2.3,0,4.3,1.1,6.3.1-1.2-.1-6.5-1-5.1-2.8.1-.1-.1-.4-.2-.5-1.6-1.2-3-3.4-3.3-5.1,2.4-.4,4.5-1.1,6.4-3-2.2.5-4.2,1.6-6.1-.1.5-.2,1.1-.5,1.7-.8-.7-.6-2.2-.4-2.3-1.4-.2-1.1,1.2-1.2,2-1.8-.7-.7-1.5.3-2.2-.1-.1-.7.6-.8.9-1.1.3-.4.7-.7,1.1-1.1-2.3-.3-3.2,1.9-3.5-1.4-.2-1.7-1.5-3.2-1.8-5-.1-.8.2-1.8-.6-2.6-.6,2-.8,4-.6,6,.1,1.4-.1,2.6-2.1,2.9.5.6,1,1,1.6,1.1v.5c-1.4.2-2.2-1-3.3-1.3-.1-.4-.4-.2-.2.2h0c.3,1,1.6,1.5,2.2,2.7-4.2-.6-2.4-1.8-4-1.7-1.6,0-3.5-.5-4.9-2,.3-.4.7-.2,1-.2.5-.1,1.5.4,1-.9-.1-.2,1-.3,1.5-.5.2-.1.6.1.6-.3,0-.3-.3-.4-.6-.3-1.8.3-3.4-.4-5-.8-.9-.6-1.9-1.2-1.6-2.4.9-.6,2-.1,3-.3,1.7.1-.2-1.8,2.2-2.3-1.9,0-7.3-1.1-5.6-3.4.6-.8.2-1.2-.7-1s-1.5-.4-2-.8c0-.1,0-.2-.1-.2.7-1.7-1-2.7-1.3-4.1-.2-.8-.8-1.6-.7-2.5,0-.3-.2-.6-.5-.5-.4.1-.2.4-.2.6,0,1.4,0,2.8-.7,4.2-.5,1,.5,1.7.9,2.6h0c.2,1.7-1.1,2.9-2.7,3.6-1.9.9-3.1,2.8-5.6,2.7,1.9,1.4,3.9.4,5.9.5-1.4,1-2.8,1.3-4.4,1.3.7.7,1.1.8,2.7.8q-.9,1.1-6.8,1.7c2.3,2.2,6.3.6,6.9,1.5-.2,1.1-2.8,1.6-3.8,2.3,2.4.3,4.7.1,6.8-1.3,0,.9-.9,1.2-1.3,1.8-3.2,2-3.4,2-9,2.4,1.8,1.1,3.6,1.5,5.5,1.6.1.1.1.2,0,.2-1.7.7-2.5.6-4.6.6,1.9,1.3,5.8,2.1,5.9,2.2-.4,1.5-5.2-.2-6.3-.6-.1-.2-.4-.3-.6-.2-.2.1,0,.3.2.4,1,1.2,2.5,2,4,2.4,2.3.6.8,1.1.2,2.2-1.1.9-2,3.3-3.7,1.7.6-.5,1.4-.6,1.9-1.2-.5-.9-1.9.1-2.3-.8-.2-.7,1-.7,1.4-1.2-4.4-.4-3.2-3.9-4.5-6,0,1.4-1.3,2.7-.6,4.3.8,2.1-2.1,2-3.7,1.9.4.7,1.1,1,1.7,1.3,1.7.9-.8,1.9-.9,3.3-.2.1-.4.3-.6.4-.7.4-1.5.4-2.3.4.6.8,1.8.3,2.4.9q-.8.6-4.7.6c.4,1.6,4,1.3,2.8,2.9-.3.2-.3.5-.3.8.4,3.9-3.9,3.2-6.9,3.2.9,1.6,4,2.1,7.8,1.4-.7.9-1.9,1.2-3.1,1.9h3.5c-.5.4-1,.8-1.6,1.1v.2-.2c-3,1.4-6,1.9-9.4.8,4.9,4.6,4.3,1.8,8.1,3.7-1.2,1-2.6,1.9-2.2,3.6-1.4,0-2.7.1-4.1.1-.6-.6-.9-1.3-.9-2.3.1-1.5-1.2-2.6-1.4-4.1,0-.3.1-.7-.3-.9-.5,0-.4.4-.4.6,0,1.3,0,2.5-.8,3.6-.6,1.2.7,2.4-.1,3.2-3.1.1-6.2.2-9.3.3,1.4-1,2.6-2.4,3.7-4.1-2.1.5-3.1,2.3-5.2,2.2.6-.4,1.1-.8,1.7-1.2-.1-.2-.1-.3-.2-.5-2.9.8-5.7,1.3-7.5-1.8,2.8-.3,5.7-.6,7.1-3.2-1.8.1-3.5,1.7-5.6.7.6-.5,1.6-.6,2-1.4-1.1-.1-1.8-.3-1.1-1.4.5-.7-2.8-.6-3.3-2.1-.3-.5-.7-1.1.5-.9.6.1.9-.7.2-.8-1.4-.2-1.2-1.1-.9-1.9.4-1.1,0-2-.8-2.6-2.4-2-.7-5-2.1-7.5-.5.4-.5.9-.5,1.4.1,2.8-.5,5.5-1.8,8.1-.7,1.5.9,3.5,2.1,4.2-1.6.7-3.1.4-4.8.1.7,1.3,2.2,1.4,3.2,2.1-.8.6-1.7.2-2.5.4-.2.5,1,.7.5,1.2-.5.6-1.3.4-1.9.2-1-.4-2.2-.3-3.2-.9.8,2.9,5.1,2.5,4.9,3.6-.6,1.2-2.8,1-4.3,1,1.2,1.1,2.5,1.6,3.7,1.8,1,.2.9,1,1.5,1.4.2,1.1-5.7.4-6.5.3,0,.7.7.7,1.1,1-1.4.6-3.1-.9-3.6-.3,0,.6.5,1.1,1.2,1.5-1.6.1-3.1.1-4.6.2-.9-1.1-1.5-2.4-1.7-3.5,2.4-.4,4.5-1.1,6.4-3-2.2.5-4.2,1.6-6.1-.1.5-.2,1.1-.5,1.7-.8-.7-.6-2.2-.4-2.3-1.4-.2-1.1,1.2-1.2,2-1.8-.7-.7-1.5.3-2.2-.1-.1-.7.6-.8.9-1.1.3-.4.7-.7,1.1-1.1-2.3-.3-3.2,1.9-3.5-1.4-.2-1.7-1.5-3.2-1.8-5-.1-.8.2-1.8-.6-2.6-.6,2-.8,4-.6,6,.1,1.4-.1,2.6-2.1,2.9.5.6,1,1,1.6,1.1v.5c-1.4.2-2.2-1-3.3-1.3-.1-.4-.4-.2-.2.2h0c.3,1,1.6,1.5,2.2,2.7-4.2-.6-2.4-1.8-4-1.7-1.6,0-3.5-.5-4.9-2,.3-.4.7-.2,1-.2.5-.1,1.5.4,1-.9-.1-.2,1-.3,1.5-.5.2-.1.6.1.6-.3,0-.3-.3-.4-.6-.3-1.8.3-3.4-.4-5-.8-.9-.6-1.9-1.2-1.6-2.4.9-.6,2-.1,3-.3,1.7.1-.2-1.8,2.2-2.3-1.9,0-7.3-1.1-5.6-3.4.6-.8.2-1.2-.7-1s-1.5-.4-2-.8c0-.1,0-.2-.1-.2.7-1.7-1-2.7-1.3-4.1-.2-.8-.8-1.6-.7-2.5,0-.3-.2-.6-.5-.5-.4.1-.2.4-.2.6,0,1.4,0,2.8-.7,4.2-.5,1,.5,1.7.9,2.6.2,1.7-1.1,2.9-2.7,3.6-1.9.9-3.1,2.8-5.6,2.7,1.9,1.4,3.9.4,5.9.5-1.4,1-2.8,1.3-4.4,1.3.7.7,1.1.8,2.7.8q-.9,1.1-6.8,1.7c2.3,2.2,6.3.6,6.9,1.5-.2,1.1-2.8,1.6-3.8,2.3,2.4.3,4.7.1,6.8-1.3,0,.9-.9,1.2-1.3,1.8-3.2,2-3.4,2-9,2.4,1.8,1.1,3.6,1.5,5.5,1.6.1.1.1.2,0,.2-1.7.7-2.5.6-4.6.6,1.9,1.3,5.8,2.1,5.9,2.2-.4,1.5-5.2-.2-6.3-.6-.1-.2-.4-.3-.6-.2-.2.1,0,.3.2.4,1,1.2,2.5,2,4,2.4,2.3.6.8,1.1.2,2.2-.6.6-1.2,1.6-1.9,2-.4,0-.8,0-1.1.1-.2-.1-.4-.2-.6-.4.6-.5,1.4-.6,1.9-1.2-.5-.9-1.9.1-2.3-.8-.2-.7,1-.7,1.4-1.2-4.4-.4-3.2-3.9-4.5-6,0,1.4-1.3,2.7-.6,4.3.8,2.1-2.1,2-3.7,1.9.4.7,1.1,1,1.7,1.3,1.4.7,0,1.5-.6,2.6-4.9.4-9,.8-12.1,1.3-97.6,15.1-161.8,23.3-200.5,34.5-.7-.1-1.7.5-3.2-1.7.8-.2,1.5-.3,2.1-.4.6-.1,1.5,0,1.5-.7,0-.8-1-.1-1.4-.6,1-.6,2.5-.9,3-2.2-2.3.6-5.5,1.2-6.5-1.3-.2-.5-.4-1,.5-1.2.6-.1.7-.4-.1-.8-1.2-.6-1.9-1.6-1.9-3,.1-1.5-1.2-2.6-1.4-4.1,0-.3.1-.7-.3-.9-.5,0-.4.4-.4.6,0,1.3,0,2.5-.8,3.6-.8,1.5,1.5,3-1.3,3.8-.2.1-.5.1-.6.4.5.5,1.2.1,1.7.4-.1.7-1.1.5-1.4,1.1,0,.1.2,0,.3.1.3.4,1.4,0,1.2.7-.3,1.4-2.2,1.3-3.4.9-.3,0-.6-.3-.8.1,0,.9,2.1,1.3,3.1,1.5-1,.5-1.8.2-2.7.1.1.6.5.8,1,.9,3.4.8-1.4,4.4-2.9,4.9h3.7c-.8.4-1.2.6-1.7.9.1.6.7.5,1,.6,0,0,0,.1-.1.1-.3.1-.6.2-.9.3-.2.1-.3.1-.5.2-.7.1-1.5,0-1.9-.2-1.6-.9-2.7-2.2-4.4-3.5,2.1-.4,3.9-.6,5.4-1.8-2-.5-4.4.1-6.3-1.3,1.3-.6,2.8-.6,4-2.1-4.2,1.4-5.5-1.5-8.1-3.3,5,.4,7.5-2.1,9.7-5.5-2.1.5-3.1,2.3-5.2,2.2.6-.4,1.1-.8,1.7-1.2-.1-.2-.1-.3-.2-.5-2.9.8-5.7,1.3-7.5-1.8,2.8-.3,5.7-.6,7.1-3.2-1.8.1-3.5,1.7-5.6.7.6-.5,1.6-.6,2-1.4-1.1-.1-1.8-.3-1.1-1.4.5-.7-2.8-.6-3.3-2.1-.3-.5-.7-1.1.5-.9.6.1.9-.7.2-.8-1.4-.2-1.2-1.1-.9-1.9.4-1.1,0-2-.8-2.6-2.4-2-.7-5-2.1-7.5-.5.4-.5.9-.5,1.4.1,2.8-.5,5.5-1.8,8.1-.7,1.5.9,3.5,2.1,4.2-1.6.7-3.1.4-4.8.1.7,1.3,2.2,1.4,3.2,2.1-.8.6-1.7.2-2.5.4-.2.5,1,.7.5,1.2-.5.6-1.3.4-1.9.2-1-.4-2.2-.3-3.2-.9.8,2.9,5.1,2.5,4.9,3.6-.6,1.2-2.8,1-4.3,1,1.2,1.1,2.5,1.6,3.7,1.8,1,.2.9,1,1.5,1.4.2,1.1-5.7.4-6.5.3,0,.7.7.7,1.1,1-1.4.6-3.1-.9-3.6-.3-.1,1.6,3.9,2.3,4.7,4,.5.8,2.1.9,3,.4.3-.1.5-.6.9-.3.6.4-.5,1.1.1,1.3v-.2.3c-1,.2-1.9.8-3,.9-.9,0-1.3.9-1.2,1.6-.5.7-1.4.9-2.1,1.3-.4-.1-.6.2-.9.3-.1,0-.3-.1-.4,0-1.9.9-2.3-.5-3.1-1.5.6-.4,1.4.2,1.9-.5-.8-.4-1.8-.4-2.7-1.2h0c2.3,0,4.3,1.1,6.3.1-1.2-.1-6.5-1-5.1-2.8.1-.1-.1-.4-.2-.5-1.6-1.2-3-3.4-3.3-5.1,2.4-.4,4.5-1.1,6.4-3-2.2.5-4.2,1.6-6.1-.1.5-.2,1.1-.5,1.7-.8-.7-.6-2.2-.4-2.3-1.4-.2-1.1,1.2-1.2,2-1.8-.7-.7-1.5.3-2.2-.1-.1-.7.6-.8.9-1.1.3-.4.7-.7,1.1-1.1-2.3-.3-3.2,1.9-3.5-1.4-.2-1.7-1.5-3.2-1.8-5-.1-.8.2-1.8-.6-2.6-.6,2-.8,4-.6,6,.1,1.4-.1,2.6-2.1,2.9.5.6,1,1,1.6,1.1v.5c-1.4.2-2.2-1-3.3-1.3-.1-.4-.4-.2-.2.2h0c.3,1,1.6,1.5,2.2,2.7-4.2-.6-2.4-1.8-4-1.7-1.6,0-3.5-.5-4.9-2,.3-.4.7-.2,1-.2.5-.1,1.5.4,1-.9-.1-.2,1-.3,1.5-.5.2-.1.6.1.6-.3,0-.3-.3-.4-.6-.3-1.8.3-3.4-.4-5-.8-.9-.6-1.9-1.2-1.6-2.4.9-.6,2-.1,3-.3,1.7.1-.2-1.8,2.2-2.3-1.9,0-7.3-1.1-5.6-3.4.6-.8.2-1.2-.7-1-.9.2-1.5-.4-2-.8,0-.1,0-.2-.1-.2.7-1.7-1-2.7-1.3-4.1-.2-.8-.8-1.6-.7-2.5,0-.3-.2-.6-.5-.5-.4.1-.2.4-.2.6,0,1.4,0,2.8-.7,4.2-.5,1,.5,1.7.9,2.6h0c.2,1.7-1.1,2.9-2.7,3.6-1.9.9-3.1,2.8-5.6,2.7,1.9,1.4,3.9.4,5.9.5-1.4,1-2.8,1.3-4.4,1.3.7.7,1.1.8,2.7.8q-.9,1.1-6.8,1.7c2.3,2.2,6.3.6,6.9,1.5-.2,1.1-2.8,1.6-3.8,2.3,2.4.3,4.7.1,6.8-1.3,0,.9-.9,1.2-1.3,1.8-3.2,2-3.4,2-9,2.4,1.8,1.1,3.6,1.5,5.5,1.6.1.1.1.2,0,.2-1.7.7-2.5.6-4.6.6,1.9,1.3,5.8,2.1,5.9,2.2-.4,1.5-5.2-.2-6.3-.6-.1-.2-.4-.3-.6-.2s0,.3.2.4c1,1.2,2.5,2,4,2.4,2.3.6.8,1.1.2,2.2-1.1.9-2,3.3-3.7,1.7.6-.5,1.4-.6,1.9-1.2-.5-.9-1.9.1-2.3-.8-.2-.7,1-.7,1.4-1.2-4.4-.4-3.2-3.9-4.5-6,0,1.4-1.3,2.7-.6,4.3.8,2.1-2.1,2-3.7,1.9.4.7,1.1,1,1.7,1.3,1.7.9-.8,1.9-.9,3.3-.2.1-.4.3-.6.4-.7.4-1.5.4-2.3.4.6.8,1.8.3,2.4.9q-.8.6-4.7.6c.4,1.6,4,1.3,2.8,2.9-.3.2-.3.5-.3.8.4,3.9-3.9,3.2-6.9,3.2.9,1.6,4,2.1,7.8,1.4-.7.9-1.9,1.2-3.1,1.9h3.5c-.3.3-.7.5-1.1.8-59.8-7-126.5-27.3-146.2-33.5.7-.2,1.3-.4,1.3-1.1-.8-.7-1.8.8-3.7-1.9.8-.2,1.5-.3,2.1-.4.6-.1,1.5,0,1.5-.7,0-.8-1-.1-1.4-.6,1-.6,2.5-.9,3-2.2-2.3.6-5.5,1.2-6.5-1.3-.2-.5-.4-1,.5-1.2.6-.1.7-.4-.1-.8-1.2-.6-1.9-1.6-1.9-3,.1-1.5-1.2-2.6-1.4-4.1,0-.3.1-.7-.3-.9-.5,0-.4.4-.4.6,0,1.3,0,2.5-.8,3.6-.8,1.5,1.5,3-1.3,3.8-.2.1-.5.1-.6.4.5.5,1.2.1,1.7.4-.1.7-1.1.5-1.4,1.1,0,.1.2,0,.3.1.3.4,1.4,0,1.2.7-.3,1.4-2.2,1.3-3.4.9-.3,0-.6-.3-.8.1,0,.9,2.1,1.3,3.1,1.5-1,.5-1.8.2-2.7.1.1.6.5.8,1,.9.6.1.9.3,1,.6-1.5-.6-3.5-1.4-5.9-2.2q.1-.1.2-.2c-.1,0-.2.1-.3.1.3-.2.6-.4.8-.6-3.1.2-5.2-1.1-7.2-2.7,4.1-.1,6.3-2.5,8.3-5.5-2.1.5-3.1,2.3-5.2,2.2.6-.4,1.1-.8,1.7-1.2-.1-.2-.1-.3-.2-.5-.6.2-1.1.3-1.7.4.2-.2.3-.5.3-.8s.7-.6,1-1c-1.7-.1-3.2.7-4.9.2.5-.6,1.6-.2,1.8-1.1-.3,0-.5,0-.8-.1,1.6-.4,3-1.1,3.9-2.7-1.8.1-3.5,1.7-5.6.7.6-.5,1.6-.6,2-1.4-.9-.1-1.5-.2-1.3-.8.6-.2,1.2-.6,2-1.1-.8,0-1.6,0-2.3-.1-.8-.3-2.1-.5-2.5-1.3,1.3-.2,3-.9,1.6-1.3-.3.1-.5.1-.7.1.3-.2.3-.6-.2-.7-1.4-.2-1.2-1.1-.9-1.9.4-1.1,0-2-.8-2.6-.3-.3-.6-.5-.7-.8.1-.1.1-.2.1-.4-.1-.2-.2-.2-.4-.2-.7-1.9.1-4.1-1-6-.5.4-.5.9-.5,1.4.1,1.5-.1,3-.4,4.5-.3-.1-.6-.2-1-.4.1-.4.5-.2.7-.3,2.3-.5-3.5-2.3-3.8-3.1-2.5-2,1.8-1,1.7-2.7-.8-.7-1.8.8-3.7-1.9.8-.2,1.5-.3,2.1-.4.6-.1,1.5,0,1.5-.7,0-.8-1-.1-1.4-.6,1-.6,2.5-.9,3-2.2-2.3.6-5.5,1.2-6.5-1.3-.2-.5-.4-1,.5-1.2.6-.1.7-.4-.1-.8-1.2-.6-1.9-1.6-1.9-3,.1-1.5-1.2-2.6-1.4-4.1,0-.3.1-.7-.3-.9-.5,0-.4.4-.4.6,0,1.3,0,2.5-.8,3.6-.8,1.5,1.5,3-1.3,3.8-.2.1-.5.1-.6.4.5.5,1.2.1,1.7.4-.1.7-1.1.5-1.4,1.1,0,.1.2,0,.3.1.3.4,1.4,0,1.2.7-.3,1.4-2.2,1.3-3.4.9-.3,0-.6-.3-.8.1,0,.9,2.1,1.3,3.1,1.5-1,.5-1.8.2-2.7.1.1.6.5.8,1,.9,3.4.8-1.4,4.4-2.9,4.9h3.7c-.8.4-1.2.7-1.7.9.1.6.7.5,1,.6-.2.6-2.6.8-3.4.4-1.6-.9-2.7-2.2-4.4-3.5,2.1-.4,3.9-.6,5.4-1.8-2-.5-4.4.1-6.3-1.3,1.3-.6,2.8-.6,4-2.1-4.2,1.4-5.5-1.5-8.1-3.3,5,.4,7.5-2.1,9.7-5.5-2.1.5-3.1,2.3-5.2,2.2.6-.4,1.1-.8,1.7-1.2-.1-.2-.1-.3-.2-.5-2.9.8-5.7,1.3-7.5-1.8,2.8-.3,5.7-.6,7.1-3.2-1.8.1-3.5,1.7-5.6.7.6-.5,1.6-.6,2-1.4-1.1-.1-1.8-.3-1.1-1.4.5-.7-2.8-.6-3.3-2.1-.3-.5-.7-1.1.5-.9.6.1.9-.7.2-.8-1.4-.2-1.2-1.1-.9-1.9.4-1.1,0-2-.8-2.6-2.4-2-.7-5-2.1-7.5-.5.4-.5.9-.5,1.4.1,2.8-.5,5.5-1.8,8.1-.7,1.5.9,3.5,2.1,4.2-1.6.7-3.1.4-4.8.1.7,1.3,2.2,1.4,3.2,2.1-.8.6-1.7.2-2.5.4-.2.5,1,.7.5,1.2-.5.6-1.3.4-1.9.2-1-.4-2.2-.3-3.2-.9.8,2.9,5.1,2.5,4.9,3.6-.6,1.2-2.8,1-4.3,1,1.2,1.1,2.5,1.6,3.7,1.8,1,.2.9,1,1.5,1.4.2,1.1-5.7.4-6.5.3,0,.7.7.7,1.1,1-1.4.6-3.1-.9-3.6-.3-.1,1.6,3.9,2.3,4.7,4,.3.5,1.1.7,1.8.7,0,.5.2.9.3,1.4-.4.1-.7.2-1.1.2-.3,0-.6.1-.8.3-.3-.7-.7-1.3-.6-2.1,0-.3-.2-.6-.5-.5-.4.1-.2.4-.2.6v1.8c-.7-.1-2.9-.4-4.2-1.1.6-.7,1.1-1.4,1.6-2.2-1.1.3-1.9.9-2.7,1.4-.1-.3-.1-.6.2-.9.1-.1-.1-.4-.2-.5-1-.8-2-1.9-2.6-3.1.4-.4.8-.8,1.1-1.4-.5,0-1,.2-1.5.3-.1-.3-.2-.6-.3-1,2.4-.4,4.5-1.1,6.4-3-2.2.5-4.2,1.6-6.1-.1.5-.2,1.1-.5,1.7-.8-.7-.6-2.2-.4-2.3-1.4-.2-1.1,1.2-1.2,2-1.8-.7-.7-1.5.3-2.2-.1-.1-.7.6-.8.9-1.1.3-.4.7-.7,1.1-1.1-2.3-.3-3.2,1.9-3.5-1.4-.2-1.7-1.5-3.2-1.8-5-.1-.8.2-1.8-.6-2.6-.6,2-.8,4-.6,6,.1,1.3-.1,2.5-1.8,2.8-.1-.1-.2-.2-.4-.3-2.4-2-.7-5-2.1-7.5-.5.4-.5.9-.5,1.4.1,2.7-.4,5.3-1.6,7.8-1.4-.1-3.1-.7-4.3-1.9.3-.4.7-.2,1-.2.5-.1,1.5.4,1-.9-.1-.2,1-.3,1.5-.5.2-.1.6.1.6-.3,0-.3-.3-.4-.6-.3-1.8.3-3.4-.4-5-.8-.9-.6-1.9-1.2-1.6-2.4.9-.6,2-.1,3-.3,1.7.1-.2-1.8,2.2-2.3-1.9,0-7.3-1.1-5.6-3.4.6-.8.2-1.2-.7-1-.9.2-1.5-.4-2-.8,0-.1,0-.2-.1-.2.7-1.7-1-2.7-1.3-4.1-.2-.8-.8-1.6-.7-2.5,0-.3-.2-.6-.5-.5-.4.1-.2.4-.2.6,0,1.4,0,2.8-.7,4.2-.5,1,.5,1.7.9,2.6h0c.2,1.7-1.1,2.9-2.7,3.6-1.9.9-3.1,2.8-5.6,2.7,1.9,1.4,3.9.4,5.9.5-1.4,1-2.8,1.3-4.4,1.3.7.7,1.1.8,2.7.8q-.9,1.1-6.8,1.7c1.3,1.3,3.3,1.3,4.8,1.2-.2.7-.3,1.3-.4,2-.5.2-.9.4-1.2.6.4,0,.8.1,1.1.1-.1.8-.1,1.6-.1,2.4-1.1.2-2.4.3-4.6.5,1.5.9,3,1.3,4.6,1.5-.1.3-.2.5-.4.7-1,.2-1.8.1-3.3.2.6.4,1.4.7,2.2,1,.3.3.7.5,1.2.6v.5c-1.4.2-2.2-1-3.3-1.3-.1-.4-.4-.2-.2.2h0c.1.4.4.7.6.9-.4-.1-.7-.3-.9-.3-.1-.2-.4-.3-.6-.2s0,.3.2.4c.6.8,1.5,1.4,2.4,1.8-3.5-.6-2-1.7-3.5-1.7-.3,0-.7,0-1-.1-.2-1-.4-2.1-.9-2.9,0,.9-.4,1.7-.7,2.5-.8-.3-1.6-.8-2.3-1.5.3-.4.7-.2,1-.2.5-.1,1.5.4,1-.9-.1-.2,1-.3,1.5-.5.2-.1.6.1.6-.3,0-.3-.3-.4-.6-.3-1.8.3-3.4-.4-5-.8-.9-.6-1.9-1.2-1.6-2.4.9-.6,2-.1,3-.3,1.7.1-.2-1.8,2.2-2.3-1.9,0-7.3-1.1-5.6-3.4.6-.8.2-1.2-.7-1-.9.2-1.5-.4-2-.8,0-.1,0-.2-.1-.2.7-1.7-1-2.7-1.3-4.1-.2-.8-.8-1.6-.7-2.5,0-.3-.2-.6-.5-.5-.4.1-.2.4-.2.6,0,1.4,0,2.8-.7,4.2-.5,1,.5,1.7.9,2.6h0c.2,1.7-1.1,2.9-2.7,3.6-1.9.9-3.1,2.8-5.6,2.7,1.9,1.4,3.9.4,5.9.5-1.4,1-2.8,1.3-4.4,1.3.7.7,1.1.8,2.7.8q-.9,1.1-6.8,1.7c2.3,2.2,6.3.6,6.9,1.5-.2,1.1-2.8,1.6-3.8,2.3,2.4.3,4.7.1,6.8-1.3,0,.9-1,1.2-1.3,1.8-2.8,1.8-3.4,2-7.3,2.3-.6-.2-1.2-.5-1.4-1.1-.3-.5-.7-1.1.5-.9.6.1.9-.7.2-.8-1.4-.2-1.2-1.1-.9-1.9.4-1.1,0-2-.8-2.6-2.4-2-.7-5-2.1-7.5-.5.4-.5.9-.5,1.4.1,2.8-.5,5.5-1.8,8.1-.7,1.5.9,3.5,2.1,4.2-1.6.7-3.1.4-4.8.1.7,1.3,2.2,1.4,3.2,2.1-.8.6-1.7.2-2.5.4-.2.5,1,.7.5,1.2-.5.6-1.3.4-1.9.2-1-.4-2.2-.3-3.2-.9.8,2.9,5.1,2.5,4.9,3.6-.6,1.2-2.8,1-4.3,1,1.2,1.1,2.5,1.6,3.7,1.8,1,.2.9,1,1.5,1.4.2,1.1-5.7.4-6.5.3,0,.7.7.7,1.1,1-1.4.6-3.1-.9-3.6-.3-.1,1.1,1.7,1.8,3.1,2.6-2-.1-4-.3-6-.4-1.1-1.2-1.9-2.7-2.1-4,2.4-.4,4.5-1.1,6.4-3-2.2.5-4.2,1.6-6.1-.1.5-.2,1.1-.5,1.7-.8-.7-.6-2.2-.4-2.3-1.4-.2-1.1,1.2-1.2,2-1.8-.7-.7-1.5.3-2.2-.1-.1-.7.6-.8.9-1.1.3-.4.7-.7,1.1-1.1-2.3-.3-3.2,1.9-3.5-1.4-.2-1.7-1.5-3.2-1.8-5-.1-.8.2-1.8-.6-2.6-.6,2-.8,4-.6,6,.1,1.4-.1,2.6-2.1,2.9.5.6,1,1,1.6,1.1v.5c-1.4.2-2.2-1-3.3-1.3-.1-.4-.4-.2-.2.2h0c.3,1,1.6,1.5,2.2,2.7-4.2-.6-2.4-1.8-4-1.7-1.6,0-3.5-.5-4.9-2,.3-.4.7-.2,1-.2.5-.1,1.5.4,1-.9-.1-.2,1-.3,1.5-.5.2-.1.6.1.6-.3,0-.3-.3-.4-.6-.3-1.8.3-3.4-.4-5-.8-.9-.6-1.9-1.2-1.6-2.4.9-.6,2-.1,3-.3,1.7.1-.2-1.8,2.2-2.3-1.9,0-7.3-1.1-5.6-3.4.6-.8.2-1.2-.7-1-.9.2-1.5-.4-2-.8,0-.1,0-.2-.1-.2.7-1.7-1-2.7-1.3-4.1-.2-.8-.8-1.6-.7-2.5,0-.3-.2-.6-.5-.5-.4.1-.2.4-.2.6,0,1.4,0,2.8-.7,4.2-.5,1,.5,1.7.9,2.6h0c.2,1.7-1.1,2.9-2.7,3.6-1.9.9-3.1,2.8-5.6,2.7,1.9,1.4,3.9.4,5.9.5-1.4,1-2.8,1.3-4.4,1.3.7.7,1.1.8,2.7.8q-.9,1.1-6.8,1.7c2.3,2.2,6.3.6,6.9,1.5-.2,1.1-2.8,1.6-3.8,2.3,2.4.3,4.7.1,6.8-1.3,0,.9-1,1.2-1.3,1.8-3.2,2-3.4,2-9,2.4,1.8,1.1,3.6,1.5,5.5,1.6.1.1.1.2,0,.2-1.7.7-2.5.6-4.6.6,1.9,1.3,5.8,2.1,5.9,2.2-.4,1.5-5.2-.2-6.3-.6-.1-.2-.4-.3-.6-.2s0,.3.2.4c1,1.2,2.5,2,4,2.4,2.3.6.8,1.1.2,2.2-.1.1-.2.2-.4.4h-1.5c-.5-.8-1.9.2-2.3-.7-.2-.7,1-.7,1.4-1.2-4.4-.4-3.2-3.9-4.5-6,0,1.4-1.3,2.7-.6,4.3.8,2.1-2.1,2-3.7,1.9.4.7,1.1,1,1.7,1.3.4.2.6.4.6.7-19.7.7-39,1.8-57.5,3.2,0-.2-.1-.4-.3-.5-.4,0-.4.3-.4.5-4.6.4-9.2.7-13.7,1.1,1.2-.4,2.2-1.2,2.9-2.5-1.8.1-3.5,1.7-5.6.7.6-.5,1.6-.6,2-1.4-1.1-.1-1.8-.3-1.1-1.4.5-.7-2.8-.6-3.3-2.1-.3-.5-.7-1.1.5-.9.6.1.9-.7.2-.8-1.4-.2-1.2-1.1-.9-1.9.4-1.1,0-2-.8-2.6-2.4-2-.7-5-2.1-7.5-.5.4-.5.9-.5,1.4.1,2.8-.5,5.5-1.8,8.1-.7,1.5.9,3.5,2.1,4.2-1.6.7-3.1.4-4.8.1.7,1.3,2.2,1.4,3.2,2.1-.8.6-1.7.2-2.5.4-.2.5,1,.7.5,1.2-.5.6-1.3.4-1.9.2-1-.4-2.2-.3-3.2-.9.8,2.9,5.1,2.5,4.9,3.6-.6,1.2-2.8,1-4.3,1,.2.1.3.3.5.4-1.6.2-3.2.3-4.8.5.7-.4,1.3-.9,1.9-1.5-2.2.5-4.2,1.6-6.1-.1.5-.2,1.1-.5,1.7-.8-.7-.6-2.2-.4-2.3-1.4-.2-1.1,1.2-1.2,2-1.8-.7-.7-1.5.3-2.2-.1-.1-.7.6-.8.9-1.1.3-.4.7-.7,1.1-1.1-2.3-.3-3.2,1.9-3.5-1.4-.2-1.7-1.5-3.2-1.8-5-.1-.8.2-1.8-.6-2.6-.6,2-.8,4-.6,6,.1,1.4-.1,2.6-2.1,2.9.5.6,1,1,1.6,1.1v.5c-1.4.2-2.2-1-3.3-1.3-.1-.4-.4-.2-.2.2h0c.3,1,1.6,1.5,2.2,2.7-4.2-.6-2.4-1.8-4-1.7-1.6,0-3.5-.5-4.9-2,.3-.4.7-.2,1-.2.5-.1,1.5.4,1-.9-.1-.2,1-.3,1.5-.5.2-.1.6.1.6-.3,0-.3-.3-.4-.6-.3-1.8.3-3.4-.4-5-.8-.9-.6-1.9-1.2-1.6-2.4.9-.6,2-.1,3-.3,1.7.1-.2-1.8,2.2-2.3-1.9,0-7.3-1.1-5.6-3.4.6-.8.2-1.2-.7-1-.9.2-1.5-.4-2-.8,0-.1,0-.2-.1-.2.7-1.7-1-2.7-1.3-4.1-.2-.8-.8-1.6-.7-2.5,0-.3-.2-.6-.5-.5-.4.1-.2.4-.2.6,0,1.4,0,2.8-.7,4.2-.5,1,.5,1.7.9,2.6h0c.2,1.7-1.1,2.9-2.7,3.6-1.9.9-3.1,2.8-5.6,2.7,1.9,1.4,3.9.4,5.9.5-1.4,1-2.8,1.3-4.4,1.3.7.7,1.1.8,2.7.8q-.9,1.1-6.8,1.7c2.3,2.2,6.3.6,6.9,1.5-.2,1.1-2.8,1.6-3.8,2.3,2.4.3,4.7.1,6.8-1.3,0,.9-.9,1.2-1.3,1.8-3.2,2-3.4,2-9,2.4,1.8,1.1,3.6,1.5,5.5,1.6.1.1.1.2,0,.2-1.7.7-2.5.6-4.6.6,1.9,1.3,5.8,2.1,5.9,2.2-.4,1.5-5.2-.2-6.3-.6-.1-.2-.4-.3-.6-.2s0,.3.2.4c1,1.2,2.5,2,4,2.4,1.9.5,1.2.9.6,1.6-1.5.2-3,.4-4.4.5q-.1-.1-.2-.3c-.2-.7,1-.7,1.4-1.2-4.4-.4-3.2-3.9-4.5-6,0,1.3-1.1,2.5-.7,3.9-.4-.5-.6-1.1-.5-1.9.1-1.5-1.2-2.6-1.4-4.1,0-.3.1-.7-.3-.9-.5,0-.4.4-.4.6,0,1.3,0,2.5-.8,3.6-.8,1.5,1.5,3-1.3,3.8-.2.1-.5.1-.6.4.5.5,1.2.1,1.7.4-.1.7-1.1.5-1.4,1.1,0,.1.2,0,.3.1.3.4,1.4,0,1.2.7-.1.3-.2.5-.4.7-.9.1-1.7.2-2.5.3-.2,0-.3-.1-.4-.1-.3,0-.6-.3-.8.1q0,.1.1.2c-2.2.3-4.2.5-6.3.8-2-.5-3.2-2.3-5-3.5,5,.4,7.5-2.1,9.7-5.5-2.1.5-3.1,2.3-5.2,2.2.6-.4,1.1-.8,1.7-1.2-.1-.2-.1-.3-.2-.5-2.9.8-5.7,1.3-7.5-1.8,2.8-.3,5.7-.6,7.1-3.2-1.8.1-3.5,1.7-5.6.7.6-.5,1.6-.6,2-1.4-1.1-.1-1.8-.3-1.1-1.4.5-.7-2.8-.6-3.3-2.1-.3-.5-.7-1.1.5-.9.6.1.9-.7.2-.8-1.4-.2-1.2-1.1-.9-1.9.4-1.1,0-2-.8-2.6-2.4-2-.7-5-2.1-7.5-.5.4-.5.9-.5,1.4.1,2.8-.5,5.5-1.8,8.1-.7,1.5.9,3.5,2.1,4.2-1.6.7-3.1.4-4.8.1.7,1.3,2.2,1.4,3.2,2.1-.8.6-1.7.2-2.5.4-.2.5,1,.7.5,1.2-.5.6-1.3.4-1.9.2-1-.4-2.2-.3-3.2-.9.8,2.9,5.1,2.5,4.9,3.6-.6,1.2-2.8,1-4.3,1,1.2,1.1,2.5,1.6,3.7,1.8,1,.2.9,1,1.5,1.4.2,1.1-5.7.4-6.5.3,0,.7.7.7,1.1,1-1.4.6-3.1-.9-3.6-.3-.1,1.6,3.9,2.3,4.7,4,.5.8,2.1.9,3,.4.3-.1.5-.6.9-.3.6.4-.5,1.1.1,1.3v-.2.3c-1,.2-1.9.8-3,.9-.9,0-1.3.9-1.2,1.6-.1.1-.2.2-.3.4-1.9.3-3.8.5-5.5.8-.2-.3-.5-.7-.7-1,.6-.4,1.4.2,1.9-.5-.8-.4-1.8-.4-2.7-1.2h0c2.3,0,4.3,1.1,6.3.1-1.2-.1-6.5-1-5.1-2.8.1-.1-.1-.4-.2-.5-1.6-1.2-3-3.4-3.3-5.1,2.4-.4,4.5-1.1,6.4-3-2.2.5-4.2,1.6-6.1-.1.5-.2,1.1-.5,1.7-.8-.7-.6-2.2-.4-2.3-1.4-.2-1.1,1.2-1.2,2-1.8-.7-.7-1.5.3-2.2-.1-.1-.7.6-.8.9-1.1.3-.4.7-.7,1.1-1.1-2.3-.3-3.2,1.9-3.5-1.4-.2-1.7-1.5-3.2-1.8-5-.1-.8.2-1.8-.6-2.6-.6,2-.8,4-.6,6,.1,1.4-.1,2.6-2.1,2.9.5.6,1,1,1.6,1.1v.5c-1.4.2-2.2-1-3.3-1.3-.1-.4-.4-.2-.2.2h0c.3,1,1.6,1.5,2.2,2.7-4.2-.6-2.4-1.8-4-1.7-1.4,0-3.1-.4-4.5-1.6v-.6c.2,0,.4.1.6,0,.5-.1,1.5.4,1-.9-.1-.2,1-.3,1.5-.5.2-.1.6.1.6-.3,0-.3-.3-.4-.6-.3-1.1.2-2.1,0-3.1-.3v-3.2c.9-.3-.4-1.8,1.7-2.3-.4,0-1.1,0-1.7-.2l-.2-40.5-24.4-41.7-90,75.8-110,13,27.3-16.6-27-19.3c32.3,7.4,93.7-.7,93.7-.7,0,0,71.7-27.2,106-52.2l36.4-55-7.6-18-104.2,65.6v-13.3c-71.6,39.1-138.8,60.7-194.3,35.6l23.7,30.7-133.2-24.3-36.2,18.9,26.6,13.9,54-4.9,55.1,39.8v20.3l-97,81.2c-54.4-1.5-105.6-.7-139.7,12.5l-47.3-27.3-17.4,10c-1.2-1.1-1.9-2.5-1.8-4.4.1-2.7-2.2-5-2.6-7.7-.1-.5.2-1.4-.6-1.8-.9,0-.7.7-.7,1.1.1,2.4,0,4.7-1.5,6.8-1.5,2.9,2.9,5.6-2.4,7.1-.4.1-1,.1-1.1.7.9.9,2.2.1,3.2.8-.2,1.3-2,1-2.6,2.1,0,.2.4,0,.5.2.1.1.2.2.4.3l-4.7,2.7c-.5-.1-1-.5-1.3.2,0,.2,0,.4.1.5l-10.6,6.1c-1-.3-2-.7-2.9-1.3,2.4-1.1,5.2-1.1,7.5-3.9-7.9,2.7-10.4-2.8-15.2-6.1,9.4.8,14.1-4,18.3-10.3-3.9,1-5.9,4.3-9.9,4.2,1.1-.8,2.1-1.5,3.1-2.2-.1-.3-.3-.6-.4-.9-5.5,1.6-10.8,2.4-14.2-3.5,5.3-.6,10.7-1,13.3-6.1-3.4.2-6.6,3.1-10.6,1.3,1.2-.9,2.9-1.1,3.8-2.7-2.1-.1-3.4-.7-2-2.7,1-1.4-5.2-1.1-6.2-3.9-.5-.9-1.3-2,.9-1.8,1.2.1,1.6-1.3.4-1.5-2.6-.4-2.2-2.1-1.7-3.5.8-2.1-.1-3.7-1.6-4.9-4.6-3.8-1.3-9.4-3.9-14-.9.8-1,1.7-1,2.5.2,5.3-.9,10.4-3.4,15.3-1.3,2.8,1.7,6.7,4,7.9-2.9,1.2-5.8.8-9,.2,1.3,2.4,4.1,2.6,6.1,4-1.5,1.2-3.2.4-4.7.8-.3,1,1.9,1.3.9,2.3-1,1.1-2.5.8-3.6.3-2-.7-4.2-.7-6.1-1.8,1.5,5.5,9.5,4.8,9.2,6.7-1.2,2.3-5.2,1.9-8.1,1.9,2.2,2.1,4.7,3,7,3.4,1.9.4,1.8,1.9,2.8,2.6.4,2.1-10.6.7-12.2.6,0,1.2,1.3,1.2,2.1,1.9-2.6,1.1-5.8-1.7-6.8-.6-.2,3,7.2,4.4,8.8,7.6,1,1.5,3.9,1.6,5.7.8.6-.1,1-1.1,1.6-.6,1.1.7-.9,2,.2,2.5v-.4.5c-1.8.4-3.6,1.4-5.6,1.6-1.8.1-2.5,1.7-2.3,3.1-.9,1.4-2.6,1.7-3.9,2.5-.7-.2-1.1.4-1.7.6-.3,0-.6-.2-.8-.1-3.5,1.8-4.4-1-5.8-2.8,1.1-.7,2.7.4,3.7-1-1.6-.7-3.4-.8-5.1-2.2h0c4.2,0,8.1,2,11.9.3-2.3-.2-12.3-1.9-9.6-5.2.1-.2-.1-.7-.4-.9-3-2.3-5.7-6.3-6.2-9.6,4.5-.7,8.5-2.1,12-5.7-4.1.9-7.9,3-11.5-.1,1-.4,2-.9,3.2-1.4-1.3-1.2-4-.7-4.3-2.6-.3-2.1,2.3-2.3,3.7-3.3-1.4-1.2-2.8.5-4.2-.1-.2-1.2,1.2-1.4,1.8-2.1.6-.7,1.3-1.4,2-2.1-4.3-.5-6,3.5-6.6-2.6-.5-3.3-2.8-6-3.3-9.3-.2-1.6.5-3.4-1.1-4.9-1.2,3.8-1.4,7.5-1.2,11.3.1,2.7-.1,4.9-3.9,5.4,1,1.1,1.8,1.8,3.1,2v.9c-2.7.4-4.1-1.8-6.2-2.5-.2-.7-.7-.4-.4.3h0c.6,1.9,2.9,2.7,4.2,5-7.8-1-4.6-3.4-7.6-3.3-3,0-6.6-1-9.3-3.7.5-.8,1.3-.3,2-.4,1-.1,2.9.7,1.9-1.6-.2-.4,1.9-.6,2.9-.9.4-.1,1.1.1,1.1-.5s-.5-.7-1.2-.6c-3.3.5-6.3-.7-9.4-1.5-1.7-1.1-3.5-2.3-3-4.5,1.8-1.1,3.8-.2,5.6-.5,3.2.3-.4-3.3,4.1-4.4-3.6.1-13.8-2-10.6-6.5,1.2-1.5.5-2.2-1.4-1.9-1.8.3-2.7-.7-3.8-1.6.1-.2,0-.3-.1-.5,1.4-3.1-1.9-5.1-2.5-7.7-.4-1.6-1.5-3-1.4-4.7,0-.6-.3-1.1-.9-1-.8.1-.5.8-.5,1.2,0,2.7.1,5.3-1.3,7.8-1,1.8.9,3.3,1.7,4.8h0c.5,3.1-2,5.5-5.1,6.8-3.6,1.8-5.8,5.2-10.6,5,3.6,2.7,7.3.8,11.1.9-2.6,2-5.3,2.5-8.3,2.5,1.3,1.3,2.1,1.5,5.1,1.6q-1.6,2.1-12.7,3.2c4.3,4.1,11.8,1.1,13,2.8-.4,2.1-5.3,3-7.1,4.3,4.6.5,8.9.1,12.8-2.4.1,1.7-1.8,2.2-2.5,3.4-5,3.1-6.2,3.7-12.5,4.2.2-.1.5-.2.9-.3,1.2-.3,1.3-.8-.1-1.5-2.3-1.2-3.7-3-3.6-5.6.1-2.7-2.2-5-2.6-7.7-.1-.5.2-1.4-.6-1.8-.9,0-.7.7-.7,1.1.1,2.4,0,4.7-1.5,6.8-1.5,2.9,2.9,5.6-2.4,7.1-.4.1-1,.1-1.1.7.9.9,2.2.1,3.2.8-.2,1.3-2,1-2.6,2.1,0,.2.4,0,.5.2.5.8,2.5-.1,2.2,1.3-.1.6-.5,1.1-.9,1.4-.2-.7-.5-1.4-.9-2,0,.9-.2,1.7-.5,2.6-1.3.3-2.9,0-4.1-.4-.5-.1-1.1-.6-1.4.1-.1,1.4,2.7,2.1,4.7,2.6-.1.2-.1.5-.1.7-1.4.3-2.5-.1-3.8-.2.2,1.1,1,1.6,1.9,1.7,2.5.6,2.6,2,1.6,3.6-1.4,1-4.4,1-6.5.9.7,1.4,2.1,1.8,3.2,2.4h.1c-1.5,1.1-3,2-3.9,2.3h4.7c-.7,1.1-2.3,2.4-2.5,3.9-1.1,0-2.3-.1-2.9-.4-3-1.6-5-4.2-8.2-6.5,3.9-.8,7.4-1.1,10.2-3.3-3.8-1-8.2.1-11.8-2.5,2.4-1.1,5.2-1.1,7.5-3.9-7.9,2.7-10.4-2.8-15.2-6.1,9.4.8,14.1-4,18.3-10.3-3.9,1-5.9,4.3-9.9,4.2,1.1-.8,2.1-1.5,3.1-2.2-.1-.3-.3-.6-.4-.9-5.5,1.6-10.8,2.4-14.2-3.5,5.3-.6,10.7-1,13.3-6.1-3.4.2-6.6,3.1-10.6,1.3,1.2-.9,2.9-1.1,3.8-2.7-2.1-.1-3.4-.7-2-2.7,1-1.4-5.2-1.1-6.2-3.9-.5-.9-1.3-2,.9-1.8,1.2.1,1.6-1.3.4-1.5-2.6-.4-2.2-2.1-1.7-3.5.8-2.1-.1-3.7-1.6-4.9-4.6-3.8-1.3-9.4-3.9-14-.9.8-1,1.7-1,2.5.2,5.3-.9,10.4-3.4,15.3-1.3,2.8,1.7,6.7,4,7.9-2.9,1.2-5.8.8-9,.2,1.3,2.4,4.1,2.6,6.1,4-1.5,1.2-3.2.4-4.7.8-.3,1,1.9,1.3.9,2.3-1,1.1-2.5.8-3.6.3-2-.7-4.2-.7-6.1-1.8,1.5,5.5,9.5,4.8,9.2,6.7-1.2,2.3-5.2,1.9-8.1,1.9,2.2,2.1,4.7,3,7,3.4,1.9.4,1.8,1.9,2.8,2.6.4,2.1-10.6.7-12.2.6,0,1.2,1.3,1.2,2.1,1.9-2.6,1.1-5.8-1.7-6.8-.6-.2,3,7.2,4.4,8.8,7.6,1,1.5,3.9,1.6,5.7.8.6-.1,1-1.1,1.6-.6,1.1.7-.9,2,.2,2.5v-.4.5c-1.8.4-3.6,1.4-5.6,1.6-1.8.1-2.5,1.7-2.3,3.1-.9,1.4-2.6,1.7-3.9,2.5-.7-.2-1.1.4-1.7.6-.3,0-.6-.2-.8-.1-3.5,1.8-4.4-1-5.8-2.8,1.1-.7,2.7.4,3.7-1-1.6-.7-3.4-.8-5.1-2.2h0c4.2,0,8.1,2,11.9.3-2.3-.2-12.3-1.9-9.6-5.2.1-.2-.1-.7-.4-.9-3-2.3-5.7-6.3-6.2-9.6,4.5-.7,8.5-2.1,12-5.7-4.1.9-7.9,3-11.5-.1,1-.4,2-.9,3.2-1.4-1.3-1.2-4-.7-4.3-2.6-.3-2.1,2.3-2.3,3.7-3.3-1.4-1.2-2.8.5-4.2-.1-.2-1.2,1.2-1.4,1.8-2.1.6-.7,1.3-1.4,2-2.1-4.3-.5-6,3.5-6.6-2.6-.5-3.3-2.8-6-3.3-9.3-.2-1.6.5-3.4-1.1-4.9-1.2,3.8-1.4,7.5-1.2,11.3.1,2.7-.1,4.9-3.9,5.4,1,1.1,1.8,1.8,3.1,2v.9c-2.7.4-4.1-1.8-6.2-2.5-.2-.7-.7-.4-.4.3h0c.6,1.9,2.9,2.7,4.2,5-7.8-1-4.6-3.4-7.6-3.3-3,0-6.6-1-9.3-3.7.5-.8,1.3-.3,2-.4,1-.1,2.9.7,1.9-1.6-.2-.4,1.9-.6,2.9-.9.4-.1,1.1.1,1.1-.5s-.5-.7-1.2-.6c-3.3.5-6.3-.7-9.4-1.5-1.7-1.1-3.5-2.3-3-4.5,1.8-1.1,3.8-.2,5.6-.5,3.2.3-.4-3.3,4.1-4.4-3.6.1-13.8-2-10.6-6.5,1.2-1.5.5-2.2-1.4-1.9-1.8.3-2.7-.7-3.8-1.6.1-.2,0-.3-.1-.5,1.4-3.1-1.9-5.1-2.5-7.7-.4-1.6-1.5-3-1.4-4.7,0-.6-.3-1.1-.9-1-.8.1-.5.8-.5,1.2,0,2.7.1,5.3-1.3,7.8-1,1.8.9,3.3,1.7,4.8h0c.5,3.1-2,5.5-5.1,6.8-3.6,1.8-5.8,5.2-10.6,5,3.6,2.7,7.3.8,11.1.9-2.6,2-5.3,2.5-8.3,2.5,1.3,1.3,2.1,1.5,5.1,1.6q-1.6,2.1-12.7,3.2c4.3,4.1,11.8,1.1,13,2.8-.4,2.1-5.3,3-7.1,4.3,4.6.5,8.9.1,12.8-2.4.1,1.7-1.8,2.2-2.5,3.4-6,3.7-6.5,3.8-16.9,4.6.5.3,1,.5,1.5.8-1.1-.1-2.4-.7-4.2-3.2,1.5-.3,2.7-.6,4-.8,1.1-.2,2.8.1,2.8-1.3.1-1.6-1.9-.2-2.6-1.1,1.9-1.2,4.6-1.6,5.6-4.2-4.3,1.1-10.4,2.3-12.2-2.5-.4-.9-.8-1.9,1-2.3,1.2-.3,1.3-.8-.1-1.5-2.3-1.2-3.7-3-3.6-5.6.1-2.7-2.2-5-2.6-7.7-.1-.5.2-1.4-.6-1.8-.9,0-.7.7-.7,1.1.1,2.4,0,4.7-1.5,6.8-1.5,2.9,2.9,5.6-2.4,7.1-.4.1-1,.1-1.1.7.9.9,2.2.1,3.2.8-.2,1.3-2,1-2.6,2.1,0,.2.4,0,.5.2.5.8,2.5-.1,2.2,1.3-.6,2.6-4.2,2.4-6.4,1.7-.5-.1-1.1-.6-1.4.1-.1,1.6,4,2.4,5.9,2.9-1.9,1-3.4.4-5,.3.2,1.1,1,1.6,1.9,1.7,4.5,1,1.3,4.8-2,7.2-1.3-1.2-2.7-2.3-4-3.3.6-.3,1.2-.7,1.7-1.1-1.3-.3-2.7-.4-4.1-.5-1.7-1.1-3.5-2-5.3-2.8,1.7-.5,3.5-1.1,5.1-3-7.9,2.7-10.4-2.8-15.2-6.1,9.4.8,14.1-4,18.3-10.3-3.9,1-5.9,4.3-9.9,4.2,1.1-.8,2.1-1.5,3.1-2.2-.1-.3-.3-.6-.4-.9-5.5,1.6-10.8,2.4-14.2-3.5,5.3-.6,10.7-1,13.3-6.1-3.4.2-6.6,3.1-10.6,1.3,1.2-.9,2.9-1.1,3.8-2.7-2.1-.1-3.4-.7-2-2.7,1-1.4-5.2-1.1-6.2-3.9-.5-.9-1.3-2,.9-1.8,1.2.1,1.6-1.3.4-1.5-2.6-.4-2.2-2.1-1.7-3.5.8-2.1-.1-3.7-1.6-4.9-4.6-3.8-1.3-9.4-3.9-14-.9.8-1,1.7-1,2.5.2,5.3-.9,10.4-3.4,15.3-1.3,2.8,1.7,6.7,4,7.9-2.9,1.2-5.8.8-9,.2,1.3,2.4,4.1,2.6,6.1,4-1.5,1.2-3.2.4-4.7.8-.3,1,1.9,1.3.9,2.3-1,1.1-2.5.8-3.6.3-2-.7-4.2-.7-6.1-1.8,1.5,5.5,9.5,4.8,9.2,6.7-1.2,2.3-5.2,1.9-8.1,1.9,2.2,2.1,4.7,3,7,3.4,1.9.4,1.8,1.9,2.8,2.6.4,2.1-10.6.7-12.2.6,0,1.2,1.3,1.2,2.1,1.9-2.6,1.1-5.8-1.7-6.8-.6-.2,3,7.2,4.4,8.8,7.6,1,1.5,3.9,1.6,5.7.8.6-.1,1-1.1,1.6-.6,1.1.7-.9,2,.2,2.5v-.4.5c-1.8.4-3.6,1.4-5.6,1.6-1.8.1-2.5,1.7-2.3,3.1-.9,1.4-2.6,1.7-3.9,2.5-.7-.2-1.1.4-1.7.6-.3,0-.6-.2-.8-.1-3.5,1.8-4.4-1-5.8-2.8,1.1-.7,2.7.4,3.7-1-1.6-.7-3.4-.8-5.1-2.2h0c4.2,0,8.1,2,11.9.3-2.3-.2-12.3-1.9-9.6-5.2.1-.2-.1-.7-.4-.9-3-2.3-5.7-6.3-6.2-9.6,4.5-.7,8.5-2.1,12-5.7-4.1.9-7.9,3-11.5-.1,1-.4,2-.9,3.2-1.4-1.3-1.2-4-.7-4.3-2.6-.3-2.1,2.3-2.3,3.7-3.3-1.4-1.2-2.8.5-4.2-.1-.2-1.2,1.2-1.4,1.8-2.1.6-.7,1.3-1.4,2-2.1-4.3-.5-6,3.5-6.6-2.6-.5-3.3-2.8-6-3.3-9.3-.2-1.6.5-3.4-1.1-4.9-1.2,3.8-1.4,7.5-1.2,11.3.1,2.7-.1,4.9-3.9,5.4,1,1.1,1.8,1.8,3.1,2v.9c-2.7.4-4.1-1.8-6.2-2.5-.2-.7-.7-.4-.4.3h0c.6,1.9,2.9,2.7,4.2,5-7.8-1-4.6-3.4-7.6-3.3-3,0-6.6-1-9.3-3.7.5-.8,1.3-.3,2-.4,1-.1,2.9.7,1.9-1.6-.2-.4,1.9-.6,2.9-.9.4-.1,1.1.1,1.1-.5s-.5-.7-1.2-.6c-3.3.5-6.3-.7-9.4-1.5-1.7-1.1-3.5-2.3-3-4.5,1.8-1.1,3.8-.2,5.6-.5,3.2.3-.4-3.3,4.1-4.4-3.6.1-13.8-2-10.6-6.5,1.2-1.5.5-2.2-1.4-1.9-1.8.3-2.7-.7-3.8-1.6.1-.2,0-.3-.1-.5,1.4-3.1-1.9-5.1-2.5-7.7-.4-1.6-1.5-3-1.4-4.7,0-.6-.3-1.1-.9-1-.8.1-.5.8-.5,1.2,0,2.7.1,5.3-1.3,7.8-1,1.8.9,3.3,1.7,4.8h0c.5,3.1-2,5.5-5.1,6.8-3.6,1.8-5.8,5.2-10.6,5,3.6,2.7,7.3.8,11.1.9-2.6,2-5.3,2.5-8.3,2.5,1.3,1.3,2.1,1.5,5.1,1.6q-1.6,2.1-12.7,3.2c4.3,4.1,11.8,1.1,13,2.8-.4,2.1-5.3,3-7.1,4.3,4.6.5,8.9.1,12.8-2.4.1,1.7-1.8,2.2-2.5,3.4-6,3.7-6.5,3.8-16.9,4.6,3.4,2,6.7,2.9,10.4,2.9.1.1.1.3,0,.4-3.3,1.3-4.7,1.1-8.7,1.1,3.6,2.4,10.9,3.9,11,4.1-.7,2.8-9.7-.4-11.8-1.2-.2-.4-.7-.6-1.1-.3-.3.3,0,.5.4.7,1.9,2.3,4.6,3.8,7.6,4.6,4.4,1.2,1.5,2,.3,4.1-2,1.8-3.7,6.1-7,3.1,1.1-.9,2.7-1.1,3.5-2.3-.9-1.6-3.6.3-4.4-1.4-.3-1.3,1.9-1.3,2.6-2.3-8.3-.8-6-7.3-8.5-11.2.1,2.7-2.4,5-1.1,8,1.5,3.9-3.9,3.8-7,3.7.7,1.4,2.1,1.8,3.2,2.4,3.1,1.5-.9,3.4-1.6,5.8-4.7-2.1-9.4-4.3-14.1-6.5.1-.1.2-.2.2-.3-.2,0-.4.1-.7.1-2.8-1.3-5.7-2.6-8.5-4,.1-1.8-1.7-2.9-3.3-4,5.5-2.4,4.6,1.1,11.8-4.7-4.8,1.4-9.3.7-13.6-1.1v.3-.3c-.8-.4-1.5-.9-2.3-1.4h5c-1.7-.9-3.4-1.2-4.5-2.4,5.5,1,9.9.4,11.3-1.7-4.4,0-10.5.8-10-4.1,0-.4,0-.8-.4-1-1.9-2,3.4-1.6,4-3.7q-5.6.1-6.8-.7c.9-.8,2.6-.1,3.5-1.1-1.2,0-2.4,0-3.4-.5-.3-.2-.5-.4-.8-.6-.2-1.8-3.8-3.1-1.3-4.3.9-.4,1.9-.7,2.4-1.6-2.4.1-6.6.2-5.4-2.5,1-2.1-.9-3.6-.8-5.5-1.9,2.7-.1,7.1-6.6,7.6.6.6,2.3.7,2,1.5-.6,1.2-2.7-.1-3.4,1,.6.8,1.8.9,2.7,1.5-2.5,2-3.8-.9-5.4-2.1-.9-1.4-3.1-2,.3-2.8,2.3-.5,4.4-1.5,5.8-3.1.2-.1.5-.3.3-.5-.3-.2-.6-.1-.8.2-1.6.6-8.5,2.7-9.1.8.1-.1,5.7-1.2,8.5-2.8-3.1,0-4.2.2-6.7-.7-.1-.1-.1-.2,0-.3,2.8,0,5.4-.6,8-2-8.1-.5-8.4-.6-13.1-3.1-.6-.8-2-1.2-2-2.3,3,1.7,6.3,2,9.9,1.7-1.4-.9-5.2-1.5-5.5-2.9.9-1.2,6.7.9,10-1.9q-8.5-.8-9.8-2.2c2.3-.1,2.9-.2,3.9-1.1-2.3,0-4.4-.4-6.4-1.7,3-.1,5.8,1.2,8.6-.6-3.7.1-5.3-2.2-8.2-3.4-2.3-.9-4.3-2.5-3.9-4.6h0c.6-1.1,2.1-2.1,1.3-3.3-1.1-1.7-1-3.5-1-5.3,0-.3.2-.8-.3-.8-.5-.1-.8.2-.7.7.1,1.2-.8,2.1-1.1,3.2-.5,1.8-3,3.1-1.9,5.2-.1.1-.1.2-.1.3-.8.6-1.6,1.3-3,1.1s-2,.2-1.1,1.3c2.4,3-5.4,4.5-8.2,4.4,3.5.7.7,3.2,3.2,3,1.4.2,3-.4,4.3.3.4,1.5-1,2.3-2.3,3.1-2.4.6-4.7,1.4-7.2,1-.5-.1-.9,0-.9.4s.5.2.8.3c.8.2,2.4.4,2.2.6-.8,1.5.7,1,1.4,1.1.5,0,1.1-.3,1.5.3-2.1,1.8-4.9,2.5-7.2,2.5-2.3-.1.2,1.5-5.8,2.2,1-1.6,2.7-2.1,3.2-3.4h0c.2-.5-.2-.7-.3-.2-1.6.5-2.7,2-4.8,1.7v-.6c1-.1,1.7-.6,2.4-1.4-2.9-.3-3.1-1.8-3-3.7.2-2.6,0-5.1-.9-7.7-1.2,1-.6,2.3-.8,3.4-.4,2.3-2.2,4.1-2.6,6.3-.5,4.2-1.8,1.4-5.1,1.8.5.5,1.1.9,1.6,1.4s1.5.6,1.4,1.5c-1,.4-2.2-.8-3.2.1,1.1.7,3.1.8,2.8,2.3-.2,1.3-2.4.9-3.3,1.8.9.4,1.7.7,2.5,1-2.8,2.1-5.7.7-8.9.1,2.6,2.4,5.8,3.4,9.2,3.9-.4,2.3-2.5,5-4.8,6.6-.2.1-.4.5-.3.6,2.1,2.2-5.6,3.4-7.4,3.5,3,1.2,5.9-.2,9.2-.2h0c-1.3.9-2.7,1-4,1.5.8,1,2,.2,2.8.7-1.1,1.2-1.8,3.1-4.5,1.9-.2-.1-.4,0-.6,0-.4-.1-.7-.5-1.3-.4-1-.5-2.3-.8-3-1.7.2-.9-.4-2-1.8-2.1-1.5-.1-2.9-.8-4.3-1.1v-.3.3c.8-.3-.7-1.2.2-1.7.5-.4.8.3,1.3.4,1.4.6,3.6.5,4.4-.5,1.2-2.2,6.9-3.1,6.8-5.2-.8-.8-3.2,1.2-5.2.4.6-.5,1.6-.5,1.7-1.3-1.2.1-9.7,1-9.4-.4.8-.5.7-1.6,2.2-1.8,1.8-.3,3.8-.9,5.4-2.3-2.2,0-5.3.3-6.2-1.3-.2-1.3,5.9-.9,7.1-4.6-1.5.8-3.2.7-4.7,1.2-.9.3-2,.5-2.8-.2s1-.9.7-1.6c-1.1-.3-2.5.2-3.6-.6,1.5-.9,3.7-1,4.7-2.7-2.4.4-4.7.7-6.9-.1,1.8-.9,4.1-3.5,3.1-5.4-1.9-3.3-2.7-6.8-2.6-10.4,0-.6-.1-1.2-.8-1.7-2,3.2.5,6.9-3,9.6-1.2.8-1.9,1.9-1.2,3.3.4.9.7,2.1-1.3,2.4-1,.1-.6,1.1.3,1,1.7-.1,1.1.6.7,1.2-.8,1.9-5.6,1.7-4.8,2.6,1,1.4.1,1.7-1.6,1.8.7,1,2,1.2,2.9,1.8-3.1,1.2-5.5-.8-8.2-.9,2,3.4,6.2,3.7,10.3,4.1-2.6,4-6.7,3.4-10.9,2.4-.1.2-.2.4-.3.6.2.1.5.3.7.4-1-.1-1.8-.2-2.6-.4-1-.6-2-1.1-3.3-1.4.3.4.5.7.8,1-2.7-.5-3-1-3.9-2.4,2.3-.1,2.9-.3,3.9-1.6-2.3,0-4.4-.5-6.4-2.5,3-.2,5.8,1.8,8.6-.9-3.7.2-5.3-3.3-8.2-5-2.3-1.3-4.3-3.6-3.9-6.8h0c.6-1.6,2.1-3,1.3-4.8-1.1-2.5-1-5.1-1-7.8,0-.4.2-1.1-.3-1.2-.5-.1-.8.4-.7,1,.1,1.7-.8,3.1-1.1,4.7-.5,2.6-3,4.5-1.9,7.7-.1.1-.1.3-.1.5-.8.9-1.6,1.9-3,1.6-1.4-.3-2,.3-1.1,1.9,2.4,4.5-5.4,6.5-8.2,6.5,3.5,1,.7,4.6,3.2,4.4,1.4.3,3-.6,4.3.5.4,2.2-1,3.4-2.3,4.5-2.4.8-4.7,2-7.2,1.5-.5-.1-.9,0-.9.6s.5.4.8.5c.8.4,2.4.6,2.2.9-.8,2.3.7,1.5,1.4,1.6.5.1,1.1-.4,1.5.4-2.1,2.7-4.9,3.7-7.2,3.7-2.3-.1.2,2.2-5.8,3.3,1-2.3,2.7-3.1,3.2-5h0c.2-.7-.2-1-.3-.3-1.6.7-2.7,2.9-4.8,2.5v-.9c1-.2,1.7-.9,2.4-2-2.9-.4-3.1-2.7-3-5.4.2-3.8,0-7.5-.9-11.3-1.2,1.5-.6,3.3-.8,4.9-.4,3.3-2.2,6-2.6,9.3-.5,6.1-1.8,2.1-5.1,2.6.5.7,1.1,1.4,1.6,2.1.5.7,1.5.9,1.4,2.1-1,.6-2.2-1.1-3.2.1,1.1,1.1,3.1,1.2,2.8,3.3-.2,1.9-2.4,1.4-3.3,2.6.9.5,1.7,1,2.5,1.4-2.8,3.2-5.7,1-8.9.1,2.6,3.6,5.8,5,9.2,5.7-.4,3.3-2.5,7.3-4.8,9.6-.2.2-.4.7-.3.9.3.5.4.9.3,1.3-3-.5-6-1-8.9-1.7,1.8-2.6,6.4-4,6.3-6.7-.8-1.1-3.2,1.7-5.2.6.6-.7,1.6-.7,1.7-1.9-1.2.2-9.7,1.5-9.4-.6.8-.8.7-2.3,2.2-2.6,1.8-.4,3.8-1.3,5.4-3.4-2.2,0-5.3.4-6.2-1.9-.2-1.9,5.9-1.2,7.1-6.7-1.5,1.1-3.2,1-4.7,1.8-.9.4-2,.7-2.8-.3-.8-1.1,1-1.3.7-2.3-1.1-.4-2.5.3-3.6-.8,1.5-1.3,3.7-1.5,4.7-4-2.4.6-4.7,1-6.9-.2,1.8-1.3,4.1-5.1,3.1-7.9-1.9-4.8-2.7-9.9-2.6-15.3,0-.8-.1-1.7-.8-2.5-2,4.7.5,10.2-3,14-1.2,1.2-1.9,2.8-1.2,4.9.4,1.4.7,3.1-1.3,3.5-1,.1-.6,1.6.3,1.5,1.7-.2,1.1.9.7,1.8-.8,2.7-5.6,2.5-4.8,3.9,1,2.1.1,2.6-1.6,2.7.7,1.5,2,1.7,2.9,2.7-3.1,1.8-5.5-1.2-8.2-1.3,2,5,6.2,5.5,10.3,6.1-2.6,5.9-6.7,5-10.9,3.5-.1.3-.2.6-.3.9.8.7,1.6,1.4,2.4,2.2-.7,0-1.2-.1-1.8-.3,0-.1.1-.2.1-.3h-.7c-1-.6-1.9-1.5-2.9-2.3.1-.1.3-.3.4-.4h-1c-.5-.3-1-.6-1.6-.8.1.2.2.4.3.6-.4-.1-.7-.3-1.1-.5-.3-.3-.5-.6-.8-.8-.2-2.7-3.8-4.6-1.3-6.3.9-.6,1.9-1,2.4-2.4-2.4.2-6.6.2-5.4-3.7,1-3-.9-5.3-.8-8-1.9,3.9-.1,10.4-6.6,11.2.6.9,2.3,1,2,2.3-.6,1.7-2.7-.2-3.4,1.4.6,1.1,1.8,1.4,2.7,2.3-.2.2-.4.4-.6.6-1.2-.6-2.4-1.1-3.5-1.7-.5-.7-.9-1.5-1.3-2-.9-2.1-3.1-3,.3-4.1,2.3-.8,4.4-2.2,5.8-4.6.2-.2.5-.4.3-.7-.3-.3-.6-.2-.8.3-1.6.8-8.5,4-9.1,1.2.1-.2,5.7-1.7,8.5-4.1-3.1,0-4.2.2-6.7-1.1-.1-.1-.1-.3,0-.4,2.8-.1,5.4-.9,8-2.9-8.1-.7-8.4-.8-13.1-4.6-.6-1.2-2-1.7-2-3.4,3,2.5,6.3,2.9,9.9,2.4-1.4-1.3-5.2-2.2-5.5-4.3.9-1.7,6.7,1.3,10-2.8q-8.5-1.1-9.8-3.2c2.3-.1,2.9-.3,3.9-1.6-2.3,0-4.4-.5-6.4-2.5,3-.2,5.8,1.8,8.6-.9-3.7.2-5.3-3.3-8.2-5-2.3-1.3-4.3-3.6-3.9-6.8h0c.6-1.6,2.1-3,1.3-4.8-1.1-2.5-1-5.1-1-7.8,0-.4.2-1.1-.3-1.2-.5-.1-.8.4-.7,1,.1,1.7-.8,3.1-1.1,4.7-.5,2.6-3,4.5-1.9,7.7-.1.1-.1.3-.1.5-.8.9-1.6,1.9-3,1.6-1.4-.3-2,.3-1.1,1.9,2.4,4.5-5.4,6.5-8.2,6.5,3.5,1,.7,4.6,3.2,4.4,1.4.3,3-.6,4.3.5.4,2.2-1,3.4-2.3,4.5-2.4.8-4.7,2-7.2,1.5-.5-.1-.9,0-.9.6s.5.4.8.5c.8.4,2.4.6,2.2.9-.8,2.3.7,1.5,1.4,1.6.5.1,1.1-.4,1.5.4-2.1,2.7-4.9,3.7-7.2,3.7-2.3-.1.2,2.2-5.8,3.3,1-2.3,2.7-3.1,3.2-5h0c.2-.7-.2-1-.3-.3-1.6.7-2.7,2.9-4.8,2.5v-.9c1-.2,1.7-.9,2.4-2-2.9-.4-3.1-2.7-3-5.4.2-3.8,0-7.5-.9-11.3-1.2,1.5-.6,3.3-.8,4.9-.4,3.3-2.2,6-2.6,9.3-.5,6.1-1.8,2.1-5.1,2.6.5.7,1.1,1.4,1.6,2.1.5.7,1.5.9,1.4,2.1-1,.6-2.2-1.1-3.2.1,1.1,1.1,3.1,1.2,2.8,3.3-.2,1.9-2.4,1.4-3.3,2.6.9.5,1.7,1,2.5,1.4-2.8,3.2-5.7,1-8.9.1,2.6,3.6,5.8,5,9.2,5.7-.4,3.3-2.5,7.3-4.8,9.6-.2.2-.4.7-.3.9,2.1,3.2-5.6,5-7.4,5.2,3,1.8,5.9-.3,9.2-.3h0c-1.3,1.4-2.7,1.5-4,2.2.8,1.4,2,.3,2.8,1-1.1,1.8-1.8,4.6-4.5,2.8-.2-.1-.4,0-.6.1-.4-.2-.7-.8-1.3-.6-1-.8-2.3-1.2-3-2.5.2-1.4-.4-3-1.8-3.1-1.5-.2-2.9-1.2-4.3-1.6v-.5.4c.8-.5-.7-1.8.2-2.5.5-.5.8.5,1.3.6,1.4.9,3.6.7,4.4-.8,1.2-3.2,6.9-4.5,6.8-7.6-.8-1.1-3.2,1.7-5.2.6.6-.7,1.6-.7,1.7-1.9-1.2.2-9.7,1.5-9.4-.6.8-.8.7-2.3,2.2-2.6,1.8-.4,3.8-1.3,5.4-3.4-2.2,0-5.3.4-6.2-1.9-.2-1.9,5.9-1.2,7.1-6.7-1.5,1.1-3.2,1-4.7,1.8-.9.4-2,.7-2.8-.3-.8-1.1,1-1.3.7-2.3-1.1-.4-2.5.3-3.6-.8,1.5-1.3,3.7-1.5,4.7-4-2.4.6-4.7,1-6.9-.2,1.8-1.3,4.1-5.1,3.1-7.9-1.9-4.8-2.7-9.9-2.6-15.3,0-.8-.1-1.7-.8-2.5-2,4.7.5,10.2-3,14-1.2,1.2-1.9,2.8-1.2,4.9.4,1.4.7,3.1-1.3,3.5-1,.1-.6,1.6.3,1.5,1.7-.2,1.1.9.7,1.8-.8,2.7-5.6,2.5-4.8,3.9,1,2.1.1,2.6-1.6,2.7.7,1.5,2,1.7,2.9,2.7-3.1,1.8-5.5-1.2-8.2-1.3,2,5,6.2,5.5,10.3,6.1-2.6,5.9-6.7,5-10.9,3.5-.1.3-.2.6-.3.9.8.7,1.6,1.4,2.4,2.2-3.1.1-4.6-3.2-7.6-4.2,3.2,6.3,6.8,11.2,14.1,10.3-3.7,3.3-5.7,8.9-11.7,6.1,1.7,2.8,3.9,2.8,5.8,3.9-2.8,2.6-6.2,1.5-9.1,2.5,2.1,2.2,4.8,2.5,7.8,3.3-2.4,2.3-4,4.8-6.3,6.5-1.2.9-4.7.4-5-.7.5-.3,1.3,0,1.5-1.2-.6-.4-1.3-.8-2.4-1.6h5.3c-2.3-.9-9.1-7.7-4.2-9.1.7-.2,1.3-.6,1.5-1.7-1.2.1-2.4.7-3.9-.3,1.4-.5,4.6-1.2,4.5-2.9-.3-.7-.7-.2-1.1-.1-1.7.7-4.5.9-4.9-1.7-.3-1.4,1.3-.5,1.7-1.3.1-.2.4,0,.4-.2-.5-1.1-1.8-.9-2-2.1.8-.6,1.8.1,2.5-.8-.1-.6-.5-.6-.8-.7-4-1.5-.7-4.3-1.8-7.1-1.2-2.1-1.2-4.4-1.2-6.8,0-.4.2-1.1-.5-1.1-.6.4-.4,1.3-.5,1.8-.3,2.7-2.1,4.9-2,7.7.1,2.7-1,4.4-2.7,5.6-1.1.7-1,1.3-.1,1.5,1.4.4,1.1,1.3.8,2.3-1.4,4.8-6.1,3.6-9.4,2.5.7,2.6,2.8,3,4.3,4.2-.6,1-2.1-.4-2,1.1.1,1.4,1.3,1.1,2.2,1.3,1,.2,2,.5,3.1.8-2.7,5.2-4.1,2.2-5.3,3.6,0,3.2,6.2,1.3,2.5,5.1-.4,1.4-8.8,4.8-5.5,5.7.4,0,.9-.3,1,.5q-1.4.8-3.9,1c-.4,0-.9-.2-1.1.4-.2.8.3.9.8,1.1,1.7,2,3.4.5,4.2,2.4.5,1.5-1,2.4-1.7,3.3-2.2,2.7-4.2,6.1-8.2,5.1-2.8.9,2.3,3,3.8,2.4-2.6,2.6-5.4,2.6-8.6,2.7,3.6,3.4,5.6,2.8,9.6,3.3,1.1.4,1.7.7.5,1.9-2.9,2.9-6.1,4.8-10,5.1.2,1.8,1.9.9,2.6,2.1-2.5.9-4.8-.7-7.2-.4.4.8,1.5,1.3,1.5,1.9.3,5.6,9.4,1.7,13,2.6-7.2,3.7-10.4,13.2-19,12.5,3,3.6,6.7,1.4,10,2.4-1.9,2.3-4.4,2.1-6.8,2.3,2.2,1.5,4.5,2,7.2,2-1.5,2-3.2,2.6-5.1,3.2,1.7,1.4,3.6,1.7,5.7,1.9-.8,1-1.5,1.9-2.3,2.8.4,2.6-1.1,2.6-2.6,2.6-1,.8-1.9,1.7-3.1,2-1.3.2-1.3,1.6.1,1.6,11.3,1,31.4,1.5,54,1.7v80.1l547.3,35.6,759.3,4,397.1-33.9,2136.2-.6v-76.5c-2.09.8-116.39-39.2-247.19-35.6ZM649.2,966.2c.2.1.4.1.6.2,2.6.7,2.6,1.3,1.9,2.1-.6-.3-1.5-1-2.5-2.3ZM654.8,962.6h0c-.6.1-1.4.3-1.7-.3.1-.1.2-.1.3-.2.8.3,1.4.4,1.4.5ZM652.5,957.4c-1.5.6-2.6.9-3.7,1-.9-.5-1.7-1.2-2.2-2.4,1.9.6,3.9.9,5.9.9.1.2.1.4,0,.5ZM506.5,947.8c1.4.4,2,.7,2.3,1.1-1.6-.1-1.9-.3-3.3-.9,0-.2.1-.3.2-.4.3,0,.6.1.8.2ZM505.4,952.9c.4-.7.9-.9,1.5-1.1,0,0,0,.1-.1.1-.5.5-1,1.1-1.5,1.8,0-.3,0-.5.1-.8ZM502.9,937.3c2,.7,4.1,1,6.3,1,.1.1.1.3,0,.4-3.3,1.3-4.7,1.1-8.7,1.1,3.6,2.4,10.9,3.9,11,4.1-.5,1.8-4.2,1.2-7.4.3-2-1-4.1-1.9-4.3-2.6-4.4-3.4,2.1-2,3.1-4.3ZM481.9,940.2c-.3.2-.6.3-.9.5l-.5-.5h1.4ZM193.1,899.6c-.4.2-1,.3-1.6.3.9-.3,2-.7,3.2-1.3-.5.4-1,.7-1.6,1ZM199.4,895.2c-.6.4-1.1.8-1.7,1.2-2.5,0-3.6.1-5.8-1.1-.1-.1-.1-.3,0-.4,1.1,0,2.1-.2,3.1-.4,1.4.2,2.8.4,4.4.7ZM199,879.6c.4.2.7.5,1.1.7-.6,0-1.1-.1-1.6-.2.2-.2.4-.4.5-.5ZM189.3,882.1c.7-1.2,3.9,0,6.8-.8,2.6,2.2,5.7,3.5,10.6,3.1-3.7,2.3-5.7,6-11.7,4.2,1.7,1.9,3.9,1.9,5.8,2.6-.4.3-.8.5-1.2.6-6.4-.6-7.7-.8-10.6-3,.9-.3,1.6-.7,1.5-1.2-.3-.5-.7-.1-1.1-.1-.5.2-1.1.3-1.7.3-.2-.2-.4-.4-.7-.6-.3-.6-.8-1-1.3-1.6.2,0,.4-.1.5-.2.1-.1.4,0,.4-.1-.3-.5-1-.6-1.5-.9,0-.2-.1-.4-.1-.6,3,2.5,6.3,2.9,9.9,2.4-1.6-1.1-5.4-2-5.6-4.1ZM102.2,903.1c-.7-.3-1.4-.6-2.1-.8.4-.2.9-.3,1.4-.3.2.3.5.7.7,1.1ZM1652.8,869.4c.6.2,1.1.4,1.6.5-.7.1-1.3.1-2.1-.2.2-.2.4-.3.5-.3ZM1654.2,874.6c-1.2-.2-2.4-.9-3.2-2.4.5-.1,1-.1,1.5-.2.5.2.9.4,1.4.5,2.2.6.9,1.1.3,2.1ZM1655.3,867.7c-.5.2-1,.3-1.4.4-.7-.1-1-.4-.8-.9.7.2,1.4.3,2.2.3,0,.1,0,.2,0,.2ZM1681.8,853.9c.8,0,1.5,0,1.7.3-.1.5-.7.9-1.5,1.3,0-.5,0-1.1-.2-1.6ZM1685.2,857c-1,.6-1.7,1-2.4,1.4-.3-.6-.5-1.2-.7-1.8,1.5-.1,3-.5,4.4-1.4,0,.9-.9,1.2-1.3,1.8ZM1706,857.4c0-.3,0-.5-.1-.8.2.1.5.2.8.3v.5c-.2.1-.4.1-.7,0ZM1720.2,875.9c0,.1-.1.2-.1.3-.1.1-.3.1-.4.2-.4-.1-.6.2-.9.3-.1,0-.3-.1-.4,0-1.9.9-2.3-.5-3.1-1.5.6-.4,1.4.2,1.9-.5-.6-.3-1.3-.4-2-.7.1-.1.3-.2.4-.4,1.8.2,3.5.8,5.2.1,0,.7-.2,1.5-.6,2.2ZM1761,886.8c-.1-.2-.2-.4-.1-.7s.3-.4.6-.5c-.2.4-.4.8-.5,1.2ZM2424.2,884.3q-.1-.1-.2-.2c.2,0,.3-.1.5-.1-.1.1-.2.2-.3.3ZM2422.9,879.2c.8.5,1.7.9,2.6,1.2.4.1.6.2.8.3-1.4,0-2.7-.3-3.4-1.5ZM2422.6,878c.1-.2.3-.3.7-.4.6-.1.7-.4-.1-.8-.3-.2-.6-.4-.8-.6,2,1.2,5.7,2,5.8,2.1-.4,1.3-3.9.3-5.6-.3ZM2483,884.3c.4.7,1.1,1,1.7,1.3.9.5.6,1,.2,1.6-1.8-.6-3-2.3-4.6-3.4,2.8.2,4.8-.4,6.4-1.7,0,.1,0,.2.1.3.7,2-2.2,1.9-3.8,1.9ZM3221.9,931.2c2.2,1.1,5.3,1.7,5.4,1.8-.4,1.5-4.7.1-6.4-.5.5-.3.9-.7,1-1.3ZM3220.2,932.8c1.1,1.2,2.6,2,4.2,2.4,2.5.7.9,1.2.2,2.4-.6.5-1.1,1.3-1.7,1.9-.5-.2-.9-.4-1.3-.6.4-.2.7-.4,1-.7-.5-1-2.1.1-2.6-.8-.2-.8,1.1-.8,1.5-1.3-2.4-.2-3.3-1.2-3.7-2.5.7-.3,1.6-.5,2.4-.8ZM3479,979.9c-1-.9-2.7-1.8-2.4-3.2,3,2.1,3.1.4,6.5,2.1-.2.1-.3.3-.5.4-1.1.2-2.4.5-3.6.7ZM3484.5,973.8c-2.2,1-4.4,1.6-6.8,1.5,1.4-.7,3.4,0,5.4-1.9.7-.2,1.4-.2,1.3-.9h1.8c-.5.5-1,.9-1.7,1.3ZM3478.2,970c1.5,1,4.3,1.2,7.6.5-.5.6-1.1.9-1.8,1.3-.4-.2-.8,0-1.3-.1q-3.8-.2-5.8-1.2c.1-.7.8-.5,1.3-.5ZM3282.9,931.8c-.1-.1-.1-.2-.2-.3h.2v.3ZM3225.2,918.2c.6.4,1.1.5,2.6.6-.8,1-.9,1.2-4.4,1.6.7-.6,1.4-1.3,1.8-2.2ZM3218.6,925.5c1.3-.2,3.2.1,3.3-1.5.1-1.8-2.2-.2-3.1-1.3.8-.5,1.7-.9,2.6-1.3,2.5,1.2,5.9,0,6.5.9-.2,1.2-3.1,1.7-4.2,2.5,2.7.3,5.2.1,7.5-1.4,0,1-1,1.3-1.5,2-3.5,2.2-3.8,2.2-9.9,2.7,2,1.2,3.9,1.7,6.1,1.7.1.1.1.2,0,.3-1.6.7-2.5.6-4.2.6-1.3-1-2.9.5-5.2-1.2h0c-.8-.6-1.7-1.5-2.7-2.9,1.8-.5,3.3-.8,4.8-1.1Z"/>
      <g>
        <path class="cls-3" d="M1149.2,622l2.4.2c1.4.1,2.5,1.3,2.5,2.7v14c0,1.5-1.2,2.7-2.8,2.7h-2.2c-.4,0-.9.1-1.3.3l-40.4,20.6c-.5.2-1,.3-1.5.3l-6.7-.7c-1.4-.1-2.5-1.3-2.5-2.7v-17.3c0-1.5,1.3-2.8,2.8-2.7l4.5.1c1.7,0,3-1.4,2.8-3.1l-1-8c-.1-1.2-1.1-2.2-2.3-2.4h0c-5.5-.9-9.3-6-8.5-11.5l.8-5.8c0-.2.1-.3.1-.5l7-22.4c0-.1.1-.2.1-.4l1.8-3.8c2.3-4.8,7-7.8,12.3-8l21.4-.7c1.2,0,2.3.7,2.7,1.9l5.7,17.4c.1.3.1.6.1.9l-.6,26c.3,1.6,1.4,2.8,2.8,2.9Z"/>
        <path class="cls-2" d="M1139.5,724.7c.4-2,1.2-4.4,2.6-7.1.1-.2.2-.3.2-.5,1.4-5.6,10.6-36.2,9.4-40.9-.9-3.7-10.4-11.7-14.9-15.4-1.2-1-3-.6-3.7.8-4.1,8.6-16.6,34.9-18.3,42.1-1.8,7.3-1.4,26.2-1.2,32.3,0,1.1.8,2.1,2,2.3l9.2,1.8c.2,0,.3.1.5.1,3.8,1.5,4.3,5.4-2.1,8.3-.2.1-.4.1-.6.2l-18.1,3.3c-1.8.4-3.4-1-3.3-2.8l.3-4.1v-46.7c0-.2,0-.4.1-.6l7.1-30.1c.1-.4.1-.8,0-1.1l-1.5-6.2c0-.2-.1-.3-.1-.5l-1.3-34c0-.7-.3-1.3-.8-1.7l-8-7.2c-.7-.7-1-1.7-.7-2.6l13.2-38.1c.3-1,1.3-1.6,2.3-1.6h19.6c1.3,0,2.4-1.1,2.4-2.4l.3-16.8c0-1.3,1.1-2.4,2.4-2.4h9.4c1.1,0,2.1.7,2.4,1.8l3,11.6c.3,1.2-.4,2.5-1.6,2.9l-1.8.6c-1.2.4-1.8,1.6-1.6,2.8l1.2,6.3c0,.2.1.3.1.5l1.6,3.9c.4.9,1.3,1.5,2.2,1.5h1.8c.6,0,1.2.2,1.6.6l18.9,17c.3.2.6.4.9.5l17.8,5.7c.2.1.5.1.7.1h6.9c1.3,0,2.4-1.1,2.4-2.4h0c0-1.5,1.4-2.7,2.9-2.4l3.1.6c.9.2,1.6.7,1.8,1.6l1.6,4.4c.5,1.4-.3,2.9-1.7,3.2l-8.7,2c-.2,0-.4.1-.6.1l-24.8-.3c-2.5,0-5-.7-7.3-1.9l-14.1-7.9c-.3-.1-.6-.2-.9-.3l-3.8-.5c-1.5-.2-2.8,1-2.8,2.5l2.4,41.2c0,.5.2.9.5,1.3l17.6,24.5c.4.6.5,1.3.4,1.9l-8.2,37.5c-.3,1.4.6,2.7,2,2.9,10.2,1.4,10.8,5.9,6.5,7.6,0,0-13.3,5-15.5,5.4l-7.1,1.2c-3.6.7-7-2.6-6.2-6.4Z"/>
        <g>
          <path class="cls-3" d="M1206.6,709.8l2.6,2.3c.7.6.7,1.6.1,2.3l-75.5,86.2c-.6.7-1.7.8-2.3.2l-2.6-2.3c-.7-.6-.7-1.6-.1-2.3l75.5-86.2c.6-.7,1.6-.8,2.3-.2Z"/>
          <path class="cls-3" d="M1139.1,738.6c.6,0-15.5,23.4-15.5,23.4,0,0-15.8,7-20.4,8.4-.5.1-4.7,1.9-6.1.8-2.1-1.6-1.7-6.7-1.8-9.1-.2-3.2,3.2-9.1,3.2-9.1,0,0,9.3-.9,9.4-1,3.5-.6,8.8-6.6,4.4-7.7-.1,0-19.3,3.1-19.3,3.1-4.9,1.6-6.1,5.7-7.5,9.7q-.1.1-.1.2l-5.7,14.4q-.1.1-.2.2l-10.3,13c-.2.3-.6.5-1.1.6l-8,2.6c-.7.2-1.2.6-1.2,1l-.7,14.8c0,.4.5.6,1.2.7l14,.4c.9,0,1.4.5,1,1l-4.8,6.5c-.4.5.1.9,1,1l6.6.2c.8,0,1.7-.2,2.2-.7l5.6-4.4c.6-.5.5-1-.2-1.2l-1.1-.3c-.7-.2-.8-.6-.3-1.1l2.8-2.4c.1-.1.2-.1.2-.2l2.4-1.5c.5-.3,1.4-.6,2.1-.5h1.3c.4,0,.9-.1,1.4-.2l19.1-6.3c.3-.1.5-.1.8-.2l15-1.9h.6l5.1.1c1,0,1.4.5,1,1h0c-.5.6.1,1.1,1.3,1l2.5-.2c.7,0,1.4-.3,1.9-.6l2.7-1.7c.8-.5.8-1.1-.2-1.3l-5.8-.9h-.4l-18.6-.3c-1.9,0-4,.2-6,.6l-12.9,2.8c-.2.1-.5.1-.7.1l-3,.1c-1.2.1-1.8-.4-1.3-1l14.3-15.9c.2-.2.4-.3.7-.5l21.3-9.3c.5-.2.8-.5.9-.7l23-28.6s3.4,1.9,6.8-1.3c3.9-3.6,6.9-9.9,5.2-10.3,0,0-22.7,3.5-24.4,3.4-2,3.3-3.9,6.4-3.4,9.3Z"/>
        </g>
        <path class="cls-3" d="M1205.3,600.8h3.4c.9,0,1.6.7,1.6,1.6v109.1c0,.9-.7,1.6-1.6,1.6h-3.4c-.9,0-1.6-.7-1.6-1.6v-109c0-.9.7-1.7,1.6-1.7Z"/>
      </g>
    </g>
  </g>
</svg>