<svg xmlns="http://www.w3.org/2000/svg" viewBox="0 0 3840 1080" xmlns:v="https://vecta.io/nano"><style>.T,.H,.N,.J,.E,.I,.G,.M,.Q,.O,.F,.S,.R,.P{isolation:isolate}</style><defs><clipPath id="A"><path d="M4048 104h3840v1080H4048z" stroke-width="0" fill="none"/></clipPath><clipPath id="B"><path d="M0 0h3840v1080H0z" stroke-width="0" fill="none"/></clipPath><radialGradient id="C" cx="2175" cy="-4458.6" fx="2175" fy="-4458.6" r="213.29" gradientTransform="translate(0 -3945.96) scale(1 -1)" gradientUnits="userSpaceOnUse"><stop offset=".24" stop-color="#ff7836"/><stop offset="1" stop-color="#ff7836" stop-opacity="0"/></radialGradient><radialGradient id="D" r="182.8" href="#C"/><radialGradient id="E" r="152.31" href="#C"/><radialGradient id="F" r="121.86" href="#C"/><radialGradient id="G" r="91.42" href="#C"/><radialGradient id="H" r="60.93" href="#C"/><clipPath id="I"><path d="M0 0h3840v1080H0z" stroke-width="0" fill="none"/></clipPath><radialGradient id="J" cx="2346.7" cy="-4361.23" fx="2346.7" fy="-4361.23" r="23.19" gradientTransform="translate(0 -3945.96) scale(1 -1)" gradientUnits="userSpaceOnUse"><stop offset="1" stop-color="#ff7836"/><stop offset="1" stop-color="#ff7836" stop-opacity="0"/></radialGradient><radialGradient id="K" cx="2557.85" cy="-4273.4" fx="2557.85" fy="-4273.4" r="23.2" href="#J"/><radialGradient id="L" cx="2455.75" cy="-4315.81" fx="2455.75" fy="-4315.81" r="68.99" href="#J"/><radialGradient id="M" cx="2729.05" cy="-4187.76" fx="2874.47" fy="-4187.76" r="145.43" href="#J"/><radialGradient id="N" cx="1446.5" cy="-4755.1" fx="1446.5" fy="-4755.1" r="23.17" href="#J"/><radialGradient id="O" cx="1894.1" cy="-4567.74" fx="1894.1" fy="-4567.74" r="23.21" href="#J"/><radialGradient id="P" cx="1134.7" cy="-4894.72" fx="1134.7" fy="-4894.72" href="#J"/><radialGradient id="Q" cx="1691.85" cy="-4652.12" fx="1691.85" fy="-4652.12" r="68.99" href="#J"/><path id="R" d="M2359.1 382.1h-24.8l-12.4 21.4 12.4 21.4h24.8l12.4-21.4-12.4-21.4z"/><path id="S" d="M2492.6 294.5h-73.8l-36.8 63.7 36.8 63.7h73.8l36.9-63.7-36.9-63.7z"/><path id="T" d="M1906.5 588h-24.8l-12.4 21.5 12.4 21.4h24.8l12.4-21.4-12.4-21.5z"/></defs><g clip-path="url(#A)"><path d="M5748 873c-2.8-.9-3.8-3.4-3.4-5.7-5.8-3.4-11.5-7-16.3-11.6-10.3-9.9-14.8-24.1-22.5-35.8-1.8-2.6-3.6-5.7-5.7-8.7-1.5 1.3-2.7 2.7-3.9 4-4.1-3.6-7.8-7.6-11-10.5-9.9-8.9-87.9-23.2-97.1-32-10.8-10.4-61.9-31.3-69-40.9-5.5-7.3-15.3-10.7-15.3-10.7s-12.1-1.1-17.7 2.7c-12.1 8.2-31.4 23.7-47.9 35.2-1.2.3-2.6.6-3.9.6-.3-.5-.5-1-.8-1.5-.9-.2-1.7-.3-2.6-.3-.1-.1-.1-.2-.2-.3-.3-.6-.5-1.2.6-1.4.8-.2.8-.5-.1-.9-1.4-.7-2.3-1.8-2.2-3.5s-1.4-3.1-1.6-4.8c0-.3.1-.9-.4-1.1-.6 0-.4.4-.4.7 0 1.5 0 2.9-.9 4.2-.9 1.8 1.8 3.5-1.5 4.4-.2.1-.6.1-.7.4.5.6 1.4.1 2 .5-.2.8-1.3.6-1.6 1.3 0 .1.3 0 .3.1.3.5 1.6 0 1.4.8 0 .1-.1.1-.1.2-.9.3-1.7.6-2.5 1.1-.5 0-.9-.1-1.3-.3-.3 0-.7-.4-.9.1 0 .4.4.7 1 1-.3.2-.6.4-.9.7-1 .8-1.9 1.8-2.7 2.9-1.9-.2-4 0-5.7-1.3 1.5-.7 3.3-.7 4.6-2.4-4.9 1.7-6.5-1.8-9.4-3.8 5.9.5 8.8-2.5 11.4-6.4-2.4.6-3.7 2.7-6.1 2.6l2-1.4c-.1-.2-.2-.4-.3-.5-3.4 1-6.7 1.5-8.8-2.2 3.3-.4 6.7-.6 8.3-3.8-2.1.1-4.1 1.9-6.6.8.7-.6 1.8-.7 2.4-1.7-1.3-.1-2.1-.4-1.3-1.7.6-.9-3.2-.7-3.8-2.4-.3-.6-.8-1.2.6-1.1.7.1 1-.8.2-.9-1.6-.3-1.4-1.3-1-2.2.5-1.3 0-2.3-1-3.1-2.8-2.4-.8-5.8-2.4-8.7-.6.5-.6 1.1-.6 1.6.1 3.3-.5 6.5-2.1 9.5-.8 1.7 1.1 4.1 2.5 4.9-1.8.8-3.6.5-5.6.1.8 1.5 2.6 1.6 3.8 2.5-.9.7-2 .3-2.9.5-.2.6 1.2.8.6 1.4-.6.7-1.5.5-2.3.2-1.2-.5-2.6-.4-3.8-1.1 1 3.4 5.9 3 5.7 4.2-.7 1.4-3.2 1.2-5 1.2 1.3 1.3 2.9 1.8 4.4 2.1 1.2.2 1.1 1.2 1.8 1.6.3 1.3-6.6.5-7.6.3 0 .8.8.8 1.3 1.2-1.6.7-3.6-1.1-4.2-.4-.1 1.9 4.5 2.7 5.5 4.7.6.9 2.4 1 3.5.5.4-.1.6-.7 1-.3.7.4-.6 1.2.1 1.5v-.3.3c-1.1.2-2.3.9-3.5 1a1.54 1.54 0 0 0-1.4 1.9c-.6.9-1.6 1.1-2.4 1.6-.5-.1-.7.3-1.1.4-.2 0-.4-.1-.5 0-2.2 1.1-2.7-.6-3.6-1.8.7-.4 1.7.2 2.3-.6-1-.4-2.1-.5-3.2-1.4h0c2.6 0 5 1.2 7.4.2-1.4-.1-7.6-1.2-5.9-3.2.1-.1-.1-.4-.2-.5-1.9-1.4-3.6-3.9-3.9-6 2.8-.4 5.3-1.3 7.4-3.5-2.6.6-4.9 1.9-7.2-.1.6-.3 1.3-.6 2-.9-.8-.8-2.5-.4-2.7-1.6-.2-1.3 1.4-1.4 2.3-2.1-.9-.8-1.8.3-2.6-.1-.1-.8.7-.9 1.1-1.3.4-.5.8-.9 1.3-1.3-2.7-.3-3.8 2.2-4.1-1.6-.3-2-1.8-3.7-2.1-5.8-.1-1 .3-2.1-.7-3.1-.7 2.3-.9 4.7-.8 7 .1 1.7-.1 3.1-2.4 3.3.6.7 1.1 1.1 1.9 1.3v.6c-1.7.3-2.5-1.1-3.8-1.5-.1-.4-.4-.2-.3.2h0c.4 1.2 1.8 1.7 2.6 3.1-4.9-.6-2.8-2.1-4.7-2-1.8 0-4.1-.6-5.8-2.3.3-.5.8-.2 1.2-.3.6-.1 1.8.4 1.2-1-.1-.2 1.2-.4 1.8-.6.2-.1.7.1.7-.3s-.3-.4-.8-.4c-2.1.3-3.9-.4-5.8-.9-1.1-.7-2.2-1.4-1.9-2.8 1.1-.7 2.3-.1 3.5-.3 2 .2-.3-2.1 2.5-2.7-2.2.1-8.6-1.3-6.6-4 .7-1 .3-1.4-.9-1.2-1.1.2-1.7-.4-2.4-1 0-.1 0-.2-.1-.3.9-2-1.2-3.2-1.6-4.8-.2-1-.9-1.9-.9-2.9 0-.4-.2-.7-.6-.6-.5.1-.3.5-.3.8 0 1.7 0 3.3-.8 4.9-.6 1.1.5 2 1 3h0c.3 2-1.3 3.4-3.2 4.2-2.3 1.1-3.6 3.2-6.6 3.1 2.2 1.7 4.5.5 6.9.6-1.6 1.2-3.3 1.6-5.2 1.6.8.8 1.3.9 3.2 1q-1 1.3-7.9 2c2.7 2.6 7.3.7 8.1 1.8-.2 1.3-3.3 1.9-4.4 2.7 2.9.3 5.5.1 8-1.5 0 1-1.1 1.4-1.6 2.1-3.5 2.1-4 2.4-9.1 2.7-24.8-45.9-80.1-129.5-90.6-121.4-2.1 1.6-10.6 4-12.1 5.2-7.9 6.5-39.7 40-53.8 47.7-12.8 7-19 10.4-22.7 24.9-3.2 12.2-6.3 21.6-11.2 31.3-2.2-1.9-4.5-3.7-6.6-5.4-4.3-3.5-5.8-6.8-7.9-10.6-4.4-.8-8.9-.2-12.6 3-2.6 2.2-4.6 5.4-6.6 8.3a3.04 3.04 0 0 0-.5.7c-29.4-23.5-111.6-73.9-136-65.4-13.4 4.7-62.4 91.2-63.1 92.2-1.3 1.6-2.5 3.2-3.8 4.7-.2.3-5.2 9.1-10.5 19.1v-.4q-.1 0-.1.1c0 .2-.1.3-.1.4-.1.2-.3.4-.2.7h0c-.1.1-.2.2-.3.1-.1 0-.2 0-.1.2.2.4-.5.6-.8.6.4.1.1.4.3.4h.3c-.1.2-.2.3-.3.5-.2.1-.3.1-.5.1q-.1 0-.1.1c0 .1.1 0 .1 0 .1 0 .2.1.2.1-.1.2 0 .1.1.1 0 .1-.1.2-.1.3-.1.1-.3.1-.4.1-.2 0 0 .2-.6.3.1-.2.3-.3.3-.4h0q0-.1 0 0c-.2.1-.3.3-.5.2v-.1c.1 0 .2-.1.2-.2-.3 0-.3-.2-.3-.5s0-.7-.1-1c-.1.1-.1.3-.1.4 0 .3-.2.5-.3.8 0 .5-.2.2-.5.2l.2.2c0 .1.1.1.1.2-.1.1-.2-.1-.3 0 .1.1.3.1.3.3s-.2.1-.3.2c.1 0 .2.1.2.1-.2.2-.5.1-.8.1-.1-.1-.3-.1-.4-.2l-.4.3c-.1 0-.3 0-.3-.2s.6-.1.7-.6c-.1.1-.3.1-.5.2-.1 0-.2.1-.3 0s.1-.1.1-.2c-.1 0-.2 0-.4-.1.2-.1.4-.1.5-.4-.2.1-.5.1-.7 0 .2-.1.4-.5.3-.7-.2-.4-.3-.9-.3-1.4 0-.1 0-.2-.1-.2-.2.4 0 .9-.3 1.3-.1.1-.2.3-.1.4 0 .1.1.3-.1.3-.1 0-.1.1 0 .1.2 0 .1.1.1.2-.1.2-.6.2-.5.3.1.2 0 .2-.2.2.1.1.2.2.3.2-.3.2-.6-.1-.8-.1.2.4.6.5 1 .5-.3.5-.7.4-1.1.3v.1c.1.1.2.1.2.2-.3 0-.5-.3-.8-.4.3.6.7 1 1.4.9l-.3.3-.4.3h-.5c.1.1.1.2.2.2l-.5.4h0l-.3.2c-.2-.2-.3-.4 0-.5.1 0 .1-.1.1-.2-.1 0-.2.1-.4 0 .1 0 .5-.1.5-.3 0-.1-.1 0-.1 0-.2.1-.5.1-.5-.1 0-.1.1 0 .2-.1h0c0-.1-.2-.1-.2-.2.1-.1.2 0 .3-.1 0-.1-.1-.1-.1-.1-.4-.1-.1-.4-.2-.6s-.1-.4-.1-.6c0 0 0-.1-.1-.1s0 .1-.1.2c0 .2-.2.4-.2.7a.55.55 0 0 1-.3.5q-.1.1 0 .1c.1 0 .1.1.1.2-.1.4-.6.3-1 .2.1.2.3.3.4.4-.1.1-.2 0-.2.1s.1.1.2.1.2 0 .3.1c-.3.5-.4.2-.5.3 0 .3.6.1.3.5 0 .1-.9.4-.6.5h.1q-.1.1-.4.1h-.1q0 .1.1.1c.1.1.3.1.4.2l-.9.6-8.1-9.3c-2.2.9-4.3 2.2-6.1 3.2-4.7 2.7-9.1 5.9-13.6 9.1-4.7 3.3-9.6 6.1-14.3 9.3l-2.7 1.8-.3.4c-.3-.1-1.1-.2-1.3-.7-.1-.2-.3-.5.2-.4.3 0 .4-.3.1-.3-.6-.1-.5-.5-.4-.8.2-.5 0-.9-.4-1.1-1-.9-.3-2.2-.9-3.2-.2.2-.2.4-.2.6 0 1.2-.2 2.4-.8 3.5-.3.6.4 1.5.9 1.8-.7.3-1.3.2-2.1 0 .3.6 1 .6 1.4.9-.3.3-.7.1-1.1.2-.1.2.4.3.2.5s-.6.2-.8.1c-.4-.2-1-.1-1.4-.4.4 1.3 2.2 1.1 2.1 1.5-.3.5-1.2.4-1.9.4.5.5 1.1.7 1.6.8.4.1.4.4.7.6.1.5-2.4.2-2.8.1 0 .3.3.3.5.4-.6.3-1.3-.4-1.6-.1 0 .7 1.7 1 2 1.7.1.1.2.2.3.2l-1.9 2.2h0c-.8.4-1-.2-1.3-.6.2-.2.6.1.8-.2-.4-.2-.8-.2-1.2-.5h0c1 0 1.9.5 2.7.1-.5 0-2.8-.4-2.2-1.2 0 0 0-.2-.1-.2-.7-.5-1.3-1.5-1.4-2.2 1-.2 2-.5 2.8-1.3-.9.2-1.8.7-2.6 0 .2-.1.5-.2.7-.3-.3-.3-.9-.2-1-.6-.1-.5.5-.5.8-.8-.3-.3-.7.1-1 0 0-.3.3-.3.4-.5s.3-.3.5-.5c-1-.1-1.4.8-1.5-.6-.1-.8-.6-1.4-.8-2.1-.1-.4.1-.8-.2-1.1-.3.9-.3 1.7-.3 2.6 0 .6 0 1.1-.9 1.2.2.3.4.4.7.5v.2c-.6.1-.9-.4-1.4-.6 0-.2-.2-.1-.1.1h0c.1.4.7.6 1 1.2-1.8-.2-1.1-.8-1.7-.8-.7 0-1.5-.2-2.1-.8.1-.2.3-.1.5-.1s.7.2.4-.4c0-.1.4-.1.7-.2.1 0 .3 0 .2-.1 0-.1-.1-.2-.3-.1-.8.1-1.5-.2-2.2-.3-.3-.2-.6-.4-.7-.7 0-.1.1-.1 0-.2v-.2c.4-.2.9 0 1.3-.1.7.1-.1-.8.9-1-.8 0-3.2-.5-2.4-1.5.3-.4.1-.5-.3-.4s-.6-.2-.9-.4v-.1c.3-.7-.4-1.2-.6-1.8-.1-.4-.4-.7-.3-1.1 0-.1-.1-.2-.2-.2-.2 0-.1.2-.1.3 0 .6 0 1.2-.3 1.8-.2.4.2.8.4 1.1 0 .2 0 .4-.1.6-.2 0-.3-.1-.5-.2 0-.2.2-.1.3-.1 1-.2-1.5-1-1.6-1.3-1.1-.9.8-.4.7-1.2-.4-.3-.8.4-1.6-.8.3-.1.6-.1.9-.2.3 0 .6 0 .7-.3 0-.4-.4 0-.6-.3.4-.3 1.1-.4 1.3-1-1 .3-2.4.5-2.8-.6-.1-.2-.2-.4.2-.5.3-.1.3-.2 0-.4-.5-.3-.8-.7-.8-1.3s-.5-1.1-.6-1.8c0-.1 0-.3-.1-.4-.2 0-.2.2-.2.3 0 .5 0 1.1-.3 1.6-.3.7.7 1.3-.5 1.6-.1 0-.2 0-.3.2.2.2.5 0 .7.2-.1.3-.5.2-.6.5h.1c.1.2.6 0 .5.3-.1.6-1 .6-1.5.4-.1 0-.2-.1-.3 0-.4-.9-.8-1.9-1.1-2.8.1-.2.3-.4.4-.6-.2.1-.4.1-.6.2-1.6-4.1-3.2-8.4-4.7-12.7-.3.7-.5 1.5-.8 2.2l-1.9-6c-5.3-14.5-7.6-25.1-9.9-41.4-1.8-12.7-4.8-15.7-11-21.8-6.8-6.8-9.1-13.7-14.4-23.7-3.4-6.5-7.8-12.5-11.6-18.2-4.3-6.4-5.8-12.2-7.9-19.1-4.4-1.4-8.9-.3-12.6 5.4-2.6 4-4.6 9.8-6.6 14.9-2.3 5.6-4.5 11.3-7 16.5-3.3 6.9-7.1 12.9-11.3 17.5-.6 6.1-1 12.3-2 19.4-2.1 15.3-8.3 28.2-13.1 41.1-1.1 2.9-2.3 6.6-3.6 10.4-.2-.2-.3-.5-.5-.6-.2-.2-.4-.6-.4-1.1.1-.3.2-.5.1-.8-.1-.4-.1-.8-.1-1.3v-.2c-.1 0-.1.1-.1.2 0 .3-.1.5-.1.8-.1.4-.3.7-.2 1.2v.1c-.1.1-.2.3-.3.3-.1-.1-.2.1-.1.3.2.7-.5 1.1-.8 1 .4.2.1.7.3.7.1 0 .3-.1.4.1 0 .4-.1.6-.2.7-.2.1-.5.3-.7.2q-.1 0-.1.1c0 .1.1.1.1.1.1.1.2.1.2.2-.1.4.1.2.1.3.1 0 .1-.1.2.1-.2.4-.5.6-.7.6s0 .4-.6.5c.1-.4.3-.5.3-.8h0c0-.1 0-.2 0 0-.2.1-.3.5-.5.4v-.1c.1 0 .2-.1.2-.3-.3-.1-.3-.4-.3-.9 0-.6 0-1.2-.1-1.8-.1.2-.1.5-.1.8 0 .5-.2 1-.3 1.5 0 1-.2.3-.5.4.1.1.1.2.2.3 0 .1.1.1.1.3-.1.1-.2-.2-.3 0 .1.2.3.2.3.5s-.2.2-.3.4l.2.2c-.3.5-.6.2-.9 0 .3.6.6.8.9.9 0 .5-.3 1.2-.5 1.6v.1c.2.5-.6.8-.7.8.3.3.6 0 .9 0h0c-.1.2-.3.2-.4.4.1.2.2.1.3.2-.1.3-.2.7-.5.5h-.1l-.1-.1a1.38 1.38 0 0 1-.3-.4c0-.2 0-.5-.2-.5s-.3-.2-.4-.3v-.1.1c.1-.1-.1-.3 0-.4s.1.1.1.1c.1.1.4.1.4-.1.1-.5.7-.7.7-1.2-.1-.2-.3.3-.5.1.1-.1.2-.1.2-.3-.1 0-1 .2-1-.1.1-.1.1-.4.2-.4.2-.1.4-.2.5-.5-.2 0-.5.1-.6-.3 0-.3.6-.2.7-1.1-.1.2-.3.2-.5.3-.1.1-.2.1-.3-.1s.1-.2.1-.4c-.1-.1-.2.1-.4-.1.2-.2.4-.2.5-.6-.2.1-.5.2-.7 0 .2-.2.4-.8.3-1.3-.2-.8-.3-1.6-.3-2.5 0-.1 0-.3-.1-.4-.2.7 0 1.6-.3 2.3-.1.2-.2.5-.1.8 0 .2.1.5-.1.6-.1 0-.1.3 0 .2.2 0 .1.1.1.3-.1.4-.6.4-.5.6.1.3 0 .4-.2.4a1.38 1.38 0 0 0 .3.4c-.3.3-.6-.2-.8-.2.2.8.6.9 1 1-.3 1-.7.8-1.1.6v.1c.1.1.2.2.2.4-.3 0-.5-.5-.8-.7.3 1 .7 1.8 1.4 1.7-.4.5-.6 1.4-1.2 1 .2.4.4.4.6.6-.3.4-.6.2-.9.4.2.4.5.4.8.5-.2.4-.4.8-.6 1-.1.1-.5.1-.5-.1q.1 0 .2-.2-.1-.1-.2-.3h.5c-.2-.1-.9-1.2-.4-1.5.1 0 .1-.1.1-.3-.1 0-.2.1-.4 0 .1-.1.5-.2.5-.5 0-.1-.1 0-.1 0-.2.1-.5.1-.5-.3 0-.2.1-.1.2-.2h0c0-.2-.2-.1-.2-.3.1-.1.2 0 .3-.1 0-.1-.1-.1-.1-.1-.4-.2-.1-.7-.2-1.1-.1-.3-.1-.7-.1-1.1 0-.1 0-.2-.1-.2-.1.1 0 .2-.1.3 0 .4-.2.8-.2 1.2s-.1.7-.3.9c-.1.1-.1.2 0 .2.1.1.1.2.1.4-.1.8-.6.6-.9.4.1.4.3.5.4.7-.1.2-.2-.1-.2.2 0 .2.1.2.2.2s.2.1.3.1c-.3.8-.4.4-.5.6 0 .5.6.2.3.8 0 .2-.9.8-.6.9 0 0 .1 0 .1.1q-.1.1-.4.2s-.1 0-.1.1 0 .1.1.2c.2.3.3.1.4.4 0 .2-.1.4-.2.5-.2.4-.4 1-.8.8-.2.1 0 .3.2.4a1.69 1.69 0 0 1-1 .3c.2-.2.5-.3.7-.5 0-.1-.1-.1-.1-.2-1.3.4-2.5.6-3.3-.8 1.2-.1 2.5-.2 3.1-1.4-.8 0-1.5.7-2.4.3.3-.2.7-.3.9-.6-.5 0-.8-.2-.5-.6.2-.3-1.2-.3-1.4-.9-.1-.2-.3-.5.2-.4.3 0 .4-.3.1-.3-.6-.1-.5-.5-.4-.8.2-.5 0-.9-.4-1.1-1-.9-.3-2.2-.9-3.2-.2.2-.2.4-.2.6 0 1.2-.2 2.4-.8 3.5-.3.6.4 1.5.9 1.8-.7.3-1.3.2-2.1 0 .3.6 1 .6 1.4.9-.3.3-.7.1-1.1.2-.1.2.4.3.2.5s-.6.2-.8.1c-.4-.2-1-.1-1.4-.4.4 1.3 2.2 1.1 2.1 1.5-.3.5-1.2.4-1.9.4.5.5 1.1.7 1.6.8.4.1.4.4.7.6.1.5-2.4.2-2.8.1 0 .3.3.3.5.4-.6.3-1.3-.4-1.6-.1 0 .7 1.7 1 2 1.7.2.3.9.4 1.3.2.1 0 .2-.3.4-.1s-.2.5 0 .6v-.1.1c-.4.1-.8.3-1.3.4-.4 0-.6.4-.5.7-.2.3-.6.4-.9.6-.2 0-.3.1-.4.1h-.2c-.8.4-1-.2-1.3-.6.2-.2.6.1.8-.2-.4-.2-.8-.2-1.2-.5h0c1 0 1.9.5 2.7.1-.5 0-2.8-.4-2.2-1.2 0 0 0-.2-.1-.2-.7-.5-1.3-1.5-1.4-2.2 1-.2 2-.5 2.8-1.3-.9.2-1.8.7-2.6 0 .2-.1.5-.2.7-.3-.3-.3-.9-.2-1-.6-.1-.5.5-.5.8-.8-.3-.3-.7.1-1 0 0-.3.3-.3.4-.5s.3-.3.5-.5c-1-.1-1.4.8-1.5-.6-.1-.8-.6-1.4-.8-2.1-.1-.4.1-.8-.2-1.1-.3.9-.3 1.7-.3 2.6 0 .6 0 1.1-.9 1.2.2.3.4.4.7.5v.2c-.6.1-.9-.4-1.4-.6 0-.2-.2-.1-.1.1h0c.1.4.7.6 1 1.2-1.8-.2-1.1-.8-1.7-.8-.7 0-1.5-.2-2.1-.8.1-.2.3-.1.5-.1s.7.2.4-.4c0-.1.4-.1.7-.2.1 0 .3 0 .2-.1 0-.1-.1-.2-.3-.1-.8.1-1.5-.2-2.2-.3-.4-.2-.8-.5-.7-1 .4-.2.9 0 1.3-.1.7.1-.1-.8.9-1-.8 0-3.2-.5-2.4-1.5.3-.4.1-.5-.3-.4s-.6-.2-.9-.4v-.1c.3-.7-.4-1.2-.6-1.8-.1-.4-.4-.7-.3-1.1 0-.1-.1-.2-.2-.2-.2 0-.1.2-.1.3 0 .6 0 1.2-.3 1.8-.2.4.2.8.4 1.1h0c.1.7-.5 1.3-1.2 1.6-.4.2-.8.5-1.2.8-2.3-3.8-4.2-4.9-7.1-6.2-3.4 5.1-6.9 11.7-10.1 17.8-.4.1-.6.2-.7-.7-.1-.8-.6-1.4-.8-2.1-.1-.4.1-.8-.2-1.1-.3.9-.3 1.7-.3 2.6 0 .6 0 1.1-.9 1.2.2.3.4.4.7.5v.2c-.6.1-.9-.4-1.4-.6 0-.2-.2-.1-.1.1h0c.1.4.7.6 1 1.2-1.8-.2-1.1-.8-1.7-.8-.7 0-1.5-.2-2.1-.8.1-.2.3-.1.5-.1s.7.2.4-.4c0-.1.4-.1.7-.2.1 0 .3 0 .2-.1 0-.1-.1-.2-.3-.1-.8.1-1.5-.2-2.2-.3-.4-.2-.8-.5-.7-1 .4-.2.9 0 1.3-.1.7.1-.1-.8.9-1-.8 0-3.2-.5-2.4-1.5.3-.4.1-.5-.3-.4s-.6-.2-.9-.4v-.1c.3-.7-.4-1.2-.6-1.8-.1-.4-.4-.7-.3-1.1 0-.1-.1-.2-.2-.2-.2 0-.1.2-.1.3 0 .6 0 1.2-.3 1.8-.2.4.2.8.4 1.1.1.7-.5 1.3-1.2 1.6-.8.4-1.3 1.2-2.4 1.2.8.6 1.7.2 2.6.2-.6.5-1.2.6-1.9.6.3.3.5.3 1.2.4q-.4.5-2.9.7c1 .9 2.7.3 3 .7-.1.5-1.2.7-1.6 1 1.1.1 2 0 2.9-.6 0 .4-.4.5-.6.8-1.4.9-1.5.9-3.9 1.1.8.5 1.5.7 2.4.7v.1c-.7.3-1.1.2-2 .3.8.5 2.5.9 2.5.9-.2.7-2.2-.1-2.7-.3-.1-.1-.2-.1-.2-.1-.1.1 0 .1.1.2.4.5 1.1.9 1.7 1.1 1 .3.3.5.1 1-.5.4-.8 1.4-1.6.7.3-.2.6-.3.8-.5-.2-.4-.8.1-1-.3-.1-.3.4-.3.6-.5-1.9-.2-1.4-1.7-2-2.6 0 .6-.5 1.2-.2 1.8.3.9-.9.9-1.6.8.2.3.5.4.7.5.8.4-.3.8-.4 1.4-.1.1-.2.1-.2.2-.3.2-.7.2-1 .2.3.3.8.1 1 .4q-.4.3-2 .3c.2.7 1.7.6 1.2 1.2-.1.1-.1.2-.1.4.1 1.2-.8 1.4-1.9 1.4.5-.2.9-.5 1.2-1-.8 0-1.5.7-2.4.3.3-.2.7-.3.9-.6-.5 0-.8-.2-.5-.6.2-.3-1.2-.3-1.4-.9-.1-.2-.3-.5.2-.4.3 0 .4-.3.1-.3-.6-.1-.5-.5-.4-.8.2-.5 0-.9-.4-1.1-1-.9-.3-2.2-.9-3.2-.2.2-.2.4-.2.6 0 1.2-.2 2.4-.8 3.5-.3.6.4 1.5.9 1.8-.7.3-1.3.2-2.1 0 .3.6 1 .6 1.4.9-.3.3-.7.1-1.1.2-.1.2.4.3.2.5s-.6.2-.8.1c-.4-.2-1-.1-1.4-.4.4 1.3 2.2 1.1 2.1 1.5-.3.5-1.2.4-1.9.4.5.5 1.1.7 1.6.8.4.1.4.4.7.6.1.5-2.4.2-2.8.1 0 .3.3.3.5.4-.6.3-1.3-.4-1.6-.1 0 .7 1.7 1 2 1.7.2.3.9.4 1.3.2.1 0 .2-.3.4-.1s-.2.5 0 .6v-.1.1c-.4.1-.8.3-1.3.4-.4 0-.6.4-.5.7-.2.3-.6.4-.9.6-.2 0-.3.1-.4.1h-.2c-.8.4-1-.2-1.3-.6.2-.2.6.1.8-.2-.4-.2-.8-.2-1.2-.5h0c1 0 1.9.5 2.7.1-.5 0-2.8-.4-2.2-1.2 0 0 0-.2-.1-.2-.7-.5-1.3-1.5-1.4-2.2 1-.2 2-.5 2.8-1.3-.9.2-1.8.7-2.6 0 .2-.1.5-.2.7-.3-.3-.3-.9-.2-1-.6-.1-.5.5-.5.8-.8-.3-.3-.7.1-1 0 0-.3.3-.3.4-.5s.3-.3.5-.5c-1-.1-1.4.8-1.5-.6-.1-.8-.6-1.4-.8-2.1-.1-.4.1-.8-.2-1.1-.3.9-.3 1.7-.3 2.6 0 .6 0 1.1-.9 1.2.2.3.4.4.7.5v.2c-.6.1-.9-.4-1.4-.6 0-.2-.2-.1-.1.1h0c.1.4.7.6 1 1.2-1.8-.2-1.1-.8-1.7-.8-.7 0-1.5-.2-2.1-.8.1-.2.3-.1.5-.1s.7.2.4-.4c0-.1.4-.1.7-.2.1 0 .3 0 .2-.1 0-.1-.1-.2-.3-.1-.8.1-1.5-.2-2.2-.3-.4-.2-.8-.5-.7-1 .4-.2.9 0 1.3-.1.7.1-.1-.8.9-1-.8 0-3.2-.5-2.4-1.5.3-.4.1-.5-.3-.4s-.6-.2-.9-.4v-.1c.3-.7-.4-1.2-.6-1.8-.1-.4-.4-.7-.3-1.1 0-.1-.1-.2-.2-.2-.2 0-.1.2-.1.3 0 .6 0 1.2-.3 1.8-.2.4.2.8.4 1.1.1.7-.5 1.3-1.2 1.6-.8.4-1.3 1.2-2.4 1.2.8.6 1.7.2 2.6.2-.6.5-1.2.6-1.9.6.3.3.5.3 1.2.4q-.4.5-2.9.7c1 .9 2.7.3 3 .7-.1.5-1.2.7-1.6 1 1 .1 1.8 0 2.7-.4h0c-.1.1-.1.2-.1.4-.1.1-.2.1-.2.2-1.4.9-1.5.9-3.9 1.1.8.5 1.5.7 2.4.7v.1c-.7.3-1.1.2-2 .3.6.4 1.6.7 2.1.8.1.1.2.1.4.2-.2.4-1.2.2-1.9-.1h-.1c-.3-.1-.6-.2-.7-.2-.1-.1-.2-.1-.2-.1-.1.1 0 .1.1.2l.3.3c-.5 0-.9-.1-1.2-.3-.1-.4-.2-.9-.4-1.2 0 .3-.1.5-.2.8-.3-.3-.6-.6-1-.8 2.2.2 3.2-.9 4.2-2.4-.9.2-1.4 1-2.3 1 .2-.2.5-.3.7-.5 0-.1-.1-.1-.1-.2-1.3.4-2.5.6-3.3-.8 1.2-.1 2.5-.2 3.1-1.4-.8 0-1.5.7-2.4.3.3-.2.7-.3.9-.6-.5 0-.8-.2-.5-.6.2-.3-1.2-.3-1.4-.9-.1-.2-.3-.5.2-.4.3 0 .4-.3.1-.3-.6-.1-.5-.5-.4-.8.2-.5 0-.9-.4-1.1-1-.9-.3-2.2-.9-3.2-.2.2-.2.4-.2.6 0 1.2-.2 2.4-.8 3.5-.3.6.4 1.5.9 1.8-.7.3-1.3.2-2.1 0 .3.6 1 .6 1.4.9-.3.3-.7.1-1.1.2-.1.2.4.3.2.5s-.6.2-.8.1-.5-.1-.8-.2c.3-.1.6-.3 1-.5-1 0-1.8 0-2.6-.6.4.1 1.9-.3 1.1-.5-1.2.2-1.8-.5-2.5-1.2-.2-.2-.6-.4-.5-.8.2-.4.8-.1 1.3-.6.2 0 .3 0 .2-.2s-.2-.1-.3-.1q-.7 0-1.2-.2c0-.2.2-.1.3-.1 1-.2-1.5-1-1.6-1.3-1.1-.9.8-.4.7-1.2-.4-.3-.8.4-1.6-.8.3-.1.6-.1.9-.2.3 0 .6 0 .7-.3 0-.4-.4 0-.6-.3.4-.3 1.1-.4 1.3-1-1 .3-2.4.5-2.8-.6-.1-.2-.2-.4.2-.5.3-.1.3-.2 0-.4-.5-.3-.8-.7-.8-1.3s-.5-1.1-.6-1.8c0-.1 0-.3-.1-.4-.2 0-.2.2-.2.3 0 .5 0 1.1-.3 1.6-.3.7.7 1.3-.5 1.6-.1 0-.2 0-.3.2.2.2.5 0 .7.2-.1.3-.5.2-.6.5h.1c.1.2.6 0 .5.3-.1.6-1 .6-1.5.4-.1 0-.3-.1-.3 0 0 .4.9.5 1.4.7-.4.2-.8.1-1.2.1 0 .3.2.4.4.4 1.4.3-.6 1.9-1.3 2.1h1.6c-.3.2-.5.3-.7.4 0 .3.3.2.4.3-.1.2-.9.3-1.3.2l-1.1-1.8c.5-.1 1-.3 1.4-.6-.6-.2-1.2-.1-1.8-.2l-.3-.6c.4-.1.8-.3 1.2-.7-.7.2-1.1.2-1.6 0l-.9-1.5c1.5-.2 2.4-1.1 3.2-2.4-.9.2-1.4 1-2.3 1 .2-.2.5-.3.7-.5 0-.1-.1-.1-.1-.2-1.3.4-2.5.6-3.3-.8 1.2-.1 2.5-.2 3.1-1.4-.8 0-1.5.7-2.4.3.3-.2.7-.3.9-.6-.5 0-.8-.2-.5-.6.2-.3-1.2-.3-1.4-.9-.1-.2-.3-.5.2-.4.3 0 .4-.3.1-.3-.6-.1-.5-.5-.4-.8.2-.5 0-.9-.4-1.1-1-.9-.3-2.2-.9-3.2-.2.2-.2.4-.2.6 0 1.2-.2 2.4-.8 3.5-.1.2-.1.4 0 .7l-17.2-28.1c-2.4-1.1-4.8-1.4-7.1-.1-4.3 2.4-7.8 8.8-11.5 13.5-2.7 3.4-5.9 6.5-9.1 7.5-.1-.2-.1-.3 0-.4s.2-.2.2-.4c-.2 0-.7 0-.5-.6.1-.5-.1-.9-.1-1.3-.2.6 0 1.7-.7 1.8.1.1.2.2.2.4-.1.3-.3 0-.3.2.1.2.2.2.3.4 0 .1-.1.1-.1.1h-.1c-.1 0-.2-.5-.4-.7-.1-.3-.3-.5 0-.7.2-.1.4-.4.6-.7 0 0 .1-.1 0-.1h-.1c-.2.1-.9.6-.9.2 0 0 .6-.3.9-.7-.3 0-.4 0-.7-.2v-.1c.3 0 .5-.1.8-.5-.8-.1-.9-.1-1.3-.7-.1-.2-.2-.3-.2-.5.3.4.6.5 1 .4-.1-.2-.5-.4-.6-.7.1-.3.7.2 1-.5q-.9-.2-1-.5c.2 0 .3-.1.4-.3-.2 0-.4-.1-.6-.4.3 0 .6.3.9-.2-.4 0-.5-.5-.8-.8-.2-.2-.4-.6-.4-1.1.1-.3.2-.5.1-.8-.1-.4-.1-.8-.1-1.3v-.2c-.1 0-.1.1-.1.2 0 .3-.1.5-.1.8-.1.4-.3.7-.2 1.2v.1c-.1.1-.2.3-.3.3-.1-.1-.2.1-.1.3.2.7-.5 1.1-.8 1 .4.2.1.7.3.7.1 0 .3-.1.4.1 0 .4-.1.6-.2.7-.2.1-.5.3-.7.2q-.1 0-.1.1c0 .1.1.1.1.1.1.1.2.1.2.2-.1.4.1.2.1.3.1 0 .1-.1.2.1-.2.4-.5.6-.7.6s0 .4-.6.5c.1-.4.3-.5.3-.8h0c0-.1 0-.2 0 0-.2.1-.3.5-.5.4v-.1c.1 0 .2-.1.2-.3-.3-.1-.3-.4-.3-.9 0-.6 0-1.2-.1-1.8-.1.2-.1.5-.1.8 0 .5-.2 1-.3 1.5 0 1-.2.3-.5.4.1.1.1.2.2.3 0 .1.1.1.1.3-.1.1-.2-.2-.3 0 .1.2.3.2.3.5s-.2.2-.3.4l.2.2c-.2.4-.5.2-.8.1l-.4-.4-.4.5c-.1 0-.3-.1-.3-.3 0-.3.6-.2.7-1.1-.1.2-.3.2-.5.3-.1.1-.2.1-.3-.1s.1-.2.1-.4c-.1-.1-.2.1-.4-.1.2-.2.4-.2.5-.6-.2.1-.5.2-.7 0 .2-.2.4-.8.3-1.3-.2-.8-.3-1.6-.3-2.5 0-.1 0-.3-.1-.4-.2.7 0 1.6-.3 2.3-.1.2-.2.5-.1.8 0 .2.1.5-.1.6-.1 0-.1.3 0 .2.2 0 .1.1.1.3-.1.4-.6.4-.5.6.1.3 0 .4-.2.4.1.2.2.3.3.4-.3.3-.6-.2-.8-.2.2.8.6.9 1 1-.3 1-.7.8-1.1.6v.1c.1.1.2.2.2.4-.3 0-.5-.5-.8-.7.3 1 .7 1.8 1.4 1.7-.1.2-.2.4-.3.5l-.4.5c-.1.1-.3.1-.5-.1.1.2.1.3.2.4l-.5.7h0l-.3.4c-.2-.4-.3-.8 0-.9.1 0 .1-.1.1-.3-.1 0-.2.1-.4 0 .1-.1.5-.2.5-.5 0-.1-.1 0-.1 0-.2.1-.5.1-.5-.3 0-.2.1-.1.2-.2h0c0-.2-.2-.1-.2-.3.1-.1.2 0 .3-.1 0-.1-.1-.1-.1-.1-.4-.2-.1-.7-.2-1.1-.1-.3-.1-.7-.1-1.1 0-.1 0-.2-.1-.2-.1.1 0 .2-.1.3 0 .4-.2.8-.2 1.2s-.1.7-.3.9c-.1.1-.1.2 0 .2.1.1.1.2.1.4-.1.8-.6.6-.9.4.1.4.3.5.4.7-.1.2-.2-.1-.2.2 0 .2.1.2.2.2s.2.1.3.1c-.3.8-.4.4-.5.6 0 .5.6.2.3.8 0 .2-.9.8-.6.9 0 0 .1 0 .1.1q-.1.1-.4.2s-.1 0-.1.1 0 .1.1.2c.1.3.3.2.4.3l-.9 1.1-1.5-3.1c.2-.1.4-.3.5-.5-.2.1-.4.1-.7.1l-6.4-13.3c-1.9 1.4-3.8 3.4-5.5 5.2-.2-.2-.1-.4 0-.6.2-.5 0-.9-.4-1.1-1-.9-.3-2.2-.9-3.2-.2.2-.2.4-.2.6 0 1.2-.2 2.4-.8 3.5-.3.6.4 1.5.9 1.8-.7.3-1.3.2-2.1 0 .3.6 1 .6 1.4.9-.3.3-.7.1-1.1.2-.1.2.4.3.2.5s-.6.2-.8.1c-.4-.2-1-.1-1.4-.4.3.9 1.3 1.1 1.8 1.3-.2.2-.4.5-.6.7h-.9c.2.2.4.3.6.4-.3.4-.6.7-1 1.1h-.1v.1l-.3.3c-.4-.1-.7-.3-.9-.1 0 .2.2.4.5.6-.4.5-.8 1-1.2 1.4-.1-.1-.1-.3 0-.4 0 0 0-.2-.1-.2-.7-.5-1.3-1.5-1.4-2.2 1-.2 2-.5 2.8-1.3-.9.2-1.8.7-2.6 0 .2-.1.5-.2.7-.3-.3-.3-.9-.2-1-.6-.1-.5.5-.5.8-.8-.3-.3-.7.1-1 0 0-.3.3-.3.4-.5s.3-.3.5-.5c-1-.1-1.4.8-1.5-.6-.1-.8-.6-1.4-.8-2.1-.1-.4.1-.8-.2-1.1-.3.9-.3 1.7-.3 2.6 0 .6 0 1.1-.9 1.2.2.3.4.4.7.5v.2c-.6.1-.9-.4-1.4-.6 0-.2-.2-.1-.1.1h0c.1.4.7.6 1 1.2-1.8-.2-1.1-.8-1.7-.8-.7 0-1.5-.2-2.1-.8.1-.2.3-.1.5-.1s.7.2.4-.4c0-.1.4-.1.7-.2.1 0 .3 0 .2-.1 0-.1-.1-.2-.3-.1-.8.1-1.5-.2-2.2-.3-.4-.2-.8-.5-.7-1 .4-.2.9 0 1.3-.1.7.1-.1-.8.9-1-.8 0-3.2-.5-2.4-1.5.3-.4.1-.5-.3-.4s-.6-.2-.9-.4v-.1c.3-.7-.4-1.2-.6-1.8-.1-.4-.4-.7-.3-1.1 0-.1-.1-.2-.2-.2-.2 0-.1.2-.1.3 0 .6 0 1.2-.3 1.8-.2.4.2.8.4 1.1h0c.1.7-.5 1.3-1.2 1.6-.8.4-1.3 1.2-2.4 1.2.8.6 1.7.2 2.6.2-.6.5-1.2.6-1.9.6.3.3.5.3 1.2.4q-.4.5-2.9.7c1 .9 2.7.3 3 .7-.1.5-1.2.7-1.6 1 1.1.1 2 0 2.9-.6 0 .4-.4.5-.6.8-1.4.9-1.5.9-3.9 1.1.8.5 1.5.7 2.4.7v.1c-.7.3-1.1.2-2 .3.8.5 2.5.9 2.5.9-.2.7-2.2-.1-2.7-.3-.1-.1-.2-.1-.2-.1-.1.1 0 .1.1.2.4.5 1.1.9 1.7 1.1 1 .3.3.5.1 1-.5.4-.8 1.4-1.6.7.3-.2.6-.3.8-.5-.2-.4-.8.1-1-.3-.1-.3.4-.3.6-.5-1.9-.2-1.4-1.7-2-2.6 0 .6-.5 1.2-.2 1.8.3.9-.9.9-1.6.8.2.3.5.4.7.5.8.4-.3.8-.4 1.4-.1.1-.2.1-.2.2-.3.2-.7.2-1 .2.3.3.8.1 1 .4-.2.2-.3.2-.7.2l-.3-.3c-1-.9-.3-2.2-.9-3.2-.2.2-.2.4-.2.6 0 1.2-.2 2.4-.8 3.5-.3.6.4 1.5.9 1.8-.7.3-1.3.2-2.1 0 .2.3.4.5.7.6h-.6c.1.2.3.4.6.5h-.3c-.1.2.4.3.2.5s-.6.2-.8.1c-.4-.2-1-.1-1.4-.4.4 1.3 2.2 1.1 2.1 1.5 0 .1-.1.1-.2.2-.4 0-.9-.1-1.4-.2.2.2.4.3.5.5h-.9c.5.5 1.1.7 1.6.8.4.1.4.4.7.6.1.5-2.4.2-2.8.1 0 .3.3.3.5.4-.6.3-1.3-.4-1.6-.1 0 .7 1.7 1 2 1.7.1.1.3.2.5.3h-.8a1.27 1.27 0 0 0 .9.7h-.1c-.4 0-.6.4-.5.7-.2.3-.6.4-.9.6-.2 0-.3.1-.4.1h-.2c-.8.4-1-.2-1.3-.6.2-.2.6.1.8-.2-.4-.2-.8-.2-1.2-.5h0c1 0 1.9.5 2.7.1-.5 0-2.8-.4-2.2-1.2 0 0 0-.2-.1-.2-.7-.5-1.3-1.5-1.4-2.2 1-.2 2-.5 2.8-1.3-.9.2-1.8.7-2.6 0 .2-.1.5-.2.7-.3-.3-.3-.9-.2-1-.6-.1-.5.5-.5.8-.8-.3-.3-.7.1-1 0 0-.3.3-.3.4-.5s.3-.3.5-.5c-1-.1-1.4.8-1.5-.6-.1-.8-.6-1.4-.8-2.1-.1-.4.1-.8-.2-1.1-.3.9-.3 1.7-.3 2.6 0 .6 0 1.1-.9 1.2.2.3.4.4.7.5v.2c-.6.1-.9-.4-1.4-.6 0-.2-.2-.1-.1.1h0c.1.4.7.6 1 1.2-1.8-.2-1.1-.8-1.7-.8-.7 0-1.5-.2-2.1-.8.1-.2.3-.1.5-.1s.7.2.4-.4c0-.1.4-.1.7-.2.1 0 .3 0 .2-.1 0-.1-.1-.2-.3-.1-.8.1-1.5-.2-2.2-.3-.4-.2-.8-.5-.7-1 .4-.2.9 0 1.3-.1.7.1-.1-.8.9-1-.8 0-3.2-.5-2.4-1.5.3-.4.1-.5-.3-.4s-.6-.2-.9-.4v-.1c.3-.7-.4-1.2-.6-1.8-.1-.4-.4-.7-.3-1.1 0-.1-.1-.2-.2-.2-.2 0-.1.2-.1.3 0 .6 0 1.2-.3 1.8-.2.4.2.8.4 1.1h0c.1.7-.5 1.3-1.2 1.6-.8.4-1.3 1.2-2.4 1.2.8.6 1.7.2 2.6.2-.6.5-1.2.6-1.9.6.3.3.5.3 1.2.4q-.4.5-2.9.7c1 .9 2.7.3 3 .7-.1.4-.8.6-1.3.8-4.2-2.5-8.5-4.9-12.9-7.1-3.8-1.9-8.1-4.2-12.6-5.8l-16.7 16.8-1.9-1.1c.2-.1.5 0 .8-.3.1 0 .2 0 .2-.2 0-.1-.1-.1-.2-.1q-.5 0-.8-.2c0-.1.1-.1.2-.1.7-.1-1.1-.7-1.1-.9-.8-.6.5-.3.5-.8-.2-.2-.6.2-1.1-.6.2 0 .4-.1.7-.1.2 0 .4 0 .5-.2 0-.3-.3 0-.4-.2.3-.2.7-.3.9-.7-.7.2-1.7.4-2-.4-.1-.1-.1-.3.2-.4.2 0 .2-.1 0-.2-.4-.2-.6-.5-.6-.9s-.4-.8-.4-1.2c0-.1 0-.2-.1-.3-.1 0-.1.1-.1.2 0 .4 0 .8-.2 1.1-.2.5.5.9-.4 1.1-.1 0-.2 0-.2.1.1.1.4 0 .5.1 0 .2-.3.2-.4.3h.1c.1.1.4 0 .4.2-.1.4-.7.4-1 .3-.1 0-.2-.1-.2 0 0 .3.6.4.9.5-.3.2-.6.1-.8 0 0 .2.2.3.3.3.6.1.4.5 0 .9l-.7-.4h-.1l-1.1-.7c.2-.1.3-.2.5-.4-.4.1-.7.1-.9.1l-.9-.5c-.2-.2-.4-.4-.6-.5 1.5.1 2.3-.6 2.9-1.7-.6.2-1 .7-1.6.7.2-.1.3-.2.5-.4 0 0 0-.1-.1-.1-.9.3-1.7.4-2.3-.6.9-.1 1.7-.2 2.1-1-.6 0-1.1.5-1.7.2.2-.2.5-.2.6-.4-.3 0-.5-.1-.3-.4.2-.2-.8-.2-1-.6-.1-.1-.2-.3.2-.3.2 0 .3-.2.1-.2-.4-.1-.4-.3-.3-.6s0-.6-.3-.8c-.7-.6-.2-1.5-.6-2.3a.76.76 0 0 0-.2.4c0 .9-.1 1.7-.5 2.5-.2.5.3 1.1.6 1.3-.5.2-.9.1-1.4 0 .2.4.7.4 1 .6-.2.2-.5.1-.7.1-.1.2.3.2.2.4-.2.2-.4.1-.6.1-.3-.1-.7-.1-1-.3.2.9 1.5.8 1.5 1.1-.1.2-.4.3-.6.3l-.9-.5c-.3.1-.5.3-.8.4-.6.2-1.1.3-1.6-.1.2-.1.3-.1.5-.2-.2-.2-.7-.1-.7-.4-.1-.3.4-.4.6-.5-.2-.2-.5.1-.7 0 0-.2.2-.2.3-.3l.3-.3c-.7-.1-1 .6-1.1-.4-.1-.5-.5-1-.5-1.5 0-.3.1-.5-.2-.8-.2.6-.2 1.2-.2 1.8 0 .4 0 .8-.6.9.2.2.3.3.5.3v.1c-.4.1-.7-.3-1-.4 0-.1-.1-.1-.1 0h0c.1.3.5.4.7.8-1.3-.2-.7-.5-1.2-.5s-1.1-.2-1.5-.6c.1-.1.2-.1.3-.1.2 0 .5.1.3-.3 0-.1.3-.1.5-.2.1 0 .2 0 .2-.1s-.1-.1-.2-.1c-.5.1-1-.1-1.5-.2-.3-.2-.6-.4-.5-.7.3-.2.6 0 .9-.1.5 0-.1-.5.7-.7-.6 0-2.2-.3-1.7-1 .2-.2.1-.4-.2-.3-.3 0-.4-.1-.6-.3v-.1c.2-.5-.3-.8-.4-1.2-.1-.3-.2-.5-.2-.8 0-.1 0-.2-.2-.2-.1 0-.1.1-.1.2 0 .4 0 .8-.2 1.3-.2.3.1.5.3.8.1.5-.3.9-.8 1.1-.6.3-.9.8-1.7.8.6.4 1.2.1 1.8.2-.4.3-.9.4-1.3.4.2.2.3.2.8.3q-.3.3-2 .5c.7.7 1.9.2 2.1.5-.1.3-.8.5-1.1.7a3.19 3.19 0 0 0 2.1-.4c0 .3-.3.4-.4.5q-1 .6-2.7.7c.5.3 1.1.5 1.7.5v.1c-.5.2-.8.2-1.4.2.6.4 1.8.6 1.8.7-.1.5-1.6-.1-1.9-.2 0-.1-.1-.1-.2 0-.1 0 0 .1.1.1.3.4.7.6 1.2.7.7.2.2.3.1.7-.2.2-.4.6-.7.7h-.1c-.1 0-.2-.1-.2-.1.2-.1.4-.2.6-.4-.1-.3-.6 0-.7-.2s.3-.2.4-.4c-1.3-.1-1-1.2-1.4-1.8 0 .4-.4.8-.2 1.3.2.6-.6.6-1.1.6.1.2.3.3.5.4s.2.3.1.4c-6.7-1-13.3-4.1-18.8-7.5-7.7-4.7-14.9-11.1-23.8-13.5-4.8-1.3-9.8-1-14.7.1l-58.9 46.4c-.5.6-.9 1.1-1.4 1.6-.8.9-1.7 1.4-2.6 1.5l-11.5 9.1v-.1c-.1-.5-.4-.8-.5-1.3 0-.2.1-.5-.2-.7-.2.5-.2 1.1-.2 1.6 0 .4 0 .7-.6.8.1.2.3.3.4.3v.1c-.4.1-.6-.3-.9-.4 0-.1-.1-.1-.1 0h0c.1.2.4.4.5.6h-.1c-1-.2-.6-.5-1-.4-.4 0-.9-.1-1.3-.5.1-.1.2 0 .3-.1.1 0 .4.1.3-.2 0-.1.3-.1.4-.1s.2 0 .2-.1-.1-.1-.2-.1c-.5.1-.9-.1-1.3-.2-.2-.2-.5-.3-.4-.6.3-.2.5 0 .8-.1.5 0-.1-.5.6-.6-.5 0-1.9-.3-1.5-.9.2-.2.1-.3-.2-.3s-.4-.1-.5-.2v-.1c.2-.4-.3-.7-.4-1.1-.1-.2-.2-.4-.2-.7q0-.1-.1-.1c-.1 0-.1.1-.1.2 0 .4 0 .7-.2 1.1-.1.3.1.5.2.7.1.4-.3.8-.7 1-.5.2-.8.7-1.5.7.5.4 1 .1 1.6.1-.4.3-.7.4-1.2.4.2.2.3.2.7.2q-.2.3-1.8.5c.6.6 1.7.2 1.8.4-.1.3-.7.4-1 .6.6.1 1.3 0 1.8-.3 0 .2-.3.3-.4.5q-.9.5-2.4.6c.5.3.9.4 1.5.4v.1c-.5.2-.7.1-1.2.2.5.3 1.5.5 1.6.6-.1.4-1.4-.1-1.7-.2 0-.1-.1-.1-.2 0 0 0 0 .1.1.1.3.3.7.5 1.1.6.6.2.2.3 0 .6-.3.2-.5.9-1 .4.2-.1.4-.2.5-.3-.1-.2-.5 0-.6-.2 0-.2.3-.2.4-.3-1.2-.1-.9-1-1.2-1.6 0 .4-.3.7-.2 1.1.2.6-.6.5-1 .5.1.2.3.3.4.3.5.2-.2.5-.2.9l-.1.1c-.2.1-.4.1-.6.1.2.2.5.1.6.2q-.2.2-1.2.2c-.3-.1-.5-.3-.5-.3-1.1-.9.8-.4.7-1.2-.4-.3-.8.4-1.6-.8.3-.1.6-.1.9-.2.3 0 .6 0 .7-.3 0-.4-.4 0-.6-.3.4-.3 1.1-.4 1.3-1-1 .3-2.4.5-2.8-.6-.1-.2-.2-.4.2-.5.3-.1.3-.2 0-.4-.5-.3-.8-.7-.8-1.3s-.5-1.1-.6-1.8c0-.1 0-.3-.1-.4-.2 0-.2.2-.2.3 0 .5 0 1.1-.3 1.6-.3.7.7 1.3-.5 1.6-.1 0-.2 0-.3.2.2.2.5 0 .7.2-.1.3-.5.2-.6.5h.1c.1.2.6 0 .5.3-.1.6-1 .6-1.5.4-.1 0-.3-.1-.3 0 0 .4.9.5 1.4.7-.4.2-.8.1-1.2.1 0 .3.2.4.4.4 1.4.3-.6 1.9-1.3 2.1h1.6c-.3.2-.5.3-.7.4 0 .3.3.2.4.3-.1.3-1.1.4-1.5.2-.7-.4-1.2-1-1.9-1.5.9-.2 1.7-.3 2.3-.8-.9-.2-1.9 0-2.7-.6.5-.3 1.2-.2 1.7-.9-1.8.6-2.4-.7-3.5-1.4 2.2.2 3.2-.9 4.2-2.4-.9.2-1.4 1-2.3 1 .2-.2.5-.3.7-.5 0-.1-.1-.1-.1-.2-1.3.4-2.5.6-3.3-.8 1.2-.1 2.5-.2 3.1-1.4-.8 0-1.5.7-2.4.3.3-.2.7-.3.9-.6-.5 0-.8-.2-.5-.6.2-.3-1.2-.3-1.4-.9-.1-.2-.3-.5.2-.4.3 0 .4-.3.1-.3-.6-.1-.5-.5-.4-.8.2-.5 0-.9-.4-1.1-1-.9-.3-2.2-.9-3.2-.2.2-.2.4-.2.6 0 1.2-.2 2.4-.8 3.5-.3.6.4 1.5.9 1.8-.7.3-1.3.2-2.1 0 .3.6 1 .6 1.4.9-.3.3-.7.1-1.1.2-.1.2.4.3.2.5s-.6.2-.8.1c-.4-.2-1-.1-1.4-.4.4 1.3 2.2 1.1 2.1 1.5-.3.5-1.2.4-1.9.4.5.5 1.1.7 1.6.8.4.1.4.4.7.6.1.5-2.4.2-2.8.1 0 .3.3.3.5.4-.6.3-1.3-.4-1.6-.1 0 .7 1.7 1 2 1.7.2.3.9.4 1.3.2.1 0 .2-.3.4-.1s-.2.5 0 .6v-.1.1c-.4.1-.8.3-1.3.4-.4 0-.6.4-.5.7-.2.3-.6.4-.9.6-.2 0-.3.1-.4.1h-.2c-.8.4-1-.2-1.3-.6.2-.2.6.1.8-.2-.4-.2-.8-.2-1.2-.5h0c1 0 1.9.5 2.7.1-.5 0-2.8-.4-2.2-1.2 0 0 0-.2-.1-.2-.7-.5-1.3-1.5-1.4-2.2 1-.2 2-.5 2.8-1.3-.9.2-1.8.7-2.6 0 .2-.1.5-.2.7-.3-.3-.3-.9-.2-1-.6-.1-.5.5-.5.8-.8-.3-.3-.7.1-1 0 0-.3.3-.3.4-.5s.3-.3.5-.5c-1-.1-1.4.8-1.5-.6-.1-.8-.6-1.4-.8-2.1-.1-.4.1-.8-.2-1.1-.3.9-.3 1.7-.3 2.6 0 .6 0 1.1-.9 1.2.2.3.4.4.7.5v.2c-.6.1-.9-.4-1.4-.6 0-.2-.2-.1-.1.1h0c.1.4.7.6 1 1.2-1.8-.2-1.1-.8-1.7-.8-.7 0-1.5-.2-2.1-.8.1-.2.3-.1.5-.1s.7.2.4-.4c0-.1.4-.1.7-.2.1 0 .3 0 .2-.1 0-.1-.1-.2-.3-.1-.8.1-1.5-.2-2.2-.3-.4-.2-.8-.5-.7-1 .4-.2.9 0 1.3-.1.7.1-.1-.8.9-1-.8 0-3.2-.5-2.4-1.5.3-.4.1-.5-.3-.4s-.6-.2-.9-.4v-.1c.3-.7-.4-1.2-.6-1.8-.1-.4-.4-.7-.3-1.1 0-.1-.1-.2-.2-.2-.2 0-.1.2-.1.3 0 .6 0 1.2-.3 1.8-.2.4.2.8.4 1.1.1.7-.5 1.3-1.2 1.6-.8.4-1.3 1.2-2.4 1.2.8.6 1.7.2 2.6.2-.6.5-1.2.6-1.9.6.3.3.5.3 1.2.4q-.4.5-2.9.7c1 .9 2.7.3 3 .7-.1.5-1.2.7-1.6 1 1.1.1 2 0 2.9-.6 0 .4-.4.5-.6.8-1.4.9-1.5.9-3.9 1.1.8.5 1.5.7 2.4.7v.1c-.7.3-1.1.2-2 .3.8.5 2.5.9 2.5.9-.2.7-2.2-.1-2.7-.3-.1-.1-.2-.1-.2-.1-.1.1 0 .1.1.2.4.5 1.1.9 1.7 1.1 1 .3.3.5.1 1-.5.4-.8 1.4-1.6.7.3-.2.6-.3.8-.5-.2-.4-.8.1-1-.3-.1-.3.4-.3.6-.5-1.9-.2-1.4-1.7-2-2.6 0 .6-.5 1.2-.2 1.8.2.6-.3.8-.9.8-.1-.1-.2-.1-.2-.2-.1.1-.2.1-.3.2h-.2s0 .1.1.1l-8 5.3c-.4 0-.8-.1-1.1-.7.8-.1 1.5-.1 1.9-.9-.5 0-.9.4-1.5.2.2-.1.4-.2.5-.4-.3 0-.5-.1-.3-.4.1-.2-.7-.2-.9-.5-.1-.1-.2-.3.1-.3.2 0 .2-.2.1-.2-.4-.1-.3-.3-.2-.5.1-.3 0-.5-.2-.7-.6-.5-.2-1.3-.6-2-.1.1-.1.2-.1.4 0 .8-.1 1.5-.5 2.2-.2.4.2.9.6 1.1-.4.2-.8.1-1.3 0 .2.3.6.4.9.6-.2.2-.5.1-.7.1 0 .1.3.2.1.3-.1.1-.4.1-.5 0-.3-.1-.6-.1-.9-.2.2.8 1.3.7 1.3 1-.2.3-.7.3-1.1.3.3.3.7.4 1 .5s.2.3.4.4c.1.3-1.5.1-1.7.1 0 .2.2.2.3.3-.4.2-.8-.2-1-.1 0 .4 1 .6 1.2 1.1.1.2.6.2.8.1.1 0 .1-.2.2-.1.2.1-.1.3 0 .3v-.1.1c-.3.1-.5.2-.8.2-.2 0-.4.2-.3.4-.1.2-.4.2-.6.4-.1 0-.2.1-.2.1h-.1c-.5.2-.6-.1-.8-.4.2-.1.4.1.5-.1-.2-.1-.5-.1-.7-.3h0c.6 0 1.1.3 1.7 0-.3 0-1.7-.3-1.4-.7 0 0 0-.1-.1-.1-.4-.3-.8-.9-.9-1.4.6-.1 1.2-.3 1.7-.8-.6.1-1.1.4-1.6 0 .1-.1.3-.1.5-.2-.2-.2-.6-.1-.6-.4s.3-.3.5-.5c-.2-.2-.4.1-.6 0 0-.2.2-.2.2-.3l.3-.3c-.6-.1-.9.5-.9-.4-.1-.5-.4-.8-.5-1.3 0-.2.1-.5-.2-.7-.2.5-.2 1.1-.2 1.6 0 .4 0 .7-.6.8.1.2.3.3.4.3v.1c-.4.1-.6-.3-.9-.4 0-.1-.1-.1-.1 0h0c.1.3.4.4.6.7-1.1-.1-.6-.5-1.1-.5-.4 0-.9-.1-1.3-.5.1-.1.2 0 .3-.1.1 0 .4.1.3-.2 0-.1.3-.1.4-.1s.2 0 .2-.1-.1-.1-.2-.1c-.5.1-.9-.1-1.3-.2-.2-.2-.5-.3-.4-.6.3-.2.5 0 .8-.1.5 0-.1-.5.6-.6-.5 0-1.9-.3-1.5-.9.2-.2.1-.3-.2-.3s-.4-.1-.5-.2v-.1c.2-.4-.3-.7-.4-1.1-.1-.2-.2-.4-.2-.7q0-.1-.1-.1c-.1 0-.1.1-.1.2 0 .4 0 .7-.2 1.1-.1.3.1.5.2.7h0c.1.4-.3.8-.7 1-.5.2-.8.7-1.5.7.5.4 1 .1 1.6.1a1.92 1.92 0 0 1-1.2.4c.2.2.3.2.7.2q-.2.3-1.8.5c.6.6 1.7.2 1.8.4-.1.3-.7.4-1 .6.6.1 1.3 0 1.8-.3 0 .2-.3.3-.4.5q-.9.5-2.4.6c.5.3.9.4 1.5.4v.1c-.4.2-.6.2-1.1.2h0c-.3.1-.7.2-1 .2a.76.76 0 0 0-.2-.4c0 .1 0 .3-.1.4-.3-.1-.6-.2-.7-.5-.1-.1-.1-.3.2-.4.2 0 .2-.1 0-.2-.4-.2-.6-.5-.6-.9s-.4-.8-.4-1.2c0-.1 0-.2-.1-.3-.1 0-.1.1-.1.2 0 .4 0 .8-.2 1.1-.2.5.5.9-.4 1.1-.1 0-.2 0-.2.1.1.1.4 0 .5.1 0 .2-.3.2-.4.3h.1c.1.1.4 0 .4.2-.1.4-.7.4-1 .3-.1 0-.2-.1-.2 0 0 .3.6.4.9.5-.3.2-.6.1-.8 0 0 .2.2.3.3.3.9.2-.2 1.2-.8 1.4-.4-.2-.9-.3-1.3-.5.5-.1 1-.2 1.4-.5-.6-.2-1.3 0-1.9-.4.4-.2.8-.2 1.2-.6-1.3.4-1.7-.5-2.4-1 1.5.1 2.3-.6 2.9-1.7-.6.2-1 .7-1.6.7.2-.1.3-.2.5-.4 0 0 0-.1-.1-.1-.9.3-1.7.4-2.3-.6.9-.1 1.7-.2 2.2-1-.6 0-1.1.5-1.7.2.2-.2.5-.2.6-.4-.3 0-.5-.1-.3-.4.2-.2-.8-.2-1-.6-.1-.1-.2-.3.2-.3.2 0 .3-.2.1-.2-.4-.1-.4-.3-.3-.6s0-.6-.3-.8c-.7-.6-.2-1.5-.6-2.3a.76.76 0 0 0-.2.4c0 .9-.1 1.7-.5 2.5-.2.5.3 1.1.6 1.3-.5.2-.9.1-1.4 0 .2.4.7.4 1 .6-.2.2-.5.1-.7.1-.1.2.3.2.2.4-.2.2-.4.1-.6.1-.3-.1-.7-.1-1-.3.2.9 1.5.8 1.5 1.1-.2.4-.8.3-1.3.3.3.3.8.5 1.1.5.3.1.3.3.5.4.1.3-1.7.1-2 .1 0 .2.2.2.3.3-.4.2-.9-.3-1.1-.1 0 .3.3.4.7.6-.7-.3-1.4-.6-2.1-1 0-.1-.1-.1-.1-.2.7-.1 1.4-.3 1.9-.9-.7.1-1.3.5-1.9 0 .2-.1.3-.1.5-.2-.2-.2-.7-.1-.7-.4-.1-.3.4-.4.6-.5-.2-.2-.5.1-.7 0 0-.2.2-.2.3-.3l.3-.3c-.7-.1-1 .6-1.1-.4-.1-.5-.5-1-.5-1.5 0-.3.1-.5-.2-.8-.2.6-.2 1.2-.2 1.8 0 .4 0 .8-.6.9.2.2.3.3.5.3v.1c-.4.1-.7-.3-1-.4 0-.1-.1-.1-.1 0h0c.1.3.5.4.7.8-1.3-.2-.7-.5-1.2-.5s-1.1-.2-1.5-.6c.1-.1.2-.1.3-.1.2 0 .5.1.3-.3 0-.1.3-.1.5-.2.1 0 .2 0 .2-.1s-.1-.1-.2-.1c-.5.1-1-.1-1.5-.2-.3-.2-.6-.4-.5-.7.3-.2.6 0 .9-.1.5 0-.1-.5.7-.7-.6 0-2.2-.3-1.7-1 .2-.2.1-.4-.2-.3-.3 0-.4-.1-.6-.3v-.1c.2-.5-.3-.8-.4-1.2-.1-.3-.2-.5-.2-.8 0-.1 0-.2-.2-.2-.1 0-.1.1-.1.2 0 .4 0 .8-.2 1.3-.2.3.1.5.3.8.1.5-.3.9-.8 1.1-.2.1-.4.2-.6.4-9.4-7.7-23.2-22.2-36.5-31.9-6.9 1.5-11.2 2.8-17.1 8.2-.1-.2-.2-.4-.2-.6s.1-.5-.2-.7c-.2.5-.2 1.1-.2 1.6v.3l-.5.5h-.1q-.1.1-.2.2c-.1-.1-.2-.1-.3-.1 0-.1-.1-.1-.1 0h0c0 .1.1.2.2.2l-.3.3c-.2-.1-.1-.3-.4-.3-.4 0-.9-.1-1.3-.5.1-.1.2 0 .3-.1.1 0 .4.1.3-.2 0-.1.3-.1.4-.1s.2 0 .2-.1-.1-.1-.2-.1c-.5.1-.9-.1-1.3-.2-.2-.2-.5-.3-.4-.6.3-.2.5 0 .8-.1.5 0-.1-.5.6-.6-.5 0-1.9-.3-1.5-.9.2-.2.1-.3-.2-.3s-.4-.1-.5-.2v-.1c.2-.4-.3-.7-.4-1.1-.1-.2-.2-.4-.2-.7q0-.1-.1-.1c-.1 0-.1.1-.1.2 0 .4 0 .7-.2 1.1-.1.3.1.5.2.7.1.4-.3.8-.7 1-.5.2-.8.7-1.5.7.5.4 1 .1 1.6.1-.4.3-.7.4-1.2.4.2.2.3.2.7.2q-.2.3-1.8.5c.6.6 1.7.2 1.8.4-.1.3-.7.4-1 .6.6.1 1.3 0 1.8-.3 0 .2-.3.3-.4.5q-.9.5-2.4.6c.5.3.9.4 1.5.4v.1c-.5.2-.7.1-1.2.2.5.3 1.5.5 1.6.6-.1.4-1.4-.1-1.7-.2 0-.1-.1-.1-.2 0 0 0 0 .1.1.1.3.3.7.5 1.1.6.6.2.2.3 0 .6-.3.2-.5.9-1 .4.2-.1.4-.2.5-.3-.1-.2-.5 0-.6-.2 0-.2.3-.2.4-.3-1.2-.1-.9-1-1.2-1.6 0 .4-.3.7-.2 1.1.2.6-.6.5-1 .5.1.2.3.3.4.3.5.2-.2.5-.2.9l-.1.1c-.2.1-.4.1-.6.1.2.2.5.1.6.2q-.2.2-1.2.2c.1.4 1.1.3.7.8q-.1.1-.1.2c.1 1-1 .9-1.8.9.3.4 1.1.6 2.1.4-.2.2-.5.3-.8.5h.9c-.1.1-.3.2-.4.3-.8.4-1.6.5-2.5.2 1.3 1.2 1.1.5 2.2 1-.4.3-.7.5-.6 1-.1.5-1.1.7-1.7.6.2.5.7.5 1.1.7.1.1.3.1.5.1.3-.1.3.2.1.3-.3.2-.7.4-1.1.5.3.1.5.1.9.2l-.1.1c-.8 0-1.5 0-2.1-.1.2.1.4.3.6.4h0c0 .3 0 .7-.2 1-.1.2 0 .4 0 .5l-.5.5c-.5-.1-.9-.4-1.3-.7l-.1.1c.3.4.6.8.9 1l-1.5 1.5c-.2 0-.4-.1-.6-.2.3-.2.7-.2 1.1-.5-1.1.4-1.5-.4-2.1-.9 1.3.1 2-.6 2.6-1.5-.5.1-.8.6-1.4.6a1.38 1.38 0 0 0 .4-.3s0-.1-.1-.1c-.8.2-1.5.3-2-.5.8-.1 1.5-.1 1.9-.9-.5 0-.9.4-1.5.2.2-.1.4-.2.5-.4-.3 0-.5-.1-.3-.4.1-.2-.7-.2-.9-.5-.1-.1-.2-.3.1-.3.2 0 .2-.2.1-.2-.4-.1-.3-.3-.2-.5.1-.3 0-.5-.2-.7-.6-.5-.2-1.3-.6-2-.1.1-.1.2-.1.4 0 .8-.1 1.5-.5 2.2-.2.4.2.9.6 1.1-.4.2-.8.1-1.3 0 .2.3.6.4.9.6-.2.2-.5.1-.7.1 0 .1.3.2.1.3-.1.1-.4.1-.5 0-.3-.1-.6-.1-.9-.2.2.8 1.3.7 1.3 1-.2.3-.7.3-1.1.3.3.3.7.4 1 .5s.2.3.4.4c.1.3-1.5.1-1.7.1 0 .2.2.2.3.3-.4.2-.8-.2-1-.1 0 .4 1 .6 1.2 1.1.1.2.6.2.8.1.1 0 .1-.2.2-.1.2.1-.1.3 0 .3v-.1.1c-.3.1-.5.2-.8.2-.2 0-.4.2-.3.4-.1.2-.4.2-.6.4-.1 0-.2.1-.2.1h-.1c-.5.2-.6-.1-.8-.4.2-.1.4.1.5-.1-.2-.1-.5-.1-.7-.3h0c.6 0 1.1.3 1.7 0-.3 0-1.7-.3-1.4-.7 0 0 0-.1-.1-.1-.4-.3-.8-.9-.9-1.4.6-.1 1.2-.3 1.7-.8-.6.1-1.1.4-1.6 0 .1-.1.3-.1.5-.2-.2-.2-.6-.1-.6-.4s.3-.3.5-.5c-.2-.2-.4.1-.6 0 0-.2.2-.2.2-.3l.3-.3c-.6-.1-.9.5-.9-.4-.1-.5-.4-.8-.5-1.3 0-.2.1-.5-.2-.7-.2.5-.2 1.1-.2 1.6 0 .4 0 .7-.6.8.1.2.3.3.4.3v.1c-.4.1-.6-.3-.9-.4 0-.1-.1-.1-.1 0h0c.1.3.4.4.6.7-1.1-.1-.6-.5-1.1-.5-.4 0-.9-.1-1.3-.5.1-.1.2 0 .3-.1.1 0 .4.1.3-.2 0-.1.3-.1.4-.1s.2 0 .2-.1-.1-.1-.2-.1c-.5.1-.9-.1-1.3-.2-.2-.2-.5-.3-.4-.6.3-.2.5 0 .8-.1.5 0-.1-.5.6-.6-.5 0-1.9-.3-1.5-.9.2-.2.1-.3-.2-.3s-.4-.1-.5-.2v-.1c.2-.4-.3-.7-.4-1.1-.1-.2-.2-.4-.2-.7q0-.1-.1-.1c-.1 0-.1.1-.1.2 0 .4 0 .7-.2 1.1-.1.3.1.5.2.7.1.4-.3.8-.7 1-.2.1-.4.3-.6.4-.6-.5.5-.2.5-.7-.2-.2-.5.2-1-.5.2 0 .4-.1.6-.1s.4 0 .4-.2-.3 0-.4-.2c.3-.2.7-.2.8-.6-.6.2-1.5.3-1.7-.4-.1-.1-.1-.3.1-.3s.2-.1 0-.2c-.3-.2-.5-.4-.5-.8s-.3-.7-.4-1.1c0-.1 0-.2-.1-.2s-.1.1-.1.2c0 .3 0 .7-.2 1-.2.4.4.8-.3 1q-.1 0-.2.1c.1.1.3 0 .5.1 0 .2-.3.1-.4.3h.1c.1.1.4 0 .3.2-.1.4-.6.3-.9.2-.1 0-.2-.1-.2 0 0 .2.6.3.8.4-.3.1-.5.1-.7 0 0 .2.1.2.3.2.9.2-.4 1.2-.8 1.3h1c-.2.1-.3.2-.4.2 0 .2.2.1.3.2 0 .2-.7.2-.9.1-.4-.2-.7-.6-1.2-.9.6-.1 1-.2 1.4-.5-.5-.1-1.2 0-1.7-.4.3-.2.7-.2 1.1-.5-1.1.4-1.5-.4-2.1-.9 1.3.1 2-.6 2.6-1.5-.5.1-.8.6-1.4.6a1.38 1.38 0 0 0 .4-.3s0-.1-.1-.1c-.8.2-1.5.3-2-.5.8-.1 1.5-.1 1.9-.9-.5 0-.9.4-1.5.2.2-.1.4-.2.5-.4-.3 0-.5-.1-.3-.4.1-.2-.7-.2-.9-.5-.1-.1-.2-.3.1-.3.2 0 .2-.2.1-.2-.4-.1-.3-.3-.2-.5.1-.3 0-.5-.2-.7-.6-.5-.2-1.3-.6-2-.1.1-.1.2-.1.4 0 .8-.1 1.5-.5 2.2-.2.4.2.9.6 1.1-.4.2-.8.1-1.3 0 .2.3.6.4.9.6-.2.2-.5.1-.7.1 0 .1.3.2.1.3-.1.1-.4.1-.5 0-.3-.1-.6-.1-.9-.2.2.8 1.3.7 1.3 1-.2.3-.7.3-1.1.3.3.3.7.4 1 .5s.2.3.4.4c.1.3-1.5.1-1.7.1 0 .2.2.2.3.3-.4.2-.8-.2-1-.1 0 .4 1 .6 1.2 1.1.1.2.6.2.8.1.1 0 .1-.2.2-.1.2.1-.1.3 0 .3v-.1.1c-.3.1-.5.2-.8.2-.2 0-.4.2-.3.4-.1.2-.4.2-.6.4-.1 0-.2.1-.2.1h-.1c-.5.2-.6-.1-.8-.4.2-.1.4.1.5-.1-.2-.1-.5-.1-.7-.3h0c.6 0 1.1.3 1.7 0-.3 0-1.7-.3-1.4-.7 0 0 0-.1-.1-.1-.4-.3-.8-.9-.9-1.4.6-.1 1.2-.3 1.7-.8-.6.1-1.1.4-1.6 0 .1-.1.3-.1.5-.2-.2-.2-.6-.1-.6-.4s.3-.3.5-.5c-.2-.2-.4.1-.6 0 0-.2.2-.2.2-.3l.3-.3c-.6-.1-.9.5-.9-.4-.1-.5-.4-.8-.5-1.3 0-.2.1-.5-.2-.7-.2.5-.2 1.1-.2 1.6 0 .4 0 .7-.6.8.1.2.3.3.4.3v.1c-.4.1-.6-.3-.9-.4 0-.1-.1-.1-.1 0h0c.1.3.4.4.6.7-1.1-.1-.6-.5-1.1-.5-.4 0-.9-.1-1.3-.5.1-.1.2 0 .3-.1.1 0 .4.1.3-.2 0-.1.3-.1.4-.1s.2 0 .2-.1-.1-.1-.2-.1c-.5.1-.9-.1-1.3-.2-.2-.2-.5-.3-.4-.6.3-.2.5 0 .8-.1.5 0-.1-.5.6-.6-.5 0-1.9-.3-1.5-.9.2-.2.1-.3-.2-.3s-.4-.1-.5-.2v-.1c.2-.4-.3-.7-.4-1.1-.1-.2-.2-.4-.2-.7q0-.1-.1-.1c-.1 0-.1.1-.1.2 0 .4 0 .7-.2 1.1-.1.3.1.5.2.7.1.4-.3.8-.7 1-.5.2-.8.7-1.5.7.5.4 1 .1 1.6.1-.4.3-.7.4-1.2.4.2.2.3.2.7.2l-.3.3c-.4-.2-.9-.4-1-.6-.8-.6.5-.3.5-.8-.2-.2-.6.2-1.1-.6.2 0 .4-.1.7-.1.2 0 .4 0 .5-.2 0-.3-.3 0-.4-.2.3-.2.7-.3.9-.7-.7.2-1.7.4-2-.4-.1-.1-.1-.3.2-.4.2 0 .2-.1 0-.2-.4-.2-.6-.5-.6-.9s-.4-.8-.4-1.2c0-.1 0-.2-.1-.3-.1 0-.1.1-.1.2 0 .4 0 .8-.2 1.1-.2.5.5.9-.4 1.1-.1 0-.2 0-.2.1.1.1.4 0 .5.1 0 .2-.3.2-.4.3h.1c.1.1.4 0 .4.2-.1.4-.7.4-1 .3-.1 0-.2-.1-.2 0 0 .3.6.4.9.5-.3.2-.6.1-.8 0 0 .2.2.3.3.3 1 .2-.4 1.3-.9 1.5h1.1c-.2.1-.4.2-.5.3 0 .2.2.1.3.2-.1.2-.8.3-1 .1-.5-.3-.8-.7-1.3-1 .6-.1 1.2-.2 1.6-.5-.6-.2-1.3 0-1.9-.4.4-.2.8-.2 1.2-.6-1.3.4-1.7-.5-2.4-1 1.5.1 2.3-.6 2.9-1.7-.6.2-1 .7-1.6.7.2-.1.3-.2.5-.4 0 0 0-.1-.1-.1-.9.3-1.7.4-2.3-.6.9-.1 1.7-.2 2.1-1-.6 0-1.1.5-1.7.2.2-.2.5-.2.6-.4-.3 0-.5-.1-.3-.4.2-.2-.8-.2-1-.6-.1-.1-.2-.3.2-.3.2 0 .3-.2.1-.2-.4-.1-.4-.3-.3-.6s0-.6-.3-.8c-.7-.6-.2-1.5-.6-2.3a.76.76 0 0 0-.2.4c0 .9-.1 1.7-.5 2.5-.2.5.3 1.1.6 1.3-.5.2-.9.1-1.4 0 .2.4.7.4 1 .6-.2.2-.5.1-.7.1-.1.2.3.2.2.4-.2.2-.4.1-.6.1-.3-.1-.7-.1-1-.3.2.9 1.5.8 1.5 1.1-.2.4-.8.3-1.3.3.3.3.8.5 1.1.5.3.1.3.3.5.4.1.3-1.7.1-2 .1 0 .2.2.2.3.3-.4.2-.9-.3-1.1-.1 0 .5 1.2.7 1.4 1.2.2.2.6.3.9.1.1 0 .2-.2.3-.1.2.1-.1.3 0 .4v-.1.1l-.9.3c-.3 0-.4.3-.4.5-.1.2-.4.3-.6.4-.1 0-.2.1-.3.1h-.1c-.6.3-.7-.2-.9-.5.2-.1.4.1.6-.2-.3-.1-.6-.1-.8-.4h0c.7 0 1.3.3 1.9 0-.4 0-2-.3-1.5-.8 0 0 0-.1-.1-.1-.5-.4-.9-1-1-1.6.7-.1 1.4-.3 1.9-.9-.7.1-1.3.5-1.9 0 .2-.1.3-.1.5-.2-.2-.2-.7-.1-.7-.4-.1-.3.4-.4.6-.5-.2-.2-.5.1-.7 0 0-.2.2-.2.3-.3l.3-.3c-.7-.1-1 .6-1.1-.4-.1-.5-.5-1-.5-1.5 0-.3.1-.5-.2-.8-.2.6-.2 1.2-.2 1.8 0 .4 0 .8-.6.9.2.2.3.3.5.3v.1c-.4.1-.7-.3-1-.4 0-.1-.1-.1-.1 0h0c.1.3.5.4.7.8-1.3-.2-.7-.5-1.2-.5s-1.1-.2-1.5-.6c.1-.1.2-.1.3-.1.2 0 .5.1.3-.3 0-.1.3-.1.5-.2.1 0 .2 0 .2-.1s-.1-.1-.2-.1c-.5.1-1-.1-1.5-.2-.3-.2-.6-.4-.5-.7.3-.2.6 0 .9-.1.5 0-.1-.5.7-.7-.6 0-2.2-.3-1.7-1 .2-.2.1-.4-.2-.3-.3 0-.4-.1-.6-.3v-.1c.2-.5-.3-.8-.4-1.2-.1-.3-.2-.5-.2-.8 0-.1 0-.2-.2-.2-.1 0-.1.1-.1.2 0 .4 0 .8-.2 1.3-.2.3.1.5.3.8.1.5-.3.9-.8 1.1-.4.2-.7.5-1 .6l-7.3-10.4c-9.9-12.9-22.7-25.8-27.2-41.1-2.1-7.2-2.7-13.4-4-19.4-8.6-4.6-16.4-10.6-23.3-17.5-5.2-5.2-9.8-10.9-14.5-16.5-4.2-5.1-8.3-10.9-13.7-14.9-7.6-5.7-17-6.8-26-5.4-4.3 6.9-7.4 12.7-16.3 19.1-7.9 5.7-16.9 11.7-24 18.2-10.9 10-15.7 16.9-29.8 23.7-12.8 6.2-19 9.1-22.7 21.8-4.8 16.3-9.5 27-20.6 41.4-1.5 2-2.8 4-4 6-.6-.7-1.1-1.4-1.7-2.2-6.4 9.1-13.3 17.8-21.3 25.5-11.9 11.6-27.3 18.3-40.2 28.6-11.7 9.3-19.5 22.1-22.9 36.6-2 8.7-38.4 26.8-37.5 35.9 0 .1.1.2.1.3h0v.1c.2.8.9 1.5 1.9 2.2 1.1.7 2.6 1.4 4.8 1.9h.1c2.3.6 4.9 1.1 7.7 1.6l20.8 4.3.5-.4c2.8.9 4.7 2 5.3 3.4h23.8c1.7-1.1 785-8 1323.9-12.7H5740c1.5-.8 2.9-1.6 4.4-2.5 8.5-4.7 23.4-2.1 32.5-5.2h1.7c-3.5-15.4-19.8-25.7-30.6-29.1zm-1734.6-95.5c-.1-.1-.1-.2-.2-.2.3 0 .5-.1.8-.1-.2.2-.4.3-.6.3zm62.2 20.9h0c.2.1.5.2.7.3l-.4.4c-.1-.2-.3-.5-.3-.7zm-37.7-9.8c-.3.2-.5.3-.6.4-.2-.1-.3-.2-.3-.4h0a1.92 1.92 0 0 0 1.2-.4c0 .1-.2.2-.3.4zm-.5-.8c-.1 0-.2 0-.2-.1q.1.1.2.1zm118.8 27.9c-.1 0-.2-.1-.3-.1.1 0 .2-.2.3-.1s.1.2 0 .2zm74.5 4.1h0zm-.1-.5c0 .1-.1.1 0 0q-.1.1 0 0-.1.1 0 0c-.1 0 0 0 0 0zm-63.8-3.6c.5.3 1.5.5 1.5.5-.1.4-1.4-.1-1.7-.2l-.1-.1c.1.1.2 0 .3-.2zm-.8.6c.1-.1.3-.2.5-.2 0 0 0 .1.1.1.3.3.7.5 1.1.6.6.2.2.3 0 .6-.3.2-.5.9-1 .4.2-.1.4-.2.5-.3-.1-.2-.5 0-.6-.2 0-.2.3-.2.4-.3-.4 0-.6-.1-.7-.3.1 0 .2-.1.2-.2-.1-.3-.4 0-.5-.2zm-.5.5c0 .1-.1.1-.2.2l-.1-.1c.2-.1.3-.1.3-.1zm-2.5 1.2c-.1.1-.2.1-.3.2-.2-.1-.3-.1-.5-.2h.8zm301.7-34.9h-.1.1zm-17-6.9c0 .4-.4.5-.6.8-.3.2-.5.3-.7.4-.3-.2-.7-.4-1-.6.9 0 1.6-.1 2.3-.6zm237.1 14.3l-.6-.3c.3-.1.7-.2 1-.4-.2.3-.3.5-.4.7zm12.8-17.2c0 .1-.1.2-.1.2l-.3-.3c.2 0 .3.1.4.1zm-12.4 13.8c.1 0 .2 0 .4.1.1.1.2.1.1.3-.3.5-.6.8-1 .8 0 .3.2.2.3.3-.3.1-.5-.1-.7-.1 0 .1.1.2.2.3 0 .9.9.3 1.3.4l-.1.1c-1.6.4-2.1-.8-3.2-1.5 1.1.3 2-.1 2.7-.7zm-97.6 14.1h0c.2 0 .3-.3.4-.1.1.1 0 .2 0 .4-.1-.2-.3-.2-.4-.3zm-.6-3.1c-.2 0-.3 0-.5-.1 0 0 .1-.1.2-.1 0 .1.1.1.3.2zm1 .5c0 .1.1.1.2.2.1.5-2.4.2-2.8.1 0 .3.3.3.5.4-.3.1-.5 0-.8 0a2.47 2.47 0 0 0-.9-.4c1-.2 3.3.5 3.8-.3zm34.4 3.5h.6c-.4.2-.7.5-1.3.5.3-.2.5-.3.7-.5zm-.2 2.5c-.3.2-.6.4-.8.7-.5-.3-1-.9-1.6-1.3h.2c.8.4 1 0 2.2.6zm39.2-22.8v.2s-.1-.1 0-.2q0 .1 0 0zm-.6-2.7c-.2.2-.5.3-.7.4-.1-.1-.1-.2-.2-.3.3-.1.6-.1.9-.1zM4620 801c.5.5 1.7.6 3.2.3-.2.3-.6.4-.9.6-1.2.3-2.4.5-3.1-.8.2 0 .6-.1.8-.1zm-23.7 2.5c-.5.4-.8 1.4-1.6.7.3-.2.6-.3.8-.5 0-.1-.1-.1-.1-.1.4-.1.7-.2 1.1-.5-.5-.1-1-.1-1.5-.2 0 0 .1 0 .1-.1-.5-.1-.9-.2-1.1-.4.3-.1.7-.2 1.1-.4.4.3.8.4 1.2.6.9.2.2.4 0 .9zm-11.9-7.6c.6-.1 1-.1 1.4-.1.6.9 2 .8 2 1.2-.2.3-.6.4-1.1.4-.9-.2-1.7-.5-2.4-1.1-.4-.2-.3-.3.1-.4zm-15.3-17.2q-.1 0-.2.1l-.2-.4c.1.1.3.2.4.3zm28.9 47.4h3.9l-1.5 3.8-2.4-3.8zm220.4-32.5c-.1-.3-.3-.6-.4-.9h.1c.6.1.6.5.3.9zm.4-1.4c-.4.2-.7.1-.9.1-.1-.2-.1-.3-.2-.5.2.2.8.4 1.1.4zm522-46.2c1.4.6 2.9.8 4.4.8.1.1.1.2 0 .3-1.4.6-2.3.7-3.5.7l-.9-1.8zm4.1 7.9c-.2-.3-.3-.6-.5-.9.7.3.7.6.5.9zm-1.6-3l-.9-1.8c2.1.8 4.2 1.2 4.3 1.3-.3.9-1.8.8-3.4.5zm71.9 17.1c-.6-.5-1.2-1-1.9-1.5 1.2-.2 2.4-.4 3.4-.7-.5.7-1 1.4-1.5 2.2z" fill="#723546"/></g><g clip-path="url(#B)"><ellipse class="E" cx="2175" cy="500.6" rx="213.3" ry="212.7" opacity=".1" fill="url(#C)"/><ellipse class="F" cx="2175" cy="500.6" rx="182.8" ry="182.3" opacity=".1" fill="url(#D)"/><ellipse class="G" cx="2175" cy="500.6" rx="152.3" ry="151.9" opacity=".1" fill="url(#E)"/><ellipse class="H" cx="2175" cy="500.6" rx="121.9" ry="121.5" fill="url(#F)" opacity=".1"/><ellipse class="I" cx="2175" cy="500.6" rx="91.4" ry="91.2" opacity=".1" fill="url(#G)"/><ellipse class="J" cx="2175" cy="500.6" rx="60.9" ry="60.8" opacity=".1" fill="url(#H)"/><ellipse cx="2175" cy="500.6" rx="30.5" ry="30.4" fill="#fcfff9"/></g><g clip-path="url(#I)"><use href="#R" class="M" opacity=".05" fill="url(#J)"/><path class="N" d="M2570.2 294.5h-24.7l-12.4 21.4 12.4 21.4h24.7l12.4-21.4-12.4-21.4z" opacity=".05" fill="url(#K)"/><use href="#S" class="O" opacity=".05" fill="url(#L)"/><path class="P" d="M2806.8 96.2h-155.5l-77.7 134.3 77.7 134.3h155.5l77.7-134.3-77.7-134.3z" opacity=".05" fill="url(#M)"/><path class="Q" d="M1458.9 774.9h-24.8l-12.4 21.4 12.4 21.4h24.8l12.4-21.4-12.4-21.4z" opacity=".05" fill="url(#N)"/><use href="#T" class="R" opacity=".05" fill="url(#O)"/><path class="S" d="M1147.1 914.1h-24.8l-12.4 21.5 12.4 21.4h24.8l12.4-21.4-12.4-21.5z" opacity=".05" fill="url(#P)"/><path class="T" d="M1728.7 629.9h-73.8l-36.8 63.7 36.8 63.7h73.8l36.9-63.7-36.9-63.7z" fill="url(#Q)" opacity=".05"/></g></svg>